<svg id="0903d001-9c03-4fa1-b8aa-9234891305d5" data-name="圖層 1" xmlns="http://www.w3.org/2000/svg" xmlns:xlink="http://www.w3.org/1999/xlink" viewBox="0 0 992.13 992.13"><defs><style>.\34 9274a5c-0476-4114-936e-e8da60346eb5,.\38 5a31c14-3969-4a17-b927-0ecea04fece4{fill:none;}.\34 9274a5c-0476-4114-936e-e8da60346eb5{stroke:#0f7d99;stroke-linecap:round;stroke-linejoin:round;stroke-width:6px;}.\34 1bc1fd4-51eb-42dc-94f9-43bdc33f5b87{fill:#1ba3d1;}.\32 c227674-28a1-4c80-aff0-53f211568bf5{fill:#148fc5;}.f0732131-044e-4014-b869-3cf296f51e86{fill:#92c9e6;}.d0f700f3-6556-4d5d-afa1-b021673737c8{fill:#88c2d5;}.d490dc13-5344-43c4-a944-2a9028cee06a{fill:#0b82b1;}.\33 003ba46-df6f-4ccd-bdb6-426174b9644f{fill:#fff;}.\39 a7c8b78-14f7-4bc9-9a01-69c5d6333ab2{fill:#eeae18;}.\33 be1d4fa-fb05-4b11-9e6a-70b0120262b2{fill:#e0f0f7;}.\38 f266ae3-8dc2-402f-99bd-a74c64a562ad{clip-path:url(#39ad4cd0-ffe2-4c7b-9428-e2104697d789);}.\30 3104143-0118-4503-b6da-943895c2f53d{clip-path:url(#c318489b-99a5-465b-a8db-175db7766ab0);}.c0151fee-0da2-4157-85a2-df075f1cc48f{clip-path:url(#ba713cc0-f9c3-4318-a551-7eb63bfd589d);}.f101a538-3d6e-4dbe-9ad4-835dd43c6053{clip-path:url(#007025f6-8db8-4b15-90f4-f72ec813c6ed);}.bbcfb179-7987-451b-a2b9-65e878efbdbb{clip-path:url(#9d1cd723-033b-478c-8a40-2fb453205e5c);}.d90770fb-9fd9-4d0f-9673-2dba928e4b3a{clip-path:url(#8d6e960a-ac40-4215-ae9b-3b00c10b9a98);}.\30 a5e14aa-8807-4760-9bfb-a66febb6bfd3{clip-path:url(#c84cc628-1c4e-45f2-a47b-cfe1731f2b1a);}.d1d312cb-4773-4f9d-9132-6fc4a4c15e7b{clip-path:url(#2e631b10-76cb-48fd-a093-b30401f068b9);}.\34 9be73d5-c261-4500-bcd3-dbe135aa17c3{clip-path:url(#ee5f598d-aab4-4496-a9af-7d1974f0bfde);}.dc443a5b-c206-43af-9c8c-21b1dea6184e{clip-path:url(#14cd8cfd-9c83-4184-87fa-bf7edcb62963);}</style><clipPath id="39ad4cd0-ffe2-4c7b-9428-e2104697d789"><path id="42847029-e377-4261-ae8a-e0fd8ae48258" data-name="SVGID" class="85a31c14-3969-4a17-b927-0ecea04fece4" d="M736.74,211.5a21.58,21.58,0,0,0-11.46.3,20.51,20.51,0,0,0-3,1.15,21.56,21.56,0,0,0-9.74,9.11,21.69,21.69,0,0,0,25.23,31.29c.46-.14.91-.29,1.35-.46a21.61,21.61,0,0,0,10.72-8.69,21.7,21.7,0,0,0-13.13-32.69Z"/></clipPath><clipPath id="c318489b-99a5-465b-a8db-175db7766ab0"><path id="e596bcea-8653-4c8c-9e0f-3d3bc20e6142" data-name="SVGID" class="85a31c14-3969-4a17-b927-0ecea04fece4" d="M344.11,160.73A19,19,0,0,0,334,161a18,18,0,0,0-2.62,1,19,19,0,0,0-8.57,8A19.08,19.08,0,0,0,345,197.54c.41-.13.8-.25,1.19-.41a19,19,0,0,0,9.43-7.65,19.09,19.09,0,0,0-11.55-28.76Z"/></clipPath><clipPath id="ba713cc0-f9c3-4318-a551-7eb63bfd589d"><path id="4e867d27-b677-4887-9bbf-2dcc82ac29a3" data-name="SVGID" class="85a31c14-3969-4a17-b927-0ecea04fece4" d="M181.82,314.34a19,19,0,0,0-10.08.26,18.05,18.05,0,0,0-2.62,1,19,19,0,0,0-8.57,8,19.08,19.08,0,0,0,22.19,27.53c.41-.13.8-.25,1.19-.41a19,19,0,0,0,9.43-7.65,19.09,19.09,0,0,0-11.55-28.76Z"/></clipPath><clipPath id="007025f6-8db8-4b15-90f4-f72ec813c6ed"><path id="6d4030dc-485e-474c-b804-0bf821e26948" data-name="SVGID" class="85a31c14-3969-4a17-b927-0ecea04fece4" d="M921.58,486.69a21.58,21.58,0,0,0-11.46.3,20.51,20.51,0,0,0-3,1.15,21.56,21.56,0,0,0-9.74,9.11,21.69,21.69,0,0,0,25.23,31.29c.46-.14.91-.29,1.35-.46a21.61,21.61,0,0,0,10.72-8.69,21.7,21.7,0,0,0-13.13-32.69Z"/></clipPath><clipPath id="9d1cd723-033b-478c-8a40-2fb453205e5c"><path id="b2dc6e36-f1ba-422e-91c2-859ef661b423" data-name="SVGID" class="85a31c14-3969-4a17-b927-0ecea04fece4" d="M863.77,751.62a21.58,21.58,0,0,0-11.46.3,20.51,20.51,0,0,0-3,1.15,21.56,21.56,0,0,0-9.74,9.11,21.69,21.69,0,0,0,25.23,31.29c.46-.14.91-.29,1.35-.46a21.61,21.61,0,0,0,10.72-8.69,21.7,21.7,0,0,0-13.13-32.69Z"/></clipPath><clipPath id="8d6e960a-ac40-4215-ae9b-3b00c10b9a98"><path id="ffe1549a-41d9-469d-9f2c-a07bc7dbfc32" data-name="SVGID" class="85a31c14-3969-4a17-b927-0ecea04fece4" d="M665.72,737.35a21.58,21.58,0,0,0-11.46.3,20.51,20.51,0,0,0-3,1.15,21.56,21.56,0,0,0-9.74,9.11,21.69,21.69,0,0,0,25.23,31.29c.46-.14.91-.29,1.35-.46A21.61,21.61,0,0,0,678.85,770a21.7,21.7,0,0,0-13.13-32.69Z"/></clipPath><clipPath id="c84cc628-1c4e-45f2-a47b-cfe1731f2b1a"><path id="44881ba9-727e-4540-8298-6d2222e4c2af" data-name="SVGID" class="85a31c14-3969-4a17-b927-0ecea04fece4" d="M345,710.07a27,27,0,0,0-14.35.37,25.7,25.7,0,0,0-3.73,1.43,27,27,0,0,0-12.2,11.41,27.16,27.16,0,0,0,31.6,39.2c.58-.18,1.15-.36,1.7-.58A27.06,27.06,0,0,0,361.47,751a27.18,27.18,0,0,0-16.45-41Z"/></clipPath><clipPath id="2e631b10-76cb-48fd-a093-b30401f068b9"><path id="5d318993-4b0b-4578-b792-df91e362feec" data-name="SVGID" class="85a31c14-3969-4a17-b927-0ecea04fece4" d="M118,657.2a32.43,32.43,0,0,0-17.21.45,30.82,30.82,0,0,0-4.47,1.72,32.39,32.39,0,0,0-14.63,13.69,32.58,32.58,0,0,0,37.9,47c.7-.22,1.37-.43,2-.7a32.47,32.47,0,0,0,16.1-13.06A32.6,32.6,0,0,0,118,657.2Z"/></clipPath><clipPath id="ee5f598d-aab4-4496-a9af-7d1974f0bfde"><path id="f12759d0-f7ff-4719-b87c-2fc6d6cf7926" data-name="SVGID" class="85a31c14-3969-4a17-b927-0ecea04fece4" d="M713.32,338.6a15.11,15.11,0,0,0-8,.21,14.38,14.38,0,0,0-2.08.8A15.1,15.1,0,0,0,696.4,346a15.19,15.19,0,0,0,17.66,21.91c.32-.1.64-.2.95-.32a15.13,15.13,0,0,0,7.51-6.09,15.19,15.19,0,0,0-9.19-22.89Z"/></clipPath><clipPath id="14cd8cfd-9c83-4184-87fa-bf7edcb62963"><path id="142d2157-da66-4764-8887-196ebee0b50e" data-name="SVGID" class="85a31c14-3969-4a17-b927-0ecea04fece4" d="M316.83,284.83a10.77,10.77,0,0,0-5.72.15,10.23,10.23,0,0,0-1.48.57,10.76,10.76,0,0,0-4.86,4.55,10.83,10.83,0,0,0,12.59,15.62c.23-.07.46-.14.68-.23a10.79,10.79,0,0,0,5.35-4.34,10.83,10.83,0,0,0-6.55-16.32Z"/></clipPath></defs><title>stars</title><g id="2e420dbd-6e93-4685-812c-80a50695e1d3" data-name="planet_elec"><g id="5fa4ddf4-e13e-462d-aa3c-e405249289bd" data-name="cir3"><path class="49274a5c-0476-4114-936e-e8da60346eb5" d="M233.2,332.37A287.85,287.85,0,0,1,326.39,230.5"/><path class="49274a5c-0476-4114-936e-e8da60346eb5" d="M217.83,572.64a288,288,0,0,1-9.59-177.76"/><path class="49274a5c-0476-4114-936e-e8da60346eb5" d="M303,690.3a288.19,288.19,0,0,1-41-41.39"/><path class="49274a5c-0476-4114-936e-e8da60346eb5" d="M607.73,728a287.52,287.52,0,0,1-211,13.69"/><path class="49274a5c-0476-4114-936e-e8da60346eb5" d="M679.23,679.7c-8,7.47-10.94,12.28-19.76,18.8"/><path class="49274a5c-0476-4114-936e-e8da60346eb5" d="M764.44,532.31a284.56,284.56,0,0,1-29.25,76.35"/><path class="49274a5c-0476-4114-936e-e8da60346eb5" d="M713.94,296.89a285,285,0,0,1,56.8,151.84"/><path class="49274a5c-0476-4114-936e-e8da60346eb5" d="M391.15,198.35a286.94,286.94,0,0,1,273.91,47.94"/></g><g id="35e53b63-ecce-426b-bf75-3b80fdb2f065" data-name="cir4"><path class="49274a5c-0476-4114-936e-e8da60346eb5" d="M213.56,308.07c21.8-36.66,53.26-74.83,91.82-98.33"/><path class="49274a5c-0476-4114-936e-e8da60346eb5" d="M201.92,608.66a316.71,316.71,0,0,1-18.68-232.13"/><path class="49274a5c-0476-4114-936e-e8da60346eb5" d="M284.8,713A317.44,317.44,0,0,1,238,665.54"/><path class="49274a5c-0476-4114-936e-e8da60346eb5" d="M604.27,759.35c-42.05,18.41-72.39,25.27-119.28,25.27a315.45,315.45,0,0,1-93.7-14.15"/><path class="49274a5c-0476-4114-936e-e8da60346eb5" d="M701.42,698.44a226.18,226.18,0,0,1-19.2,17"/><path class="49274a5c-0476-4114-936e-e8da60346eb5" d="M792.31,541a313.6,313.6,0,0,1-36,89.35"/><path class="49274a5c-0476-4114-936e-e8da60346eb5" d="M742.79,287.08a313.94,313.94,0,0,1,57.56,171.14"/><path class="49274a5c-0476-4114-936e-e8da60346eb5" d="M387.86,168.78a316.15,316.15,0,0,1,289.91,50.48"/></g><g id="e14cfc68-ff20-4161-916e-b5cc4617ea07" data-name="cir5"><path class="49274a5c-0476-4114-936e-e8da60346eb5" d="M189.25,288.48c24.23-39.58,63.62-82,102.55-105.85"/><path class="49274a5c-0476-4114-936e-e8da60346eb5" d="M175.64,625.29A347.8,347.8,0,0,1,151,376.53"/><path class="49274a5c-0476-4114-936e-e8da60346eb5" d="M278.08,747a348.44,348.44,0,0,1-78.3-81.15"/><path class="49274a5c-0476-4114-936e-e8da60346eb5" d="M613.62,790.89c-42.08,18.17-79.88,24.66-128.63,24.66A345.53,345.53,0,0,1,356.38,790.9"/><path class="49274a5c-0476-4114-936e-e8da60346eb5" d="M724.28,719.73c-6.32,6.14-10.67,9.84-17.44,15.49"/><path class="49274a5c-0476-4114-936e-e8da60346eb5" d="M830.13,522.08c-7,48.68-24.29,87.54-49.32,127.49"/><path class="49274a5c-0476-4114-936e-e8da60346eb5" d="M772.45,275.59a344.64,344.64,0,0,1,58.73,179.27"/><path class="49274a5c-0476-4114-936e-e8da60346eb5" d="M379.69,138.9a347.19,347.19,0,0,1,310.41,50.92"/></g><g id="e4b51219-f863-47d1-a397-069cff2681fd" data-name="cir2"><path class="49274a5c-0476-4114-936e-e8da60346eb5" d="M325.74,270.47c4.93-4.06,7.53-6,12.76-9.73"/><path class="49274a5c-0476-4114-936e-e8da60346eb5" d="M269.78,332.87A206.53,206.53,0,0,1,288,308.07"/><path class="49274a5c-0476-4114-936e-e8da60346eb5" d="M246.64,558.94A256.16,256.16,0,0,1,237,410.81"/><path class="49274a5c-0476-4114-936e-e8da60346eb5" d="M333.46,673.77a256.16,256.16,0,0,1-44.32-41.91"/><path class="49274a5c-0476-4114-936e-e8da60346eb5" d="M584.11,703.73A255.63,255.63,0,0,1,396.7,708"/><path class="49274a5c-0476-4114-936e-e8da60346eb5" d="M732.45,529.46a253.08,253.08,0,0,1-27.48,68"/><path class="49274a5c-0476-4114-936e-e8da60346eb5" d="M726.13,387a253.44,253.44,0,0,1,12.64,60.77"/><path class="49274a5c-0476-4114-936e-e8da60346eb5" d="M415.39,224.05a255.3,255.3,0,0,1,212,33.86"/></g><path class="49274a5c-0476-4114-936e-e8da60346eb5" d="M404.45,262.05q7.13-2.78,14.5-5.07"/><g id="e68e9432-2b76-4b55-b4e2-16a7d53d6df5" data-name="cir1"><path class="49274a5c-0476-4114-936e-e8da60346eb5" d="M341.2,300a158.77,158.77,0,0,1,14.51-11.53"/><path class="49274a5c-0476-4114-936e-e8da60346eb5" d="M300.17,345.89A222.91,222.91,0,0,1,315,326.18"/><path class="49274a5c-0476-4114-936e-e8da60346eb5" d="M281.83,558.94a223.11,223.11,0,0,1-11.21-148.13"/><path class="49274a5c-0476-4114-936e-e8da60346eb5" d="M345.5,641.91a223.43,223.43,0,0,1-33.26-33.25"/><path class="49274a5c-0476-4114-936e-e8da60346eb5" d="M562.39,677.31a223.09,223.09,0,0,1-152,1"/><path class="49274a5c-0476-4114-936e-e8da60346eb5" d="M703.72,507.76a220.8,220.8,0,0,1-33.49,83.87"/><path class="49274a5c-0476-4114-936e-e8da60346eb5" d="M698.29,407a221.37,221.37,0,0,1,8.22,46.05"/><path class="49274a5c-0476-4114-936e-e8da60346eb5" d="M418.95,257a222.62,222.62,0,0,1,189,27.15"/></g><path class="41bc1fd4-51eb-42dc-94f9-43bdc33f5b87" d="M878,493.58a40.31,40.31,0,0,1,3.69-7.52,41,41,0,1,1-3.69,7.52Zm33.78-7a21.69,21.69,0,0,0-13.59,33.08h0a21.47,21.47,0,0,0,6.64,6.52q.63.4,1.26.73a21.57,21.57,0,0,0,7.75,2.43,21.13,21.13,0,0,0,5.84-.12,21.48,21.48,0,0,0,11-5.2,21,21,0,0,0,4-4.73,21.7,21.7,0,0,0-17.4-33.19A20.93,20.93,0,0,0,911.81,486.55Z"/><path class="41bc1fd4-51eb-42dc-94f9-43bdc33f5b87" d="M834.59,739.76a40.79,40.79,0,0,1,18.21-7.36,40.86,40.86,0,1,1-18.21,7.36Zm45.55,35.58A21.59,21.59,0,0,0,878.38,764a20.19,20.19,0,0,0-1.52-2.81,21.7,21.7,0,0,0-10.28-8.48h0a21.63,21.63,0,0,0-12-1.15,21.94,21.94,0,0,0-4.86,1.52,21.67,21.67,0,0,0-10.93,28.67c.2.44.41.87.64,1.3a21.48,21.48,0,0,0,5.09,6.34,21.09,21.09,0,0,0,4.9,3.14h0a21.71,21.71,0,0,0,30.73-17.22Z"/><path class="41bc1fd4-51eb-42dc-94f9-43bdc33f5b87" d="M712.57,222.05a21.69,21.69,0,0,0,25.23,31.29c.46-.14.91-.29,1.35-.46a21.61,21.61,0,0,0,10.72-8.69,21.69,21.69,0,0,0-24.59-32.4,20.51,20.51,0,0,0-3,1.15,21.56,21.56,0,0,0-9.74,9.11ZM710.1,267.4a40.83,40.83,0,0,1-14.5-15.29,41.18,41.18,0,0,1-5-18.94v-.08a40.94,40.94,0,1,1,19.46,34.3Z"/><path class="41bc1fd4-51eb-42dc-94f9-43bdc33f5b87" d="M715.42,365.44a13.37,13.37,0,0,0,3-2h0a13.31,13.31,0,0,0,4.05-6.32h0a13.39,13.39,0,0,0-6-15.28,13.26,13.26,0,0,0-6.82-1.86,12.6,12.6,0,0,0-1.95.14,13.35,13.35,0,0,0-11.4,13.23,13.35,13.35,0,0,0,13.37,13.35c.3,0,.59,0,.88,0h0A13.13,13.13,0,0,0,715.42,365.44Zm-23.91,5.35a25,25,0,0,1-6.65-13.19,24.36,24.36,0,0,1-.36-4.23,25.07,25.07,0,0,1,1.53-8.66c.13-.36.28-.7.41-1a25.21,25.21,0,1,1,5.08,27.12Z"/><path class="41bc1fd4-51eb-42dc-94f9-43bdc33f5b87" d="M680,767.93a21.51,21.51,0,0,0,2.14-11.25,21.1,21.1,0,0,0-.5-3.15,21.51,21.51,0,0,0-6.85-11.43h0a21.61,21.61,0,0,0-10.94-5.1,21.1,21.1,0,0,0-5.09-.2,21.7,21.7,0,0,0-18.63,14.14,21.45,21.45,0,0,0-1.27,9.22c0,.48.09,1,.17,1.43a21.71,21.71,0,0,0,17,18.07,21.16,21.16,0,0,0,6.21.4A21.67,21.67,0,0,0,680,767.93ZM619.69,756a40.91,40.91,0,0,1,58.48-34.52l.12.07a40.89,40.89,0,1,1-58.54,40.11A40.4,40.4,0,0,1,619.69,756Z"/><path class="41bc1fd4-51eb-42dc-94f9-43bdc33f5b87" d="M684.86,357.61l-10.44,5.24c6.92-3.61,9.33-12.11,11.61-18.13a25.07,25.07,0,0,0-1.53,8.66A24.36,24.36,0,0,0,684.86,357.61Z"/><path class="41bc1fd4-51eb-42dc-94f9-43bdc33f5b87" d="M660.84,386.18l10.78-5.42c-4.82,2.71-9.67,6.73-7.74,12.44C662.91,390.84,661.9,388.49,660.84,386.18Z"/><path class="41bc1fd4-51eb-42dc-94f9-43bdc33f5b87" d="M340.55,762.57a26.12,26.12,0,0,0,21.6-14.84h0a26.34,26.34,0,0,0,2.07-6.4,26,26,0,0,0-1.37-14.51h0A26.16,26.16,0,0,0,323.47,715c-.47.33-.94.68-1.39,1a26,26,0,0,0-9,14h0a26.06,26.06,0,0,0,.58,14.71,26.16,26.16,0,0,0,26.84,17.76ZM370.62,699a49.34,49.34,0,1,1-60.45-2.91A49.28,49.28,0,0,1,352,689,49,49,0,0,1,370.62,699Z"/><path class="41bc1fd4-51eb-42dc-94f9-43bdc33f5b87" d="M354,166.78a19.09,19.09,0,0,0-33.53,12.48,18.09,18.09,0,0,0,.21,2.8,18.76,18.76,0,0,0,2.26,6.6,19.06,19.06,0,0,0,3,3.92h0a19,19,0,0,0,9.23,5.24,18.57,18.57,0,0,0,4.45.53,19.08,19.08,0,0,0,19.09-19.1c0-.43,0-.85,0-1.27A19,19,0,0,0,354,166.78Zm-8.39,48a36.17,36.17,0,0,1-18.22-1.61l-1.7-.66a36,36,0,1,1,19.92,2.27Z"/><path class="41bc1fd4-51eb-42dc-94f9-43bdc33f5b87" d="M330.86,307.19a20.19,20.19,0,0,1-9.48,7.28,19.42,19.42,0,0,1-3.32.94,20.25,20.25,0,0,1-7.24.08l-.41-.08a20.41,20.41,0,1,1,23.86-23.88,20.88,20.88,0,0,1,.3,5.65A20.44,20.44,0,0,1,330.86,307.19Zm-6.16-14.54a10.42,10.42,0,0,0-1.74-3.7,10,10,0,0,0-2-2.08,10.7,10.7,0,0,0-5.65-2.29,10.82,10.82,0,0,0-11.7,12.81,10.26,10.26,0,0,0,.42,1.54h0a10.81,10.81,0,0,0,9.72,7.23,10.41,10.41,0,0,0,2.53-.18,10.81,10.81,0,0,0,8.6-12.67A6.65,6.65,0,0,0,324.71,292.65Z"/><path class="41bc1fd4-51eb-42dc-94f9-43bdc33f5b87" d="M212.55,339.85a36.05,36.05,0,0,1-25.84,27.76l-.57.14L185,368a36,36,0,1,1,27.57-28.18Zm-38.84,11.78a19,19,0,0,0,10.57-1h0a19.08,19.08,0,0,0,8.59-28.72c-.24-.35-.5-.68-.76-1a19,19,0,0,0-5.46-4.64,18.44,18.44,0,0,0-4.76-1.89,19.09,19.09,0,0,0-20.27,29.49,18,18,0,0,0,1.78,2.17,19,19,0,0,0,10.3,5.61Z"/><path class="41bc1fd4-51eb-42dc-94f9-43bdc33f5b87" d="M87.19,665.84a32.47,32.47,0,0,0-8.8,16,32.14,32.14,0,0,0-.67,9.3,32.53,32.53,0,0,0,34.78,30.13,33.22,33.22,0,0,0,4.73-.69,32.54,32.54,0,0,0,25.39-34.08,31.59,31.59,0,0,0-.62-4.38L167.46,667A61.73,61.73,0,0,1,170,702.53a.16.16,0,0,0,0,.07c-.46,1.72-.85,3.19-1.17,4.35a61.26,61.26,0,1,1-46.46-78.2l.18,0c1.1.25,2.47.58,4,1a61.39,61.39,0,0,1,30.16,19.14L131.2,664a32.52,32.52,0,0,0-23.35-7.63q-1.09.08-2.15.23h0a32.37,32.37,0,0,0-18.49,9.2Z"/><path class="41bc1fd4-51eb-42dc-94f9-43bdc33f5b87" d="M167.46,667,142,682.16A32.36,32.36,0,0,0,131.2,664l25.48-15.14A60.9,60.9,0,0,1,167.46,667Z"/><path class="41bc1fd4-51eb-42dc-94f9-43bdc33f5b87" d="M674.4,505.72c2.24-7.91,11.25-8.85,19-8.42l-17.28-1.64C675.67,499,675.07,502.41,674.4,505.72Z"/><path class="41bc1fd4-51eb-42dc-94f9-43bdc33f5b87" d="M881.71,486.06a40.8,40.8,0,0,1,7.31-8.72c-7.29,6-21.68,8.73-37.2,9.78l-.08-.39c-1.31-6.23-4.37-20.82-20.28-22.32-5.68-.54-13.9,1.2-20.65,12.56a77.51,77.51,0,0,0-4.7,9.67l-3.69-.27a77.66,77.66,0,0,0-2.82-10.46c-4.5-12.42-12.23-15.68-17.92-16.21s-13.9,1.2-20.65,12.56a78,78,0,0,0-4.76,9.82c-.82,2-1.61,4-2.39,6-.39-2.11-.79-4.24-1.23-6.34a78,78,0,0,0-2.83-10.54c-4.5-12.42-12.23-15.67-17.92-16.21-14.6-1.38-21.64,10.58-25,16.32-.37.63-1,1.64-1.69,2.65h0c-1.53,2.4-5.79,2.63-7.77,2.54l-.3,0c-8.27-.94-18.43-3.41-18.83-12.63h0c0,1,0,2,0,3,0,2.62-.06,5.24-.15,7.84a196.25,196.25,0,0,1-2,21l17.28,1.64,11.4,1.08v.08c.78.07,1.54.12,2.28.14,10.28.31,16.26-4.25,20-9.81.35,1.74.66,3.43.92,4.85.43,2.35.87,4.72,1.36,7.07a78.22,78.22,0,0,0,2.84,10.6c4.5,12.42,12.23,15.67,17.92,16.21s13.9-1.2,20.65-12.56a78.23,78.23,0,0,0,4.78-9.87c.81-2,1.6-4,2.37-5.94.39,2.09.78,4.2,1.21,6.28A78.25,78.25,0,0,0,782,516c4.5,12.42,12.23,15.68,17.92,16.21.58.05,1.18.09,1.81.09,5.54,0,12.78-2.44,18.84-12.65a73.91,73.91,0,0,0,4.32-8.78l.46-1.09c.92-2.21,1.79-4.46,2.66-6.68l.62-1.6c2.38,5.42,6.9,8.77,15.23,10l2.53.24.54.05c8.78,1.36,31.48,12.37,35.58,18.88l-1.43-17-5.5-8.81a40.86,40.86,0,0,1,6.11-18.8Zm-78,6.72c-.39-2.11-.79-4.24-1.23-6.34l3.62.34C805.24,488.76,804.45,490.78,803.67,492.78Z"/><path class="41bc1fd4-51eb-42dc-94f9-43bdc33f5b87" d="M814.38,718.59a5.51,5.51,0,0,1-2.19-6.73h0a40.55,40.55,0,0,0,2.91-11.74,23.19,23.19,0,0,0-9.54-20.53c-12.63-9.28-26.6-2.65-38,4.44a80.65,80.65,0,0,0,3.72-12c1.35-6.5,2.15-18.62-7.7-26.66s-21.56-4.83-27.66-2.21a79.89,79.89,0,0,0-10.9,6,80,80,0,0,0,3.66-11.87c1.35-6.5,2.15-18.62-7.7-26.66s-21.56-4.84-27.66-2.21c-1.78.77-3.55,1.67-5.31,2.64h0c-3.21,1.66-10.12.88-12.63-1.17h0l-18.55-15.15c-6.61-5.41-15-13.62-9.86-22h0q-2.94,4.56-6.16,8.93h0a195.45,195.45,0,0,1-13.34,16.32q-3.62,4-7.46,7.73c6.22-5.78,14.33-1.66,20.68,3.06l.11.08,2.57,2.1c1.66,1.35,3.92,4.13,2.4,7.64-2.49,5.43-10.06,22,5.15,34.38,9.85,8,21.56,4.84,27.66,2.21a80,80,0,0,0,10.9-6A79.88,79.88,0,0,0,685.88,661c-1.35,6.5-2.15,18.62,7.7,26.66s21.56,4.83,27.66,2.21a79.88,79.88,0,0,0,10.89-6,80,80,0,0,0-3.66,11.87c-1.35,6.5-2.15,18.62,7.69,26.66s21.51,4.88,27.6,2.29c1.62-.69,3.22-1.49,4.82-2.35v0c.13-.08.27-.15.41-.23l.28-.15c3.23-1.53,8.12-.71,10.09,1.12,17,15.85,36.49,37,38.37,51.75a40.87,40.87,0,0,1,3.56-18.79L779.48,722h0l41.8,34.13a40.73,40.73,0,0,1,13.31-16.35,40.8,40.8,0,0,1,18.21-7.36h0C842.92,733.35,828.54,727,814.38,718.59Z"/><path class="41bc1fd4-51eb-42dc-94f9-43bdc33f5b87" d="M625.81,680.93l-.07-.11-1.66-2.73c-2.25-4.72.33-9,2.74-11.49,6.82-7.32,8.46-14,4.88-19.92s-10.28-7.55-19.92-4.89c-2.5.69-5.24,1.64-8.07,2.69l-.16-.27c-.93-1.58-1.86-3.28-2.68-5a14.71,14.71,0,0,0-1.08-2.57c-2.1-5.59-2.51-11.41,2.44-15.42v0q-4.3,3.3-8.78,6.38a191.26,191.26,0,0,1-18,10.93q-4.43,2.38-9,4.53a10.5,10.5,0,0,1,9.83,1.42c-5.14,4.45-14.09,12.93-7.88,23.17,3.58,5.91,10.28,7.55,19.92,4.89L590,672q-.62.63-1.19,1.24c-6.82,7.31-8.46,14-4.88,19.92s10.28,7.55,19.92,4.89c.48-.13,1-.29,1.48-.44h0c1.63-.52,5.49,1,6.3,3.74,4.87,16.44,7.74,43.9,8.11,54.7A40.91,40.91,0,0,1,649,719.18h0a41.24,41.24,0,0,1,8.24-1.52,40.8,40.8,0,0,1,20.93,3.87C667.4,715.63,633.3,693.08,625.81,680.93Z"/><path class="41bc1fd4-51eb-42dc-94f9-43bdc33f5b87" d="M410.2,647c-3.16-1.3-6.29-2.67-9.36-4.13a188.85,188.85,0,0,1-18.55-10c-2.92-1.77-5.77-3.64-8.58-5.55,4.14,3.3,4.51,8.07,3.35,12.93-6.14-1.88-15.66-4.44-20,3.64-3.81,7.07,3,13.49,5.4,15.71h0c1.11,1,2.71,3.17,1,4.89-11.06,10.67-32.48,21.48-43,26.07h0a49.36,49.36,0,0,1,66.41,35.82,212.7,212.7,0,0,1-3-37c0-1.16.41-2.47,2.07-2.13h0a25.23,25.23,0,0,0,5.55.71c3.89,0,7.61-1.3,9.9-5.56,3.86-7.16-3.18-13.66-5.49-15.8-.83-.77-1.74-1.56-2.7-2.36h0c-1.44-1.23-1.39-4.52-.48-6.08C396.65,651.48,402.42,644.53,410.2,647Z"/><path class="41bc1fd4-51eb-42dc-94f9-43bdc33f5b87" d="M322.08,575.12A191.64,191.64,0,0,1,311.3,557q-2.31-4.41-4.41-9c2.63,7.53-3.9,13.5-10.33,17.71l-.14.1-14.5,8.62a10.21,10.21,0,0,1-11.56-.32l-2.08-1.75c-6.71-5.67-16.64-7.71-22.62-3.85-4.65,3-9.86,8.88-7.43,21.7-10.1-8.26-17.86-6.67-22.61-3.84s-10,9.06-7.31,22.28c.15.75.33,1.52.52,2.3h0c0,.07,0,.14.06.21.06.24.13.48.19.72.93,4.28-1.41,6.62-3.61,8l-15.85,9.42c-17.88,10.68-49.05,3.79-63.1.44a61.39,61.39,0,0,1,30.16,19.14h0a61.1,61.1,0,0,1,14.64,35.58,61.63,61.63,0,0,1-1.37,18c3.78-14,12.62-44.5,30.45-55.09l2.48-1.47c1.95-1.16,3.63-1.52,5.15.09a43.27,43.27,0,0,0,8,7.2,19.32,19.32,0,0,0,10.52,3.29,17.46,17.46,0,0,0,9-2.52c4.75-2.83,9.86-8.88,7.43-21.69,10.09,8.25,17.85,6.66,22.6,3.84s9.86-8.88,7.43-21.7c10.1,8.26,17.86,6.67,22.61,3.85s10-9.06,7.32-22.28c-.33-1.63-.77-3.34-1.27-5.08h0c-.7-2.62,2.17-5,3.55-5.8,7.29-4.22,17.29-8.61,23.19-1.21h0Q325.1,579.63,322.08,575.12Z"/><path class="41bc1fd4-51eb-42dc-94f9-43bdc33f5b87" d="M294.54,383c-2-.54-1.37-2.81-.85-4.55,2-6.48,4.91-17.6-4.94-22.78-5.63-3-11.8-1-18.34,5.76-1.65,1.71-3.37,3.72-5.1,5.87.78-2.65,1.47-5.2,1.95-7.53,1.9-9.23,0-15.42-5.63-18.38s-11.8-1-18.34,5.76c-.85.88-1.72,1.86-2.61,2.88h0c-2.31,2.57-5.86,1.81-8.11.59l-5.32-2.86c-9.61-5.44-12.7-17.49-15.7-26.17l-.11,0a36,36,0,0,1-8.85,36.8,35.53,35.53,0,0,1-4.66,3.9,36,36,0,0,1-11.22,5.29c7.82-2,17.87-5.35,26.86-2.73a1.79,1.79,0,0,1,1,2.38h0a39.49,39.49,0,0,0-2.38,8.07c-1.43,9.45,4.7,13.47,6.61,14.48,5.63,3,11.8,1,18.34-5.76,1.36-1.41,2.77-3,4.19-4.76l.51.27c-.62,2.15-1.16,4.23-1.55,6.15-1.89,9.23,0,15.42,5.63,18.38a11.16,11.16,0,0,0,5.26,1.35c4.14,0,8.52-2.38,13.08-7.11l.4-.43h0c1.78-2,4.8-3.46,7.86-1.49,9.48,5.94,23.41,16.26,22.32,23.58q1.3-5.24,2.87-10.37a193,193,0,0,1,7.36-20q2.25-5.19,4.78-10.22C306.14,384.52,300.26,384.64,294.54,383Z"/><path class="41bc1fd4-51eb-42dc-94f9-43bdc33f5b87" d="M398.48,273.16l-.07-.12L395,266.3h0c-2.06-4.1-1-7.34.54-8.71h0l4.79-4.24c7.35-6.78,9.5-13.34,6.38-19.5s-9.68-8.31-19.49-6.39c-1.66.32-3.43.75-5.26,1.24h0c-4.21,1-6.91-2.21-7.79-4h0l-2.11-4.22h0c-5.13-10.27-.35-22.39,2.18-31.38l-.11,0a36,36,0,0,1-46.79,24c6.81,2.58,15.72,5.31,21.68,11.2.88,1,1.85,3.48.19,4.9h0c-5.38,4.36-11.91,11.42-7.22,20.66,3.12,6.16,9.68,8.31,19.49,6.39l1.69-.36q-.66.58-1.28,1.15c-7.35,6.78-9.5,13.34-6.38,19.5s9.68,8.31,19.5,6.39l.81-.18h0c2.24-.52,3.75-.28,4.54,1.8,2.71,6.8,4,14.5-2.37,18.89h0q4.54-3,9.26-5.65a190.35,190.35,0,0,1,18.84-9.45q4.58-2,9.29-3.77C407.7,286.72,402.22,279.85,398.48,273.16Z"/><path class="41bc1fd4-51eb-42dc-94f9-43bdc33f5b87" d="M710.1,267.4a40.83,40.83,0,0,1-14.5-15.29h0a41.19,41.19,0,0,1-5-18.94c0,8.8-3.18,20.2-8.83,29.53a5.25,5.25,0,0,1-7.54,1.52h0c-5.44-3.35-14-7.26-21.67-.06C645.4,271,649,280.83,654.41,291l.42.76h0c3.08,6.12-3.27,6.66-5.92,5h0l-.35-.22c-9.88-6-19.52-10.12-26.73-3.31-8.68,8.21-3,18.64,0,23.91.93,1.67-.36,2.47-1.43,2.88-3.6,1.24-7.3,1.15-10.7-1.58h0q4.13,3.52,8.06,7.25l4.81-4.55h0l-4.81,4.55a196.2,196.2,0,0,1,14.49,15.32q3.42,4,6.63,8.27c-4.82-6.93.36-14.42,5.87-20.08h0l4.21-4c1.52-1.44,7.23-2.92,10.16-1.58h0c7.64,3.8,14.85,5.22,20.54-.16s4.69-12.46,1.43-20.19h0c-1.33-3.56-.28-8.19,1.91-10.26l7.75-7.33h0c10.5-8.62,26.64-13,38-12.37h0A41,41,0,0,1,710.1,267.4Z"/><path class="41bc1fd4-51eb-42dc-94f9-43bdc33f5b87" d="M703.38,377.75a25.09,25.09,0,0,1-11.87-7h0c-.37-.39-.73-.79-1.07-1.2a8.69,8.69,0,0,1,1.62-1.18l-5.4-10.77a5.07,5.07,0,0,1,5.13.22,37.4,37.4,0,0,1-3.39-4.54c-3.49-5.12-8.26-12.13-15.11-8.69-3.93,2-4.37,5.8-3.94,9.12-2.9-3.16-6.45-5.29-10.86-3.07-6.07,3-3.84,10.52-2.89,13.72.36,1.19.79,2.5,1.26,3.86h0c.35,1-.28,1.23-1.48,1.12a7.42,7.42,0,0,1-5.13-3.25h0q2,3.39,4,6.86,2.44,4.41,4.64,9c-2.13,1.15-3.07,2.59-3.69,2a37.36,37.36,0,0,1,3.32,4.56c2.81,4.22,6.46,9.72,11.46,9.72a8,8,0,0,0,3.6-.92c3.94-2,4.38-5.83,3.94-9.16,2.05,2.28,4.44,4,7.26,4a8,8,0,0,0,3.6-.92c6.07-3,3.84-10.52,2.89-13.72-.27-.92-.59-1.9-.94-2.92,4.69.44,9.31,2.14,13.08,3.16ZM672,364.06l-.18-.36.29-.13.13.37Z"/><path class="85a31c14-3969-4a17-b927-0ecea04fece4" d="M351.26,324.05c-8.62,6.25-17.46,18.79-17.46,18.79l1.23-1.29C339.35,336.52,346.25,328.71,351.26,324.05Z"/><path class="85a31c14-3969-4a17-b927-0ecea04fece4" d="M335,341.56l17.49-18.37a2.8,2.8,0,0,1-.47.32l-.78.55C346.25,328.71,339.35,336.52,335,341.56Z"/><circle class="85a31c14-3969-4a17-b927-0ecea04fece4" cx="483.74" cy="466.83" r="104.02"/><path class="41bc1fd4-51eb-42dc-94f9-43bdc33f5b87" d="M394,294.18a193.79,193.79,0,0,0-56.73,44.45h0c-1.68,1.92-3.32,3.88-4.92,5.86q-4.64,5.76-8.82,11.82-2.25,3.27-4.36,6.62a195.19,195.19,0,0,0-9.92,17.74q-2.35,4.76-4.43,9.63a196.27,196.27,0,0,0-7.23,19.81q-1.58,5.19-2.88,10.45a194.84,194.84,0,0,0,56.59,188.89q3.69,3.42,7.52,6.62a190.29,190.29,0,0,0,16.88,12.62q4.52,3,9.2,5.76a195.06,195.06,0,0,0,29,14l0,0h0l24.25,7.42c2.59.65,4.59,1.13,5.53,1.35a194.32,194.32,0,0,0,39.6,4.2c3.75,0,7.52-.09,11.28-.3a193,193,0,0,0,21.15-2.35q5.28-.89,10.56-2.07a4.45,4.45,0,0,1,1-.23,195.36,195.36,0,0,0,108.17-67.81q3.13-3.89,6-7.95A191.65,191.65,0,0,0,652.9,563q2.68-4.72,5.08-9.57a195.71,195.71,0,0,0,18.51-59.94c.46-3.37.85-6.75,1.13-10.16a188.82,188.82,0,0,0,.66-21.07c-.06-3.4-.24-6.81-.49-10.22v-.1a195.12,195.12,0,0,0-73.46-137.83q-4-3.12-8.07-6a191.34,191.34,0,0,0-17.83-11.23q-4.75-2.63-9.63-5a196.16,196.16,0,0,0-21.86-9q-5.08-1.74-10.25-3.21A195.51,195.51,0,0,0,516.09,275c-3.57-.61-7.15-1.12-10.74-1.51a193.35,193.35,0,0,0-72.1,5.44c-3.27.88-6.54,1.85-9.78,2.92a196.24,196.24,0,0,0-19.66,7.63c-2.37,1.07-4.74,2.2-7.08,3.37ZM576.77,420.3a104,104,0,1,1-139.56-46.51A104,104,0,0,1,576.77,420.3Z"/><path class="41bc1fd4-51eb-42dc-94f9-43bdc33f5b87" d="M352,323.5a2.8,2.8,0,0,0,.47-.32Z"/><path class="41bc1fd4-51eb-42dc-94f9-43bdc33f5b87" d="M353.44,327.6c.15-.13.68-4,.83-4.1-.59.54-1.45-.66-2-.16a4.49,4.49,0,0,1-4.05,1.22,1.68,1.68,0,0,1-1.7-1.35c-.06-.86.82-1.7,1.17-2.43a5.17,5.17,0,0,0,.51-3.56,4.73,4.73,0,0,0-1.08-1.92c-2.44-2.74-5.93-1-7.8.15a1.84,1.84,0,0,1-2.66-.71c-3.81-5.17-2.47-12.33-2-17.56h-.05a20.45,20.45,0,0,1-3.71,10,20.19,20.19,0,0,1-9.48,7.28,19.43,19.43,0,0,1-3.32.94,20.25,20.25,0,0,1-7.24.08c3.95.7,9.08,1.23,13,3.67.77.52,1.77,1.56,1,2.43-2.33,2.73-5.08,6.29-2.23,9.49,2.68,3,6.62.58,8.3-.45.6-.37,1.14-.94,1.92-.68,2.8.91-.47,6.21-1,7.72a9.19,9.19,0,0,0-.47,4,16.32,16.32,0,0,0,1.25,3.2S344.83,333.85,353.44,327.6Z"/><path class="41bc1fd4-51eb-42dc-94f9-43bdc33f5b87" d="M333.79,342.85h0c-.83,1-1.64,2-2.44,3,.62-.74,1.94-2.31,3.68-4.34Z"/><circle class="2c227674-28a1-4c80-aff0-53f211568bf5" cx="751.96" cy="511.47" r="9.63"/><circle class="2c227674-28a1-4c80-aff0-53f211568bf5" cx="802.45" cy="515.35" r="9.63"/><circle class="2c227674-28a1-4c80-aff0-53f211568bf5" cx="664.92" cy="639.94" r="9.63"/><circle class="2c227674-28a1-4c80-aff0-53f211568bf5" cx="580.72" cy="659.4" r="7.77"/><circle class="2c227674-28a1-4c80-aff0-53f211568bf5" cx="596.25" cy="685.08" r="7.77"/><circle class="2c227674-28a1-4c80-aff0-53f211568bf5" cx="709.23" cy="672.41" r="9.63"/><circle class="2c227674-28a1-4c80-aff0-53f211568bf5" cx="749.72" cy="704.79" r="9.63"/><circle class="2c227674-28a1-4c80-aff0-53f211568bf5" cx="684.49" cy="382.77" r="4.23"/><circle class="2c227674-28a1-4c80-aff0-53f211568bf5" cx="669.18" cy="388.97" r="4.23"/><circle class="2c227674-28a1-4c80-aff0-53f211568bf5" cx="341.2" cy="320.47" r="3.17"/><circle class="2c227674-28a1-4c80-aff0-53f211568bf5" cx="392.22" cy="241.39" r="6.53"/><circle class="2c227674-28a1-4c80-aff0-53f211568bf5" cx="257.12" cy="356.12" r="6.53"/><circle class="2c227674-28a1-4c80-aff0-53f211568bf5" cx="280.4" cy="369.19" r="6.53"/><circle class="2c227674-28a1-4c80-aff0-53f211568bf5" cx="253.85" cy="581.03" r="8.39"/><circle class="2c227674-28a1-4c80-aff0-53f211568bf5" cx="221.94" cy="599.2" r="8.39"/><circle class="2c227674-28a1-4c80-aff0-53f211568bf5" cx="371.18" cy="650.55" r="6.17"/><circle class="2c227674-28a1-4c80-aff0-53f211568bf5" cx="670.15" cy="312.55" r="7.45"/><path class="2c227674-28a1-4c80-aff0-53f211568bf5" d="M913.47,527.92a22.21,22.21,0,0,1-11.64-3.28A22.31,22.31,0,1,0,932.51,494a22.32,22.32,0,0,1-19,34Z"/><path class="2c227674-28a1-4c80-aff0-53f211568bf5" d="M708.28,365.71a14.38,14.38,0,0,1-7.54-2.12,14.45,14.45,0,1,0,19.87-19.87,14.45,14.45,0,0,1-12.33,22Z"/><path class="2c227674-28a1-4c80-aff0-53f211568bf5" d="M727.08,251.66a22.28,22.28,0,0,1-11.69-3.29,22.39,22.39,0,1,0,30.79-30.79,22.39,22.39,0,0,1-19.1,34.08Z"/><path class="2c227674-28a1-4c80-aff0-53f211568bf5" d="M336.21,196.82a21.7,21.7,0,0,1-11.38-3.2,21.8,21.8,0,1,0,30-30,21.8,21.8,0,0,1-18.6,33.18Z"/><path class="2c227674-28a1-4c80-aff0-53f211568bf5" d="M314.36,305.72a11.27,11.27,0,0,1-5.91-1.66A11.33,11.33,0,1,0,324,288.48a11.33,11.33,0,0,1-9.66,17.24Z"/><path class="2c227674-28a1-4c80-aff0-53f211568bf5" d="M172.57,351a22.33,22.33,0,0,1-11.71-3.3,22.44,22.44,0,1,0,30.86-30.86A22.44,22.44,0,0,1,172.57,351Z"/><path class="2c227674-28a1-4c80-aff0-53f211568bf5" d="M104.35,717.57a34,34,0,0,1-17.85-5,34.2,34.2,0,1,0,47-47,34.2,34.2,0,0,1-29.17,52Z"/><path class="2c227674-28a1-4c80-aff0-53f211568bf5" d="M334.29,760.06A27.58,27.58,0,0,1,319.83,756a27.71,27.71,0,1,0,38.1-38.1,27.71,27.71,0,0,1-23.64,42.17Z"/><path class="2c227674-28a1-4c80-aff0-53f211568bf5" d="M657.71,780.45a24.57,24.57,0,0,1-12.88-3.63,24.69,24.69,0,1,0,33.95-33.94,24.69,24.69,0,0,1-21.06,37.57Z"/><path class="2c227674-28a1-4c80-aff0-53f211568bf5" d="M854.9,797.29a25.51,25.51,0,0,1-13.38-3.77,25.64,25.64,0,1,0,35.25-35.25,25.64,25.64,0,0,1-21.87,39Z"/><path class="2c227674-28a1-4c80-aff0-53f211568bf5" d="M363.28,359.11h0c-1.4,1.61-2.78,3.25-4.12,4.91q-3.89,4.82-7.38,9.9-1.88,2.74-3.65,5.54c-.24.38-.46.76-.7,1.14l70.71,31.11A87.13,87.13,0,0,1,572,479.42l70.71,31.11a164,164,0,0,0,4.56-21.75c.38-2.82.71-5.66.94-8.51a158.17,158.17,0,0,0,.55-17.65c-.05-2.85-.2-5.71-.41-8.56V454a163.41,163.41,0,0,0-61.52-115.43q-3.32-2.61-6.76-5a160.18,160.18,0,0,0-14.94-9.41q-4-2.2-8.07-4.19a164.29,164.29,0,0,0-18.31-7.55q-4.26-1.46-8.59-2.69A163.65,163.65,0,0,0,513,305.8c-3-.51-6-.94-9-1.27a161.92,161.92,0,0,0-60.38,4.55c-2.74.74-5.47,1.55-8.19,2.45A164.44,164.44,0,0,0,419,317.92c-2,.9-4,1.84-5.93,2.82l-2.24,1.14A162.29,162.29,0,0,0,363.28,359.11Z"/><circle class="f0732131-044e-4014-b869-3cf296f51e86" cx="483.74" cy="466.83" r="123.99"/><path class="d0f700f3-6556-4d5d-afa1-b021673737c8" d="M451,534.84a103.52,103.52,0,0,1-54.29-15.28,104,104,0,1,0,143-143A104,104,0,0,1,451,534.84Z"/><g id="551f4a89-13f2-41a7-9b2c-b9bf977546a1" data-name="cloud"><path class="d490dc13-5344-43c4-a944-2a9028cee06a" d="M544.2,444.44c-3.1-1.26-9.39-1.06-13.75,2a3,3,0,0,1-4.67-2.6v0c0-11.45-8.1-21.27-18.67-22a18.7,18.7,0,0,0-12.89,4.1,4.58,4.58,0,0,1-7-2c-3.52-7.79-10.93-13.2-19.45-13.2h-3.83c-11.9,0-21.64,10.53-21.64,23.4v.37a9,9,0,0,1-9.33,9.3l-1,0h-4.12c-24.91,0-26.23,44.73-16.21,59.08,13.39,19.19,39.07,18.37,58.58,18.37h47.23c15.2,0,34.49-5.56,41.63-21.87S561.06,451.26,544.2,444.44Z"/><path class="3003ba46-df6f-4ccd-bdb6-426174b9644f" d="M544.2,440.71c-3.1-1.16-9.39-1-13.75,1.89a3,3,0,0,1-4.67-2.4v0c0-10.59-8.1-19.66-18.67-20.3a19.73,19.73,0,0,0-12.89,3.79,4.76,4.76,0,0,1-7-1.83,21.7,21.7,0,0,0-19.45-12.2h-3.83a21.7,21.7,0,0,0-21.64,21.64v.34a8.71,8.71,0,0,1-9.33,8.6l-1,0h-4.12c-24.91,0-26.23,37.22-16.21,50.49,13.39,17.74,39.07,17,58.58,17h47.23c15.2,0,34.49-5.14,41.63-20.22S561.06,447,544.2,440.71Z"/><path class="9a7c8b78-14f7-4bc9-9a01-69c5d6333ab2" d="M491.34,460.49h-3a1.57,1.57,0,0,1-1.53-1.93L490,445.22a1.57,1.57,0,0,0-2.68-1.42l-15.36,16.7-6.61,7.07a1.57,1.57,0,0,0,1.15,2.64h14.66a1.57,1.57,0,0,1,1.56,1.77l-3.79,16.39a1.57,1.57,0,0,0,2.75,1.22l14.49-19.38,6.1-7.12a1.57,1.57,0,0,0-1.19-2.59Z"/><path class="3be1d4fa-fb05-4b11-9e6a-70b0120262b2" d="M488.24,499.81s60.72-7.22,67.44-41.17c0,0,1.58,33-13.47,37.1C514.68,503.25,488.24,499.81,488.24,499.81Z"/></g><path class="3003ba46-df6f-4ccd-bdb6-426174b9644f" d="M736.74,211.5a21.58,21.58,0,0,0-11.46.3,20.51,20.51,0,0,0-3,1.15,21.56,21.56,0,0,0-9.74,9.11,21.69,21.69,0,0,0,25.23,31.29c.46-.14.91-.29,1.35-.46a21.61,21.61,0,0,0,10.72-8.69,21.7,21.7,0,0,0-13.13-32.69Z"/><path class="85a31c14-3969-4a17-b927-0ecea04fece4" d="M736.74,211.5a21.58,21.58,0,0,0-11.46.3,20.51,20.51,0,0,0-3,1.15,21.56,21.56,0,0,0-9.74,9.11,21.69,21.69,0,0,0,25.23,31.29c.46-.14.91-.29,1.35-.46a21.61,21.61,0,0,0,10.72-8.69,21.7,21.7,0,0,0-13.13-32.69Z"/><path class="3003ba46-df6f-4ccd-bdb6-426174b9644f" d="M344.11,160.73A19,19,0,0,0,334,161a18,18,0,0,0-2.62,1,19,19,0,0,0-8.57,8A19.08,19.08,0,0,0,345,197.54c.41-.13.8-.25,1.19-.41a19,19,0,0,0,9.43-7.65,19.09,19.09,0,0,0-11.55-28.76Z"/><path class="85a31c14-3969-4a17-b927-0ecea04fece4" d="M344.11,160.73A19,19,0,0,0,334,161a18,18,0,0,0-2.62,1,19,19,0,0,0-8.57,8A19.08,19.08,0,0,0,345,197.54c.41-.13.8-.25,1.19-.41a19,19,0,0,0,9.43-7.65,19.09,19.09,0,0,0-11.55-28.76Z"/><path class="3003ba46-df6f-4ccd-bdb6-426174b9644f" d="M181.82,314.34a19,19,0,0,0-10.08.26,18.05,18.05,0,0,0-2.62,1,19,19,0,0,0-8.57,8,19.08,19.08,0,0,0,22.19,27.53c.41-.13.8-.25,1.19-.41a19,19,0,0,0,9.43-7.65,19.09,19.09,0,0,0-11.55-28.76Z"/><path class="85a31c14-3969-4a17-b927-0ecea04fece4" d="M181.82,314.34a19,19,0,0,0-10.08.26,18.05,18.05,0,0,0-2.62,1,19,19,0,0,0-8.57,8,19.08,19.08,0,0,0,22.19,27.53c.41-.13.8-.25,1.19-.41a19,19,0,0,0,9.43-7.65,19.09,19.09,0,0,0-11.55-28.76Z"/><path class="3003ba46-df6f-4ccd-bdb6-426174b9644f" d="M921.58,486.69a21.58,21.58,0,0,0-11.46.3,20.51,20.51,0,0,0-3,1.15,21.56,21.56,0,0,0-9.74,9.11,21.69,21.69,0,0,0,25.23,31.29c.46-.14.91-.29,1.35-.46a21.61,21.61,0,0,0,10.72-8.69,21.7,21.7,0,0,0-13.13-32.69Z"/><path class="85a31c14-3969-4a17-b927-0ecea04fece4" d="M921.58,486.69a21.58,21.58,0,0,0-11.46.3,20.51,20.51,0,0,0-3,1.15,21.56,21.56,0,0,0-9.74,9.11,21.69,21.69,0,0,0,25.23,31.29c.46-.14.91-.29,1.35-.46a21.61,21.61,0,0,0,10.72-8.69,21.7,21.7,0,0,0-13.13-32.69Z"/><path class="3003ba46-df6f-4ccd-bdb6-426174b9644f" d="M863.77,751.62a21.58,21.58,0,0,0-11.46.3,20.51,20.51,0,0,0-3,1.15,21.56,21.56,0,0,0-9.74,9.11,21.69,21.69,0,0,0,25.23,31.29c.46-.14.91-.29,1.35-.46a21.61,21.61,0,0,0,10.72-8.69,21.7,21.7,0,0,0-13.13-32.69Z"/><path class="85a31c14-3969-4a17-b927-0ecea04fece4" d="M863.77,751.62a21.58,21.58,0,0,0-11.46.3,20.51,20.51,0,0,0-3,1.15,21.56,21.56,0,0,0-9.74,9.11,21.69,21.69,0,0,0,25.23,31.29c.46-.14.91-.29,1.35-.46a21.61,21.61,0,0,0,10.72-8.69,21.7,21.7,0,0,0-13.13-32.69Z"/><path class="3003ba46-df6f-4ccd-bdb6-426174b9644f" d="M665.72,737.35a21.58,21.58,0,0,0-11.46.3,20.51,20.51,0,0,0-3,1.15,21.56,21.56,0,0,0-9.74,9.11,21.69,21.69,0,0,0,25.23,31.29c.46-.14.91-.29,1.35-.46A21.61,21.61,0,0,0,678.85,770a21.7,21.7,0,0,0-13.13-32.69Z"/><path class="85a31c14-3969-4a17-b927-0ecea04fece4" d="M665.72,737.35a21.58,21.58,0,0,0-11.46.3,20.51,20.51,0,0,0-3,1.15,21.56,21.56,0,0,0-9.74,9.11,21.69,21.69,0,0,0,25.23,31.29c.46-.14.91-.29,1.35-.46A21.61,21.61,0,0,0,678.85,770a21.7,21.7,0,0,0-13.13-32.69Z"/><path class="3003ba46-df6f-4ccd-bdb6-426174b9644f" d="M345,710.07a27,27,0,0,0-14.35.37,25.7,25.7,0,0,0-3.73,1.43,27,27,0,0,0-12.2,11.41,27.16,27.16,0,0,0,31.6,39.2c.58-.18,1.15-.36,1.7-.58A27.06,27.06,0,0,0,361.47,751a27.18,27.18,0,0,0-16.45-41Z"/><path class="85a31c14-3969-4a17-b927-0ecea04fece4" d="M345,710.07a27,27,0,0,0-14.35.37,25.7,25.7,0,0,0-3.73,1.43,27,27,0,0,0-12.2,11.41,27.16,27.16,0,0,0,31.6,39.2c.58-.18,1.15-.36,1.7-.58A27.06,27.06,0,0,0,361.47,751a27.18,27.18,0,0,0-16.45-41Z"/><path class="3003ba46-df6f-4ccd-bdb6-426174b9644f" d="M118,657.2a32.43,32.43,0,0,0-17.21.45,30.82,30.82,0,0,0-4.47,1.72,32.39,32.39,0,0,0-14.63,13.69,32.58,32.58,0,0,0,37.9,47c.7-.22,1.37-.43,2-.7a32.47,32.47,0,0,0,16.1-13.06A32.6,32.6,0,0,0,118,657.2Z"/><path class="85a31c14-3969-4a17-b927-0ecea04fece4" d="M118,657.2a32.43,32.43,0,0,0-17.21.45,30.82,30.82,0,0,0-4.47,1.72,32.39,32.39,0,0,0-14.63,13.69,32.58,32.58,0,0,0,37.9,47c.7-.22,1.37-.43,2-.7a32.47,32.47,0,0,0,16.1-13.06A32.6,32.6,0,0,0,118,657.2Z"/><path class="3003ba46-df6f-4ccd-bdb6-426174b9644f" d="M713.32,338.6a15.11,15.11,0,0,0-8,.21,14.38,14.38,0,0,0-2.08.8A15.1,15.1,0,0,0,696.4,346a15.19,15.19,0,0,0,17.66,21.91c.32-.1.64-.2.95-.32a15.13,15.13,0,0,0,7.51-6.09,15.19,15.19,0,0,0-9.19-22.89Z"/><path class="85a31c14-3969-4a17-b927-0ecea04fece4" d="M713.32,338.6a15.11,15.11,0,0,0-8,.21,14.38,14.38,0,0,0-2.08.8A15.1,15.1,0,0,0,696.4,346a15.19,15.19,0,0,0,17.66,21.91c.32-.1.64-.2.95-.32a15.13,15.13,0,0,0,7.51-6.09,15.19,15.19,0,0,0-9.19-22.89Z"/><path class="3003ba46-df6f-4ccd-bdb6-426174b9644f" d="M316.83,284.83a10.77,10.77,0,0,0-5.72.15,10.23,10.23,0,0,0-1.48.57,10.76,10.76,0,0,0-4.86,4.55,10.83,10.83,0,0,0,12.59,15.62c.23-.07.46-.14.68-.23a10.79,10.79,0,0,0,5.35-4.34,10.83,10.83,0,0,0-6.55-16.32Z"/><path class="85a31c14-3969-4a17-b927-0ecea04fece4" d="M316.83,284.83a10.77,10.77,0,0,0-5.72.15,10.23,10.23,0,0,0-1.48.57,10.76,10.76,0,0,0-4.86,4.55,10.83,10.83,0,0,0,12.59,15.62c.23-.07.46-.14.68-.23a10.79,10.79,0,0,0,5.35-4.34,10.83,10.83,0,0,0-6.55-16.32Z"/><g id="1c239506-9174-4969-bb41-68321521f95a" data-name="p1"><g class="8f266ae3-8dc2-402f-99bd-a74c64a562ad"><path class="9a7c8b78-14f7-4bc9-9a01-69c5d6333ab2" d="M751.22,215.22c-2.15,0-3.16-1.74-3.71-2.67l-.15-.25-.15.25c-.55.93-1.56,2.67-3.71,2.67s-3.16-1.74-3.71-2.67l-.14-.24-.14.24c-.55.93-1.56,2.67-3.71,2.67s-3.16-1.74-3.71-2.67l-.14-.24-.14.24c-.54.93-1.56,2.67-3.71,2.67s-3.16-1.74-3.71-2.67l-.14-.24-.14.24c-.55.93-1.56,2.67-3.71,2.67s-3.16-1.74-3.71-2.68l-.14-.24-.14.24c-.54.93-1.56,2.67-3.71,2.67s-3.16-1.74-3.71-2.68a4.8,4.8,0,0,0-.49-.74.6.6,0,0,0,.35.12v-4.13c2.15,0,3.16,1.74,3.71,2.68l.14.24.14-.24c.55-.93,1.56-2.67,3.71-2.67s3.16,1.74,3.71,2.68l.14.24.14-.24c.55-.93,1.56-2.67,3.71-2.67s3.16,1.74,3.71,2.67l.14.24.14-.24c.54-.93,1.56-2.67,3.71-2.67s3.16,1.74,3.71,2.67l.14.24.14-.24c.54-.93,1.56-2.67,3.71-2.67s3.16,1.74,3.71,2.67l.14.24.14-.25c.55-.93,1.56-2.67,3.71-2.67s3.16,1.74,3.71,2.67l.15.25.15-.25c.55-.93,1.56-2.67,3.71-2.67v4.13a.6.6,0,0,0,.34-.12,4.79,4.79,0,0,0-.49.74C754.38,213.48,753.36,215.22,751.22,215.22Z"/><path class="9a7c8b78-14f7-4bc9-9a01-69c5d6333ab2" d="M751.22,226.31c-2.15,0-3.16-1.74-3.71-2.67l-.15-.25-.15.25c-.55.93-1.56,2.67-3.71,2.67s-3.16-1.74-3.71-2.67l-.14-.24-.14.24c-.55.93-1.56,2.67-3.71,2.67s-3.16-1.74-3.71-2.67l-.14-.24-.14.24c-.54.93-1.56,2.67-3.71,2.67s-3.16-1.74-3.71-2.67l-.14-.24-.14.24c-.55.93-1.56,2.67-3.71,2.67s-3.16-1.74-3.71-2.68l-.14-.24-.14.24c-.54.93-1.56,2.67-3.71,2.67s-3.16-1.74-3.71-2.68a4.81,4.81,0,0,0-.49-.74.6.6,0,0,0,.35.12v-4.13c2.15,0,3.16,1.74,3.71,2.68l.14.24.14-.24c.55-.93,1.56-2.67,3.71-2.67s3.16,1.74,3.71,2.68l.14.24.14-.24c.55-.93,1.56-2.67,3.71-2.67s3.16,1.74,3.71,2.67l.14.24.14-.24c.54-.93,1.56-2.67,3.71-2.67s3.16,1.74,3.71,2.67l.14.24.14-.24c.54-.93,1.56-2.67,3.71-2.67s3.16,1.74,3.71,2.67l.14.24.14-.24c.55-.93,1.56-2.67,3.71-2.67s3.16,1.74,3.71,2.67l.15.25.15-.25c.55-.93,1.56-2.67,3.71-2.67V223a.6.6,0,0,0,.34-.12,4.8,4.8,0,0,0-.49.74C754.38,224.58,753.36,226.31,751.22,226.31Z"/><path class="9a7c8b78-14f7-4bc9-9a01-69c5d6333ab2" d="M751.22,237.41c-2.15,0-3.16-1.74-3.71-2.67l-.15-.25-.15.25c-.55.93-1.56,2.67-3.71,2.67s-3.16-1.74-3.71-2.67l-.14-.24-.14.24c-.55.93-1.56,2.67-3.71,2.67s-3.16-1.74-3.71-2.67l-.14-.24-.14.24c-.54.93-1.56,2.67-3.71,2.67s-3.16-1.74-3.71-2.67l-.14-.24-.14.24c-.55.93-1.56,2.67-3.71,2.67s-3.16-1.74-3.71-2.68l-.14-.24-.14.24c-.54.93-1.56,2.67-3.71,2.67s-3.16-1.74-3.71-2.68a4.8,4.8,0,0,0-.49-.74.6.6,0,0,0,.35.12V230c2.15,0,3.16,1.74,3.71,2.68l.14.24.14-.24c.55-.93,1.56-2.67,3.71-2.67s3.16,1.74,3.71,2.68l.14.24.14-.24c.55-.93,1.56-2.67,3.71-2.67s3.16,1.74,3.71,2.67l.14.24.14-.24c.54-.93,1.56-2.67,3.71-2.67s3.16,1.74,3.71,2.67l.14.24.14-.24c.54-.93,1.56-2.67,3.71-2.67s3.16,1.74,3.71,2.67l.14.24.14-.24c.55-.93,1.56-2.67,3.71-2.67s3.16,1.74,3.71,2.67l.15.25.15-.25c.55-.93,1.56-2.67,3.71-2.67v4.13a.6.6,0,0,0,.34-.12,4.79,4.79,0,0,0-.49.74C754.38,235.67,753.36,237.41,751.22,237.41Z"/><path class="9a7c8b78-14f7-4bc9-9a01-69c5d6333ab2" d="M751.22,248.51c-2.15,0-3.16-1.74-3.71-2.67l-.15-.25-.15.25c-.55.93-1.56,2.67-3.71,2.67s-3.16-1.74-3.71-2.67l-.14-.24-.14.24c-.55.93-1.56,2.67-3.71,2.67s-3.16-1.74-3.71-2.67l-.14-.24-.14.24c-.54.93-1.56,2.67-3.71,2.67s-3.16-1.74-3.71-2.67l-.14-.24-.14.24c-.55.93-1.56,2.67-3.71,2.67s-3.16-1.74-3.71-2.68l-.14-.24-.14.24c-.54.93-1.56,2.67-3.71,2.67s-3.16-1.74-3.71-2.68a4.8,4.8,0,0,0-.49-.74.6.6,0,0,0,.35.12v-4.13c2.15,0,3.16,1.74,3.71,2.68l.14.24.14-.24c.55-.93,1.56-2.67,3.71-2.67s3.16,1.74,3.71,2.68l.14.24.14-.24c.55-.93,1.56-2.67,3.71-2.67s3.16,1.74,3.71,2.67l.14.24.14-.24c.54-.93,1.56-2.67,3.71-2.67s3.16,1.74,3.71,2.67l.14.24.14-.24c.54-.93,1.56-2.67,3.71-2.67s3.16,1.74,3.71,2.67l.14.24.14-.25c.55-.93,1.56-2.67,3.71-2.67s3.16,1.74,3.71,2.67l.15.25.15-.25c.55-.93,1.56-2.67,3.71-2.67v4.13a.6.6,0,0,0,.34-.12,4.79,4.79,0,0,0-.49.74C754.38,246.77,753.36,248.51,751.22,248.51Z"/><path class="9a7c8b78-14f7-4bc9-9a01-69c5d6333ab2" d="M751.22,259.61c-2.15,0-3.16-1.74-3.71-2.67l-.15-.25-.15.25c-.55.93-1.56,2.67-3.71,2.67s-3.16-1.74-3.71-2.67l-.14-.24-.14.24c-.55.93-1.56,2.67-3.71,2.67s-3.16-1.74-3.71-2.67l-.14-.24-.14.24c-.54.93-1.56,2.67-3.71,2.67s-3.16-1.74-3.71-2.67l-.14-.24-.14.24c-.55.93-1.56,2.67-3.71,2.67s-3.16-1.74-3.71-2.68l-.14-.24-.14.24c-.54.93-1.56,2.67-3.71,2.67s-3.16-1.74-3.71-2.68a4.81,4.81,0,0,0-.49-.74.6.6,0,0,0,.35.12v-4.13c2.15,0,3.16,1.74,3.71,2.68l.14.24.14-.24c.55-.93,1.56-2.67,3.71-2.67s3.16,1.74,3.71,2.68l.14.24.14-.24c.55-.93,1.56-2.67,3.71-2.67s3.16,1.74,3.71,2.67l.14.24.14-.24c.54-.93,1.56-2.67,3.71-2.67s3.16,1.74,3.71,2.67l.14.24.14-.24c.54-.93,1.56-2.67,3.71-2.67s3.16,1.74,3.71,2.67l.14.24.14-.24c.55-.93,1.56-2.67,3.71-2.67s3.16,1.74,3.71,2.67l.15.25.15-.25c.55-.93,1.56-2.67,3.71-2.67v4.13a.6.6,0,0,0,.34-.12,4.8,4.8,0,0,0-.49.74C754.38,257.87,753.36,259.61,751.22,259.61Z"/></g></g><path class="85a31c14-3969-4a17-b927-0ecea04fece4" d="M736.74,211.5a21.58,21.58,0,0,0-11.46.3,20.51,20.51,0,0,0-3,1.15,21.56,21.56,0,0,0-9.74,9.11,21.69,21.69,0,0,0,25.23,31.29c.46-.14.91-.29,1.35-.46a21.61,21.61,0,0,0,10.72-8.69,21.7,21.7,0,0,0-13.13-32.69Z"/><g id="00f9dbc8-a898-4af6-b6f0-581a7d066c6d" data-name="p10"><g class="03104143-0118-4503-b6da-943895c2f53d"><path class="9a7c8b78-14f7-4bc9-9a01-69c5d6333ab2" d="M356.84,162.84a3.85,3.85,0,0,1-3.26-2.35l-.13-.22-.13.22a3.44,3.44,0,0,1-6.52,0l-.13-.21-.12.21a3.44,3.44,0,0,1-6.52,0l-.13-.22-.13.21a3.44,3.44,0,0,1-6.52,0l-.13-.21-.13.21a3.44,3.44,0,0,1-6.52,0l-.12-.21-.13.21a3.44,3.44,0,0,1-6.52,0,4.22,4.22,0,0,0-.43-.65.53.53,0,0,0,.3.1v-3.63a3.84,3.84,0,0,1,3.26,2.35l.12.21.12-.21a3.44,3.44,0,0,1,6.52,0l.12.21.12-.21a3.44,3.44,0,0,1,6.52,0l.13.22.13-.21a3.44,3.44,0,0,1,6.52,0l.13.21.13-.21a3.44,3.44,0,0,1,6.52,0l.13.22.13-.22a3.44,3.44,0,0,1,6.53,0l.13.22.13-.22a3.85,3.85,0,0,1,3.26-2.35v3.63a.53.53,0,0,0,.3-.1,4.21,4.21,0,0,0-.43.66A3.85,3.85,0,0,1,356.84,162.84Z"/><path class="9a7c8b78-14f7-4bc9-9a01-69c5d6333ab2" d="M356.84,172.61a3.85,3.85,0,0,1-3.26-2.35l-.13-.22-.13.22a3.44,3.44,0,0,1-6.52,0l-.13-.21-.12.21a3.44,3.44,0,0,1-6.52,0l-.13-.22-.13.21a3.44,3.44,0,0,1-6.52,0l-.13-.21-.13.21a3.44,3.44,0,0,1-6.52,0l-.12-.21-.13.21a3.44,3.44,0,0,1-6.52,0,4.22,4.22,0,0,0-.43-.65.53.53,0,0,0,.3.1v-3.63a3.84,3.84,0,0,1,3.26,2.35l.12.21.12-.21a3.44,3.44,0,0,1,6.52,0l.12.21.12-.21a3.44,3.44,0,0,1,6.52,0l.13.22.13-.21a3.44,3.44,0,0,1,6.52,0l.13.21.13-.21a3.44,3.44,0,0,1,6.52,0l.13.22.13-.22a3.44,3.44,0,0,1,6.53,0l.13.22.13-.22a3.85,3.85,0,0,1,3.26-2.35v3.63a.53.53,0,0,0,.3-.1,4.21,4.21,0,0,0-.43.66A3.85,3.85,0,0,1,356.84,172.61Z"/><path class="9a7c8b78-14f7-4bc9-9a01-69c5d6333ab2" d="M356.84,182.37a3.85,3.85,0,0,1-3.26-2.35l-.13-.22-.13.22a3.44,3.44,0,0,1-6.52,0l-.13-.21-.12.21a3.44,3.44,0,0,1-6.52,0l-.13-.22-.13.21a3.44,3.44,0,0,1-6.52,0l-.13-.21L333,180a3.44,3.44,0,0,1-6.52,0l-.12-.21-.13.21a3.44,3.44,0,0,1-6.52,0,4.23,4.23,0,0,0-.43-.65.53.53,0,0,0,.3.1v-3.63a3.84,3.84,0,0,1,3.26,2.35l.12.21.12-.21a3.44,3.44,0,0,1,6.52,0l.12.21.12-.21a3.44,3.44,0,0,1,6.52,0l.13.22.13-.21a3.44,3.44,0,0,1,6.52,0l.13.21.13-.21a3.44,3.44,0,0,1,6.52,0l.13.22.13-.22a3.44,3.44,0,0,1,6.53,0l.13.22.13-.22a3.85,3.85,0,0,1,3.26-2.35v3.63a.53.53,0,0,0,.3-.1,4.22,4.22,0,0,0-.43.66A3.85,3.85,0,0,1,356.84,182.37Z"/><path class="9a7c8b78-14f7-4bc9-9a01-69c5d6333ab2" d="M356.84,192.37a3.85,3.85,0,0,1-3.26-2.35l-.13-.22-.13.22a3.44,3.44,0,0,1-6.52,0l-.13-.21-.12.21a3.44,3.44,0,0,1-6.52,0l-.13-.22-.13.21a3.44,3.44,0,0,1-6.52,0l-.13-.21L333,190a3.44,3.44,0,0,1-6.52,0l-.12-.21-.13.21a3.44,3.44,0,0,1-6.52,0,4.23,4.23,0,0,0-.43-.65.53.53,0,0,0,.3.1v-3.63a3.84,3.84,0,0,1,3.26,2.35l.12.21.12-.21a3.44,3.44,0,0,1,6.52,0l.12.21.12-.21a3.44,3.44,0,0,1,6.52,0l.13.22.13-.21a3.44,3.44,0,0,1,6.52,0l.13.21.13-.21a3.44,3.44,0,0,1,6.52,0l.13.22.13-.22a3.44,3.44,0,0,1,6.53,0l.13.22.13-.22a3.85,3.85,0,0,1,3.26-2.35v3.63a.53.53,0,0,0,.3-.1,4.22,4.22,0,0,0-.43.66A3.85,3.85,0,0,1,356.84,192.37Z"/><path class="9a7c8b78-14f7-4bc9-9a01-69c5d6333ab2" d="M356.84,202.37a3.85,3.85,0,0,1-3.26-2.35l-.13-.22-.13.22a3.44,3.44,0,0,1-6.52,0l-.13-.21-.12.21a3.44,3.44,0,0,1-6.52,0l-.13-.22-.13.21a3.44,3.44,0,0,1-6.52,0l-.13-.21L333,200a3.44,3.44,0,0,1-6.52,0l-.12-.21-.13.21a3.44,3.44,0,0,1-6.52,0,4.22,4.22,0,0,0-.43-.65.53.53,0,0,0,.3.1v-3.63a3.84,3.84,0,0,1,3.26,2.35l.12.21.12-.21a3.44,3.44,0,0,1,6.52,0l.12.21.12-.21a3.44,3.44,0,0,1,6.52,0l.13.22.13-.21a3.44,3.44,0,0,1,6.52,0l.13.21.13-.21a3.44,3.44,0,0,1,6.52,0l.13.22.13-.22a3.44,3.44,0,0,1,6.53,0l.13.22.13-.22a3.85,3.85,0,0,1,3.26-2.35v3.63a.53.53,0,0,0,.3-.1,4.21,4.21,0,0,0-.43.66A3.85,3.85,0,0,1,356.84,202.37Z"/></g></g><path class="85a31c14-3969-4a17-b927-0ecea04fece4" d="M344.11,160.73A19,19,0,0,0,334,161a18,18,0,0,0-2.62,1,19,19,0,0,0-8.57,8A19.08,19.08,0,0,0,345,197.54c.41-.13.8-.25,1.19-.41a19,19,0,0,0,9.43-7.65,19.09,19.09,0,0,0-11.55-28.76Z"/><path class="3003ba46-df6f-4ccd-bdb6-426174b9644f" d="M181.82,314.34a19,19,0,0,0-10.08.26,18.05,18.05,0,0,0-2.62,1,19,19,0,0,0-8.57,8,19.08,19.08,0,0,0,22.19,27.53c.41-.13.8-.25,1.19-.41a19,19,0,0,0,9.43-7.65,19.09,19.09,0,0,0-11.55-28.76Z"/><g id="9d77cf8c-d262-4367-991b-a991cc48c61d" data-name="p8"><g class="c0151fee-0da2-4157-85a2-df075f1cc48f"><path class="9a7c8b78-14f7-4bc9-9a01-69c5d6333ab2" d="M194.55,316.46a3.85,3.85,0,0,1-3.26-2.35l-.13-.22-.13.22a3.44,3.44,0,0,1-6.52,0l-.13-.21-.12.21a3.44,3.44,0,0,1-6.52,0l-.13-.22-.13.21a3.44,3.44,0,0,1-6.52,0l-.13-.21-.13.21a3.44,3.44,0,0,1-6.52,0l-.12-.21-.13.21a3.44,3.44,0,0,1-6.52,0,4.23,4.23,0,0,0-.43-.65.53.53,0,0,0,.3.1v-3.63a3.84,3.84,0,0,1,3.26,2.35l.12.21.12-.21a3.44,3.44,0,0,1,6.52,0l.12.21.12-.21a3.44,3.44,0,0,1,6.52,0l.13.22.13-.21a3.44,3.44,0,0,1,6.52,0l.13.21.13-.21a3.44,3.44,0,0,1,6.52,0l.13.22.13-.22a3.44,3.44,0,0,1,6.53,0l.13.22.13-.22a3.85,3.85,0,0,1,3.26-2.35v3.63a.53.53,0,0,0,.3-.1,4.23,4.23,0,0,0-.43.66A3.85,3.85,0,0,1,194.55,316.46Z"/><path class="9a7c8b78-14f7-4bc9-9a01-69c5d6333ab2" d="M194.55,326.22a3.85,3.85,0,0,1-3.26-2.35l-.13-.22-.13.22a3.44,3.44,0,0,1-6.52,0l-.13-.21-.12.21a3.44,3.44,0,0,1-6.52,0l-.13-.22-.13.21a3.44,3.44,0,0,1-6.52,0l-.13-.21-.13.21a3.44,3.44,0,0,1-6.52,0l-.12-.21-.13.21a3.44,3.44,0,0,1-6.52,0,4.23,4.23,0,0,0-.43-.65.53.53,0,0,0,.3.1v-3.63a3.84,3.84,0,0,1,3.26,2.35l.12.21.12-.21a3.44,3.44,0,0,1,6.52,0l.12.21.12-.21a3.44,3.44,0,0,1,6.52,0l.13.22.13-.21a3.44,3.44,0,0,1,6.52,0l.13.21.13-.21a3.44,3.44,0,0,1,6.52,0l.13.22.13-.22a3.44,3.44,0,0,1,6.53,0l.13.22.13-.22a3.85,3.85,0,0,1,3.26-2.35v3.63a.53.53,0,0,0,.3-.1,4.23,4.23,0,0,0-.43.66A3.85,3.85,0,0,1,194.55,326.22Z"/><path class="9a7c8b78-14f7-4bc9-9a01-69c5d6333ab2" d="M194.55,336a3.85,3.85,0,0,1-3.26-2.35l-.13-.22-.13.22a3.44,3.44,0,0,1-6.52,0l-.13-.21-.12.21a3.44,3.44,0,0,1-6.52,0l-.13-.22-.13.21a3.44,3.44,0,0,1-6.52,0l-.13-.21-.13.21a3.44,3.44,0,0,1-6.52,0l-.12-.21-.13.21a3.44,3.44,0,0,1-6.52,0A4.23,4.23,0,0,0,157,333a.53.53,0,0,0,.3.1v-3.63a3.84,3.84,0,0,1,3.26,2.35l.12.21.12-.21a3.44,3.44,0,0,1,6.52,0l.12.21.12-.21a3.44,3.44,0,0,1,6.52,0l.13.22.13-.21a3.44,3.44,0,0,1,6.52,0l.13.21.13-.21a3.44,3.44,0,0,1,6.52,0l.13.22.13-.22a3.44,3.44,0,0,1,6.53,0l.13.22.13-.22a3.85,3.85,0,0,1,3.26-2.35v3.63a.53.53,0,0,0,.3-.1,4.22,4.22,0,0,0-.43.66A3.85,3.85,0,0,1,194.55,336Z"/><path class="9a7c8b78-14f7-4bc9-9a01-69c5d6333ab2" d="M194.55,346.31a3.85,3.85,0,0,1-3.26-2.35l-.13-.22L191,344a3.44,3.44,0,0,1-6.52,0l-.13-.21-.12.21a3.44,3.44,0,0,1-6.52,0l-.13-.22-.13.21a3.44,3.44,0,0,1-6.52,0l-.13-.21-.13.21a3.44,3.44,0,0,1-6.52,0l-.12-.21-.13.21a3.44,3.44,0,0,1-6.52,0,4.23,4.23,0,0,0-.43-.65.53.53,0,0,0,.3.1v-3.63a3.84,3.84,0,0,1,3.26,2.35l.12.21.12-.21a3.44,3.44,0,0,1,6.52,0l.12.21.12-.21a3.44,3.44,0,0,1,6.52,0l.13.22.13-.21a3.44,3.44,0,0,1,6.52,0l.13.21.13-.21a3.44,3.44,0,0,1,6.52,0l.13.22.13-.22a3.44,3.44,0,0,1,6.53,0l.13.22.13-.22a3.85,3.85,0,0,1,3.26-2.35v3.63a.53.53,0,0,0,.3-.1,4.22,4.22,0,0,0-.43.66A3.85,3.85,0,0,1,194.55,346.31Z"/><path class="9a7c8b78-14f7-4bc9-9a01-69c5d6333ab2" d="M194.55,355.53a3.85,3.85,0,0,1-3.26-2.35l-.13-.22-.13.22a3.44,3.44,0,0,1-6.52,0l-.13-.21-.12.21a3.44,3.44,0,0,1-6.52,0l-.13-.22-.13.21a3.44,3.44,0,0,1-6.52,0l-.13-.21-.13.21a3.44,3.44,0,0,1-6.52,0l-.12-.21-.13.21a3.44,3.44,0,0,1-6.52,0,4.23,4.23,0,0,0-.43-.65.53.53,0,0,0,.3.1V349a3.84,3.84,0,0,1,3.26,2.35l.12.21.12-.21a3.44,3.44,0,0,1,6.52,0l.12.21.12-.21a3.44,3.44,0,0,1,6.52,0l.13.22.13-.21a3.44,3.44,0,0,1,6.52,0l.13.21.13-.21a3.44,3.44,0,0,1,6.52,0l.13.22.13-.22a3.44,3.44,0,0,1,6.53,0l.13.22.13-.22a3.85,3.85,0,0,1,3.26-2.35v3.63a.53.53,0,0,0,.3-.1,4.22,4.22,0,0,0-.43.66A3.85,3.85,0,0,1,194.55,355.53Z"/></g></g><g id="5f95fbe6-b21b-4f43-a69e-b83f24682670" data-name="p3"><g class="f101a538-3d6e-4dbe-9ad4-835dd43c6053"><path class="9a7c8b78-14f7-4bc9-9a01-69c5d6333ab2" d="M936.05,490.41c-2.15,0-3.16-1.74-3.71-2.67l-.15-.25-.15.25c-.55.93-1.56,2.67-3.71,2.67s-3.16-1.74-3.71-2.67l-.14-.24-.14.24c-.55.93-1.56,2.67-3.71,2.67s-3.16-1.74-3.71-2.67l-.14-.24-.14.24c-.54.93-1.56,2.67-3.71,2.67s-3.16-1.74-3.71-2.67l-.14-.24-.14.24c-.55.93-1.56,2.67-3.71,2.67s-3.16-1.74-3.71-2.68l-.14-.24-.14.24c-.54.93-1.56,2.67-3.71,2.67s-3.16-1.74-3.71-2.68a4.8,4.8,0,0,0-.49-.74.6.6,0,0,0,.35.12V483c2.15,0,3.16,1.74,3.71,2.68l.14.24.14-.24c.55-.93,1.56-2.67,3.71-2.67s3.16,1.74,3.71,2.68l.14.24.14-.24c.55-.93,1.56-2.67,3.71-2.67s3.16,1.74,3.71,2.67l.14.24.14-.24c.54-.93,1.56-2.67,3.71-2.67s3.16,1.74,3.71,2.67l.14.24.14-.24c.54-.93,1.56-2.67,3.71-2.67s3.16,1.74,3.71,2.67l.14.24.14-.24c.55-.93,1.56-2.67,3.71-2.67s3.16,1.74,3.71,2.67l.15.25.15-.25c.55-.93,1.56-2.67,3.71-2.67v4.13a.6.6,0,0,0,.34-.12,4.79,4.79,0,0,0-.49.74C939.22,488.67,938.2,490.41,936.05,490.41Z"/><path class="9a7c8b78-14f7-4bc9-9a01-69c5d6333ab2" d="M936.05,501.5c-2.15,0-3.16-1.74-3.71-2.67l-.15-.25-.15.25c-.55.93-1.56,2.67-3.71,2.67s-3.16-1.74-3.71-2.67l-.14-.24-.14.24c-.55.93-1.56,2.67-3.71,2.67s-3.16-1.74-3.71-2.67l-.14-.24-.14.24c-.54.93-1.56,2.67-3.71,2.67s-3.16-1.74-3.71-2.67l-.14-.24-.14.24c-.55.93-1.56,2.67-3.71,2.67s-3.16-1.74-3.71-2.68l-.14-.24-.14.24c-.54.93-1.56,2.67-3.71,2.67s-3.16-1.74-3.71-2.68a4.8,4.8,0,0,0-.49-.74.6.6,0,0,0,.35.12v-4.13c2.15,0,3.16,1.74,3.71,2.68l.14.24.14-.24c.55-.93,1.56-2.67,3.71-2.67s3.16,1.74,3.71,2.68l.14.24.14-.24c.55-.93,1.56-2.67,3.71-2.67s3.16,1.74,3.71,2.67l.14.24.14-.24c.54-.93,1.56-2.67,3.71-2.67s3.16,1.74,3.71,2.67l.14.24.14-.24c.54-.93,1.56-2.67,3.71-2.67s3.16,1.74,3.71,2.67l.14.24.14-.25c.55-.93,1.56-2.67,3.71-2.67s3.16,1.74,3.71,2.67l.15.25.15-.25c.55-.93,1.56-2.67,3.71-2.67v4.13a.6.6,0,0,0,.34-.12,4.79,4.79,0,0,0-.49.74C939.22,499.76,938.2,501.5,936.05,501.5Z"/><path class="9a7c8b78-14f7-4bc9-9a01-69c5d6333ab2" d="M936.05,512.6c-2.15,0-3.16-1.74-3.71-2.67l-.15-.25-.15.25c-.55.93-1.56,2.67-3.71,2.67s-3.16-1.74-3.71-2.67l-.14-.24-.14.24c-.55.93-1.56,2.67-3.71,2.67s-3.16-1.74-3.71-2.67l-.14-.24-.14.24c-.54.93-1.56,2.67-3.71,2.67s-3.16-1.74-3.71-2.67l-.14-.24-.14.24c-.55.93-1.56,2.67-3.71,2.67s-3.16-1.74-3.71-2.68l-.14-.24-.14.24c-.54.93-1.56,2.67-3.71,2.67s-3.16-1.74-3.71-2.68a4.81,4.81,0,0,0-.49-.74.6.6,0,0,0,.35.12v-4.13c2.15,0,3.16,1.74,3.71,2.68l.14.24.14-.24c.55-.93,1.56-2.67,3.71-2.67s3.16,1.74,3.71,2.68l.14.24.14-.24c.55-.93,1.56-2.67,3.71-2.67s3.16,1.74,3.71,2.67l.14.24.14-.24c.54-.93,1.56-2.67,3.71-2.67s3.16,1.74,3.71,2.67l.14.24.14-.24c.54-.93,1.56-2.67,3.71-2.67s3.16,1.74,3.71,2.67l.14.24.14-.24c.55-.93,1.56-2.67,3.71-2.67s3.16,1.74,3.71,2.67l.15.25.15-.25c.55-.93,1.56-2.67,3.71-2.67v4.13a.6.6,0,0,0,.34-.12,4.8,4.8,0,0,0-.49.74C939.22,510.86,938.2,512.6,936.05,512.6Z"/><path class="9a7c8b78-14f7-4bc9-9a01-69c5d6333ab2" d="M936.05,523.78c-2.15,0-3.16-1.74-3.71-2.67l-.15-.25-.15.25c-.55.93-1.56,2.67-3.71,2.67s-3.16-1.74-3.71-2.67l-.14-.24-.14.24c-.55.93-1.56,2.67-3.71,2.67s-3.16-1.74-3.71-2.67l-.14-.24-.14.24c-.54.93-1.56,2.67-3.71,2.67s-3.16-1.74-3.71-2.67l-.14-.24-.14.24c-.55.93-1.56,2.67-3.71,2.67s-3.16-1.74-3.71-2.68l-.14-.24-.14.24c-.54.93-1.56,2.67-3.71,2.67s-3.16-1.74-3.71-2.68a4.8,4.8,0,0,0-.49-.74.6.6,0,0,0,.35.12v-4.13c2.15,0,3.16,1.74,3.71,2.68l.14.24.14-.24c.55-.93,1.56-2.67,3.71-2.67s3.16,1.74,3.71,2.68l.14.24.14-.24c.55-.93,1.56-2.67,3.71-2.67s3.16,1.74,3.71,2.67l.14.24.14-.24c.54-.93,1.56-2.67,3.71-2.67s3.16,1.74,3.71,2.67l.14.24.14-.24c.54-.93,1.56-2.67,3.71-2.67s3.16,1.74,3.71,2.67l.14.24.14-.25c.55-.93,1.56-2.67,3.71-2.67s3.16,1.74,3.71,2.67l.15.25.15-.25c.55-.93,1.56-2.67,3.71-2.67v4.13a.6.6,0,0,0,.34-.12,4.79,4.79,0,0,0-.49.74C939.22,522,938.2,523.78,936.05,523.78Z"/><path class="9a7c8b78-14f7-4bc9-9a01-69c5d6333ab2" d="M936.05,535c-2.15,0-3.16-1.74-3.71-2.67l-.15-.25-.15.25c-.55.93-1.56,2.67-3.71,2.67s-3.16-1.74-3.71-2.67l-.14-.24-.14.24c-.55.93-1.56,2.67-3.71,2.67s-3.16-1.74-3.71-2.67l-.14-.24-.14.24c-.54.93-1.56,2.67-3.71,2.67s-3.16-1.74-3.71-2.67l-.14-.24-.14.24c-.55.93-1.56,2.67-3.71,2.67s-3.16-1.74-3.71-2.68l-.14-.24-.14.24c-.54.93-1.56,2.67-3.71,2.67s-3.16-1.74-3.71-2.68a4.8,4.8,0,0,0-.49-.74.6.6,0,0,0,.35.12v-4.13c2.15,0,3.16,1.74,3.71,2.68l.14.24.14-.24c.55-.93,1.56-2.67,3.71-2.67s3.16,1.74,3.71,2.68l.14.24.14-.24c.55-.93,1.56-2.67,3.71-2.67s3.16,1.74,3.71,2.67l.14.24.14-.24c.54-.93,1.56-2.67,3.71-2.67s3.16,1.74,3.71,2.67l.14.24.14-.24c.54-.93,1.56-2.67,3.71-2.67s3.16,1.74,3.71,2.67l.14.24.14-.24c.55-.93,1.56-2.67,3.71-2.67s3.16,1.74,3.71,2.67l.15.25.15-.25c.55-.93,1.56-2.67,3.71-2.67v4.13a.6.6,0,0,0,.34-.12,4.79,4.79,0,0,0-.49.74C939.22,533.21,938.2,535,936.05,535Z"/></g></g><path class="85a31c14-3969-4a17-b927-0ecea04fece4" d="M921.58,486.69a21.58,21.58,0,0,0-11.46.3,20.51,20.51,0,0,0-3,1.15,21.56,21.56,0,0,0-9.74,9.11,21.69,21.69,0,0,0,25.23,31.29c.46-.14.91-.29,1.35-.46a21.61,21.61,0,0,0,10.72-8.69,21.7,21.7,0,0,0-13.13-32.69Z"/><g id="e9ba9874-3e15-456d-bb95-9e2786486a19" data-name="p4"><g class="bbcfb179-7987-451b-a2b9-65e878efbdbb"><path class="9a7c8b78-14f7-4bc9-9a01-69c5d6333ab2" d="M878.25,755.34c-2.15,0-3.16-1.74-3.71-2.67l-.15-.25-.15.25c-.55.93-1.56,2.67-3.71,2.67s-3.16-1.74-3.71-2.67l-.14-.24-.14.24c-.55.93-1.56,2.67-3.71,2.67s-3.16-1.74-3.71-2.67l-.14-.24-.14.24c-.54.93-1.56,2.67-3.71,2.67s-3.16-1.74-3.71-2.67l-.14-.24-.14.24c-.55.93-1.56,2.67-3.71,2.67s-3.16-1.74-3.71-2.68l-.14-.24-.14.24c-.54.93-1.56,2.67-3.71,2.67s-3.16-1.74-3.71-2.68a4.8,4.8,0,0,0-.49-.74.6.6,0,0,0,.35.12v-4.13c2.15,0,3.16,1.74,3.71,2.68l.14.24.14-.24c.55-.93,1.56-2.67,3.71-2.67s3.16,1.74,3.71,2.68l.14.24.14-.24c.55-.93,1.56-2.67,3.71-2.67s3.16,1.74,3.71,2.67l.14.24.14-.24c.54-.93,1.56-2.67,3.71-2.67s3.16,1.74,3.71,2.67l.14.24.14-.24c.54-.93,1.56-2.67,3.71-2.67s3.16,1.74,3.71,2.67l.14.24.14-.25c.55-.93,1.56-2.67,3.71-2.67s3.16,1.74,3.71,2.67l.15.25.15-.25c.55-.93,1.56-2.67,3.71-2.67V752a.6.6,0,0,0,.34-.12,4.8,4.8,0,0,0-.49.74C881.41,753.6,880.4,755.34,878.25,755.34Z"/><path class="9a7c8b78-14f7-4bc9-9a01-69c5d6333ab2" d="M878.25,766.43c-2.15,0-3.16-1.74-3.71-2.67l-.15-.25-.15.25c-.55.93-1.56,2.67-3.71,2.67s-3.16-1.74-3.71-2.67l-.14-.24-.14.24c-.55.93-1.56,2.67-3.71,2.67s-3.16-1.74-3.71-2.67l-.14-.24-.14.24c-.54.93-1.56,2.67-3.71,2.67s-3.16-1.74-3.71-2.67l-.14-.24-.14.24c-.55.93-1.56,2.67-3.71,2.67s-3.16-1.74-3.71-2.68l-.14-.24-.14.24c-.54.93-1.56,2.67-3.71,2.67s-3.16-1.74-3.71-2.68a4.8,4.8,0,0,0-.49-.74.6.6,0,0,0,.35.12V759c2.15,0,3.16,1.74,3.71,2.68l.14.24.14-.24c.55-.93,1.56-2.67,3.71-2.67s3.16,1.74,3.71,2.68l.14.24.14-.24c.55-.93,1.56-2.67,3.71-2.67s3.16,1.74,3.71,2.67l.14.24.14-.24c.54-.93,1.56-2.67,3.71-2.67s3.16,1.74,3.71,2.67l.14.24.14-.24c.54-.93,1.56-2.67,3.71-2.67s3.16,1.74,3.71,2.67l.14.24.14-.24c.55-.93,1.56-2.67,3.71-2.67s3.16,1.74,3.71,2.67l.15.25.15-.25c.55-.93,1.56-2.67,3.71-2.67v4.13a.6.6,0,0,0,.34-.12,4.8,4.8,0,0,0-.49.74C881.41,764.7,880.4,766.43,878.25,766.43Z"/><path class="9a7c8b78-14f7-4bc9-9a01-69c5d6333ab2" d="M878.25,777.53c-2.15,0-3.16-1.74-3.71-2.67l-.15-.25-.15.25c-.55.93-1.56,2.67-3.71,2.67s-3.16-1.74-3.71-2.67l-.14-.24-.14.24c-.55.93-1.56,2.67-3.71,2.67s-3.16-1.74-3.71-2.67l-.14-.24-.14.24c-.54.93-1.56,2.67-3.71,2.67s-3.16-1.74-3.71-2.67l-.14-.24-.14.24c-.55.93-1.56,2.67-3.71,2.67s-3.16-1.74-3.71-2.67l-.14-.24-.14.24c-.54.93-1.56,2.67-3.71,2.67s-3.16-1.74-3.71-2.68a4.8,4.8,0,0,0-.49-.74.6.6,0,0,0,.35.12V770.1c2.15,0,3.16,1.74,3.71,2.68l.14.24.14-.24c.55-.93,1.56-2.67,3.71-2.67s3.16,1.74,3.71,2.68l.14.24.14-.24c.55-.93,1.56-2.67,3.71-2.67s3.16,1.74,3.71,2.67l.14.24.14-.24c.54-.93,1.56-2.67,3.71-2.67s3.16,1.74,3.71,2.67l.14.24.14-.24c.54-.93,1.56-2.67,3.71-2.67s3.16,1.74,3.71,2.67l.14.24.14-.24c.55-.93,1.56-2.67,3.71-2.67s3.16,1.74,3.71,2.67l.15.25.15-.25c.55-.93,1.56-2.67,3.71-2.67v4.13a.6.6,0,0,0,.34-.12,4.8,4.8,0,0,0-.49.74C881.41,775.79,880.4,777.53,878.25,777.53Z"/><path class="9a7c8b78-14f7-4bc9-9a01-69c5d6333ab2" d="M878.25,788.13c-2.15,0-3.16-1.74-3.71-2.67l-.15-.25-.15.25c-.55.93-1.56,2.67-3.71,2.67s-3.16-1.74-3.71-2.67l-.14-.24-.14.24c-.55.93-1.56,2.67-3.71,2.67s-3.16-1.74-3.71-2.67l-.14-.24-.14.24c-.54.93-1.56,2.67-3.71,2.67s-3.16-1.74-3.71-2.67l-.14-.24-.14.24c-.55.93-1.56,2.67-3.71,2.67s-3.16-1.74-3.71-2.67l-.14-.24-.14.24c-.54.93-1.56,2.67-3.71,2.67s-3.16-1.74-3.71-2.68a4.8,4.8,0,0,0-.49-.74.6.6,0,0,0,.35.12v-4.13c2.15,0,3.16,1.74,3.71,2.68l.14.24.14-.24c.55-.93,1.56-2.67,3.71-2.67s3.16,1.74,3.71,2.68l.14.24.14-.24c.55-.93,1.56-2.67,3.71-2.67s3.16,1.74,3.71,2.67l.14.24.14-.24c.54-.93,1.56-2.67,3.71-2.67s3.16,1.74,3.71,2.67l.14.24.14-.24c.54-.93,1.56-2.67,3.71-2.67s3.16,1.74,3.71,2.67l.14.24.14-.24c.55-.93,1.56-2.67,3.71-2.67s3.16,1.74,3.71,2.67l.15.25.15-.25c.55-.93,1.56-2.67,3.71-2.67v4.13a.6.6,0,0,0,.34-.12,4.8,4.8,0,0,0-.49.74C881.41,786.4,880.4,788.13,878.25,788.13Z"/><path class="9a7c8b78-14f7-4bc9-9a01-69c5d6333ab2" d="M878.25,798.74c-2.15,0-3.16-1.74-3.71-2.67l-.15-.25-.15.25c-.55.93-1.56,2.67-3.71,2.67s-3.16-1.74-3.71-2.67l-.14-.24-.14.24c-.55.93-1.56,2.67-3.71,2.67s-3.16-1.74-3.71-2.67l-.14-.24-.14.24c-.54.93-1.56,2.67-3.71,2.67s-3.16-1.74-3.71-2.67l-.14-.24-.14.24c-.55.93-1.56,2.67-3.71,2.67s-3.16-1.74-3.71-2.67l-.14-.24-.14.24c-.54.93-1.56,2.67-3.71,2.67s-3.16-1.74-3.71-2.68a4.8,4.8,0,0,0-.49-.74.6.6,0,0,0,.35.12v-4.13c2.15,0,3.16,1.74,3.71,2.68l.14.24.14-.24c.55-.93,1.56-2.67,3.71-2.67s3.16,1.74,3.71,2.68l.14.24.14-.24c.55-.93,1.56-2.67,3.71-2.67S854.45,793,855,794l.14.24.14-.24c.54-.93,1.56-2.67,3.71-2.67s3.16,1.74,3.71,2.67l.14.24L863,794c.54-.93,1.56-2.67,3.71-2.67s3.16,1.74,3.71,2.67l.14.24.14-.24c.55-.93,1.56-2.67,3.71-2.67s3.16,1.74,3.71,2.67l.15.25.15-.25c.55-.93,1.56-2.67,3.71-2.67v4.13a.6.6,0,0,0,.34-.12,4.8,4.8,0,0,0-.49.74C881.41,797,880.4,798.74,878.25,798.74Z"/></g></g><path class="85a31c14-3969-4a17-b927-0ecea04fece4" d="M863.77,751.62a21.58,21.58,0,0,0-11.46.3,20.51,20.51,0,0,0-3,1.15,21.56,21.56,0,0,0-9.74,9.11,21.69,21.69,0,0,0,25.23,31.29c.46-.14.91-.29,1.35-.46a21.61,21.61,0,0,0,10.72-8.69,21.7,21.7,0,0,0-13.13-32.69Z"/><g id="03f54da1-58fd-455b-b665-82f6916c80fa" data-name="p5"><g class="d90770fb-9fd9-4d0f-9673-2dba928e4b3a"><path class="9a7c8b78-14f7-4bc9-9a01-69c5d6333ab2" d="M680.19,741.07c-2.15,0-3.16-1.74-3.71-2.67l-.15-.25-.15.25c-.55.93-1.56,2.67-3.71,2.67s-3.16-1.74-3.71-2.67l-.14-.24-.14.24c-.55.93-1.56,2.67-3.71,2.67s-3.16-1.74-3.71-2.67l-.14-.24-.14.24c-.54.93-1.56,2.67-3.71,2.67s-3.16-1.74-3.71-2.67l-.14-.24-.14.24c-.55.93-1.56,2.67-3.71,2.67s-3.16-1.74-3.71-2.68l-.14-.24-.14.24c-.54.93-1.56,2.67-3.71,2.67s-3.16-1.74-3.71-2.68a4.81,4.81,0,0,0-.49-.74.6.6,0,0,0,.35.12v-4.13c2.15,0,3.16,1.74,3.71,2.68l.14.24.14-.24c.55-.93,1.56-2.67,3.71-2.67s3.16,1.74,3.71,2.68l.14.24.14-.24c.55-.93,1.56-2.67,3.71-2.67s3.16,1.74,3.71,2.67l.14.24.14-.24c.54-.93,1.56-2.67,3.71-2.67s3.16,1.74,3.71,2.67l.14.24.14-.24c.54-.93,1.56-2.67,3.71-2.67s3.16,1.74,3.71,2.67l.14.24.14-.24c.55-.93,1.56-2.67,3.71-2.67s3.16,1.74,3.71,2.67l.15.25.15-.25c.55-.93,1.56-2.67,3.71-2.67v4.13a.6.6,0,0,0,.34-.12,4.79,4.79,0,0,0-.49.74C683.36,739.33,682.34,741.07,680.19,741.07Z"/><path class="9a7c8b78-14f7-4bc9-9a01-69c5d6333ab2" d="M680.19,752.17c-2.15,0-3.16-1.74-3.71-2.67l-.15-.25-.15.25c-.55.93-1.56,2.67-3.71,2.67s-3.16-1.74-3.71-2.67l-.14-.24-.14.24c-.55.93-1.56,2.67-3.71,2.67s-3.16-1.74-3.71-2.67l-.14-.24-.14.24c-.54.93-1.56,2.67-3.71,2.67s-3.16-1.74-3.71-2.67l-.14-.24-.14.24c-.55.93-1.56,2.67-3.71,2.67s-3.16-1.74-3.71-2.67l-.14-.24-.14.24c-.54.93-1.56,2.67-3.71,2.67s-3.16-1.74-3.71-2.68a4.8,4.8,0,0,0-.49-.74.6.6,0,0,0,.35.12v-4.13c2.15,0,3.16,1.74,3.71,2.68l.14.24.14-.24c.55-.93,1.56-2.67,3.71-2.67s3.16,1.74,3.71,2.68l.14.24.14-.24c.55-.93,1.56-2.67,3.71-2.67s3.16,1.74,3.71,2.67l.14.24.14-.24c.54-.93,1.56-2.67,3.71-2.67s3.16,1.74,3.71,2.67l.14.24.14-.24c.54-.93,1.56-2.67,3.71-2.67s3.16,1.74,3.71,2.67l.14.24.14-.24c.55-.93,1.56-2.67,3.71-2.67s3.16,1.74,3.71,2.67l.15.25.15-.25c.55-.93,1.56-2.67,3.71-2.67v4.13a.6.6,0,0,0,.34-.12,4.79,4.79,0,0,0-.49.74C683.36,750.43,682.34,752.17,680.19,752.17Z"/><path class="9a7c8b78-14f7-4bc9-9a01-69c5d6333ab2" d="M680.19,763.26c-2.15,0-3.16-1.74-3.71-2.67l-.15-.25-.15.25c-.55.93-1.56,2.67-3.71,2.67s-3.16-1.74-3.71-2.67l-.14-.24-.14.24c-.55.93-1.56,2.67-3.71,2.67s-3.16-1.74-3.71-2.67l-.14-.24-.14.24c-.54.93-1.56,2.67-3.71,2.67s-3.16-1.74-3.71-2.67l-.14-.24-.14.24c-.55.93-1.56,2.67-3.71,2.67s-3.16-1.74-3.71-2.68l-.14-.24-.14.24c-.54.93-1.56,2.67-3.71,2.67s-3.16-1.74-3.71-2.68a4.81,4.81,0,0,0-.49-.74.6.6,0,0,0,.35.12v-4.13c2.15,0,3.16,1.74,3.71,2.68l.14.24.14-.24c.55-.93,1.56-2.67,3.71-2.67s3.16,1.74,3.71,2.68l.14.24.14-.24c.55-.93,1.56-2.67,3.71-2.67s3.16,1.74,3.71,2.67l.14.24.14-.24c.54-.93,1.56-2.67,3.71-2.67s3.16,1.74,3.71,2.67l.14.24.14-.24c.54-.93,1.56-2.67,3.71-2.67s3.16,1.74,3.71,2.67l.14.24.14-.25c.55-.93,1.56-2.67,3.71-2.67s3.16,1.74,3.71,2.67l.15.25.15-.25c.55-.93,1.56-2.67,3.71-2.67V760a.6.6,0,0,0,.34-.12,4.79,4.79,0,0,0-.49.74C683.36,761.52,682.34,763.26,680.19,763.26Z"/><path class="9a7c8b78-14f7-4bc9-9a01-69c5d6333ab2" d="M680.19,773.45c-2.15,0-3.16-1.74-3.71-2.67l-.15-.25-.15.25c-.55.93-1.56,2.67-3.71,2.67s-3.16-1.74-3.71-2.67l-.14-.24-.14.24c-.55.93-1.56,2.67-3.71,2.67s-3.16-1.74-3.71-2.67l-.14-.24-.14.24c-.54.93-1.56,2.67-3.71,2.67s-3.16-1.74-3.71-2.67l-.14-.24-.14.24c-.55.93-1.56,2.67-3.71,2.67s-3.16-1.74-3.71-2.68l-.14-.24-.14.24c-.54.93-1.56,2.67-3.71,2.67s-3.16-1.74-3.71-2.68a4.81,4.81,0,0,0-.49-.74.6.6,0,0,0,.35.12V766c2.15,0,3.16,1.74,3.71,2.68l.14.24.14-.24c.55-.93,1.56-2.67,3.71-2.67s3.16,1.74,3.71,2.68l.14.24.14-.24c.55-.93,1.56-2.67,3.71-2.67s3.16,1.74,3.71,2.67l.14.24.14-.24c.54-.93,1.56-2.67,3.71-2.67s3.16,1.74,3.71,2.67l.14.24.14-.24c.54-.93,1.56-2.67,3.71-2.67s3.16,1.74,3.71,2.67l.14.24.14-.25c.55-.93,1.56-2.67,3.71-2.67s3.16,1.74,3.71,2.67l.15.25.15-.25c.55-.93,1.56-2.67,3.71-2.67v4.13a.6.6,0,0,0,.34-.12,4.79,4.79,0,0,0-.49.74C683.36,771.71,682.34,773.45,680.19,773.45Z"/><path class="9a7c8b78-14f7-4bc9-9a01-69c5d6333ab2" d="M680.19,783.64c-2.15,0-3.16-1.74-3.71-2.67l-.15-.25-.15.25c-.55.93-1.56,2.67-3.71,2.67s-3.16-1.74-3.71-2.67l-.14-.24-.14.24c-.55.93-1.56,2.67-3.71,2.67s-3.16-1.74-3.71-2.67l-.14-.24-.14.24c-.54.93-1.56,2.67-3.71,2.67s-3.16-1.74-3.71-2.67l-.14-.24-.14.24c-.55.93-1.56,2.67-3.71,2.67s-3.16-1.74-3.71-2.68l-.14-.24-.14.24c-.54.93-1.56,2.67-3.71,2.67S638.52,781.9,638,781a4.81,4.81,0,0,0-.49-.74.6.6,0,0,0,.35.12v-4.13c2.15,0,3.16,1.74,3.71,2.68l.14.24.14-.24c.55-.93,1.56-2.67,3.71-2.67s3.16,1.74,3.71,2.68l.14.24.14-.24c.55-.93,1.56-2.67,3.71-2.67s3.16,1.74,3.71,2.67l.14.24.14-.24c.54-.93,1.56-2.67,3.71-2.67s3.16,1.74,3.71,2.67l.14.24.14-.24c.54-.93,1.56-2.67,3.71-2.67s3.16,1.74,3.71,2.67l.14.24.14-.25c.55-.93,1.56-2.67,3.71-2.67s3.16,1.74,3.71,2.67l.15.25.15-.25c.55-.93,1.56-2.67,3.71-2.67v4.13a.6.6,0,0,0,.34-.12,4.79,4.79,0,0,0-.49.74C683.36,781.9,682.34,783.64,680.19,783.64Z"/></g></g><path class="85a31c14-3969-4a17-b927-0ecea04fece4" d="M665.72,737.35a21.58,21.58,0,0,0-11.46.3,20.51,20.51,0,0,0-3,1.15,21.56,21.56,0,0,0-9.74,9.11,21.69,21.69,0,0,0,25.23,31.29c.46-.14.91-.29,1.35-.46A21.61,21.61,0,0,0,678.85,770a21.7,21.7,0,0,0-13.13-32.69Z"/><g id="ff287d12-bf36-48cc-b0a1-783ce5ad4875" data-name="p6"><g class="0a5e14aa-8807-4760-9bfb-a66febb6bfd3"><path class="9a7c8b78-14f7-4bc9-9a01-69c5d6333ab2" d="M363.15,715.31c-2.69,0-4-2.18-4.65-3.35l-.18-.31-.18.31c-.68,1.17-2,3.35-4.65,3.35s-4-2.18-4.64-3.35l-.18-.3-.18.3c-.68,1.17-2,3.35-4.65,3.35s-4-2.18-4.64-3.35l-.18-.31-.18.31c-.68,1.17-2,3.35-4.64,3.35s-4-2.18-4.65-3.35l-.18-.3-.18.3c-.68,1.17-2,3.35-4.64,3.35s-4-2.18-4.64-3.35l-.18-.3-.18.3c-.68,1.17-2,3.35-4.64,3.35s-4-2.18-4.64-3.35a6,6,0,0,0-.61-.93.76.76,0,0,0,.43.15V706c2.69,0,4,2.18,4.64,3.35l.18.3.18-.3c.68-1.17,2-3.35,4.65-3.35s4,2.18,4.64,3.35l.18.3.18-.3c.68-1.17,2-3.35,4.64-3.35s4,2.18,4.64,3.35l.18.31.18-.31c.68-1.17,2-3.35,4.64-3.35s4,2.18,4.65,3.35l.18.3.18-.3c.68-1.17,2-3.35,4.64-3.35s4,2.18,4.64,3.35l.18.31.18-.31c.68-1.17,2-3.35,4.65-3.35s4,2.18,4.65,3.35l.18.31.18-.31c.68-1.17,2-3.35,4.65-3.35v5.17a.75.75,0,0,0,.43-.15,6,6,0,0,0-.61.93C367.12,713.13,365.84,715.31,363.15,715.31Z"/><path class="9a7c8b78-14f7-4bc9-9a01-69c5d6333ab2" d="M363.15,729.21c-2.69,0-4-2.18-4.65-3.35l-.18-.31-.18.31c-.68,1.17-2,3.35-4.65,3.35s-4-2.18-4.64-3.35l-.18-.3-.18.3c-.68,1.17-2,3.35-4.65,3.35s-4-2.18-4.64-3.35l-.18-.31-.18.31c-.68,1.17-2,3.35-4.64,3.35s-4-2.18-4.65-3.35l-.18-.3-.18.3c-.68,1.17-2,3.35-4.64,3.35s-4-2.18-4.64-3.35l-.18-.3-.18.3c-.68,1.17-2,3.35-4.64,3.35s-4-2.18-4.64-3.35a6,6,0,0,0-.61-.93.76.76,0,0,0,.43.15v-5.17c2.69,0,4,2.18,4.64,3.35l.18.3.18-.3c.68-1.17,2-3.35,4.65-3.35s4,2.18,4.64,3.35l.18.3.18-.3c.68-1.17,2-3.35,4.64-3.35s4,2.18,4.64,3.35l.18.31.18-.31c.68-1.17,2-3.35,4.64-3.35s4,2.18,4.65,3.35l.18.3.18-.3c.68-1.17,2-3.35,4.64-3.35s4,2.18,4.64,3.35l.18.31.18-.31c.68-1.17,2-3.35,4.65-3.35s4,2.18,4.65,3.35l.18.31.18-.31c.68-1.17,2-3.35,4.65-3.35v5.17a.75.75,0,0,0,.43-.15,6,6,0,0,0-.61.93C367.12,727,365.84,729.21,363.15,729.21Z"/><path class="9a7c8b78-14f7-4bc9-9a01-69c5d6333ab2" d="M363.15,743.11c-2.69,0-4-2.18-4.65-3.35l-.18-.31-.18.31c-.68,1.17-2,3.35-4.65,3.35s-4-2.18-4.64-3.35l-.18-.3-.18.3c-.68,1.17-2,3.35-4.65,3.35s-4-2.18-4.64-3.35l-.18-.31-.18.31c-.68,1.17-2,3.35-4.64,3.35s-4-2.18-4.65-3.35l-.18-.3-.18.3c-.68,1.17-2,3.35-4.64,3.35s-4-2.18-4.64-3.35l-.18-.3-.18.3c-.68,1.17-2,3.35-4.64,3.35s-4-2.18-4.64-3.35a6,6,0,0,0-.61-.93.76.76,0,0,0,.43.15v-5.17c2.69,0,4,2.18,4.64,3.35l.18.3.18-.3c.68-1.17,2-3.35,4.65-3.35s4,2.18,4.64,3.35l.18.3.18-.3c.68-1.17,2-3.35,4.64-3.35s4,2.18,4.64,3.35l.18.31.18-.31c.68-1.17,2-3.35,4.64-3.35s4,2.18,4.65,3.35l.18.3.18-.3c.68-1.17,2-3.35,4.64-3.35s4,2.18,4.64,3.35l.18.31.18-.31c.68-1.17,2-3.35,4.65-3.35s4,2.18,4.65,3.35l.18.31.18-.31c.68-1.17,2-3.35,4.65-3.35V739a.75.75,0,0,0,.43-.15,6,6,0,0,0-.61.93C367.12,740.93,365.84,743.11,363.15,743.11Z"/><path class="9a7c8b78-14f7-4bc9-9a01-69c5d6333ab2" d="M363.15,755.78c-2.69,0-4-2.18-4.65-3.35l-.18-.31-.18.31c-.68,1.17-2,3.35-4.65,3.35s-4-2.18-4.64-3.35l-.18-.3-.18.3c-.68,1.17-2,3.35-4.65,3.35s-4-2.18-4.64-3.35l-.18-.31-.18.31c-.68,1.17-2,3.35-4.64,3.35s-4-2.18-4.65-3.35l-.18-.3-.18.3c-.68,1.17-2,3.35-4.64,3.35s-4-2.18-4.64-3.35l-.18-.3-.18.3c-.68,1.17-2,3.35-4.64,3.35s-4-2.18-4.64-3.35a6,6,0,0,0-.61-.93.76.76,0,0,0,.43.15v-5.17c2.69,0,4,2.18,4.64,3.35l.18.3.18-.3c.68-1.17,2-3.35,4.65-3.35s4,2.18,4.64,3.35l.18.3.18-.3c.68-1.17,2-3.35,4.64-3.35s4,2.18,4.64,3.35l.18.31.18-.31c.68-1.17,2-3.35,4.64-3.35s4,2.18,4.65,3.35l.18.3.18-.3c.68-1.17,2-3.35,4.64-3.35s4,2.18,4.64,3.35l.18.31.18-.31c.68-1.17,2-3.35,4.65-3.35s4,2.18,4.65,3.35l.18.31.18-.31c.68-1.17,2-3.35,4.65-3.35v5.17a.75.75,0,0,0,.43-.15,6,6,0,0,0-.61.93C367.12,753.6,365.84,755.78,363.15,755.78Z"/><path class="9a7c8b78-14f7-4bc9-9a01-69c5d6333ab2" d="M363.15,768.45c-2.69,0-4-2.18-4.65-3.35l-.18-.31-.18.31c-.68,1.17-2,3.35-4.65,3.35s-4-2.18-4.64-3.35l-.18-.3-.18.3c-.68,1.17-2,3.35-4.65,3.35s-4-2.18-4.64-3.35l-.18-.31-.18.31c-.68,1.17-2,3.35-4.64,3.35s-4-2.18-4.65-3.35l-.18-.3-.18.3c-.68,1.17-2,3.35-4.64,3.35s-4-2.18-4.64-3.35l-.18-.3-.18.3c-.68,1.17-2,3.35-4.64,3.35s-4-2.18-4.64-3.35a6,6,0,0,0-.61-.93.76.76,0,0,0,.43.15v-5.17c2.69,0,4,2.18,4.64,3.35l.18.3.18-.3c.68-1.17,2-3.35,4.65-3.35s4,2.18,4.64,3.35l.18.3.18-.3c.68-1.17,2-3.35,4.64-3.35s4,2.18,4.64,3.35l.18.31.18-.31c.68-1.17,2-3.35,4.64-3.35s4,2.18,4.65,3.35l.18.3.18-.3c.68-1.17,2-3.35,4.64-3.35s4,2.18,4.64,3.35l.18.31.18-.31c.68-1.17,2-3.35,4.65-3.35s4,2.18,4.65,3.35l.18.31.18-.31c.68-1.17,2-3.35,4.65-3.35v5.17a.75.75,0,0,0,.43-.15,6,6,0,0,0-.61.93C367.12,766.27,365.84,768.45,363.15,768.45Z"/></g></g><path class="85a31c14-3969-4a17-b927-0ecea04fece4" d="M345,710.07a27,27,0,0,0-14.35.37,25.7,25.7,0,0,0-3.73,1.43,27,27,0,0,0-12.2,11.41,27.16,27.16,0,0,0,31.6,39.2c.58-.18,1.15-.36,1.7-.58A27.06,27.06,0,0,0,361.47,751a27.18,27.18,0,0,0-16.45-41Z"/><path class="3003ba46-df6f-4ccd-bdb6-426174b9644f" d="M118,657.2a32.43,32.43,0,0,0-17.21.45,30.82,30.82,0,0,0-4.47,1.72,32.39,32.39,0,0,0-14.63,13.69,32.58,32.58,0,0,0,37.9,47c.7-.22,1.37-.43,2-.7a32.47,32.47,0,0,0,16.1-13.06A32.6,32.6,0,0,0,118,657.2Z"/><g id="0cdb6951-486f-469e-9853-be44d998c6af" data-name="p7"><g class="d1d312cb-4773-4f9d-9132-6fc4a4c15e7b"><path class="9a7c8b78-14f7-4bc9-9a01-69c5d6333ab2" d="M139.73,662.72c-3.23,0-4.75-2.61-5.57-4l-.22-.37-.22.37c-.82,1.4-2.35,4-5.57,4s-4.75-2.61-5.57-4l-.22-.37-.21.36c-.82,1.4-2.34,4-5.57,4s-4.75-2.61-5.57-4l-.22-.37-.22.37c-.82,1.4-2.34,4-5.57,4s-4.75-2.61-5.57-4l-.21-.36-.21.36c-.82,1.4-2.34,4-5.57,4s-4.75-2.61-5.57-4l-.21-.36-.21.36c-.82,1.4-2.34,4-5.57,4s-4.75-2.62-5.57-4a7.22,7.22,0,0,0-.73-1.12.91.91,0,0,0,.52.18v-6.2c3.23,0,4.75,2.61,5.57,4l.21.36.21-.36c.82-1.4,2.34-4,5.57-4s4.75,2.61,5.57,4l.21.36.21-.36c.82-1.4,2.34-4,5.57-4s4.75,2.61,5.57,4l.22.37.22-.37c.82-1.4,2.34-4,5.57-4s4.75,2.61,5.57,4l.22.37.22-.37c.82-1.4,2.34-4,5.57-4s4.75,2.61,5.57,4l.22.37.22-.37c.82-1.4,2.35-4,5.57-4s4.75,2.61,5.57,4l.22.37.22-.37c.82-1.4,2.35-4,5.58-4v6.2a.9.9,0,0,0,.51-.17,7.21,7.21,0,0,0-.74,1.12C144.48,660.11,143,662.72,139.73,662.72Z"/><path class="9a7c8b78-14f7-4bc9-9a01-69c5d6333ab2" d="M139.73,679.4c-3.23,0-4.75-2.61-5.57-4l-.22-.37-.22.37c-.82,1.4-2.35,4-5.57,4s-4.75-2.61-5.57-4l-.22-.37-.21.36c-.82,1.4-2.34,4-5.57,4s-4.75-2.61-5.57-4l-.22-.37-.22.37c-.82,1.4-2.34,4-5.57,4s-4.75-2.61-5.57-4l-.21-.36-.21.36c-.82,1.4-2.34,4-5.57,4s-4.75-2.61-5.57-4l-.21-.36-.21.36c-.82,1.4-2.34,4-5.57,4s-4.75-2.62-5.57-4a7.22,7.22,0,0,0-.73-1.12.91.91,0,0,0,.52.18v-6.2c3.23,0,4.75,2.61,5.57,4l.21.36.21-.36c.82-1.4,2.34-4,5.57-4s4.75,2.61,5.57,4l.21.36.21-.36c.82-1.4,2.34-4,5.57-4s4.75,2.61,5.57,4l.22.37.22-.37c.82-1.4,2.34-4,5.57-4s4.75,2.61,5.57,4l.22.37.22-.37c.82-1.4,2.34-4,5.57-4s4.75,2.61,5.57,4l.22.37.22-.37c.82-1.4,2.35-4,5.57-4s4.75,2.61,5.57,4l.22.37.22-.37c.82-1.4,2.35-4,5.58-4v6.2a.9.9,0,0,0,.51-.18,7.2,7.2,0,0,0-.74,1.12C144.48,676.78,143,679.4,139.73,679.4Z"/><path class="9a7c8b78-14f7-4bc9-9a01-69c5d6333ab2" d="M139.73,696.07c-3.23,0-4.75-2.61-5.57-4l-.22-.37-.22.37c-.82,1.4-2.35,4-5.57,4s-4.75-2.61-5.57-4l-.22-.37-.21.36c-.82,1.4-2.34,4-5.57,4s-4.75-2.61-5.57-4l-.22-.37-.22.37c-.82,1.4-2.34,4-5.57,4s-4.75-2.61-5.57-4l-.21-.36-.21.36c-.82,1.4-2.34,4-5.57,4s-4.75-2.61-5.57-4l-.21-.36-.21.36c-.82,1.4-2.34,4-5.57,4s-4.75-2.62-5.57-4a7.22,7.22,0,0,0-.73-1.12.91.91,0,0,0,.52.18v-6.2c3.23,0,4.75,2.61,5.57,4l.21.36.21-.36c.82-1.4,2.34-4,5.57-4s4.75,2.61,5.57,4l.21.36.21-.36c.82-1.4,2.34-4,5.57-4s4.75,2.61,5.57,4l.22.37.22-.37c.82-1.4,2.34-4,5.57-4s4.75,2.61,5.57,4l.22.37.22-.37c.82-1.4,2.34-4,5.57-4s4.75,2.61,5.57,4l.22.37.22-.37c.82-1.4,2.35-4,5.57-4s4.75,2.61,5.57,4l.22.37.22-.37c.82-1.4,2.35-4,5.58-4v6.2a.9.9,0,0,0,.51-.18,7.21,7.21,0,0,0-.74,1.12C144.48,693.46,143,696.07,139.73,696.07Z"/><path class="9a7c8b78-14f7-4bc9-9a01-69c5d6333ab2" d="M139.73,712.2c-3.23,0-4.75-2.61-5.57-4l-.22-.37-.22.37c-.82,1.4-2.35,4-5.57,4s-4.75-2.61-5.57-4l-.22-.37-.21.36c-.82,1.4-2.34,4-5.57,4s-4.75-2.61-5.57-4l-.22-.37-.22.37c-.82,1.4-2.34,4-5.57,4s-4.75-2.61-5.57-4l-.21-.36-.21.36c-.82,1.4-2.34,4-5.57,4s-4.75-2.61-5.57-4l-.21-.36-.21.36c-.82,1.4-2.34,4-5.57,4s-4.75-2.62-5.57-4a7.23,7.23,0,0,0-.73-1.12.91.91,0,0,0,.52.18V701c3.23,0,4.75,2.61,5.57,4l.21.36.21-.36c.82-1.4,2.34-4,5.57-4s4.75,2.61,5.57,4l.21.36.21-.36c.82-1.4,2.34-4,5.57-4s4.75,2.61,5.57,4l.22.37.22-.37c.82-1.4,2.34-4,5.57-4s4.75,2.61,5.57,4l.22.37.22-.37c.82-1.4,2.34-4,5.57-4s4.75,2.61,5.57,4l.22.37.22-.37c.82-1.4,2.35-4,5.57-4s4.75,2.61,5.57,4l.22.37.22-.37c.82-1.4,2.35-4,5.58-4v6.2a.9.9,0,0,0,.51-.17,7.21,7.21,0,0,0-.74,1.12C144.48,709.58,143,712.2,139.73,712.2Z"/><path class="9a7c8b78-14f7-4bc9-9a01-69c5d6333ab2" d="M139.73,728.32c-3.23,0-4.75-2.61-5.57-4l-.22-.37-.22.37c-.82,1.4-2.35,4-5.57,4s-4.75-2.61-5.57-4l-.22-.37-.21.36c-.82,1.4-2.34,4-5.57,4s-4.75-2.61-5.57-4l-.22-.37-.22.37c-.82,1.4-2.34,4-5.57,4s-4.75-2.61-5.57-4l-.21-.36-.21.36c-.82,1.4-2.34,4-5.57,4s-4.75-2.61-5.57-4l-.21-.36-.21.36c-.82,1.4-2.34,4-5.57,4s-4.75-2.62-5.57-4a7.22,7.22,0,0,0-.73-1.12.91.91,0,0,0,.52.18v-6.2c3.23,0,4.75,2.61,5.57,4l.21.36.21-.36c.82-1.4,2.34-4,5.57-4s4.75,2.61,5.57,4l.21.36.21-.36c.82-1.4,2.34-4,5.57-4s4.75,2.61,5.57,4l.22.37.22-.37c.82-1.4,2.34-4,5.57-4s4.75,2.61,5.57,4l.22.37.22-.37c.82-1.4,2.34-4,5.57-4s4.75,2.61,5.57,4l.22.37.22-.37c.82-1.4,2.35-4,5.57-4s4.75,2.61,5.57,4l.22.37.22-.37c.82-1.4,2.35-4,5.58-4v6.2a.9.9,0,0,0,.51-.18,7.21,7.21,0,0,0-.74,1.12C144.48,725.71,143,728.32,139.73,728.32Z"/></g></g><g id="19af58ea-56a4-456d-b6ef-560b0c86c3d1" data-name="p2"><g class="49be73d5-c261-4500-bcd3-dbe135aa17c3"><path class="9a7c8b78-14f7-4bc9-9a01-69c5d6333ab2" d="M723.46,338.34a3.06,3.06,0,0,1-2.6-1.87l-.1-.17-.1.17a2.74,2.74,0,0,1-5.19,0l-.1-.17-.1.17a2.74,2.74,0,0,1-5.19,0l-.1-.17-.1.17a2.74,2.74,0,0,1-5.19,0l-.1-.17-.1.17a2.74,2.74,0,0,1-5.19,0l-.1-.17-.1.17a2.74,2.74,0,0,1-5.19,0,3.36,3.36,0,0,0-.34-.52.42.42,0,0,0,.24.08v-2.89a3.06,3.06,0,0,1,2.6,1.87l.1.17.1-.17a2.74,2.74,0,0,1,5.19,0l.1.17.1-.17a2.74,2.74,0,0,1,5.19,0l.1.17.1-.17a2.74,2.74,0,0,1,5.19,0l.1.17.1-.17a2.74,2.74,0,0,1,5.19,0l.1.17.1-.17a2.74,2.74,0,0,1,5.2,0l.1.17.1-.17a3.07,3.07,0,0,1,2.6-1.87V336a.42.42,0,0,0,.24-.08,3.36,3.36,0,0,0-.34.52A3.06,3.06,0,0,1,723.46,338.34Z"/><path class="9a7c8b78-14f7-4bc9-9a01-69c5d6333ab2" d="M723.46,346.11a3.06,3.06,0,0,1-2.6-1.87l-.1-.17-.1.17a2.74,2.74,0,0,1-5.19,0l-.1-.17-.1.17a2.74,2.74,0,0,1-5.19,0l-.1-.17-.1.17a2.74,2.74,0,0,1-5.19,0l-.1-.17-.1.17a2.74,2.74,0,0,1-5.19,0l-.1-.17-.1.17a2.74,2.74,0,0,1-5.19,0,3.37,3.37,0,0,0-.34-.52.42.42,0,0,0,.24.08v-2.89a3.06,3.06,0,0,1,2.6,1.87l.1.17.1-.17a2.74,2.74,0,0,1,5.19,0l.1.17.1-.17a2.74,2.74,0,0,1,5.19,0l.1.17.1-.17a2.74,2.74,0,0,1,5.19,0l.1.17.1-.17a2.74,2.74,0,0,1,5.19,0l.1.17.1-.17a2.74,2.74,0,0,1,5.2,0l.1.17.1-.17a3.07,3.07,0,0,1,2.6-1.87v2.89a.42.42,0,0,0,.24-.08,3.36,3.36,0,0,0-.34.52A3.06,3.06,0,0,1,723.46,346.11Z"/><path class="9a7c8b78-14f7-4bc9-9a01-69c5d6333ab2" d="M723.46,353.88a3.06,3.06,0,0,1-2.6-1.87l-.1-.17-.1.17a2.74,2.74,0,0,1-5.19,0l-.1-.17-.1.17a2.74,2.74,0,0,1-5.19,0l-.1-.17-.1.17a2.74,2.74,0,0,1-5.19,0l-.1-.17-.1.17a2.74,2.74,0,0,1-5.19,0l-.1-.17-.1.17a2.74,2.74,0,0,1-5.19,0,3.37,3.37,0,0,0-.34-.52.42.42,0,0,0,.24.08v-2.89a3.06,3.06,0,0,1,2.6,1.87l.1.17.1-.17a2.74,2.74,0,0,1,5.19,0l.1.17.1-.17a2.74,2.74,0,0,1,5.19,0l.1.17.1-.17a2.74,2.74,0,0,1,5.19,0l.1.17.1-.17a2.74,2.74,0,0,1,5.19,0l.1.17.1-.17a2.74,2.74,0,0,1,5.2,0l.1.17.1-.17a3.07,3.07,0,0,1,2.6-1.87v2.89a.42.42,0,0,0,.24-.08,3.37,3.37,0,0,0-.34.52A3.06,3.06,0,0,1,723.46,353.88Z"/><path class="9a7c8b78-14f7-4bc9-9a01-69c5d6333ab2" d="M723.46,361.58a3.06,3.06,0,0,1-2.6-1.87l-.1-.17-.1.17a2.74,2.74,0,0,1-5.19,0l-.1-.17-.1.17a2.74,2.74,0,0,1-5.19,0l-.1-.17-.1.17a2.74,2.74,0,0,1-5.19,0l-.1-.17-.1.17a2.74,2.74,0,0,1-5.19,0l-.1-.17-.1.17a2.74,2.74,0,0,1-5.19,0,3.36,3.36,0,0,0-.34-.52.42.42,0,0,0,.24.08v-2.89a3.06,3.06,0,0,1,2.6,1.87l.1.17.1-.17a2.74,2.74,0,0,1,5.19,0l.1.17.1-.17a2.74,2.74,0,0,1,5.19,0l.1.17.1-.17a2.74,2.74,0,0,1,5.19,0l.1.17.1-.17a2.74,2.74,0,0,1,5.19,0l.1.17.1-.17a2.74,2.74,0,0,1,5.2,0l.1.17.1-.17a3.07,3.07,0,0,1,2.6-1.87v2.89a.42.42,0,0,0,.24-.08,3.36,3.36,0,0,0-.34.52A3.06,3.06,0,0,1,723.46,361.58Z"/><path class="9a7c8b78-14f7-4bc9-9a01-69c5d6333ab2" d="M723.46,369.29a3.06,3.06,0,0,1-2.6-1.87l-.1-.17-.1.17a2.74,2.74,0,0,1-5.19,0l-.1-.17-.1.17a2.74,2.74,0,0,1-5.19,0l-.1-.17-.1.17a2.74,2.74,0,0,1-5.19,0l-.1-.17-.1.17a2.74,2.74,0,0,1-5.19,0l-.1-.17-.1.17a2.74,2.74,0,0,1-5.19,0,3.37,3.37,0,0,0-.34-.52.42.42,0,0,0,.24.08v-2.89a3.06,3.06,0,0,1,2.6,1.87l.1.17.1-.17a2.74,2.74,0,0,1,5.19,0l.1.17.1-.17a2.74,2.74,0,0,1,5.19,0l.1.17.1-.17a2.74,2.74,0,0,1,5.19,0l.1.17.1-.17a2.74,2.74,0,0,1,5.19,0l.1.17.1-.17a2.74,2.74,0,0,1,5.2,0l.1.17.1-.17a3.07,3.07,0,0,1,2.6-1.87V367a.42.42,0,0,0,.24-.08,3.36,3.36,0,0,0-.34.52A3.06,3.06,0,0,1,723.46,369.29Z"/></g></g><path class="85a31c14-3969-4a17-b927-0ecea04fece4" d="M713.32,338.6a15.11,15.11,0,0,0-8,.21,14.38,14.38,0,0,0-2.08.8A15.1,15.1,0,0,0,696.4,346a15.19,15.19,0,0,0,17.66,21.91c.32-.1.64-.2.95-.32a15.13,15.13,0,0,0,7.51-6.09,15.19,15.19,0,0,0-9.19-22.89Z"/><path class="3003ba46-df6f-4ccd-bdb6-426174b9644f" d="M316.83,284.83a10.77,10.77,0,0,0-5.72.15,10.23,10.23,0,0,0-1.48.57,10.76,10.76,0,0,0-4.86,4.55,10.83,10.83,0,0,0,12.59,15.62c.23-.07.46-.14.68-.23a10.79,10.79,0,0,0,5.35-4.34,10.83,10.83,0,0,0-6.55-16.32Z"/><g id="b98cb743-47f5-476e-9bdb-8406e3924248" data-name="p9"><g class="dc443a5b-c206-43af-9c8c-21b1dea6184e"><path class="9a7c8b78-14f7-4bc9-9a01-69c5d6333ab2" d="M324.06,286.33A2.18,2.18,0,0,1,322.2,285l-.07-.12-.07.12a2,2,0,0,1-3.7,0l-.07-.12-.07.12a2,2,0,0,1-3.7,0l-.07-.12-.07.12a2,2,0,0,1-3.7,0l-.07-.12-.07.12a2,2,0,0,1-3.7,0l-.07-.12-.07.12a1.95,1.95,0,0,1-3.7,0,2.4,2.4,0,0,0-.24-.37.3.3,0,0,0,.17.06v-2.06a2.18,2.18,0,0,1,1.85,1.34l.07.12.07-.12a2,2,0,0,1,3.7,0l.07.12.07-.12a2,2,0,0,1,3.7,0l.07.12.07-.12a2,2,0,0,1,3.7,0l.07.12.07-.12a2,2,0,0,1,3.7,0l.07.12.07-.12a2,2,0,0,1,3.7,0l.07.12.07-.12a2.19,2.19,0,0,1,1.85-1.33v2.06a.3.3,0,0,0,.17-.06,2.4,2.4,0,0,0-.24.37A2.18,2.18,0,0,1,324.06,286.33Z"/><path class="9a7c8b78-14f7-4bc9-9a01-69c5d6333ab2" d="M324.06,291.87a2.18,2.18,0,0,1-1.85-1.33l-.07-.12-.07.12a2,2,0,0,1-3.7,0l-.07-.12-.07.12a2,2,0,0,1-3.7,0l-.07-.12-.07.12a2,2,0,0,1-3.7,0l-.07-.12-.07.12a2,2,0,0,1-3.7,0l-.07-.12-.07.12a1.95,1.95,0,0,1-3.7,0,2.38,2.38,0,0,0-.24-.37.3.3,0,0,0,.17.06v-2.06a2.18,2.18,0,0,1,1.85,1.34l.07.12.07-.12a2,2,0,0,1,3.7,0l.07.12.07-.12a2,2,0,0,1,3.7,0l.07.12.07-.12a2,2,0,0,1,3.7,0l.07.12.07-.12a2,2,0,0,1,3.7,0l.07.12.07-.12a2,2,0,0,1,3.7,0l.07.12.07-.12a2.19,2.19,0,0,1,1.85-1.33v2.06a.3.3,0,0,0,.17-.06,2.39,2.39,0,0,0-.24.37A2.18,2.18,0,0,1,324.06,291.87Z"/><path class="9a7c8b78-14f7-4bc9-9a01-69c5d6333ab2" d="M324.06,298.05a2.18,2.18,0,0,1-1.85-1.33l-.07-.12-.07.12a2,2,0,0,1-3.7,0l-.07-.12-.07.12a2,2,0,0,1-3.7,0l-.07-.12-.07.12a2,2,0,0,1-3.7,0l-.07-.12-.07.12a2,2,0,0,1-3.7,0l-.07-.12-.07.12a1.95,1.95,0,0,1-3.7,0,2.38,2.38,0,0,0-.24-.37.3.3,0,0,0,.17.06v-2.06a2.18,2.18,0,0,1,1.85,1.34l.07.12.07-.12a2,2,0,0,1,3.7,0l.07.12.07-.12a2,2,0,0,1,3.7,0l.07.12.07-.12a2,2,0,0,1,3.7,0l.07.12.07-.12a2,2,0,0,1,3.7,0l.07.12.07-.12a2,2,0,0,1,3.7,0l.07.12.07-.12a2.19,2.19,0,0,1,1.85-1.33v2.06a.3.3,0,0,0,.17-.06,2.39,2.39,0,0,0-.24.37A2.18,2.18,0,0,1,324.06,298.05Z"/><path class="9a7c8b78-14f7-4bc9-9a01-69c5d6333ab2" d="M324.06,303.59a2.18,2.18,0,0,1-1.85-1.33l-.07-.12-.07.12a2,2,0,0,1-3.7,0l-.07-.12-.07.12a2,2,0,0,1-3.7,0l-.07-.12-.07.12a2,2,0,0,1-3.7,0l-.07-.12-.07.12a2,2,0,0,1-3.7,0l-.07-.12-.07.12a1.95,1.95,0,0,1-3.7,0,2.4,2.4,0,0,0-.24-.37.3.3,0,0,0,.17.06v-2.06a2.18,2.18,0,0,1,1.85,1.34l.07.12.07-.12a2,2,0,0,1,3.7,0l.07.12.07-.12a2,2,0,0,1,3.7,0l.07.12.07-.12a2,2,0,0,1,3.7,0l.07.12.07-.12a2,2,0,0,1,3.7,0l.07.12.07-.12a2,2,0,0,1,3.7,0l.07.12.07-.12a2.19,2.19,0,0,1,1.85-1.33v2.06a.3.3,0,0,0,.17-.06,2.4,2.4,0,0,0-.24.37A2.18,2.18,0,0,1,324.06,303.59Z"/><path class="9a7c8b78-14f7-4bc9-9a01-69c5d6333ab2" d="M324.06,309.13a2.18,2.18,0,0,1-1.85-1.33l-.07-.12-.07.12a2,2,0,0,1-3.7,0l-.07-.12-.07.12a2,2,0,0,1-3.7,0l-.07-.12-.07.12a2,2,0,0,1-3.7,0l-.07-.12-.07.12a2,2,0,0,1-3.7,0l-.07-.12-.07.12a1.95,1.95,0,0,1-3.7,0,2.38,2.38,0,0,0-.24-.37.3.3,0,0,0,.17.06v-2.06a2.18,2.18,0,0,1,1.85,1.34l.07.12.07-.12a2,2,0,0,1,3.7,0l.07.12.07-.12a2,2,0,0,1,3.7,0l.07.12.07-.12a2,2,0,0,1,3.7,0l.07.12.07-.12a2,2,0,0,1,3.7,0l.07.12.07-.12a2,2,0,0,1,3.7,0l.07.12.07-.12a2.19,2.19,0,0,1,1.85-1.33v2.06a.3.3,0,0,0,.17-.06,2.39,2.39,0,0,0-.24.37A2.18,2.18,0,0,1,324.06,309.13Z"/></g></g></g></svg>