<svg xmlns="http://www.w3.org/2000/svg" viewBox="0 0 350 449.37"><defs><style>.\36 5873eec-100b-4d06-9625-775e697718a1{fill:#c4c0c8;}.\33 2e75561-d08d-4849-9373-6bfcccbf9f53{fill:#f5f7f9;}.\32 d98a8e2-2782-4c23-a3db-534d6d580c3c{fill:#f1f3f6;}.dc2cd266-aaa4-4853-94cc-3deff199cba9{fill:#fff;}.\38 f3e7b84-3f92-4bd2-b62c-aa7a00aaa541{fill:#a9aaae;}.eeb3a278-b9ad-4b2d-bda3-55670f6db947{fill:#f9f9f9;}.\37 54c6815-04bd-4b4e-9d7c-26a6e2e9ea7e{fill:#fbfbfb;}.d5918ed5-6886-43d9-a46d-135d23ea690c{fill:#f1f1f2;}.\34 286a2c1-fe4c-4bef-b795-317b848afdca{fill:#dad6d5;}.\38 af9ca95-8bd5-4b7a-bc10-601b307cbd33{fill:#ff3b49;}.\33 e004611-2659-46f3-9fad-f94cd6068e40{fill:#23233c;}.\31 dad95c3-645e-4cab-a77b-d6e7da77cee6{fill:#f7945e;}.\38 866b801-68a3-453e-a0b3-75be52f9f8ac{fill:#f99158;}.eae8c820-968c-454c-807c-d6545da6114f{fill:#f99b67;}.\35 b2aa704-675c-4abe-87df-bd6bc1fa6594{fill:#ff9856;}.\39 ab34f34-a076-4068-ad76-9c4006180f52{fill:#f08b55;}.d51e07f6-d86a-40ca-8e04-af1da4c3ad08{fill:#fffab1;}.c0b09911-f76b-4acf-9750-ed0cf2b4871e{fill:#fff463;}.\32 59d0361-039d-4422-a2c7-34988cad0c55{fill:#3fc8e8;}.\33 1c5dd86-a4bf-40b2-ad83-81ea104fbbae{fill:#e7e6e8;}.\37 90f4b94-2dd1-4473-b024-ce8d317ba387,.f55c2fa7-be5a-4a26-a6f0-ca28a6ba4dbb{fill:none;stroke-linecap:round;stroke-miterlimit:10;}.f55c2fa7-be5a-4a26-a6f0-ca28a6ba4dbb{stroke:#eaeaea;stroke-width:6px;}.\35 910a010-6263-42cf-97d3-5d6b7128ec70{fill:#1b1323;}.\37 90f4b94-2dd1-4473-b024-ce8d317ba387{stroke:#fff;}</style></defs><title>spaceman</title><g id="4d08ed5d-b055-416b-926f-1f81c3221e93" data-name="左顧右盼"><rect class="65873eec-100b-4d06-9625-775e697718a1" x="112.37" y="129.05" width="123.49" height="119.57" rx="11.47" ry="11.47" transform="translate(-6.01 5.72) rotate(-1.85)"/><path class="32e75561-d08d-4849-9373-6bfcccbf9f53" d="M235.93,151.92c1,7.79-3.82,27.73-3.82,27.73-.37-9.82-3.25-22.53-9.4-31.43C224.36,147.9,233.4,149.78,235.93,151.92Z"/><path class="32e75561-d08d-4849-9373-6bfcccbf9f53" d="M232.11,179.65s13.58-10.54,15.87-19.26a18.6,18.6,0,0,1,7.87,12.32C248.54,171.8,232.11,179.65,232.11,179.65Z"/><path class="2d98a8e2-2782-4c23-a3db-534d6d580c3c" d="M232.11,179.65s4.8-19.95,3.82-27.73c5.44,1.47,12,6.39,12.05,8.48C245.69,169.11,232.11,179.65,232.11,179.65Z"/><path class="2d98a8e2-2782-4c23-a3db-534d6d580c3c" d="M235.91,186.29S217.4,173.94,213.46,161s9.24-12.8,9.24-12.8S238.46,173.79,235.91,186.29Z"/><path class="32e75561-d08d-4849-9373-6bfcccbf9f53" d="M237.55,185.61a13,13,0,0,1-8.59,2.07c-4.75-.68-16.63-10.26-20.87-21.66l5.38-5S225.94,180.05,237.55,185.61Z"/><rect class="dc2cd266-aaa4-4853-94cc-3deff199cba9" x="222.92" y="174.35" width="62.41" height="36.1" rx="18.05" ry="18.05" transform="translate(283.3 509.82) rotate(-132.38)"/><rect class="dc2cd266-aaa4-4853-94cc-3deff199cba9" x="226.83" y="198.16" width="62.41" height="36.1" rx="18.05" ry="18.05" transform="translate(584.8 135.26) rotate(126.13)"/><path class="32e75561-d08d-4849-9373-6bfcccbf9f53" d="M116,150.12c-1.21,7.76,3,27.84,3,27.84.66-9.8,3.92-22.43,10.34-31.13C127.68,146.45,118.59,148.06,116,150.12Z"/><path class="32e75561-d08d-4849-9373-6bfcccbf9f53" d="M119,178S105.72,167,103.69,158.23a18.6,18.6,0,0,0-8.24,12.08C102.79,169.61,119,178,119,178Z"/><path class="2d98a8e2-2782-4c23-a3db-534d6d580c3c" d="M119,178s-4.2-20.08-3-27.84c-5.48,1.31-12.2,6-12.3,8.11C105.72,167,119,178,119,178Z"/><path class="2d98a8e2-2782-4c23-a3db-534d6d580c3c" d="M115,184.48s18.87-11.79,23.19-24.58-8.86-13.08-8.86-13.08S112.8,171.91,115,184.48Z"/><path class="32e75561-d08d-4849-9373-6bfcccbf9f53" d="M113.37,183.76a13,13,0,0,0,8.52,2.32c4.76-.54,16.93-9.76,21.51-21l-5.22-5.16S125.13,178.54,113.37,183.76Z"/><path class="65873eec-100b-4d06-9625-775e697718a1" d="M157.93,381.81a10.44,10.44,0,0,1-2.32,4.35c-1,1.06-2.34,1.84-3.37,2.86a30.32,30.32,0,0,0-2.94,3.77A25.2,25.2,0,0,1,125,403.62a13.81,13.81,0,0,1-5.84-3.16,29.31,29.31,0,0,1-2.74-3.3A13.67,13.67,0,0,1,122,383.49c4.37-3.34,9.76-6.76,12.58-10.56.72-1,18.14-1.49,25.27-1.13a34,34,0,0,1-.54,5.25C159,378.66,158.45,380.23,157.93,381.81Z"/><path class="8f3e7b84-3f92-4bd2-b62c-aa7a00aaa541" d="M119.18,400.47a13.81,13.81,0,0,0,5.84,3.16,25.2,25.2,0,0,0,24.27-10.85,30.32,30.32,0,0,1,2.94-3.77c1-1,2.38-1.8,3.37-2.86a10.44,10.44,0,0,0,2.32-4.35c.52-1.57,1-3.15,1.43-4.75a34,34,0,0,0,.54-5.25c1.81.09,3,.24,3,.45a14.59,14.59,0,0,1-.34,5c-.41,1.69-1,3.34-1.5,5a13.57,13.57,0,0,1-2.62,5.14c-1,1.11-2.4,1.88-3.48,2.94a24.51,24.51,0,0,0-2.65,3.51c-5.94,8.43-15.74,13.48-25.9,11.68a15.37,15.37,0,0,1-5.93-2.42c-1.25-1.07-3.55-3.12-3.94-5.32,0-.2-.06-.4-.09-.6A29.31,29.31,0,0,0,119.18,400.47Z"/><path class="65873eec-100b-4d06-9625-775e697718a1" d="M203.74,378.64a10.44,10.44,0,0,0,2.19,4.41c1,1.09,2.28,1.91,3.28,3a30.32,30.32,0,0,1,2.83,3.85A25.2,25.2,0,0,0,236,401.44a13.81,13.81,0,0,0,5.93-3,29.31,29.31,0,0,0,2.84-3.22,13.67,13.67,0,0,0-5.2-13.84c-4.26-3.47-9.55-7-12.26-10.93-.69-1-18.09-2-25.22-1.89a34,34,0,0,0,.38,5.27C202.79,375.47,203.26,377.06,203.74,378.64Z"/><path class="8f3e7b84-3f92-4bd2-b62c-aa7a00aaa541" d="M241.9,398.45a13.81,13.81,0,0,1-5.93,3A25.2,25.2,0,0,1,212,389.87a30.32,30.32,0,0,0-2.83-3.85c-1-1-2.33-1.87-3.28-3a10.44,10.44,0,0,1-2.19-4.41c-.47-1.59-.95-3.18-1.29-4.8a34,34,0,0,1-.38-5.27c-1.81,0-3,.15-3,.36a14.59,14.59,0,0,0,.19,5c.36,1.7.86,3.37,1.35,5a13.57,13.57,0,0,0,2.46,5.21c1,1.15,2.34,1.95,3.39,3a24.51,24.51,0,0,1,2.55,3.59c5.69,8.61,15.33,13.95,25.54,12.45a15.37,15.37,0,0,0,6-2.24c1.28-1,3.64-3,4.09-5.2,0-.2.07-.4.11-.6A29.31,29.31,0,0,1,241.9,398.45Z"/><path class="eeb3a278-b9ad-4b2d-bda3-55670f6db947" d="M125.47,320.12c-.89,18.29-1.6,36.86,4.56,51.27,1.41,3.29,10.6,4.26,14,4.57s12.68.4,16.54-1.28c2-.87,3.93-4.52,4.65-8.88,2.43-14.86,2.17-26.29,1.79-41Z"/><path class="eeb3a278-b9ad-4b2d-bda3-55670f6db947" d="M231.13,316.71c2.07,18.19,4,36.68-1.25,51.45-1.19,3.37-10.3,4.93-13.66,5.46s-12.63,1.22-16.59-.21c-2-.74-4.22-4.25-5.21-8.56-3.38-14.67-3.87-26.09-4.43-40.76Z"/><path class="eeb3a278-b9ad-4b2d-bda3-55670f6db947" d="M234,262.68,119.09,266.4c-.09,10.22,3.35,44.91,6.75,54.86a14,14,0,0,0,6.52,7.89,25.75,25.75,0,0,0,7.19,2.58c3.81.75,10.89.22,14.72-.4A27.11,27.11,0,0,0,164.91,327c3.6-2.53,4.06-6.93,5.29-12.78a275.6,275.6,0,0,0,4.21-28.46,8.21,8.21,0,0,0,5.68-.18,275.6,275.6,0,0,0,6,28.13c1.6,5.76,2.34,10.12,6.1,12.41a27.11,27.11,0,0,0,10.9,3.66c3.86.37,11,.44,14.72-.55a25.75,25.75,0,0,0,7-3,14,14,0,0,0,6-8.29C233.58,307.72,234.78,272.88,234,262.68Z"/><path class="dc2cd266-aaa4-4853-94cc-3deff199cba9" d="M209.71,316.56c-15.33,2.5-19.72,7.53-19.72,7.53a8.25,8.25,0,0,0,2.22,2,27.11,27.11,0,0,0,10.9,3.66c3.86.37,11,.44,14.72-.55a25.75,25.75,0,0,0,7-3,14,14,0,0,0,6-8.29c.1-.38.19-.77.29-1.15C231.12,316.71,225.39,314,209.71,316.56Z"/><path class="dc2cd266-aaa4-4853-94cc-3deff199cba9" d="M146.84,318.59c15.46,1.51,20.16,6.24,20.16,6.24a8.25,8.25,0,0,1-2.09,2.13,27.11,27.11,0,0,1-10.64,4.36c-3.83.62-10.91,1.15-14.72.4a25.75,25.75,0,0,1-7.19-2.58,14,14,0,0,1-6.52-7.89c-.13-.38-.24-.75-.36-1.13C125.49,320.13,131,317.05,146.84,318.59Z"/><path class="754c6815-04bd-4b4e-9d7c-26a6e2e9ea7e" d="M214.72,158.66c10.73,23.8,14,36.25,17.24,52.25,1.69,8.45,1.66,38.93,1.75,41.78l-57.46,1.86L173,153.26l30.54-5.55Z"/><path class="754c6815-04bd-4b4e-9d7c-26a6e2e9ea7e" d="M131.68,161.34c-9.18,24.44-11.66,37.54-13.83,53.26-1.18,8.54.83,38.93.92,41.8l57.48-1.86L173,153.26l-30.83-3.57Z"/><path class="d5918ed5-6886-43d9-a46d-135d23ea690c" d="M162.88,283.47c2.44,2.28,7.24,2.9,14.38,2.67s11.89-1.16,14.18-3.6a80.54,80.54,0,0,1-14.23,2A80.46,80.46,0,0,1,162.88,283.47Z"/><rect class="4286a2c1-fe4c-4bef-b795-317b848afdca" x="146.7" y="191.26" width="56.05" height="33" rx="6.03" ry="6.03" transform="translate(-6.62 5.75) rotate(-1.85)"/><rect class="32e75561-d08d-4849-9373-6bfcccbf9f53" x="153.21" y="197.37" width="27.22" height="4.67" rx="2.34" ry="2.34" transform="matrix(1, -0.03, 0.03, 1, -6.36, 5.49)"/><rect class="32e75561-d08d-4849-9373-6bfcccbf9f53" x="153.48" y="205.67" width="27.22" height="4.67" rx="2.34" ry="2.34" transform="translate(-6.63 5.5) rotate(-1.85)"/><rect class="32e75561-d08d-4849-9373-6bfcccbf9f53" x="153.75" y="213.98" width="27.22" height="4.67" rx="2.34" ry="2.34" transform="translate(-6.9 5.52) rotate(-1.85)"/><circle class="8af9ca95-8bd5-4b7a-bc10-601b307cbd33" cx="191.1" cy="201.25" r="4.67" transform="translate(-6.4 6.27) rotate(-1.85)"/><circle class="32e75561-d08d-4849-9373-6bfcccbf9f53" cx="191.49" cy="213.2" r="4.67" transform="translate(-6.78 6.29) rotate(-1.85)"/><rect class="4286a2c1-fe4c-4bef-b795-317b848afdca" x="118.9" y="254.54" width="115" height="10" transform="translate(-8.29 5.83) rotate(-1.85)"/><circle class="3e004611-2659-46f3-9fad-f94cd6068e40" cx="200.84" cy="172.01" r="7.17" transform="translate(-5.45 6.57) rotate(-1.85)"/><path class="1dad95c3-645e-4cab-a77b-d6e7da77cee6" d="M203.83,171.6a3,3,0,0,0-.41-1.15c-1.24,1-4.07,1.35-5.57,1.17a2.72,2.72,0,0,0,.05,1.11A11.26,11.26,0,0,0,203.83,171.6Z"/><path class="8866b801-68a3-453e-a0b3-75be52f9f8ac" d="M203.43,170.45a3,3,0,0,0-.84-.91,5.51,5.51,0,0,1-2,.78,8,8,0,0,1-2.37.14,3,3,0,0,0-.39,1.15C199.35,171.8,202.19,171.41,203.43,170.45Z"/><path class="eae8c820-968c-454c-807c-d6545da6114f" d="M201.51,169.06a2.9,2.9,0,0,0-2.58.61A5.65,5.65,0,0,0,201.51,169.06Z"/><path class="5b2aa704-675c-4abe-87df-bd6bc1fa6594" d="M200.61,170.32a5.51,5.51,0,0,0,2-.78,3,3,0,0,0-1.07-.48,5.65,5.65,0,0,1-2.58.61,3,3,0,0,0-.69.79A8,8,0,0,0,200.61,170.32Z"/><path class="8866b801-68a3-453e-a0b3-75be52f9f8ac" d="M199.71,174.81a3,3,0,0,0,3.11-.53A6.88,6.88,0,0,1,199.71,174.81Z"/><path class="5b2aa704-675c-4abe-87df-bd6bc1fa6594" d="M198.78,174.22a3,3,0,0,0,.94.59,6.88,6.88,0,0,0,3.11-.53,3,3,0,0,0,.65-.79A9.61,9.61,0,0,1,198.78,174.22Z"/><path class="9ab34f34-a076-4068-ad76-9c4006180f52" d="M203.83,171.6a11.26,11.26,0,0,1-5.93,1.12,3,3,0,0,0,.64,1.23h0a3.06,3.06,0,0,0,.23.26,9.61,9.61,0,0,0,4.7-.73,2.66,2.66,0,0,0,.37-1.23A6,6,0,0,0,203.83,171.6Z"/><path class="8af9ca95-8bd5-4b7a-bc10-601b307cbd33" d="M204.38,170.71c.57.14,1,.35.41.84a2.7,2.7,0,0,1-.51.3,13.23,13.23,0,0,1-3.43,1,19,19,0,0,1-3.12.23,2.77,2.77,0,0,1-.94-.13c-.41-.2,0-.7.29-1-.73.22-1.15.84-.8,1.32.21.29.84.48,1.91.52a19,19,0,0,0,2.95-.17,8.42,8.42,0,0,0,3-.86,3.85,3.85,0,0,0,1.28-1C205.74,171.24,205.4,170.57,204.38,170.71Z"/><circle class="d51e07f6-d86a-40ca-8e04-af1da4c3ad08" cx="202.46" cy="166.68" r="0.34" transform="translate(-5.28 6.62) rotate(-1.85)"/><circle class="dc2cd266-aaa4-4853-94cc-3deff199cba9" cx="195.03" cy="170.21" r="0.17" transform="translate(-5.39 6.39) rotate(-1.85)"/><circle class="c0b09911-f76b-4acf-9750-ed0cf2b4871e" cx="199.16" cy="176.35" r="0.24" transform="translate(-5.59 6.52) rotate(-1.85)"/><circle class="259d0361-039d-4422-a2c7-34988cad0c55" cx="204.01" cy="169.52" r="0.1" transform="translate(-5.37 6.67) rotate(-1.85)"/><circle class="5b2aa704-675c-4abe-87df-bd6bc1fa6594" cx="205.89" cy="234.93" r="5.24" transform="translate(-7.48 6.77) rotate(-1.85)"/><path class="d5918ed5-6886-43d9-a46d-135d23ea690c" d="M204.4,137c2.68,14.49-6.68,18.15-31.35,18.94-24.2.78-34.25-2.2-32.5-16.88,1.34-11.3,12.25-19.17,31.32-19.78S202.33,125.82,204.4,137Z"/><path class="31c5dd86-a4bf-40b2-ad83-81ea104fbbae" d="M204.66,133.23c2.7,14.49-9.47,18.41-31.72,19.13-21.79.7-34.66-2.36-32.89-17,1.36-11.3,12.41-19.17,31.7-19.79S202.57,122,204.66,133.23Z"/><rect class="dc2cd266-aaa4-4853-94cc-3deff199cba9" x="65.38" y="171.99" width="62.41" height="36.1" rx="18.05" ry="18.05" transform="translate(-107.11 127.17) rotate(-45.91)"/><rect class="dc2cd266-aaa4-4853-94cc-3deff199cba9" x="60.76" y="195.67" width="62.41" height="36.1" rx="18.05" ry="18.05" transform="translate(216.32 17.07) rotate(55.59)"/><path class="65873eec-100b-4d06-9625-775e697718a1" d="M222.49,236c.58-.41,8.08-8.15,9.93-8.4l13.17,13.46,3.18,1.2c.58,3.42-6.75,13.32-11.1,16.88-1.89,1.55-5.75,3.4-8.2,3.4-1.56,0-5.7.35-8.39-1.87-3.35-2.77-4.86-5.49-5.4-9.05a9.7,9.7,0,0,1,1.26-4.85,12.42,12.42,0,0,1,3.24-3.26,3.69,3.69,0,0,1-.58-.64,3.61,3.61,0,0,1-.56-1.85,4.39,4.39,0,0,1,1.22-2.94A13.83,13.83,0,0,1,222.49,236Z"/><path class="4286a2c1-fe4c-4bef-b795-317b848afdca" d="M232.4,221.47c2.83-.15,21.28,19.59,20.88,22.68-.48,3.64-3.3,4.23-4.79,4.64-3.2.87-21.57-20.73-21.28-23.53C227.37,223.72,230.65,221.57,232.4,221.47Z"/><path class="f55c2fa7-be5a-4a26-a6f0-ca28a6ba4dbb" d="M173.3,129s3-9.51,48-9.42c43.79.09,37.45,23.38,60.16,44.17,31.52,28.86,2.94,108.67-75.62,71.14"/><path class="32e75561-d08d-4849-9373-6bfcccbf9f53" d="M226.52,110.43a8.41,8.41,0,0,0,5.74.8,6.41,6.41,0,0,0,2.91-1.64,5.71,5.71,0,0,0,1-2.83c.75-7.72.93-14.68-.54-22.3a11,11,0,0,0-1.73-4.62c-1-1.33-2.77-2.46-4.32-1.86C227.42,78.8,225.57,109.87,226.52,110.43Z"/><path class="dc2cd266-aaa4-4853-94cc-3deff199cba9" d="M230.68,89.92c1.07,33-24.91,57.51-57.89,58.58s-60.48-21.74-61.55-54.72a59.75,59.75,0,1,1,119.44-3.86Z"/><path class="5910a010-6263-42cf-97d3-5d6b7128ec70" d="M139.71,90.37c.5,22.21.9,40.22,45.19,39.23,45.41-1,43.88-19,43.38-41.22S208,67.25,183.52,67.8,139.21,68.16,139.71,90.37Z"/><circle class="dc2cd266-aaa4-4853-94cc-3deff199cba9" cx="216.54" cy="97.62" r="4.18" transform="matrix(1, -0.02, 0.02, 1, -2.14, 4.89)"/><circle class="dc2cd266-aaa4-4853-94cc-3deff199cba9" cx="179.47" cy="98.46" r="4.18" transform="translate(-2.17 4.05) rotate(-1.29)"/><path class="790f4b94-2dd1-4473-b024-ce8d317ba387" d="M219.07,87s-2.7-3.19-5.75-1.44"/><path class="790f4b94-2dd1-4473-b024-ce8d317ba387" d="M176.18,83.76S179,80.63,182,82.45"/><path class="dc2cd266-aaa4-4853-94cc-3deff199cba9" d="M209.63,111.89a32.67,32.67,0,0,1-23.84-.64c-.75-.31-.13-1.42.61-1.11a31.35,31.35,0,0,0,22.86.53c.77-.28,1.13.94.36,1.21Z"/><path class="65873eec-100b-4d06-9625-775e697718a1" d="M124.75,234.56c-.56-.43-7.84-8.39-9.68-8.7l-13.57,13.06L98.3,240c-.68,3.4,6.35,13.52,10.59,17.21,1.84,1.6,5.65,3.57,8.09,3.65,1.56,0,5.69.53,8.44-1.61,3.43-2.66,5-5.35,5.67-8.89a9.7,9.7,0,0,0-1.12-4.88,12.42,12.42,0,0,0-3.15-3.36,3.69,3.69,0,0,0,.6-.62,3.61,3.61,0,0,0,.61-1.83,4.39,4.39,0,0,0-1.13-3A13.83,13.83,0,0,0,124.75,234.56Z"/><path class="4286a2c1-fe4c-4bef-b795-317b848afdca" d="M115.28,219.72c-2.83-.24-21.86,18.95-21.55,22,.37,3.65,3.17,4.33,4.64,4.78,3.17,1,22.18-20.08,22-22.89C120.25,222.12,117,219.87,115.28,219.72Z"/><path class="32e75561-d08d-4849-9373-6bfcccbf9f53" d="M119.22,113.76a8.41,8.41,0,0,1-5.63,1.35,6.41,6.41,0,0,1-3.06-1.35,5.71,5.71,0,0,1-1.25-2.72c-1.49-7.61-2.34-14.52-1.61-22.25A11,11,0,0,1,108.95,84c.86-1.42,2.52-2.71,4.12-2.27C115.27,82.37,120.11,113.11,119.22,113.76Z"/></g></svg>