<svg xmlns="http://www.w3.org/2000/svg" viewBox="0 0 350 447.64"><defs><style>.c1261a25-2325-47be-8a98-60bf86a5f586{fill:#a9aaae;}.\31 1628f8b-816c-4a53-9e38-1d88fc501498{fill:#c4c0c8;}.\31 1a0927a-7ffe-45f1-9044-46f10d243566{fill:#f9f9f9;}.\33 e2a3296-d244-44d3-846c-7b2f562f5957{fill:#f5f7f9;}.\32 80efe69-bf36-4f03-aae7-8ea23b45bd99{fill:#f1f3f6;}.e8295442-d26e-4ad6-9102-e1518572b617{fill:#fff;}.ea57a95b-6423-4fb2-88b2-4b519b29693b{fill:#dad6d5;}.\39 bdb2d46-86a3-4764-bbc4-2b5dd498fc8f{fill:#fbfbfb;}.\33 149c392-cc48-4f63-a63c-2959089bc4ed{fill:#ff3b49;}.\34 e693bc4-418a-4cdf-a6b9-9e484a6f569e{fill:#23233c;}.\36 57570d5-3cb5-4711-8cb5-3be287e26b2e{fill:#f7945e;}.a46ea4a9-c144-4d85-95a6-b2b0decfb5a4{fill:#f99158;}.a5eb8124-2503-40de-9c58-fab1f7735cd3{fill:#f99b67;}.\36 621c12c-1d4f-4fc3-b67c-daacfcc16063{fill:#ff9856;}.\31 d5f9d68-ff16-4326-a293-3752e5667f13{fill:#f08b55;}.b96b4754-5641-4569-b9c1-c97fc9e65949{fill:#fffab1;}.\39 ea54733-1764-4254-9f28-054523a85c60{fill:#fff463;}.f64ca132-4df0-40c4-a241-510217cc78b3{fill:#3fc8e8;}.\35 bea86c1-a2b9-49e9-ae21-7149e4b25cfa,.bd104d54-c7b9-4466-a039-3b0d3b5584d4{fill:none;stroke-linecap:round;stroke-miterlimit:10;}.bd104d54-c7b9-4466-a039-3b0d3b5584d4{stroke:#eaeaea;stroke-width:6px;}.\30 4c84ab1-453a-41c4-b2eb-c7b7c456c1ca{fill:#f1f1f2;}.bebe4235-a892-46ec-b68a-11f3ba8e66cd{fill:#e7e6e8;}.\33 e969e2b-7a8a-4ba6-aa8f-db482855c78c{fill:#1b1323;}.\35 bea86c1-a2b9-49e9-ae21-7149e4b25cfa{stroke:#fff;}</style></defs><title>spaceman</title><g id="93f896de-32ab-4566-bca8-619b6275c593" data-name="漂浮"><path class="c1261a25-2325-47be-8a98-60bf86a5f586" d="M271.38,204.16s-9.07,0-12.4,5.34c-2.67,4.27,3.83,13.67,3.83,13.67L273.76,219Z"/><path class="11628f8b-816c-4a53-9e38-1d88fc501498" d="M279.36,208.29A10.44,10.44,0,0,1,284,210c1.18.83,2.14,2.07,3.29,3a30.32,30.32,0,0,0,4.13,2.41,25.2,25.2,0,0,1,14,22.58,13.81,13.81,0,0,1-2.34,6.22,29.31,29.31,0,0,1-2.9,3.16,13.67,13.67,0,0,1-14.31-3.71c-3.9-3.87-8-8.75-12.17-11-1.05-.58-3.93-17.77-4.54-24.88a34,34,0,0,1,5.28-.18C276.1,207.68,277.73,208,279.36,208.29Z"/><path class="c1261a25-2325-47be-8a98-60bf86a5f586" d="M303.09,244.16a13.81,13.81,0,0,0,2.34-6.22,25.2,25.2,0,0,0-14-22.58,30.32,30.32,0,0,1-4.13-2.41c-1.15-.89-2.1-2.12-3.29-3a10.44,10.44,0,0,0-4.62-1.71c-1.63-.3-3.26-.61-4.9-.77a34,34,0,0,0-5.28.18c-.15-1.8-.16-3,0-3,4.66-1.59,11.36-.29,15.38,2.43,5.49,3.72,12,7,16.33,12.11a24.85,24.85,0,0,1,6.19,17.11,15.37,15.37,0,0,1-1.59,6.2c-.89,1.38-2.61,3.94-4.74,4.62l-.59.17A29.31,29.31,0,0,0,303.09,244.16Z"/><path class="11628f8b-816c-4a53-9e38-1d88fc501498" d="M269.17,207.7s-9.92,2-9.31,9,13.89,9.13,13.89,9.13Z"/><rect class="11a0927a-7ffe-45f1-9044-46f10d243566" x="167.86" y="263.38" width="50.07" height="82.58" rx="24.02" ry="24.02" transform="translate(-143.1 173.75) rotate(-36.37)"/><rect class="11a0927a-7ffe-45f1-9044-46f10d243566" x="185.62" y="256.08" width="50.07" height="90" rx="25.04" ry="25.04" transform="translate(105.46 -51) rotate(18.34)"/><path class="11a0927a-7ffe-45f1-9044-46f10d243566" d="M221.42,223.49h24.13a27,27,0,0,1,27,27v26.11a27,27,0,0,1-27,27H213.42a4.83,4.83,0,0,1-4.83-4.83V236.31a12.83,12.83,0,0,1,12.83-12.83Z" transform="translate(-114.93 233.04) rotate(-42.71)"/><path class="11a0927a-7ffe-45f1-9044-46f10d243566" d="M285.57,271.76c4.07-17.85,11-32.67,7.41-47.94-.81-3.48-12-9.19-15.32-10.09s-12.42-2.61-16.51-1.63c-2.1.51-4.66,3.76-6.13,7.93-5,14.21-6.73,25.5-8.92,40Z"/><rect class="11a0927a-7ffe-45f1-9044-46f10d243566" x="234.83" y="223.67" width="50.07" height="94.67" rx="25.04" ry="25.04" transform="translate(78.3 -57.64) rotate(14.88)"/><rect class="11628f8b-816c-4a53-9e38-1d88fc501498" x="124.72" y="151.02" width="123.49" height="119.57" rx="11.47" ry="11.47" transform="translate(-71.06 97.27) rotate(-24.72)"/><path class="3e2a3296-d244-44d3-846c-7b2f562f5957" d="M119.86,197.36c-2.93,7.28-3.36,27.79-3.36,27.79,2.85-9.4,8.87-21,17.08-28C132.07,196.42,122.85,195.94,119.86,197.36Z"/><path class="3e2a3296-d244-44d3-846c-7b2f562f5957" d="M116.5,225.16S106,211.52,106,202.5a18.6,18.6,0,0,0-10.74,9.91C102.61,213.38,116.5,225.16,116.5,225.16Z"/><path class="280efe69-bf36-4f03-aae7-8ea23b45bd99" d="M116.5,225.16s.43-20.51,3.36-27.79c-5.63,0-13.24,3.12-13.81,5.13C106,211.52,116.5,225.16,116.5,225.16Z"/><path class="280efe69-bf36-4f03-aae7-8ea23b45bd99" d="M111.14,230.61s21-7.23,28.13-18.72-5.68-14.73-5.68-14.73S111.84,217.88,111.14,230.61Z"/><path class="3e2a3296-d244-44d3-846c-7b2f562f5957" d="M109.72,229.54a13,13,0,0,0,7.78,4.18c4.76.54,18.69-5.69,25.69-15.64l-3.93-6.2S122.36,227.12,109.72,229.54Z"/><path class="e8295442-d26e-4ad6-9102-e1518572b617" d="M53.74,269.92s10.09-.8,35-17.77c0,0,20.18-8.23,28.82-18.43,0,0-1-10.76-5.28-14.91C108.37,215,53.74,269.92,53.74,269.92Z"/><path class="11628f8b-816c-4a53-9e38-1d88fc501498" d="M38.47,278.68c.45-.54,8.75-7.43,9.14-9.26L35.2,255.25l-1-3.26c-3.37-.84-13.8,5.7-17.69,9.77-1.69,1.77-3.84,5.47-4,7.91-.12,1.55-.79,5.66,1.21,8.51,2.5,3.55,5.1,5.27,8.61,6.08a9.7,9.7,0,0,0,4.93-.89,12.42,12.42,0,0,0,3.5-3,3.69,3.69,0,0,0,.59.63,3.61,3.61,0,0,0,1.8.7,4.39,4.39,0,0,0,3-1A13.83,13.83,0,0,0,38.47,278.68Z"/><path class="e8295442-d26e-4ad6-9102-e1518572b617" d="M99.26,205.56c-4.07,1.13-16.6,5.65-30.33,16.92C56,227.09,39.46,235.56,32.73,247.36c-.43,7.65,16.61,21,20.22,23,5.18-2.39,16.71-13,28.31-21.74,15.38-8.14,24.85-15.2,31.19-22.1,2.11-3.64-2.46-10.22-4.58-13.2C106.19,210.94,102.17,204.75,99.26,205.56Z"/><path class="ea57a95b-6423-4fb2-88b2-4b519b29693b" d="M53.74,269.92c.37-2.81-17.9-22.72-21-22.56-3.67.19-4.47,3-5,4.41-1.12,3.12,19,23.1,21.83,23C51.1,274.77,53.51,271.66,53.74,269.92Z"/><path class="9bdb2d46-86a3-4764-bbc4-2b5dd498fc8f" d="M199.39,167.65c22.68,14.5,33.42,30.62,43.43,43.5,5.28,6.81,18.88,34.08,20.24,36.59-3.89,2.1-55.23,22.87-55.23,22.87l-48.19-89.14,24.84-18.61Z"/><path class="9bdb2d46-86a3-4764-bbc4-2b5dd498fc8f" d="M126.3,207.16c2.71,26,6.34,38.79,11.42,53.83,2.76,8.16,18.14,34.46,19.5,37l50.59-27.35-48.18-89.15-29.18,10.59Z"/><rect class="ea57a95b-6423-4fb2-88b2-4b519b29693b" x="147.79" y="211.23" width="56.05" height="33" rx="6.03" ry="6.03" transform="translate(-80.33 96.72) rotate(-25.24)"/><rect class="3e2a3296-d244-44d3-846c-7b2f562f5957" x="151.74" y="221.13" width="27.22" height="4.67" rx="2.34" ry="2.34" transform="translate(-79.51 91.85) rotate(-25.24)"/><rect class="3e2a3296-d244-44d3-846c-7b2f562f5957" x="155.29" y="228.65" width="27.22" height="4.67" rx="2.34" ry="2.34" transform="translate(-82.38 94.08) rotate(-25.24)"/><rect class="3e2a3296-d244-44d3-846c-7b2f562f5957" x="158.83" y="236.17" width="27.22" height="4.67" rx="2.34" ry="2.34" transform="translate(-85.24 96.31) rotate(-25.24)"/><circle class="3149c392-cc48-4f63-a63c-2959089bc4ed" cx="188.26" cy="215.25" r="4.67" transform="translate(-73.82 100.84) rotate(-25.24)"/><circle class="3e2a3296-d244-44d3-846c-7b2f562f5957" cx="193.36" cy="226.06" r="4.67" transform="translate(-77.94 104.04) rotate(-25.24)"/><circle class="4e693bc4-418a-4cdf-a6b9-9e484a6f569e" cx="186" cy="192.06" r="7.17" transform="translate(-68.95 111.55) rotate(-28.39)"/><path class="657570d5-3cb5-4711-8cb5-3be287e26b2e" d="M188.5,190.36a3,3,0,0,0-.88-.85c-.68,1.41-3,3-4.46,3.54a2.72,2.72,0,0,0,.54,1A11.26,11.26,0,0,0,188.5,190.36Z"/><path class="a46ea4a9-c144-4d85-95a6-b2b0decfb5a4" d="M187.62,189.51a3,3,0,0,0-1.16-.44,5.51,5.51,0,0,1-1.42,1.58,8,8,0,0,1-2.05,1.19,3,3,0,0,0,.16,1.21C184.58,192.54,186.94,190.92,187.62,189.51Z"/><path class="a5eb8124-2503-40de-9c58-fab1f7735cd3" d="M185.29,189.13a2.9,2.9,0,0,0-2,1.7A5.65,5.65,0,0,0,185.29,189.13Z"/><path class="6621c12c-1d4f-4fc3-b67c-daacfcc16063" d="M185,190.66a5.51,5.51,0,0,0,1.42-1.58,3,3,0,0,0-1.17.05,5.65,5.65,0,0,1-2,1.7,3,3,0,0,0-.26,1A8,8,0,0,0,185,190.66Z"/><path class="a46ea4a9-c144-4d85-95a6-b2b0decfb5a4" d="M186.25,195.07a3,3,0,0,0,2.55-1.87A6.88,6.88,0,0,1,186.25,195.07Z"/><path class="6621c12c-1d4f-4fc3-b67c-daacfcc16063" d="M185.14,195a3,3,0,0,0,1.1.11,6.88,6.88,0,0,0,2.55-1.87,3,3,0,0,0,.23-1A9.61,9.61,0,0,1,185.14,195Z"/><path class="1d5f9d68-ff16-4326-a293-3752e5667f13" d="M188.5,190.36a11.26,11.26,0,0,1-4.8,3.65,3,3,0,0,0,1.13.82h0a3.06,3.06,0,0,0,.32.13,9.61,9.61,0,0,0,3.88-2.75,2.66,2.66,0,0,0-.21-1.26A6,6,0,0,0,188.5,190.36Z"/><path class="3149c392-cc48-4f63-a63c-2959089bc4ed" d="M188.59,189.32c.57-.13,1-.13.75.57a2.7,2.7,0,0,1-.32.49,13.23,13.23,0,0,1-2.61,2.46,19,19,0,0,1-2.69,1.6,2.77,2.77,0,0,1-.9.3c-.45,0-.34-.62-.2-1-.56.52-.65,1.26-.12,1.54.32.17,1,.05,1.94-.39a19,19,0,0,0,2.56-1.47,8.42,8.42,0,0,0,2.26-2.09,3.85,3.85,0,0,0,.69-1.5C190,189.19,189.44,188.74,188.59,189.32Z"/><circle class="b96b4754-5641-4569-b9c1-c97fc9e65949" cx="185.07" cy="186.58" r="0.34" transform="translate(-66.46 110.45) rotate(-28.39)"/><circle class="e8295442-d26e-4ad6-9102-e1518572b617" cx="180.01" cy="193.05" r="0.17" transform="translate(-70.15 108.82) rotate(-28.39)"/><circle class="9ea54733-1764-4254-9f28-054523a85c60" cx="186.45" cy="196.7" r="0.24" transform="translate(-71.11 112.32) rotate(-28.39)"/><circle class="f64ca132-4df0-40c4-a241-510217cc78b3" cx="187.72" cy="188.42" r="0.1" transform="translate(-67.01 111.93) rotate(-28.39)"/><circle class="6621c12c-1d4f-4fc3-b67c-daacfcc16063" cx="225.57" cy="239.83" r="5.24" transform="translate(-86.91 136.11) rotate(-28.39)"/><path class="bd104d54-c7b9-4466-a039-3b0d3b5584d4" d="M149.1,159.66s-1.54-9.86,38.77-29.9c39.22-19.49,43.95,4.18,73.55,12.63,41.09,11.73,51.19,95.9-35.86,97.44"/><path class="04c84ab1-453a-41c4-b2eb-c7b7c456c1ca" d="M180.48,152.89c8.87,11.77,2.13,19.22-19.58,31-21.3,11.51-31.62,13.34-36.62-.58-3.85-10.7,2.4-22.62,19.18-31.69S173.64,143.81,180.48,152.89Z"/><path class="bebe4235-a892-46ec-b68a-11f3ba8e66cd" d="M179,149.39c8.89,11.75-.25,20.7-19.83,31.29-19.18,10.37-32.06,13.38-37-.55-3.83-10.71,2.53-22.7,19.51-31.87S172.16,140.32,179,149.39Z"/><path class="3e2a3296-d244-44d3-846c-7b2f562f5957" d="M89.73,172.68a8.41,8.41,0,0,1-4.45,3.71,6.41,6.41,0,0,1-3.34.15,5.71,5.71,0,0,1-2.33-1.89c-4.72-6.16-8.55-12-11.33-19.22a11,11,0,0,1-1-4.84c.15-1.65,1.05-3.55,2.68-3.86C72.25,146.31,90.25,171.7,89.73,172.68Z"/><path class="3e2a3296-d244-44d3-846c-7b2f562f5957" d="M186.2,121.15a8.41,8.41,0,0,0,5.49-1.84,6.41,6.41,0,0,0,1.88-2.76,5.71,5.71,0,0,0-.38-3c-2.76-7.25-5.69-13.57-10.39-19.74a11,11,0,0,0-3.6-3.37c-1.48-.74-3.58-1-4.69.25C173,92.42,185.1,121.08,186.2,121.15Z"/><path class="e8295442-d26e-4ad6-9102-e1518572b617" d="M180.82,100.93C196.42,130,184,163.52,155,179.12s-63.85,7.38-79.45-21.7a59.75,59.75,0,1,1,105.3-56.5Z"/><path class="3e969e2b-7a8a-4ba6-aa8f-db482855c78c" d="M161.22,114.12c10.51,19.58,19,35.45-20,56.4-40,21.48-47.55,5.07-58.06-14.51s7.27-28.4,28.83-40S150.71,94.54,161.22,114.12Z"/><circle class="e8295442-d26e-4ad6-9102-e1518572b617" cx="103.78" cy="157.92" r="4.18" transform="translate(-58.93 61.84) rotate(-26.13)"/><circle class="e8295442-d26e-4ad6-9102-e1518572b617" cx="137.08" cy="141.59" r="4.18" transform="translate(-48.34 74.83) rotate(-26.13)"/><path class="5bea86c1-a2b9-49e9-ae21-7149e4b25cfa" d="M95.78,147.78s3.34-2.51,5.93-.13"/><path class="5bea86c1-a2b9-49e9-ae21-7149e4b25cfa" d="M134.09,129.18s-4.09.86-4,4.38"/><path class="e8295442-d26e-4ad6-9102-e1518572b617" d="M112.5,166.08a43,43,0,0,0,27.43-15.17c.69-.82-.71-1.74-1.39-.92a41.22,41.22,0,0,1-26.35,14.45c-1.07.14-.75,1.78.31,1.64Z"/><rect class="ea57a95b-6423-4fb2-88b2-4b519b29693b" x="151.96" y="268.61" width="119.6" height="8.83" rx="4.41" ry="4.41" transform="translate(-94.76 113.55) rotate(-24.72)"/><path class="3e2a3296-d244-44d3-846c-7b2f562f5957" d="M235.77,170.65c-8.27,5.55-23.62,7.51-30.11,8.1l0-.15c-5.86-.47-10.56-6.93-10.56-6.93-2.69,13.2,9,14.43,9,14.43,11.8,2.07,26-3.33,29-7.05A13.13,13.13,0,0,0,235.77,170.65Z"/><path class="3e2a3296-d244-44d3-846c-7b2f562f5957" d="M206.51,155.17c7.07,3.06,21.43,17.16,21.43,17.16-8.47-4.6-20.68-8.49-31.35-7.67C197.16,163.08,203.4,156.27,206.51,155.17Z"/><path class="3e2a3296-d244-44d3-846c-7b2f562f5957" d="M227.94,172.33s-1.9-16.91-8.08-23.24a18.33,18.33,0,0,1,14.44-.58C229.76,154.32,227.94,172.33,227.94,172.33Z"/><path class="280efe69-bf36-4f03-aae7-8ea23b45bd99" d="M227.94,172.33s-14.36-14.1-21.43-17.16c4-3.93,11.57-7.1,13.35-6.09C226,155.42,227.94,172.33,227.94,172.33Z"/><path class="280efe69-bf36-4f03-aae7-8ea23b45bd99" d="M235.78,171.94s-19.93,9.68-32.86,6.6-6-14.33-6-14.33S226.55,163.5,235.78,171.94Z"/><path class="e8295442-d26e-4ad6-9102-e1518572b617" d="M303.29,159.83s-7.73,6.52-37.06,12.05c0,0-20,8.38-33.14,7.29,0,0-6.62-8.29-6.45-14.17C226.79,159.65,303.29,159.83,303.29,159.83Z"/><path class="11628f8b-816c-4a53-9e38-1d88fc501498" d="M320.17,155.27c-.69-.07-11.32.92-12.85-.08l-.87-18.65-1.55-3c1.82-3,13.73-5.68,19.29-5.55,2.41.06,6.48,1.15,8.28,2.73,1.15,1,4.44,3.42,5,6.83a13.72,13.72,0,0,1-2,10.31,9.83,9.83,0,0,1-4.12,2.84,12.28,12.28,0,0,1-4.54.36,3.18,3.18,0,0,1-.79,2.61,4.43,4.43,0,0,1-2.83,1.43A13.64,13.64,0,0,1,320.17,155.27Z"/><path class="e8295442-d26e-4ad6-9102-e1518572b617" d="M226.13,146.6c3.67-2.06,15.69-7.68,33.19-9.41,12.37-5.84,29.94-11.5,42.82-7.93,5.55,5.07,2.53,26.37,1.33,30.3-5.32,2-20.78,2.63-35,4.61-16.52,5.08-28.11,6.77-37.35,6.37-4-1.07-5.25-8.9-5.78-12.48C224.87,155.25,223.5,148.08,226.13,146.6Z"/><path class="ea57a95b-6423-4fb2-88b2-4b519b29693b" d="M303.29,159.83c-2.19-1.71-2.82-28.51-.49-30.58,2.74-2.44,5.22-1.06,6.58-.4,2.94,1.41,2.29,29.55.23,31.48C308.49,161.39,304.65,160.89,303.29,159.83Z"/></g></svg>