<svg id="fa71097c-f5b5-4d89-9673-eec0a3bd5520" data-name="圖層 1" xmlns="http://www.w3.org/2000/svg" xmlns:xlink="http://www.w3.org/1999/xlink" viewBox="0 0 641 1152"><defs><style>.\32 3f97e4b-30a5-4210-8d1d-70869006cafa,.a5542464-ab0e-4423-bcff-1917d7e8545c,.d19d0f03-7f24-4d10-ae50-ec2ea93eeb9f,.dab48291-8bba-4458-8753-aef8f890ac7d,.e577fc5e-481f-49a6-8245-fb4c8b42834d{fill:none;}.fa554056-cfb6-4d74-8f95-2f81bba191bd{clip-path:url(#67a90bf5-7d8a-4ca2-9bdb-a901de353e57);}.\38 e29330e-48d6-4c47-85a4-b5c1619a1d43{opacity:0.26;}.\32 3f97e4b-30a5-4210-8d1d-70869006cafa,.a5542464-ab0e-4423-bcff-1917d7e8545c,.d19d0f03-7f24-4d10-ae50-ec2ea93eeb9f,.dab48291-8bba-4458-8753-aef8f890ac7d{stroke:#fff;stroke-miterlimit:10;}.\32 3f97e4b-30a5-4210-8d1d-70869006cafa,.dab48291-8bba-4458-8753-aef8f890ac7d{stroke-width:3px;}.\32 3f97e4b-30a5-4210-8d1d-70869006cafa{stroke-dasharray:11.77 11.77;}.d19d0f03-7f24-4d10-ae50-ec2ea93eeb9f{opacity:0.17;}</style><clipPath id="67a90bf5-7d8a-4ca2-9bdb-a901de353e57"><rect class="e577fc5e-481f-49a6-8245-fb4c8b42834d" width="641" height="1147"/></clipPath></defs><title>about</title><g class="fa554056-cfb6-4d74-8f95-2f81bba191bd"><g class="8e29330e-48d6-4c47-85a4-b5c1619a1d43"><line class="a5542464-ab0e-4423-bcff-1917d7e8545c" x1="-328.02" y1="868.72" x2="853.48" y2="129.3"/><line class="a5542464-ab0e-4423-bcff-1917d7e8545c" x1="-288" y1="932.66" x2="893.5" y2="193.24"/><line class="a5542464-ab0e-4423-bcff-1917d7e8545c" x1="-247.98" y1="996.6" x2="933.51" y2="257.18"/><line class="a5542464-ab0e-4423-bcff-1917d7e8545c" x1="-207.97" y1="1060.54" x2="973.53" y2="321.12"/><line class="a5542464-ab0e-4423-bcff-1917d7e8545c" x1="-167.95" y1="1124.48" x2="1013.54" y2="385.06"/><line class="a5542464-ab0e-4423-bcff-1917d7e8545c" x1="-127.94" y1="1188.42" x2="1053.56" y2="449"/><line class="a5542464-ab0e-4423-bcff-1917d7e8545c" x1="-87.92" y1="1252.36" x2="1093.57" y2="512.94"/></g><line class="dab48291-8bba-4458-8753-aef8f890ac7d" x1="56.32" y1="619.46" x2="59.5" y2="624.54"/><line class="23f97e4b-30a5-4210-8d1d-70869006cafa" x1="65.75" y1="634.52" x2="349.75" y2="1088.33"/><line class="dab48291-8bba-4458-8753-aef8f890ac7d" x1="352.87" y1="1093.31" x2="356.06" y2="1098.4"/><path class="d19d0f03-7f24-4d10-ae50-ec2ea93eeb9f" d="M62.09,1279.48l33.8-84.3s71.24-10.22,98.59-26.41,181.07-196.9,181.07-196.9l77.84-12.5s13.18-1.75,25.31-3.76,46.36-27.16,63.59-29.58,65.43-43.74,65.43-43.74,35.41-36.09,40.11-58.53,20.32-54.51,27.37-58.92,15.45-15.24,32.06-20.06,36-12.32,78.29-14.64,48.69-6.33,58.89-7.14,21-2,42.84-15.67l55.79-34.91s29-29.28,43.72-38.51-19.42-11.07,45.27-24.62,65.65-17.73,72.21-18.65,26.38-7.75,26.38-7.75l13.47-8.43,12.53,20-1094.55,685Z"/></g></svg>