<svg id="81d348de-940a-450a-ad73-7c7b5d47cd5e" data-name="圖層 1" xmlns="http://www.w3.org/2000/svg" viewBox="0 0 1725.1 604.62"><defs><style>.\35 044d17b-8e42-4868-960e-85c6b4815ac7,.\38 f62d481-924c-4ca3-8d1a-106a7be488fc,.\39 1631cc8-3c54-48fc-9911-d4200f03fcca{fill:#ff5559;}.\38 f62d481-924c-4ca3-8d1a-106a7be488fc{font-size:73.78px;font-family:NotoSansCJKtc-Black-B5pc-H, Noto Sans CJK TC;}.f2c464c2-611f-4d4a-86bc-5014796362da{opacity:0.36;}.\38 f38efb7-0088-4a12-8e01-5fbef3478096,.\39 c9c26ea-42f9-446c-89fd-c906f8f5ddaf{fill:none;stroke:#ff5559;}.\38 f38efb7-0088-4a12-8e01-5fbef3478096,.\39 c9c26ea-42f9-446c-89fd-c906f8f5ddaf,.e8600ba6-bc08-40ee-9e73-90c6902257f9{stroke-miterlimit:10;}.\38 f38efb7-0088-4a12-8e01-5fbef3478096{stroke-dasharray:5;}.\39 c9c26ea-42f9-446c-89fd-c906f8f5ddaf,.e8600ba6-bc08-40ee-9e73-90c6902257f9{stroke-width:2px;}.\33 e8ac28a-c08f-46c5-a469-fdc6ae9112d8,.\39 1631cc8-3c54-48fc-9911-d4200f03fcca{font-size:19.46px;font-family:NotoSansCJKtc-Bold-B5pc-H, Noto Sans CJK TC;font-weight:700;letter-spacing:0.05em;}.e8600ba6-bc08-40ee-9e73-90c6902257f9{fill:#f2f2f2;stroke:#08004e;}.\33 e8ac28a-c08f-46c5-a469-fdc6ae9112d8,.\35 e897d75-01bc-4e91-8474-cd5f57a2561b{fill:#fff;}</style></defs><title>about</title><rect class="5044d17b-8e42-4868-960e-85c6b4815ac7" x="663.42" y="112.06" width="53.69" height="12.99"/><rect class="5044d17b-8e42-4868-960e-85c6b4815ac7" x="663.42" y="440.27" width="53.69" height="12.99"/><rect class="5044d17b-8e42-4868-960e-85c6b4815ac7" x="275.46" y="364.93" width="53.69" height="12.99"/><text class="8f62d481-924c-4ca3-8d1a-106a7be488fc" transform="translate(260.52 64.93)">4F</text><text class="8f62d481-924c-4ca3-8d1a-106a7be488fc" transform="translate(883.22 64.93)">5F</text><g class="f2c464c2-611f-4d4a-86bc-5014796362da"><polygon class="8f38efb7-0088-4a12-8e01-5fbef3478096" points="557.93 487.71 557.93 604.12 845.3 604.12 845.3 389.73 700.89 389.73 700.89 425.46 647.46 425.46 647.46 487.71 557.93 487.71"/><polygon class="8f38efb7-0088-4a12-8e01-5fbef3478096" points="0.5 389.73 0.5 604.12 552.15 604.12 552.15 487.71 494.38 487.71 494.38 416.24 477.06 416.24 477.06 389.73 0.5 389.73"/><polygon class="8f38efb7-0088-4a12-8e01-5fbef3478096" points="211.34 314.81 0.5 314.81 0.5 101.57 557.93 101.57 557.93 215.68 500.16 215.68 500.16 314.81 361.53 314.81 361.53 276.77 323.98 276.77 323.98 229.51 247.44 229.51 247.44 277.93 211.34 277.93 211.34 314.81"/><polygon class="8f38efb7-0088-4a12-8e01-5fbef3478096" points="845.3 101.57 557.93 101.57 557.93 215.68 620.02 215.68 620.02 277.93 700.89 277.93 700.89 314.81 845.3 314.81 845.3 101.57"/><polygon class="8f38efb7-0088-4a12-8e01-5fbef3478096" points="1159.39 217.99 1159.39 101.57 872.01 101.57 872.01 315.96 1016.42 315.96 1016.42 280.23 1069.85 280.23 1069.85 217.99 1159.39 217.99"/><polygon class="8f38efb7-0088-4a12-8e01-5fbef3478096" points="1724.6 315.96 1724.6 101.57 1172.95 101.57 1172.95 217.99 1230.71 217.99 1230.71 289.45 1248.04 289.45 1248.04 315.96 1724.6 315.96"/><polygon class="8f38efb7-0088-4a12-8e01-5fbef3478096" points="1513.76 390.88 1724.6 390.88 1724.6 604.12 1167.17 604.12 1167.17 490.01 1224.93 490.01 1224.93 390.88 1363.57 390.88 1363.57 428.92 1401.12 428.92 1401.12 476.18 1477.65 476.18 1477.65 427.77 1513.76 427.77 1513.76 390.88"/><polygon class="8f38efb7-0088-4a12-8e01-5fbef3478096" points="872.01 604.12 1159.39 604.12 1159.39 490.01 1097.29 490.01 1097.29 427.77 1016.42 427.77 1016.42 390.88 872.01 390.88 872.01 604.12"/></g><polygon class="9c9c26ea-42f9-446c-89fd-c906f8f5ddaf" points="651.4 429.02 651.4 530.33 851 530.33 851 343.77 750.7 343.77 750.7 374.86 713.59 374.86 713.59 429.02 651.4 429.02"/><rect class="9c9c26ea-42f9-446c-89fd-c906f8f5ddaf" x="260.24" y="343.77" width="198.36" height="186.56"/><polygon class="9c9c26ea-42f9-446c-89fd-c906f8f5ddaf" points="647.39 429.02 607.27 429.02 607.27 366.84 595.23 366.84 595.23 343.77 462.6 343.77 462.6 530.33 647.39 530.33 647.39 429.02"/><polygon class="9c9c26ea-42f9-446c-89fd-c906f8f5ddaf" points="260.24 93.01 260.24 278.57 406.68 278.57 406.68 246.47 431.75 246.47 431.75 204.35 458.6 204.35 458.6 93.01 260.24 93.01"/><polygon class="9c9c26ea-42f9-446c-89fd-c906f8f5ddaf" points="462.6 93.01 462.6 204.35 488.91 204.35 488.91 245.47 514.99 245.47 514.99 278.57 611.28 278.57 611.28 192.31 651.4 192.31 651.4 93.01 462.6 93.01"/><polygon class="9c9c26ea-42f9-446c-89fd-c906f8f5ddaf" points="855 93.01 655.4 93.01 655.4 192.31 698.53 192.31 698.53 246.47 754.7 246.47 754.7 278.57 855 278.57 855 93.01"/><text class="91631cc8-3c54-48fc-9911-d4200f03fcca" transform="translate(663.41 481.36)">409</text><rect class="5044d17b-8e42-4868-960e-85c6b4815ac7" x="663.42" y="112.06" width="53.69" height="12.99"/><rect class="5044d17b-8e42-4868-960e-85c6b4815ac7" x="663.42" y="440.27" width="53.69" height="12.99"/><rect class="5044d17b-8e42-4868-960e-85c6b4815ac7" x="275.46" y="364.93" width="53.69" height="12.99"/><text class="91631cc8-3c54-48fc-9911-d4200f03fcca" transform="translate(663.22 153.76)">404</text><rect class="5044d17b-8e42-4868-960e-85c6b4815ac7" x="478.42" y="112.06" width="53.69" height="12.99"/><text class="91631cc8-3c54-48fc-9911-d4200f03fcca" transform="translate(478.22 153.76)">405</text><text class="91631cc8-3c54-48fc-9911-d4200f03fcca" transform="translate(275.54 403.81)">407</text><rect class="5044d17b-8e42-4868-960e-85c6b4815ac7" x="478.46" y="364.93" width="53.69" height="12.99"/><text class="91631cc8-3c54-48fc-9911-d4200f03fcca" transform="translate(478.54 403.81)">408</text><rect class="5044d17b-8e42-4868-960e-85c6b4815ac7" x="275.42" y="112.06" width="53.69" height="12.99"/><text class="91631cc8-3c54-48fc-9911-d4200f03fcca" transform="translate(275.22 153.76)">406</text><rect class="5044d17b-8e42-4868-960e-85c6b4815ac7" x="1286.42" y="111.06" width="53.69" height="12.99"/><rect class="5044d17b-8e42-4868-960e-85c6b4815ac7" x="1286.42" y="439.27" width="53.69" height="12.99"/><rect class="5044d17b-8e42-4868-960e-85c6b4815ac7" x="898.46" y="363.93" width="53.69" height="12.99"/><polygon class="9c9c26ea-42f9-446c-89fd-c906f8f5ddaf" points="1274.4 428.02 1274.4 529.33 1474 529.33 1474 342.77 1373.7 342.77 1373.7 373.86 1336.59 373.86 1336.59 428.02 1274.4 428.02"/><rect class="9c9c26ea-42f9-446c-89fd-c906f8f5ddaf" x="883.24" y="342.77" width="198.36" height="186.56"/><polygon class="9c9c26ea-42f9-446c-89fd-c906f8f5ddaf" points="1270.39 428.02 1230.27 428.02 1230.27 365.84 1218.23 365.84 1218.23 342.77 1085.6 342.77 1085.6 529.33 1270.39 529.33 1270.39 428.02"/><polygon class="9c9c26ea-42f9-446c-89fd-c906f8f5ddaf" points="883.24 92.01 883.24 277.57 1029.68 277.57 1029.68 245.47 1054.75 245.47 1054.75 203.35 1081.6 203.35 1081.6 92.01 883.24 92.01"/><polygon class="9c9c26ea-42f9-446c-89fd-c906f8f5ddaf" points="1085.6 92.01 1085.6 203.35 1111.91 203.35 1111.91 244.47 1137.99 244.47 1137.99 277.57 1234.28 277.57 1234.28 191.31 1274.4 191.31 1274.4 92.01 1085.6 92.01"/><polygon class="9c9c26ea-42f9-446c-89fd-c906f8f5ddaf" points="1478 92.01 1278.4 92.01 1278.4 191.31 1321.53 191.31 1321.53 245.47 1377.7 245.47 1377.7 277.57 1478 277.57 1478 92.01"/><text class="91631cc8-3c54-48fc-9911-d4200f03fcca" transform="translate(1286.41 480.36)">509</text><rect class="5044d17b-8e42-4868-960e-85c6b4815ac7" x="1286.42" y="111.06" width="53.69" height="12.99"/><rect class="5044d17b-8e42-4868-960e-85c6b4815ac7" x="1286.42" y="439.27" width="53.69" height="12.99"/><rect class="5044d17b-8e42-4868-960e-85c6b4815ac7" x="898.46" y="363.93" width="53.69" height="12.99"/><text class="91631cc8-3c54-48fc-9911-d4200f03fcca" transform="translate(1286.22 152.76)">504</text><rect class="5044d17b-8e42-4868-960e-85c6b4815ac7" x="1101.42" y="111.06" width="53.69" height="12.99"/><text class="91631cc8-3c54-48fc-9911-d4200f03fcca" transform="translate(1101.22 152.76)">505</text><text class="91631cc8-3c54-48fc-9911-d4200f03fcca" transform="translate(898.54 402.81)">507</text><rect class="5044d17b-8e42-4868-960e-85c6b4815ac7" x="1101.46" y="363.93" width="53.69" height="12.99"/><text class="91631cc8-3c54-48fc-9911-d4200f03fcca" transform="translate(1101.54 402.81)">508</text><rect class="5044d17b-8e42-4868-960e-85c6b4815ac7" x="898.42" y="111.06" width="53.69" height="12.99"/><text class="91631cc8-3c54-48fc-9911-d4200f03fcca" transform="translate(898.22 152.76)">506</text><polygon class="5044d17b-8e42-4868-960e-85c6b4815ac7" points="260.24 92.01 260.24 277.57 406.68 277.57 406.68 245.47 431.75 245.47 431.75 203.35 458.6 203.35 458.6 92.01 260.24 92.01"/><polygon class="e8600ba6-bc08-40ee-9e73-90c6902257f9" points="369.77 162.75 373.05 202.92 385.35 194.72 391.09 207.02 397.64 203.74 391.09 192.26 400.92 184.89 369.77 162.75"/><rect class="5e897d75-01bc-4e91-8474-cd5f57a2561b" x="275.42" y="112.06" width="53.69" height="12.99"/><text class="3e8ac28a-c08f-46c5-a469-fdc6ae9112d8" transform="translate(275.22 153.76)">406</text></svg>