<svg id="d6a88726-29c5-47c4-9525-7011672fea54" data-name="圖層 1" xmlns="http://www.w3.org/2000/svg" viewBox="0 0 164.4 317.84"><defs><style>.\32 52b1b8e-59cb-4bd3-af5c-55e2f7874f4b{fill:#08004e;}.f235264c-ea04-468d-a8b1-94585d8ff418{fill:#ff5559;}.b7844f57-5023-4815-8a31-a190b94c66ed{fill:#ffecde;}.a2dd75ee-30b2-4af9-8bb4-551ff53d8a4b{fill:none;stroke:#fff;stroke-miterlimit:10;stroke-width:8px;}</style></defs><title>about</title><rect class="252b1b8e-59cb-4bd3-af5c-55e2f7874f4b" x="38.59" y="121.34" width="89.15" height="114.3"/><rect class="f235264c-ea04-468d-a8b1-94585d8ff418" x="38.59" y="247.38" width="89.15" height="70.46"/><rect class="252b1b8e-59cb-4bd3-af5c-55e2f7874f4b" x="141.07" y="121.34" width="23.33" height="86.9"/><rect class="252b1b8e-59cb-4bd3-af5c-55e2f7874f4b" x="1.93" y="121.34" width="23.33" height="86.9"/><rect class="b7844f57-5023-4815-8a31-a190b94c66ed" x="38.59" y="19.57" width="89.15" height="89.24"/><rect class="252b1b8e-59cb-4bd3-af5c-55e2f7874f4b" x="66.33" y="58.76" width="6.42" height="6.73"/><rect class="252b1b8e-59cb-4bd3-af5c-55e2f7874f4b" x="92.87" y="58.76" width="6.42" height="6.73"/><polygon class="252b1b8e-59cb-4bd3-af5c-55e2f7874f4b" points="29.75 14.87 22.7 71.24 0 61.84 32.88 93.94 47.75 61.84 57.15 31.31 97.86 46.19 94.72 33.66 107.25 33.66 117.43 38.36 126.04 90.03 145.61 71.24 137 71.24 133.87 3.13 56.37 0 29.75 14.87"/><rect class="252b1b8e-59cb-4bd3-af5c-55e2f7874f4b" x="70.6" y="80.36" width="28.42" height="4.7" transform="translate(-18.75 25.19) rotate(-15.23)"/><rect class="252b1b8e-59cb-4bd3-af5c-55e2f7874f4b" x="55.37" y="49.09" width="16.56" height="3.05" transform="translate(9.58 -10.13) rotate(9.83)"/><rect class="252b1b8e-59cb-4bd3-af5c-55e2f7874f4b" x="89.03" y="49.09" width="16.56" height="3.05" transform="translate(-8.36 21.19) rotate(-11.92)"/><rect class="f235264c-ea04-468d-a8b1-94585d8ff418" x="38.59" y="242.68" width="89.15" height="43.84"/><polyline class="a2dd75ee-30b2-4af9-8bb4-551ff53d8a4b" points="55.87 118.3 83.64 150.93 109.87 118.3"/></svg>