<svg xmlns="http://www.w3.org/2000/svg" xmlns:xlink="http://www.w3.org/1999/xlink" viewBox="0 0 488 415.33"><defs><style>.cls-1{fill:#ff6c4d;}.cls-2{fill:#fff;}.cls-3{fill:#14114b;}.cls-4{fill:url(#未命名漸層_5);}.cls-5{fill:#f4432d;}.cls-6,.cls-7,.cls-8{fill:none;stroke-miterlimit:10;}.cls-6{stroke:#ff6c4d;stroke-width:7px;}.cls-7,.cls-8{stroke:#14114b;}.cls-7{stroke-width:3px;}.cls-8{stroke-width:6px;}</style><linearGradient id="未命名漸層_5" x1="47.22" y1="270.14" x2="60.7" y2="272.07" gradientTransform="translate(51.9 -12.82) rotate(10.46)" gradientUnits="userSpaceOnUse"><stop offset="0" stop-color="#ff6c4d"/><stop offset="1" stop-color="#ff8b6b"/></linearGradient></defs><title>activity</title><g id="圖層_6" data-name="圖層 6"><path class="cls-1" d="M105.33,132.07c18,.82,62,44,73.34,87.34s38,94-42,130.66S12,289.41,40,246.74,46.67,129.41,105.33,132.07Z"/><circle class="cls-2" cx="105.5" cy="186.54" r="23.36"/><ellipse class="cls-3" cx="106.76" cy="194.4" rx="10.02" ry="9.06" transform="translate(-39.21 27.42) rotate(-12.39)"/><path class="cls-3" d="M140,245.09s-14.16-20.61-31.09-17.33-28.2,17.33-28.2,17.33,24-3.66,34.62,0S140,245.09,140,245.09Z"/><path class="cls-4" d="M50,261.89S133.39,282,141.71,271s13.94,35-95.89,13.42"/><path class="cls-1" d="M177.54,241.78s61.18-41.82,58.93-53.53,30.5,11.32-46.91,69.22"/><path class="cls-1" d="M44,322.1c.78,1.33,25,65,33.05,65s3.71-39,3.71-39Z"/><path class="cls-5" d="M162.91,335S165,379.57,171,379.57s21.43-78,21.17-91.5S162.91,335,162.91,335Z"/><path class="cls-6" d="M97,132s9.53-35.44,38.52-32.94,54.82,30.37,56.65,32.94"/><circle class="cls-1" cx="194.67" cy="136.07" r="10.67"/><rect class="cls-3" x="96.87" y="268.58" width="11.06" height="4.03" transform="translate(-5.01 1.95) rotate(-1.06)"/><rect class="cls-3" x="97.29" y="291.06" width="11.06" height="4.03" transform="translate(-5.43 1.96) rotate(-1.06)"/><circle class="cls-2" cx="102.07" cy="281.06" r="11.06"/><polyline class="cls-7" points="102.23 289.54 102.06 280.48 95.4 285.13"/><rect class="cls-3" x="219.47" y="133.86" width="16.67" height="112.67" transform="translate(11.65 -13.14) rotate(3.39)"/><rect class="cls-3" x="128.48" y="31.61" width="218.98" height="102.67" transform="translate(5.32 -13.93) rotate(3.39)"/><path class="cls-1" d="M318.42,343.21c20.07,48.5,17.5,40.83,21.66,41.57s12-28.86,13.68-33.86C346.19,351.06,328.4,346.16,318.42,343.21Z"/><path class="cls-1" d="M451.5,287c-2.25-32.39-12.05-59.57-35.24-71.78-31.89-16.79-59.78-1.79-94.88,3.41-14.07,2.09-27.71,96.44-4.28,122.19,0,0,5.18,4.4,5.3,4.71,9.54,2.92,23.46,12.06,30.7,11.9.83-2.52,14.76,1,30.55,2.06,14.53.06,30.64-2.24,41.12-12.26C444.93,328,452.44,317.63,451.5,287Z"/><path class="cls-5" d="M448,319.12c-15.17,15.43-8.55,5.9-29.58,25.13,0,0,9.19,24.44,17.46,32.15C438.78,379.1,451.42,364.6,448,319.12Z"/><circle class="cls-2" cx="345.13" cy="255.88" r="17.61" transform="translate(70.12 585.98) rotate(-86.76)"/><path class="cls-3" d="M344.43,271.52a7.07,7.07,0,1,0-8.38-5.8A7.22,7.22,0,0,0,344.43,271.52Z"/><path class="cls-2" d="M393.32,269a16.76,16.76,0,1,0-15.78-17.68A16.76,16.76,0,0,0,393.32,269Z"/><path class="cls-3" d="M394.92,268c4.33-.7,7.34-4.44,6.71-8.37s-4.66-6.53-9-5.83-7.34,4.44-6.71,8.36S390.59,268.64,394.92,268Z"/><polyline class="cls-8" points="408.08 304.55 397.88 298.25 388.08 305.07 378.01 298.72 370.31 304.06 360.67 299.4 351.76 308.01"/><path class="cls-3" d="M336.84,274.16s-21,12.51-11.47,22.91S336.84,274.16,336.84,274.16Z"/><path class="cls-3" d="M418.72,279.63c8.85-4-.24-11.82-9.52-16.43C409.2,263.2,409.86,283.67,418.72,279.63Z"/><path class="cls-1" d="M318.5,214.34s14.32-6.05,14.12-14.94-30.37-12.71-33.45-4.5.24,17.31,7.67,18.78S318.5,214.34,318.5,214.34Z"/><path class="cls-1" d="M427.7,204.08s-10.44-7-6.83-14.41,18.84.08,22.19,5.22S445.34,207.63,427.7,204.08Z"/><path class="cls-5" d="M85,172.15,128.86,177s-.49-14.58-25.18-14.58S85,172.15,85,172.15Z"/><rect class="cls-2" x="228.1" y="41.08" width="13.63" height="83.37" transform="translate(149.96 -151.37) rotate(50.65)"/><rect class="cls-2" x="228.1" y="41.08" width="13.63" height="83.37" transform="translate(469.05 -2.19) rotate(140.65)"/><path class="cls-5" d="M178.67,219.41C168.63,181,133,142.79,112.45,134c20.08,15.36,45,46.35,53.14,77.42,11.33,43.33,38,94-42,130.66-23.52,10.78-44,10-60.44,2.38,18.12,14.23,43.29,19.51,73.52,5.65C216.67,313.41,190,262.74,178.67,219.41Z"/><path class="cls-5" d="M451.5,287c-2.15-30.85-11.15-57-32-69.93,14.53,14.24,21.2,36.86,23,62.84.94,30.62-6.57,40.95-26.73,60.23-10.48,10-26.59,12.32-41.12,12.25-15.79-1-30.54-10.3-31.37-7.77-5.66.12-12.57,1.44-21.93-1.24.49,1.35,17.06,10.34,24.3,10.18,5.17,2.91,22.24,4.9,38,5.93,14.53.06,30.64-2.24,41.12-12.26C444.93,328,452.44,317.63,451.5,287Z"/></g></svg>