<svg xmlns="http://www.w3.org/2000/svg" viewBox="0 0 157 153"><defs><style>.a068b47c-bc51-4b55-ac0f-6608afd7c33e,.e40b98cd-8fa3-4735-b2cf-07aa49ad9b1b,.e693be4a-ca98-47cb-aae8-c8b927d6d767,.faa37a1f-f99e-4786-909f-a332cb161b1a{fill:none;}.a068b47c-bc51-4b55-ac0f-6608afd7c33e,.a637c5b0-b2d5-46bf-80c6-2996a4698a56,.aa5d9e3e-a610-42d3-a32a-92125fa6f02b,.ae56a3d8-f935-42d2-a07a-862e5c5b1923,.e2c36b27-ea41-454a-88d8-4e49e18d58ed,.e40b98cd-8fa3-4735-b2cf-07aa49ad9b1b,.e693be4a-ca98-47cb-aae8-c8b927d6d767,.e98a2afa-fc23-40e3-9b2d-63bb0e4bec73,.faa37a1f-f99e-4786-909f-a332cb161b1a{stroke:#14104b;stroke-miterlimit:10;}.a637c5b0-b2d5-46bf-80c6-2996a4698a56{fill:#fbb03b;}.a637c5b0-b2d5-46bf-80c6-2996a4698a56,.faa37a1f-f99e-4786-909f-a332cb161b1a{stroke-width:2px;}.aa5d9e3e-a610-42d3-a32a-92125fa6f02b,.e2c36b27-ea41-454a-88d8-4e49e18d58ed{fill:#ff6b4d;}.a068b47c-bc51-4b55-ac0f-6608afd7c33e,.e2c36b27-ea41-454a-88d8-4e49e18d58ed{stroke-width:3px;}.ae56a3d8-f935-42d2-a07a-862e5c5b1923,.e98a2afa-fc23-40e3-9b2d-63bb0e4bec73{fill:#fff;}.ae56a3d8-f935-42d2-a07a-862e5c5b1923{stroke-width:4px;}.b289020a-73ab-4114-946e-9f58d6f26a37{fill:#14104b;}.e40b98cd-8fa3-4735-b2cf-07aa49ad9b1b{stroke-width:6px;}</style></defs><title>course</title><g id="f2aac4ee-4041-425b-9d77-a6ea5b107444" data-name="圖層 3"><path class="e693be4a-ca98-47cb-aae8-c8b927d6d767" d="M82,35s-1,5-6,3-5,4,1,6,13,14-2,8-23-4-14,0"/></g><g id="ae365af6-a9af-421f-8d9c-f0c531d1b795" data-name="圖層 2"><path class="a637c5b0-b2d5-46bf-80c6-2996a4698a56" d="M26,43l7,44L67,69S32,42,26,43Z"/><path class="aa5d9e3e-a610-42d3-a32a-92125fa6f02b" d="M28,37S69,57,73,65,94,29,94,29,35,36,28,37Z"/><path class="e2c36b27-ea41-454a-88d8-4e49e18d58ed" d="M32,33S73,53,77,61,98,25,98,25,39,32,32,33Z"/><path class="a637c5b0-b2d5-46bf-80c6-2996a4698a56" d="M101,26S88,56,86,63s59-20,59-20-1-22-3-22S101,26,101,26Z"/><path class="e98a2afa-fc23-40e3-9b2d-63bb0e4bec73" d="M35,93,5,126l35-10S60,93,89,98c0,0,3-25,26-27s34,10,34,10l-3-30Z"/><path class="ae56a3d8-f935-42d2-a07a-862e5c5b1923" d="M38,90,8,123l35-10S63,90,92,95c0,0,3-25,26-27s34,10,34,10l-3-30Z"/><path class="a637c5b0-b2d5-46bf-80c6-2996a4698a56" d="M42,120l3,15,49-7s-9-23-3-24S68,94,42,120Z"/><path class="aa5d9e3e-a610-42d3-a32a-92125fa6f02b" d="M100,126l50-8-1-27s-18-23-41-6S100,126,100,126Z"/><circle class="faa37a1f-f99e-4786-909f-a332cb161b1a" cx="116.5" cy="34.5" r="3.5"/><circle class="b289020a-73ab-4114-946e-9f58d6f26a37" cx="130.5" cy="35.5" r="3.5"/><circle class="faa37a1f-f99e-4786-909f-a332cb161b1a" cx="108.5" cy="51.5" r="2.5"/><path class="b289020a-73ab-4114-946e-9f58d6f26a37" d="M59,121.5,77.41,110s5.75,5.75-4.61,11.5C61.56,127.75,59,121.5,59,121.5Z"/><path class="e40b98cd-8fa3-4735-b2cf-07aa49ad9b1b" d="M112,119s-1-26,12-28,25,15,13,18-14-10-10-9,4,2,4,2"/><path class="a068b47c-bc51-4b55-ac0f-6608afd7c33e" d="M81.55,31s-1.22,6.12-7.34,3.67-6.13,4.9,1.22,7.35S91.35,59.17,73,51.82s-28.17-4.9-17.15,0"/></g></svg>