<svg id="圖層_1" data-name="圖層 1" xmlns="http://www.w3.org/2000/svg" viewBox="0 0 174.82 171.3"><defs><style>.cls-1{fill:#f9fcfc;}.cls-2{fill:#c4e6e0;}</style></defs><title>footerlogo</title><g id="_4NLYTV" data-name="4NLYTV"><path class="cls-1" d="M99.68,46c-3,0-6-.11-9,0-1.76.08-2.19-.53-2.13-2.2.12-3.33,0-3.34,3.37-3.34h17.68c.43,0,.87,0,1.31,0,.75,0,1.26-.14,1.24-1.06s-.53-.91-1.17-.9h-1.53c-5,0-10-.1-15.06,0-2.22.06-1.73-1.32-1.79-2.56s-.12-2.37,1.82-2.32c5.31.12,10.62.05,15.93,0,.78,0,1.87.38,1.8-1.13-.07-1.34-1.07-1-1.76-1-6.11,0-12.23-.06-18.34,0-1.61,0-2.31-.3-2.22-2.12.2-3.72-.5-3.21,3.26-3.24,2.89,0,5.79,0,8.85,0-.33-1.43-1.48-2.13-2.13-3.46,2.43-.52,4.74-1,7-1.51,1.33-.32,1.81.69,2.07,1.47,1.11,3.32,3.51,4,6.58,3.51a2.82,2.82,0,0,1,.87,0c3.79.64,6.69-.42,8.15-4.24.36-.92,1-.84,1.79-.66l6.15,1.42c-.2,1.3-1.23,2.05-1.86,3.48,3.44,0,6.66,0,9.88,0,1,0,2.47-.56,2.81.42a9.61,9.61,0,0,1,.1,4.31c-.13,1-1.2.57-1.85.57-5.89,0-11.79,0-17.68,0-.51,0-1,0-1.53,0-.74,0-1.47-.08-1.48,1s.73,1.06,1.47,1.06h16.16c2.52,0,3.67,1.78,2.72,4.17-.39,1-1.24.6-1.88.61-5.39,0-10.77,0-16.15,0-.37,0-.73,0-1.09,0-.78-.06-1.24.16-1.22,1.07s.57.88,1.18.88l6.33,0c5.16,0,10.33,0,15.49,0,1.34,0,1.92.25,1.9,1.78,0,3.74.06,3.73-3.61,3.74-2.32,0-4.65,0-7,.09-.1,0-.19.17-.44.41a30.4,30.4,0,0,0,10.6,5.24c2,.59,2,1.25.88,2.68a30,30,0,0,0-1.79,2.74c-1.64,2.51-1.62,2.47-4.39,1.23-1.31-.58-2.81-2.33-3.73-1.67s-.05,2.89-.41,4.33c-.7,2.83,1.36,3.49,3.14,4.52,3.63,2.09,3.6,2.1.48,4.84-.74.65-1.72,1.07-2.27,2.32,2,.18,4,.37,5.9.49,1,.06,1.35.38.93,1.34a4.16,4.16,0,0,0-.17.63c-1.49,5.34-1.49,5.37-7,4.62-6.63-.9-13-2.66-18.42-6.74a8.21,8.21,0,0,1-2.17-1.8c-2.86-4.58-7.39-3-11.38-3.05-1.66,0-.71,1.7-.9,2.62s.24,1.48,1.36,1.33c2.52-.32,5.06-.51,7.57-.88,1.49-.22,2.24-.11,2.19,1.76-.11,4.21,0,4.34-4,4.85-6,.74-12,1.25-18,1.91-1.13.12-1.61-.25-1.66-1.35,0-.43-.19-.86-.2-1.29,0-1.3-1-2.79-.29-3.8S93.22,73,94.43,73c1-.07,1.19-.53,1.18-1.39q0-6.1,0-12.22c0-1.11-.23-1.37-1.38-.92-3.86,1.49-3.88,1.44-5.72-2.39-1.67-3.44-1.65-3.41,1.94-4.69C93.78,50.16,97,48.76,99.68,46Zm16.56,17.13h10.47c.8,0,1.62.11,1.56-1.17s-.91-.93-1.55-.94q-10.57,0-21.16,0c-.68,0-1.51-.24-1.58.93s.74,1.19,1.57,1.19ZM116,55h0c-3.48,0-7,0-10.45,0-.78,0-1.65-.19-1.61,1.11,0,1.09.69,1.06,1.46,1.06h21.34c.71,0,1.46.12,1.5-1S127.5,55,126.69,55Zm-9.2-5.08h5.87c1.31,0,1-.85.62-1.46-.77-1.38-.2-2.06,1.17-2.31C111.05,45.48,108.23,46.05,106.82,49.94Zm21.63,0c-2.1-1.91-3-4.58-6.09-3.86-.63.15-2-.5-1.71.76.23,1.07-.17,2.91,1.67,3.07S126.05,49.89,128.45,49.89Zm-6.06,18.37c3.79,3.66,7.45,3.62,9.5,0Z"/><path class="cls-1" d="M31.8,40.24c-.51.17-.85.25-1.17.38-4.34,1.74-4.34,1.74-6.23-2.62-1.56-3.6-1.56-3.61,2.22-4.81a66.62,66.62,0,0,0,21-10.77,4.15,4.15,0,0,1,2.39-.82,15.81,15.81,0,0,1,11.32,3.14c6.08,4.46,13.17,7,20.43,9,1.45.4,2,.86,1.18,2.34a17.81,17.81,0,0,0-1.74,4.22c-.51,2.08-1.58,2-3.14,1.28-1.37-.62-2.81-1.08-4.44-1.7,0,6.78,0,13.31,0,19.85,0,1.68,1.47,1.85,2.44,2.42,1.28.77,1.51,1.3.18,2.25-2.46,1.77-4.83,3.64-7.48,5.64a40.37,40.37,0,0,0,9.14,1.6c2.49.2,2.49.15,1.78,2.62,0,.07,0,.14-.07.21-1.58,5.36-1.59,5.38-7,4.45-10.53-1.79-19.15-6.61-24.83-16a1.9,1.9,0,0,0-1.72-1C40,61.55,40,61.54,40,67.38c0,3.79,0,3.79,3.75,3.14,2-.35,4-.6,6-1.09,1.56-.38,1.79.17,1.78,1.58,0,5.19,0,5.24-5,6.15-5.65,1-11.34,1.75-17.06,2.32-1.28.13-2.14,0-2.09-1.58a8.3,8.3,0,0,0-.26-1.28c-.2-1.36-.9-3-.41-4,.59-1.25,2.48-.43,3.78-.67.91-.17,1.41-.34,1.4-1.43C31.79,60.47,31.8,50.45,31.8,40.24Zm20.92,3c-3.7,0-7.39.06-11.09,0-1.4,0-1.68.52-1.7,1.78s.33,1.75,1.7,1.74q11.09-.09,22.18,0c1.38,0,1.71-.47,1.7-1.75s-.29-1.81-1.7-1.77C60.12,43.34,56.42,43.28,52.72,43.27Zm0,12.39c3.71,0,7.42-.06,11.13,0,1.46,0,1.7-.6,1.65-1.82,0-1.06.1-2-1.52-1.93q-11.23.11-22.47,0c-1.6,0-1.51.82-1.55,1.9s.16,1.88,1.63,1.84C45.29,55.6,49,55.66,52.71,55.66ZM39.3,37h9.37c.06-1.64-.88-3-1.09-4.63,1.83-.16,3.61-.36,5.4-.46,4.16-.25,4.17-.23,4.93,3.81.12.62,0,1.35,1,1.34h8c-4.6-2.82-9-5.56-13.22-8.67-.47-.36-.93-.74-1.54-.25C48.11,31.42,43.68,34.12,39.3,37ZM55.71,62A16,16,0,0,0,60,66.25c.42.31.84.56,1.39.22A32.7,32.7,0,0,0,67.73,62Z"/><path class="cls-1" d="M97.5,136.75c-1,2.57-1.93,5.13-2.85,7.7-.44,1.23-.89,1.67-2.06.56-1.68-1.61-4.18-2.73-5.1-4.65-1-2.09,1.49-4.07,2.21-6.2A59.12,59.12,0,0,0,92.4,115c0-1.89,0-3.78,0-5.67,0-1-.3-1.43-1.24-.72-1.38,1-1.75.47-2-1a53.7,53.7,0,0,0-1.13-5.33,1.82,1.82,0,0,1,1.13-2.4,57.74,57.74,0,0,0,13.26-9.49c1.89-1.79,6.36-2.38,8.65-1.07a107,107,0,0,1,14,9.59c.94.77,1.2,1.41.26,2.26-2.65,2.43-3,5.5-2.89,8.91.2,4.72,0,9.45.1,14.18.06,1.8-.57,2.14-2.2,2.11-6.11-.08-12.22,0-18.33,0-.44,0-.88,0-1.31,0-1.17-.11-1.53.55-1.58,1.56,0,1.34,1,.83,1.56.83,7,0,14.11.08,21.16,0,1.7,0,2.24.41,2.19,2.15-.12,4.73-.09,9.46,0,14.18,0,1.35-.39,1.83-1.74,1.72a32.61,32.61,0,0,0-3.7,0c-1.06,0-2.07.11-2-1.48.06-.86-.72-.76-1.28-.76h-9c-.42,0-1.16,0-1.13.38.18,2.52-1.63,1.83-2.92,1.84-4.52,0-4.52,0-4.52-4.54V136.8Zm20.72-32.52a86.21,86.21,0,0,0-7.5-6.75c-2.87-2.33-2.83-2.29-5.48.19-2.29,2.15-4.67,4.19-7.32,6.55h3.19c3.87,0,3.87,0,2.72-3.77a35.3,35.3,0,0,0,4.66-1c2-.72,3.23-.12,3.51,2,.34,2.51,1.78,3.18,4,2.81A17.9,17.9,0,0,1,118.22,104.23Zm-10.7,16.19h0c2.18,0,4.36,0,6.54,0,1,0,1.43-.34,1.41-1.38s-.32-1.33-1.26-1.32c-4.36,0-8.71,0-13.07,0-1.19,0-1.21.63-1.25,1.51s.43,1.22,1.31,1.21C103.31,120.4,105.41,120.42,107.52,120.42Zm3.52,18c1.45,0,2.89-.06,4.33,0s1.4-.84,1.4-1.83,0-1.85-1.43-1.8c-2.67.08-5.35.06-8,0-1.25,0-2.14-.09-2.17,1.72s.79,2,2.21,1.9C108.58,138.41,109.81,138.47,111,138.47Zm-3.52-25.79h6.54c.74,0,1.44,0,1.42-1.09,0-.93-.35-1.32-1.27-1.31q-6.54,0-13.07,0c-1,0-1.22.47-1.2,1.36s.53,1,1.27,1C103.31,112.66,105.42,112.67,107.52,112.68Z"/><path class="cls-1" d="M73.28,133.55l3.81,1.17c-.93,1.74-2.74,2.56-4.08,4.14,2.68,1,5.36,1,8,1.25,1.28.12,1.74.34,1.21,1.65-.38.93-.6,1.94-.9,2.91-1,3.25-1,3.23-4.26,2.75-6.71-1-13.07-2.76-18.43-7.2a27.51,27.51,0,0,1-5.46-5.89c-.65-1-4.64-1.74-5.49-1-.66.55-.34,1.36-.35,2.05,0,4.31,0,4.31,4.27,3.93s4.12-.36,4.24,3.9c0,1.68-.44,2.2-2.14,2.32-5.66.37-11.3.9-17,1.45-1.13.11-1.86,0-2-1.31a3.31,3.31,0,0,0-.14-.41c-1.3-4.38-1.3-4.42,3.2-4.73,1.35-.09,2-.46,1.85-1.93a19,19,0,0,1,0-2.39c0-3.15,0-3.09-3.17-3.07-1.19,0-1.62.41-1.83,1.55a44.38,44.38,0,0,1-3.75,11.11c-.62,1.3-1.13,1.86-2.44.61a58.1,58.1,0,0,0-4.72-3.87c-.79-.62-1.12-1.06-.42-2.09,3.2-4.64,4.36-9.93,4.53-15.47.1-3.41.07-6.84,0-10.25,0-1.24.35-1.61,1.59-1.61q24.33.06,48.66,0c1.21,0,1.68.31,1.65,1.58-.12,5.27.65,4.2-4,4.22q-19,.07-38,0c-1.53,0-2.3.23-2.11,2a21.82,21.82,0,0,1,0,4.57c-.16,1.61.47,1.91,2,1.9,13.38,0,26.77,0,40.15-.07,2,0,3,.36,2.62,2.55a8,8,0,0,0,0,2c.09,1.06-.37,1.41-1.39,1.38-1.89,0-3.77,0-5.66,0Zm-4.35-.32a49.39,49.39,0,0,0-7.81.1C64.89,137.5,66,137.51,68.93,133.23Z"/><path class="cls-1" d="M52.81,111.47c-7.27,0-14.54,0-21.81,0-1.49,0-2-.33-1.94-1.9.1-5.23.08-10.47,0-15.7,0-1.34.39-1.74,1.73-1.71,3.27.09,6.54,0,9.81.06,1.31,0,1.94-.32,1.7-1.69s.5-1.9,1.86-1.79a25.41,25.41,0,0,0,3.49,0c1.72-.13,3.06,0,2.64,2.33-.15.84.38,1.15,1.19,1.11a15.72,15.72,0,0,1,2.17,0c1.25.12,2-.22,1.77-1.65s.5-1.93,1.88-1.81a25.86,25.86,0,0,0,3,0c1.75-.08,3.44-.22,3,2.45-.19,1.13.8,1,1.5,1,3.42,0,6.83.06,10.25,0,1.46-.05,1.83.46,1.81,1.85-.07,5.23-.09,10.47,0,15.7,0,1.52-.52,1.77-1.87,1.76-7.41-.06-14.83,0-22.24,0Zm13.08-5v0c.43,0,.87,0,1.3,0,1,.06,1.64,0,1.64-1.33s-.69-1.36-1.65-1.32-2,0-3,0c-.79,0-.9.54-.86,1.18s-.13,1.37.86,1.4Zm-12.35-2.61H52.08c-1,0-1.86-.08-1.81,1.39s.87,1.25,1.75,1.24H54.4c.58,0,1-.19,1-.84s.28-1.32-.33-1.58A4.09,4.09,0,0,0,53.54,103.84Zm-13.62,0H38.84c-.88,0-1.71-.1-1.71,1.26s.82,1.42,1.82,1.38a17.92,17.92,0,0,1,1.94,0c.93.06,1.46-.16,1.46-1.27S42,103.73,41,103.84A9.55,9.55,0,0,1,39.92,103.84Zm26.23-6.51c-.5,0-1,0-1.51,0-.82,0-1.35.13-1.35,1.16s.54,1.19,1.35,1.18l3.24,0c.78,0,.92-.51.93-1.16s-.16-1.13-.93-1.14ZM52.87,99.64h0c.36,0,.73,0,1.09,0,.92.06,1.53-.11,1.49-1.27s-.72-1.06-1.47-1c-.95,0-1.89,0-2.84,0s-.83.64-.83,1.25.13,1,.81,1S52.29,99.64,52.87,99.64Zm-13,0h0c.36,0,.72,0,1.08,0,1,.09,1.46-.2,1.43-1.3s-.73-1-1.46-1H38.06c-.79,0-.9.51-.9,1.16s.15,1.15.94,1.15C38.67,99.64,39.25,99.65,39.83,99.65Z"/><path class="cls-1" d="M144.85,116.13c0,8.07,0,16.14,0,24.21,0,4.6-1.92,6.4-6.56,6.43-2.4,0-4.8,0-7.19,0-1,0-1.48-.25-1.57-1.29a32.36,32.36,0,0,0-.56-3.22c-.77-4.08-.77-4.08,3.47-3.74,4.88.39,4.88.39,4.88-4.54,0-14.1,0-28.2,0-42.3,0-1.61.26-2.45,2.1-2.18s4.15-.78,5.18.43c.88,1,.3,3.31.31,5q0,10.58,0,21.14Z"/><path class="cls-1" d="M134.08,113.33c0,6-.05,12.07,0,18.1,0,1.51-.4,2-1.94,2-5.41,0-5.41.06-5.41-5.25,0-10.9,0-21.81,0-32.71,0-1.68.41-2.24,2.16-2.22,5.19.06,5.19,0,5.19,5.06Z"/><path class="cls-1" d="M56.72,125.2c-5.67,0-11.33-.06-17,0-1.58,0-2.08-.52-1.87-2,.17-1.2-.6-2.71,1.83-2.69q17.2.18,34.42,0c2.25,0,1.66,1.35,1.76,2.54s.07,2.18-1.73,2.15C68.34,125.13,62.53,125.2,56.72,125.2Z"/><path class="cls-2" d="M150.82,159.3H21v-.42H150.79Z"/><path class="cls-2" d="M150.79,12.42H21V12H150.81Z"/></g></svg>