<?xml version="1.0" encoding="UTF-8"?>
<svg width="976px" height="881px" viewBox="0 0 976 881" version="1.1" xmlns="http://www.w3.org/2000/svg" xmlns:xlink="http://www.w3.org/1999/xlink">
    <!-- Generator: Sketch 47.1 (45422) - http://www.bohemiancoding.com/sketch -->
    <title>GraphicImplementation</title>
    <desc>Created with Sketch.</desc>
    <defs>
        <rect id="path-1" x="0" y="0" width="434" height="425"></rect>
        <filter x="-6.9%" y="-7.1%" width="113.8%" height="114.1%" filterUnits="objectBoundingBox" id="filter-2">
            <feOffset dx="0" dy="0" in="SourceAlpha" result="shadowOffsetOuter1"></feOffset>
            <feGaussianBlur stdDeviation="10" in="shadowOffsetOuter1" result="shadowBlurOuter1"></feGaussianBlur>
            <feColorMatrix values="0 0 0 0 0   0 0 0 0 0   0 0 0 0 0  0 0 0 0.192793252 0" type="matrix" in="shadowBlurOuter1"></feColorMatrix>
        </filter>
        <circle id="path-3" cx="344" cy="212" r="129"></circle>
        <filter x="-12.0%" y="-11.2%" width="124.0%" height="124.0%" filterUnits="objectBoundingBox" id="filter-4">
            <feOffset dx="0" dy="2" in="SourceAlpha" result="shadowOffsetOuter1"></feOffset>
            <feGaussianBlur stdDeviation="10" in="shadowOffsetOuter1" result="shadowBlurOuter1"></feGaussianBlur>
            <feColorMatrix values="0 0 0 0 0   0 0 0 0 0   0 0 0 0 0  0 0 0 0.2 0" type="matrix" in="shadowBlurOuter1"></feColorMatrix>
        </filter>
        <rect id="path-5" x="341" y="560" width="13" height="147"></rect>
        <filter x="-230.8%" y="-20.4%" width="561.5%" height="140.8%" filterUnits="objectBoundingBox" id="filter-6">
            <feOffset dx="0" dy="0" in="SourceAlpha" result="shadowOffsetOuter1"></feOffset>
            <feGaussianBlur stdDeviation="10" in="shadowOffsetOuter1" result="shadowBlurOuter1"></feGaussianBlur>
            <feColorMatrix values="0 0 0 0 0   0 0 0 0 0   0 0 0 0 0  0 0 0 0.192793252 0" type="matrix" in="shadowBlurOuter1"></feColorMatrix>
        </filter>
    </defs>
    <g id="Page-1" stroke="none" stroke-width="1" fill="none" fill-rule="evenodd">
        <g id="GraphicImplementation">
            <rect id="Rectangle-4" fill="#FF5559" x="96" y="30" width="451" height="463"></rect>
            <path d="M23.19,439 L23.19,372.4 L41.46,372.4 C61.8,372.4 74.4,382.93 74.4,405.43 C74.4,427.84 61.8,439 42.18,439 L23.19,439 Z M36.51,428.29 L40.65,428.29 C53.07,428.29 60.81,421.63 60.81,405.43 C60.81,389.14 53.07,383.02 40.65,383.02 L36.51,383.02 L36.51,428.29 Z M83.67,417.94 L108.24,417.94 L108.24,408.49 L83.67,408.49 L83.67,417.94 Z M43.08,573.26 C58.47,573.26 67.56,563.99 67.56,553.1 C67.56,543.47 62.25,538.34 54.15,535.01 L45.42,531.32 C39.75,529.07 34.98,527.36 34.98,522.59 C34.98,518.18 38.76,515.57 44.61,515.57 C50.1,515.57 54.51,517.55 58.74,521.06 L65.49,512.69 C60.09,507.2 52.35,504.14 44.61,504.14 C31.11,504.14 21.57,512.51 21.57,523.4 C21.57,533.12 28.32,538.52 35.07,541.31 L43.98,545.09 C49.92,547.61 53.97,549.14 53.97,554.09 C53.97,558.77 50.28,561.74 43.35,561.74 C37.5,561.74 31.2,558.77 26.43,554.36 L18.78,563.54 C25.26,569.75 34.17,573.26 43.08,573.26 Z M106.53,573.26 C115.17,573.26 122.28,569.84 127.77,563.45 L120.75,555.17 C117.15,559.04 112.65,561.74 106.98,561.74 C96.45,561.74 89.61,553.01 89.61,538.52 C89.61,524.21 97.17,515.57 107.25,515.57 C112.29,515.57 116.16,517.91 119.49,521.15 L126.51,512.69 C122.19,508.19 115.44,504.14 106.98,504.14 C90.15,504.14 76.02,517.01 76.02,538.97 C76.02,561.2 89.7,573.26 106.53,573.26 Z M138.48,572 L151.8,572 L151.8,543.2 L177,543.2 L177,572 L190.23,572 L190.23,505.4 L177,505.4 L177,531.59 L151.8,531.59 L151.8,505.4 L138.48,505.4 L138.48,572 Z M233.07,573.26 C215.43,573.26 203.28,560.03 203.28,538.43 C203.28,516.74 215.43,504.14 233.07,504.14 C250.71,504.14 262.86,516.83 262.86,538.43 C262.86,560.03 250.71,573.26 233.07,573.26 Z M233.07,561.74 C242.97,561.74 249.27,552.65 249.27,538.43 C249.27,524.12 242.97,515.57 233.07,515.57 C223.17,515.57 216.87,524.12 216.87,538.43 C216.87,552.65 223.17,561.74 233.07,561.74 Z M49.65,706.26 C32.01,706.26 19.86,693.03 19.86,671.43 C19.86,649.74 32.01,637.14 49.65,637.14 C67.29,637.14 79.44,649.83 79.44,671.43 C79.44,693.03 67.29,706.26 49.65,706.26 Z M49.65,694.74 C59.55,694.74 65.85,685.65 65.85,671.43 C65.85,657.12 59.55,648.57 49.65,648.57 C39.75,648.57 33.45,657.12 33.45,671.43 C33.45,685.65 39.75,694.74 49.65,694.74 Z M92.49,705 L132.81,705 L132.81,693.84 L105.81,693.84 L105.81,638.4 L92.49,638.4 L92.49,705 Z" id="D-SCHOOL" fill="#FFFFFF"></path>
            <path d="M31.38,244.34 L31.38,251.72 L21.75,251.72 L21.75,236.06 L54.6,236.06 C53.88,234.17 52.89,232.28 51.99,230.66 L61.35,228.05 C62.88,230.48 64.5,233.45 65.49,236.06 L98.34,236.06 L98.34,251.72 L88.35,251.72 L88.35,244.34 L31.38,244.34 Z M41.28,292.31 L41.28,295.19 L78.72,295.19 L78.72,292.31 L41.28,292.31 Z M41.28,284.48 L41.28,287.27 L78.72,287.27 L78.72,284.48 L41.28,284.48 Z M41.28,276.74 L41.28,279.35 L78.72,279.35 L78.72,276.74 L41.28,276.74 Z M89.61,300.5 L77.28,300.5 C85.2,302.66 93.12,305 98.43,306.71 L91.14,313.28 C84.66,310.85 74.13,307.25 63.78,304.55 L67.47,300.5 L51,300.5 L56.4,304.46 C48.84,308.33 36.24,311.84 25.8,313.37 C24.54,311.3 22.02,308.06 20.13,306.08 C28.05,305 37.32,302.93 43.8,300.5 L30.93,300.5 L30.93,271.34 L89.61,271.34 L89.61,300.5 Z M63.33,263.42 L74.94,263.42 L75.21,260.54 L63.69,260.54 L63.33,263.42 Z M43.08,260.54 L42.72,263.42 L54.6,263.42 L54.96,260.54 L43.08,260.54 Z M55.77,252.62 L44.07,252.62 L43.71,255.23 L55.5,255.23 L55.77,252.62 Z M75.66,255.23 L75.84,252.62 L64.5,252.62 L64.32,255.23 L75.66,255.23 Z M85.65,254.06 L101.22,254.06 L101.22,261.71 L84.93,261.71 L84.21,268.73 L32.46,268.73 L33.36,261.71 L19.23,261.71 L19.23,254.06 L34.44,254.06 L35.34,247.22 L86.28,247.22 L85.65,254.06 Z M127.68,229.13 L138.12,232.37 C135.78,238.67 132.81,245.06 129.48,251.09 L129.48,312.74 L118.68,312.74 L118.68,267.74 C116.79,269.99 114.9,272.24 113.1,274.22 C112.11,271.61 109.05,265.49 107.16,262.79 C115.35,254.69 123.18,241.91 127.68,229.13 Z M192.21,253.61 L166.65,253.61 L166.65,263.06 L189.96,263.06 L189.96,272.78 L166.65,272.78 L166.65,282.95 L191.13,282.95 L191.13,292.85 L166.65,292.85 L166.65,312.83 L155.67,312.83 L155.67,253.61 L152.25,253.61 C148.65,260.27 144.51,266.39 140.46,271.07 C138.75,269.09 134.52,265.31 132.27,263.6 C140.19,255.5 147.3,242.54 151.35,229.67 L161.7,232.28 C160.44,236.06 159,239.75 157.29,243.44 L192.21,243.44 L192.21,253.61 Z M245.49,274.22 L265.83,274.22 L265.83,254.87 L245.49,254.87 L245.49,274.22 Z M213.9,274.22 L234.15,274.22 L234.15,254.87 L213.9,254.87 L213.9,274.22 Z M245.49,244.34 L277.08,244.34 L277.08,289.25 L265.83,289.25 L265.83,284.75 L245.49,284.75 L245.49,312.83 L234.15,312.83 L234.15,284.75 L213.9,284.75 L213.9,289.7 L203.1,289.7 L203.1,244.34 L234.15,244.34 L234.15,228.77 L245.49,228.77 L245.49,244.34 Z M314.7,237.5 L321.99,230.21 C330.09,235.34 341.52,243.26 346.92,248.84 L339,257.21 C334.14,251.72 323.07,243.17 314.7,237.5 Z M351.24,260.9 L361.23,256.85 C366.27,267.56 370.95,281.06 372.84,290.33 L361.95,294.83 C360.6,285.65 355.92,271.43 351.24,260.9 Z M295.44,259.73 C294.27,271.7 291.66,285.2 288.51,294.74 L299.31,299.06 C302.37,288.89 304.62,273.32 305.88,261.71 L295.44,259.73 Z M311.64,254.42 L322.8,254.42 L322.8,296.18 C322.8,300.41 323.52,301.13 327.84,301.13 L340.71,301.13 C345.21,301.13 346.02,298.25 346.65,284.21 C349.17,286.1 353.76,287.99 356.73,288.71 C355.47,305.81 352.59,311.12 341.52,311.12 L326.58,311.12 C314.88,311.12 311.64,307.52 311.64,296.18 L311.64,254.42 Z" id="實作中心" fill="#FFFFFF"></path>
            <g id="Group" transform="translate(487.000000, 281.000000)">
                <g id="Rectangle-4">
                    <use fill="black" fill-opacity="1" filter="url(#filter-2)" xlink:href="#path-1"></use>
                    <use fill="#FFFFFF" fill-rule="evenodd" xlink:href="#path-1"></use>
                </g>
                <path d="M3.64,485 L9.56,485 L9.56,455.4 L3.64,455.4 L3.64,485 Z M16.36,485 L22.2,485 L22.2,469.6 C23.8,467.92 25.24,467.08 26.52,467.08 C28.64,467.08 29.64,468.32 29.64,471.76 L29.64,485 L35.52,485 L35.52,469.6 C37.12,467.92 38.56,467.08 39.84,467.08 C41.96,467.08 42.96,468.32 42.96,471.76 L42.96,485 L48.84,485 L48.84,471.04 C48.84,465.4 46.64,462.04 41.88,462.04 C38.96,462.04 36.8,463.8 34.76,465.96 C33.68,463.48 31.8,462.04 28.6,462.04 C25.68,462.04 23.6,463.64 21.72,465.6 L21.56,465.6 L21.16,462.6 L16.36,462.6 L16.36,485 Z M54.92,493.6 L54.92,462.6 L59.72,462.6 L60.12,464.92 L60.28,464.92 C62.16,463.32 64.48,462.04 66.88,462.04 C72.4,462.04 75.68,466.56 75.68,473.44 C75.68,481.12 71.08,485.56 66.16,485.56 C64.2,485.56 62.32,484.68 60.6,483.12 L60.76,486.8 L60.76,493.6 L54.92,493.6 Z M64.84,480.72 C67.56,480.72 69.64,478.4 69.64,473.52 C69.64,469.24 68.28,466.88 65.2,466.88 C63.68,466.88 62.32,467.64 60.76,469.2 L60.76,479.04 C62.2,480.28 63.64,480.72 64.84,480.72 Z M86.2,485.56 C87.56,485.56 88.56,485.32 89.24,485.04 L88.52,480.68 C88.12,480.76 87.96,480.76 87.72,480.76 C87.16,480.76 86.52,480.32 86.52,479 L86.52,453.08 L80.68,453.08 L80.68,478.72 C80.68,482.88 82.12,485.56 86.2,485.56 Z M103,485.56 C96.76,485.56 91.88,481.2 91.88,473.84 C91.88,466.56 96.96,462.04 102.32,462.04 C108.48,462.04 111.68,466.56 111.68,472.76 C111.68,473.84 111.56,474.92 111.4,475.44 L97.6,475.44 C98.08,479.12 100.48,481.04 103.8,481.04 C105.64,481.04 107.24,480.48 108.84,479.48 L110.84,483.08 C108.64,484.6 105.8,485.56 103,485.56 Z M97.52,471.56 L106.64,471.56 C106.64,468.52 105.28,466.6 102.4,466.6 C100.04,466.6 97.96,468.28 97.52,471.56 Z M116.52,485 L122.36,485 L122.36,469.6 C123.96,467.92 125.4,467.08 126.68,467.08 C128.8,467.08 129.8,468.32 129.8,471.76 L129.8,485 L135.68,485 L135.68,469.6 C137.28,467.92 138.72,467.08 140,467.08 C142.12,467.08 143.12,468.32 143.12,471.76 L143.12,485 L149,485 L149,471.04 C149,465.4 146.8,462.04 142.04,462.04 C139.12,462.04 136.96,463.8 134.92,465.96 C133.84,463.48 131.96,462.04 128.76,462.04 C125.84,462.04 123.76,463.64 121.88,465.6 L121.72,465.6 L121.32,462.6 L116.52,462.6 L116.52,485 Z M164.8,485.56 C158.56,485.56 153.68,481.2 153.68,473.84 C153.68,466.56 158.76,462.04 164.12,462.04 C170.28,462.04 173.48,466.56 173.48,472.76 C173.48,473.84 173.36,474.92 173.2,475.44 L159.4,475.44 C159.88,479.12 162.28,481.04 165.6,481.04 C167.44,481.04 169.04,480.48 170.64,479.48 L172.64,483.08 C170.44,484.6 167.6,485.56 164.8,485.56 Z M159.32,471.56 L168.44,471.56 C168.44,468.52 167.08,466.6 164.2,466.6 C161.84,466.6 159.76,468.28 159.32,471.56 Z M178.32,485 L184.16,485 L184.16,469.6 C185.84,467.96 187,467.08 188.84,467.08 C191.04,467.08 192,468.32 192,471.76 L192,485 L197.88,485 L197.88,471.04 C197.88,465.4 195.8,462.04 190.96,462.04 C187.92,462.04 185.64,463.64 183.68,465.56 L183.52,465.56 L183.12,462.6 L178.32,462.6 L178.32,485 Z M212.16,485.56 C214.12,485.56 215.68,485.12 216.88,484.72 L215.92,480.44 C215.32,480.68 214.44,480.92 213.72,480.92 C211.72,480.92 210.68,479.72 210.68,477.16 L210.68,467.24 L216.2,467.24 L216.2,462.6 L210.68,462.6 L210.68,456.6 L205.76,456.6 L205.08,462.6 L201.64,462.88 L201.64,467.24 L204.8,467.24 L204.8,477.16 C204.8,482.2 206.84,485.56 212.16,485.56 Z M225.36,485.56 C221.36,485.56 218.72,482.72 218.72,478.92 C218.72,474.12 222.6,471.6 231.6,470.64 C231.52,468.44 230.56,466.76 227.8,466.76 C225.72,466.76 223.72,467.68 221.64,468.88 L219.52,465 C222.16,463.36 225.36,462.04 228.88,462.04 C234.56,462.04 237.48,465.44 237.48,471.92 L237.48,485 L232.68,485 L232.24,482.6 L232.12,482.6 C230.16,484.28 227.92,485.56 225.36,485.56 Z M227.28,480.96 C228.96,480.96 230.2,480.16 231.6,478.76 L231.6,474.24 C226.16,474.96 224.32,476.44 224.32,478.44 C224.32,480.2 225.56,480.96 227.28,480.96 Z M250.92,485.56 C252.88,485.56 254.44,485.12 255.64,484.72 L254.68,480.44 C254.08,480.68 253.2,480.92 252.48,480.92 C250.48,480.92 249.44,479.72 249.44,477.16 L249.44,467.24 L254.96,467.24 L254.96,462.6 L249.44,462.6 L249.44,456.6 L244.52,456.6 L243.84,462.6 L240.4,462.88 L240.4,467.24 L243.56,467.24 L243.56,477.16 C243.56,482.2 245.6,485.56 250.92,485.56 Z M259.52,485 L265.36,485 L265.36,462.6 L259.52,462.6 L259.52,485 Z M262.48,459 C264.48,459 265.96,457.64 265.96,455.8 C265.96,453.88 264.48,452.6 262.48,452.6 C260.44,452.6 258.96,453.88 258.96,455.8 C258.96,457.64 260.44,459 262.48,459 Z M281.04,485.56 C275.44,485.56 270.28,481.24 270.28,473.84 C270.28,466.36 275.44,462.04 281.04,462.04 C286.64,462.04 291.8,466.36 291.8,473.84 C291.8,481.24 286.64,485.56 281.04,485.56 Z M281.04,480.76 C284.08,480.76 285.8,478.04 285.8,473.84 C285.8,469.6 284.08,466.84 281.04,466.84 C278,466.84 276.28,469.6 276.28,473.84 C276.28,478.04 278,480.76 281.04,480.76 Z M296.72,485 L302.56,485 L302.56,469.6 C304.24,467.96 305.4,467.08 307.24,467.08 C309.44,467.08 310.4,468.32 310.4,471.76 L310.4,485 L316.28,485 L316.28,471.04 C316.28,465.4 314.2,462.04 309.36,462.04 C306.32,462.04 304.04,463.64 302.08,465.56 L301.92,465.56 L301.52,462.6 L296.72,462.6 L296.72,485 Z M12.68,544.56 C15.16,544.56 17.88,543.72 20,541.84 L17.68,537.96 C16.44,539 14.92,539.76 13.32,539.76 C10.08,539.76 7.76,537.04 7.76,532.84 C7.76,528.6 10.08,525.84 13.48,525.84 C14.76,525.84 15.8,526.36 16.92,527.32 L19.72,523.52 C18.08,522.12 15.96,521.04 13.2,521.04 C7.12,521.04 1.76,525.36 1.76,532.84 C1.76,540.24 6.48,544.56 12.68,544.56 Z M32.76,544.56 C26.52,544.56 21.64,540.2 21.64,532.84 C21.64,525.56 26.72,521.04 32.08,521.04 C38.24,521.04 41.44,525.56 41.44,531.76 C41.44,532.84 41.32,533.92 41.16,534.44 L27.36,534.44 C27.84,538.12 30.24,540.04 33.56,540.04 C35.4,540.04 37,539.48 38.6,538.48 L40.6,542.08 C38.4,543.6 35.56,544.56 32.76,544.56 Z M27.28,530.56 L36.4,530.56 C36.4,527.52 35.04,525.6 32.16,525.6 C29.8,525.6 27.72,527.28 27.28,530.56 Z M46.28,544 L52.12,544 L52.12,528.6 C53.8,526.96 54.96,526.08 56.8,526.08 C59,526.08 59.96,527.32 59.96,530.76 L59.96,544 L65.84,544 L65.84,530.04 C65.84,524.4 63.76,521.04 58.92,521.04 C55.88,521.04 53.6,522.64 51.64,524.56 L51.48,524.56 L51.08,521.6 L46.28,521.6 L46.28,544 Z M80.12,544.56 C82.08,544.56 83.64,544.12 84.84,543.72 L83.88,539.44 C83.28,539.68 82.4,539.92 81.68,539.92 C79.68,539.92 78.64,538.72 78.64,536.16 L78.64,526.24 L84.16,526.24 L84.16,521.6 L78.64,521.6 L78.64,515.6 L73.72,515.6 L73.04,521.6 L69.6,521.88 L69.6,526.24 L72.76,526.24 L72.76,536.16 C72.76,541.2 74.8,544.56 80.12,544.56 Z M97.68,544.56 C91.44,544.56 86.56,540.2 86.56,532.84 C86.56,525.56 91.64,521.04 97,521.04 C103.16,521.04 106.36,525.56 106.36,531.76 C106.36,532.84 106.24,533.92 106.08,534.44 L92.28,534.44 C92.76,538.12 95.16,540.04 98.48,540.04 C100.32,540.04 101.92,539.48 103.52,538.48 L105.52,542.08 C103.32,543.6 100.48,544.56 97.68,544.56 Z M92.2,530.56 L101.32,530.56 C101.32,527.52 99.96,525.6 97.08,525.6 C94.72,525.6 92.64,527.28 92.2,530.56 Z M111.2,544 L117.04,544 L117.04,530.64 C118.32,527.4 120.44,526.24 122.2,526.24 C123.12,526.24 123.76,526.36 124.52,526.6 L125.56,521.52 C124.88,521.24 124.16,521.04 122.92,521.04 C120.6,521.04 118.2,522.64 116.56,525.56 L116.4,525.56 L116,521.6 L111.2,521.6 L111.2,544 Z" id="Implementation-cente" fill="#FF5559"></path>
                <circle id="Oval" fill="#FF5559" cx="43" cy="212" r="17"></circle>
                <g id="Oval">
                    <use fill="black" fill-opacity="1" filter="url(#filter-4)" xlink:href="#path-3"></use>
                    <use fill="#FF5559" fill-rule="evenodd" xlink:href="#path-3"></use>
                </g>
                <circle id="Oval" fill="#FFFFFF" cx="344" cy="212" r="18"></circle>
                <path d="M39.5,195.5 L303.5,90.5" id="Line" stroke="#FF5559" stroke-width="2" stroke-linecap="square"></path>
                <path d="M42,228 L308.5,334.5" id="Line" stroke="#FF5559" stroke-width="2" stroke-linecap="square"></path>
            </g>
            <g id="Group-17" transform="translate(96.000000, 13.000000)" fill="#FFFFFF">
                <polygon id="Combined-Shape" points="0 205.029462 0 122 141.778508 64.9522884 166.989077 108.618274"></polygon>
                <rect id="Rectangle-33" transform="translate(256.000000, 54.000000) rotate(-15.000000) translate(-256.000000, -54.000000) " x="160" y="36" width="192" height="36"></rect>
                <rect id="Rectangle-33" transform="translate(385.500000, 55.000000) rotate(-315.000000) translate(-385.500000, -55.000000) " x="342" y="37" width="87" height="36"></rect>
                <rect id="Rectangle-33" transform="translate(385.500000, 55.000000) rotate(-315.000000) translate(-385.500000, -55.000000) " x="342" y="37" width="87" height="36"></rect>
                <circle id="Oval-13" stroke="#FF5559" stroke-width="10" cx="163.5" cy="82.5" r="43.5"></circle>
                <circle id="Oval-13-Copy" stroke="#FF5559" stroke-width="7" cx="353" cy="29" r="29"></circle>
                <polygon id="Path-78" points="391 121.86793 393 192.872021 475.5 241 434 172.5 460.5 121.86793 511.983122 121.86793 538.805907 202.804316 556 87.681178 460.5 56.5"></polygon>
                <circle id="Oval-13-Copy" stroke="#FF5559" stroke-width="12" transform="translate(428.500000, 93.500000) rotate(-360.000000) translate(-428.500000, -93.500000) " cx="428.5" cy="93.5" r="21.5"></circle>
            </g>
            <g id="Rectangle-4">
                <use fill="black" fill-opacity="1" filter="url(#filter-6)" xlink:href="#path-5"></use>
                <use fill="#FFFFFF" fill-rule="evenodd" xlink:href="#path-5"></use>
            </g>
        </g>
    </g>
</svg>