<svg xmlns="http://www.w3.org/2000/svg" xmlns:xlink="http://www.w3.org/1999/xlink" viewBox="0 0 838 588"><defs><style>.cls-1,.cls-12,.cls-13,.cls-6,.cls-7{fill:none;}.cls-1{clip-rule:evenodd;}.cls-2{clip-path:url(#clip-path);}.cls-16,.cls-3{fill:#14114b;}.cls-14,.cls-15,.cls-17,.cls-4{fill:#fff;}.cls-5{fill:#ff6c4d;}.cls-13,.cls-6{stroke:#ff6c4d;}.cls-12,.cls-13,.cls-6,.cls-7{stroke-miterlimit:10;}.cls-12,.cls-7{stroke:#fff;}.cls-13,.cls-7{stroke-width:6px;}.cls-8{fill:#ff8b6b;}.cls-15,.cls-9{opacity:0.14;}.cls-9{fill:url(#未命名漸層_7);}.cls-10{fill:#f4432d;}.cls-11{fill:#f2f2f2;}.cls-12{stroke-width:3px;}.cls-14{opacity:0.09;}.cls-16{font-size:47.93px;}.cls-16,.cls-17{font-family:NotoSansCJKtc-Black-B5pc-H, Noto Sans CJK TC;}.cls-17{font-size:53.57px;}.cls-18{letter-spacing:-0.03em;}.cls-19{letter-spacing:-0.01em;}.cls-20{letter-spacing:-0.03em;}</style><clipPath id="clip-path"><path class="cls-1" d="M-3073,76.49c-.1.15.68,87.51.68,87.51l21,.21s56.87,6.6,57.34-41.73-53.49-45.84-53.49-45.84Z"/></clipPath><linearGradient id="未命名漸層_7" x1="218.59" y1="540.83" x2="219.25" y2="569.8" gradientUnits="userSpaceOnUse"><stop offset="0" stop-color="#fff"/><stop offset="1" stop-color="#fff" stop-opacity="0"/></linearGradient></defs><title>hero</title><g id="圖層_6" data-name="圖層 6"><rect class="cls-3" width="840" height="592"/><rect class="cls-4" x="569.3" y="111.38" width="120.22" height="162.09"/><rect class="cls-5" x="716.53" y="152.15" width="92.3" height="124.45"/><circle class="cls-5" cx="602.14" cy="235.51" r="27.27"/><rect class="cls-3" x="726.44" y="185.67" width="63.94" height="18.91"/><rect class="cls-3" x="726.44" y="209.53" width="41.1" height="12.16"/><rect class="cls-3" x="726.44" y="230.02" width="6.3" height="37.15"/><rect class="cls-3" x="738.14" y="230.02" width="6.3" height="37.15"/><rect class="cls-3" x="789.02" y="237.11" width="4.45" height="14.18"/><rect class="cls-3" x="796.5" y="230.02" width="4.45" height="14.18"/><rect class="cls-3" x="789.02" y="255.68" width="4.45" height="14.18"/><rect class="cls-3" x="796.5" y="248.59" width="4.45" height="14.18"/><path class="cls-5" d="M597,135.51l4.31,4.3c4.57,4.57,5.39,9.78.18,15s-10.59,4.55-15,.18l-4.51-4.5Zm-8,16.15c2.42,2.42,5.23,3,8.8-.54s2.83-6.26.42-8.67l-.48-.49-9.22,9.22Z"/><path class="cls-5" d="M597.6,162.33l4.51-.45a8.52,8.52,0,0,0,2.11,5.17c1.33,1.33,2.46,1.45,3.26.65s.32-2-.42-3.8L606,161.18A6.21,6.21,0,0,1,607,154c2.51-2.52,6.78-2.28,10,.9a9.86,9.86,0,0,1,2.9,6.84l-4,.47A6.86,6.86,0,0,0,613.9,158c-1.11-1.11-2.23-1.35-3-.54s-.2,2.09.61,3.94l1.12,2.62c1.11,2.59,1,5-1.14,7.06-2.5,2.49-6.79,2.59-10.41-1A11.85,11.85,0,0,1,597.6,162.33Z"/><path class="cls-5" d="M616.25,169.91c5-5,11.19-4.51,15-.71a9.05,9.05,0,0,1,2.6,6.5l-4.19.41a5.26,5.26,0,0,0-1.43-3.77c-1.93-1.93-5.25-1.79-8.17,1.13s-3.34,6.08-1.22,8.19a5.47,5.47,0,0,0,4.22,1.49l-.36,4.14a8.77,8.77,0,0,1-7.1-2.67C611.78,180.81,611.18,175,616.25,169.91Z"/><path class="cls-5" d="M637.92,176.44l3.6,3.61-5.69,5.69,4.93,4.93,5.69-5.69,3.56,3.56-15,15L631.48,200l6.16-6.16-4.93-4.93L626.55,195l-3.6-3.6Z"/><path class="cls-5" d="M645.4,198.74c4.91-4.91,10.46-4.91,14.55-.83s4.06,9.66-.83,14.55-10.62,5.07-14.7,1S640.49,203.65,645.4,198.74Zm10.06,10.06c2.9-2.9,3.38-5.84,1.41-7.81s-4.89-1.47-7.79,1.43-3.54,6-1.57,7.93S652.54,211.72,655.46,208.8Z"/><path class="cls-5" d="M661.21,214.55c4.91-4.91,10.47-4.91,14.55-.83s4.07,9.66-.82,14.55-10.63,5.07-14.71,1S656.3,219.46,661.21,214.55Zm10.07,10.06c2.89-2.9,3.38-5.84,1.4-7.81s-4.89-1.47-7.78,1.43-3.55,6-1.57,7.93S668.36,227.53,671.28,224.61Z"/><path class="cls-5" d="M685.12,223.64l3.6,3.6-12,11.95,5.82,5.82-3,3-9.42-9.42Z"/><path class="cls-6" d="M611.39,114l3,3c3.2,3.2,3.78,6.86.12,10.51s-7.42,3.19-10.48.13l-3.16-3.16Zm-5.61,11.33c1.7,1.69,3.67,2.12,6.17-.38s2-4.39.3-6.08l-.34-.34L605.44,125Z"/><path class="cls-6" d="M611.82,132.81l3.16-.31a6,6,0,0,0,1.49,3.63c.93.93,1.72,1,2.28.45s.23-1.38-.29-2.67l-.78-1.9a4.34,4.34,0,0,1,.75-5c1.76-1.77,4.75-1.6,7,.63a6.91,6.91,0,0,1,2,4.8l-2.84.32a4.83,4.83,0,0,0-1.36-3c-.77-.78-1.56-.94-2.13-.38s-.14,1.47.43,2.77l.79,1.83a4.11,4.11,0,0,1-.81,5c-1.75,1.75-4.75,1.82-7.29-.72A8.31,8.31,0,0,1,611.82,132.81Z"/><path class="cls-6" d="M624.91,138.13c3.5-3.5,7.84-3.16,10.51-.49a6.29,6.29,0,0,1,1.82,4.56l-2.93.28a3.72,3.72,0,0,0-1-2.64c-1.35-1.36-3.68-1.26-5.73.79s-2.34,4.26-.86,5.74a3.86,3.86,0,0,0,3,1l-.26,2.91a6.18,6.18,0,0,1-5-1.88C621.77,145.78,621.35,141.69,624.91,138.13Z"/><path class="cls-6" d="M640.11,142.72l2.52,2.53-4,4,3.46,3.46,4-4,2.5,2.5-10.5,10.5-2.5-2.5,4.32-4.32-3.46-3.45-4.32,4.32-2.52-2.53Z"/><path class="cls-6" d="M645.36,158.36c3.44-3.45,7.34-3.45,10.2-.58s2.85,6.77-.58,10.2-7.45,3.56-10.31.69S641.91,161.8,645.36,158.36Zm7,7c2-2,2.37-4.09,1-5.47s-3.43-1-5.46,1-2.48,4.18-1.1,5.56S650.37,167.46,652.41,165.41Z"/><path class="cls-6" d="M656.45,169.45c3.44-3.44,7.34-3.44,10.2-.58s2.85,6.78-.57,10.21-7.46,3.55-10.32.69S653,172.89,656.45,169.45Zm7.06,7.06c2-2,2.37-4.1,1-5.48s-3.43-1-5.47,1-2.48,4.18-1.1,5.56S661.46,178.55,663.51,176.51Z"/><path class="cls-6" d="M673.22,175.83l2.52,2.53-8.38,8.38,4.08,4.08-2.12,2.11-6.6-6.6Z"/><polyline class="cls-7" points="725.93 178.52 739.22 165.23 758.3 184.31 767.94 174.67 771.93 178.67 776.15 174.45 799.44 174.45"/><polygon class="cls-5" points="662.28 111.38 662.28 132.09 689.52 132.09 662.28 111.38"/><polygon class="cls-3" points="793.48 152.15 793.48 163.83 808.84 163.83 793.48 152.15"/><rect class="cls-8" x="39.06" y="454.35" width="80.71" height="57.93"/><rect class="cls-5" x="498.33" y="-12" width="8.52" height="102.46"/><polygon class="cls-5" points="504.63 94.28 493.64 94.28 453.63 134.29 551.55 134.29 511.61 94.35 504.63 94.28"/><path class="cls-4" d="M502.59,151.75a12,12,0,0,0,12-12H490.63A12,12,0,0,0,502.59,151.75Z"/><polygon class="cls-8" points="505.8 94.29 528.61 134.29 551.55 134.56 511.61 94.35 505.8 94.29"/><rect class="cls-5" x="70.9" y="-63.96" width="8.52" height="169.46"/><polygon class="cls-5" points="77.19 109.33 66.2 109.33 26.19 149.34 124.12 149.34 84.17 109.39 77.19 109.33"/><path class="cls-4" d="M75.15,166.79a12,12,0,0,0,12-12H63.2A12,12,0,0,0,75.15,166.79Z"/><polygon class="cls-8" points="78.36 109.34 101.17 149.34 124.12 149.6 84.17 109.39 78.36 109.34"/><polygon class="cls-9" points="153.15 493.47 -175.57 576.27 614.37 576.27 566.29 513.26 153.15 493.47"/><polygon class="cls-8" points="648.02 419.78 655.38 410.66 580.34 359.55 572.98 368.67 648.02 419.78"/><polygon class="cls-5" points="564.11 408.16 618.9 340.28 574.81 310.24 520.01 378.12 564.11 408.16"/><polygon class="cls-10" points="564.11 408.16 618.9 340.28 610.46 334.53 555.67 402.41 564.11 408.16"/><path class="cls-8" d="M704.87,307.13s16.69-10.8,24.36,4.93c10,20.61,60.57,97.76,39.1,114.85s-103,14.14-117.69,0,4.11-91.84,29.08-102.41S693,313.71,704.87,307.13Z"/><path class="cls-5" d="M704.82,327.72s30.33-.63,36.8,26-7.15,16.28-3.06,29.74,38,94.4,4.84,96.19-104.69,24.95-92.76-26.07,5.11-97.09,21.47-112.41S689.49,341.8,704.82,327.72Z"/><ellipse class="cls-11" cx="715.23" cy="419.02" rx="15.92" ry="17.76"/><ellipse class="cls-3" cx="708.24" cy="422.05" rx="6.99" ry="6.42"/><ellipse class="cls-11" cx="675.39" cy="419.02" rx="15.92" ry="17.76"/><ellipse class="cls-3" cx="668.4" cy="422.05" rx="6.99" ry="6.42"/><path class="cls-3" d="M686.91,427.19s-14,12.91-6.08,16.32,10.48,1.4,10.48,1.4l-1.54-18.54Z"/><path class="cls-5" d="M742,473.93s2.39,31.25-2.34,43.16.41,24-8.86,24-13.38-14.37-11.32-32.34-1.44-30.64-1.44-30.64S733.45,465.57,742,473.93Z"/><path class="cls-5" d="M692.07,483.09s-7.37,17-9,31.35-.55,26.67-9.44,26.67S659,522.39,660,508.58s-.12-37.52-.12-37.52Z"/><path class="cls-3" d="M701.77,453.31c1.92-.25,12.33-3.27,14,1.76s-4.93,7.43-10.55,6.93-15.5-5.67-12.2-7.18S701.77,453.31,701.77,453.31Z"/><path class="cls-10" d="M730.31,467.61c33.13-1.79-.75-82.73-4.84-96.19s9.54-3.13,3.07-29.74a33.41,33.41,0,0,0-3.68-9.15,31.18,31.18,0,0,1,16.76,21.17c6.48,26.61-7.15,16.28-3.06,29.74s38,94.4,4.84,96.19c-28.11,1.51-83.88,18.41-92.85-7.67C671.09,478.94,708.8,468.77,730.31,467.61Z"/><polygon class="cls-3" points="671.84 392.19 668.34 399.56 685.59 407.06 688.46 403.64 671.84 392.19"/><polygon class="cls-3" points="718.7 395.61 722.38 402.99 704.27 410.49 701.25 407.06 718.7 395.61"/><rect class="cls-5" x="180.96" y="125.42" width="11.84" height="52.04"/><rect class="cls-4" x="176.94" y="145.32" width="19.63" height="11.23"/><polygon class="cls-5" points="198.13 86.86 197.67 86.86 197.67 113.12 174.78 113.12 174.78 88.35 164.4 106.33 175.64 125.81 198.13 125.81 209.37 106.33 198.13 86.86"/><polygon class="cls-5" points="175.64 215.01 176.09 215.01 176.09 188.75 198.99 188.75 198.99 213.52 209.37 195.54 198.13 176.06 175.64 176.06 164.4 195.54 175.64 215.01"/><rect class="cls-8" x="247.79" y="162.36" width="19.63" height="61.37"/><rect class="cls-5" x="254.7" y="101.02" width="4.65" height="61.35"/><rect class="cls-4" x="244.08" y="171.85" width="27.05" height="11.23"/><polygon class="cls-5" points="375.61 199.71 364.6 199.71 364.18 157.96 374.71 157.96 375.61 199.71"/><rect class="cls-4" x="357.13" y="170.49" width="25.45" height="10.57"/><polygon class="cls-8" points="431.39 211.74 411.76 211.74 415.55 150.37 426.74 150.37 431.39 211.74"/><rect class="cls-4" x="408.05" y="176.78" width="27.05" height="11.23"/><polygon class="cls-8" points="305.5 85.93 316.08 85.93 316.08 97 313.8 100.88 316.08 101.99 312.3 106.33 317.22 108.53 313.8 111.17 321 114.2 313.8 118.35 317.41 120.43 313.25 123.56 316.27 125.81 312.3 128.33 317.6 128.33 315.52 131.68 315.52 145.75 306.44 145.75 305.5 85.93"/><polygon class="cls-5" points="323.61 206.68 303.98 206.68 305.5 130.83 318.96 145.31 323.61 206.68"/><rect class="cls-4" x="300.28" y="154.79" width="27.05" height="11.23"/><polyline class="cls-12" points="348.59 135.36 358.36 135.36 361.03 131.89 364.63 141.9 369.3 133.96 371.83 139.36 375.7 130.48 380.1 135.85 392.81 135.85"/><circle class="cls-13" cx="370.7" cy="135.85" r="22.11"/><path class="cls-5" d="M427.43,162.83v-15h-3.14v-8s-1.39-10.78,6.22-10.78,7.23,7.23,7.23,7.23,7.64-13.83-6.77-13.83-13.78,14.47-13.78,24.74l-5.43-.13v17.16Z"/><polygon class="cls-8" points="381.94 212.18 359.72 212.18 364 194.44 376.68 194.44 381.94 212.18"/><rect class="cls-5" x="96.24" y="409.47" width="268.18" height="103.79"/><rect class="cls-4" x="397.73" y="432.83" width="17.78" height="20.02"/><rect class="cls-5" x="441.08" y="448.59" width="66.41" height="11.95"/><rect class="cls-8" x="422.25" y="431.1" width="66.41" height="11.95"/><rect class="cls-5" x="447.35" y="396.11" width="66.41" height="26.2"/><rect class="cls-8" x="453.63" y="379.21" width="37.65" height="11.95"/><rect class="cls-4" x="346.43" y="460.26" width="213.87" height="58.74"/><polygon class="cls-4" points="165.91 403.79 165.91 417.44 246.32 432.51 265.62 432.51 289.94 412.15 289.94 396.27 168.31 403.65 165.91 403.79"/><polygon class="cls-8" points="246.72 419.72 165.91 403.79 165.91 417.44 245.31 432.51 246.72 419.72"/><polygon class="cls-5" points="266.82 418.15 246.72 419.72 245.31 432.51 265.62 432.51 266.82 418.15"/><polygon class="cls-8" points="289.94 396.27 266.82 418.15 265.62 432.51 289.94 412.15 289.94 396.27"/><rect class="cls-8" x="183.51" y="305.4" width="11.66" height="100.97"/><rect class="cls-8" x="271.95" y="300.41" width="11.66" height="100.97"/><rect class="cls-5" x="219.78" y="344.67" width="39.8" height="22.55"/><polygon class="cls-4" points="222.58 346.26 219.46 347.65 192.79 305.65 195.91 304.27 222.58 346.26"/><polygon class="cls-4" points="259.5 347.95 256.07 347.24 269.72 301.08 273.15 301.79 259.5 347.95"/><rect class="cls-8" x="245.54" y="313.76" width="11.66" height="100.97"/><polygon class="cls-4" points="165.91 292.23 165.91 305.88 246.32 320.94 265.62 320.94 289.94 300.58 289.94 284.7 168.31 292.08 165.91 292.23"/><polygon class="cls-8" points="246.72 308.15 165.91 292.23 165.91 305.88 245.31 320.94 246.72 308.15"/><polygon class="cls-5" points="266.82 306.58 246.72 308.15 245.31 320.94 265.62 320.94 266.82 306.58"/><polygon class="cls-8" points="289.94 284.7 266.82 306.58 265.62 320.94 289.94 300.58 289.94 284.7"/><rect class="cls-14" x="154.15" y="232.15" width="291.4" height="13.44"/><rect class="cls-4" x="471.3" y="170.64" width="9.49" height="84.52" rx="4.74" ry="4.74"/><rect class="cls-15" x="492" y="170.64" width="9.49" height="84.52" rx="4.74" ry="4.74"/><rect class="cls-4" x="512.7" y="243.09" width="9.49" height="42.26" rx="4.74" ry="4.74"/><rect class="cls-15" x="512.7" y="168.92" width="9.49" height="84.52" rx="4.74" ry="4.74"/><rect class="cls-5" x="492" y="233.61" width="9.49" height="30.19" rx="4.74" ry="4.74"/><rect class="cls-5" x="530.81" y="170.64" width="9.49" height="90.56" rx="4.74" ry="4.74"/><text class="cls-16" transform="translate(448.47 509.2)">!</text><text class="cls-17" transform="translate(96.24 216.34) rotate(90)">Ma<tspan class="cls-18" x="79.44" y="0">k</tspan><tspan x="111.58" y="0">er</tspan><tspan x="0" y="64.28">S</tspan><tspan class="cls-19" x="34.23" y="64.28">p</tspan><tspan x="68.78" y="64.28">a</tspan><tspan class="cls-20" x="101.24" y="64.28">c</tspan><tspan x="128.24" y="64.28">e</tspan></text></g></svg>