<svg xmlns="http://www.w3.org/2000/svg" xmlns:xlink="http://www.w3.org/1999/xlink" viewBox="0 0 838 588"><defs><style>.cls-1,.cls-14,.cls-15,.cls-2,.cls-21,.cls-22{fill:none;}.cls-1{clip-rule:evenodd;}.cls-3{clip-path:url(#clip-path);}.cls-4{clip-path:url(#clip-path-2);}.cls-5{clip-path:url(#clip-path-3);}.cls-6{fill:#14114b;}.cls-16,.cls-19,.cls-7{fill:#fff;}.cls-10,.cls-8{fill:#ff6c4d;}.cls-9{fill:#f2f2f2;}.cls-10{opacity:0.41;}.cls-11{opacity:0.14;fill:url(#未命名漸層_7);}.cls-12{fill:#ff8b6b;}.cls-13{fill:#f4432d;}.cls-14,.cls-21{stroke:#14114b;}.cls-14,.cls-15,.cls-21,.cls-22{stroke-miterlimit:10;}.cls-14{stroke-width:7px;}.cls-15,.cls-22{stroke:#fff;}.cls-15{stroke-width:3px;}.cls-16{font-size:53.57px;font-family:NotoSansCJKtc-Black-B5pc-H, Noto Sans CJK TC;}.cls-17{letter-spacing:0em;}.cls-18{letter-spacing:-0.03em;}.cls-19{opacity:0.19;}.cls-20{clip-path:url(#clip-path-4);}.cls-21{stroke-width:10px;}.cls-22{stroke-width:4px;}</style><clipPath id="clip-path"><path class="cls-1" d="M-2131,76.49c-.1.15.68,87.51.68,87.51l21,.21s56.87,6.6,57.34-41.73-53.49-45.84-53.49-45.84Z"/></clipPath><clipPath id="clip-path-2"><path class="cls-1" d="M-2300.37-5355.51c-.09.15.69,87.51.69,87.51l21,.21s56.86,6.6,57.33-41.73-53.48-45.84-53.48-45.84Z"/></clipPath><clipPath id="clip-path-3"><path class="cls-1" d="M-2278.37-5433.51c-.09.15.69,87.51.69,87.51l21,.21s56.86,6.6,57.33-41.73-53.48-45.84-53.48-45.84Z"/></clipPath><linearGradient id="未命名漸層_7" x1="313.17" y1="480.59" x2="232.13" y2="572.32" gradientUnits="userSpaceOnUse"><stop offset="0" stop-color="#fff"/><stop offset="1" stop-color="#fff" stop-opacity="0"/></linearGradient><clipPath id="clip-path-4"><circle class="cls-2" cx="152.32" cy="139" r="71"/></clipPath></defs><title>hero</title><g id="圖層_5" data-name="圖層 5"><rect class="cls-6" width="840" height="592"/><path class="cls-7" d="M529.37,258.66,548,274.5H523.78S450,295.65,385.91,263.32c-50.59-25.51-47.7-40.53-42.85-55C359,161,404.54,199,444.6,206.5c21.24,3.95,68.93,11.17,72.66,26.08S522.85,246.55,529.37,258.66Z"/><polygon class="cls-8" points="385.44 217.52 372 240.81 398.89 240.81 385.44 217.52"/><rect class="cls-8" x="412.92" y="225.13" width="23.29" height="23.29"/><circle class="cls-8" cx="456.71" cy="240.96" r="10.25"/><path class="cls-6" d="M484,238.48a2.35,2.35,0,0,0-2.61-2.43,5.06,5.06,0,0,0-3.66,1.88l-3.55-3.26a10.53,10.53,0,0,1,8-3.8c4.5,0,8,2.13,8,7.17s-6.19,6.52-5.72,11.31h-5.62C478,243.77,484,241.45,484,238.48Zm-6.2,17.14a3.84,3.84,0,1,1,3.84,4A3.83,3.83,0,0,1,477.82,255.62Z"/><circle class="cls-9" cx="641" cy="259" r="13"/><circle class="cls-8" cx="757.01" cy="185.01" r="15.25"/><circle class="cls-10" cx="757.01" cy="185.01" r="29.66"/><rect class="cls-7" x="753.62" y="-0.42" width="6.78" height="132.36"/><polygon class="cls-7" points="757.01 127.03 714.64 185.01 795.14 185.01 757.01 127.03"/><polygon class="cls-9" points="755.76 130.4 770.88 185.01 795.14 184.69 759.31 130.4 755.76 130.4"/><circle class="cls-8" cx="555.32" cy="149.58" r="10.27"/><circle class="cls-10" cx="555.32" cy="149.58" r="19.98"/><rect class="cls-7" x="553.03" y="24.69" width="4.57" height="89.14"/><polygon class="cls-7" points="555.32 110.53 526.78 149.58 581 149.58 555.32 110.53"/><polygon class="cls-9" points="554.48 112.8 564.66 149.58 581 149.36 556.87 112.8 554.48 112.8"/><circle class="cls-8" cx="479.34" cy="137.1" r="7.06"/><circle class="cls-10" cx="479.34" cy="137.1" r="13.73"/><rect class="cls-7" x="477.77" y="51.24" width="3.14" height="61.29"/><polygon class="cls-7" points="479.34 110.26 459.73 137.1 497 137.1 479.34 110.26"/><polygon class="cls-9" points="478.76 111.82 485.76 137.1 497 136.95 480.41 111.82 478.76 111.82"/><polygon class="cls-11" points="412 400 0 476 2 592 344 592 615 498 452 372 412 400"/><path class="cls-8" d="M283.07,413.05s-1.19,46.5-.09,58.56,6.57,20.82,11,21.91,5.47-27.39,8.76-35.06,7.67-26.3,7.67-26.3Z"/><path class="cls-8" d="M352.63,460.55c.56-.36,5.48,29.59,8.77,34s15.24-22.64,13.1-35.43-15.3-11.69-15.3-11.69Z"/><path class="cls-12" d="M310.37,308.79s9.48-46.23,17.78-53.34,4.74,0,4.74,0l3.56,10.67-4.74,33.19,13-24.89,4.74,13,10.66-17.78,8.3-1.18-4.74,33.19V324.2l-53.34-7.11Z"/><path class="cls-8" d="M333.38,308.33s-17.53-5.48-27.39,9.87-31.78,55.88-25.2,78.89-6.58,53.7,36.16,61.37,38.35,1.09,42.73,0,18.63,3.29,18.63-11-1.09-53.69,0-72.32S369.55,302.85,333.38,308.33Z"/><circle class="cls-7" cx="351.94" cy="353.2" r="12.13"/><path class="cls-13" d="M351.94,341.07a12.13,12.13,0,0,0-12.13,12.13c0,.1,0,1.13,0-1h24.22c0,2.16,0,1.13,0,1A12.13,12.13,0,0,0,351.94,341.07Z"/><path class="cls-6" d="M355.28,359.35a7,7,0,0,0,7-7c0-.06,0-.11,0-.16h-14v.16A7,7,0,0,0,355.28,359.35Z"/><circle class="cls-7" cx="344.27" cy="388.27" r="12.13"/><path class="cls-13" d="M344.27,376.14a12.13,12.13,0,0,0-12.13,12.13c0,.09,0,1.12,0-1h24.22c0,2.16,0,1.13,0,1A12.13,12.13,0,0,0,344.27,376.14Z"/><path class="cls-6" d="M347.61,394.42a7,7,0,0,0,7-7c0-.05,0-.1,0-.16h-14v.16A7,7,0,0,0,347.61,394.42Z"/><circle class="cls-7" cx="354.13" cy="418.95" r="12.13"/><path class="cls-13" d="M354.13,406.82A12.13,12.13,0,0,0,342,419c0,.09,0,1.13,0-1h24.22c0,2.17,0,1.13,0,1A12.13,12.13,0,0,0,354.13,406.82Z"/><path class="cls-6" d="M357.47,425.1a7,7,0,0,0,7-7c0-.06,0-.11,0-.17h-14a1,1,0,0,0,0,.17A7,7,0,0,0,357.47,425.1Z"/><path class="cls-13" d="M372.68,453.46c-4.38,1.09,0,7.67-42.73,0s-29.59-38.35-36.16-61.37,15.34-63.55,25.2-78.89a24.33,24.33,0,0,1,5.05-5.74A22.61,22.61,0,0,0,306,318.2c-9.86,15.34-31.78,55.88-25.2,78.89s-6.58,53.7,36.16,61.37,38.35,1.09,42.73,0c3.64-.91,14,1.94,17.5-5.18A20.75,20.75,0,0,0,372.68,453.46Z"/><path class="cls-6" d="M329,415s0,5,6,7,2,10-13,5S329,415,329,415Z"/><circle class="cls-9" cx="596" cy="264" r="28"/><circle class="cls-9" cx="625" cy="236" r="22"/><circle class="cls-9" cx="663" cy="233" r="22"/><circle class="cls-9" cx="678" cy="275" r="28"/><circle class="cls-9" cx="684" cy="240" r="19"/><circle class="cls-9" cx="678" cy="307" r="19"/><path class="cls-8" d="M613.87,263.45C596,275,584.71,266.5,579.32,314.82c-5.2,46.51-15.25,85.36,1,83,3.15-.44,13.77-35.56,37-31.35s35.08,43.15,42.2,40.7S674.15,374,670.9,321.47,625.27,256.08,613.87,263.45Z"/><ellipse class="cls-7" cx="607.9" cy="296.71" rx="12.92" ry="14.28" transform="translate(234.03 860.45) rotate(-82.46)"/><ellipse class="cls-6" cx="601.16" cy="295.82" rx="6.66" ry="7.36" transform="translate(229.06 853) rotate(-82.46)"/><path class="cls-6" d="M607.69,318.7s-3.6-.31-6.79-.51c-5.81-.35-8.9,3.37-4.5,4.73,3.28,1,5.15,2.43,11.2,1C616,321.84,607.69,318.7,607.69,318.7Z"/><path class="cls-13" d="M609.57,365.47c-18.22-3.29-29.06,16.67-34.11,26.37-1.12,7.76-.37,10.06,4.9,6,2.33-1.78,12.15-30.71,32-31.67A24.79,24.79,0,0,0,609.57,365.47Z"/><path class="cls-13" d="M670.9,321.47c-2.74-44.45-28.59-57.82-46-58.48,17.6,3.86,35.84,19.07,38.21,57.45C666,366.5,660.57,395.8,654.4,404c2,2.42,3.67,3.74,5.16,3.23C666.68,404.75,674.15,374,670.9,321.47Z"/><path class="cls-13" d="M630.91,330.22S614.3,341.1,606,354.39c-2.86,4.56,30.33-.18,32.19-22.07C639.53,316.07,630.91,330.22,630.91,330.22Z"/><circle class="cls-9" cx="641" cy="263" r="21"/><rect class="cls-8" x="524.41" y="462.43" width="265.59" height="117.04"/><rect class="cls-8" x="422" y="319.5" width="120.42" height="104.66"/><polygon class="cls-7" points="422 319.5 524.41 462.43 790 462.43 542.42 319.5 422 319.5"/><ellipse class="cls-14" cx="616.13" cy="411.78" rx="60.77" ry="24.2"/><ellipse class="cls-14" cx="519.35" cy="379.11" rx="38.26" ry="15.23"/><ellipse class="cls-14" cx="518.22" cy="338.8" rx="29.26" ry="11.65"/><path class="cls-15" d="M624.69,250.79s6.41-24.61,33.39-23.54c26.13,1,11.51,18.15,11.51,18.15"/><circle class="cls-8" cx="668.19" cy="248.55" r="7.86"/><polygon class="cls-8" points="598.12 378.96 581.88 407.09 614.37 407.09 598.12 378.96"/><polygon class="cls-8" points="636.38 382.21 615.16 418.97 657.61 418.97 636.38 382.21"/><rect class="cls-8" x="494.02" y="365.64" width="20.26" height="20.26"/><rect class="cls-8" x="525.54" y="353.26" width="20.26" height="20.26"/><rect class="cls-8" x="519.91" y="378.02" width="10.13" height="10.13"/><circle class="cls-8" cx="518.78" cy="327.38" r="12.38"/><rect class="cls-13" x="67.98" y="316.96" width="12.6" height="14.83" transform="translate(-123.41 56.69) rotate(-23.55)"/><rect class="cls-12" x="77.84" y="335.76" width="10.38" height="67.47" transform="translate(-140.71 63.94) rotate(-23.55)"/><rect class="cls-12" x="96.19" y="327.76" width="10.38" height="67.47" transform="translate(-135.99 70.61) rotate(-23.55)"/><rect class="cls-7" x="63.52" y="327.16" width="30.4" height="14.83" transform="translate(-127.11 59.32) rotate(-23.55)"/><rect class="cls-13" x="67.92" y="340.87" width="30.4" height="7.83" transform="translate(-130.83 61.92) rotate(-23.55)"/><path class="cls-8" d="M148,348s-35-16-48,21-37,45,14,53,66,2,77,0,30-3,18-38-9-34-25-36S154,345,148,348Z"/><circle class="cls-7" cx="149.65" cy="381.55" r="10.64"/><circle class="cls-6" cx="153.09" cy="381.48" r="4.91"/><circle class="cls-7" cx="192.65" cy="378.55" r="10.64"/><circle class="cls-6" cx="196.09" cy="378.48" r="4.91"/><path class="cls-6" d="M176,401c-5,0-9,2-8,4s5-1,8,1,9,4,9,0S178,401,176,401Z"/><path class="cls-8" d="M98,417s-10,22-12,39,4,21,10,21,2-21,16-30,7-24.24,7-24.24Z"/><path class="cls-8" d="M155,428s0,27,5,39,11,3,11,3,8-22,5-29-3-15.74-3-15.74L157,421l-3.91,5Z"/><path class="cls-8" d="M200.44,414.22s16,14.56,12.56,31.78,9.25,17.58,1.22,19.87-16.07,2.3-17.22-19.51-14.11-30.23-14.11-30.23L194.13,414Z"/><path class="cls-13" d="M208,410c-15,5.21-40.55,19.64-77,0-45.45-24.49-27-16-14-53a46.67,46.67,0,0,1,5.73-11.43c-8.66,2.21-17.49,8.5-22.73,23.43-13,37-37,45,14,53s66,2,77,0c7.25-1.32,18-2.21,21-12.7A28.77,28.77,0,0,0,208,410Z"/><rect class="cls-12" x="49" y="387" width="61" height="45" transform="translate(-63.16 17.51) rotate(-9.01)"/><rect class="cls-12" x="95.6" y="388.88" width="7" height="33" transform="translate(-62.27 20.53) rotate(-9.01)"/><rect class="cls-12" x="86.02" y="390.58" width="4" height="24" transform="translate(-61.97 18.76) rotate(-9.01)"/><rect class="cls-12" x="76.14" y="392.15" width="4" height="24" transform="translate(-62.34 17.23) rotate(-9.01)"/><rect class="cls-12" x="66.27" y="393.71" width="4" height="24" transform="translate(-62.71 15.7) rotate(-9.01)"/><rect class="cls-7" x="60" y="394" width="61" height="45" transform="translate(-64.12 19.32) rotate(-9.01)"/><rect class="cls-6" x="106.6" y="395.88" width="7" height="33" transform="translate(-63.23 22.34) rotate(-9.01)"/><rect class="cls-6" x="97.02" y="397.58" width="4" height="24" transform="translate(-62.93 20.57) rotate(-9.01)"/><rect class="cls-6" x="87.14" y="399.15" width="4" height="24" transform="translate(-63.3 19.04) rotate(-9.01)"/><rect class="cls-6" x="77.27" y="400.71" width="4" height="24" transform="translate(-63.67 17.51) rotate(-9.01)"/><text class="cls-16" transform="translate(767.71 239) rotate(90)">Se<tspan class="cls-17" x="66.15" y="0">r</tspan><tspan x="91.28" y="0">vi</tspan><tspan class="cls-18" x="140.99" y="0">c</tspan><tspan x="167.98" y="0">e</tspan></text><rect class="cls-7" x="210.09" y="136.52" width="65.93" height="3.38" transform="translate(381.27 -104.85) rotate(90)"/><rect class="cls-19" x="203.89" y="136.52" width="78.33" height="3.38" transform="translate(381.27 -104.85) rotate(90)"/><rect class="cls-8" x="221.93" y="130.32" width="42.26" height="15.78" transform="translate(381.27 -104.85) rotate(90)"/><circle class="cls-7" cx="245.31" cy="121.59" r="1.69"/><circle class="cls-7" cx="238.55" cy="129.48" r="1.69"/><circle class="cls-7" cx="247.57" cy="133.98" r="1.69"/><circle class="cls-7" cx="241.37" cy="141.31" r="1.69"/><circle class="cls-7" cx="241.37" cy="135.68" r="1.69"/><circle class="cls-7" cx="249.26" cy="153.71" r="1.69"/><circle class="cls-7" cx="240.24" cy="155.96" r="1.69"/><circle class="cls-7" cx="245.88" cy="148.07" r="1.69"/><circle class="cls-7" cx="238.55" cy="146.38" r="1.69"/><rect class="cls-7" x="24.09" y="136.52" width="65.93" height="3.38" transform="translate(195.27 81.15) rotate(90)"/><rect class="cls-19" x="17.89" y="136.52" width="78.33" height="3.38" transform="translate(195.27 81.15) rotate(90)"/><rect class="cls-8" x="35.93" y="130.32" width="42.26" height="15.78" transform="translate(195.27 81.15) rotate(90)"/><circle class="cls-7" cx="59.31" cy="121.59" r="1.69"/><circle class="cls-7" cx="52.55" cy="129.48" r="1.69"/><circle class="cls-7" cx="61.57" cy="133.98" r="1.69"/><circle class="cls-7" cx="55.37" cy="141.31" r="1.69"/><circle class="cls-7" cx="55.37" cy="135.68" r="1.69"/><circle class="cls-7" cx="63.26" cy="153.71" r="1.69"/><circle class="cls-7" cx="54.24" cy="155.96" r="1.69"/><circle class="cls-7" cx="59.88" cy="148.07" r="1.69"/><circle class="cls-7" cx="52.55" cy="146.38" r="1.69"/><rect class="cls-7" x="732.52" y="370.79" width="5.34" height="76.35" transform="translate(1470.37 817.93) rotate(180)"/><rect class="cls-7" x="746.53" y="370.79" width="5.34" height="76.35" transform="translate(1498.39 817.93) rotate(180)"/><path class="cls-8" d="M737.88,349h7.24a9.5,9.5,0,0,1,9.5,9.5v27.68a0,0,0,0,1,0,0H728.38a0,0,0,0,1,0,0V358.5A9.5,9.5,0,0,1,737.88,349Z"/><rect class="cls-7" x="739.5" y="365.02" width="6.23" height="12.98" transform="translate(1114.12 -371.11) rotate(90)"/><circle class="cls-7" cx="152.32" cy="139" r="71"/><g class="cls-20"><path class="cls-8" d="M81.32,161.09s17.36-41,58.38-18.93,48.12,36.28,74.94,18.93,30,15.78,30,15.78l-18.93,41L73.43,222.62Z"/></g><circle class="cls-21" cx="152.32" cy="139" r="59.56"/><path class="cls-6" d="M121.29,123.73h6.58v10.4h9v-10.4h6.5v27.35h-6.5V139.83h-9v11.25h-6.58Z"/><path class="cls-6" d="M147.37,149.14c3.53-3.2,5.89-5.75,5.89-7.8a1.76,1.76,0,0,0-1.83-2,3.39,3.39,0,0,0-2.39,1.37l-1.83-1.82a5.87,5.87,0,0,1,4.67-2.18,4.28,4.28,0,0,1,4.62,4.43c0,2.43-2.08,5.1-4.24,7.28a18.92,18.92,0,0,1,2.29-.19h2.6v2.84h-9.78Z"/><path class="cls-6" d="M160,137.25c0-9,5.07-14,12.54-14s12.53,5.11,12.53,14-5.07,14.34-12.53,14.34S160,146.22,160,137.25Zm18.38,0c0-5.29-2.24-8.41-5.84-8.41s-5.81,3.12-5.81,8.41,2.2,8.68,5.81,8.68S178.4,142.58,178.4,137.25Z"/><ellipse class="cls-22" cx="292.5" cy="375.5" rx="6.5" ry="9.5"/></g></svg>