<svg id="8d25ff4f-597c-4d36-bfa0-7467ff2df99a" data-name="圖層 1" xmlns="http://www.w3.org/2000/svg" viewBox="0 0 129.82 147.3"><defs><style>.a145ba65-3b6b-4091-bc12-f365b7785759{fill:#f9fcfc;}.a53d337d-31b2-4057-85e4-9d55e3288904{fill:#c4e6e0;}</style></defs><title>index_</title><g id="ee228455-58db-4d41-b94d-9d70ed7e265b" data-name="4NLYTV"><path class="a145ba65-3b6b-4091-bc12-f365b7785759" d="M78.68,34c-3,0-6-.1-9,0-1.76.08-2.19-.52-2.13-2.2.12-3.32,0-3.33,3.37-3.33H88.58c.44,0,.87,0,1.31,0,.75,0,1.27-.14,1.24-1.06s-.53-.91-1.17-.9-1,0-1.53,0c-5,0-10-.1-15.06,0-2.23.06-1.73-1.32-1.79-2.56s-.12-2.37,1.82-2.32c5.31.12,10.62.05,15.93,0,.77,0,1.87.38,1.79-1.13-.07-1.34-1.06-1-1.76-1-6.11,0-12.22-.06-18.33,0-1.61,0-2.32-.3-2.22-2.13.2-3.71-.5-3.21,3.25-3.24,2.9,0,5.79,0,8.85,0-.33-1.43-1.48-2.14-2.13-3.47,2.43-.52,4.74-1,7-1.51,1.33-.32,1.81.69,2.07,1.47,1.11,3.32,3.51,4,6.58,3.51a2.8,2.8,0,0,1,.87,0c3.79.64,6.69-.42,8.15-4.24.35-.92,1-.84,1.79-.67,2,.48,4.09.94,6.15,1.42-.2,1.31-1.23,2.05-1.86,3.48,3.44,0,6.66,0,9.87,0,1,0,2.47-.56,2.81.42a9.67,9.67,0,0,1,.11,4.3c-.13,1-1.2.57-1.85.58-5.89,0-11.79,0-17.68,0h-1.53c-.74,0-1.48-.08-1.48,1s.72,1.06,1.47,1.06h16.15c2.52,0,3.67,1.78,2.72,4.17-.39,1-1.23.6-1.88.61-5.38,0-10.77,0-16.15,0-.36,0-.73,0-1.09,0-.78-.05-1.24.17-1.21,1.07s.56.88,1.17.88l6.33,0c5.17,0,10.33,0,15.5,0,1.34,0,1.92.25,1.9,1.78,0,3.74.05,3.73-3.61,3.75-2.32,0-4.65,0-7,.09-.1,0-.19.17-.44.4a30.34,30.34,0,0,0,10.59,5.24c2,.59,2,1.25.88,2.68a31.57,31.57,0,0,0-1.79,2.74c-1.63,2.51-1.62,2.47-4.39,1.23-1.3-.58-2.8-2.33-3.73-1.67s0,2.89-.4,4.33c-.71,2.83,1.36,3.49,3.13,4.52,3.63,2.09,3.61,2.1.48,4.85-.74.65-1.72,1.07-2.27,2.31,2.05.18,4,.38,5.9.5,1,.06,1.35.37.93,1.33a4.77,4.77,0,0,0-.16.63c-1.5,5.34-1.5,5.37-7,4.62-6.63-.9-13-2.66-18.42-6.74a8.12,8.12,0,0,1-2.17-1.8c-2.86-4.58-7.39-3-11.37-3-1.67,0-.72,1.7-.9,2.62s.24,1.48,1.36,1.33c2.52-.33,5.06-.51,7.58-.89,1.49-.22,2.23-.11,2.18,1.76-.11,4.21,0,4.34-4,4.85-6,.74-12,1.25-18,1.91-1.13.13-1.62-.24-1.66-1.35,0-.43-.19-.86-.2-1.29,0-1.3-1-2.79-.29-3.8S72.22,61,73.43,61c1-.06,1.19-.52,1.18-1.38q0-6.11,0-12.22c0-1.12-.23-1.37-1.38-.93-3.86,1.5-3.88,1.45-5.73-2.38-1.66-3.44-1.65-3.41,1.95-4.7C72.78,38.16,76,36.76,78.68,34ZM95.24,51.15h10.47c.81,0,1.62.1,1.56-1.17s-.91-.94-1.55-.94q-10.58,0-21.16,0C83.88,49,83,48.78,83,50s.74,1.19,1.57,1.19ZM95,43H84.57c-.78,0-1.65-.19-1.61,1.12,0,1.09.69,1.06,1.46,1.06h21.34c.71,0,1.46.12,1.5-1S106.5,43,105.69,43Zm-9.21-5.09h5.87c1.31,0,1-.85.62-1.46-.76-1.38-.19-2.06,1.18-2.31C90.05,33.48,87.23,34.05,85.82,37.94Zm21.64,0c-2.1-1.91-3.05-4.58-6.09-3.87-.63.15-2-.5-1.71.76.23,1.07-.17,2.91,1.67,3.07S105,37.89,107.45,37.89Zm-6.06,18.37c3.79,3.66,7.44,3.61,9.49,0Z"/><path class="a145ba65-3b6b-4091-bc12-f365b7785759" d="M10.8,28.24c-.52.16-.85.24-1.17.37C5.29,30.36,5.29,30.36,3.4,26c-1.56-3.6-1.56-3.61,2.21-4.81a66.34,66.34,0,0,0,21-10.76,4.14,4.14,0,0,1,2.4-.82,15.84,15.84,0,0,1,11.32,3.14c6.07,4.46,13.17,7,20.43,9,1.45.39,2,.86,1.17,2.33a18.5,18.5,0,0,0-1.74,4.22c-.5,2.08-1.57,2-3.14,1.28-1.37-.62-2.81-1.08-4.44-1.7,0,6.78,0,13.31,0,19.84,0,1.68,1.47,1.85,2.43,2.43,1.29.77,1.51,1.29.18,2.25-2.45,1.76-4.83,3.63-7.48,5.64a40.51,40.51,0,0,0,9.15,1.6c2.49.2,2.49.16,1.78,2.62l-.07.21c-1.58,5.36-1.59,5.39-7,4.46-10.54-1.8-19.15-6.62-24.84-16a1.9,1.9,0,0,0-1.72-1C19,49.55,19,49.54,19,55.38c0,3.79,0,3.79,3.75,3.14,2-.35,4-.6,6-1.09,1.56-.38,1.79.17,1.78,1.57,0,5.2.05,5.24-5,6.15-5.65,1-11.34,1.75-17.06,2.32-1.28.13-2.15,0-2.1-1.58A8,8,0,0,0,6,64.62c-.19-1.36-.9-3-.41-4,.59-1.25,2.48-.43,3.78-.67.91-.17,1.41-.34,1.4-1.43C10.79,48.47,10.8,38.45,10.8,28.24Zm20.92,3c-3.7,0-7.39.06-11.09,0-1.4,0-1.68.53-1.7,1.78s.33,1.76,1.7,1.74q11.09-.09,22.18,0c1.38,0,1.71-.47,1.7-1.75s-.29-1.81-1.7-1.77C39.12,31.34,35.42,31.28,31.72,31.27Zm0,12.39c3.71,0,7.42-.07,11.13,0,1.46,0,1.7-.6,1.65-1.81,0-1.06.11-1.95-1.51-1.93q-11.24.11-22.48,0c-1.6,0-1.51.83-1.55,1.91s.16,1.87,1.63,1.84C24.29,43.6,28,43.66,31.71,43.66ZM18.3,25h9.37c.06-1.63-.88-3-1.09-4.63,1.83-.16,3.61-.36,5.39-.46,4.17-.25,4.17-.23,4.94,3.81.12.62,0,1.35,1,1.35,2.68,0,5.35,0,8,0-4.59-2.82-9-5.56-13.21-8.67-.48-.35-.94-.73-1.54-.25C27.11,19.42,22.68,22.12,18.3,25ZM34.71,50A16.07,16.07,0,0,0,39,54.25a1.13,1.13,0,0,0,1.39.22A32.67,32.67,0,0,0,46.73,50Z"/><path class="a145ba65-3b6b-4091-bc12-f365b7785759" d="M76.5,124.75c-1,2.56-1.92,5.12-2.84,7.7-.44,1.23-.89,1.67-2.06.56-1.68-1.61-4.18-2.73-5.1-4.65-1-2.09,1.49-4.06,2.21-6.2A59,59,0,0,0,71.4,103c0-1.89,0-3.78,0-5.67,0-1-.3-1.43-1.24-.71-1.38,1-1.75.47-1.95-1a53.3,53.3,0,0,0-1.13-5.33,1.81,1.81,0,0,1,1.13-2.39,57.88,57.88,0,0,0,13.26-9.49c1.89-1.79,6.36-2.38,8.65-1.07a105.68,105.68,0,0,1,14,9.59c.94.76,1.2,1.4.27,2.26-2.65,2.43-3,5.5-2.89,8.9.2,4.72,0,9.46.1,14.18.05,1.81-.57,2.14-2.2,2.12-6.11-.08-12.22,0-18.33,0-.44,0-.88,0-1.31,0-1.17-.11-1.53.55-1.57,1.56-.06,1.33,1,.83,1.55.83,7.06,0,14.11.08,21.17,0,1.69,0,2.23.41,2.19,2.15-.12,4.73-.09,9.46,0,14.18,0,1.35-.39,1.83-1.73,1.71a35.17,35.17,0,0,0-3.71,0c-1.06,0-2.06.11-2-1.48.05-.86-.72-.76-1.28-.76q-4.47,0-8.95,0c-.43,0-1.16,0-1.14.37.18,2.52-1.63,1.83-2.92,1.84-4.52,0-4.52,0-4.52-4.54q0-2.71,0-5.42ZM97.22,92.23a88.52,88.52,0,0,0-7.51-6.75c-2.87-2.33-2.83-2.29-5.48.19-2.29,2.14-4.67,4.18-7.32,6.55h3.19c3.87,0,3.87,0,2.71-3.77a35.31,35.31,0,0,0,4.66-1c2-.71,3.23-.12,3.51,2,.34,2.52,1.78,3.18,4.05,2.81A18,18,0,0,1,97.22,92.23ZM86.52,108.42h0c2.18,0,4.36,0,6.54,0,1,0,1.43-.33,1.42-1.38s-.32-1.32-1.26-1.32c-4.36,0-8.72,0-13.07,0-1.19,0-1.21.63-1.25,1.51s.43,1.22,1.31,1.21C82.31,108.4,84.41,108.42,86.52,108.42Zm3.52,18c1.44,0,2.89-.06,4.33,0s1.4-.83,1.39-1.82,0-1.85-1.43-1.8c-2.67.08-5.35.06-8,0-1.25,0-2.14-.08-2.17,1.72s.79,2,2.2,1.9C87.58,126.41,88.81,126.47,90,126.47Zm-3.52-25.79h6.53c.74,0,1.44,0,1.42-1.08,0-.93-.35-1.32-1.27-1.31q-6.53,0-13.07,0c-1,0-1.22.47-1.2,1.36s.52,1,1.26,1C82.31,100.66,84.42,100.67,86.52,100.68Z"/><path class="a145ba65-3b6b-4091-bc12-f365b7785759" d="M52.28,121.55l3.81,1.17c-.93,1.74-2.74,2.57-4.08,4.15,2.68,1,5.36,1,8,1.25,1.27.12,1.74.34,1.2,1.64-.38.94-.6,1.94-.9,2.91-1,3.25-1,3.23-4.26,2.75-6.71-1-13.07-2.76-18.43-7.2a27.55,27.55,0,0,1-5.46-5.9c-.65-1-4.64-1.74-5.5-1-.65.55-.33,1.36-.34,2.05,0,4.31,0,4.31,4.27,3.93s4.12-.37,4.24,3.9c0,1.68-.44,2.2-2.14,2.32-5.66.37-11.3.91-16.95,1.45-1.13.11-1.86,0-2-1.31a2.33,2.33,0,0,0-.14-.41c-1.3-4.38-1.3-4.42,3.2-4.73,1.35-.09,2-.46,1.85-1.93a19.46,19.46,0,0,1,0-2.4c0-3.15,0-3.09-3.17-3.07-1.19,0-1.62.41-1.83,1.55a44.12,44.12,0,0,1-3.75,11.11c-.63,1.3-1.13,1.86-2.45.61a58.73,58.73,0,0,0-4.72-3.87c-.79-.61-1.12-1.05-.41-2.08,3.19-4.64,4.36-9.94,4.52-15.47.1-3.42.07-6.84,0-10.25,0-1.23.35-1.61,1.59-1.61q24.33.06,48.66,0c1.21,0,1.68.31,1.65,1.58-.12,5.27.65,4.2-4,4.22q-19,.08-38,0c-1.53,0-2.29.23-2.1,2a22,22,0,0,1,0,4.57c-.17,1.6.47,1.91,1.95,1.9,13.38-.05,26.77,0,40.15-.07,2,0,3,.36,2.62,2.55a7.7,7.7,0,0,0,0,2c.09,1.05-.37,1.41-1.39,1.38-1.88-.05-3.77,0-5.66,0Zm-4.35-.32a51.5,51.5,0,0,0-7.81.1C43.89,125.5,45,125.51,47.93,121.23Z"/><path class="a145ba65-3b6b-4091-bc12-f365b7785759" d="M31.81,99.47c-7.27,0-14.54,0-21.81,0-1.49,0-2-.33-1.94-1.9.11-5.23.08-10.47,0-15.7,0-1.35.4-1.74,1.73-1.71,3.27.09,6.54,0,9.81.05,1.31,0,1.94-.32,1.7-1.69s.5-1.89,1.86-1.79a23.46,23.46,0,0,0,3.49,0c1.73-.13,3.06,0,2.65,2.33-.15.84.37,1.15,1.18,1.11a15.72,15.72,0,0,1,2.18,0c1.24.12,2-.22,1.77-1.65s.49-1.93,1.88-1.82a23.62,23.62,0,0,0,3.05,0c1.75-.08,3.44-.22,3,2.45-.19,1.13.8,1,1.5,1,3.42,0,6.83.07,10.25,0,1.46,0,1.83.46,1.82,1.85-.07,5.23-.09,10.47,0,15.7,0,1.52-.52,1.77-1.87,1.76-7.41-.06-14.83,0-22.24,0Zm13.09-5v0c.43,0,.86,0,1.29,0,1,.06,1.65-.05,1.65-1.33s-.7-1.36-1.65-1.32-2,0-3,0c-.8,0-.9.54-.86,1.18s-.14,1.38.86,1.4C43.75,94.46,44.32,94.45,44.89,94.45ZM32.54,91.84H31.08c-1,0-1.86-.08-1.82,1.4s.87,1.24,1.75,1.23H33.4c.58,0,1-.19,1-.84s.27-1.32-.33-1.57A4.08,4.08,0,0,0,32.54,91.84Zm-13.62,0H17.84c-.88,0-1.71-.1-1.71,1.26S17,94.52,18,94.48a18.06,18.06,0,0,1,1.94,0c.93.06,1.47-.16,1.46-1.28S21,91.73,20,91.84A9.57,9.57,0,0,1,18.92,91.84Zm26.23-6.51c-.5,0-1,0-1.51,0-.82,0-1.34.13-1.34,1.16s.54,1.19,1.35,1.17l3.24,0c.77,0,.92-.5.92-1.16s-.16-1.14-.93-1.14ZM31.87,87.64h0c.36,0,.73,0,1.09,0,.92.07,1.53-.1,1.49-1.27s-.72-1.06-1.47-1c-.94,0-1.89,0-2.83,0s-.84.64-.83,1.25.13,1,.81,1S31.29,87.64,31.87,87.64Zm-13,0h0c.36,0,.73,0,1.08,0,1,.09,1.46-.2,1.43-1.3s-.73-1-1.46-1H17.06c-.8,0-.91.51-.9,1.16s.14,1.15.93,1.15Z"/><path class="a145ba65-3b6b-4091-bc12-f365b7785759" d="M123.85,104.13c0,8.07,0,16.13,0,24.2,0,4.6-1.92,6.41-6.56,6.43-2.4,0-4.8,0-7.19,0-1,0-1.47-.25-1.56-1.3s-.36-2.15-.56-3.22c-.77-4.08-.77-4.08,3.47-3.74,4.87.39,4.87.39,4.87-4.54,0-14.1,0-28.2,0-42.3,0-1.61.27-2.45,2.1-2.18s4.15-.77,5.19.43c.88,1,.3,3.32.3,5.05q0,10.57,0,21.15Z"/><path class="a145ba65-3b6b-4091-bc12-f365b7785759" d="M113.08,101.33c0,6,0,12.07,0,18.1,0,1.51-.4,2-1.94,2-5.41,0-5.41.06-5.41-5.25,0-10.9,0-21.81,0-32.71,0-1.68.41-2.24,2.17-2.22,5.18.06,5.18,0,5.18,5.05S113.08,96.32,113.08,101.33Z"/><path class="a145ba65-3b6b-4091-bc12-f365b7785759" d="M35.72,113.2c-5.66,0-11.33-.05-17,0-1.58,0-2.07-.53-1.87-2,.17-1.21-.6-2.71,1.83-2.69q17.21.18,34.42,0c2.26,0,1.66,1.35,1.76,2.54s.07,2.18-1.72,2.15C47.34,113.13,41.53,113.2,35.72,113.2Z"/><path class="a53d337d-31b2-4057-85e4-9d55e3288904" d="M129.82,147.3H0v-.42H129.79Z"/><path class="a53d337d-31b2-4057-85e4-9d55e3288904" d="M129.79.42H0V0H129.81Z"/></g></svg>