<svg xmlns="http://www.w3.org/2000/svg" xmlns:xlink="http://www.w3.org/1999/xlink" viewBox="0 0 184.05 169"><defs><style>.cls-1{fill:#ff6c4d;}.cls-2,.cls-8{fill:none;stroke-miterlimit:10;}.cls-2{stroke:#ff6c4d;stroke-width:3px;}.cls-3{fill:#fff;}.cls-4{fill:#14114b;}.cls-5{fill:#f4432d;}.cls-6{fill:url(#未命名漸層_5);}.cls-7{fill:url(#未命名漸層_5-2);}.cls-8{stroke:#fff;stroke-width:2px;}</style><linearGradient id="未命名漸層_5" x1="-222.3" y1="29.82" x2="-205.41" y2="12.18" gradientTransform="matrix(0.86, 0.26, -0.11, 0.93, 322.39, 131.08)" gradientUnits="userSpaceOnUse"><stop offset="0" stop-color="#ff6c4d"/><stop offset="1" stop-color="#ff8b6b"/></linearGradient><linearGradient id="未命名漸層_5-2" x1="-77.46" y1="-149.19" x2="-59.83" y2="-167.6" gradientTransform="matrix(0.44, 0.99, -1.01, 0.24, -48.96, 221.85)" xlink:href="#未命名漸層_5"/></defs><title>maker</title><g id="圖層_6" data-name="圖層 6"><circle class="cls-1" cx="72.21" cy="28.25" r="3.92"/><path class="cls-2" d="M94.81,33.22s11.57-11.9,3.18-16-22.42-4.78-26.24,7.64"/><path class="cls-1" d="M48.2,128.86s15.2,31.07,17.49,30.79S71.2,143.76,68.38,141,48.2,128.86,48.2,128.86Z"/><path class="cls-1" d="M102.18,141.65c.55-4.16,21.53-18.68,21.53-18.68s-5.62,35.78-12.29,36.69C111.42,159.66,101.42,147.34,102.18,141.65Z"/><path class="cls-1" d="M94.81,33.22C86.5,32.72,54,81,49.3,98.68c-7.66,28.9,3.46,51.9,28.71,50.89,38-1.52,42.35-12.94,46.22-31.37s4.11-35.12-3.71-54.9C115.22,49.88,104.76,33.81,94.81,33.22Z"/><circle class="cls-3" cx="94.63" cy="67.23" r="10.65"/><circle class="cls-4" cx="99.44" cy="71.05" r="4.81"/><path class="cls-5" d="M80.4,65.93c2.13.8,7-6.53,11.44-6.09s13,1,10.92.89,1.64-5.08-.84-6.17-6.35-4.59-13.3-.67S75.4,64.07,80.4,65.93Z"/><path class="cls-4" d="M92.91,88.27c3-1.9,8.86-2.58,12.91-1.4l.12,0c3.9,1.17,3.06,3.4,3.06,3.4s-22.11.65-19.58-.19A18.09,18.09,0,0,0,92.91,88.27Z"/><path class="cls-5" d="M82.46,145.88c-25.25,1-36.36-22-28.7-50.9C57.53,80.73,79.34,46.68,92,34.21,80.9,41.13,53.57,82.57,49.3,98.68c-7.66,28.9,3.46,51.9,28.71,50.89,21-.84,31.73-4.72,37.78-11.14C109.26,142.65,99.08,145.21,82.46,145.88Z"/><path class="cls-6" d="M118.33,99s21.07-10.09,22.91-17.9c2-8.4,19.44,14.49-15.83,31.67"/><polygon class="cls-4" points="86.4 103.02 99.52 157.06 135.97 129.46 132.16 88.76 86.4 103.02"/><path class="cls-7" d="M61.24,98.92s33.8,24.93,40.62,19.8-2.73,22.66-48.53-7.3"/><rect class="cls-4" x="140.08" y="69.04" width="3.54" height="28.31" transform="translate(-18.53 46.87) rotate(-17.63)"/><polygon class="cls-1" points="135.88 70.24 135.84 64.23 139.25 69.17 135.88 70.24"/><polyline class="cls-8" points="110.05 124.41 116.95 128.86 123.71 106.39"/></g></svg>