<svg xmlns="http://www.w3.org/2000/svg" xmlns:xlink="http://www.w3.org/1999/xlink" viewBox="0 0 184.05 169"><defs><style>.cls-1{fill:#ff6c4d;}.cls-2,.cls-9{fill:none;stroke-miterlimit:10;}.cls-2{stroke:#ff6c4d;stroke-width:3px;}.cls-3{fill:#fff;}.cls-4{fill:#14114b;}.cls-5{fill:url(#未命名漸層_5);}.cls-6{fill:url(#未命名漸層_5-2);}.cls-7{fill:url(#未命名漸層_5-3);}.cls-8{fill:#f4432d;}.cls-9{stroke:#14114b;stroke-width:2px;}.cls-10{fill:#3d3d78;}</style><linearGradient id="未命名漸層_5" x1="7.4" y1="73.24" x2="23.7" y2="56.22" gradientTransform="matrix(-1.17, -0.16, 0.11, 1.12, 53.97, 10.89)" gradientUnits="userSpaceOnUse"><stop offset="0" stop-color="#ff6c4d"/><stop offset="1" stop-color="#ff8b6b"/></linearGradient><linearGradient id="未命名漸層_5-2" x1="115.7" y1="94.45" x2="131.99" y2="77.43" gradientTransform="matrix(1, 0, 0, 1, 0, 0)" xlink:href="#未命名漸層_5"/><linearGradient id="未命名漸層_5-3" x1="28.7" y1="30" x2="69.82" y2="30" gradientTransform="matrix(1, 0, 0, 1, 0, 0)" xlink:href="#未命名漸層_5"/></defs><title>maker</title><g id="圖層_6" data-name="圖層 6"><path class="cls-1" d="M90.66,41.76c-5.57-2.35-42.72,25.82-40.07,71S85.36,145.7,100.48,142s37.42-18.69,19.66-54.69S103.51,47.2,90.66,41.76Z"/><polyline class="cls-2" points="89.48 16.33 92.92 24.97 87.49 27.14 90.21 34.52 87.49 40.28 91.48 48.29"/><circle class="cls-1" cx="89.49" cy="14.97" r="3.62"/><path class="cls-3" d="M91.64,62.16s8.15-.88,9.91,6.38-1.1,20.25-14.31,14S85.7,63.92,91.64,62.16Z"/><circle class="cls-4" cx="94.62" cy="69.45" r="5.32"/><path class="cls-5" d="M65.6,94.68S30.82,69.26,33.51,61.26s-20.75,9,22.71,44.55"/><path class="cls-6" d="M105.21,95.42s27.88-18.69,24.9-26.24,18.65,10.69-15.89,37.44"/><path class="cls-4" d="M38.22,46.79S27.15,90.9,30.84,100.52h5.23s-6.15-21.74,7.07-51.88Z"/><rect class="cls-4" x="26.01" y="40.88" width="34.26" height="9.06" transform="translate(23.61 -14.1) rotate(25.36)"/><path class="cls-7" d="M28.7,11.35S32,28.92,29.6,34s31,14.68,31,14.68,6.72-9.4,9.26-7.55L62,42l3.46-6-6.14,3.6,1.53-7.52-4.62,3.46,1.39-5.51-5.54,6V24.73l-1.85,6.46-2.76-9.61S44,28,44,27.27s-4.16-11.84-4.16-11.84l-1.62,7.68L33.15,11.35,35,22.88Z"/><path class="cls-8" d="M83.65,66s18.83.51,18.13-.83.16-3.82-9-3.92C82.71,61.08,83.46,64.08,83.65,66Z"/><path class="cls-9" d="M144,77.38s-9.12,7.55-16.21-5.76,4.63-20.94,4.63-20.94"/><path class="cls-4" d="M144.63,78.7l-13-29L157,43.22s5.28,5,7.73,10.5a25.61,25.61,0,0,1,2.21,10.55Z"/><ellipse class="cls-10" cx="138.13" cy="64.2" rx="3.44" ry="15.88" transform="translate(-14.18 62.12) rotate(-24.14)"/><path class="cls-4" d="M72.78,98.15s10.65-2.39,17.39,0,.66,3.81-13.51,4.56S72.78,98.15,72.78,98.15Z"/><path class="cls-1" d="M51.48,122.37s14.29,43.19,17.33,43.24,10-19.74,6.8-23.8S51.48,122.37,51.48,122.37Z"/><path class="cls-1" d="M100.11,139.1c1-3.74,22-14.42,22-14.42s-9.61,32.07-15.83,32.07C106.33,156.75,98.71,144.22,100.11,139.1Z"/><path class="cls-8" d="M103.88,137.48c-15,3.73-46.91,16-49.54-29.21A79.45,79.45,0,0,1,71.28,54.81C60.29,67,49.1,87.16,50.59,112.75c2.63,45.18,34.53,32.95,49.54,29.22,7.11-1.77,15.82-6.06,21.14-13.91A38.53,38.53,0,0,1,103.88,137.48Z"/></g></svg>