<svg xmlns="http://www.w3.org/2000/svg" viewBox="0 0 350 452.5"><defs><style>.fb51e489-f532-4554-b7e9-fe85814d2c71{fill:#c4c0c8;}.\31 be7a181-d5ef-43e5-a1ed-4dc738d9afc8{fill:#f5f7f9;}.ce4f776a-4d69-48f7-941e-93023dda009c{fill:#f1f3f6;}.f3c5d432-03a4-4d26-82c8-1ce8591cfe7c{fill:#fff;}.ad02c4a8-d418-4e4c-aa21-39b5ad606886{fill:#dad6d5;}.\38 449df3d-803d-4376-a55f-cdbb569910ae{fill:#a9aaae;}.\31 fb9b7da-2430-474b-ab27-4f5560caef3b{fill:#f9f9f9;}.\30 14e8922-abe3-4fba-914f-bbd763fd11d7{fill:#fbfbfb;}.\36 006fad7-5966-4361-a79f-5c066c47bb6f{fill:#f1f1f2;}.\35 852b881-4387-43fa-a90a-a8de9f0ee198{fill:#ff3b49;}.\35 e7fe2eb-dc15-4c59-85bc-e4138ea7db89{fill:#23233c;}.b0687d36-73a1-47e8-ba06-81d6f9338fc9{fill:#f7945e;}.\31 f22e3da-35d4-4510-a34e-00919f616c47{fill:#f99158;}.\30 5b4c4a2-2310-4e09-b28f-476d771a1f67{fill:#f99b67;}.a4566bce-4e62-4516-918c-da3dabead6c8{fill:#ff9856;}.\37 fd90677-4068-489e-92cc-82f391d39eb2{fill:#f08b55;}.\31 8ab9e98-3baa-4a94-ad5f-b02d5da89dfd{fill:#fffab1;}.\39 52c7da8-6398-405d-9372-47ef5003a9fc{fill:#fff463;}.\36 5910510-f7dc-4635-ba57-6d1948df5b6a{fill:#3fc8e8;}.\39 d041b8f-9330-401e-82e4-2da1fb8b8aca,.d0c16325-1c29-42c5-87f1-7cc968eb22ed{fill:none;stroke-linecap:round;stroke-miterlimit:10;}.d0c16325-1c29-42c5-87f1-7cc968eb22ed{stroke:#eaeaea;stroke-width:6px;}.\31 83eecdb-e307-4d1d-9367-9243f3cbeb5a{fill:#e7e6e8;}.\37 c57f051-9742-46f5-93eb-4458b4653c15{fill:#1b1323;}.\39 d041b8f-9330-401e-82e4-2da1fb8b8aca{stroke:#fff;}</style></defs><title>spaceman</title><g id="251965dd-2b93-4f2c-a62e-9a2243dde48d" data-name="落地"><rect class="fb51e489-f532-4554-b7e9-fe85814d2c71" x="113.32" y="132.5" width="123.49" height="119.57" rx="11.47" ry="11.47" transform="translate(-8.89 8.48) rotate(-2.71)"/><path class="1be7a181-d5ef-43e5-a1ed-4dc738d9afc8" d="M145.89,160.57c-7.84.37-26.67,8.53-26.67,8.53,9.73-1.32,22.76-.67,32.58,3.86C151.83,171.28,148.43,162.7,145.89,160.57Z"/><path class="1be7a181-d5ef-43e5-a1ed-4dc738d9afc8" d="M119.22,169.1s8-15.19,16.25-18.95A18.6,18.6,0,0,0,122,144.52C124.14,151.56,119.22,169.1,119.22,169.1Z"/><path class="ce4f776a-4d69-48f7-941e-93023dda009c" d="M119.22,169.1s18.83-8.15,26.67-8.53c-2.38-5.11-8.36-10.74-10.42-10.42C127.27,153.91,119.22,169.1,119.22,169.1Z"/><path class="ce4f776a-4d69-48f7-941e-93023dda009c" d="M112,166.5s15.34,16.11,28.74,17.77,11-11.31,11-11.31S123.9,161.83,112,166.5Z"/><path class="1be7a181-d5ef-43e5-a1ed-4dc738d9afc8" d="M112.41,164.76a13,13,0,0,0-.56,8.82c1.49,4.56,13,14.62,24.92,16.84l4-6.15S119.88,175.24,112.41,164.76Z"/><path class="f3c5d432-03a4-4d26-82c8-1ce8591cfe7c" d="M52.38,130.69s4.93,8.84,30.71,24.37c0,0,15.89,14.92,28.76,18.52,0,0,9.35-5.44,11.35-11C125,157.49,52.38,130.69,52.38,130.69Z"/><path class="fb51e489-f532-4554-b7e9-fe85814d2c71" d="M38.06,120.45c.68.18,10.4,4.86,12.22,4.45L58,107.73l2.56-2.23c-.64-3.41-10.93-10.17-16.25-12-2.31-.8-6.57-1.21-8.87-.36-1.46.54-5.48,1.64-7.23,4.65-2.19,3.75-2.66,6.83-1.94,10.36a9.7,9.7,0,0,0,2.86,4.11,12.42,12.42,0,0,0,4.17,1.94,3.69,3.69,0,0,0-.33.8,3.61,3.61,0,0,0,.12,1.93,4.39,4.39,0,0,0,2.16,2.34A13.83,13.83,0,0,0,38.06,120.45Z"/><path class="f3c5d432-03a4-4d26-82c8-1ce8591cfe7c" d="M129.85,145.25c-2.72-3.23-12.05-12.73-28-20.53-9.58-9.84-24.16-21.34-37.7-22.54C57,105,52,126,51.68,130.13c4.33,3.71,18.74,9.79,31.55,16.68C97,157.41,107.41,163.07,116.32,166c4.18.4,8.26-6.49,10.09-9.66C127.85,153.81,131.8,147.57,129.85,145.25Z"/><path class="ad02c4a8-d418-4e4c-aa21-39b5ad606886" d="M52.38,130.69c2.71-.83,13.2-25.74,11.76-28.5-1.7-3.25-4.56-2.83-6.09-2.7C54.74,99.78,45,126.4,46.2,128.93,46.88,130.31,50.71,131.2,52.38,130.69Z"/><path class="1be7a181-d5ef-43e5-a1ed-4dc738d9afc8" d="M203.64,155.38c7.68.66,25.77,9.47,25.77,9.47-9.49-1.67-22.31-1.49-32.16,2.67C197.29,165.84,201,157.41,203.64,155.38Z"/><path class="1be7a181-d5ef-43e5-a1ed-4dc738d9afc8" d="M229.41,164.85s-7.17-15.44-15-19.48a18.33,18.33,0,0,1,13.51-5.13C225.42,147.18,229.41,164.85,229.41,164.85Z"/><path class="ce4f776a-4d69-48f7-941e-93023dda009c" d="M229.41,164.85s-18.09-8.81-25.77-9.47c2.58-5,8.72-10.4,10.73-10C222.24,149.41,229.41,164.85,229.41,164.85Z"/><path class="ce4f776a-4d69-48f7-941e-93023dda009c" d="M236.59,162.51S220.76,178,207.53,179.19s-10.28-11.67-10.28-11.67S225.17,157.43,236.59,162.51Z"/><path class="1be7a181-d5ef-43e5-a1ed-4dc738d9afc8" d="M236.3,160.77a13.13,13.13,0,0,1,.13,8.81c-1.68,4.49-13.42,14.11-25.27,15.89l-3.63-6.28S228.46,170.95,236.3,160.77Z"/><path class="f3c5d432-03a4-4d26-82c8-1ce8591cfe7c" d="M296.87,129s-5.26,8.64-31.32,23.19c0,0-16.31,14.3-29.12,17.43,0,0-8.91-5.76-10.61-11.39C224.26,153.06,296.87,129,296.87,129Z"/><path class="fb51e489-f532-4554-b7e9-fe85814d2c71" d="M311.42,119.28c-.68.16-10.44,4.47-12.21,4l-6.75-17.41L290,103.56c.79-3.38,11.22-9.75,16.53-11.38,2.3-.71,6.51-1,8.72,0,1.41.59,5.3,1.83,6.87,4.9a13.72,13.72,0,0,1,1.41,10.4,9.83,9.83,0,0,1-3,4,12.28,12.28,0,0,1-4.19,1.78,3.18,3.18,0,0,1,.08,2.73,4.43,4.43,0,0,1-2.23,2.25A13.64,13.64,0,0,1,311.42,119.28Z"/><path class="f3c5d432-03a4-4d26-82c8-1ce8591cfe7c" d="M220.11,140.68c2.82-3.12,12.44-12.26,28.49-19.45,9.88-9.47,24.74-20.4,38.09-21.11,6.87,3,10.77,24.2,10.88,28.32-4.43,3.54-18.87,9.09-31.78,15.49-14.06,10.06-24.51,15.34-33.4,17.89-4.13.25-7.8-6.77-9.44-10C221.67,149.28,218.09,142.92,220.11,140.68Z"/><path class="ad02c4a8-d418-4e4c-aa21-39b5ad606886" d="M296.87,129c-2.62-.93-11.72-26.14-10.17-28.84,1.83-3.18,4.61-2.66,6.11-2.47,3.23.41,11.55,27.3,10.21,29.78C302.29,128.79,298.48,129.54,296.87,129Z"/><path class="fb51e489-f532-4554-b7e9-fe85814d2c71" d="M161.76,385.48a10.44,10.44,0,0,1-2.26,4.38c-1,1.08-2.31,1.88-3.32,2.91a30.32,30.32,0,0,0-2.89,3.81,25.2,25.2,0,0,1-24.1,11.21,13.81,13.81,0,0,1-5.89-3.07,29.31,29.31,0,0,1-2.79-3.26,13.67,13.67,0,0,1,5.4-13.76c4.32-3.41,9.65-6.9,12.42-10.75.7-1,18.12-1.76,25.25-1.51a34,34,0,0,1-.46,5.26C162.76,382.32,162.25,383.9,161.76,385.48Z"/><path class="8449df3d-803d-4376-a55f-cdbb569910ae" d="M123.3,404.72a13.81,13.81,0,0,0,5.89,3.07,25.2,25.2,0,0,0,24.1-11.21,30.32,30.32,0,0,1,2.89-3.81c1-1,2.36-1.83,3.32-2.91a10.44,10.44,0,0,0,2.26-4.38c.49-1.58,1-3.16,1.36-4.78a34,34,0,0,0,.46-5.26c1.81.06,3,.19,3,.4a14.59,14.59,0,0,1-.26,5c-.38,1.7-.91,3.36-1.43,5a13.57,13.57,0,0,1-2.54,5.18c-1,1.13-2.37,1.91-3.44,3a24.51,24.51,0,0,0-2.6,3.55c-5.81,8.52-15.54,13.71-25.72,12.06a15.37,15.37,0,0,1-6-2.33c-1.27-1-3.6-3.06-4-5.26,0-.2-.07-.4-.1-.6A29.31,29.31,0,0,0,123.3,404.72Z"/><path class="fb51e489-f532-4554-b7e9-fe85814d2c71" d="M228.76,381.63a10.44,10.44,0,0,1-2.26,4.38c-1,1.08-2.31,1.88-3.32,2.91a30.32,30.32,0,0,0-2.89,3.81,25.2,25.2,0,0,1-24.1,11.21,13.81,13.81,0,0,1-5.89-3.07,29.31,29.31,0,0,1-2.79-3.26,13.67,13.67,0,0,1,5.4-13.76c4.32-3.41,9.65-6.9,12.42-10.75.7-1,18.12-1.76,25.25-1.51a34,34,0,0,1-.46,5.26C229.76,378.47,229.26,380.05,228.76,381.63Z"/><path class="8449df3d-803d-4376-a55f-cdbb569910ae" d="M190.3,400.87a13.81,13.81,0,0,0,5.89,3.07,25.2,25.2,0,0,0,24.1-11.21,30.32,30.32,0,0,1,2.89-3.81c1-1,2.36-1.83,3.32-2.91a10.44,10.44,0,0,0,2.26-4.38c.49-1.58,1-3.16,1.36-4.78a34,34,0,0,0,.46-5.26c1.81.06,3,.19,3,.4a14.59,14.59,0,0,1-.26,5c-.38,1.7-.91,3.36-1.43,5a13.57,13.57,0,0,1-2.54,5.18c-1,1.13-2.37,1.91-3.44,3a24.51,24.51,0,0,0-2.6,3.55c-5.81,8.52-15.54,13.71-25.72,12.06a15.37,15.37,0,0,1-6-2.33c-1.27-1-3.6-3.06-4-5.26,0-.2-.07-.4-.1-.6A29.31,29.31,0,0,0,190.3,400.87Z"/><path class="1fb9b7da-2430-474b-ab27-4f5560caef3b" d="M128.39,324.29c-.62,18.3-1.05,36.88,5.33,51.19,1.46,3.26,10.66,4.1,14.05,4.36s12.69.21,16.52-1.53c2-.9,3.87-4.58,4.51-8.95,2.21-14.9,1.78-26.32,1.18-41Z"/><path class="1fb9b7da-2430-474b-ab27-4f5560caef3b" d="M234,319.3c2.34,18.16,4.53,36.61-.48,51.47-1.14,3.39-10.22,5.09-13.58,5.67s-12.61,1.41-16.59,0c-2-.71-4.28-4.19-5.34-8.48-3.6-14.62-4.26-26-5-40.69Z"/><path class="1fb9b7da-2430-474b-ab27-4f5560caef3b" d="M236.07,265.24,121.2,270.67c.07,10.22,4,44.86,7.57,54.75a14,14,0,0,0,6.64,7.79,25.75,25.75,0,0,0,7.22,2.47c3.82.7,10.89.06,14.71-.62a27.11,27.11,0,0,0,10.57-4.52c3.56-2.58,4-7,5.09-12.85a275.6,275.6,0,0,0,3.78-28.52,8.21,8.21,0,0,0,5.67-.27,275.6,275.6,0,0,0,6.45,28c1.68,5.73,2.49,10.08,6.28,12.32a27.11,27.11,0,0,0,10.95,3.5c3.87.31,11,.28,14.71-.77a25.75,25.75,0,0,0,7-3.14,14,14,0,0,0,5.88-8.38C236.29,310.27,237,275.42,236.07,265.24Z"/><path class="f3c5d432-03a4-4d26-82c8-1ce8591cfe7c" d="M212.56,319.47c-15.29,2.73-19.6,7.83-19.6,7.83a8.25,8.25,0,0,0,2.25,2,27.11,27.11,0,0,0,10.95,3.5c3.87.31,11,.28,14.71-.77a25.75,25.75,0,0,0,7-3.14,14,14,0,0,0,5.88-8.38c.1-.38.18-.77.27-1.15C234,319.3,228.2,316.68,212.56,319.47Z"/><path class="f3c5d432-03a4-4d26-82c8-1ce8591cfe7c" d="M149.73,322.44c15.48,1.28,20.25,5.94,20.25,5.94a8.25,8.25,0,0,1-2.06,2.16,27.11,27.11,0,0,1-10.57,4.52c-3.82.67-10.9,1.31-14.71.62a25.75,25.75,0,0,1-7.22-2.47,14,14,0,0,1-6.64-7.79c-.13-.37-.26-.75-.38-1.12C128.4,324.29,133.9,321.14,149.73,322.44Z"/><path class="014e8922-abe3-4fba-914f-bbd763fd11d7" d="M215.2,161.51c11.09,23.64,14.59,36,18,52,1.81,8.42,2.24,38.9,2.38,41.75L178.18,258l-4.79-101.22,30.45-6Z"/><path class="014e8922-abe3-4fba-914f-bbd763fd11d7" d="M132.22,165.43c-8.81,24.58-11.1,37.71-13,53.46-1,8.55,1.41,38.91,1.55,41.79L178.18,258l-4.79-101.22-30.88-3.1Z"/><path class="6006fad7-5966-4361-a79f-5c066c47bb6f" d="M165.24,287.08c2.47,2.25,7.29,2.8,14.42,2.46s11.87-1.34,14.12-3.81a80.54,80.54,0,0,1-14.2,2.24A80.46,80.46,0,0,1,165.24,287.08Z"/><rect class="ad02c4a8-d418-4e4c-aa21-39b5ad606886" x="147.93" y="194.71" width="56.05" height="33" rx="6.03" ry="6.03" transform="translate(-9.78 8.55) rotate(-2.71)"/><rect class="1be7a181-d5ef-43e5-a1ed-4dc738d9afc8" x="154.32" y="200.93" width="27.22" height="4.67" rx="2.34" ry="2.34" transform="translate(-9.41 8.16) rotate(-2.71)"/><rect class="1be7a181-d5ef-43e5-a1ed-4dc738d9afc8" x="154.71" y="209.23" width="27.22" height="4.67" rx="2.34" ry="2.34" transform="translate(-9.81 8.19) rotate(-2.71)"/><rect class="1be7a181-d5ef-43e5-a1ed-4dc738d9afc8" x="155.1" y="217.54" width="27.22" height="4.67" rx="2.34" ry="2.34" transform="translate(-10.2 8.21) rotate(-2.71)"/><circle class="5852b881-4387-43fa-a90a-a8de9f0ee198" cx="192.23" cy="204.45" r="4.67" transform="translate(-9.44 9.31) rotate(-2.71)"/><circle class="1be7a181-d5ef-43e5-a1ed-4dc738d9afc8" cx="192.8" cy="216.4" r="4.67" transform="translate(-10.01 9.35) rotate(-2.71)"/><rect class="ad02c4a8-d418-4e4c-aa21-39b5ad606886" x="120.9" y="257.96" width="115" height="10" transform="translate(-12.22 8.72) rotate(-2.71)"/><circle class="5e7fe2eb-dc15-4c59-85bc-e4138ea7db89" cx="201.52" cy="175.06" r="7.17" transform="translate(-8.04 9.71) rotate(-2.71)"/><path class="b0687d36-73a1-47e8-ba06-81d6f9338fc9" d="M204.51,174.61a3,3,0,0,0-.42-1.15c-1.23,1-4.05,1.41-5.56,1.26a2.72,2.72,0,0,0,.07,1.1A11.26,11.26,0,0,0,204.51,174.61Z"/><path class="1f22e3da-35d4-4510-a34e-00919f616c47" d="M204.09,173.47a3,3,0,0,0-.86-.89,5.51,5.51,0,0,1-2,.81,8,8,0,0,1-2.36.18,3,3,0,0,0-.38,1.16C200,174.88,202.87,174.44,204.09,173.47Z"/><path class="05b4c4a2-2310-4e09-b28f-476d771a1f67" d="M202.16,172.11a2.9,2.9,0,0,0-2.57.65A5.65,5.65,0,0,0,202.16,172.11Z"/><path class="a4566bce-4e62-4516-918c-da3dabead6c8" d="M201.27,173.38a5.51,5.51,0,0,0,2-.81,3,3,0,0,0-1.08-.46,5.65,5.65,0,0,1-2.57.65,3,3,0,0,0-.68.8A8,8,0,0,0,201.27,173.38Z"/><path class="1f22e3da-35d4-4510-a34e-00919f616c47" d="M200.44,177.88a3,3,0,0,0,3.1-.58A6.88,6.88,0,0,1,200.44,177.88Z"/><path class="a4566bce-4e62-4516-918c-da3dabead6c8" d="M199.5,177.3a3,3,0,0,0,.95.58,6.88,6.88,0,0,0,3.1-.58,3,3,0,0,0,.64-.8A9.61,9.61,0,0,1,199.5,177.3Z"/><path class="7fd90677-4068-489e-92cc-82f391d39eb2" d="M204.51,174.61a11.26,11.26,0,0,1-5.91,1.21,3,3,0,0,0,.66,1.22h0a3.06,3.06,0,0,0,.23.26,9.61,9.61,0,0,0,4.69-.8,2.66,2.66,0,0,0,.35-1.23A6,6,0,0,0,204.51,174.61Z"/><path class="5852b881-4387-43fa-a90a-a8de9f0ee198" d="M205,173.71c.57.13,1,.33.43.84a2.7,2.7,0,0,1-.5.31,13.23,13.23,0,0,1-3.41,1.09,19,19,0,0,1-3.12.27,2.77,2.77,0,0,1-.94-.12c-.41-.2,0-.7.27-1-.73.23-1.13.86-.78,1.33.21.29.85.47,1.92.49a19,19,0,0,0,2.94-.22,8.42,8.42,0,0,0,2.94-.91,3.85,3.85,0,0,0,1.27-1.05C206.42,174.23,206.07,173.56,205,173.71Z"/><circle class="18ab9e98-3baa-4a94-ad5f-b02d5da89dfd" cx="203.06" cy="169.72" r="0.34" transform="translate(-7.79 9.78) rotate(-2.71)"/><circle class="f3c5d432-03a4-4d26-82c8-1ce8591cfe7c" cx="195.7" cy="173.36" r="0.17" transform="translate(-7.97 9.44) rotate(-2.71)"/><circle class="952c7da8-6398-405d-9372-47ef5003a9fc" cx="199.92" cy="179.44" r="0.24" transform="translate(-8.25 9.64) rotate(-2.71)"/><circle class="65910510-f7dc-4635-ba57-6d1948df5b6a" cx="204.66" cy="172.53" r="0.1" transform="translate(-7.92 9.86) rotate(-2.71)"/><circle class="a4566bce-4e62-4516-918c-da3dabead6c8" cx="207.52" cy="237.91" r="5.24" transform="translate(-11.01 10.07) rotate(-2.71)"/><path class="d0c16325-1c29-42c5-87f1-7cc968eb22ed" d="M173.34,132.52s2.89-9.55,47.9-10.14c43.79-.57,37.8,22.81,60.81,43.26C314,194,286.62,274.25,207.51,237.9"/><path class="6006fad7-5966-4361-a79f-5c066c47bb6f" d="M204.57,140c2.9,14.45-6.41,18.24-31.06,19.41-24.19,1.14-34.28-1.69-32.75-16.39,1.17-11.31,12-19.35,31-20.25S202.33,128.86,204.57,140Z"/><path class="183eecdb-e307-4d1d-9367-9243f3cbeb5a" d="M204.77,136.23c2.92,14.45-9.2,18.55-31.43,19.6-21.77,1-34.69-1.84-33.14-16.55,1.19-11.32,12.12-19.35,31.4-20.27S202.51,125.08,204.77,136.23Z"/><path class="1be7a181-d5ef-43e5-a1ed-4dc738d9afc8" d="M117,118.07a8.41,8.41,0,0,1-5.61,1.43,6.41,6.41,0,0,1-3.08-1.31,5.71,5.71,0,0,1-1.29-2.7c-1.61-7.59-2.56-14.49-1.95-22.22a11,11,0,0,1,1.21-4.78c.84-1.43,2.48-2.75,4.08-2.33C112.61,86.74,117.92,117.41,117,118.07Z"/><path class="1be7a181-d5ef-43e5-a1ed-4dc738d9afc8" d="M226.29,113.11a8.41,8.41,0,0,0,5.75.71,6.41,6.41,0,0,0,2.89-1.69,5.71,5.71,0,0,0,.94-2.85c.63-7.73.71-14.7-.88-22.29a11,11,0,0,0-1.8-4.59c-1-1.31-2.81-2.42-4.35-1.79C226.71,81.47,225.33,112.56,226.29,113.11Z"/><path class="f3c5d432-03a4-4d26-82c8-1ce8591cfe7c" d="M230.14,92.54c1.56,33-24,57.88-57,59.44s-60.8-20.83-62.36-53.79a59.75,59.75,0,1,1,119.37-5.64Z"/><path class="7c57f051-9742-46f5-93eb-4458b4653c15" d="M214.9,97.4c1,22.19,1.9,40.19-42.35,42.28-45.37,2.15-45.1-15.9-46.15-38.09s18.79-22.5,43.23-23.65S213.85,75.21,214.9,97.4Z"/><circle class="f3c5d432-03a4-4d26-82c8-1ce8591cfe7c" cx="150.19" cy="117.08" r="4.18" transform="translate(-5.36 7.23) rotate(-2.71)"/><circle class="f3c5d432-03a4-4d26-82c8-1ce8591cfe7c" cx="187.23" cy="115.33" r="4.18" transform="translate(-5.24 8.97) rotate(-2.71)"/><path class="9d041b8f-9330-401e-82e4-2da1fb8b8aca" d="M146.92,106.61s2.48-3.37,5.64-1.83"/><path class="9d041b8f-9330-401e-82e4-2da1fb8b8aca" d="M189.54,104.41s-3-2.93-5.86-.9"/><path class="f3c5d432-03a4-4d26-82c8-1ce8591cfe7c" d="M158,128.63a32.67,32.67,0,0,0,23.73-2.29c.73-.37,0-1.43-.69-1.06a31.35,31.35,0,0,1-22.76,2.12c-.79-.22-1.06,1-.28,1.24Z"/></g></svg>