<svg xmlns="http://www.w3.org/2000/svg" viewBox="0 0 350 452.5"><defs><style>.\38 4f85e2d-ad43-426f-b1a0-c5f3360568c0{fill:#c4c0c8;}.\31 a65c345-8163-4daf-817e-98fdabbc45bf{fill:#f5f7f9;}.\33 c974370-1a2c-4a0d-962d-9de821474fcd{fill:#f1f3f6;}.\38 8a8bf75-91d3-4bd1-80f5-86848aa970ea{fill:#fff;}.b5d2d1a4-144c-4f20-a002-23f6accc01c6{fill:#a9aaae;}.a1ad69c0-7a2d-439c-b58c-3f8cf3b462b9{fill:#f9f9f9;}.\31 816b9e8-a92c-4551-bb72-cf0ff9c5bfb7{fill:#fbfbfb;}.\34 d2e6fae-4988-46fb-bafe-73988551354c{fill:#f1f1f2;}.\33 fc1a9d2-a3c5-42e8-8295-174d8445fea2{fill:#dad6d5;}.f9f5244e-b149-48e0-be29-e33897a02fc2{fill:#ff3b49;}.b5587573-bd1c-467c-a6f3-319642766fa3{fill:#23233c;}.\36 4eef596-7159-428b-b05c-44b2c1fbd606{fill:#f7945e;}.\34 2bd166d-611a-4035-91f8-d89e3aef1198{fill:#f99158;}.\39 7f3a181-7d2f-49c0-ad29-c519b3738cb2{fill:#f99b67;}.c5c5f0a1-372b-4b04-a70e-c4325c9b7ab6{fill:#ff9856;}.a4736968-f89c-442c-bc33-96e88ed385f0{fill:#f08b55;}.a9a16ca8-7881-4d94-8d6f-b888e3b7c801{fill:#fffab1;}.\30 eb83309-a81b-4f5e-810e-735f1d032aee{fill:#fff463;}.\38 3d3dc91-ce43-4531-b2d3-9ceaf6dfd024{fill:#3fc8e8;}.\35 8721851-eab8-432f-a3cc-21ba2632fb60{fill:#e7e6e8;}.\31 1f8ee6c-aff0-432a-a230-e26bbea70ae9,.\37 9573a4f-f23a-4322-a50b-978f30d0ab13{fill:none;stroke-linecap:round;stroke-miterlimit:10;}.\31 1f8ee6c-aff0-432a-a230-e26bbea70ae9{stroke:#eaeaea;stroke-width:6px;}.\38 eb418d7-a837-462f-9c2e-919719857a1d{fill:#1b1323;}.\37 9573a4f-f23a-4322-a50b-978f30d0ab13{stroke:#fff;}</style></defs><title>spaceman</title><g id="1fe85055-a8cf-47a5-81d3-e9d2f0d75a02" data-name="左顧右盼"><rect class="84f85e2d-ad43-426f-b1a0-c5f3360568c0" x="112.95" y="130.61" width="123.49" height="119.57" rx="11.47" ry="11.47" transform="translate(-6.06 5.74) rotate(-1.85)"/><path class="1a65c345-8163-4daf-817e-98fdabbc45bf" d="M236.5,153.48c1,7.79-3.82,27.73-3.82,27.73-.37-9.82-3.25-22.53-9.4-31.43C224.93,149.46,234,151.34,236.5,153.48Z"/><path class="1a65c345-8163-4daf-817e-98fdabbc45bf" d="M232.68,181.22s13.58-10.54,15.87-19.26a18.6,18.6,0,0,1,7.87,12.32C249.11,173.36,232.68,181.22,232.68,181.22Z"/><path class="3c974370-1a2c-4a0d-962d-9de821474fcd" d="M232.68,181.22s4.8-19.95,3.82-27.73c5.44,1.47,12,6.39,12.05,8.48C246.26,170.68,232.68,181.22,232.68,181.22Z"/><path class="3c974370-1a2c-4a0d-962d-9de821474fcd" d="M236.48,187.85S218,175.51,214,162.59s9.24-12.8,9.24-12.8S239,175.36,236.48,187.85Z"/><path class="1a65c345-8163-4daf-817e-98fdabbc45bf" d="M238.12,187.18a13,13,0,0,1-8.59,2.07c-4.75-.68-16.63-10.26-20.87-21.66l5.38-5S226.51,181.62,238.12,187.18Z"/><rect class="88a8bf75-91d3-4bd1-80f5-86848aa970ea" x="223.5" y="175.92" width="62.41" height="36.1" rx="18.05" ry="18.05" transform="translate(283.1 512.86) rotate(-132.38)"/><rect class="88a8bf75-91d3-4bd1-80f5-86848aa970ea" x="227.4" y="199.72" width="62.41" height="36.1" rx="18.05" ry="18.05" transform="translate(586.98 137.28) rotate(126.13)"/><path class="1a65c345-8163-4daf-817e-98fdabbc45bf" d="M116.57,151.69c-1.21,7.76,3,27.84,3,27.84.66-9.8,3.92-22.43,10.34-31.13C128.25,148,119.16,149.62,116.57,151.69Z"/><path class="1a65c345-8163-4daf-817e-98fdabbc45bf" d="M119.56,179.52s-13.26-10.94-15.29-19.72A18.6,18.6,0,0,0,96,171.88C103.37,171.18,119.56,179.52,119.56,179.52Z"/><path class="3c974370-1a2c-4a0d-962d-9de821474fcd" d="M119.56,179.52s-4.2-20.08-3-27.84c-5.48,1.31-12.2,6-12.3,8.11C106.3,168.58,119.56,179.52,119.56,179.52Z"/><path class="3c974370-1a2c-4a0d-962d-9de821474fcd" d="M115.56,186s18.87-11.79,23.19-24.58-8.86-13.08-8.86-13.08S113.38,173.48,115.56,186Z"/><path class="1a65c345-8163-4daf-817e-98fdabbc45bf" d="M113.94,185.32a13,13,0,0,0,8.52,2.32c4.76-.54,16.93-9.76,21.51-21l-5.22-5.16S125.71,180.11,113.94,185.32Z"/><path class="84f85e2d-ad43-426f-b1a0-c5f3360568c0" d="M158.5,383.37a10.44,10.44,0,0,1-2.32,4.35c-1,1.06-2.34,1.84-3.37,2.86a30.32,30.32,0,0,0-2.94,3.77,25.2,25.2,0,0,1-24.27,10.85,13.81,13.81,0,0,1-5.84-3.16,29.31,29.31,0,0,1-2.74-3.3,13.67,13.67,0,0,1,5.61-13.68c4.37-3.34,9.76-6.76,12.58-10.56.72-1,18.14-1.49,25.27-1.13a34,34,0,0,1-.54,5.25C159.55,380.22,159,381.8,158.5,383.37Z"/><path class="b5d2d1a4-144c-4f20-a002-23f6accc01c6" d="M119.76,402a13.81,13.81,0,0,0,5.84,3.16,25.2,25.2,0,0,0,24.27-10.85,30.32,30.32,0,0,1,2.94-3.77c1-1,2.38-1.8,3.37-2.86a10.44,10.44,0,0,0,2.32-4.35c.52-1.57,1-3.15,1.43-4.75a34,34,0,0,0,.54-5.25c1.81.09,3,.24,3,.45a14.59,14.59,0,0,1-.34,5c-.41,1.69-1,3.34-1.5,5a13.57,13.57,0,0,1-2.62,5.14c-1,1.11-2.4,1.88-3.48,2.94a24.51,24.51,0,0,0-2.65,3.51c-5.94,8.43-15.74,13.48-25.9,11.68a15.37,15.37,0,0,1-5.93-2.42c-1.25-1.07-3.55-3.12-3.94-5.32,0-.2-.06-.4-.09-.6A29.31,29.31,0,0,0,119.76,402Z"/><path class="84f85e2d-ad43-426f-b1a0-c5f3360568c0" d="M204.31,380.21a10.44,10.44,0,0,0,2.19,4.41c1,1.09,2.28,1.91,3.28,3a30.32,30.32,0,0,1,2.83,3.85A25.2,25.2,0,0,0,236.55,403a13.81,13.81,0,0,0,5.93-3,29.31,29.31,0,0,0,2.84-3.22,13.67,13.67,0,0,0-5.2-13.84c-4.26-3.47-9.55-7-12.26-10.93-.69-1-18.09-2-25.22-1.89a34,34,0,0,0,.38,5.27C203.36,377,203.84,378.62,204.31,380.21Z"/><path class="b5d2d1a4-144c-4f20-a002-23f6accc01c6" d="M242.48,400a13.81,13.81,0,0,1-5.93,3,25.2,25.2,0,0,1-23.93-11.57,30.32,30.32,0,0,0-2.83-3.85c-1-1-2.33-1.87-3.28-3a10.44,10.44,0,0,1-2.19-4.41c-.47-1.59-.95-3.18-1.29-4.8a34,34,0,0,1-.38-5.27c-1.81,0-3,.15-3,.36a14.59,14.59,0,0,0,.19,5c.36,1.7.86,3.37,1.35,5a13.57,13.57,0,0,0,2.46,5.21c1,1.15,2.34,1.95,3.39,3a24.51,24.51,0,0,1,2.55,3.59c5.69,8.61,15.33,13.95,25.54,12.45a15.37,15.37,0,0,0,6-2.24c1.28-1,3.64-3,4.09-5.2,0-.2.07-.4.11-.6A29.31,29.31,0,0,1,242.48,400Z"/><path class="a1ad69c0-7a2d-439c-b58c-3f8cf3b462b9" d="M126,321.69c-.89,18.29-1.6,36.86,4.56,51.27,1.41,3.29,10.6,4.26,14,4.57s12.68.4,16.54-1.28c2-.87,3.93-4.52,4.65-8.88,2.43-14.86,2.17-26.29,1.79-41Z"/><path class="a1ad69c0-7a2d-439c-b58c-3f8cf3b462b9" d="M231.71,318.28c2.07,18.19,4,36.68-1.25,51.45-1.19,3.37-10.3,4.93-13.66,5.46s-12.63,1.22-16.59-.21c-2-.74-4.22-4.25-5.21-8.56-3.38-14.67-3.87-26.09-4.43-40.76Z"/><path class="a1ad69c0-7a2d-439c-b58c-3f8cf3b462b9" d="M234.61,264.25,119.67,268c-.09,10.22,3.35,44.91,6.75,54.86a14,14,0,0,0,6.52,7.89,25.75,25.75,0,0,0,7.19,2.58c3.81.75,10.89.22,14.72-.4a27.11,27.11,0,0,0,10.64-4.36c3.6-2.53,4.06-6.93,5.29-12.78A275.6,275.6,0,0,0,175,287.29a8.21,8.21,0,0,0,5.68-.18,275.6,275.6,0,0,0,6,28.13c1.6,5.76,2.34,10.12,6.1,12.41a27.11,27.11,0,0,0,10.9,3.66c3.86.37,11,.44,14.72-.55a25.75,25.75,0,0,0,7-3,14,14,0,0,0,6-8.29C234.15,309.28,235.35,274.45,234.61,264.25Z"/><path class="88a8bf75-91d3-4bd1-80f5-86848aa970ea" d="M210.29,318.13c-15.33,2.5-19.72,7.53-19.72,7.53a8.25,8.25,0,0,0,2.22,2,27.11,27.11,0,0,0,10.9,3.66c3.86.37,11,.44,14.72-.55a25.75,25.75,0,0,0,7-3,14,14,0,0,0,6-8.29c.1-.38.19-.77.29-1.15C231.7,318.28,226,315.57,210.29,318.13Z"/><path class="88a8bf75-91d3-4bd1-80f5-86848aa970ea" d="M147.42,320.16c15.46,1.51,20.16,6.24,20.16,6.24a8.25,8.25,0,0,1-2.09,2.13,27.11,27.11,0,0,1-10.64,4.36c-3.83.62-10.91,1.15-14.72.4a25.75,25.75,0,0,1-7.19-2.58,14,14,0,0,1-6.52-7.89c-.13-.38-.24-.75-.36-1.13C126.06,321.69,131.61,318.62,147.42,320.16Z"/><path class="1816b9e8-a92c-4551-bb72-cf0ff9c5bfb7" d="M215.29,160.22c10.73,23.8,14,36.25,17.24,52.25,1.69,8.45,1.66,38.93,1.75,41.78l-57.46,1.86-3.27-101.28,30.54-5.55Z"/><path class="1816b9e8-a92c-4551-bb72-cf0ff9c5bfb7" d="M132.26,162.9c-9.18,24.44-11.66,37.54-13.83,53.26-1.18,8.54.83,38.93.92,41.8l57.48-1.86-3.27-101.28-30.83-3.57Z"/><path class="4d2e6fae-4988-46fb-bafe-73988551354c" d="M163.45,285c2.44,2.28,7.24,2.9,14.38,2.67s11.89-1.16,14.18-3.6a80.54,80.54,0,0,1-14.23,2A80.46,80.46,0,0,1,163.45,285Z"/><rect class="3fc1a9d2-a3c5-42e8-8295-174d8445fea2" x="147.28" y="192.83" width="56.05" height="33" rx="6.03" ry="6.03" transform="translate(-6.67 5.77) rotate(-1.85)"/><rect class="1a65c345-8163-4daf-817e-98fdabbc45bf" x="153.78" y="198.93" width="27.22" height="4.67" rx="2.34" ry="2.34" transform="translate(-6.41 5.51) rotate(-1.85)"/><rect class="1a65c345-8163-4daf-817e-98fdabbc45bf" x="154.05" y="207.24" width="27.22" height="4.67" rx="2.34" ry="2.34" transform="translate(-6.68 5.52) rotate(-1.85)"/><rect class="1a65c345-8163-4daf-817e-98fdabbc45bf" x="154.32" y="215.55" width="27.22" height="4.67" rx="2.34" ry="2.34" transform="translate(-6.95 5.54) rotate(-1.85)"/><circle class="f9f5244e-b149-48e0-be29-e33897a02fc2" cx="191.68" cy="202.82" r="4.67" transform="translate(-6.45 6.29) rotate(-1.85)"/><circle class="1a65c345-8163-4daf-817e-98fdabbc45bf" cx="192.07" cy="214.77" r="4.67" transform="translate(-6.83 6.31) rotate(-1.85)"/><rect class="3fc1a9d2-a3c5-42e8-8295-174d8445fea2" x="119.48" y="256.11" width="115" height="10" transform="translate(-8.34 5.85) rotate(-1.85)"/><circle class="b5587573-bd1c-467c-a6f3-319642766fa3" cx="201.41" cy="173.57" r="7.17" transform="translate(-5.5 6.59) rotate(-1.85)"/><path class="64eef596-7159-428b-b05c-44b2c1fbd606" d="M204.41,173.17A3,3,0,0,0,204,172c-1.24,1-4.07,1.35-5.57,1.17a2.72,2.72,0,0,0,.05,1.11A11.26,11.26,0,0,0,204.41,173.17Z"/><path class="42bd166d-611a-4035-91f8-d89e3aef1198" d="M204,172a3,3,0,0,0-.84-.91,5.51,5.51,0,0,1-2,.78,8,8,0,0,1-2.37.14,3,3,0,0,0-.39,1.15C199.93,173.36,202.76,173,204,172Z"/><path class="97f3a181-7d2f-49c0-ad29-c519b3738cb2" d="M202.09,170.63a2.9,2.9,0,0,0-2.58.61A5.65,5.65,0,0,0,202.09,170.63Z"/><path class="c5c5f0a1-372b-4b04-a70e-c4325c9b7ab6" d="M201.19,171.89a5.51,5.51,0,0,0,2-.78,3,3,0,0,0-1.07-.48,5.65,5.65,0,0,1-2.58.61,3,3,0,0,0-.69.79A8,8,0,0,0,201.19,171.89Z"/><path class="42bd166d-611a-4035-91f8-d89e3aef1198" d="M200.29,176.37a3,3,0,0,0,3.11-.53A6.88,6.88,0,0,1,200.29,176.37Z"/><path class="c5c5f0a1-372b-4b04-a70e-c4325c9b7ab6" d="M199.35,175.78a3,3,0,0,0,.94.59,6.88,6.88,0,0,0,3.11-.53,3,3,0,0,0,.65-.79A9.61,9.61,0,0,1,199.35,175.78Z"/><path class="a4736968-f89c-442c-bc33-96e88ed385f0" d="M204.41,173.17a11.26,11.26,0,0,1-5.93,1.12,3,3,0,0,0,.64,1.23h0a3.06,3.06,0,0,0,.23.26,9.61,9.61,0,0,0,4.7-.73,2.66,2.66,0,0,0,.37-1.23A6,6,0,0,0,204.41,173.17Z"/><path class="f9f5244e-b149-48e0-be29-e33897a02fc2" d="M205,172.27c.57.14,1,.35.41.84a2.7,2.7,0,0,1-.51.3,13.23,13.23,0,0,1-3.43,1,19,19,0,0,1-3.12.23,2.77,2.77,0,0,1-.94-.13c-.41-.2,0-.7.29-1-.73.22-1.15.84-.8,1.32.21.29.84.48,1.91.52a19,19,0,0,0,2.95-.17,8.42,8.42,0,0,0,3-.86,3.85,3.85,0,0,0,1.28-1C206.31,172.81,206,172.13,205,172.27Z"/><circle class="a9a16ca8-7881-4d94-8d6f-b888e3b7c801" cx="203.03" cy="168.25" r="0.34" transform="translate(-5.33 6.64) rotate(-1.85)"/><circle class="88a8bf75-91d3-4bd1-80f5-86848aa970ea" cx="195.61" cy="171.78" r="0.17" transform="translate(-5.44 6.4) rotate(-1.85)"/><circle class="0eb83309-a81b-4f5e-810e-735f1d032aee" cx="199.74" cy="177.92" r="0.24" transform="translate(-5.64 6.54) rotate(-1.85)"/><circle class="83d3dc91-ce43-4531-b2d3-9ceaf6dfd024" cx="204.58" cy="171.08" r="0.1" transform="translate(-5.42 6.69) rotate(-1.85)"/><circle class="c5c5f0a1-372b-4b04-a70e-c4325c9b7ab6" cx="206.46" cy="236.5" r="5.24" transform="translate(-7.53 6.79) rotate(-1.85)"/><path class="4d2e6fae-4988-46fb-bafe-73988551354c" d="M205,138.57c2.68,14.49-6.68,18.15-31.35,18.94-24.2.78-34.25-2.2-32.5-16.88,1.34-11.3,12.25-19.17,31.32-19.78S202.91,127.38,205,138.57Z"/><path class="58721851-eab8-432f-a3cc-21ba2632fb60" d="M205.23,134.79c2.7,14.49-9.47,18.41-31.72,19.13-21.79.7-34.66-2.36-32.89-17,1.36-11.3,12.41-19.17,31.7-19.79S203.15,123.61,205.23,134.79Z"/><rect class="88a8bf75-91d3-4bd1-80f5-86848aa970ea" x="65.95" y="173.56" width="62.41" height="36.1" rx="18.05" ry="18.05" transform="translate(-108.06 128.06) rotate(-45.91)"/><rect class="88a8bf75-91d3-4bd1-80f5-86848aa970ea" x="61.34" y="197.24" width="62.41" height="36.1" rx="18.05" ry="18.05" transform="translate(217.86 17.27) rotate(55.59)"/><path class="84f85e2d-ad43-426f-b1a0-c5f3360568c0" d="M223.07,237.59c.58-.41,8.08-8.15,9.93-8.4l13.17,13.46,3.18,1.2c.58,3.42-6.75,13.32-11.1,16.88-1.89,1.55-5.75,3.4-8.2,3.4-1.56,0-5.7.35-8.39-1.87-3.35-2.77-4.86-5.49-5.4-9.05a9.7,9.7,0,0,1,1.26-4.85,12.42,12.42,0,0,1,3.24-3.26,3.69,3.69,0,0,1-.58-.64,3.61,3.61,0,0,1-.56-1.85,4.39,4.39,0,0,1,1.22-2.94A13.83,13.83,0,0,1,223.07,237.59Z"/><path class="3fc1a9d2-a3c5-42e8-8295-174d8445fea2" d="M233,223c2.83-.15,21.28,19.59,20.88,22.68-.48,3.64-3.3,4.23-4.79,4.64-3.2.87-21.57-20.73-21.28-23.53C227.94,225.29,231.23,223.13,233,223Z"/><path class="11f8ee6c-aff0-432a-a230-e26bbea70ae9" d="M173.87,130.61s3-9.51,48-9.42c43.79.09,37.45,23.38,60.16,44.17C313.59,194.21,285,274,206.45,236.49"/><path class="1a65c345-8163-4daf-817e-98fdabbc45bf" d="M117.79,115.32a8.41,8.41,0,0,1-5.63,1.35,6.41,6.41,0,0,1-3.06-1.35,5.71,5.71,0,0,1-1.25-2.72c-1.49-7.61-2.34-14.52-1.61-22.25a11,11,0,0,1,1.28-4.76c.86-1.42,2.52-2.71,4.12-2.27C113.83,83.93,118.68,114.67,117.79,115.32Z"/><path class="1a65c345-8163-4daf-817e-98fdabbc45bf" d="M227.1,112a8.41,8.41,0,0,0,5.74.8,6.41,6.41,0,0,0,2.91-1.64,5.71,5.71,0,0,0,1-2.83c.75-7.72.93-14.68-.54-22.3a11,11,0,0,0-1.73-4.62c-1-1.33-2.77-2.46-4.32-1.86C228,80.37,226.15,111.43,227.1,112Z"/><path class="88a8bf75-91d3-4bd1-80f5-86848aa970ea" d="M231.26,91.48c1.07,33-24.91,57.51-57.89,58.58s-60.48-21.74-61.55-54.72a59.75,59.75,0,0,1,119.44-3.86Z"/><path class="8eb418d7-a837-462f-9c2e-919719857a1d" d="M216,91.94c.72,22.21,1.3,40.21-43,41.64C127.58,135,128.12,117,127.4,94.8s19.13-22.21,43.58-23S215.23,69.73,216,91.94Z"/><circle class="88a8bf75-91d3-4bd1-80f5-86848aa970ea" cx="151.9" cy="102.91" r="4.18" transform="translate(-3.24 4.96) rotate(-1.85)"/><circle class="88a8bf75-91d3-4bd1-80f5-86848aa970ea" cx="188.97" cy="101.71" r="4.18" transform="translate(-3.19 6.15) rotate(-1.85)"/><path class="79573a4f-f23a-4322-a50b-978f30d0ab13" d="M148.8,92.4s2.53-3.33,5.66-1.75"/><path class="79573a4f-f23a-4322-a50b-978f30d0ab13" d="M191.44,90.83s-2.94-3-5.84-1"/><path class="88a8bf75-91d3-4bd1-80f5-86848aa970ea" d="M159.58,114.58a32.67,32.67,0,0,0,23.77-1.94c.73-.36.05-1.43-.67-1.07a31.35,31.35,0,0,1-22.79,1.78c-.78-.24-1.08,1-.3,1.23Z"/><path class="84f85e2d-ad43-426f-b1a0-c5f3360568c0" d="M125.33,236.12c-.56-.43-7.84-8.39-9.68-8.7l-13.57,13.06-3.21,1.11c-.68,3.4,6.35,13.52,10.59,17.21,1.84,1.6,5.65,3.57,8.09,3.65,1.56,0,5.69.53,8.44-1.61,3.43-2.66,5-5.35,5.67-8.89a9.7,9.7,0,0,0-1.12-4.88,12.42,12.42,0,0,0-3.15-3.36,3.69,3.69,0,0,0,.6-.62,3.61,3.61,0,0,0,.61-1.83,4.39,4.39,0,0,0-1.13-3A13.83,13.83,0,0,0,125.33,236.12Z"/><path class="3fc1a9d2-a3c5-42e8-8295-174d8445fea2" d="M115.86,221.28C113,221,94,240.23,94.31,243.33c.37,3.65,3.17,4.33,4.64,4.78,3.17,1,22.18-20.08,22-22.89C120.82,223.69,117.6,221.43,115.86,221.28Z"/></g></svg>