<svg xmlns="http://www.w3.org/2000/svg" viewBox="0 0 350 449.37"><defs><style>.\36 30664ab-1fce-4d84-be39-1d4ad0ca82ea{fill:#c4c0c8;}.bcab25e7-02b4-48af-860b-21ff394779d1{fill:#f5f7f9;}.c953ccdd-caff-4887-b852-66d639f2b6f0{fill:#f1f3f6;}.\32 d74534a-69c9-4cb0-ae5c-5eeb1ef743a3{fill:#fff;}.\32 791980f-7954-419e-86c2-f4c718afae8b{fill:#a9aaae;}.ce5344d5-23e7-4577-bd49-6673146c427d{fill:#f9f9f9;}.\39 47cf258-f54f-4989-a68f-2d4157c48360{fill:#fbfbfb;}.\31 df63ed7-34b2-4d41-b8a7-c962864e84fe{fill:#f1f1f2;}.\32 37f113b-a763-44b7-996e-b2a580072a3a{fill:#dad6d5;}.\34 1aa073b-a10f-4df6-bb8d-cb3ce27a6f36{fill:#ff3b49;}.\37 fb4e75e-f37b-45b8-a343-61d9aaecd658{fill:#23233c;}.\37 53156e5-b22f-44f5-833d-64d67341eeed{fill:#f7945e;}.\31 10db96e-b2f8-4a0c-a034-eb3fc02ba808{fill:#f99158;}.\39 5140f21-72fc-4ddd-92d1-52a991f6b09d{fill:#f99b67;}.\36 a7e4ca3-ab9e-45b1-9c77-8cb69254587a{fill:#ff9856;}.\33 0b23339-2bf8-4622-8913-9f47975f9354{fill:#f08b55;}.\34 238f73e-acba-4834-9558-00f17fe0db36{fill:#fffab1;}.\34 1e4e76a-9fa2-42ee-8b79-b000a2170998{fill:#fff463;}.fa7e40d9-373d-437f-8493-4d22d698e162{fill:#3fc8e8;}.\30 5c2116c-e4b8-468f-bb51-b2991ecffb4f{fill:#e7e6e8;}.a1760aa5-ba66-4129-9f1c-e3bc31ecc20e,.e197eca1-4219-444e-ad78-cc12b00026bc{fill:none;stroke-linecap:round;stroke-miterlimit:10;}.a1760aa5-ba66-4129-9f1c-e3bc31ecc20e{stroke:#eaeaea;stroke-width:6px;}.\33 9f42698-a867-4e59-adaf-276a0495896a{fill:#1b1323;}.e197eca1-4219-444e-ad78-cc12b00026bc{stroke:#fff;}</style></defs><title>spaceman</title><g id="9a7356aa-8275-4ac3-819a-4e26cf24d320" data-name="左顧右盼"><rect class="630664ab-1fce-4d84-be39-1d4ad0ca82ea" x="109.15" y="129.05" width="123.49" height="119.57" rx="11.47" ry="11.47" transform="translate(-6.01 5.62) rotate(-1.85)"/><path class="bcab25e7-02b4-48af-860b-21ff394779d1" d="M232.7,151.92c1,7.79-3.82,27.73-3.82,27.73-.37-9.82-3.25-22.53-9.4-31.43C221.13,147.9,230.17,149.78,232.7,151.92Z"/><path class="bcab25e7-02b4-48af-860b-21ff394779d1" d="M228.88,179.65s13.58-10.54,15.87-19.26a18.6,18.6,0,0,1,7.87,12.32C245.31,171.8,228.88,179.65,228.88,179.65Z"/><path class="c953ccdd-caff-4887-b852-66d639f2b6f0" d="M228.88,179.65s4.8-19.95,3.82-27.73c5.44,1.47,12,6.39,12.05,8.48C242.46,169.11,228.88,179.65,228.88,179.65Z"/><path class="c953ccdd-caff-4887-b852-66d639f2b6f0" d="M232.68,186.29S214.17,173.94,210.24,161s9.24-12.8,9.24-12.8S235.24,173.79,232.68,186.29Z"/><path class="bcab25e7-02b4-48af-860b-21ff394779d1" d="M234.32,185.61a13,13,0,0,1-8.59,2.07C221,187,209.1,177.42,204.86,166l5.38-5S222.71,180.05,234.32,185.61Z"/><rect class="2d74534a-69c9-4cb0-ae5c-5eeb1ef743a3" x="219.7" y="174.35" width="62.41" height="36.1" rx="18.05" ry="18.05" transform="translate(277.9 507.43) rotate(-132.38)"/><rect class="2d74534a-69c9-4cb0-ae5c-5eeb1ef743a3" x="223.6" y="198.16" width="62.41" height="36.1" rx="18.05" ry="18.05" transform="translate(579.67 137.86) rotate(126.13)"/><path class="bcab25e7-02b4-48af-860b-21ff394779d1" d="M112.77,150.12c-1.21,7.76,3,27.84,3,27.84.66-9.8,3.92-22.43,10.34-31.13C124.45,146.45,115.36,148.06,112.77,150.12Z"/><path class="bcab25e7-02b4-48af-860b-21ff394779d1" d="M115.76,178S102.5,167,100.46,158.23a18.6,18.6,0,0,0-8.24,12.08C99.57,169.61,115.76,178,115.76,178Z"/><path class="c953ccdd-caff-4887-b852-66d639f2b6f0" d="M115.76,178s-4.2-20.08-3-27.84c-5.48,1.31-12.2,6-12.3,8.11C102.5,167,115.76,178,115.76,178Z"/><path class="c953ccdd-caff-4887-b852-66d639f2b6f0" d="M111.76,184.48s18.87-11.79,23.19-24.58-8.86-13.08-8.86-13.08S109.58,171.91,111.76,184.48Z"/><path class="bcab25e7-02b4-48af-860b-21ff394779d1" d="M110.14,183.76a13,13,0,0,0,8.52,2.32c4.76-.54,16.93-9.76,21.51-21l-5.22-5.16S121.91,178.54,110.14,183.76Z"/><path class="630664ab-1fce-4d84-be39-1d4ad0ca82ea" d="M154.7,381.81a10.44,10.44,0,0,1-2.32,4.35c-1,1.06-2.34,1.84-3.37,2.86a30.32,30.32,0,0,0-2.94,3.77,25.2,25.2,0,0,1-24.27,10.85,13.81,13.81,0,0,1-5.84-3.16,29.31,29.31,0,0,1-2.74-3.3,13.67,13.67,0,0,1,5.61-13.68c4.37-3.34,9.76-6.76,12.58-10.56.72-1,18.14-1.49,25.27-1.13a34,34,0,0,1-.54,5.25C155.75,378.66,155.22,380.23,154.7,381.81Z"/><path class="2791980f-7954-419e-86c2-f4c718afae8b" d="M116,400.47a13.81,13.81,0,0,0,5.84,3.16,25.2,25.2,0,0,0,24.27-10.85A30.32,30.32,0,0,1,149,389c1-1,2.38-1.8,3.37-2.86a10.44,10.44,0,0,0,2.32-4.35c.52-1.57,1-3.15,1.43-4.75a34,34,0,0,0,.54-5.25c1.81.09,3,.24,3,.45a14.59,14.59,0,0,1-.34,5c-.41,1.69-1,3.34-1.5,5a13.57,13.57,0,0,1-2.62,5.14c-1,1.11-2.4,1.88-3.48,2.94a24.51,24.51,0,0,0-2.65,3.51c-5.94,8.43-15.74,13.48-25.9,11.68a15.37,15.37,0,0,1-5.93-2.42c-1.25-1.07-3.55-3.12-3.94-5.32,0-.2-.06-.4-.09-.6A29.31,29.31,0,0,0,116,400.47Z"/><path class="630664ab-1fce-4d84-be39-1d4ad0ca82ea" d="M200.51,378.64a10.44,10.44,0,0,0,2.19,4.41c1,1.09,2.28,1.91,3.28,3a30.32,30.32,0,0,1,2.83,3.85,25.2,25.2,0,0,0,23.93,11.57,13.81,13.81,0,0,0,5.93-3,29.31,29.31,0,0,0,2.84-3.22,13.67,13.67,0,0,0-5.2-13.84c-4.26-3.47-9.55-7-12.26-10.93-.69-1-18.09-2-25.22-1.89a34,34,0,0,0,.38,5.27C199.56,375.47,200,377.06,200.51,378.64Z"/><path class="2791980f-7954-419e-86c2-f4c718afae8b" d="M238.68,398.45a13.81,13.81,0,0,1-5.93,3,25.2,25.2,0,0,1-23.93-11.57A30.32,30.32,0,0,0,206,386c-1-1-2.33-1.87-3.28-3a10.44,10.44,0,0,1-2.19-4.41c-.47-1.59-.95-3.18-1.29-4.8a34,34,0,0,1-.38-5.27c-1.81,0-3,.15-3,.36a14.59,14.59,0,0,0,.19,5c.36,1.7.86,3.37,1.35,5a13.57,13.57,0,0,0,2.46,5.21c1,1.15,2.34,1.95,3.39,3a24.51,24.51,0,0,1,2.55,3.59c5.69,8.61,15.33,13.95,25.54,12.45a15.37,15.37,0,0,0,6-2.24c1.28-1,3.64-3,4.09-5.2,0-.2.07-.4.11-.6A29.31,29.31,0,0,1,238.68,398.45Z"/><path class="ce5344d5-23e7-4577-bd49-6673146c427d" d="M122.25,320.12c-.89,18.29-1.6,36.86,4.56,51.27,1.41,3.29,10.6,4.26,14,4.57s12.68.4,16.54-1.28c2-.87,3.93-4.52,4.65-8.88,2.43-14.86,2.17-26.29,1.79-41Z"/><path class="ce5344d5-23e7-4577-bd49-6673146c427d" d="M227.9,316.71c2.07,18.19,4,36.68-1.25,51.45-1.19,3.37-10.3,4.93-13.66,5.46s-12.63,1.22-16.59-.21c-2-.74-4.22-4.25-5.21-8.56-3.38-14.67-3.87-26.09-4.43-40.76Z"/><path class="ce5344d5-23e7-4577-bd49-6673146c427d" d="M230.81,262.68,115.87,266.4c-.09,10.22,3.35,44.91,6.75,54.86a14,14,0,0,0,6.52,7.89,25.75,25.75,0,0,0,7.19,2.58c3.81.75,10.89.22,14.72-.4A27.11,27.11,0,0,0,161.69,327c3.6-2.53,4.06-6.93,5.29-12.78a275.6,275.6,0,0,0,4.21-28.46,8.21,8.21,0,0,0,5.68-.18,275.6,275.6,0,0,0,6,28.13c1.6,5.76,2.34,10.12,6.1,12.41a27.11,27.11,0,0,0,10.9,3.66c3.86.37,11,.44,14.72-.55a25.75,25.75,0,0,0,7-3,14,14,0,0,0,6-8.29C230.35,307.72,231.55,272.88,230.81,262.68Z"/><path class="2d74534a-69c9-4cb0-ae5c-5eeb1ef743a3" d="M206.49,316.56c-15.33,2.5-19.72,7.53-19.72,7.53a8.25,8.25,0,0,0,2.22,2,27.11,27.11,0,0,0,10.9,3.66c3.86.37,11,.44,14.72-.55a25.75,25.75,0,0,0,7-3,14,14,0,0,0,6-8.29c.1-.38.19-.77.29-1.15C227.9,316.71,222.16,314,206.49,316.56Z"/><path class="2d74534a-69c9-4cb0-ae5c-5eeb1ef743a3" d="M143.62,318.59c15.46,1.51,20.16,6.24,20.16,6.24a8.25,8.25,0,0,1-2.09,2.13,27.11,27.11,0,0,1-10.64,4.36c-3.83.62-10.91,1.15-14.72.4a25.75,25.75,0,0,1-7.19-2.58,14,14,0,0,1-6.52-7.89c-.13-.38-.24-.75-.36-1.13C122.26,320.13,127.81,317.05,143.62,318.59Z"/><path class="947cf258-f54f-4989-a68f-2d4157c48360" d="M211.49,158.66c10.73,23.8,14,36.25,17.24,52.25,1.69,8.45,1.66,38.93,1.75,41.78L173,254.55l-3.27-101.28,30.54-5.55Z"/><path class="947cf258-f54f-4989-a68f-2d4157c48360" d="M128.46,161.34c-9.18,24.44-11.66,37.54-13.83,53.26-1.18,8.54.83,38.93.92,41.8L173,254.55l-3.27-101.28-30.83-3.57Z"/><path class="1df63ed7-34b2-4d41-b8a7-c962864e84fe" d="M159.65,283.47c2.44,2.28,7.24,2.9,14.38,2.67s11.89-1.16,14.18-3.6a80.54,80.54,0,0,1-14.23,2A80.46,80.46,0,0,1,159.65,283.47Z"/><rect class="237f113b-a763-44b7-996e-b2a580072a3a" x="143.48" y="191.26" width="56.05" height="33" rx="6.03" ry="6.03" transform="matrix(1, -0.03, 0.03, 1, -6.62, 5.65)"/><rect class="bcab25e7-02b4-48af-860b-21ff394779d1" x="149.98" y="197.37" width="27.22" height="4.67" rx="2.34" ry="2.34" transform="translate(-6.36 5.39) rotate(-1.85)"/><rect class="bcab25e7-02b4-48af-860b-21ff394779d1" x="150.25" y="205.67" width="27.22" height="4.67" rx="2.34" ry="2.34" transform="translate(-6.63 5.4) rotate(-1.85)"/><rect class="bcab25e7-02b4-48af-860b-21ff394779d1" x="150.52" y="213.98" width="27.22" height="4.67" rx="2.34" ry="2.34" transform="translate(-6.9 5.41) rotate(-1.85)"/><circle class="41aa073b-a10f-4df6-bb8d-cb3ce27a6f36" cx="187.88" cy="201.25" r="4.67" transform="translate(-6.4 6.17) rotate(-1.85)"/><circle class="bcab25e7-02b4-48af-860b-21ff394779d1" cx="188.26" cy="213.2" r="4.67" transform="translate(-6.79 6.19) rotate(-1.85)"/><rect class="237f113b-a763-44b7-996e-b2a580072a3a" x="115.68" y="254.54" width="115" height="10" transform="translate(-8.29 5.73) rotate(-1.85)"/><circle class="7fb4e75e-f37b-45b8-a343-61d9aaecd658" cx="197.61" cy="172.01" r="7.17" transform="translate(-5.45 6.47) rotate(-1.85)"/><path class="753156e5-b22f-44f5-833d-64d67341eeed" d="M200.61,171.6a3,3,0,0,0-.41-1.15c-1.24,1-4.07,1.35-5.57,1.17a2.72,2.72,0,0,0,.05,1.11A11.26,11.26,0,0,0,200.61,171.6Z"/><path class="110db96e-b2f8-4a0c-a034-eb3fc02ba808" d="M200.2,170.45a3,3,0,0,0-.84-.91,5.51,5.51,0,0,1-2,.78,8,8,0,0,1-2.37.14,3,3,0,0,0-.39,1.15C196.13,171.8,199,171.41,200.2,170.45Z"/><path class="95140f21-72fc-4ddd-92d1-52a991f6b09d" d="M198.29,169.06a2.9,2.9,0,0,0-2.58.61A5.65,5.65,0,0,0,198.29,169.06Z"/><path class="6a7e4ca3-ab9e-45b1-9c77-8cb69254587a" d="M197.39,170.32a5.51,5.51,0,0,0,2-.78,3,3,0,0,0-1.07-.48,5.65,5.65,0,0,1-2.58.61,3,3,0,0,0-.69.79A8,8,0,0,0,197.39,170.32Z"/><path class="110db96e-b2f8-4a0c-a034-eb3fc02ba808" d="M196.49,174.81a3,3,0,0,0,3.11-.53A6.88,6.88,0,0,1,196.49,174.81Z"/><path class="6a7e4ca3-ab9e-45b1-9c77-8cb69254587a" d="M195.55,174.22a3,3,0,0,0,.94.59,6.88,6.88,0,0,0,3.11-.53,3,3,0,0,0,.65-.79A9.61,9.61,0,0,1,195.55,174.22Z"/><path class="30b23339-2bf8-4622-8913-9f47975f9354" d="M200.61,171.6a11.26,11.26,0,0,1-5.93,1.12,3,3,0,0,0,.64,1.23h0a3.06,3.06,0,0,0,.23.26,9.61,9.61,0,0,0,4.7-.73,2.66,2.66,0,0,0,.37-1.23A6,6,0,0,0,200.61,171.6Z"/><path class="41aa073b-a10f-4df6-bb8d-cb3ce27a6f36" d="M201.15,170.71c.57.14,1,.35.41.84a2.7,2.7,0,0,1-.51.3,13.23,13.23,0,0,1-3.43,1,19,19,0,0,1-3.12.23,2.77,2.77,0,0,1-.94-.13c-.41-.2,0-.7.29-1-.73.22-1.15.84-.8,1.32.21.29.84.48,1.91.52a19,19,0,0,0,2.95-.17,8.42,8.42,0,0,0,3-.86,3.85,3.85,0,0,0,1.28-1C202.51,171.24,202.18,170.57,201.15,170.71Z"/><circle class="4238f73e-acba-4834-9558-00f17fe0db36" cx="199.23" cy="166.68" r="0.34" transform="translate(-5.28 6.52) rotate(-1.85)"/><circle class="2d74534a-69c9-4cb0-ae5c-5eeb1ef743a3" cx="191.81" cy="170.21" r="0.17" transform="translate(-5.4 6.28) rotate(-1.85)"/><circle class="41e4e76a-9fa2-42ee-8b79-b000a2170998" cx="195.94" cy="176.35" r="0.24" transform="translate(-5.59 6.42) rotate(-1.85)"/><circle class="fa7e40d9-373d-437f-8493-4d22d698e162" cx="200.78" cy="169.52" r="0.1" transform="translate(-5.37 6.57) rotate(-1.85)"/><circle class="6a7e4ca3-ab9e-45b1-9c77-8cb69254587a" cx="202.66" cy="234.93" r="5.24" transform="translate(-7.48 6.67) rotate(-1.85)"/><path class="1df63ed7-34b2-4d41-b8a7-c962864e84fe" d="M201.18,137c2.68,14.49-6.68,18.15-31.35,18.94-24.2.78-34.25-2.2-32.5-16.88,1.34-11.3,12.25-19.17,31.32-19.78S199.11,125.82,201.18,137Z"/><path class="05c2116c-e4b8-468f-bb51-b2991ecffb4f" d="M201.43,133.23c2.7,14.49-9.47,18.41-31.72,19.13-21.79.7-34.66-2.36-32.89-17,1.36-11.3,12.41-19.17,31.7-19.79S199.35,122,201.43,133.23Z"/><rect class="2d74534a-69c9-4cb0-ae5c-5eeb1ef743a3" x="62.15" y="171.99" width="62.41" height="36.1" rx="18.05" ry="18.05" transform="translate(-108.09 124.86) rotate(-45.91)"/><rect class="2d74534a-69c9-4cb0-ae5c-5eeb1ef743a3" x="57.54" y="195.67" width="62.41" height="36.1" rx="18.05" ry="18.05" transform="translate(214.92 19.73) rotate(55.59)"/><path class="630664ab-1fce-4d84-be39-1d4ad0ca82ea" d="M219.27,236c.58-.41,8.08-8.15,9.93-8.4l13.17,13.46,3.18,1.2c.58,3.42-6.75,13.32-11.1,16.88-1.89,1.55-5.75,3.4-8.2,3.4-1.56,0-5.7.35-8.39-1.87-3.35-2.77-4.86-5.49-5.4-9.05a9.7,9.7,0,0,1,1.26-4.85,12.42,12.42,0,0,1,3.24-3.26,3.69,3.69,0,0,1-.58-.64,3.61,3.61,0,0,1-.56-1.85,4.39,4.39,0,0,1,1.22-2.94A13.83,13.83,0,0,1,219.27,236Z"/><path class="237f113b-a763-44b7-996e-b2a580072a3a" d="M229.17,221.47c2.83-.15,21.28,19.59,20.88,22.68-.48,3.64-3.3,4.23-4.79,4.64-3.2.87-21.57-20.73-21.28-23.53C224.14,223.72,227.43,221.57,229.17,221.47Z"/><path class="a1760aa5-ba66-4129-9f1c-e3bc31ecc20e" d="M170.07,129s3-9.51,48-9.42c43.79.09,37.45,23.38,60.16,44.17,31.52,28.86,2.94,108.67-75.62,71.14"/><path class="bcab25e7-02b4-48af-860b-21ff394779d1" d="M114,113.76a8.41,8.41,0,0,1-5.63,1.35,6.41,6.41,0,0,1-3.06-1.35A5.71,5.71,0,0,1,104,111c-1.49-7.61-2.34-14.52-1.61-22.25A11,11,0,0,1,103.71,84c.86-1.42,2.52-2.71,4.12-2.27C110,82.37,114.88,113.11,114,113.76Z"/><path class="2d74534a-69c9-4cb0-ae5c-5eeb1ef743a3" d="M227.46,89.92c1.07,33-24.91,57.51-57.89,58.58S109.09,126.76,108,93.78a59.75,59.75,0,1,1,119.44-3.86Z"/><path class="39f42698-a867-4e59-adaf-276a0495896a" d="M196.56,87.94c.72,22.21,1.3,40.21-43,41.64C108.18,131,108.72,113,108,90.8s19.13-22.21,43.58-23S195.84,65.73,196.56,87.94Z"/><circle class="2d74534a-69c9-4cb0-ae5c-5eeb1ef743a3" cx="120.24" cy="99.38" r="4.18" transform="translate(-3.15 3.93) rotate(-1.85)"/><circle class="2d74534a-69c9-4cb0-ae5c-5eeb1ef743a3" cx="157.31" cy="98.18" r="4.18" transform="translate(-3.09 5.13) rotate(-1.85)"/><path class="e197eca1-4219-444e-ad78-cc12b00026bc" d="M117.14,88.87s2.53-3.33,5.66-1.75"/><path class="e197eca1-4219-444e-ad78-cc12b00026bc" d="M159.78,83.33s-2.94-3-5.84-1"/><path class="2d74534a-69c9-4cb0-ae5c-5eeb1ef743a3" d="M127.92,113.24a32.67,32.67,0,0,0,23.77-1.94c.73-.36.05-1.43-.67-1.07A31.35,31.35,0,0,1,128.22,112c-.78-.24-1.08,1-.3,1.23Z"/><path class="630664ab-1fce-4d84-be39-1d4ad0ca82ea" d="M121.53,234.56c-.56-.43-7.84-8.39-9.68-8.7L98.28,238.92,95.07,240c-.68,3.4,6.35,13.52,10.59,17.21,1.84,1.6,5.65,3.57,8.09,3.65,1.56,0,5.69.53,8.44-1.61,3.43-2.66,5-5.35,5.67-8.89a9.7,9.7,0,0,0-1.12-4.88,12.42,12.42,0,0,0-3.15-3.36,3.69,3.69,0,0,0,.6-.62,3.61,3.61,0,0,0,.61-1.83,4.39,4.39,0,0,0-1.13-3A13.83,13.83,0,0,0,121.53,234.56Z"/><path class="237f113b-a763-44b7-996e-b2a580072a3a" d="M112.06,219.72c-2.83-.24-21.86,18.95-21.55,22,.37,3.65,3.17,4.33,4.64,4.78,3.17,1,22.18-20.08,22-22.89C117,222.12,113.8,219.87,112.06,219.72Z"/><path class="bcab25e7-02b4-48af-860b-21ff394779d1" d="M220.69,110.43a8.41,8.41,0,0,0,5.74.8,6.41,6.41,0,0,0,2.91-1.64,5.71,5.71,0,0,0,1-2.83c.75-7.72.93-14.68-.54-22.3A11,11,0,0,0,228,79.83c-1-1.33-2.77-2.46-4.32-1.86C221.59,78.8,219.74,109.87,220.69,110.43Z"/></g></svg>