<svg xmlns="http://www.w3.org/2000/svg" viewBox="0 0 350 449.37"><defs><style>.bbded154-1613-46d0-86e2-e7c7d05973af{fill:#a9aaae;}.c5c9c1f9-2a26-4b6b-8f61-e01822dea1f3{fill:#c4c0c8;}.\31 5c4d3e2-767f-4ba5-bfa9-ddbf2ac5d29e{fill:#f9f9f9;}.\37 72bfd7a-b7ce-49ce-a997-4fb8f0ca7f38{fill:#f5f7f9;}.\30 02c81ee-ea03-46c1-bc6e-8737907bf760{fill:#f1f3f6;}.ac7d91c8-3a33-42b0-88f5-2a69594c33d2{fill:#fff;}.\35 aeab31b-2b72-40cf-a7da-8d0215db3916{fill:#dad6d5;}.f6abed70-ff9c-44de-8bb3-75e4ad45c65b{fill:#fbfbfb;}.\31 74ffd90-6f16-4370-8e56-58871806e83e{fill:#ff3b49;}.\36 a7de535-7b7a-49cc-b6e7-be8f3c7d4046{fill:#23233c;}.f36c5643-d4be-4f8d-a4e3-c26ead45404d{fill:#f7945e;}.ac92c1f3-8754-4265-9e10-f00318f51bcb{fill:#f99158;}.\30 db52af8-6ad4-4e3a-801f-75e275da6987{fill:#f99b67;}.\35 806092f-acbc-4414-87f6-7af2998b9c6b{fill:#ff9856;}.\31 5b22e7f-2fb1-43f6-9763-0f6a326ae2f5{fill:#f08b55;}.\32 ed60329-21d4-483b-a3af-4923393694c5{fill:#fffab1;}.\39 b7343d8-76d8-4290-841e-f6dff60d0077{fill:#fff463;}.\38 d845626-5802-4c84-be20-e6736d16a1c5{fill:#3fc8e8;}.\38 4a29fcd-03a4-4303-99d2-10343fed6e2e,.e165e069-db68-4dee-b33c-7902ff24b659{fill:none;stroke-linecap:round;stroke-miterlimit:10;}.e165e069-db68-4dee-b33c-7902ff24b659{stroke:#eaeaea;stroke-width:6px;}.\35 af0f8bb-b43f-44e8-88ee-be4376e63a3e{fill:#f1f1f2;}.ea502e52-0377-4b1d-96c9-71d74c111e13{fill:#e7e6e8;}.\37 357e4a3-f85c-46c3-a05f-043bb545fb98{fill:#1b1323;}.\38 4a29fcd-03a4-4303-99d2-10343fed6e2e{stroke:#fff;}</style></defs><title>spaceman</title><g id="92a1771d-2d29-48fb-b1f9-e15890633c45" data-name="漂浮2"><path class="bbded154-1613-46d0-86e2-e7c7d05973af" d="M287.69,187.89s-9.07,0-12.4,5.34c-2.67,4.27,3.83,13.67,3.83,13.67l10.94-4.17Z"/><path class="c5c9c1f9-2a26-4b6b-8f61-e01822dea1f3" d="M295.66,192a10.44,10.44,0,0,1,4.62,1.71c1.18.83,2.14,2.07,3.29,3a30.32,30.32,0,0,0,4.13,2.41,25.2,25.2,0,0,1,14,22.58,13.81,13.81,0,0,1-2.34,6.22,29.31,29.31,0,0,1-2.9,3.16,13.67,13.67,0,0,1-14.31-3.71c-3.9-3.87-8-8.75-12.17-11-1.05-.58-3.93-17.77-4.54-24.88a34,34,0,0,1,5.28-.18C292.4,191.41,294,191.72,295.66,192Z"/><path class="bbded154-1613-46d0-86e2-e7c7d05973af" d="M319.39,227.89a13.81,13.81,0,0,0,2.34-6.22,25.2,25.2,0,0,0-14-22.58,30.32,30.32,0,0,1-4.13-2.41c-1.15-.89-2.1-2.12-3.29-3a10.44,10.44,0,0,0-4.62-1.71c-1.63-.3-3.26-.61-4.9-.77a34,34,0,0,0-5.28.18c-.15-1.8-.16-3,0-3,4.66-1.59,11.36-.29,15.38,2.43,5.49,3.72,12,7,16.33,12.11a24.85,24.85,0,0,1,6.19,17.11,15.37,15.37,0,0,1-1.59,6.2c-.89,1.38-2.61,3.94-4.74,4.62l-.59.17A29.31,29.31,0,0,0,319.39,227.89Z"/><path class="c5c9c1f9-2a26-4b6b-8f61-e01822dea1f3" d="M285.47,191.43s-9.92,2-9.31,9,13.89,9.13,13.89,9.13Z"/><rect class="15c4d3e2-767f-4ba5-bfa9-ddbf2ac5d29e" x="171.44" y="252.28" width="50.07" height="82.58" rx="24.02" ry="24.02" transform="translate(78.61 -39.44) rotate(14.3)"/><path class="15c4d3e2-767f-4ba5-bfa9-ddbf2ac5d29e" d="M237.72,207.22h24.13a27,27,0,0,1,27,27v26.11a27,27,0,0,1-27,27H229.72a4.83,4.83,0,0,1-4.83-4.83V220a12.83,12.83,0,0,1,12.83-12.83Z" transform="translate(-99.57 239.78) rotate(-42.71)"/><path class="15c4d3e2-767f-4ba5-bfa9-ddbf2ac5d29e" d="M301.87,255.49c4.07-17.85,11-32.67,7.41-47.94-.81-3.48-12-9.19-15.32-10.09s-12.42-2.61-16.51-1.63c-2.1.51-4.66,3.76-6.13,7.93-5,14.21-6.73,25.5-8.92,40Z"/><rect class="15c4d3e2-767f-4ba5-bfa9-ddbf2ac5d29e" x="251.13" y="207.4" width="50.07" height="94.67" rx="25.04" ry="25.04" transform="translate(74.67 -62.37) rotate(14.88)"/><rect class="c5c9c1f9-2a26-4b6b-8f61-e01822dea1f3" x="141.02" y="134.75" width="123.49" height="119.57" rx="11.47" ry="11.47" transform="translate(-62.76 102.6) rotate(-24.72)"/><path class="772bfd7a-b7ce-49ce-a997-4fb8f0ca7f38" d="M138.14,176.74c-4.73,6.27-10.5,26-10.5,26,5.21-8.33,14-17.92,23.81-22.57C150.17,179,141.4,176.15,138.14,176.74Z"/><path class="772bfd7a-b7ce-49ce-a997-4fb8f0ca7f38" d="M127.63,202.69s-6.53-15.9-4.17-24.61a18.6,18.6,0,0,0-13,6.76C117.3,187.69,127.63,202.69,127.63,202.69Z"/><path class="002c81ee-ea03-46c1-bc6e-8737907bf760" d="M127.63,202.69s5.78-19.69,10.5-26c-5.45-1.43-13.6-.44-14.67,1.35C121.11,186.79,127.63,202.69,127.63,202.69Z"/><path class="002c81ee-ea03-46c1-bc6e-8737907bf760" d="M121,206.55s22.2-1.48,32-10.72-1.64-15.71-1.64-15.71S125,194.44,121,206.55Z"/><path class="772bfd7a-b7ce-49ce-a997-4fb8f0ca7f38" d="M119.95,205.15a13,13,0,0,0,6.42,6.07c4.46,1.77,19.53-.61,28.88-8.38l-2.17-7S132.78,206.11,119.95,205.15Z"/><path class="ac7d91c8-3a33-42b0-88f5-2a69594c33d2" d="M55.35,229.49s9.95,1.87,38.38-8c0,0,21.63-2.67,32.63-10.26,0,0,1.8-10.66-1.2-15.77C122.43,190.8,55.35,229.49,55.35,229.49Z"/><path class="c5c9c1f9-2a26-4b6b-8f61-e01822dea1f3" d="M38.32,234c.58-.41,10.39-4.89,11.24-6.55L41.3,210.49l-.07-3.4c-3-1.69-14.81,1.9-19.63,4.81-2.09,1.26-5.13,4.28-6,6.58-.52,1.47-2.24,5.26-1.05,8.53,1.49,4.08,3.55,6.42,6.72,8.12a9.7,9.7,0,0,0,5,.43,12.42,12.42,0,0,0,4.16-2,3.69,3.69,0,0,0,.41.76,3.61,3.61,0,0,0,1.56,1.15,4.39,4.39,0,0,0,3.18-.17A13.83,13.83,0,0,0,38.32,234Z"/><path class="ac7d91c8-3a33-42b0-88f5-2a69594c33d2" d="M116.11,179.26c-4.22,0-17.5,1.12-33.7,8.41-13.69,1.07-31.86,4.92-41.44,14.56-2.42,7.27,10.55,24.57,13.51,27.45,5.62-1,19.52-8.14,33-13.58,17-3.84,28-8.18,35.88-13.18,3-3,.3-10.51-1-13.94C121.4,186.27,119.13,179.24,116.11,179.26Z"/><path class="5aeab31b-2b72-40cf-a7da-8d0215db3916" d="M55.35,229.49C56.45,226.88,44,202.88,41,202.23c-3.59-.77-5.09,1.69-6,3C33.1,207.91,47.31,232.45,50,233.12,51.54,233.48,54.68,231.11,55.35,229.49Z"/><path class="f6abed70-ff9c-44de-8bb3-75e4ad45c65b" d="M215.69,151.38c22.68,14.5,33.42,30.62,43.43,43.5,5.28,6.81,18.88,34.08,20.24,36.59-3.89,2.1-55.23,22.87-55.23,22.87L175.94,165.2l24.84-18.61Z"/><path class="f6abed70-ff9c-44de-8bb3-75e4ad45c65b" d="M142.6,190.88c2.71,26,6.34,38.79,11.42,53.83,2.76,8.16,18.14,34.46,19.5,37l50.59-27.35L175.94,165.2l-29.18,10.59Z"/><rect class="5aeab31b-2b72-40cf-a7da-8d0215db3916" x="164.09" y="194.96" width="56.05" height="33" rx="6.03" ry="6.03" transform="translate(-71.83 102.12) rotate(-25.24)"/><rect class="772bfd7a-b7ce-49ce-a997-4fb8f0ca7f38" x="168.04" y="204.86" width="27.22" height="4.67" rx="2.34" ry="2.34" transform="translate(-71.01 97.25) rotate(-25.24)"/><rect class="772bfd7a-b7ce-49ce-a997-4fb8f0ca7f38" x="171.59" y="212.38" width="27.22" height="4.67" rx="2.34" ry="2.34" transform="translate(-73.88 99.48) rotate(-25.24)"/><rect class="772bfd7a-b7ce-49ce-a997-4fb8f0ca7f38" x="175.13" y="219.9" width="27.22" height="4.67" rx="2.34" ry="2.34" transform="translate(-76.75 101.71) rotate(-25.24)"/><circle class="174ffd90-6f16-4370-8e56-58871806e83e" cx="204.56" cy="198.98" r="4.67" transform="translate(-65.32 106.23) rotate(-25.24)"/><circle class="772bfd7a-b7ce-49ce-a997-4fb8f0ca7f38" cx="209.66" cy="209.79" r="4.67" transform="translate(-69.45 109.44) rotate(-25.24)"/><circle class="6a7de535-7b7a-49cc-b6e7-be8f3c7d4046" cx="202.3" cy="175.79" r="7.17" transform="translate(-59.26 117.34) rotate(-28.39)"/><path class="f36c5643-d4be-4f8d-a4e3-c26ead45404d" d="M204.8,174.09a3,3,0,0,0-.88-.85c-.68,1.41-3,3-4.46,3.54a2.72,2.72,0,0,0,.54,1A11.26,11.26,0,0,0,204.8,174.09Z"/><path class="ac92c1f3-8754-4265-9e10-f00318f51bcb" d="M203.92,173.24a3,3,0,0,0-1.16-.44,5.51,5.51,0,0,1-1.42,1.58,8,8,0,0,1-2.05,1.19,3,3,0,0,0,.16,1.21C200.88,176.27,203.24,174.65,203.92,173.24Z"/><path class="0db52af8-6ad4-4e3a-801f-75e275da6987" d="M201.59,172.86a2.9,2.9,0,0,0-2,1.7A5.65,5.65,0,0,0,201.59,172.86Z"/><path class="5806092f-acbc-4414-87f6-7af2998b9c6b" d="M201.35,174.39a5.51,5.51,0,0,0,1.42-1.58,3,3,0,0,0-1.17.05,5.65,5.65,0,0,1-2,1.7,3,3,0,0,0-.26,1A8,8,0,0,0,201.35,174.39Z"/><path class="ac92c1f3-8754-4265-9e10-f00318f51bcb" d="M202.55,178.8a3,3,0,0,0,2.55-1.87A6.88,6.88,0,0,1,202.55,178.8Z"/><path class="5806092f-acbc-4414-87f6-7af2998b9c6b" d="M201.44,178.69a3,3,0,0,0,1.1.11,6.88,6.88,0,0,0,2.55-1.87,3,3,0,0,0,.23-1A9.61,9.61,0,0,1,201.44,178.69Z"/><path class="15b22e7f-2fb1-43f6-9763-0f6a326ae2f5" d="M204.8,174.09a11.26,11.26,0,0,1-4.8,3.65,3,3,0,0,0,1.13.82h0a3.06,3.06,0,0,0,.32.13,9.61,9.61,0,0,0,3.88-2.75,2.66,2.66,0,0,0-.21-1.26A6,6,0,0,0,204.8,174.09Z"/><path class="174ffd90-6f16-4370-8e56-58871806e83e" d="M204.89,173c.57-.13,1-.13.75.57a2.7,2.7,0,0,1-.32.49,13.23,13.23,0,0,1-2.61,2.46,19,19,0,0,1-2.69,1.6,2.77,2.77,0,0,1-.9.3c-.45,0-.34-.62-.2-1-.56.52-.65,1.26-.12,1.54.32.17,1,.05,1.94-.39a19,19,0,0,0,2.56-1.47,8.42,8.42,0,0,0,2.26-2.09,3.85,3.85,0,0,0,.69-1.5C206.34,172.92,205.74,172.47,204.89,173Z"/><circle class="2ed60329-21d4-483b-a3af-4923393694c5" cx="201.37" cy="170.31" r="0.34" transform="translate(-56.76 116.24) rotate(-28.39)"/><circle class="ac7d91c8-3a33-42b0-88f5-2a69594c33d2" cx="196.31" cy="176.78" r="0.17" transform="translate(-60.45 114.61) rotate(-28.39)"/><circle class="9b7343d8-76d8-4290-841e-f6dff60d0077" cx="202.75" cy="180.43" r="0.24" transform="translate(-61.41 118.11) rotate(-28.39)"/><circle class="8d845626-5802-4c84-be20-e6736d16a1c5" cx="204.02" cy="172.15" r="0.1" transform="translate(-57.32 117.72) rotate(-28.39)"/><circle class="5806092f-acbc-4414-87f6-7af2998b9c6b" cx="241.87" cy="223.56" r="5.24" transform="translate(-77.21 141.91) rotate(-28.39)"/><path class="e165e069-db68-4dee-b33c-7902ff24b659" d="M165.4,143.39s-1.54-9.86,38.77-29.9c39.22-19.49,43.95,4.18,73.55,12.63,41.09,11.73,51.19,95.9-35.86,97.44"/><path class="5af0f8bb-b43f-44e8-88ee-be4376e63a3e" d="M196.79,136.62c8.87,11.77,2.13,19.22-19.58,31-21.3,11.51-31.62,13.34-36.62-.58-3.85-10.7,2.4-22.62,19.18-31.69S189.94,127.53,196.79,136.62Z"/><path class="ea502e52-0377-4b1d-96c9-71d74c111e13" d="M195.33,133.12c8.89,11.75-.25,20.7-19.83,31.29-19.18,10.37-32.06,13.38-37-.55C134.63,153.15,141,141.17,158,132S188.46,124,195.33,133.12Z"/><path class="772bfd7a-b7ce-49ce-a997-4fb8f0ca7f38" d="M106,156.41a8.41,8.41,0,0,1-4.45,3.71,6.41,6.41,0,0,1-3.34.15,5.71,5.71,0,0,1-2.33-1.89c-4.72-6.16-8.55-12-11.33-19.22a11,11,0,0,1-1-4.84c.15-1.65,1.05-3.55,2.68-3.86C88.55,130,106.55,155.43,106,156.41Z"/><path class="772bfd7a-b7ce-49ce-a997-4fb8f0ca7f38" d="M202.5,104.88A8.41,8.41,0,0,0,208,103a6.41,6.41,0,0,0,1.88-2.76,5.71,5.71,0,0,0-.38-3c-2.76-7.25-5.69-13.57-10.39-19.74a11,11,0,0,0-3.6-3.37c-1.48-.74-3.58-1-4.69.25C189.26,76.15,201.4,104.8,202.5,104.88Z"/><path class="ac7d91c8-3a33-42b0-88f5-2a69594c33d2" d="M197.12,84.66c15.6,29.08,3.23,62.59-25.85,78.19s-63.85,7.38-79.45-21.7a59.75,59.75,0,1,1,105.3-56.5Z"/><path class="7357e4a3-f85c-46c3-a05f-043bb545fb98" d="M177.52,97.85c10.51,19.58,19,35.45-20,56.4-40,21.48-47.55,5.07-58.06-14.51s7.27-28.4,28.83-40S167,78.27,177.52,97.85Z"/><circle class="ac7d91c8-3a33-42b0-88f5-2a69594c33d2" cx="120.08" cy="141.64" r="4.18" transform="translate(-50.1 67.35) rotate(-26.13)"/><circle class="ac7d91c8-3a33-42b0-88f5-2a69594c33d2" cx="153.38" cy="125.31" r="4.18" transform="translate(-39.51 80.34) rotate(-26.13)"/><path class="84a29fcd-03a4-4303-99d2-10343fed6e2e" d="M112.08,131.51s3.34-2.51,5.93-.13"/><path class="84a29fcd-03a4-4303-99d2-10343fed6e2e" d="M150.39,112.91s-4.09.86-4,4.38"/><path class="ac7d91c8-3a33-42b0-88f5-2a69594c33d2" d="M128.8,149.81a43,43,0,0,0,27.43-15.17c.69-.82-.71-1.74-1.39-.92a41.22,41.22,0,0,1-26.35,14.45c-1.07.14-.75,1.78.31,1.64Z"/><path class="772bfd7a-b7ce-49ce-a997-4fb8f0ca7f38" d="M248.19,141.7c-6.05,7.91-20,14.67-25.93,17.31l0-.15c-5.7,1.43-12.23-3.19-12.23-3.19,1.68,13.37,13.1,10.81,13.1,10.81,11.84-1.81,23.56-11.46,25.23-16A13.13,13.13,0,0,0,248.19,141.7Z"/><path class="772bfd7a-b7ce-49ce-a997-4fb8f0ca7f38" d="M215.51,136.4c7.68.64,25.79,9.4,25.79,9.4-9.5-1.65-22.31-1.43-32.16,2.76C209.19,146.88,212.92,138.43,215.51,136.4Z"/><path class="772bfd7a-b7ce-49ce-a997-4fb8f0ca7f38" d="M241.3,145.8s-7.21-15.42-15.09-19.44a18.33,18.33,0,0,1,13.5-5.17C237.27,128.14,241.3,145.8,241.3,145.8Z"/><path class="002c81ee-ea03-46c1-bc6e-8737907bf760" d="M241.3,145.8s-18.11-8.76-25.79-9.4c2.57-5,8.69-10.43,10.7-10C234.09,130.38,241.3,145.8,241.3,145.8Z"/><path class="002c81ee-ea03-46c1-bc6e-8737907bf760" d="M248.61,142.92s-15.79,15.55-29,16.76S209.27,148,209.27,148,237.17,137.87,248.61,142.92Z"/><path class="ac7d91c8-3a33-42b0-88f5-2a69594c33d2" d="M308.71,109.85s-5.24,8.65-31.26,23.27c0,0-16.28,14.34-29.07,17.5,0,0-8.93-5.73-10.65-11.36C236.17,134.15,308.71,109.85,308.71,109.85Z"/><path class="c5c9c1f9-2a26-4b6b-8f61-e01822dea1f3" d="M323.23,100.13c-.68.16-10.43,4.49-12.2,4l-6.79-17.39-2.42-2.31c.78-3.38,11.2-9.78,16.5-11.43,2.3-.72,6.51-1,8.72-.07,1.41.59,5.3,1.82,6.89,4.88a13.72,13.72,0,0,1,1.43,10.39,9.83,9.83,0,0,1-3,4,12.28,12.28,0,0,1-4.18,1.8,3.18,3.18,0,0,1,.08,2.73A4.43,4.43,0,0,1,326,99,13.64,13.64,0,0,1,323.23,100.13Z"/><path class="ac7d91c8-3a33-42b0-88f5-2a69594c33d2" d="M231.36,122c2.81-3.13,12.41-12.29,28.44-19.53,9.85-9.49,24.69-20.47,38-21.21,6.88,3,10.83,24.17,11,28.29-4.42,3.55-18.85,9.14-31.73,15.58-14,10.1-24.47,15.4-33.35,18-4.12.26-7.82-6.75-9.47-10C232.94,130.6,229.34,124.24,231.36,122Z"/><path class="5aeab31b-2b72-40cf-a7da-8d0215db3916" d="M308.71,109.85c-2.62-.92-11.79-26.11-10.25-28.81,1.82-3.19,4.6-2.67,6.1-2.49,3.23.4,11.62,27.27,10.29,29.75C314.12,109.66,310.32,110.42,308.71,109.85Z"/><path class="c5c9c1f9-2a26-4b6b-8f61-e01822dea1f3" d="M177.42,370.51a10.44,10.44,0,0,1-3.7,3.25c-1.3.65-2.83.9-4.16,1.49a30.32,30.32,0,0,0-4.08,2.49A25.2,25.2,0,0,1,139,379.37a13.81,13.81,0,0,1-4.36-5,29.31,29.31,0,0,1-1.41-4.05,13.67,13.67,0,0,1,10.06-10.83c5.26-1.59,11.51-2.9,15.49-5.46,1-.65,17.51,5,24.05,7.82a34,34,0,0,1-2.35,4.73C179.51,367.93,178.46,369.22,177.42,370.51Z"/><path class="bbded154-1613-46d0-86e2-e7c7d05973af" d="M134.59,374.36a13.81,13.81,0,0,0,4.36,5,25.2,25.2,0,0,0,26.53-1.62,30.32,30.32,0,0,1,4.08-2.49c1.32-.59,2.86-.84,4.16-1.49a10.44,10.44,0,0,0,3.7-3.25c1-1.29,2.08-2.58,3-3.95a34,34,0,0,0,2.35-4.73c1.66.72,2.68,1.26,2.64,1.47a14.59,14.59,0,0,1-2.07,4.55c-1,1.44-2.07,2.79-3.16,4.15a13.57,13.57,0,0,1-4.26,3.89c-1.36.68-2.9.91-4.29,1.53a24.51,24.51,0,0,0-3.72,2.36c-8.53,5.81-19.47,7.09-28.35,1.83a15.37,15.37,0,0,1-4.7-4.35c-.8-1.44-2.23-4.17-1.81-6.37,0-.2.08-.4.13-.6A29.31,29.31,0,0,0,134.59,374.36Z"/><path class="15c4d3e2-767f-4ba5-bfa9-ddbf2ac5d29e" d="M171.79,298.27c-8.14,18.83-16.2,38-15.4,55.57.18,4,9.44,8.64,12.87,10.3s13.14,5.42,17.86,5.17c2.42-.13,5.91-3.19,8.37-7.48,8.4-14.63,12.63-26.72,18-42.26Z"/><path class="15c4d3e2-767f-4ba5-bfa9-ddbf2ac5d29e" d="M182.21,281.53s14.29,14.4,51.32-1.49,45.63-42.63,45.63-42.63Z"/><rect class="5aeab31b-2b72-40cf-a7da-8d0215db3916" x="168.26" y="252.34" width="119.6" height="8.83" rx="4.41" ry="4.41" transform="translate(-86.46 118.88) rotate(-24.72)"/></g></svg>