<svg xmlns="http://www.w3.org/2000/svg" viewBox="0 0 350 449.37"><defs><style>.\35 1186138-a73f-4c9d-9977-30ceaeb46698{fill:#c4c0c8;}.fc86a132-5919-49e6-a4bc-8bafd87c250a{fill:#a9aaae;}.c6e0a7d7-f289-4ad1-9c52-900491bd9f96{fill:#f9f9f9;}.f8b1d7e1-7dfd-4fa2-b37e-7791ca148267{fill:#fff;}.\36 1e15ac2-3c92-47cf-88de-3d06b543e43e{fill:#fbfbfb;}.e6719921-4d4d-4cc1-bb86-47696071f215{fill:#f1f1f2;}.\38 95ec29f-bca7-4d33-9045-bc7121153a71{fill:#dad6d5;}.e045c243-60ca-4ec6-b685-c3affd0f0df2{fill:#f5f7f9;}.\34 e58461c-d07c-4247-9530-eb6052d8a235{fill:#ff3b49;}.da2acea0-4958-456f-8726-4609a6493213{fill:#23233c;}.\36 dfc96fa-791b-422f-afd9-050c3b23b6d5{fill:#f7945e;}.ba84fcf7-4756-4ef8-8f2e-09579e168331{fill:#f99158;}.f3992c2d-3f8d-4c78-b221-325d0950cadd{fill:#f99b67;}.\37 036000d-214e-474e-b826-6d69556ba19c{fill:#ff9856;}.dbc9f73b-a635-448c-b877-2ac8adff7232{fill:#f08b55;}.\36 15cc91f-dcd9-46c2-bb03-4e1396d0850a{fill:#fffab1;}.\36 d0381bb-520c-4c89-8e0c-d96d996136f2{fill:#fff463;}.ec47ca27-7c54-4ea3-ac61-b1d677b0a184{fill:#3fc8e8;}.\36 fbe0821-75c5-4db8-ad8b-8afb3e88410f{fill:#f1f3f6;}.\35 350408e-956c-464b-89c6-e57be9452fa2,.fe5ce703-5d2e-46b3-b334-4b62d32e6cb6{fill:none;stroke-linecap:round;stroke-miterlimit:10;}.\35 350408e-956c-464b-89c6-e57be9452fa2{stroke:#eaeaea;stroke-width:6px;}.\30 be5f99b-b208-46eb-be65-6791bdce36b4{fill:#e7e6e8;}.\32 1c42e2f-04ab-4f21-bd5d-34ce8897f4c8{fill:#1b1323;}.fe5ce703-5d2e-46b3-b334-4b62d32e6cb6{stroke:#fff;}</style></defs><title>spaceman</title><g id="f6824ccb-53e2-49cc-bfc6-ae02cb523e05" data-name="站立"><rect class="51186138-a73f-4c9d-9977-30ceaeb46698" x="110.72" y="128.11" width="123.49" height="119.57" rx="11.47" ry="11.47"/><path class="51186138-a73f-4c9d-9977-30ceaeb46698" d="M194.88,380.25a10.44,10.44,0,0,0,2.46,4.27c1,1,2.39,1.76,3.46,2.75a30.32,30.32,0,0,1,3.06,3.67A25.2,25.2,0,0,0,228.47,401a13.81,13.81,0,0,0,5.74-3.34,29.31,29.31,0,0,0,2.64-3.39,13.67,13.67,0,0,0-6-13.49c-4.47-3.2-10-6.44-12.92-10.15-.75-.94-18.18-.9-25.29-.32a34,34,0,0,0,.7,5.23C193.73,377.14,194.31,378.69,194.88,380.25Z"/><path class="fc86a132-5919-49e6-a4bc-8bafd87c250a" d="M234.2,397.65a13.81,13.81,0,0,1-5.74,3.34,25.2,25.2,0,0,1-24.61-10.06,30.32,30.32,0,0,0-3.06-3.67c-1.06-1-2.44-1.72-3.46-2.75a10.44,10.44,0,0,1-2.46-4.27c-.57-1.55-1.15-3.11-1.58-4.71a34,34,0,0,1-.7-5.23c-1.8.15-2.94.33-3,.54a14.59,14.59,0,0,0,.5,5c.46,1.68,1.07,3.31,1.66,4.95a13.57,13.57,0,0,0,2.78,5.05c1.07,1.08,2.46,1.8,3.58,2.83a24.51,24.51,0,0,1,2.77,3.43c6.21,8.24,16.17,13,26.26,10.84a15.37,15.37,0,0,0,5.85-2.61c1.22-1.11,3.45-3.23,3.76-5.45,0-.2,0-.4.07-.61A29.31,29.31,0,0,1,234.2,397.65Z"/><path class="51186138-a73f-4c9d-9977-30ceaeb46698" d="M150.05,380.25a10.44,10.44,0,0,1-2.46,4.27c-1,1-2.39,1.76-3.46,2.75a30.32,30.32,0,0,0-3.06,3.67A25.2,25.2,0,0,1,116.46,401a13.81,13.81,0,0,1-5.74-3.34,29.31,29.31,0,0,1-2.64-3.39,13.67,13.67,0,0,1,6-13.49c4.47-3.2,10-6.44,12.92-10.15.75-.94,18.18-.9,25.29-.32a34,34,0,0,1-.7,5.23C151.2,377.14,150.62,378.69,150.05,380.25Z"/><path class="fc86a132-5919-49e6-a4bc-8bafd87c250a" d="M110.73,397.65a13.81,13.81,0,0,0,5.74,3.34,25.2,25.2,0,0,0,24.61-10.06,30.32,30.32,0,0,1,3.06-3.67c1.06-1,2.44-1.72,3.46-2.75a10.44,10.44,0,0,0,2.46-4.27c.57-1.55,1.15-3.11,1.58-4.71a34,34,0,0,0,.7-5.23c1.8.15,2.94.33,3,.54a14.59,14.59,0,0,1-.5,5c-.46,1.68-1.07,3.31-1.66,4.95a13.57,13.57,0,0,1-2.78,5.05c-1.07,1.08-2.46,1.8-3.58,2.83a24.51,24.51,0,0,0-2.77,3.43c-6.21,8.24-16.17,13-26.26,10.84a15.37,15.37,0,0,1-5.85-2.61c-1.22-1.11-3.45-3.23-3.76-5.45,0-.2,0-.4-.07-.61A29.31,29.31,0,0,0,110.73,397.65Z"/><path class="c6e0a7d7-f289-4ad1-9c52-900491bd9f96" d="M119.61,317.55c-1.48,18.25-2.79,36.79,2.91,51.39,1.3,3.33,10.45,4.6,13.83,5s12.66.81,16.58-.75c2-.8,4.08-4.39,4.93-8.72,2.91-14.77,3-26.2,3.12-40.89Z"/><path class="c6e0a7d7-f289-4ad1-9c52-900491bd9f96" d="M225.32,317.55c1.48,18.25,2.79,36.79-2.91,51.39-1.3,3.33-10.45,4.6-13.83,5s-12.66.81-16.58-.75c-2-.8-4.08-4.39-4.93-8.72-2.91-14.77-3-26.2-3.12-40.88Z"/><path class="c6e0a7d7-f289-4ad1-9c52-900491bd9f96" d="M230,263.64H115c-.42,10.22,1.9,45,5,55a14,14,0,0,0,6.27,8.1,25.75,25.75,0,0,0,7.1,2.81c3.78.88,10.88.57,14.73.08a27.11,27.11,0,0,0,10.77-4c3.68-2.41,4.29-6.79,5.7-12.6a275.6,275.6,0,0,0,5.12-28.31,8.21,8.21,0,0,0,5.68,0,275.6,275.6,0,0,0,5.12,28.31c1.41,5.81,2,10.19,5.7,12.6a27.11,27.11,0,0,0,10.77,4c3.85.49,10.95.8,14.73-.08a25.75,25.75,0,0,0,7.1-2.81,14,14,0,0,0,6.27-8.1C228.06,308.64,230.38,273.86,230,263.64Z"/><path class="f8b1d7e1-7dfd-4fa2-b37e-7791ca148267" d="M203.92,316.71c-15.4,2-20,6.89-20,6.89a8.25,8.25,0,0,0,2.16,2.06,27.11,27.11,0,0,0,10.77,4c3.85.49,10.95.8,14.73-.08a25.75,25.75,0,0,0,7.1-2.81,14,14,0,0,0,6.27-8.1c.12-.38.22-.76.33-1.14C225.31,317.55,219.67,314.66,203.92,316.71Z"/><path class="f8b1d7e1-7dfd-4fa2-b37e-7791ca148267" d="M141,316.71c15.4,2,20,6.89,20,6.89a8.25,8.25,0,0,1-2.16,2.06,27.11,27.11,0,0,1-10.77,4c-3.85.49-10.95.8-14.73-.08a25.75,25.75,0,0,1-7.1-2.81,14,14,0,0,1-6.27-8.1c-.12-.38-.22-.76-.33-1.14C119.62,317.55,125.27,314.66,141,316.71Z"/><path class="61e15ac2-3c92-47cf-88de-3d06b543e43e" d="M214,159c10,24.14,12.87,36.69,15.54,52.78,1.41,8.5.4,39,.4,41.81H172.48V152.31l30.7-4.56Z"/><path class="61e15ac2-3c92-47cf-88de-3d06b543e43e" d="M130.94,159c-10,24.14-12.87,37.14-15.54,52.78-1.45,8.49-.43,38.94-.43,41.81h57.51V152.31l-30.7-4.56Z"/><path class="e6719921-4d4d-4cc1-bb86-47696071f215" d="M158.18,282.12c2.36,2.36,7.15,3.14,14.29,3.14s11.92-.77,14.29-3.14a80.54,80.54,0,0,1-14.29,1.57A80.46,80.46,0,0,1,158.18,282.12Z"/><rect class="895ec29f-bca7-4d33-9045-bc7121153a71" x="144.44" y="190.34" width="56.05" height="33" rx="6.03" ry="6.03"/><rect class="e045c243-60ca-4ec6-b685-c3affd0f0df2" x="151.21" y="196.19" width="27.22" height="4.67" rx="2.34" ry="2.34"/><rect class="e045c243-60ca-4ec6-b685-c3affd0f0df2" x="151.21" y="204.5" width="27.22" height="4.67" rx="2.34" ry="2.34"/><rect class="e045c243-60ca-4ec6-b685-c3affd0f0df2" x="151.21" y="212.81" width="27.22" height="4.67" rx="2.34" ry="2.34"/><circle class="4e58461c-d07c-4247-9530-eb6052d8a235" cx="189.04" cy="200.86" r="4.67"/><circle class="e045c243-60ca-4ec6-b685-c3affd0f0df2" cx="189.04" cy="212.81" r="4.67"/><rect class="895ec29f-bca7-4d33-9045-bc7121153a71" x="114.96" y="253.64" width="115" height="10"/><circle class="da2acea0-4958-456f-8726-4609a6493213" cx="199.71" cy="171.94" r="7.17"/><path class="6dfc96fa-791b-422f-afd9-050c3b23b6d5" d="M202.72,171.63a3,3,0,0,0-.37-1.17c-1.27.92-4.12,1.22-5.61,1a2.72,2.72,0,0,0,0,1.11A11.26,11.26,0,0,0,202.72,171.63Z"/><path class="ba84fcf7-4756-4ef8-8f2e-09579e168331" d="M202.35,170.47a3,3,0,0,0-.81-.93,5.51,5.51,0,0,1-2,.72,8,8,0,0,1-2.37.07,3,3,0,0,0-.43,1.14C198.24,171.69,201.08,171.39,202.35,170.47Z"/><path class="f3992c2d-3f8d-4c78-b221-325d0950cadd" d="M200.49,169a2.9,2.9,0,0,0-2.6.53A5.65,5.65,0,0,0,200.49,169Z"/><path class="7036000d-214e-474e-b826-6d69556ba19c" d="M199.54,170.25a5.51,5.51,0,0,0,2-.72,3,3,0,0,0-1.05-.51,5.65,5.65,0,0,1-2.6.53,3,3,0,0,0-.71.77A8,8,0,0,0,199.54,170.25Z"/><path class="ba84fcf7-4756-4ef8-8f2e-09579e168331" d="M198.5,174.71a3,3,0,0,0,3.13-.43A6.88,6.88,0,0,1,198.5,174.71Z"/><path class="7036000d-214e-474e-b826-6d69556ba19c" d="M197.58,174.08a3,3,0,0,0,.92.62,6.88,6.88,0,0,0,3.13-.43,3,3,0,0,0,.67-.77A9.61,9.61,0,0,1,197.58,174.08Z"/><path class="dbc9f73b-a635-448c-b877-2ac8adff7232" d="M202.72,171.63a11.26,11.26,0,0,1-6,.93,3,3,0,0,0,.6,1.25h0a3.06,3.06,0,0,0,.22.27,9.61,9.61,0,0,0,4.72-.58,2.66,2.66,0,0,0,.41-1.21A6,6,0,0,0,202.72,171.63Z"/><path class="4e58461c-d07c-4247-9530-eb6052d8a235" d="M203.3,170.76c.57.16,1,.38.39.85a2.7,2.7,0,0,1-.52.28,13.23,13.23,0,0,1-3.46.92,19,19,0,0,1-3.13.13,2.77,2.77,0,0,1-.93-.16c-.4-.21,0-.7.32-1-.74.19-1.17.8-.84,1.3.2.3.83.51,1.89.58a19,19,0,0,0,2.95-.08,8.42,8.42,0,0,0,3-.77,3.85,3.85,0,0,0,1.32-1C204.64,171.34,204.33,170.65,203.3,170.76Z"/><circle class="615cc91f-dcd9-46c2-bb03-4e1396d0850a" cx="201.5" cy="166.67" r="0.34"/><circle class="f8b1d7e1-7dfd-4fa2-b37e-7791ca148267" cx="193.97" cy="169.96" r="0.17"/><circle class="6d0381bb-520c-4c89-8e0c-d96d996136f2" cx="197.9" cy="176.23" r="0.24"/><circle class="ec47ca27-7c54-4ea3-ac61-b1d677b0a184" cx="202.96" cy="169.56" r="0.1"/><path class="51186138-a73f-4c9d-9977-30ceaeb46698" d="M92.79,253.39A11.32,11.32,0,0,0,90.71,249l-18.95-6.45-3.21-1.09c-2.62,2.27-3.28,14.57-2.19,20.09.47,2.4,2.27,6.29,4.15,7.84,1.2,1,4.17,3.91,7.66,3.91,4.34,0,7.25-1.14,9.93-3.54a9.7,9.7,0,0,0,2.11-4.54,12.42,12.42,0,0,0-.42-4.58,3.69,3.69,0,0,0,.86-.12,3.61,3.61,0,0,0,1.61-1.07,4.39,4.39,0,0,0,.93-3A13.83,13.83,0,0,0,92.79,253.39Z"/><path class="f8b1d7e1-7dfd-4fa2-b37e-7791ca148267" d="M105.88,164.75c-3,3-11.77,13-18.32,29.51C78.48,204.57,68.13,220,68,233.57c3.33,6.9,24.69,10.28,28.82,10.28,3.37-4.6,8.33-19.44,14.22-32.74,9.5-14.57,14.36-25.35,16.56-34.45.08-4.2-7.11-7.74-10.41-9.32C114.56,166.1,108,162.64,105.88,164.75Z"/><path class="895ec29f-bca7-4d33-9045-bc7121153a71" d="M97.28,243.12c-1-2.64-26.67-11.2-29.31-9.54-3.11,1.95-2.47,4.76-2.22,6.28.54,3.27,27.83,11,30.26,9.56C97.32,248.63,97.92,244.74,97.28,243.12Z"/><path class="e045c243-60ca-4ec6-b685-c3affd0f0df2" d="M129.83,148.76c-2.64,7.39-2.27,27.9-2.27,27.9,2.48-9.5,8-21.3,16-28.65C142,147.34,132.77,147.22,129.83,148.76Z"/><path class="e045c243-60ca-4ec6-b685-c3affd0f0df2" d="M127.56,176.66s-11-13.22-11.33-22.24a18.6,18.6,0,0,0-10.35,10.33C113.22,165.44,127.56,176.66,127.56,176.66Z"/><path class="6fbe0821-75c5-4db8-ad8b-8afb3e88410f" d="M127.56,176.66s-.37-20.51,2.27-27.9c-5.63.26-13.11,3.64-13.6,5.67C116.58,163.44,127.56,176.66,127.56,176.66Z"/><circle class="7036000d-214e-474e-b826-6d69556ba19c" cx="202.73" cy="235" r="5.24"/><path class="5350408e-956c-464b-89c6-e57be9452fa2" d="M173.58,128.11s3.34-9.41,48.33-7.87c43.77,1.5,36.68,24.57,58.7,46.08C311.17,196.19,280,275,202.72,235"/><path class="51186138-a73f-4c9d-9977-30ceaeb46698" d="M252.14,253.39a11.32,11.32,0,0,1,2.08-4.37l18.95-6.45,3.21-1.09c2.62,2.27,3.28,14.57,2.19,20.09-.47,2.4-2.27,6.29-4.15,7.84-1.2,1-4.17,3.91-7.66,3.91-4.34,0-7.25-1.14-9.93-3.54a9.7,9.7,0,0,1-2.11-4.54,12.42,12.42,0,0,1,.42-4.58,3.69,3.69,0,0,1-.86-.12,3.61,3.61,0,0,1-1.61-1.07,4.39,4.39,0,0,1-.93-3A13.83,13.83,0,0,1,252.14,253.39Z"/><path class="f8b1d7e1-7dfd-4fa2-b37e-7791ca148267" d="M239.05,164.75c3,3,11.77,13,18.32,29.51,9.08,10.3,19.43,25.72,19.59,39.31-3.33,6.9-24.69,10.28-28.82,10.28-3.37-4.6-8.33-19.44-14.22-32.74-9.5-14.57-14.36-25.35-16.56-34.45-.08-4.2,7.11-7.74,10.41-9.32C230.37,166.1,236.89,162.64,239.05,164.75Z"/><path class="895ec29f-bca7-4d33-9045-bc7121153a71" d="M247.65,243.12c1-2.64,26.67-11.2,29.31-9.54,3.11,1.95,2.47,4.76,2.22,6.28-.54,3.27-27.83,11-30.26,9.56C247.61,248.63,247,244.74,247.65,243.12Z"/><path class="e045c243-60ca-4ec6-b685-c3affd0f0df2" d="M215.1,148.76c2.64,7.39,2.27,27.9,2.27,27.9-2.48-9.5-8-21.3-16-28.65C202.93,147.34,212.16,147.22,215.1,148.76Z"/><path class="e045c243-60ca-4ec6-b685-c3affd0f0df2" d="M217.37,176.66s11-13.22,11.33-22.24a18.6,18.6,0,0,1,10.35,10.33C231.71,165.44,217.37,176.66,217.37,176.66Z"/><path class="6fbe0821-75c5-4db8-ad8b-8afb3e88410f" d="M217.37,176.66s.37-20.51-2.27-27.9c5.63.26,13.11,3.64,13.6,5.67C228.35,163.44,217.37,176.66,217.37,176.66Z"/><path class="e6719921-4d4d-4cc1-bb86-47696071f215" d="M204.41,137.07c2.21,14.57-7.27,17.92-31.94,17.92-24.22,0-34.16-3.3-31.94-17.92,1.71-11.25,12.87-18.76,31.94-18.76S202.7,125.83,204.41,137.07Z"/><path class="0be5f99b-b208-46eb-be65-6791bdce36b4" d="M204.79,133.31c2.24,14.57-10.06,18.09-32.32,18.09-21.8,0-34.56-3.48-32.32-18.09,1.73-11.25,13-18.76,32.32-18.76S203.06,122.06,204.79,133.31Z"/><path class="e045c243-60ca-4ec6-b685-c3affd0f0df2" d="M118,111a8.41,8.41,0,0,1-5.67,1.16,6.41,6.41,0,0,1-3-1.45,5.71,5.71,0,0,1-1.16-2.76c-1.25-7.66-1.87-14.59-.9-22.29A11,11,0,0,1,108.7,81c.91-1.39,2.61-2.63,4.19-2.13C115.07,79.52,118.93,110.4,118,111Z"/><path class="e045c243-60ca-4ec6-b685-c3affd0f0df2" d="M227.38,111.23a8.41,8.41,0,0,0,5.71,1,6.41,6.41,0,0,0,3-1.55,5.71,5.71,0,0,0,1.07-2.8c1-7.69,1.4-14.65.18-22.31a11,11,0,0,0-1.58-4.67c-1-1.36-2.69-2.55-4.26-2C229.3,79.65,226.44,110.64,227.38,111.23Z"/><path class="f8b1d7e1-7dfd-4fa2-b37e-7791ca148267" d="M232.2,90.86c0,33-26.75,56.68-59.75,56.68S112.7,123.86,112.7,90.86a59.75,59.75,0,1,1,119.5,0Z"/><path class="21c42e2f-04ab-4f21-bd5d-34ce8897f4c8" d="M216.75,95c0,22.22,0,40.23-44.3,40.23-45.42,0-44.3-18-44.3-40.23S148,73.41,172.45,73.41,216.75,72.78,216.75,95Z"/><circle class="f8b1d7e1-7dfd-4fa2-b37e-7791ca148267" cx="154.42" cy="104.42" r="4.18"/><circle class="f8b1d7e1-7dfd-4fa2-b37e-7791ca148267" cx="191.51" cy="104.42" r="4.18"/><path class="fe5ce703-5d2e-46b3-b334-4b62d32e6cb6" d="M151.56,92.3s3.9-1.5,5.74,1.5"/><path class="fe5ce703-5d2e-46b3-b334-4b62d32e6cb6" d="M194.38,92.3s-3.9-1.5-5.74,1.5"/><path class="f8b1d7e1-7dfd-4fa2-b37e-7791ca148267" d="M161.72,116.33a32.67,32.67,0,0,0,23.82-1.17c.74-.33.1-1.42-.64-1.09a31.35,31.35,0,0,1-22.84,1c-.77-.26-1.11,1-.34,1.22Z"/></g></svg>