<?xml version="1.0" encoding="utf-8"?>
<!-- Generator: Adobe Illustrator 23.0.2, SVG Export Plug-In . SVG Version: 6.00 Build 0)  -->
<svg version="1.1" id="e523f325-f365-4eed-8792-8351ab19841d"
	 xmlns="http://www.w3.org/2000/svg" xmlns:xlink="http://www.w3.org/1999/xlink" x="0px" y="0px" viewBox="0 0 297.2 395.5"
	 style="enable-background:new 0 0 297.2 395.5;" xml:space="preserve">
<style type="text/css">
	.st0{clip-path:url(#SVGID_2_);}
	.st1{fill:#68B82F;}
	.st2{fill:#EF8222;}
	.st3{fill:#DAE000;}
	.st4{fill:#59C1CE;}
	.st5{fill:#FFFFFF;}
	.st6{fill:#FFFFFF;stroke:#FFFFFF;stroke-width:0.5;stroke-miterlimit:10;}
</style>
<title>大學PLUS_LOGO_修v7</title>
<g>
	<defs>
		<rect id="SVGID_1_" x="-14" y="-16.2" width="325.2" height="427.9"/>
	</defs>
	<clipPath id="SVGID_2_">
		<use xlink:href="#SVGID_1_"  style="overflow:visible;"/>
	</clipPath>
	<g class="st0">
		<path class="st1" d="M171.5,275.4h102.3c2.4,0,4.3-2,4.2-4.4c0,0,0-0.1,0-0.1V162.5c0.1-2.4-1.8-4.4-4.2-4.5c0,0,0,0,0,0h-95.9
			c-6,0.2-10.7,5.1-10.6,11.1v101.8C167.2,273.3,169.1,275.3,171.5,275.4C171.5,275.4,171.5,275.4,171.5,275.4"/>
		<path class="st2" d="M75.4,157.5l-57.2,57.2c-0.5,0.5-0.7,1.1-0.7,1.8v56.1c0,1.4,1.1,2.5,2.5,2.6c0,0,0,0,0,0h114.4
			c1.4,0,2.5-1.1,2.5-2.5c0,0,0,0,0,0v-56.1c0-0.7-0.3-1.3-0.8-1.8L79,157.5C78,156.5,76.4,156.5,75.4,157.5"/>
		<path class="st3" d="M133.8,83.5c0,31.2-25.3,56.6-56.5,56.6s-56.6-25.3-56.6-56.5C20.7,52.4,45.9,27,77.2,27c0,0,0,0,0,0
			C108.4,27,133.8,52.3,133.8,83.5"/>
		<polygon class="st4" points="169.2,140.1 223.6,26.7 278,140.1 		"/>
		<path class="st5" d="M228.3,32.5c6.3-0.1,11.5,4.9,11.6,11.2s-4.9,11.5-11.2,11.6c-6.3,0.1-11.5-4.9-11.6-11.2c0-0.1,0-0.1,0-0.2
			c-0.1-6.2,4.8-11.3,11-11.4C228.2,32.5,228.3,32.5,228.3,32.5 M177.9,32.6c6.2-0.1,11.4,4.9,11.5,11.1c0.1,6.2-4.9,11.4-11.1,11.5
			c-6.2,0.1-11.4-4.9-11.5-11.1c0-0.1,0-0.1,0-0.2c-0.1-6.1,4.8-11.2,10.9-11.3C177.7,32.6,177.8,32.6,177.9,32.6"/>
		<path class="st5" d="M243.4,75.5v28c0,17.6-6.2,32.1-26,32.1c-19,0-27.4-14.7-27.4-31.6v-9.3h-20.2c-3.5,0-6.3-2.8-6.4-6.3v-6.6
			c0-3.5,2.8-6.3,6.4-6.3L243.4,75.5z M205.1,103.1c0,9.3,4.4,13.9,12.2,13.9c8.1,0,10.9-5.2,10.9-14.4v-7.8h-23.1V103.1z"/>
		<path class="st5" d="M235.2,181.9c6.3-0.1,11.5,4.9,11.6,11.2c0.1,6.3-4.9,11.5-11.2,11.6s-11.5-4.9-11.6-11.2c0-0.1,0-0.1,0-0.2
			c-0.1-6.2,4.8-11.3,11-11.4C235.1,181.9,235.1,181.9,235.2,181.9 M184.7,181.9c6.3-0.1,11.5,4.9,11.6,11.2
			c0.1,6.3-4.9,11.5-11.2,11.6c-6.3,0.1-11.5-4.9-11.6-11.2c0-0.1,0-0.2,0-0.2c-0.1-6.2,4.8-11.3,11-11.4
			C184.6,181.9,184.6,181.9,184.7,181.9"/>
		<path class="st5" d="M247.2,231.2v6.5c0,3.5-2.8,6.3-6.3,6.3c0,0,0,0,0,0h-57.4v31.1h-16.1v-50.3h73.6
			C244.4,224.9,247.2,227.7,247.2,231.2L247.2,231.2"/>
		<path class="st5" d="M118.8,33.9c5.8-0.1,10.6,4.5,10.7,10.4S125,54.9,119.1,55s-10.6-4.5-10.7-10.4c0-0.1,0-0.1,0-0.2
			c-0.1-5.7,4.5-10.5,10.2-10.5C118.7,33.9,118.7,33.9,118.8,33.9 M68.3,33.1C74.6,33,79.7,38,79.9,44.2C80,50.5,75,55.7,68.7,55.8
			c-6.3,0.1-11.5-4.9-11.6-11.2c0-0.1,0-0.1,0-0.2c-0.1-6.2,4.8-11.3,11-11.4C68.2,33.1,68.2,33.1,68.3,33.1"/>
		<path class="st5" d="M91.5,75.6h36c3.5,0,6.3,2.9,6.3,6.4c0,0,0,0,0,0v6.4c0,3.5-2.8,6.3-6.3,6.3c0,0,0,0,0,0h-38
			c-15.2,0-20.5,4.5-20.5,13.3s5.4,13.5,20.5,13.5h38c3.5,0,6.3,2.8,6.3,6.3c0,0,0,0,0,0v5.8c0,3.5-2.8,6.3-6.3,6.3c0,0,0,0,0,0h-36
			c-26.9,0-39.1-10.8-39.1-32S64.5,75.6,91.5,75.6"/>
		<path class="st5" d="M118.8,182c6.2-0.1,11.4,4.9,11.5,11.1s-4.9,11.4-11.1,11.5c-6.2,0.1-11.4-4.9-11.5-11.1c0-0.1,0-0.1,0-0.2
			c-0.1-6.1,4.8-11.2,10.9-11.3C118.6,182,118.7,182,118.8,182 M68.3,181.9c6.3-0.1,11.5,4.9,11.6,11.2c0.1,6.3-4.9,11.5-11.2,11.6
			c-6.3,0.1-11.5-4.9-11.6-11.2c0-0.1,0-0.2,0-0.2c-0.1-6.2,4.8-11.3,11-11.4C68.2,181.9,68.2,181.9,68.3,181.9"/>
		<path class="st5" d="M68.9,224l3.7,3c2.4,2,2.9,5.6,1.2,8.2c-3,4.8-4.8,10.2-4.8,14.9c0,7.1,2.7,10.4,7,10.4c4.6,0,6.1-4.4,9-11.3
			l4.3-10.2c3.3-8.4,10.3-16.2,21.9-16.2c13.4,0,24.2,12.1,24.2,29c0,7.3-2.1,14.4-6.1,20.4c-1.9,3-5.8,3.9-8.8,2
			c-0.2-0.1-0.4-0.3-0.6-0.4l-2.8-2.2c-2.4-1.9-3-5.4-1.4-8c2.1-3.6,3.2-7.8,3.2-11.9c0-5.9-2.4-9.6-6.7-9.6s-6.1,5-8.9,12.1l-4,10
			c-4,9.9-10.6,15.8-21.9,15.8c-13.3,0-25-11.1-25-30.5c0-8.5,2.5-16.9,7.1-24.1c1.9-3,5.8-3.9,8.8-2.1
			C68.5,223.7,68.7,223.8,68.9,224"/>
		<path class="st6" d="M32.7,332.5c-6.7,0-10.1-4-10.1-12.1v-11.6c0-0.7,0.3-1.3,0.8-1.8c0.5-0.5,1.1-0.8,1.8-0.8
			c0.7,0,1.4,0.3,1.9,0.8c0.5,0.5,0.8,1.1,0.8,1.8v12.1c0,2.6,0.4,4.4,1.2,5.5c0.9,1.1,2.2,1.8,3.6,1.7c1.4,0.1,2.8-0.5,3.7-1.7
			c0.9-1.1,1.3-3,1.3-5.5v-12.2c0-0.7,0.3-1.3,0.7-1.8c1-1,2.5-1,3.5,0c0.5,0.5,0.7,1.1,0.7,1.8v11.7c0,4.2-0.9,7.3-2.6,9.2
			S35.9,332.4,32.7,332.5"/>
		<path class="st6" d="M54.5,331.3c-0.5,0.5-1.1,0.7-1.7,0.7c-1.3,0-2.4-1.1-2.5-2.4c0,0,0,0,0,0v-20.8c0-0.7,0.3-1.4,0.8-1.9
			c0.5-0.5,1.2-0.8,1.9-0.8c1.6,0,3.1,0.9,3.9,2.3l6.2,11.5l2.6,5.5c0,0.1,0.1,0.1,0.1,0.1c0,0,0.1,0,0.1-0.1
			c-0.5-4.2-0.7-7.2-0.7-9v-7.9c-0.1-1.4,0.9-2.5,2.3-2.6c1.4-0.1,2.5,0.9,2.6,2.3c0,0.1,0,0.2,0,0.3v20.8c0,1.4-1.1,2.6-2.5,2.7
			c0,0-0.1,0-0.1,0c-0.8,0-1.6-0.2-2.2-0.6c-0.7-0.4-1.3-1-1.6-1.7l-6.2-11.5l-2.6-5.5c0,0-0.1-0.1-0.1-0.1c-0.1,0-0.1,0-0.1,0.1
			c0,0.3,0.1,1,0.2,2.1s0.2,1.9,0.2,2.4s0.1,1.3,0.2,2.1s0.1,1.6,0.1,2.3v7.9C55.3,330.2,55,330.8,54.5,331.3"/>
		<path class="st6" d="M82.4,331.2c-0.5,0.5-1.1,0.8-1.8,0.8c-0.7,0-1.3-0.3-1.8-0.8c-0.5-0.5-0.8-1.1-0.8-1.8v-20.7
			c0-1.4,1.2-2.6,2.6-2.6c0.7,0,1.4,0.3,1.8,0.8c0.5,0.5,0.8,1.1,0.8,1.8v20.7C83.2,330.1,82.9,330.7,82.4,331.2"/>
		<path class="st6" d="M98.5,332c-0.9,0-1.7-0.3-2.4-0.8c-0.7-0.5-1.2-1.2-1.4-2l-6.2-20.5c-0.3-1.1,0.3-2.2,1.3-2.5
			c0.2-0.1,0.4-0.1,0.6-0.1c0.8,0,1.5,0.3,2.2,0.7c0.6,0.5,1.1,1.1,1.3,1.9l2.7,10c0.2,0.9,0.6,2.2,1,4s0.8,3.2,1.1,4.2
			c0,0.1,0.1,0.1,0.1,0.1s0.1,0,0.1-0.1c0.2-0.9,0.6-2.3,1.1-4.1s0.8-3.2,1.1-4.2l2.7-10.1c0.2-0.7,0.6-1.4,1.2-1.8
			c0.6-0.5,1.3-0.7,2.1-0.7c0.6,0,1.2,0.3,1.6,0.8c0.2,0.3,0.4,0.7,0.4,1.1c0,0.2,0,0.4-0.1,0.6l-6.3,20.5c-0.2,0.8-0.8,1.5-1.4,2
			c-0.7,0.5-1.5,0.8-2.4,0.8L98.5,332z"/>
		<path class="st6" d="M117,332c-0.8,0-1.6-0.3-2.1-0.9c-0.6-0.6-0.9-1.3-0.9-2.1v-19.9c0-0.8,0.3-1.5,0.9-2.1
			c0.6-0.6,1.3-0.9,2.1-0.9h10.8c1.2,0,2.1,1,2.1,2.2c0,1.2-1,2.1-2.1,2.1h-8.2c-0.2,0-0.3,0.1-0.3,0.3c0,0,0,0.1,0,0.1v5.3
			c0,0.2,0.1,0.3,0.3,0.3c0,0,0,0,0.1,0h6.6c1.2-0.1,2.2,0.8,2.3,2s-0.8,2.2-2,2.3c-0.1,0-0.2,0-0.3,0h-6.6c-0.2,0-0.3,0.1-0.3,0.3
			c0,0,0,0.1,0,0.1v6.2c0,0.2,0.1,0.3,0.3,0.3c0,0,0,0,0.1,0h8.6c0.6,0,1.1,0.2,1.5,0.6c0.8,0.8,0.9,2.2,0,3.1c0,0,0,0,0,0
			c-0.4,0.4-0.9,0.6-1.5,0.6L117,332z"/>
		<path class="st6" d="M155.4,329.5c0.2,0.2,0.2,0.5,0.2,0.8c0,0.3-0.1,0.6-0.2,0.9c-0.3,0.5-0.8,0.9-1.4,0.8
			c-0.9,0-1.7-0.2-2.5-0.7c-0.7-0.4-1.3-1.1-1.8-1.8l-3.8-7c-0.1-0.2-0.3-0.3-0.5-0.3h-2.9c-0.2,0-0.3,0.1-0.3,0.3c0,0,0,0.1,0,0.1
			v6.9c0,0.7-0.3,1.4-0.8,1.8c-1,1-2.6,1-3.6,0c-0.5-0.5-0.8-1.1-0.8-1.8v-20.3c0-1.7,1.3-3,3-3h6c6.5,0,9.7,2.6,9.7,7.9
			c0,3.5-1.5,6-4.6,7.3c-0.2,0.1-0.2,0.2-0.1,0.4L155.4,329.5z M142.5,310.2c-0.2,0-0.3,0.1-0.3,0.3c0,0,0,0.1,0,0.1v7.2
			c0,0.2,0.1,0.3,0.3,0.3c0,0,0,0,0.1,0h3c1.4,0.1,2.7-0.3,3.8-1c0.9-0.8,1.4-1.9,1.3-3.1c0.1-1.1-0.4-2.3-1.3-3
			c-1.2-0.7-2.5-0.9-3.9-0.9L142.5,310.2z"/>
		<path class="st6" d="M169.5,332.5c-2.7,0-5.4-0.8-7.6-2.3c-0.5-0.3-0.9-0.9-0.9-1.5v-0.2c0-0.5,0.2-1.1,0.6-1.5
			c0.4-0.5,0.9-0.8,1.5-0.8c0.1,0,0.2,0,0.3,0c0.5,0,1,0.2,1.5,0.5c1.4,0.9,3.1,1.4,4.8,1.5c1.1,0.1,2.1-0.2,3-0.8
			c0.7-0.5,1.1-1.3,1.1-2.2c0.1-0.7-0.3-1.4-0.8-1.9c-0.9-0.6-1.8-1.1-2.8-1.5l-0.2-0.1l-3.5-1.5c-1.4-0.6-2.7-1.5-3.7-2.7
			c-1-1.2-1.5-2.7-1.5-4.3c0-2.1,0.9-4.1,2.5-5.3c1.8-1.5,4.1-2.2,6.4-2.1c2.3,0,4.6,0.7,6.5,2c0.5,0.3,0.8,0.8,0.8,1.4v0.2
			c0,0.5-0.2,1-0.5,1.4c-0.3,0.4-0.8,0.7-1.4,0.8c-0.1,0-0.2,0-0.3,0c-0.5,0-0.9-0.1-1.3-0.3c-1.1-0.7-2.4-1-3.8-1
			c-1,0-1.9,0.2-2.7,0.7c-0.7,0.5-1,1.2-1,2c0,0.4,0.1,0.8,0.3,1.1c0.2,0.4,0.5,0.7,0.9,0.9c0.4,0.2,0.7,0.5,1.1,0.6
			c0.3,0.2,0.8,0.4,1.5,0.6l0.2,0.1l3.4,1.4c1.5,0.6,2.8,1.5,3.9,2.7c0.9,1.2,1.4,2.8,1.3,4.3c0,2.2-0.9,4.2-2.6,5.6
			C174.5,331.8,172,332.6,169.5,332.5"/>
		<path class="st6" d="M189.5,331.2c-1,1-2.6,1-3.6,0c-0.5-0.5-0.8-1.1-0.8-1.8v-20.7c0-0.7,0.3-1.4,0.8-1.8c1-1,2.7-1,3.7,0
			c0.5,0.5,0.7,1.1,0.7,1.8v20.7C190.3,330.1,190,330.7,189.5,331.2"/>
		<path class="st6" d="M207.6,331.2c-1,1-2.6,1-3.6,0c-0.5-0.5-0.8-1.2-0.8-1.9v-18.6c0-0.2-0.1-0.3-0.3-0.3c0,0,0,0-0.1,0h-4.8
			c-1.2,0-2.1-1-2.1-2.2c0-1.2,1-2.1,2.1-2.1h15.5c1.2,0,2.1,1,2.1,2.2c0,1.2-1,2.1-2.1,2.1h-4.9c-0.2,0-0.3,0.1-0.3,0.3
			c0,0,0,0,0,0.1v18.6C208.4,330.1,208.1,330.7,207.6,331.2"/>
		<path class="st6" d="M225.8,331.2c-1,1-2.6,1-3.6,0c-0.5-0.5-0.8-1.1-0.8-1.8v-20.7c0-0.7,0.3-1.4,0.8-1.8c1-1,2.7-1,3.7,0
			c0.5,0.5,0.7,1.1,0.7,1.8v20.7C226.6,330.1,226.3,330.7,225.8,331.2"/>
		<path class="st6" d="M237.4,332c-0.8,0-1.6-0.3-2.1-0.9c-0.6-0.6-0.9-1.3-0.9-2.1v-20c0-0.8,0.3-1.5,0.9-2.1
			c0.6-0.6,1.3-0.9,2.1-0.9h10.8c1.2,0,2.1,1,2.1,2.2c0,1.2-1,2.1-2.1,2.1h-8.2c-0.2,0-0.3,0.1-0.3,0.3c0,0,0,0,0,0.1v5.3
			c0,0.2,0.1,0.3,0.3,0.3c0,0,0.1,0,0.1,0h6.6c1.2-0.1,2.2,0.8,2.3,2s-0.8,2.2-2,2.3c-0.1,0-0.2,0-0.3,0h-6.6
			c-0.2,0-0.3,0.1-0.3,0.3c0,0,0,0,0,0.1v6.2c0,0.2,0.1,0.3,0.3,0.3c0,0,0.1,0,0.1,0h8.6c0.6,0,1.1,0.2,1.5,0.6
			c0.8,0.8,0.9,2.2,0,3.1c0,0,0,0,0,0c-0.4,0.4-0.9,0.6-1.5,0.6L237.4,332z"/>
		<path class="st6" d="M265.1,332.5c-2.7,0-5.4-0.8-7.6-2.3c-0.5-0.3-0.8-0.9-0.9-1.5v-0.2c0-0.5,0.2-1.1,0.6-1.5
			c0.4-0.5,0.9-0.8,1.5-0.8c0.1,0,0.2,0,0.3,0c0.5,0,1,0.2,1.5,0.5c1.4,0.9,3.1,1.4,4.8,1.5c1.1,0.1,2.1-0.2,3-0.8
			c0.7-0.5,1.1-1.3,1.1-2.2c0.1-0.7-0.3-1.4-0.8-1.9c-0.9-0.6-1.8-1.1-2.8-1.5l-0.2-0.1l-3.4-1.5c-1.4-0.6-2.7-1.5-3.7-2.7
			c-1-1.2-1.5-2.7-1.5-4.3c0-2.1,0.9-4.1,2.5-5.3c1.8-1.5,4.1-2.2,6.4-2.1c2.3,0,4.6,0.7,6.5,2c0.5,0.3,0.7,0.8,0.8,1.4v0.2
			c0,0.5-0.2,1-0.5,1.4c-0.3,0.4-0.8,0.7-1.4,0.8c-0.1,0-0.2,0-0.3,0c-0.5,0-0.9-0.1-1.3-0.3c-1.1-0.7-2.4-1-3.8-1
			c-1,0-1.9,0.2-2.7,0.7c-0.7,0.5-1,1.2-1,2c0,0.4,0.1,0.8,0.3,1.1c0.2,0.4,0.5,0.7,0.9,0.9c0.4,0.2,0.7,0.5,1.1,0.6
			c0.3,0.2,0.8,0.4,1.5,0.6l0.2,0.1l3.4,1.4c1.5,0.6,2.8,1.5,3.9,2.7c0.9,1.2,1.4,2.8,1.3,4.3c0,2.2-0.9,4.3-2.6,5.6
			C270,331.8,267.6,332.6,265.1,332.5"/>
		<path class="st6" d="M27.3,374.4c-1.1,1-2.7,1-3.8,0c-0.5-0.5-0.8-1.2-0.8-1.9v-22.7c0-0.8,0.3-1.5,0.8-2c0.5-0.5,1.2-0.9,2-0.9
			c0.9,0,1.7,0.2,2.5,0.7c0.8,0.4,1.4,1.1,1.8,1.8l6.9,12.5l2.8,6c0,0.1,0.1,0.1,0.1,0.1s0.1,0,0.1-0.1c-0.5-4.6-0.7-7.8-0.7-9.8
			v-8.6c0-1.5,1.2-2.7,2.7-2.7s2.7,1.2,2.7,2.7v22.7c0,0.8-0.3,1.5-0.8,2c-0.5,0.5-1.2,0.8-2,0.8c-0.9,0-1.7-0.2-2.5-0.6
			c-0.8-0.4-1.4-1.1-1.8-1.9l-6.8-12.6l-2.8-6c0-0.1-0.1-0.1-0.1-0.1c-0.1,0-0.1,0-0.1,0.1c0,0.4,0.1,1.1,0.2,2.3s0.2,2,0.2,2.6
			s0.1,1.4,0.2,2.3s0.1,1.8,0.1,2.5v8.6C28.1,373.2,27.8,373.8,27.3,374.4"/>
		<path class="st6" d="M62,374.4c-1.1,1.1-2.9,1.1-4,0c-0.5-0.5-0.8-1.2-0.8-2V352c0-0.2-0.1-0.3-0.3-0.4c0,0-0.1,0-0.1,0h-5.2
			c-0.6,0-1.2-0.2-1.7-0.7c-0.9-0.9-0.9-2.4,0-3.3c0.4-0.5,1-0.7,1.7-0.7h16.9c1.3,0.1,2.3,1.2,2.2,2.5c-0.1,1.2-1,2.1-2.2,2.2h-5.3
			c-0.2,0-0.3,0.1-0.4,0.3c0,0,0,0.1,0,0.1v20.3C62.8,373.1,62.5,373.8,62,374.4"/>
		<path class="st6" d="M86.4,375.7c-7.3,0-11-4.4-11-13.2v-12.7c0-0.8,0.3-1.5,0.8-2c0.5-0.5,1.2-0.8,2-0.8c1.6,0,2.8,1.3,2.8,2.8
			V363c0,2.8,0.5,4.8,1.4,6c0.9,1.2,2.4,1.9,4,1.8c1.6,0.1,3.1-0.6,4.1-1.9c0.9-1.2,1.4-3.2,1.4-6v-13.3c0-1.5,1.2-2.7,2.7-2.7
			c0.7,0,1.4,0.3,1.9,0.8c0.5,0.5,0.8,1.2,0.8,1.9v12.8c0,4.6-0.9,7.9-2.8,10C92.7,374.6,90,375.7,86.4,375.7"/>
		<path class="st6" d="M136.2,352.9c0.9,0.9,0.9,2.4,0,3.3c-0.4,0.4-1,0.7-1.6,0.7h-10.7c-0.1,0-0.2,0-0.2,0.1c0,0.1,0,0.2,0,0.3
			c2.4,6.9,6.3,11.8,11.7,14.8c0.5,0.3,0.9,0.8,1,1.4c0,0.1,0,0.3,0,0.5c0,0.5-0.2,0.9-0.4,1.3c-0.5,0.6-1.1,1-1.8,1.3
			c-0.2,0-0.5,0.1-0.8,0.1c-0.5,0-1-0.1-1.4-0.4c-5.1-3.1-9-7.9-11.7-14.5c0,0-0.1-0.1-0.1-0.1c-0.1,0-0.1,0-0.1,0.1
			c-2,6.2-6.2,11.4-11.9,14.6c-0.4,0.2-0.8,0.3-1.3,0.3c-0.2,0-0.5,0-0.7-0.1c-0.7-0.2-1.3-0.6-1.8-1.1c-0.3-0.3-0.5-0.8-0.5-1.3
			v-0.3c0.1-0.6,0.4-1.1,0.9-1.3c5.9-3.2,10.1-8.7,11.5-15.3c0-0.2,0-0.3-0.2-0.4c0,0-0.1,0-0.1,0h-10.4c-0.6,0-1.2-0.2-1.7-0.7
			c-0.9-0.9-0.9-2.4,0-3.3c0.4-0.4,1-0.7,1.6-0.7h11.2c0.2,0,0.4-0.1,0.4-0.3c0,0,0,0,0-0.1c0.1-1.5,0.2-4,0.3-7.3
			c0-0.7,0.3-1.3,0.8-1.8c0.5-0.5,1.1-0.7,1.8-0.7c0.7,0,1.3,0.3,1.8,0.7c0.5,0.4,0.7,1,0.7,1.7c0,2.5-0.1,4.9-0.4,7.4
			c0,0.1,0,0.2,0.1,0.3c0.1,0.1,0.1,0.1,0.2,0.1h12.3C135.2,352.2,135.8,352.5,136.2,352.9"/>
		<path class="st6" d="M172.2,356.2c0,0.2,0.1,0.3,0.3,0.3c1.4,0,2.6,1.1,2.6,2.6c0,0,0,0,0,0v3c0,0.6-0.2,1.2-0.7,1.6
			c-0.4,0.4-1,0.7-1.6,0.6c-1.2,0-2.2-1-2.2-2.2v-1.9c0-0.2-0.1-0.3-0.3-0.4c0,0-0.1,0-0.1,0h-23.8c-0.2,0-0.3,0.1-0.4,0.3
			c0,0,0,0.1,0,0.1v2c0,0.6-0.2,1.1-0.6,1.5c-0.4,0.4-0.9,0.6-1.5,0.6c-0.6,0-1.1-0.2-1.5-0.6c-0.4-0.4-0.6-1-0.6-1.5v-3
			c0-0.7,0.3-1.4,0.8-1.9c0.5-0.5,1.1-0.8,1.8-0.8c0.1,0,0.3-0.1,0.3-0.2c0,0,0,0,0-0.1l-0.6-9.4c-0.1-0.5,0.2-1.1,0.6-1.4
			c0.3-0.3,0.7-0.4,1.1-0.4c0.1,0,0.3,0,0.4,0c0.2,0,0.3,0,0.5,0c1-0.4,2.2-0.8,3.5-1.3c0.3-0.1,0.6-0.2,0.9-0.2
			c0.2,0,0.4,0,0.5,0.1c0.5,0.1,0.9,0.3,1.2,0.7c0.3,0.3,0.4,0.7,0.3,1.1c-0.1,0.4-0.3,0.7-0.7,0.8c-1.2,0.4-2.3,0.8-3.5,1.1
			c-0.2,0.1-0.3,0.2-0.3,0.5v0.1c0,0.2,0.1,0.4,0.3,0.4c0,0,0,0,0.1,0h3.2c0.8-0.1,1.5,0.5,1.5,1.3c0.1,0.8-0.5,1.5-1.3,1.5
			c-0.1,0-0.2,0-0.2,0h-3.1c-0.2,0-0.4,0.2-0.4,0.4v0.6c0,0.2,0.1,0.4,0.3,0.4c0,0,0,0,0.1,0h2.9c0.4,0,0.9,0.2,1.2,0.5
			c0.3,0.3,0.5,0.7,0.5,1.2c0,0,0,0,0.1,0.1c0,0,0.1,0,0.1,0c0.8-0.4,1.5-0.8,2.2-1.3c0.1,0,0.1-0.1,0.1-0.1c0-0.1,0-0.1-0.1-0.1
			c-0.2-0.1-0.4-0.2-0.7-0.4c-0.3-0.1-0.5-0.4-0.5-0.8c0-0.3,0.1-0.6,0.3-0.8c0.6-0.6,1.5-0.6,2.3-0.2c0.3,0.1,0.6,0.3,0.8,0.5
			c0.1,0.1,0.2,0.1,0.3,0c0.1-0.1,0.2-0.2,0.3-0.3c0.5-0.5,1.1-0.8,1.8-0.8c0.2,0,0.5,0,0.7,0.1c0.3,0.1,0.6,0.3,0.7,0.7
			c0.1,0.3,0,0.7-0.2,1c-0.2,0.3-0.5,0.5-0.8,0.8c-0.1,0-0.1,0.2-0.1,0.3c0,0,0,0.1,0.1,0.1l0.7,0.5c0.3,0.2,0.5,0.6,0.5,1
			c0,0.4-0.2,0.7-0.5,1c-0.3,0.3-0.6,0.4-1,0.4c0,0,0,0-0.1,0c-0.4,0-0.8-0.1-1.1-0.4l-0.6-0.5c-0.1-0.1-0.3-0.1-0.4,0
			c-0.3,0.2-0.7,0.5-1,0.8c-0.5,0.3-1,0.4-1.5,0.4c-0.1,0-0.2,0-0.3,0c-0.7-0.1-1.3-0.3-1.8-0.7l-0.2-0.1l0,0c0,0.1-0.1,0.3-0.2,0.3
			c0,0,0,0-0.1,0h-4.1c-0.1,0-0.2,0-0.3,0.1c-0.1,0.1-0.1,0.2-0.1,0.3v0.6c0,0.2,0.2,0.4,0.4,0.4c0,0,0,0,0,0h18.3
			c0.2,0,0.4-0.1,0.4-0.3c0,0,0,0,0,0v-0.6c0-0.1,0-0.2-0.1-0.3c-0.1-0.1-0.2-0.1-0.3-0.1h-2.8c-0.4,0-0.7-0.1-1-0.4
			c-0.3-0.3-0.4-0.6-0.4-1c0-0.4,0.1-0.7,0.4-1c0.3-0.3,0.6-0.4,1-0.4h3c0.2,0,0.4-0.1,0.4-0.3c0,0,0,0,0-0.1v-0.6
			c0-0.2-0.2-0.4-0.4-0.4h-3c-0.8,0.1-1.5-0.5-1.5-1.3c-0.1-0.8,0.5-1.5,1.3-1.5c0.1,0,0.2,0,0.2,0h3.2c0.2,0,0.4-0.1,0.4-0.3
			c0,0,0,0,0-0.1v-0.6c0-0.1,0-0.2-0.1-0.3c-0.1-0.1-0.2-0.1-0.3-0.1h-3.4c-0.4,0-0.7-0.1-1-0.4c-0.3-0.3-0.4-0.6-0.4-1
			c0-0.8,0.7-1.4,1.4-1.5h4.9c1.7,0,3.1,1.4,3.1,3v0.2c-0.2,3.6-0.4,6.5-0.7,8.9 M164.7,361.6c0.1,0,0.3-0.1,0.4-0.1
			c0.4,0,0.8,0.2,1.1,0.5l0.6,0.6c0.3,0.2,0.5,0.6,0.5,1c0,0.4-0.2,0.9-0.6,1.1c-1.6,1.2-3.2,2.2-4.9,3.2c0,0-0.1,0.1,0,0.1
			c0,0,0,0.1,0.1,0.1h11.3c0.5,0,0.9,0.2,1.2,0.5c0.3,0.3,0.5,0.8,0.5,1.3c0,0.5-0.2,0.9-0.5,1.3c-0.3,0.3-0.8,0.5-1.2,0.5h-12.3
			c-0.2,0-0.4,0.1-0.4,0.3c0,0,0,0,0,0.1v2.4c0.1,0.8-0.1,1.7-0.4,2.4c-0.4,0.6-0.9,1-1.6,1.2c-1.5,0.4-3,0.6-4.5,0.6l0,0
			c-0.6,0-1.1-0.2-1.6-0.6c-0.5-0.4-0.8-0.8-1-1.4c-0.1-0.2-0.1-0.3-0.1-0.5c0-0.3,0.1-0.5,0.2-0.8c0.2-0.3,0.6-0.6,1-0.6l0,0
			c0.8,0,1.7,0,2.7,0c0.2,0,0.4-0.1,0.6-0.2c0.1-0.1,0.2-0.3,0.2-0.5v-2.2c0-0.2-0.1-0.3-0.3-0.4c0,0-0.1,0-0.1,0h-12.3
			c-0.5,0-0.9-0.2-1.2-0.5c-0.3-0.3-0.5-0.8-0.5-1.3c0-0.5,0.2-0.9,0.5-1.3c0.3-0.3,0.8-0.5,1.2-0.5H156c0.1,0,0.2-0.1,0.2-0.1
			c0-0.4,0.2-0.8,0.4-1.1c0.3-0.3,0.7-0.5,1.1-0.5h0.5c0.2,0,0.3,0,0.4-0.1c0.6-0.4,1.3-0.8,1.8-1.2c0,0,0.1-0.1,0.1-0.1
			s-0.1-0.1-0.1-0.1h-10.4c-0.9-0.1-1.5-0.8-1.5-1.7c0.1-0.8,0.7-1.4,1.5-1.5h14.8L164.7,361.6z M161.2,346.8
			c0.3,0.2,0.5,0.5,0.5,0.9c0,0.4-0.2,0.8-0.4,1c-0.3,0.3-0.7,0.4-1.1,0.4c-0.4,0-0.8-0.1-1.1-0.4c-0.2-0.1-0.4-0.3-0.6-0.5
			c-0.1-0.1-0.3-0.1-0.4,0c-0.5,0.4-1,0.7-1.5,1c-0.3,0.2-0.7,0.3-1,0.3h-0.3c-0.5-0.1-0.9-0.2-1.2-0.6c-0.3-0.2-0.4-0.5-0.3-0.9
			c0-0.3,0.2-0.6,0.5-0.8c0.5-0.2,0.9-0.5,1.4-0.7c0,0,0.1-0.1,0.1-0.1c0-0.1,0-0.1-0.1-0.1c-0.2-0.1-0.4-0.2-0.6-0.3
			c-0.3-0.2-0.4-0.4-0.5-0.7c-0.1-0.3,0.1-0.6,0.3-0.8c0.3-0.3,0.7-0.4,1.1-0.5h0.2c0.3,0,0.6,0.1,0.9,0.2c0.3,0.1,0.6,0.3,0.8,0.5
			c0.1,0.1,0.2,0.1,0.3,0l0.2-0.1c0.5-0.5,1.1-0.8,1.8-0.8c0.2,0,0.5,0,0.7,0.1c0.3,0.1,0.6,0.3,0.7,0.7c0.1,0.3,0,0.7-0.2,0.9
			c-0.2,0.3-0.5,0.5-0.8,0.7c-0.1,0.1-0.1,0.2,0,0.3L161.2,346.8"/>
		<path class="st6" d="M185.9,374.4c-1.1,1.1-2.9,1.1-4,0c0,0,0,0,0,0c-0.5-0.5-0.9-1.2-0.8-2v-22.2c0-0.9,0.3-1.7,0.9-2.3
			c0.6-0.6,1.4-1,2.3-0.9h6c7.4,0,11.1,3,11.1,8.9c0.1,1.9-0.5,3.7-1.5,5.2c-1,1.4-2.3,2.5-3.9,3.1c-1.8,0.7-3.6,1-5.5,1h-3.4
			c-0.2,0-0.3,0.1-0.4,0.3c0,0,0,0.1,0,0.1v6.8C186.7,373.1,186.4,373.8,185.9,374.4 M186.7,360.4c0,0.2,0.1,0.3,0.3,0.4
			c0,0,0.1,0,0.1,0h3c3.8,0,5.7-1.6,5.7-4.9c0.1-1.3-0.4-2.6-1.4-3.4c-1.4-0.8-2.9-1.1-4.5-1h-2.8c-0.2,0-0.3,0.1-0.4,0.3
			c0,0,0,0.1,0,0.1L186.7,360.4z"/>
		<path class="st6" d="M210.1,375.2c-1.8,0-3.2-1.4-3.2-3.2c0,0,0,0,0,0v-22.2c0-0.8,0.3-1.5,0.8-2c0.5-0.5,1.2-0.8,2-0.8
			c0.8,0,1.5,0.3,2,0.8c0.5,0.5,0.9,1.2,0.9,2v20.3c0,0.2,0.1,0.3,0.3,0.4c0,0,0.1,0,0.1,0h8.7c1.3-0.1,2.4,0.9,2.5,2.2
			c0.1,1.3-0.9,2.4-2.2,2.5c-0.1,0-0.2,0-0.3,0H210.1z"/>
		<path class="st6" d="M238.4,375.7c-7.3,0-11-4.4-11-13.2v-12.7c0-0.8,0.3-1.5,0.8-2c0.5-0.5,1.2-0.8,2-0.8c1.6,0,2.8,1.3,2.9,2.8
			V363c0,2.8,0.5,4.8,1.4,6c0.9,1.2,2.4,1.9,4,1.8c1.6,0.1,3.1-0.6,4.1-1.8c0.9-1.2,1.4-3.2,1.4-6v-13.3c0-1.5,1.2-2.7,2.7-2.7
			s2.7,1.2,2.7,2.7v12.8c0,4.6-0.9,7.9-2.8,10C244.7,374.7,242,375.7,238.4,375.7"/>
		<path class="st6" d="M264.4,375.7c-3,0-5.9-0.9-8.3-2.5c-0.6-0.4-0.9-1-1-1.6v-0.3c0-0.6,0.2-1.2,0.6-1.6c0.5-0.6,1.2-0.9,2-0.9
			c0.6,0,1.1,0.2,1.6,0.5c1.5,1,3.3,1.6,5.2,1.6c1.2,0.1,2.3-0.2,3.3-0.9c0.8-0.5,1.2-1.4,1.2-2.4c0.1-0.8-0.3-1.6-0.9-2.1
			c-1-0.7-2-1.2-3-1.6l-0.3-0.1l-3.8-1.6c-1.6-0.6-3-1.6-4.1-2.9c-1.1-1.3-1.7-3-1.6-4.7c0-2.3,1-4.4,2.8-5.8c2-1.6,4.5-2.4,7-2.3
			c2.5,0,5,0.7,7.1,2.2c0.5,0.3,0.8,0.9,0.9,1.5v0.2c0,0.6-0.2,1.1-0.6,1.5c-0.4,0.5-0.9,0.8-1.5,0.8c-0.1,0-0.2,0-0.4,0
			c-0.5,0-1-0.1-1.4-0.4c-1.3-0.7-2.7-1-4.1-1c-1.1-0.1-2.1,0.2-3,0.8c-0.7,0.5-1.2,1.3-1.1,2.2c0,0.4,0.1,0.8,0.3,1.2
			c0.2,0.4,0.6,0.8,1,1c0.4,0.3,0.8,0.5,1.2,0.7c0.4,0.2,0.9,0.4,1.6,0.7l0.3,0.1l3.7,1.6c1.6,0.6,3.1,1.7,4.2,3
			c1,1.4,1.5,3,1.5,4.7c0,2.3-1,4.6-2.8,6.1C269.8,375,267.1,375.9,264.4,375.7"/>
	</g>
</g>
</svg>
