<svg id="圖層_1" data-name="圖層 1" xmlns="http://www.w3.org/2000/svg" viewBox="0 0 241 215"><defs><style>.cls-1{fill:#fff;}.cls-2{fill:#ff6c4d;}.cls-3,.cls-4{fill:none;stroke:#ff6c4d;stroke-miterlimit:10;stroke-width:2px;}.cls-4{stroke-dasharray:3.98 3.98;}.cls-5{fill:#ff8b6b;}.cls-6{fill:#14114b;}</style></defs><circle class="cls-1" cx="123" cy="101" r="90"/><circle class="cls-2" cx="37.69" cy="194" r="4.69"/><circle class="cls-2" cx="54.09" cy="194" r="4.69"/><circle class="cls-1" cx="69.31" cy="194" r="4.69"/><ellipse class="cls-3" cx="121.5" cy="102" rx="79.5" ry="11" transform="translate(-14.94 21.07) rotate(-9.34)"/><ellipse class="cls-4" cx="121.5" cy="102" rx="11" ry="79.5" transform="translate(-32.21 141.25) rotate(-54.34)"/><circle class="cls-2" cx="123.05" cy="101" r="57"/><circle class="cls-5" cx="80.54" cy="101" r="10.63"/><circle class="cls-5" cx="152.03" cy="101" r="30.92"/><circle class="cls-2" cx="124.02" cy="101" r="22.22"/><rect class="cls-6" x="166" y="39.04" width="19" height="4.93"/><rect class="cls-6" x="179" y="49" width="6" height="2.18"/><rect class="cls-6" x="179" y="56.71" width="6" height="2.18"/><rect class="cls-6" x="179" y="64.43" width="6" height="2.18"/><rect class="cls-6" x="179" y="72.14" width="6" height="2.18"/><rect class="cls-6" x="179" y="79.85" width="6" height="2.18"/><rect class="cls-6" x="173.71" y="89" width="11.57" height="3"/><rect class="cls-6" x="179" y="100" width="6" height="2.18"/><rect class="cls-6" x="179" y="107.71" width="6" height="2.18"/><rect class="cls-6" x="179" y="115.43" width="6" height="2.18"/><rect class="cls-6" x="179" y="123.14" width="6" height="2.18"/><rect class="cls-6" x="179" y="130.85" width="6" height="2.18"/><rect class="cls-6" x="173.71" y="140" width="11.57" height="3"/><rect class="cls-6" x="179" y="151" width="6" height="2.18"/><rect class="cls-6" x="179" y="158.71" width="6" height="2.18"/><rect class="cls-6" x="179" y="166.43" width="6" height="2.18"/><rect class="cls-6" x="179" y="174.14" width="6" height="2.18"/><rect class="cls-6" x="179" y="181.85" width="6" height="2.18"/></svg>