<svg xmlns="http://www.w3.org/2000/svg" xmlns:xlink="http://www.w3.org/1999/xlink" viewBox="0 0 2104.11 951.43"><defs><style>.cls-1,.cls-109,.cls-110,.cls-111,.cls-112,.cls-113,.cls-121,.cls-124,.cls-127,.cls-135,.cls-137,.cls-139,.cls-140,.cls-141,.cls-2,.cls-85,.cls-87,.cls-92{fill:none;}.cls-2,.cls-3{clip-rule:evenodd;}.cls-11,.cls-123,.cls-130,.cls-131,.cls-132,.cls-138,.cls-3,.cls-4,.cls-86,.cls-91{fill:#fff;}.cls-5{isolation:isolate;}.cls-102,.cls-117,.cls-120,.cls-128,.cls-6,.cls-93{fill:#14114b;}.cls-114,.cls-122,.cls-125,.cls-136,.cls-7,.cls-8,.cls-84,.cls-9,.cls-96,.cls-98{fill:#ff6c4d;}.cls-7{opacity:0.29;}.cls-9{opacity:0.44;}.cls-10{clip-path:url(#clip-path);}.cls-11,.cls-92{fill-rule:evenodd;}.cls-12{clip-path:url(#clip-path-2);}.cls-13{clip-path:url(#clip-path-3);}.cls-14{clip-path:url(#clip-path-4);}.cls-15{clip-path:url(#clip-path-5);}.cls-16{clip-path:url(#clip-path-6);}.cls-17{clip-path:url(#clip-path-7);}.cls-18{clip-path:url(#clip-path-8);}.cls-19{clip-path:url(#clip-path-9);}.cls-20{clip-path:url(#clip-path-10);}.cls-21{clip-path:url(#clip-path-11);}.cls-22{clip-path:url(#clip-path-12);}.cls-23{clip-path:url(#clip-path-13);}.cls-24{clip-path:url(#clip-path-14);}.cls-25{clip-path:url(#clip-path-15);}.cls-26{clip-path:url(#clip-path-16);}.cls-27{clip-path:url(#clip-path-17);}.cls-28{clip-path:url(#clip-path-18);}.cls-29{clip-path:url(#clip-path-19);}.cls-30{clip-path:url(#clip-path-20);}.cls-31{clip-path:url(#clip-path-21);}.cls-32{clip-path:url(#clip-path-22);}.cls-33{clip-path:url(#clip-path-23);}.cls-34{clip-path:url(#clip-path-24);}.cls-35{clip-path:url(#clip-path-25);}.cls-36{clip-path:url(#clip-path-26);}.cls-37{clip-path:url(#clip-path-27);}.cls-38{clip-path:url(#clip-path-28);}.cls-39{clip-path:url(#clip-path-29);}.cls-40{clip-path:url(#clip-path-30);}.cls-41{clip-path:url(#clip-path-31);}.cls-42{clip-path:url(#clip-path-32);}.cls-43{clip-path:url(#clip-path-33);}.cls-44{clip-path:url(#clip-path-34);}.cls-45{clip-path:url(#clip-path-35);}.cls-46{clip-path:url(#clip-path-36);}.cls-47{clip-path:url(#clip-path-37);}.cls-48{clip-path:url(#clip-path-38);}.cls-49{clip-path:url(#clip-path-39);}.cls-50{clip-path:url(#clip-path-40);}.cls-51{clip-path:url(#clip-path-41);}.cls-52{clip-path:url(#clip-path-42);}.cls-53{clip-path:url(#clip-path-43);}.cls-54{clip-path:url(#clip-path-44);}.cls-55{clip-path:url(#clip-path-45);}.cls-56{clip-path:url(#clip-path-46);}.cls-57{clip-path:url(#clip-path-47);}.cls-58{clip-path:url(#clip-path-48);}.cls-59{clip-path:url(#clip-path-49);}.cls-60{clip-path:url(#clip-path-50);}.cls-61{clip-path:url(#clip-path-51);}.cls-62{clip-path:url(#clip-path-52);}.cls-63{clip-path:url(#clip-path-53);}.cls-64{clip-path:url(#clip-path-54);}.cls-65{clip-path:url(#clip-path-55);}.cls-66{clip-path:url(#clip-path-56);}.cls-67{clip-path:url(#clip-path-57);}.cls-68{clip-path:url(#clip-path-58);}.cls-69{clip-path:url(#clip-path-59);}.cls-70{clip-path:url(#clip-path-60);}.cls-71{clip-path:url(#clip-path-61);}.cls-72{clip-path:url(#clip-path-62);}.cls-73{clip-path:url(#clip-path-63);}.cls-74{clip-path:url(#clip-path-64);}.cls-75{clip-path:url(#clip-path-65);}.cls-76{clip-path:url(#clip-path-66);}.cls-77{clip-path:url(#clip-path-67);}.cls-78{clip-path:url(#clip-path-68);}.cls-79{clip-path:url(#clip-path-69);}.cls-80{clip-path:url(#clip-path-70);}.cls-81{clip-path:url(#clip-path-71);}.cls-82{clip-path:url(#clip-path-72);}.cls-83{clip-path:url(#clip-path-73);}.cls-84{font-size:48.45px;font-family:LiHeiPro, LiHei Pro;}.cls-113,.cls-127,.cls-85,.cls-87{stroke:#ff6c4d;}.cls-109,.cls-110,.cls-111,.cls-112,.cls-113,.cls-120,.cls-121,.cls-124,.cls-127,.cls-135,.cls-137,.cls-139,.cls-140,.cls-141,.cls-85,.cls-87,.cls-92{stroke-miterlimit:10;}.cls-110,.cls-124,.cls-85{stroke-width:3px;}.cls-86{opacity:0.14;}.cls-127,.cls-140,.cls-141,.cls-87{stroke-width:2px;}.cls-88{fill:#ff8b6b;}.cls-89{clip-path:url(#clip-path-74);}.cls-90{clip-path:url(#clip-path-75);}.cls-91{opacity:0.19;}.cls-121,.cls-124,.cls-137,.cls-141,.cls-92{stroke:#fff;}.cls-93,.cls-96{font-size:20px;}.cls-102,.cls-114,.cls-117,.cls-122,.cls-123,.cls-128,.cls-130,.cls-131,.cls-132,.cls-138,.cls-93,.cls-96,.cls-98{font-family:NotoSansCJKtc-Black-B5pc-H, Noto Sans CJK TC;}.cls-94{letter-spacing:-0.03em;}.cls-95{clip-path:url(#clip-path-76);}.cls-97{letter-spacing:-0.06em;}.cls-98{font-size:18px;}.cls-99{letter-spacing:-0.07em;}.cls-100{letter-spacing:0em;}.cls-101{letter-spacing:-0.03em;}.cls-102{font-size:15px;}.cls-103{letter-spacing:-0.02em;}.cls-104{letter-spacing:-0.01em;}.cls-105{letter-spacing:-0.01em;}.cls-106{letter-spacing:-0.01em;}.cls-107{letter-spacing:-0.01em;}.cls-108{letter-spacing:-0.02em;}.cls-109,.cls-110,.cls-111,.cls-112,.cls-120,.cls-135,.cls-139,.cls-140{stroke:#14114b;}.cls-109{stroke-width:10px;}.cls-112{stroke-width:4px;}.cls-113,.cls-139{stroke-width:7px;}.cls-114{font-size:32.73px;letter-spacing:-0.01em;}.cls-115{letter-spacing:-0.49em;}.cls-116{letter-spacing:-0.49em;}.cls-117{font-size:30.57px;}.cls-118{letter-spacing:-0.1em;}.cls-119{letter-spacing:-0.02em;}.cls-120,.cls-121{stroke-width:5px;}.cls-122{font-size:51.23px;}.cls-123{font-size:16.86px;}.cls-125{opacity:0.31;}.cls-126{letter-spacing:-0.03em;}.cls-127{stroke-dasharray:3.98 3.98;}.cls-128{font-size:46.6px;}.cls-129{font-size:24px;}.cls-130{font-size:28.27px;}.cls-131{font-size:24.42px;}.cls-132{font-size:37.11px;}.cls-133{letter-spacing:-0.01em;}.cls-134{opacity:0.2;}.cls-135{stroke-dasharray:3.91 3.91;}.cls-136{mix-blend-mode:darken;}.cls-138{font-size:15.89px;}</style><clipPath id="clip-path"><rect class="cls-1" x="362" y="455.77" width="151.59" height="155.23"/></clipPath><clipPath id="clip-path-2"><path class="cls-2" d="M372.9,547.46H362.45c-.07,0-.13.08-.13.18v9c0,.1.06.19.13.19H372.9c.07,0,.12-.09.12-.19v-9C373,547.54,373,547.46,372.9,547.46Z"/></clipPath><clipPath id="clip-path-3"><rect class="cls-1" x="358.34" y="531.09" width="13.73" height="74.94"/></clipPath><clipPath id="clip-path-4"><path class="cls-2" d="M392.7,547.46H382.24c-.07,0-.12.08-.12.18v9c0,.1.05.19.12.19H392.7c.06,0,.12-.09.12-.19v-9C392.82,547.54,392.76,547.46,392.7,547.46Z"/></clipPath><clipPath id="clip-path-5"><rect class="cls-1" x="378.13" y="531.09" width="13.73" height="74.94"/></clipPath><clipPath id="clip-path-6"><path class="cls-2" d="M412.49,547.46H402c-.07,0-.13.08-.13.18v9c0,.1.06.19.13.19h10.45c.07,0,.12-.09.12-.19v-9C412.61,547.54,412.56,547.46,412.49,547.46Z"/></clipPath><clipPath id="clip-path-7"><rect class="cls-1" x="397.93" y="531.09" width="13.73" height="74.94"/></clipPath><clipPath id="clip-path-8"><path class="cls-2" d="M432.29,547.46H421.83c-.07,0-.12.08-.12.18v9c0,.1.05.19.12.19h10.46c.06,0,.12-.09.12-.19v-9C432.41,547.54,432.35,547.46,432.29,547.46Z"/></clipPath><clipPath id="clip-path-9"><rect class="cls-1" x="417.72" y="531.09" width="13.73" height="74.94"/></clipPath><clipPath id="clip-path-10"><path class="cls-2" d="M452.08,547.46H441.63c-.07,0-.13.08-.13.18v9c0,.1.06.19.13.19h10.45c.07,0,.12-.09.12-.19v-9C452.2,547.54,452.15,547.46,452.08,547.46Z"/></clipPath><clipPath id="clip-path-11"><rect class="cls-1" x="437.52" y="531.09" width="13.73" height="74.94"/></clipPath><clipPath id="clip-path-12"><path class="cls-2" d="M471.88,547.46H461.42c-.07,0-.12.08-.12.18v9c0,.1.05.19.12.19h10.46c.06,0,.12-.09.12-.19v-9C472,547.54,471.94,547.46,471.88,547.46Z"/></clipPath><clipPath id="clip-path-13"><rect class="cls-1" x="457.31" y="531.09" width="13.73" height="74.94"/></clipPath><clipPath id="clip-path-14"><path class="cls-2" d="M372.9,567.25H362.45c-.07,0-.13.08-.13.19v9c0,.11.06.19.13.19H372.9c.07,0,.12-.08.12-.19v-9C373,567.33,373,567.25,372.9,567.25Z"/></clipPath><clipPath id="clip-path-15"><rect class="cls-1" x="358.34" y="550.89" width="13.73" height="74.94"/></clipPath><clipPath id="clip-path-16"><path class="cls-2" d="M392.7,567.25H382.24c-.07,0-.12.08-.12.19v9c0,.11.05.19.12.19H392.7c.06,0,.12-.08.12-.19v-9C392.82,567.33,392.76,567.25,392.7,567.25Z"/></clipPath><clipPath id="clip-path-17"><rect class="cls-1" x="378.13" y="550.89" width="13.73" height="74.94"/></clipPath><clipPath id="clip-path-18"><path class="cls-2" d="M412.49,567.25H402c-.07,0-.13.08-.13.19v9c0,.11.06.19.13.19h10.45c.07,0,.12-.08.12-.19v-9C412.61,567.33,412.56,567.25,412.49,567.25Z"/></clipPath><clipPath id="clip-path-19"><rect class="cls-1" x="397.93" y="550.89" width="13.73" height="74.94"/></clipPath><clipPath id="clip-path-20"><path class="cls-2" d="M432.29,567.25H421.83c-.07,0-.12.08-.12.19v9c0,.11.05.19.12.19h10.46c.06,0,.12-.08.12-.19v-9C432.41,567.33,432.35,567.25,432.29,567.25Z"/></clipPath><clipPath id="clip-path-21"><rect class="cls-1" x="417.72" y="550.89" width="13.73" height="74.94"/></clipPath><clipPath id="clip-path-22"><path class="cls-2" d="M452.08,567.25H441.63c-.07,0-.13.08-.13.19v9c0,.11.06.19.13.19h10.45c.07,0,.12-.08.12-.19v-9C452.2,567.33,452.15,567.25,452.08,567.25Z"/></clipPath><clipPath id="clip-path-23"><rect class="cls-1" x="437.52" y="550.89" width="13.73" height="74.94"/></clipPath><clipPath id="clip-path-24"><path class="cls-2" d="M471.88,567.25H461.42c-.07,0-.12.08-.12.19v9c0,.11.05.19.12.19h10.46c.06,0,.12-.08.12-.19v-9C472,567.33,471.94,567.25,471.88,567.25Z"/></clipPath><clipPath id="clip-path-25"><rect class="cls-1" x="457.31" y="550.89" width="13.73" height="74.94"/></clipPath><clipPath id="clip-path-26"><path class="cls-2" d="M372.9,587.05H362.45c-.07,0-.13.08-.13.18v9c0,.1.06.19.13.19H372.9c.07,0,.12-.09.12-.19v-9C373,587.13,373,587.05,372.9,587.05Z"/></clipPath><clipPath id="clip-path-27"><rect class="cls-1" x="358.34" y="570.68" width="13.73" height="74.94"/></clipPath><clipPath id="clip-path-28"><path class="cls-2" d="M392.7,587.05H382.24c-.07,0-.12.08-.12.18v9c0,.1.05.19.12.19H392.7c.06,0,.12-.09.12-.19v-9C392.82,587.13,392.76,587.05,392.7,587.05Z"/></clipPath><clipPath id="clip-path-29"><rect class="cls-1" x="378.13" y="570.68" width="13.73" height="74.94"/></clipPath><clipPath id="clip-path-30"><path class="cls-2" d="M412.49,587.05H402c-.07,0-.13.08-.13.18v9c0,.1.06.19.13.19h10.45c.07,0,.12-.09.12-.19v-9C412.61,587.13,412.56,587.05,412.49,587.05Z"/></clipPath><clipPath id="clip-path-31"><rect class="cls-1" x="397.93" y="570.68" width="13.73" height="74.94"/></clipPath><clipPath id="clip-path-32"><path class="cls-2" d="M432.29,587.05H421.83c-.07,0-.12.08-.12.18v9c0,.1.05.19.12.19h10.46c.06,0,.12-.09.12-.19v-9C432.41,587.13,432.35,587.05,432.29,587.05Z"/></clipPath><clipPath id="clip-path-33"><rect class="cls-1" x="417.72" y="570.68" width="13.73" height="74.94"/></clipPath><clipPath id="clip-path-34"><path class="cls-3" d="M452.08,587.05H441.63c-.07,0-.13.08-.13.18v9c0,.1.06.19.13.19h10.45c.07,0,.12-.09.12-.19v-9C452.2,587.13,452.15,587.05,452.08,587.05Z"/></clipPath><clipPath id="clip-path-35"><rect class="cls-4" x="437.52" y="570.68" width="13.73" height="74.94"/></clipPath><clipPath id="clip-path-36"><path class="cls-2" d="M471.88,587.05H461.42c-.07,0-.12.08-.12.18v9c0,.1.05.19.12.19h10.46c.06,0,.12-.09.12-.19v-9C472,587.13,471.94,587.05,471.88,587.05Z"/></clipPath><clipPath id="clip-path-37"><rect class="cls-1" x="457.31" y="570.68" width="13.73" height="74.94"/></clipPath><clipPath id="clip-path-38"><path class="cls-2" d="M372.9,606.84H362.45c-.07,0-.13.09-.13.19v9c0,.11.06.19.13.19H372.9c.07,0,.12-.08.12-.19v-9C373,606.93,373,606.84,372.9,606.84Z"/></clipPath><clipPath id="clip-path-39"><rect class="cls-1" x="358.34" y="590.48" width="13.73" height="74.94"/></clipPath><clipPath id="clip-path-40"><path class="cls-2" d="M392.7,606.84H382.24c-.07,0-.12.09-.12.19v9c0,.11.05.19.12.19H392.7c.06,0,.12-.08.12-.19v-9C392.82,606.93,392.76,606.84,392.7,606.84Z"/></clipPath><clipPath id="clip-path-41"><rect class="cls-1" x="378.13" y="590.48" width="13.73" height="74.94"/></clipPath><clipPath id="clip-path-42"><path class="cls-2" d="M412.49,606.84H402c-.07,0-.13.09-.13.19v9c0,.11.06.19.13.19h10.45c.07,0,.12-.08.12-.19v-9C412.61,606.93,412.56,606.84,412.49,606.84Z"/></clipPath><clipPath id="clip-path-43"><rect class="cls-1" x="397.93" y="590.48" width="13.73" height="74.94"/></clipPath><clipPath id="clip-path-44"><path class="cls-2" d="M432.29,606.84H421.83c-.07,0-.12.09-.12.19v9c0,.11.05.19.12.19h10.46c.06,0,.12-.08.12-.19v-9C432.41,606.93,432.35,606.84,432.29,606.84Z"/></clipPath><clipPath id="clip-path-45"><rect class="cls-1" x="417.72" y="590.48" width="13.73" height="74.94"/></clipPath><clipPath id="clip-path-46"><path class="cls-2" d="M452.08,606.84H441.63c-.07,0-.13.09-.13.19v9c0,.11.06.19.13.19h10.45c.07,0,.12-.08.12-.19v-9C452.2,606.93,452.15,606.84,452.08,606.84Z"/></clipPath><clipPath id="clip-path-47"><rect class="cls-1" x="437.52" y="590.48" width="13.73" height="74.94"/></clipPath><clipPath id="clip-path-48"><path class="cls-2" d="M471.88,606.84H461.42c-.07,0-.12.09-.12.19v9c0,.11.05.19.12.19h10.46c.06,0,.12-.08.12-.19v-9C472,606.93,471.94,606.84,471.88,606.84Z"/></clipPath><clipPath id="clip-path-49"><rect class="cls-1" x="457.31" y="590.48" width="13.73" height="74.94"/></clipPath><clipPath id="clip-path-50"><path class="cls-2" d="M372.9,626.64H362.45c-.07,0-.13.08-.13.18v9c0,.1.06.19.13.19H372.9c.07,0,.12-.09.12-.19v-9C373,626.72,373,626.64,372.9,626.64Z"/></clipPath><clipPath id="clip-path-51"><rect class="cls-1" x="358.34" y="610.27" width="13.73" height="74.94"/></clipPath><clipPath id="clip-path-52"><path class="cls-2" d="M392.7,626.64H382.24c-.07,0-.12.08-.12.18v9c0,.1.05.19.12.19H392.7c.06,0,.12-.09.12-.19v-9C392.82,626.72,392.76,626.64,392.7,626.64Z"/></clipPath><clipPath id="clip-path-53"><rect class="cls-1" x="378.13" y="610.27" width="13.73" height="74.94"/></clipPath><clipPath id="clip-path-54"><path class="cls-2" d="M412.49,626.64H402c-.07,0-.13.08-.13.18v9c0,.1.06.19.13.19h10.45c.07,0,.12-.09.12-.19v-9C412.61,626.72,412.56,626.64,412.49,626.64Z"/></clipPath><clipPath id="clip-path-55"><rect class="cls-1" x="397.93" y="610.27" width="13.73" height="74.94"/></clipPath><clipPath id="clip-path-56"><path class="cls-2" d="M432.29,626.64H421.83c-.07,0-.12.08-.12.18v9c0,.1.05.19.12.19h10.46c.06,0,.12-.09.12-.19v-9C432.41,626.72,432.35,626.64,432.29,626.64Z"/></clipPath><clipPath id="clip-path-57"><rect class="cls-1" x="417.72" y="610.27" width="13.73" height="74.94"/></clipPath><clipPath id="clip-path-58"><path class="cls-2" d="M452.08,626.64H441.63c-.07,0-.13.08-.13.18v9c0,.1.06.19.13.19h10.45c.07,0,.12-.09.12-.19v-9C452.2,626.72,452.15,626.64,452.08,626.64Z"/></clipPath><clipPath id="clip-path-59"><rect class="cls-1" x="437.52" y="610.27" width="13.73" height="74.94"/></clipPath><clipPath id="clip-path-60"><path class="cls-2" d="M471.88,626.64H461.42c-.07,0-.12.08-.12.18v9c0,.1.05.19.12.19h10.46c.06,0,.12-.09.12-.19v-9C472,626.72,471.94,626.64,471.88,626.64Z"/></clipPath><clipPath id="clip-path-61"><rect class="cls-1" x="457.31" y="610.27" width="13.73" height="74.94"/></clipPath><clipPath id="clip-path-62"><path class="cls-2" d="M372.9,646.43H362.45c-.07,0-.13.09-.13.19v9c0,.11.06.19.13.19H372.9c.07,0,.12-.08.12-.19v-9C373,646.52,373,646.43,372.9,646.43Z"/></clipPath><clipPath id="clip-path-63"><rect class="cls-1" x="358.34" y="630.07" width="13.73" height="74.94"/></clipPath><clipPath id="clip-path-64"><path class="cls-2" d="M392.7,646.43H382.24c-.07,0-.12.09-.12.19v9c0,.11.05.19.12.19H392.7c.06,0,.12-.08.12-.19v-9C392.82,646.52,392.76,646.43,392.7,646.43Z"/></clipPath><clipPath id="clip-path-65"><rect class="cls-1" x="378.13" y="630.07" width="13.73" height="74.94"/></clipPath><clipPath id="clip-path-66"><path class="cls-2" d="M412.49,646.43H402c-.07,0-.13.09-.13.19v9c0,.11.06.19.13.19h10.45c.07,0,.12-.08.12-.19v-9C412.61,646.52,412.56,646.43,412.49,646.43Z"/></clipPath><clipPath id="clip-path-67"><rect class="cls-1" x="397.93" y="630.07" width="13.73" height="74.94"/></clipPath><clipPath id="clip-path-68"><path class="cls-2" d="M432.29,646.43H421.83c-.07,0-.12.09-.12.19v9c0,.11.05.19.12.19h10.46c.06,0,.12-.08.12-.19v-9C432.41,646.52,432.35,646.43,432.29,646.43Z"/></clipPath><clipPath id="clip-path-69"><rect class="cls-1" x="417.72" y="630.07" width="13.73" height="74.94"/></clipPath><clipPath id="clip-path-70"><path class="cls-2" d="M452.08,646.43H441.63c-.07,0-.13.09-.13.19v9c0,.11.06.19.13.19h10.45c.07,0,.12-.08.12-.19v-9C452.2,646.52,452.15,646.43,452.08,646.43Z"/></clipPath><clipPath id="clip-path-71"><rect class="cls-1" x="437.52" y="630.07" width="13.73" height="74.94"/></clipPath><clipPath id="clip-path-72"><path class="cls-2" d="M471.88,646.43H461.42c-.07,0-.12.09-.12.19v9c0,.11.05.19.12.19h10.46c.06,0,.12-.08.12-.19v-9C472,646.52,471.94,646.43,471.88,646.43Z"/></clipPath><clipPath id="clip-path-73"><rect class="cls-1" x="457.31" y="630.07" width="13.73" height="74.94"/></clipPath><clipPath id="clip-path-74"><path class="cls-2" d="M153,37.49c-.1.15.68,87.51.68,87.51l21,.21s56.87,6.6,57.34-41.73-53.49-45.84-53.49-45.84Z"/></clipPath><clipPath id="clip-path-75"><rect class="cls-1" x="76.26" y="-57.31" width="3250.29" height="11640.09"/></clipPath><clipPath id="clip-path-76"><circle class="cls-1" cx="778" cy="313" r="90"/></clipPath></defs><g class="cls-5"><g id="圖層_1" data-name="圖層 1"><rect class="cls-6" x="18" y="1" width="2104" height="865"/><path class="cls-4" d="M442,309a90,90,0,1,0-90,90A90,90,0,0,0,442,309Z"/><circle class="cls-4" cx="570" cy="309" r="90"/><circle class="cls-4" cx="1239" cy="204" r="77"/><circle class="cls-4" cx="1416" cy="204" r="77"/><circle class="cls-4" cx="1601" cy="204" r="77"/><circle class="cls-4" cx="1785" cy="204" r="77"/><circle class="cls-4" cx="778" cy="313" r="90"/><rect class="cls-4" x="291" y="438" width="48" height="8"/><rect class="cls-4" x="291" y="459" width="48" height="8"/><rect class="cls-7" x="291" y="480" width="48" height="8"/><rect class="cls-7" x="291" y="501" width="48" height="8"/><rect class="cls-8" x="291" y="522" width="48" height="8"/><rect class="cls-8" x="291" y="543" width="48" height="8"/><rect class="cls-9" x="291" y="564" width="48" height="8"/><rect class="cls-9" x="291" y="585" width="48" height="8"/><rect class="cls-8" x="291" y="606" width="48" height="8"/><rect class="cls-8" x="291" y="627" width="48" height="8"/><rect class="cls-8" x="291" y="648" width="48" height="8"/><rect class="cls-4" x="270" y="438" width="12" height="8"/><rect class="cls-4" x="270" y="459" width="12" height="8"/><rect class="cls-4" x="270" y="480" width="12" height="8"/><rect class="cls-4" x="270" y="501" width="12" height="8"/><rect class="cls-4" x="270" y="522" width="12" height="8"/><rect class="cls-4" x="270" y="543" width="12" height="8"/><rect class="cls-4" x="270" y="564" width="12" height="8"/><rect class="cls-4" x="270" y="585" width="12" height="8"/><rect class="cls-4" x="270" y="606" width="12" height="8"/><rect class="cls-4" x="270" y="627" width="12" height="8"/><rect class="cls-4" x="270" y="648" width="12" height="8"/><g class="cls-10"><path class="cls-11" d="M866.77,461.92H708.84c-1,0-1.87,1.28-1.87,2.85V601.12c0,1.58.84,2.85,1.87,2.85H866.77c1,0,1.88-1.27,1.88-2.85V464.77C868.65,463.2,867.81,461.92,866.77,461.92Z"/></g><g class="cls-12"><g class="cls-13"><rect class="cls-8" x="362.28" y="547.38" width="10.8" height="9.55"/></g></g><g class="cls-14"><g class="cls-15"><rect class="cls-8" x="382.07" y="547.38" width="10.8" height="9.55"/></g></g><g class="cls-16"><g class="cls-17"><rect class="cls-8" x="401.87" y="547.38" width="10.8" height="9.55"/></g></g><g class="cls-18"><g class="cls-19"><rect class="cls-8" x="421.66" y="547.38" width="10.8" height="9.55"/></g></g><g class="cls-20"><g class="cls-21"><rect class="cls-8" x="441.46" y="547.38" width="10.8" height="9.55"/></g></g><g class="cls-22"><g class="cls-23"><rect class="cls-8" x="461.25" y="547.38" width="10.8" height="9.55"/></g></g><g class="cls-24"><g class="cls-25"><rect class="cls-8" x="362.28" y="567.18" width="10.8" height="9.55"/></g></g><g class="cls-26"><g class="cls-27"><rect class="cls-8" x="382.07" y="567.18" width="10.8" height="9.55"/></g></g><g class="cls-28"><g class="cls-29"><rect class="cls-8" x="401.87" y="567.18" width="10.8" height="9.55"/></g></g><g class="cls-30"><g class="cls-31"><rect class="cls-8" x="421.66" y="567.18" width="10.8" height="9.55"/></g></g><g class="cls-32"><g class="cls-33"><rect class="cls-8" x="441.46" y="567.18" width="10.8" height="9.55"/></g></g><g class="cls-34"><g class="cls-35"><rect class="cls-8" x="461.25" y="567.18" width="10.8" height="9.55"/></g></g><g class="cls-36"><g class="cls-37"><rect class="cls-8" x="362.28" y="586.97" width="10.8" height="9.55"/></g></g><g class="cls-38"><g class="cls-39"><rect class="cls-8" x="382.07" y="586.97" width="10.8" height="9.55"/></g></g><g class="cls-40"><g class="cls-41"><rect class="cls-8" x="401.87" y="586.97" width="10.8" height="9.55"/></g></g><g class="cls-42"><g class="cls-43"><rect class="cls-8" x="421.66" y="586.97" width="10.8" height="9.55"/></g></g><path class="cls-11" d="M452.08,587.05H441.63c-.07,0-.13.08-.13.18v9c0,.1.06.19.13.19h10.45c.07,0,.12-.09.12-.19v-9C452.2,587.13,452.15,587.05,452.08,587.05Z"/><g class="cls-44"><rect class="cls-4" x="437.52" y="570.68" width="13.73" height="74.94"/><g class="cls-45"><rect class="cls-4" x="441.46" y="586.97" width="10.8" height="9.55"/></g></g><g class="cls-46"><g class="cls-47"><rect class="cls-8" x="461.25" y="586.97" width="10.8" height="9.55"/></g></g><g class="cls-48"><g class="cls-49"><rect class="cls-8" x="362.28" y="606.77" width="10.8" height="9.55"/></g></g><g class="cls-50"><g class="cls-51"><rect class="cls-8" x="382.07" y="606.77" width="10.8" height="9.55"/></g></g><g class="cls-52"><g class="cls-53"><rect class="cls-8" x="401.87" y="606.77" width="10.8" height="9.55"/></g></g><g class="cls-54"><g class="cls-55"><rect class="cls-8" x="421.66" y="606.77" width="10.8" height="9.55"/></g></g><g class="cls-56"><g class="cls-57"><rect class="cls-8" x="441.46" y="606.77" width="10.8" height="9.55"/></g></g><g class="cls-58"><g class="cls-59"><rect class="cls-8" x="461.25" y="606.77" width="10.8" height="9.55"/></g></g><g class="cls-60"><g class="cls-61"><rect class="cls-8" x="362.28" y="626.56" width="10.8" height="9.55"/></g></g><g class="cls-62"><g class="cls-63"><rect class="cls-8" x="382.07" y="626.56" width="10.8" height="9.55"/></g></g><g class="cls-64"><g class="cls-65"><rect class="cls-8" x="401.87" y="626.56" width="10.8" height="9.55"/></g></g><g class="cls-66"><g class="cls-67"><rect class="cls-8" x="421.66" y="626.56" width="10.8" height="9.55"/></g></g><g class="cls-68"><g class="cls-69"><rect class="cls-8" x="441.46" y="626.56" width="10.8" height="9.55"/></g></g><g class="cls-70"><g class="cls-71"><rect class="cls-8" x="461.25" y="626.56" width="10.8" height="9.55"/></g></g><g class="cls-72"><g class="cls-73"><rect class="cls-8" x="362.28" y="646.36" width="10.8" height="9.55"/></g></g><g class="cls-74"><g class="cls-75"><rect class="cls-8" x="382.07" y="646.36" width="10.8" height="9.55"/></g></g><g class="cls-76"><g class="cls-77"><rect class="cls-8" x="401.87" y="646.36" width="10.8" height="9.55"/></g></g><g class="cls-78"><g class="cls-79"><rect class="cls-8" x="421.66" y="646.36" width="10.8" height="9.55"/></g></g><g class="cls-80"><g class="cls-81"><rect class="cls-8" x="441.46" y="646.36" width="10.8" height="9.55"/></g></g><g class="cls-82"><g class="cls-83"><rect class="cls-8" x="461.25" y="646.36" width="10.8" height="9.55"/></g></g><text class="cls-84" transform="translate(361.54 475.76)">#</text><text class="cls-84" transform="translate(400.43 475.76)">!?</text><circle class="cls-8" cx="377" cy="512" r="15"/><circle class="cls-8" cx="484.69" cy="402" r="4.69"/><circle class="cls-8" cx="501.09" cy="402" r="4.69"/><circle class="cls-4" cx="516.31" cy="402" r="4.69"/><circle class="cls-4" cx="422" cy="512" r="15"/><rect class="cls-8" x="462.21" y="479.04" width="73.58" height="16.93" transform="translate(-198.56 495.63) rotate(-45)"/><rect class="cls-8" x="462.21" y="479.04" width="73.58" height="16.93" transform="translate(490.87 -210.06) rotate(45)"/><rect class="cls-8" x="712.1" y="454.91" width="13.8" height="3.17" transform="translate(-112.2 642.12) rotate(-45)"/><rect class="cls-8" x="712.1" y="454.91" width="13.8" height="3.17" transform="translate(533.38 -374.7) rotate(45)"/><rect class="cls-8" x="491" y="547" width="56" height="3.05"/><rect class="cls-8" x="491" y="555" width="56" height="3.05"/><rect class="cls-8" x="491" y="562.99" width="56" height="3.05"/><rect class="cls-8" x="491" y="570.99" width="56" height="3.05"/><rect class="cls-8" x="491" y="578.98" width="56" height="3.05"/><rect class="cls-8" x="491" y="586.98" width="56" height="3.05"/><rect class="cls-8" x="491" y="594.97" width="56" height="3.05"/><rect class="cls-8" x="491" y="602.97" width="56" height="3.05"/><rect class="cls-8" x="491" y="610.96" width="56" height="3.05"/><rect class="cls-8" x="491" y="618.96" width="56" height="3.05"/><rect class="cls-8" x="491" y="626.95" width="56" height="3.05"/><rect class="cls-85" x="562" y="444" width="172.5" height="24.5"/><rect class="cls-8" x="565.98" y="493" width="116.52" height="28.5"/><rect class="cls-4" x="561.5" y="487.5" width="116.52" height="28.5"/><rect class="cls-4" x="565" y="538" width="11" height="98" rx="5.5" ry="5.5"/><rect class="cls-86" x="589" y="538" width="11" height="98" rx="5.5" ry="5.5"/><rect class="cls-4" x="613" y="622" width="11" height="49" rx="5.5" ry="5.5"/><rect class="cls-86" x="613" y="536" width="11" height="98" rx="5.5" ry="5.5"/><rect class="cls-8" x="589" y="611" width="11" height="35" rx="5.5" ry="5.5"/><rect class="cls-8" x="501.37" y="710" width="12.26" height="39" rx="5.5" ry="5.5" transform="translate(1237 222) rotate(90)"/><rect class="cls-8" x="634" y="538" width="11" height="105" rx="5.5" ry="5.5"/><rect class="cls-87" x="517.5" y="694" width="13.5" height="70.5" rx="6.75" ry="6.75" transform="translate(1253.5 205) rotate(90)"/><circle class="cls-8" cx="711" cy="592" r="43"/><circle class="cls-88" cx="720" cy="577" r="21"/><circle class="cls-4" cx="728" cy="572" r="8"/><circle class="cls-87" cx="711" cy="592" r="54"/><g class="cls-89"><g class="cls-90"><rect class="cls-4" x="141.71" y="26.2" width="101.57" height="110.6"/></g></g><rect class="cls-4" x="778" y="450" width="117" height="6"/><rect class="cls-4" x="778" y="492" width="117" height="6"/><rect class="cls-91" x="767" y="450" width="139" height="6"/><rect class="cls-91" x="767" y="492" width="139" height="6"/><rect class="cls-8" x="799" y="439" width="75" height="28"/><rect class="cls-8" x="799" y="481" width="75" height="28"/><polygon class="cls-4" points="819.75 439 838.88 467 846.25 467 827 439 819.75 439"/><polygon class="cls-4" points="834.75 439 853.88 467 861.25 467 842 439 834.75 439"/><circle class="cls-4" cx="807" cy="491" r="3"/><circle class="cls-4" cx="821" cy="503" r="3"/><circle class="cls-4" cx="829" cy="487" r="3"/><circle class="cls-4" cx="842" cy="498" r="3"/><circle class="cls-4" cx="832" cy="498" r="3"/><circle class="cls-4" cx="864" cy="484" r="3"/><circle class="cls-4" cx="868" cy="500" r="3"/><circle class="cls-4" cx="854" cy="490" r="3"/><circle class="cls-4" cx="851" cy="503" r="3"/><rect class="cls-4" x="779.5" y="532.5" width="117" height="6"/><rect class="cls-91" x="768.5" y="532.5" width="139" height="6"/><rect class="cls-91" x="769" y="569" width="139" height="6"/><rect class="cls-8" x="800.5" y="521.5" width="75" height="28"/><rect class="cls-4" x="829" y="522" width="4" height="27"/><rect class="cls-4" x="841" y="522" width="4" height="27"/><path class="cls-92" d="M456.76,582.83H436.94c-.13,0-.23.16-.23.36V600.3c0,.2.1.36.23.36h19.82c.13,0,.24-.16.24-.36V583.19C457,583,456.89,582.83,456.76,582.83Z"/><rect class="cls-4" x="789" y="611" width="56" height="43"/><rect class="cls-4" x="868.99" y="608.86" width="3.86" height="55.28" transform="translate(1741.85 1273) rotate(180)"/><rect class="cls-4" x="881.14" y="608.86" width="3.86" height="55.28" transform="translate(1766.14 1273) rotate(180)"/><rect class="cls-4" x="904.99" y="608.86" width="3.86" height="55.28" transform="translate(1813.85 1273) rotate(180)"/><rect class="cls-4" x="915.14" y="608.86" width="3.86" height="55.28" transform="translate(1834.14 1273) rotate(180)"/><rect class="cls-8" x="789" y="604" width="25" height="4" transform="translate(1603 1212) rotate(180)"/><rect class="cls-6" x="799" y="615" width="3" height="10"/><rect class="cls-6" x="799" y="615" width="3" height="10" transform="translate(1420.5 -180.5) rotate(90)"/><rect class="cls-6" x="832.5" y="615.5" width="3" height="10" transform="translate(1454.5 -213.5) rotate(90)"/><rect class="cls-4" x="491" y="642" width="24" height="15"/><rect class="cls-8" x="491" y="635" width="24" height="3"/><text class="cls-93" transform="translate(575.91 509.2)">BUT<tspan class="cls-94" x="41.96" y="0">T</tspan><tspan x="54.1" y="0">ON</tspan></text><g class="cls-95"><path class="cls-8" d="M688,341s22-52,74-24,61,46,95,24,38,20,38,20l-24,52-193,6Z"/></g><rect class="cls-8" x="945.5" y="455.5" width="134" height="208" rx="13.26" ry="13.26"/><rect class="cls-4" x="937" y="446" width="134" height="208" rx="13.26" ry="13.26"/><rect class="cls-4" x="639.36" y="661.39" width="45.28" height="76.5" rx="5.42" ry="5.42" transform="translate(1361.64 37.64) rotate(90)"/><text class="cls-96" transform="translate(939.91 434.2)"><tspan class="cls-97">P</tspan><tspan x="12.6" y="0">ANEL</tspan></text><text class="cls-98" transform="translate(878.91 382.2)">Bob</text><text class="cls-98" transform="translate(1047.91 419.2)"><tspan class="cls-99">T</tspan><tspan class="cls-100" x="10.24" y="0">a</tspan><tspan class="cls-101" x="21.15" y="0">k</tspan><tspan x="31.95" y="0">o</tspan></text><text class="cls-98" transform="translate(1009.91 308.2)">Jack</text><text class="cls-93" transform="translate(946.91 478.2)">Title</text><rect class="cls-6" x="947" y="488" width="31" height="7"/><text class="cls-102" transform="translate(947 520.53)"><tspan class="cls-103">L</tspan><tspan x="8.71" y="0">o</tspan><tspan class="cls-104" x="18.27" y="0">r</tspan><tspan x="25.05" y="0">em u</tspan><tspan class="cls-105" x="62.01" y="0">p</tspan><tspan x="71.79" y="0">sum </tspan><tspan x="0" y="18">id</tspan><tspan class="cls-106" x="14.69" y="18">f</tspan><tspan x="20.46" y="18">gid</tspan><tspan class="cls-107" x="44.39" y="18">f</tspan><tspan x="50.18" y="18">doi</tspan><tspan class="cls-106" x="74.42" y="18">f</tspan><tspan x="80.19" y="18">g </tspan><tspan x="0" y="36">oeirh</tspan><tspan class="cls-108" x="40.14" y="36">g</tspan><tspan x="49.05" y="36">oerh</tspan><tspan x="84.37" y="36">-</tspan><tspan x="0" y="54">gioerhogie</tspan></text><circle class="cls-109" cx="778" cy="313" r="75.5"/><path class="cls-110" d="M407,309a55,55,0,1,0-55,55A55,55,0,0,0,407,309Z"/><path class="cls-111" d="M382,309a30,30,0,1,0-30,30A30,30,0,0,0,382,309Z"/><path class="cls-6" d="M362,309a10,10,0,1,0-10,10A10,10,0,0,0,362,309Z"/><path class="cls-4" d="M1049.8,369s-3.8,18-7.8,19-2,7,2,6,13-22,12-25S1050.59,366,1049.8,369Z"/><path class="cls-4" d="M1063.25,372s-5.25,14-2.25,19,6,0,6,0,1.5-14,2.25-19S1061.5,368,1063.25,372Z"/><path class="cls-4" d="M1077,375s1,17,8,19,5-2,4-3-7.21-11.15-6-16C1085,367,1078,371,1077,375Z"/><path class="cls-85" d="M1052,344a11.68,11.68,0,0,1,9,0c5,2,7,0,9,0s7.5,1,7.25,2"/><path class="cls-8" d="M1052.78,318.88c0-1.48-9.78,51.77-9.78,51.77L1054.41,381h21.18L1087,370.65l-10.59-50.3L1065,310Z"/><circle class="cls-4" cx="1054.89" cy="354" r="5.89"/><circle class="cls-4" cx="1074.26" cy="354" r="6.74"/><circle class="cls-6" cx="1054.89" cy="354" r="2.53"/><circle class="cls-6" cx="1073.42" cy="354" r="3"/><path class="cls-110" d="M1049,345s5.5-2.5,10.5.5,7-.83,8.77-1.17S1077,344,1079,346"/><polygon class="cls-6" points="1063 364.38 1060 370.94 1071 369.63 1067 363.06 1063 364.38"/><path class="cls-4" d="M939.54,328s-21.21,32.56-16.6,51.07l17.53,1.28s31.35,3.83,35-2.56,5.53-36.38,0-42.13S941.39,333.11,939.54,328Z"/><path class="cls-4" d="M971.67,394.5s-1.36-11.1-3.87-12.41-5.78-11.82-2.91-12.71,6.32.12,6.91,2,7,12.47,6,19.09S972.57,397.36,971.67,394.5Z"/><path class="cls-4" d="M944,392s2-11,0-13-2-13,1-13,6,2,6,4,3,14,0,20S944,395,944,392Z"/><path class="cls-8" d="M945,326s-23,35.3-18,55.38l19,1.38s34,4.16,38-2.76,6-39.46,0-45.69S947,331.54,945,326Z"/><circle class="cls-4" cx="944" cy="350" r="7"/><circle class="cls-4" cx="967" cy="350" r="8"/><circle class="cls-6" cx="944" cy="350" r="3"/><circle class="cls-6" cx="966" cy="350" r="3"/><path class="cls-6" d="M954.49,358s-2,3.88-5.83,3.88-1.3-8.42-1.3-8.42A9.08,9.08,0,0,1,954.49,358Z"/><circle class="cls-4" cx="951" cy="314" r="7"/><circle class="cls-4" cx="983" cy="333" r="5"/><line class="cls-112" x1="947" y1="370" x2="961" y2="370"/><rect class="cls-4" x="702" y="91" width="400" height="110" rx="14.14" ry="14.14"/><rect class="cls-113" x="260" y="81" width="400" height="110" rx="14.14" ry="14.14"/><rect class="cls-8" x="692.5" y="81.5" width="400" height="110" rx="14.14" ry="14.14"/><circle class="cls-4" cx="342" cy="108" r="13"/><rect class="cls-4" x="338" y="111" width="8" height="54"/><circle class="cls-8" cx="342" cy="163" r="13"/><circle class="cls-4" cx="382" cy="163" r="13"/><rect class="cls-4" x="378" y="106" width="8" height="54" transform="translate(764 266) rotate(180)"/><circle class="cls-8" cx="382" cy="108" r="13"/><circle class="cls-4" cx="302" cy="163" r="13"/><rect class="cls-4" x="298" y="106" width="8" height="54" transform="translate(604 266) rotate(180)"/><circle class="cls-8" cx="302" cy="108" r="13"/><text class="cls-114" transform="translate(587.33 176.8)">3<tspan class="cls-115" x="19.51" y="0">’</tspan><tspan x="36.29" y="0">5</tspan><tspan class="cls-116" x="55.8" y="0">’</tspan></text><polygon class="cls-8" points="78.85 458 51 566 98 566 78.85 458"/><polygon class="cls-8" points="225.85 458 198 566 245 566 225.85 458"/><text class="cls-117" transform="translate(712.93 120.56)">ANA<tspan class="cls-118" x="63.7" y="0">L</tspan><tspan class="cls-119" x="78.89" y="0">Y</tspan><tspan x="96.81" y="0">SIS</tspan></text><line class="cls-120" x1="1065" y1="95" x2="713" y2="173"/><circle class="cls-4" cx="1067" cy="163" r="19"/><circle class="cls-4" cx="897" cy="174" r="10"/><path class="cls-121" d="M897,176c2-.87.07-18.64,20.5-23.5,21-5,32,13,32,13s9.73-30.09,42-37c14-3,37-1,55,14"/><text class="cls-122" transform="translate(428 134.08)">ERRORR</text><circle class="cls-8" cx="877" cy="608" r="13"/><text class="cls-123" transform="translate(868.45 612.57)">@</text><path class="cls-8" d="M988.24,232s10.45,34,7.84,40.5,49.65,1.31,49.65,1.31-2.61-24.82-26.13-37.89C995.75,222.63,988.24,232,988.24,232Z"/><circle class="cls-4" cx="1003.27" cy="244.37" r="7.19"/><circle class="cls-6" cx="1001.31" cy="245.03" r="3.92"/><path class="cls-124" d="M992.16,230.38s-2.61-7.57-7.84-4.95,0,18.29,1.31,23.52a7.26,7.26,0,0,1-2.61,7.83"/><circle class="cls-8" cx="982.36" cy="256.13" r="5.23"/><path class="cls-4" d="M1017,254.17l-14.38,6.53s1.31,3.92,7.84,2.62S1017,254.17,1017,254.17Z"/><path class="cls-6" d="M1007.84,255.48s-5.23-1.31-9.15,0-3.92,2.61,1.31,3.92a41.57,41.57,0,0,1,7.84,2.61l6.53-2.61Z"/><path class="cls-4" d="M999,273.55s-2.89,4.14-2.89,5.45,47,5.22,51,1.3-1.67-10-1.67-10S1000.55,273.33,999,273.55Z"/><rect class="cls-8" x="1097" y="653.97" width="20" height="7.03"/><rect class="cls-8" x="1097" y="642.05" width="20" height="7.03"/><rect class="cls-8" x="1097" y="630.13" width="20" height="7.03"/><rect class="cls-8" x="1097" y="618.21" width="20" height="7.03"/><rect class="cls-125" x="1097" y="606.29" width="20" height="7.03"/><rect class="cls-125" x="1097" y="594.36" width="20" height="7.03"/><rect class="cls-125" x="1097" y="582.44" width="20" height="7.03"/><rect class="cls-125" x="1097" y="570.52" width="20" height="7.03"/><rect class="cls-125" x="1097" y="558.6" width="20" height="7.03"/><rect class="cls-125" x="1097" y="546.68" width="20" height="7.03"/><polygon class="cls-4" points="136 335 63 587 231 587 172 335 136 335"/><circle class="cls-8" cx="151" cy="442" r="26"/><polygon class="cls-8" points="149.78 508.75 132 576.25 162 576.25 149.78 508.75"/><text class="cls-102" transform="translate(186.42 480.31) rotate(80.25)">D<tspan class="cls-126" x="10.94" y="0">-</tspan><tspan x="16.2" y="0">SCHOOL</tspan></text><polygon class="cls-8" points="157.85 244 130 352 177 352 157.85 244"/><circle class="cls-6" cx="151" cy="353" r="6"/><rect class="cls-8" x="75" y="587" width="46" height="14"/><rect class="cls-8" x="79" y="609" width="38" height="8"/><rect class="cls-8" x="175" y="587" width="46" height="14"/><rect class="cls-8" x="179" y="609" width="38" height="8"/><path class="cls-8" d="M300,692a15,15,0,1,0-27.84,7.72h0L285,721l12.86-21.28h0A14.91,14.91,0,0,0,300,692Zm-15,8a8,8,0,1,1,8-8A8,8,0,0,1,285,700Z"/><rect class="cls-8" x="334" y="684" width="27" height="6"/><rect class="cls-8" x="347" y="697" width="27" height="6"/><rect class="cls-8" x="333.5" y="710.5" width="34.5" height="6"/><path class="cls-8" d="M415,683a17,17,0,1,0,17,17A17,17,0,0,0,415,683Zm0,28.59A11.59,11.59,0,1,1,426.59,700,11.59,11.59,0,0,1,415,711.59Z"/><polyline class="cls-85" points="452 690.48 452 699.32 457.78 693.54"/><ellipse class="cls-87" cx="568.5" cy="310" rx="79.5" ry="11" transform="translate(-42.77 96.37) rotate(-9.34)"/><ellipse class="cls-127" cx="568.5" cy="310" rx="11" ry="79.5" transform="translate(-14.79 591.18) rotate(-54.34)"/><circle class="cls-8" cx="570.05" cy="309" r="57"/><circle class="cls-88" cx="527.54" cy="309" r="10.63"/><circle class="cls-88" cx="599.03" cy="309" r="30.92"/><circle class="cls-8" cx="571.02" cy="309" r="22.22"/><rect class="cls-6" x="613" y="247.04" width="19" height="4.93"/><rect class="cls-6" x="626" y="257" width="6" height="2.18"/><rect class="cls-6" x="626" y="264.71" width="6" height="2.18"/><rect class="cls-6" x="626" y="272.43" width="6" height="2.18"/><rect class="cls-6" x="626" y="280.14" width="6" height="2.18"/><rect class="cls-6" x="626" y="287.85" width="6" height="2.18"/><rect class="cls-6" x="620.71" y="297" width="11.57" height="3"/><rect class="cls-6" x="626" y="308" width="6" height="2.18"/><rect class="cls-6" x="626" y="315.71" width="6" height="2.18"/><rect class="cls-6" x="626" y="323.43" width="6" height="2.18"/><rect class="cls-6" x="626" y="331.14" width="6" height="2.18"/><rect class="cls-6" x="626" y="338.85" width="6" height="2.18"/><rect class="cls-6" x="620.71" y="348" width="11.57" height="3"/><rect class="cls-6" x="626" y="359" width="6" height="2.18"/><rect class="cls-6" x="626" y="366.71" width="6" height="2.18"/><rect class="cls-6" x="626" y="374.43" width="6" height="2.18"/><rect class="cls-6" x="626" y="382.14" width="6" height="2.18"/><rect class="cls-6" x="626" y="389.85" width="6" height="2.18"/><path class="cls-4" d="M104.89,283.45A24.06,24.06,0,0,1,87.27,243,27.41,27.41,0,1,0,117,280.18,23.91,23.91,0,0,1,104.89,283.45Z"/><text class="cls-128" transform="translate(734.66 328.31)">H<tspan class="cls-129" x="36.06" y="0">2</tspan><tspan x="50.68" y="0">O</tspan></text><text class="cls-130" transform="translate(259.67 61.87)">台大創新設計學院</text><text class="cls-131" transform="translate(803.67 65.49)">活動列表</text><text class="cls-132" transform="translate(692.65 66.81)">N<tspan class="cls-133" x="28.35" y="0">e</tspan><tspan x="50.13" y="0">ws</tspan></text><g class="cls-134"><line class="cls-111" x1="352" y1="219" x2="352" y2="221"/><line class="cls-135" x1="352" y1="224.91" x2="352" y2="395.04"/><line class="cls-111" x1="352" y1="397" x2="352" y2="399"/></g><g class="cls-134"><line class="cls-111" x1="442" y1="309" x2="440" y2="309"/><line class="cls-135" x1="436.09" y1="309" x2="265.96" y2="309"/><line class="cls-111" x1="264" y1="309" x2="262" y2="309"/></g><g class="cls-134"><line class="cls-111" x1="415.64" y1="245.36" x2="414.23" y2="246.77"/><line class="cls-135" x1="411.46" y1="249.54" x2="291.16" y2="369.84"/><line class="cls-111" x1="289.77" y1="371.23" x2="288.36" y2="372.64"/></g><g class="cls-134"><line class="cls-111" x1="415.64" y1="372.64" x2="414.23" y2="371.23"/><line class="cls-135" x1="411.46" y1="368.46" x2="291.16" y2="248.16"/><line class="cls-111" x1="289.77" y1="246.77" x2="288.36" y2="245.36"/></g><polygon class="cls-136" points="352 228.5 332 287 270.5 310.5 326 335 352 399 395 355 382 309 416 245 352 228.5"/><path class="cls-8" d="M911.5,593.08h0a9.5,9.5,0,0,1,9.5,9.5V620a0,0,0,0,1,0,0H902a0,0,0,0,1,0,0V602.58A9.5,9.5,0,0,1,911.5,593.08Z"/><rect class="cls-4" x="910.05" y="604.68" width="4.51" height="9.4" transform="translate(1521.68 -302.92) rotate(90)"/><rect class="cls-85" x="491.5" y="667.34" width="37.5" height="40.82"/><circle class="cls-8" cx="496.15" cy="672.65" r="1.33"/><circle class="cls-8" cx="502.78" cy="672.65" r="1.33"/><circle class="cls-8" cx="509.42" cy="672.65" r="1.33"/><circle class="cls-8" cx="516.06" cy="672.65" r="1.33"/><circle class="cls-8" cx="522.69" cy="672.65" r="1.33"/><circle class="cls-8" cx="499.46" cy="677.96" r="1.33"/><circle class="cls-8" cx="506.1" cy="677.96" r="1.33"/><circle class="cls-8" cx="512.74" cy="677.96" r="1.33"/><circle class="cls-8" cx="519.38" cy="677.96" r="1.33"/><circle class="cls-8" cx="526.01" cy="677.96" r="1.33"/><circle class="cls-8" cx="496.15" cy="683.27" r="1.33"/><circle class="cls-8" cx="502.78" cy="683.27" r="1.33"/><circle class="cls-8" cx="509.42" cy="683.27" r="1.33"/><circle class="cls-8" cx="516.06" cy="683.27" r="1.33"/><circle class="cls-8" cx="522.69" cy="683.27" r="1.33"/><circle class="cls-8" cx="499.46" cy="688.58" r="1.33"/><circle class="cls-8" cx="506.1" cy="688.58" r="1.33"/><circle class="cls-8" cx="512.74" cy="688.58" r="1.33"/><circle class="cls-8" cx="519.38" cy="688.58" r="1.33"/><circle class="cls-8" cx="526.01" cy="688.58" r="1.33"/><circle class="cls-8" cx="496.15" cy="693.89" r="1.33"/><circle class="cls-8" cx="502.78" cy="693.89" r="1.33"/><circle class="cls-8" cx="509.42" cy="693.89" r="1.33"/><circle class="cls-8" cx="516.06" cy="693.89" r="1.33"/><circle class="cls-8" cx="522.69" cy="693.89" r="1.33"/><circle class="cls-8" cx="499.46" cy="699.2" r="1.33"/><circle class="cls-8" cx="506.1" cy="699.2" r="1.33"/><circle class="cls-8" cx="512.74" cy="699.2" r="1.33"/><circle class="cls-8" cx="519.38" cy="699.2" r="1.33"/><circle class="cls-8" cx="526.01" cy="699.2" r="1.33"/><polyline class="cls-137" points="728 572 728 674 688.5 713.5"/><polygon class="cls-8" points="1210.8 174.5 1188.4 196.9 1238.5 247 1288.6 196.9 1266.2 174.5 1210.8 174.5"/><polygon class="cls-88" points="1210.8 174.5 1220.23 195.72 1188.4 196.9 1210.8 174.5"/><polyline class="cls-88" points="1256.77 195.72 1266.2 174.5 1288.6 196.9"/><polygon class="cls-88" points="1239.09 174.5 1220.23 195.72 1256.77 195.72 1239.09 174.5"/><polygon class="cls-88" points="1210.8 195.72 1237.91 246.41 1220.67 195.72 1210.8 195.72"/><polygon class="cls-88" points="1263.85 195.72 1237.91 246.41 1254.4 195.72 1263.85 195.72"/><circle class="cls-8" cx="1784.5" cy="204.51" r="45.5"/><path class="cls-88" d="M1768.65,161.86l7.21,4.07,11.52,3.45,3.46,3.46,3.45-5.76,5.76-3.46,1.6-1.25s-9.66-2.2-16.57-3.36S1768.65,161.86,1768.65,161.86Z"/><path class="cls-88" d="M1748.22,184.36v6.91l1.15,8.06v11.52a23.52,23.52,0,0,0,1.15,5.76l1.15,2.3,1.15,1.15,2.31-5.76,3.45-4.6,4.61-8.07,3.46-5.76,8.06-2.3s-9.22,2.3,2.3,0,10.37,0,11.52-2.3,4.61,0,1.15-2.31c-11.7-7.8-11.52-5.76-11.52-5.76l-9.21-3.45-3.46-1.15h-12.67l-4.12,3.59Z"/><path class="cls-88" d="M1816.18,184.36l-4.61,1.15-1.15,1.15-5.76,2.3h-2.31l1.16,2.31,4.6,2.3,3.46,6.91v1.15l1.15,3.46,2.31,3.46,1.15,3.45h1.15l1.15-3.45c1.15-2.31,1.15-8.07,1.15-8.07s-1.15,0,0-2.3l1.15-2.31,2.31-4.6V189l-3.46-4.6h-3.45Z"/><path class="cls-88" d="M1781.62,223.52,1777,227l-5.76,3.45,2.31,4.61,9.21,1.15,2.31-2.3h4.6a40.84,40.84,0,0,0,6.91,1.15c2.31,0,5.76-2.3,5.76-2.3v-3.46l-1.15-4.61-6.91-3.45-4.61,1.15h-3.45l-3.46,2.3Z"/><path class="cls-88" d="M1767.2,247.28l5.8-2.07,12.21,1.53h3c1.53,0,4.58-1.53,7.63-1.53h4.58l1.53,1.53a35.52,35.52,0,0,1-14.5,3C1779.1,249.79,1767.2,247.28,1767.2,247.28Z"/><path class="cls-6" d="M1821.61,223.93c0-2.21-1.56-3.36-3.62-3.36s-3.51,1.05-5.07,2.61l-4.92-4.52a14.62,14.62,0,0,1,11.1-5.27c6.23,0,11.1,3,11.1,9.94s-8.59,9-7.94,15.67h-7.78C1813.27,231.27,1821.61,228.05,1821.61,223.93ZM1813,247.69a5.33,5.33,0,1,1,5.33,5.57A5.31,5.31,0,0,1,1813,247.69Z"/><rect class="cls-6" x="1260.86" y="146" width="15.34" height="3.98"/><rect class="cls-6" x="1271.35" y="154.04" width="4.84" height="1.76"/><rect class="cls-6" x="1271.35" y="160.27" width="4.84" height="1.76"/><rect class="cls-6" x="1271.35" y="166.5" width="4.84" height="1.76"/><rect class="cls-6" x="1271.35" y="172.73" width="4.84" height="1.76"/><rect class="cls-6" x="1271.35" y="178.95" width="4.84" height="1.76"/><rect class="cls-6" x="1267.09" y="186.34" width="9.34" height="2.42"/><rect class="cls-6" x="1271.35" y="195.22" width="4.84" height="1.76"/><rect class="cls-6" x="1271.35" y="201.45" width="4.84" height="1.76"/><rect class="cls-6" x="1271.35" y="207.68" width="4.84" height="1.76"/><rect class="cls-6" x="1271.35" y="213.91" width="4.84" height="1.76"/><rect class="cls-6" x="1271.35" y="220.13" width="4.84" height="1.76"/><rect class="cls-6" x="1267.09" y="227.52" width="9.34" height="2.42"/><rect class="cls-6" x="1271.35" y="236.4" width="4.84" height="1.76"/><rect class="cls-6" x="1271.35" y="242.63" width="4.84" height="1.76"/><rect class="cls-6" x="1271.35" y="248.86" width="4.84" height="1.76"/><rect class="cls-6" x="1271.35" y="255.08" width="4.84" height="1.76"/><rect class="cls-6" x="1271.35" y="261.31" width="4.84" height="1.76"/><text class="cls-138" transform="translate(1730.78 344.15)">國際與企業專題</text><text class="cls-138" transform="translate(1563.78 344.15)">專題課程</text><text class="cls-138" transform="translate(1372.78 344.15)">工作坊課程</text><text class="cls-138" transform="translate(1209.78 344.15)">核心課程</text><circle class="cls-8" cx="1435.18" cy="184.64" r="28.98"/><rect class="cls-8" x="1429.38" y="146" width="12.24" height="76"/><rect class="cls-8" x="1429.38" y="146" width="12.24" height="76" transform="translate(1619.5 -1251.5) rotate(90)"/><rect class="cls-8" x="1429.38" y="146" width="12.24" height="76" transform="translate(550.56 -961.16) rotate(45)"/><rect class="cls-8" x="1429.38" y="146" width="12.24" height="76" transform="translate(2580.66 -700.94) rotate(135)"/><circle class="cls-88" cx="1389.52" cy="230.44" r="19.25"/><rect class="cls-88" x="1385.47" y="204.73" width="8.13" height="50.47" transform="translate(28.26 591.38) rotate(-24.27)"/><rect class="cls-88" x="1385.47" y="204.73" width="8.13" height="50.47" transform="translate(1028.12 -1131.31) rotate(65.73)"/><rect class="cls-88" x="1385.47" y="204.73" width="8.13" height="50.47" transform="translate(171.41 -477.05) rotate(20.73)"/><rect class="cls-88" x="1385.47" y="204.73" width="8.13" height="50.47" transform="translate(2096.55 -988.16) rotate(110.73)"/><circle class="cls-4" cx="1435.19" cy="184.62" r="10.62"/><line class="cls-139" x1="1476" y1="216" x2="1426" y2="266"/><line class="cls-140" x1="1390" y1="231" x2="1420" y2="259"/><circle class="cls-4" cx="1746.19" cy="187.62" r="24.38"/><circle class="cls-6" cx="1743.19" cy="187.62" r="16.62"/><line class="cls-140" x1="1436" y1="185" x2="1466" y2="213"/><rect class="cls-8" x="1561.12" y="163.74" width="81.13" height="78.83"/><rect class="cls-88" x="1567.66" y="170.69" width="53.25" height="11.15"/><rect class="cls-88" x="1567.66" y="187.6" width="30.83" height="5.46"/><rect class="cls-88" x="1567.66" y="198.81" width="30.83" height="5.46"/><polyline class="cls-141" points="1567.66 236.96 1586.35 215.47 1606.9 233.22 1642.39 193.99"/><circle class="cls-4" cx="1586.34" cy="215.47" r="4.67"/><circle class="cls-4" cx="1606.9" cy="234.16" r="4.67"/><circle class="cls-110" cx="1568.6" cy="236.03" r="15.88"/><circle class="cls-6" cx="1642.39" cy="195.86" r="5.61"/></g></g></svg>