<svg id="2faf0383-5f08-49dc-9274-0de4ee914937" data-name="圖層 1" xmlns="http://www.w3.org/2000/svg" viewBox="0 0 992.13 992.13"><defs><style>.f75a29a7-34be-4d8b-a7cd-0d43b54e547a{fill:#a69154;}.\39 49a4239-9e4e-4a1e-8f2d-91562dabc944{fill:#7b6330;}.\32 262b42d-bfcc-4e1f-bcaa-0d273aedb692{fill:#826b32;}.\31 5405e64-3ad6-4050-a8a5-f753c719851e{fill:#c9dd72;}.\31 e136387-3c4f-4e61-82ee-7c151d7c4f4d{fill:#a3cc3a;}.\38 b4b13ab-a79e-4a3f-8cb0-a0fc2863a4ea{fill:#a3cc3b;}.a8446c79-e5f4-4b6c-b6d7-0244d99048a9{fill:#9197a3;}.\38 7ede426-dbcd-432d-a1e3-ef7ce610a059{fill:#2b3921;}.\31 6d656e2-2973-4dad-986a-9fb9d5ac647f{fill:#465a31;}.e64f17b2-8ed0-47ab-bd29-3bb7bfc724c9{fill:#2a3820;}.bbdd7789-9b06-4d85-9224-1d7ad0d7b05e{fill:#7c9136;}.d4c1b417-6072-4861-a6f2-076470111e9a{fill:#988141;}.c1e33376-1228-4e9e-8ab5-6291a3147d21{fill:#866e33;}.\38 ef317b6-a3ca-4c59-ae27-26f11e200d5f{fill:#8a9b34;}.cba0ed58-7fe7-43e6-bdaa-e91e865d7af9{fill:#7e9136;}.\31 40de6dd-781b-48bf-9ed6-6d8c22ebeca4{fill:#595e7a;}.\36 2cc14be-93dc-4582-93e2-01cc59d472db{fill:#dcdac8;}.\31 1512de7-13dd-473e-8e3d-7ed0fb8ba759{fill:#c0c2b7;}.d8ee2bd1-4015-4317-8e51-d13ff56a7fe5{fill:#cecdbf;}.\36 bb7b2a5-c0d4-497d-8c00-a641feb80547{fill:#a0a1a4;}.aef7b6c7-81c7-431c-9966-1b95958cb171{fill:#d2d1c2;}.\34 3ebea0e-2288-41f0-b8a3-ca218b3f5b5a{fill:#cfcebf;}.\32 4cfead2-687b-4fad-9412-681468e5a991{fill:#cecec0;}.aa6be359-9421-4673-9b9a-289c198a5789{fill:#d86750;}.\38 013b3fa-963d-4b4f-8587-0ba6b97b5913{fill:#393e23;}.\31 ddcf3e9-9942-4dc9-96db-de7a705dc82a{fill:#be3a25;}.d81e8ff4-0f20-4825-a14c-55bfc70cd785{fill:#c03e26;}.\38 9395b22-a6af-4beb-82ac-32cdf11eed13{fill:#4f4424;}.\30 85ae487-401d-47a0-83e3-20dfb5fb6e67{fill:#be3c25;}</style></defs><title>stars</title><g id="784cb08f-5e07-4e77-92a9-ae5ce00f97e8" data-name="plannet_normal"><g id="f891194f-d1d9-4d24-83b7-5433b7aa6faa" data-name="rock1"><path class="f75a29a7-34be-4d8b-a7cd-0d43b54e547a" d="M100.53,735.37c-1.4-3.86-3.08-5.87-12-11.18-3.84-2.28-7.44-3.25-14.92-.44a36.88,36.88,0,0,0-18.74,16.67c-6.54,11.55,14.81,20.7,14.81,20.7,5.17,2.36,11.32,2.07,21.46-9.15C98.64,743.64,102.15,739.83,100.53,735.37Z"/><path class="949a4239-9e4e-4a1e-8f2d-91562dabc944" d="M92.24,736.56c-4.3-.07-11.13,3-19.13,6.31-2.17,1-3,4.1-3.16,8.33a3.5,3.5,0,0,0,.41,1.85,7.56,7.56,0,0,0,4,2.91,7.37,7.37,0,0,0,3.67.43c4.6-.61,7.25-2.11,12.14-6.92A47.54,47.54,0,0,0,97,742.16C98.38,739.79,97.2,736.56,92.24,736.56Z"/></g><g id="eef96801-f782-4178-891e-73de8d0f99a4" data-name="rock2"><path class="f75a29a7-34be-4d8b-a7cd-0d43b54e547a" d="M173.65,744.7a34,34,0,0,0,9.71,27A28,28,0,0,0,187.7,775a26.93,26.93,0,0,1,6.61,5.51,23.11,23.11,0,0,1,5.39,13.28c.86,16,24.78,30.76,33.19,32.5a23.49,23.49,0,0,0,7.81,0,15.42,15.42,0,0,0,12.87-13.63c.83-7.44.81-14.43-.85-20.51a71.76,71.76,0,0,0-8.3-23.51c-5.84-9.68-12.34-16.69-19.59-20.74a48.27,48.27,0,0,0-17.65-6c-1.77-.26-3.52-.62-5.27-1l-12.57-2.69C179.45,736.11,174.62,738.62,173.65,744.7Z"/><path class="949a4239-9e4e-4a1e-8f2d-91562dabc944" d="M183.93,752l27.74,15.81c6.51,3.35,10.44,8.81,13.94,14.62,6,7.63,8.91,13.25,9.34,17.23l1,7.47c0,.44.22.86.29,1.3.84,4.79-.83,5.73-3.33,6.27-9.32,1.83-15.87-2.47-23.38-11a35.4,35.4,0,0,1-7.08-12.53c-.31-.87-.66-1.73-1-2.58l-4.38-9.7a10.57,10.57,0,0,0-2.86-3.76L194,775c-4.64-4-10.2-7.61-11.72-12.65a3.3,3.3,0,0,1-.13-.68,16.36,16.36,0,0,0-1-5.66C180.19,753.73,180.91,750.52,183.93,752Z"/></g><path class="f75a29a7-34be-4d8b-a7cd-0d43b54e547a" d="M164.12,610.18c7.84,15.51,16.68,25.09,26.18,39.34a29.72,29.72,0,0,0,3.32,4.06c10.78,11.23,41.84,39.59,52.28,69.4,11.92,34.07,32.76,55.82,32.76,55.82a54.88,54.88,0,0,1,7.9,15c4.77,14.3,17.72,39.51,20.66,53.61a36.86,36.86,0,0,0,9.64,17.52A108.67,108.67,0,0,1,338,884.69c7.73,9.68,16.87,18.58,25.85,24.31,21.63,13.79,39.44,36.17,40.21,37.52,16.07,28.18,79.69,20.23,106.7,16.69,78.12-14.54,139.89-42.33,198.86-72.39L697.68,858l-35.34-31.09-75.8-40.24L518,773.7l-56.64-9.37L388.1,720.47l-69.41-73.67Z"/><path class="2262b42d-bfcc-4e1f-bcaa-0d273aedb692" d="M410.29,934.54s-1.34-19.27-18.6-27-25.63-30.16-25.63-30.16-20-39.74-30.83-50.78c-4-4.1-7.37-11.51-14.58-17.07-2.55-2-6.9-2.13-7.45,3-1.78,11.8-.51,20.59,5.78,32.49-1.28,1.11-.64,3.95.84,7.54,0,0,24.69,41.68,43,49.72C374.43,907.4,388,924.65,388,924.65,391.89,928.82,410.08,949.93,410.29,934.54Z"/><path class="2262b42d-bfcc-4e1f-bcaa-0d273aedb692" d="M165.41,612.68l-2.08,4.4s10,18,15.59,21.07,17.12-.63,17.12-.63c3-1.36,7.32.26,11.52,3.79,8.28,7,19,22.18,29.13,37.72,10.56,17.27,28,28.93,48,37.45,7.11,3.33,9.52,8.59,10,14.62,1.91,27.33,21.47,42.94,41.87,52.94,12,6.7,17.63,6.54,19.14,13.32.76,3.38-.46,5.69-2.57,7a1.67,1.67,0,0,0,0,2.83l9.25,5.72a19.54,19.54,0,0,0,6.3,2.52c12,2.5,52.57,11,63.24,14.53,11.69,3.83,35,.53,38.23.06a.22.22,0,0,1,.24.3l-1.28,6.26s10.37-3.35,17.95-4c.43,0,2.86,11.58,5.3,17.76a8.09,8.09,0,0,0,4.57,4.58l6.07,2.38a10.66,10.66,0,0,1,2.41,1.34c7.14,5.23,47.51,29.3,91.86,23.61,30.27-3.88,15.19,19.57-6.85,28.78l-67.83,27.4c-11.27,4.31-7.68,9.09-2.34,10.12,27.46,5.3,164-46.15,169.51-55.71l9.39,3.25a6,6,0,0,0,3.21.21l7.64-.82a2.81,2.81,0,0,0,2.2-3.27c-1.53-8.36-8.73-31-8.73-31l-57.36-27.34s-5.92,1-4.72,6.4c.58,2.63-11.25,24.13-31.78,17.51-13.83-4.46-8.45,5-8.45,5-9.6,5.49-20.14,6.57-32.43-.46-.91-5.5-5.67-8.3-15.53-7.54-3.76-5.8-12.71-8.37-24.21-9.36.12,1.28-8.38-10.51-14.16-11.88-3.14-.74-4.11-2.51-4.11-2.51-.94-.64,0-2.44,6.85-4.8,5.41-1.87,5.41-18.18-.23-14.62l-14.16-16.9L297.9,651.17Z"/><path class="15405e64-3ad6-4050-a8a5-f753c719851e" d="M164.49,614.1s-17.57-1.1-28.55-11A38.09,38.09,0,0,0,148,597.63s-4.39-2.2-24.16-9.88c-.72-.28,16.29,1.28,19.77-2.2.55-.55-18.12-8.24-18.67-8.79s18.67-5.49,19.22-4.94-12.63-9.33-12.63-10.43c0-.78,14.83-3.84,14.83-3.84-6.76-4-13.07-7.95-17-11.53a56.52,56.52,0,0,0,13.73-.55l-11-24.16,19.22,3.84-6.59-22,12.63,1.65A51.29,51.29,0,0,0,148,481.23a72.3,72.3,0,0,1,19.22,1.65,62,62,0,0,1-8.24-17,51.6,51.6,0,0,0,13.73,1.65,46.62,46.62,0,0,1-6-12.63l11.53,3.84c.55-.55-2.27-11.27-10.43-18.12-1.19-1,19.77-2.2,19.77-2.2l-6-11.53a31.93,31.93,0,0,0,12.08,2.2l-9.88-14.28,13.73,1.65c-.33-4-.4-7.73.55-10.43l8.79,4.39c-.36-7.75.08-15.11,2.75-21.41a28.39,28.39,0,0,0,4.94,8.24,57,57,0,0,0-1.1-12.08c6,.56,11.78,3.77,17.57,7.69l2.75-12.63,8.24,6,2.2-11,9.88,4.39,3.29-11,9.88,4.39L271.56,361l8.79,5.49,6.59-11,8.79,2.2,6.59-12.08L310,348.9l4.94-10.43,24.71-6,22-5.49,31.3-7.14,58.75-9.33,95-9.33,70.28,15.37,6.59-3.29,1.1,15.37L685,349.45l19.77,3.29a17.79,17.79,0,0,0-2.75,6c7.64.8,17.84,3,28.55,5.49a74.76,74.76,0,0,1-11,5.49,74.69,74.69,0,0,0,29.65,7.69,29.91,29.91,0,0,1-4.39,6.59c9.31,5.07,20,10.07,26.9,10.43l-3.84,8.24c9.65,3.25,19.16,7.55,29.1,11.53a47.46,47.46,0,0,1-9.88,6.59c9.84,2.51,20,5,23.61,7.14a36.49,36.49,0,0,0-4.94,10.43c4.64-.91,9.39-1.82,11.53-2.75a26.36,26.36,0,0,1-2.2,14.28c6.41,3.38,13,5.83,19.77,6.59-2.88,2.78-5.54,5.48-6.59,7.69,7.18,5.56,14.17,10.16,20.86,13.18a48.75,48.75,0,0,0-9.33,8.24c4.62,1.44,15.28,11.2,24.16,18.67a59.75,59.75,0,0,1-7.14,3.84,128.26,128.26,0,0,1,14.83,10.43l-8.24,4.94c9.09,9.05,20.36,19.89,22.51,23.61-2.47,1.83-8.21,2.24-13.73,2.75,4.14,6,8.37,12.37,11.53,14.83-2.38,1.28-5.52,1.8-9.33,1.65.64,6.16,3.18,12,6.59,17.57-1.78,2.11-4.59,2.89-7.69,3.29a108.58,108.58,0,0,0,13.73,22.51,105.7,105.7,0,0,0-14.83-1.65l15.92,10.43a108.2,108.2,0,0,1-11.53,3.84,55.8,55.8,0,0,1,9.88,9.88,158.92,158.92,0,0,1-15.92-.55L886,644.85l-15.92,6,15.37,7.69c-3.79,2.58-10.1,3.81-17.57,4.39a64.29,64.29,0,0,0,11,8.79,31.86,31.86,0,0,0-7.69,3.29,83.67,83.67,0,0,1,8.24,14.83c-4.67-.14-9.26-.24-11.53.55l11,14.28c-2.7,1.15-7.86,1.69-13.18,2.2a68.06,68.06,0,0,1,9.88,11,44.2,44.2,0,0,0-9.88,2.2,131.58,131.58,0,0,1,3.84,14.83,15.61,15.61,0,0,0-9.33-2.75c.16,6.48-.67,11.89-3.29,15.37a26.91,26.91,0,0,0-6.59-3.29L853,762.35,841,756.86c-.55.49,8.24,10.37,8.79,9.88a36.11,36.11,0,0,1-10.43,2.75A38.51,38.51,0,0,1,847,787.06c-6.91-4.19-13.86-8.41-17.57-9.88,3.37,6.54,6.88,13.27,7.69,16.47-6.11-.25-12.89-.67-15.37,0a41.59,41.59,0,0,0,10.43,12.63,79.88,79.88,0,0,1-11,2.2,40.24,40.24,0,0,1,2.2,9.88,68.93,68.93,0,0,1-9.88,1.1,90.32,90.32,0,0,1,2.2,14.28c-7,.63-13.08,1-18.12,2.75a37.36,37.36,0,0,1,7.14,8.24,40.76,40.76,0,0,1-17,.55c1.71,5,3.1,9.63,3.29,13.18H771.22c1.31,3.32,3,7.33,1.65,12.63-1.26-1.21-5.79-4-9.33-6,.75,3.26,2.75,6.56,5.49,9.88-4,1.57-14.37.68-24.16,0a40.53,40.53,0,0,0,4.39,6.59A73.21,73.21,0,0,1,735,880.4l4.94,6c-10.64,1-19.83.87-28-2.75a30.15,30.15,0,0,0,4.39,8.79c-.67.79-12.86-.37-21.41-17-6.19-12.06-7.69,0-7.69,0s-9.33-13.73-15.92-19.22-15.37-13.18-18.67-18.67c-.38-.63-.55-1.65-2.75-1.65-10.88,0-28-12.83-36.79-18.12-21.67-13-69.6-20.18-92.24-6.59-8.24,4.94-23.06,7.69-23.06,7.69a63,63,0,0,0,6.59-12.08c-7.9,5.62-19.62,10.08-31.3,13.73a23.23,23.23,0,0,1,0-8.79c-1.44,3.93-23.06,11-31.85,6.59a43.05,43.05,0,0,0,8.24-9.33A52.71,52.71,0,0,0,428,820.55l1.1-17.57-15.37,11c0-10,2.32-19,6-25.81,0,0-23.52,9.36-38.44,4.39C379.73,792,388,786,388,786s-14.83.55-25.81,4.94c-.72.29,2.56-21.81,9.33-24.71,3.84-1.65-15.92-3.84-21.41-4.94-2.41-.48,12.63-8.24,12.63-8.24s-23.64-4.83-32.94-15.37a41.86,41.86,0,0,0-17.57-12.08,83.43,83.43,0,0,1,11.53-8.24A89.77,89.77,0,0,1,299,699.21c5.1-.63,10.77-1.16,15.92-2.75,0,0-34-22-33.49-24.71s31.3-1.65,31.3-1.65-18.67-6.59-23.06-6.59c-2.8,0-14.83-.55-19.77-3.29-3.46-1.92-28.55-6.59-34-6.59-.78,0,2.83-7.4,3.84-10.43.55-1.65-18.12,2.75-34-15.37C192.49,630,177.12,627.83,164.49,614.1Z"/><path class="1e136387-3c4f-4e61-82ee-7c151d7c4f4d" d="M390.71,542.72c16.47,31.85-92.24,31.85-69.18,2.2,0,0-6.59-16.47,19.77-14.28s25.26-4.39,25.26-4.39C391.3,525.78,399.49,531.74,390.71,542.72Z"/><path class="8b4b13ab-a79e-4a3f-8cb0-a0fc2863a4ea" d="M730.59,364.27c-10.71-2.49-20.91-4.69-28.55-5.49a17.79,17.79,0,0,1,2.75-6L685,349.45,634.3,317.85l-10.78-4.65-6.59,3.29-70.28-15.37-95,9.33-58.75,9.33-31.3,7.14-22,5.49-24.71,6L310,348.9l-7.69-3.29-6.59,12.08-8.79-2.2-6.59,11L271.56,361l-4.39,12.08-9.88-4.39-3.29,11-9.88-4.39-2.2,11-8.24-6-2.75,12.63c-5.79-3.92-11.61-7.13-17.57-7.69a57,57,0,0,1,1.1,12.08,28.39,28.39,0,0,1-4.94-8.24c-2.6,6.14-3.07,13.29-2.76,20.82h.31l-.31.09v-.08l-.53,0S199.71,417,196.34,423c-5.49,9.88,7.69,20.86,16.47,17.57,0,0,7.69,22,63.69-4.39,10.29,4,20.86,4,31.85-2.2,16.93,11.39,30.66,14.1,40.63,6.59,7.69,12.08,36.33,22.58,61.5-4.39,7.77,1.69,15,1.18,20.86-4.39,3.22,2.88,9.27,4,19.77,2.2l.52-.18c3.58,12.47,13.85,40.91,37.91,65,31.85,31.85,60.4,68.09,74.67,97.74s15.32,98.18,4.39,126.29c-7.69,19.77-20.86,37.34-35.14,43.93-9,4.17-26.36,20.86-14.28,28.55,0,0,9.88,4.39,12.08-7.69s16.47-8.79,16.47-8.79,6.59,2.2-4.39,11-5.49,15.37-5.49,15.37,7.69,9.88,14.28,0,50.51-87.85,48.32-143.86-31.85-109.81-51.61-127.39c-19.36-17.21-59.78-52.35-74.85-106.42,2.41,2.69,5,2.22,7.86-1.2,1.29,4.55,6.14,7.23,13.18,8.79-2.19,18.53,42.83,38.44,72.48,32.94,2.2,8.79,22,13.18,34,7.69,30.75,13.18,69.18,4.39,61.5-13.18,9.76-6.09,10.47-12.29-1.1-18.67l28.55-46.12c12.05,6.57,30.66-2.16,23.11-22.93l-1.14,1-.68,0,1.77-1.12,0,.13,6-5.07A74.76,74.76,0,0,0,730.59,364.27Z"/><path class="a8446c79-e5f4-4b6c-b6d7-0244d99048a9" d="M455.5,387.88c.15,6.19,3.11,25.28,6.59,41.73h12.08c-3.2-10.39-11.36-39.58-9.88-47.22Z"/><path class="87ede426-dbcd-432d-a1e3-ef7ce610a059" d="M682.17,354.23l30.58-56.9s8.45-13.38,8-28.71c-.41-14.11.87-70.06,1.08-78.89a24.9,24.9,0,0,0-.1-2.86c-.26-2.79-1-8.21-2.63-9.57-1.94-1.57-4.52,0-4.52,0a51.81,51.81,0,0,0-9.82,8.05c-4.22,4.53-38.39,45.83-43,51.34A5.5,5.5,0,0,0,661,238l-26.27,60.92s-6.07,12.57-6.62,13.79-3,15.88-3,17S682.17,354.23,682.17,354.23Z"/><path class="16d656e2-2973-4dad-986a-9fb9d5ac647f" d="M698.4,209.56s10.51-13,11.28-14.12c1.93-2.88,6-5.06,6.24,2.24.32,8.23-5.52,51.4-5.52,51.4-1.33,7.16-8.48,4.68-8.06-2l.94-12.5a0,0,0,0,0-.07,0c-3.27,4.55-8,1.78-6.77-2.09l4.87-16.68a.39.39,0,0,0-.4-.49C697.68,215.42,695.95,212.68,698.4,209.56Z"/><path class="e64f17b2-8ed0-47ab-bd29-3bb7bfc724c9" d="M551.73,172.42s8.69-36.17.95-56.71-12.32-64.77-12.32-64.77-2.84-21.71-4.58-29.07S526.41,15,521.09,20c-4.87,4.6-22.1,23.71-29.54,46.76-8.07,25-29.74,75.87-29.74,75.87L520,166.89,543,177.15Z"/><path class="16d656e2-2973-4dad-986a-9fb9d5ac647f" d="M534.45,37.32c-1.15-7.3-4.94-9.38-8.42-5.09a64.43,64.43,0,0,0-8.59,15.44c-2.13,4.94.28,6.73,3.19,6.81a.19.19,0,0,1,.16.28,21.78,21.78,0,0,0-2.39,11.33c-.16,4,2.19,4.84,5.24,4.77a.16.16,0,0,1,.17.15c.16,2.53-.28,6.66.31,10.34.64,10.17,8.42,11.76,9.87,5.19C537.2,68.05,538.08,52.49,534.45,37.32Z"/><path class="e64f17b2-8ed0-47ab-bd29-3bb7bfc724c9" d="M226.4,175.33c-1.82-3.68-11.18-10.54-19.37-16.49-3.28-2.17-4.42-1.34-5.78,1.35l-3,7a12.86,12.86,0,0,0-.88,3l-.68,4.05q0,.18-.05.37l-5.89,56.72a24.66,24.66,0,0,0,.57,12c1.8,5.83,5.62,34.1,16.52,47.89,3.19,4,18.39,2,28.63-4.85,12.17-8.14,19.36-21.75,19.36-21.75C261.27,265,230,182.57,226.4,175.33Z"/><path class="16d656e2-2973-4dad-986a-9fb9d5ac647f" d="M200.81,235.8s-5.91-28.13,3.17-62.7c4.76-18.12,9.79,2.51,9.79,2.51,1.78,6.27,2.44,11.5.35,14.92a3.72,3.72,0,0,0-.45,3.07c5,15.74,4.2,23.12-3,21a.51.51,0,0,0-.62.61C214.52,236.57,202.61,245.8,200.81,235.8Z"/><g id="984ca17b-60bf-472f-8d41-bb0681a3adab" data-name="tree7"><path class="16d656e2-2973-4dad-986a-9fb9d5ac647f" d="M306.15,141.9c-7-5.47-5.49-15.37,4.39-20.86,1.1-5.49,6.42-10.92,11-12.08,7.69-13.18,21.26-14.91,32.94-9.88,11-14.28,32.94-19.77,49.42-7.69,9.88-9.88,28.55-7.69,40.63,5.49,20.07-11.74,58.2,22,38.79,47.72L454.4,195.71,440.13,188a24.76,24.76,0,0,1-20.86,2.2c-6.21,9.15-13.59,9.69-20.86,11-5.11,2.5-10.23,3.4-15.37,2.2l-78-42.83C295.17,160.57,297.37,147.39,306.15,141.9Z"/><path class="bbdd7789-9b06-4d85-9224-1d7ad0d7b05e" d="M306.15,141.9c-7-5.47-5.49-15.37,4.39-20.86,1.1-5.49,6.42-10.92,11-12.08,7.69-13.18,21.26-14.91,32.94-9.88,11-14.28,32.94-19.77,49.42-7.69,9.88-9.88,28.55-7.69,40.63,5.49,20.07-11.74,58.2,22,38.79,47.72-3.39,4.56-7.62,5.46-12.43,3.89-16.23,17.18-28.16,15-38.44,5.49-13.24,23.12-27.58,24.55-42.83,7.69,1,9.81-26.36,1.92-26.36,0-14.94,1.61-24.58-4.13-31.85-13.18C331.82,152.17,308.35,147.39,306.15,141.9Z"/><path class="d4c1b417-6072-4861-a6f2-076470111e9a" d="M396.75,216,400,191.86l-40.15-26a1.24,1.24,0,0,1-.57-.89,7.12,7.12,0,0,1,.93-4.51,1,1,0,0,1,.72-.47c2.45-.27,5,1.05,7.52,2.8a.67.67,0,0,0,1-.38l1.36-9.14a.86.86,0,0,1,.33-.56,3.3,3.3,0,0,1,5,1,1.18,1.18,0,0,1,.15.66l-.51,11.7a1.06,1.06,0,0,0,.45.91,77.81,77.81,0,0,0,16,8.79,2.6,2.6,0,0,0,.55.13,2.23,2.23,0,0,0,1.93-.66,3.34,3.34,0,0,0,.79-4.21l-9.73-17.3a1.2,1.2,0,0,1-.15-.59v-2.29a1,1,0,0,1,.64-1l5.23-1.65a.91.91,0,0,1,1.12.37l11.13,20.76a5,5,0,0,0,3.62,2.11,4.44,4.44,0,0,0,1.46,0,8.09,8.09,0,0,0,5-3.2,1.87,1.87,0,0,0,.13-2.22c-4.12-5-7.65-9.92-9.53-14.39a1.39,1.39,0,0,1-.06-.92,4.33,4.33,0,0,1,1-1.69l2.75-3.84c1.1-1.1,1.95-.15,2.31.34l8.93,13a.35.35,0,0,0,.57,0l5.06-7.09a.28.28,0,0,1,.37-.08l4.73,2.84a.54.54,0,0,1,.14.8l-6,12.21a.22.22,0,0,0,.27.3,123.55,123.55,0,0,0,13.92-4.89,3.69,3.69,0,0,1,2.41-.26c1.52.41,2,1.58,1.95,3.25a2,2,0,0,1-.93,1.57c-3.73,2.41-11.71,4.75-19,7.1-5,1.92-7,5.34-6.59,9.88l3.29,25.26-7.69,9.88Z"/><path class="c1e33376-1228-4e9e-8ab5-6291a3147d21" d="M387.25,149.61l-.84.27a1,1,0,0,0-.64,1v2.29a1.2,1.2,0,0,0,.15.59l9.73,17.3h0c1.74-.32,1.61-2.34,1.61-2.34l-10-19Z"/><path class="c1e33376-1228-4e9e-8ab5-6291a3147d21" d="M361.89,167.12,400,191.86,396.75,216l8.36,1.79h0s-1.08-25.92-1-27.92-2.14-2.8-2.14-2.8l-39-22.55-1.06,2.58Z"/><path class="c1e33376-1228-4e9e-8ab5-6291a3147d21" d="M409,171.45a4.44,4.44,0,0,1-1.46,0,5,5,0,0,1-3.62-2.11L392.76,148.6"/><path class="c1e33376-1228-4e9e-8ab5-6291a3147d21" d="M414.14,166l-.15-.18c-4.06-5-7.52-9.79-9.38-14.2a1.39,1.39,0,0,1-.06-.92,4.33,4.33,0,0,1,1-1.69l.86-1.21.38.5,9,13.12s3,4.63-1.64,4.59Z"/></g><g id="6d9b5e6b-e3aa-4487-a878-79756f820e52" data-name="tree6"><path class="16d656e2-2973-4dad-986a-9fb9d5ac647f" d="M228.18,202.3c-10.35,8.11,1.1,19.77,13.18,23.06-.15,8,11,9.88,19.77,7.69,2.62,8.95,11.78,13.45,26.36,14.28l39.53-2.2,60.4-30.75c0-9.88-5.18-16.65-12.08-22,1.1-4.39-3.29-12.08-11-9.88-1.1-12.08-16.47-19.77-24.16-15.37-5.62-5.65-10.84-8.52-15.37-6.59-8.28-4.29-14.53-3.44-19.77,0-4.15-.9-6.9.49-8.79,3.29-13.92,0-19.12,8.14-25.26,15.37-13.24-1.69-22.14,2.69-27.45,12.08-4.25,0-7.22,1.78-8.79,5.49A15.43,15.43,0,0,0,228.18,202.3Z"/><path class="bbdd7789-9b06-4d85-9224-1d7ad0d7b05e" d="M228.18,202.3c-10.35,8.11,6.59,19.77,19.77,22,11,2.2,23.29-5.18,20.86-9.88,10.18,3.95,18.67,2.2,18.67-4.39,3.29,11,35.14,16.47,38.44-4.39,6.59,2.2,22-1.1,24.16-9.88a11.6,11.6,0,0,0,8.79-1.1c2.2,5.49,16.47,4.39,16.47-2.2,1.1-4.39-3.29-12.08-11-9.88-1.1-12.08-16.47-19.77-24.16-15.37-5.62-5.65-10.84-8.52-15.37-6.59-8.28-4.29-14.53-3.44-19.77,0-4.15-.9-6.9.49-8.79,3.29-13.92,0-19.12,8.14-25.26,15.37-13.24-1.69-22.14,2.69-27.45,12.08-4.25,0-7.22,1.78-8.79,5.49A15.43,15.43,0,0,0,228.18,202.3Z"/><path class="d4c1b417-6072-4861-a6f2-076470111e9a" d="M302.86,211.08c-1.65-1.65,0-5.49,2.75-3.84l15.12,8.64a.14.14,0,0,0,.2-.14l-3.25-19.48c-.55-2.75,2.75-4.94,4.94-1.65l1.56,2.6a.13.13,0,0,0,.21,0l6.47-6.47c2.75-2.75,6,1.65,3.84,3.84l-9.2,9.2a.32.32,0,0,0-.08.31l3.25,13,12.63-8.24c3.29-2.2,6.59,3.29,3.29,5.49l-14.83,10a3.44,3.44,0,0,0-1.64,2.93v13.45l-10.43.55-.55-15.92Z"/><path class="c1e33376-1228-4e9e-8ab5-6291a3147d21" d="M302.86,211.08l14.28,14.28.55,15.92,4.64-.24h0s.32-13.09.2-15.78c-.09-2-.31-2.42-1.92-4.07,0,0-11.69-11.19-15.09-12.66s-3.32,2-2.77,2.44Z"/><path class="c1e33376-1228-4e9e-8ab5-6291a3147d21" d="M345.59,210.31l-17,12.32a3.32,3.32,0,0,0-1.2,1.93,7.67,7.67,0,0,0,.69,2.72,3.44,3.44,0,0,1,1.64-2.93l14.83-10a3.09,3.09,0,0,0,1-4.07Z"/></g><path class="16d656e2-2973-4dad-986a-9fb9d5ac647f" d="M301.45,502c0,3.82.63,6.83,3.8,7.9-1.77,5.81,3,11.7,8.19,11.45a12.82,12.82,0,0,0,10.86,3.38,31.05,31.05,0,0,0,13.56-.32c5.06-2,14.86-.51,26.16-3.77,3,1.44,5.84-.09,8.55-3.12,15.53-5.61,21-14.85,21.09-24.9Z"/><path class="8ef317b6-a3ca-4c59-ae27-26f11e200d5f" d="M316.11,504.79c-10.08,9.38-26-10.87-13-23.51,1-5.71,5.88-8.09,11.93-9.44-.56-5.84,2.19-10.93,10.33-14.78,8.64-11.32,20.13-13,34.2-5.88,4.46-3.45,8.69-2.36,12.82.71,7.36-3.68,12,2.83,15.85,11.93,12.38,6.13,12.7,16.33,5.42,28.8,0,7.15-15.33,19.15-19,9.31-6.45,1.23-11.06.25-14.73-2.67-1.83,4.56-4.73,6.41-8.72,5.52-2.24,6.61-8.48,9.1-17.85,8.38C324.64,515.94,318.49,513.9,316.11,504.79Z"/><path class="d4c1b417-6072-4861-a6f2-076470111e9a" d="M333.36,513.17l1.9-2.84,1.8-1.8a1,1,0,0,1,.93-.25l4.75,1.29a.27.27,0,0,0,.29-.43,35.9,35.9,0,0,1-5.25-6.89,1.34,1.34,0,0,1,.08-1.37,4.4,4.4,0,0,1,1.23-1.25,1.25,1.25,0,0,1,1-.16,22.66,22.66,0,0,1,5.65,2.85.39.39,0,0,0,.59-.22l1.93-7.73a1.34,1.34,0,0,1,.73-.79,2.84,2.84,0,0,1,3.31,1.65,2.92,2.92,0,0,1,.33,1.68l-2.55,13.73a.31.31,0,0,0,.15.33l4.64,2.62a.54.54,0,0,0,.74-.21l4.17-8.29a8.88,8.88,0,0,0,.87-2.75,30.07,30.07,0,0,1,1.78-7.33c1.09-3.1,5.64-2.84,5.55,1.18l-.87,5a.19.19,0,0,0,.23.21l4.36-1.85c3-1,4.33,3.06.85,4.11l-6.1,2a1.27,1.27,0,0,0-.74.64c-.9,1.81-4.63,8.5-2.76,16s-1,16.58-2.17,19.09a1.08,1.08,0,0,1-1.06.62l-7-.47a1,1,0,0,1-.75-.43c-2.56-3.86-3.51-8.87-4.85-17.09a5,5,0,0,0-2.34-3.47l-11.29-6.77A.52.52,0,0,1,333.36,513.17Z"/><path class="c1e33376-1228-4e9e-8ab5-6291a3147d21" d="M355.11,541.81l-2.35-.16a1,1,0,0,1-.75-.43c-2.56-3.86-3.51-8.87-4.85-17.09a5,5,0,0,0-2.34-3.47l-11.29-6.77a.52.52,0,0,1-.16-.73l1.9-2.84.42-.42h0l10.38,4.93s3.75,1.55,4,3.94,1.61,15.77,2.63,20c.69,2.89,2.36,3,2.36,3Z"/><g id="f6d7c327-c178-46de-88d2-dcbc2e893df3" data-name="tree5"><path class="16d656e2-2973-4dad-986a-9fb9d5ac647f" d="M475.27,158.37c-11.9,2.66-19.34,11.29-22,26.36-5.55-.89-9.34,1.44-11,7.69-13.18-1.1-18.3,8.36-17.57,14.28-11,3.29-17.92,10.13-8.79,19.77,16.94,10.4,33.87,20.78,51.61,14.28,11,8.16,25.58,6.12,35.14-1.1,1.1,4.39,8.09,3.31,12.08-1.1l25.26,7.69c2.45,4.5,7,5.84,9.88,3.29,1.1,5.49,19.27,11.91,26.36,8.79l60.4-35.14c0-9.88-13.18-23.06-27.45-18.67,5.49-13.18-23.06-28.55-37.34-16.47,1.1-14.28-17.57-24.16-27.45-15.37a20.48,20.48,0,0,0-15.37-6.59C526.88,133.11,480.76,129.82,475.27,158.37Z"/><path class="bbdd7789-9b06-4d85-9224-1d7ad0d7b05e" d="M475.27,158.37c-11.9,2.66-19.34,11.29-22,26.36-5.55-.89-9.34,1.44-11,7.69-13.18-1.1-18.3,8.36-17.57,14.28-3.29,1.1-6.59,1.1-12.08,7.69,2.51.13,12.58,4.61,12.08,5.49,7.48-6.24,15.19-10.23,24.16-2.2,3.79-3.5,7.76-6.27,13.18-3.29,0-8.79,14.28-16.47,26.36-2.2L495,230.85l12.08-17.57c5.35-5.62,10.22-3.37,14.71,4.83l18.23,5.06c2.89-4.36,9.18-5.06,19.77-1.1,2.42-7,6.59-11,14.28-12.08-.72-14.33,24-15.66,26.36-8.79,2.38-2.2,8.35,1,8.79,3.29,5.49-13.18-23.06-28.55-37.34-16.47,1.1-14.28-17.57-24.16-27.45-15.37a20.48,20.48,0,0,0-15.37-6.59C526.88,133.11,480.76,129.82,475.27,158.37Z"/><path class="d4c1b417-6072-4861-a6f2-076470111e9a" d="M467.47,212.89a19.9,19.9,0,0,0,0,4.51,1,1,0,0,0,.89.93A67.38,67.38,0,0,1,480.76,221a4.4,4.4,0,0,1,.69.72l5.6,7.65a1.46,1.46,0,0,1,.28.92L486.25,277l4.39,2.2,4.39-3.29,8.79-18.67-.54-30.51a4.27,4.27,0,0,1,.25-1.52l9.62-26.72c1.65-4.94-2.75-6-4.94-2.75l-2.42,3.41a.39.39,0,0,1-.64,0l-5.73-6.7a3.17,3.17,0,0,0-4.94,3.84l5.26,10.52a1.1,1.1,0,0,1,0,.93l-6.15,14.34a.31.31,0,0,1-.55,0l-12.42-20.7a2.17,2.17,0,0,0-1.39-1c-1.74-.37-2.89.16-3.32,1.8a1.77,1.77,0,0,0,.09,1.16l3.91,8.79a.34.34,0,0,1-.38.47,37.86,37.86,0,0,0-11.27-.5A.93.93,0,0,0,467.47,212.89Z"/><path class="c1e33376-1228-4e9e-8ab5-6291a3147d21" d="M490.64,279.17l-4.39-2.2,1.08-46.71a1.46,1.46,0,0,0-.28-.92l-5.6-7.65a4.4,4.4,0,0,0-.69-.72,67.38,67.38,0,0,0-12.38-2.64,1,1,0,0,1-.89-.93,22.21,22.21,0,0,1-.12-3.17h0L481.24,216a4.2,4.2,0,0,1,3,2l6.68,9a3.41,3.41,0,0,1,.74,2.06l-1,50.13Z"/><path class="c1e33376-1228-4e9e-8ab5-6291a3147d21" d="M497.25,191.54c2.21,1.18,6.48,9.51,5.6,13-.62,2.48-3.46,1.49-3.46,1.49h0l-4.9-9.8a3.17,3.17,0,0,1,2.77-4.72Z"/></g><g id="be017880-c1c2-4660-8615-3b5be7ae4b24" data-name="tree4"><path class="16d656e2-2973-4dad-986a-9fb9d5ac647f" d="M537.86,306.62c8.21,8.69,16.26,8.56,24.16,1.1a33.12,33.12,0,0,0,26.36,5.49c25.26,12.08,37.34,1.1,46.12-16.47,12.78,4.22,24.72,1.66,35.14-13.18,19.77,9.88,42.9-14.95,26.36-29.65-6.59-22-30.75-26.36-39.53-16.47-21.95-23.81-35.95-20.17-46.12-3.29-5.33,1.72-8.61,4.15-8.79,7.69-6.83-1.18-12.5-.32-15.37,5.49-9-3.29-15.9-.44-20.86,7.69-9.12-2.28-17.38,3.61-25.26,13.18-6.6,2.23-9,7.7-9.88,14.28C528,291.22,532.79,298.94,537.86,306.62Z"/><path class="bbdd7789-9b06-4d85-9224-1d7ad0d7b05e" d="M696,253.91c-6.59-22-30.75-26.36-39.53-16.47-21.95-23.81-35.95-20.17-46.12-3.29-5.33,1.72-8.61,4.15-8.79,7.69-6.83-1.18-12.5-.32-15.37,5.49-9-3.29-15.9-.44-20.86,7.69-9.12-2.28-17.38,3.61-25.26,13.18-6.6,2.23-9,7.7-9.88,14.28.2-.35,7.29,9.57,9.88,4.39,3.29-6.59,14.28,2.2,14.28,2.2,5.49-4.39,12.26-6.76,18.67,0,4.62-2.05,9.29-3.32,14.28,1.1,3.29-14.28,25.26-19.77,31.85-8.79C626.24,269,635.46,261,652.07,261.6c8.43-5.11,15.43-3,21.28,5.1C681.78,279.23,711.82,274.78,696,253.91Z"/></g><path class="87ede426-dbcd-432d-a1e3-ef7ce610a059" d="M534.57,299.2l6.2-4-1.49-93.67c-.24-11.59-4.8-13.72-8.7-9.67a48.88,48.88,0,0,0-4.7,6.45c-.11.15-.8,1.2-.9,1.36-8.37,13.6-31.22,80.94-33.53,81.42C483.91,282.7,534.57,299.2,534.57,299.2Z"/><path class="16d656e2-2973-4dad-986a-9fb9d5ac647f" d="M532.52,199.41c2.06-3.41,4.12-2.06,4.12,1.54,0,0-.26,19-.39,21.17s.39,7.92-3.15,13.06-7.9.49-7-2.64c.62-2.06,1.88-3.41,0-5.11-2.11-1.35-3.08-3.52-2.31-7.18A55.39,55.39,0,0,1,532.52,199.41Z"/><g id="9e19af16-be30-4753-a3b1-f70b7317f078" data-name="tree1"><path class="16d656e2-2973-4dad-986a-9fb9d5ac647f" d="M543.35,308.82c-1.69-8.08-4.54-14.37-11.91-13.57-2-8.51-7.05-12.19-15.54-10.59-8.81-8.85-17.2-10.19-25.26-5.49a6.34,6.34,0,0,0-5.88-2.4c7.17-11.74-7.2-26.08-21.57-25.05-4.56-8.52-11.59-14.64-24.16-15.37-.59-2.81-1.4-5.35-9.88-6.59-1.1-7.69-12.08-13.18-20.86-11-5.41-3.31-12-4.28-17.57-2.2-9.88-7.69-23.06-1.1-28.55,7.69-7.37-3.26-12.55-1-16.47,4.39-7.69-3.29-14.28,4.39-18.67,11-8.93-3.26-18.08-2.43-27.45,2.2C278.7,224.26,260,247.32,266.62,255c-8.79-1.1-20.86,12.08-22,18.67,0,0-6.59,9.88-5.49,9.88s68.09,54.91,68.09,54.91c10.17,2.38,20.4,2.32,30.75-2.2,7.38,3,13.55,1.67,18.67-3.29,3.49-.32,5.47-1.3,6.59-4.39,2.2,0,14.9-2.47,14.9-2.47,1.66,1.36,15.85.27,15.85-4.12,15.46,6.57,28.28,7.15,36.24-3.29,5.74.66,11.06.32,15.42-2.31l0,.12c3.58,7.06,12,11,26.36,11,1.31,6.25,5.35,8.22,11,7.69,3.51,4.82,8.79,6.64,16.47,4.39,2.86,2.81,6.05,4.58,9.88,4.39,5.68,4.6,12.85,4.26,20.86,1.1,8.42-2.75,14.67-7.22,18.08-14C555.43,324.19,555.43,313.21,543.35,308.82Z"/><path class="bbdd7789-9b06-4d85-9224-1d7ad0d7b05e" d="M543.35,308.82c-1.69-8.08-4.54-14.37-11.91-13.57-2-8.51-7.05-12.19-15.54-10.59-8.81-8.85-17.2-10.19-25.26-5.49a6.34,6.34,0,0,0-5.88-2.4c7.17-11.74-7.2-26.08-21.57-25.05-4.56-8.52-11.59-14.64-24.16-15.37-.59-2.81-1.4-5.35-9.88-6.59-1.1-7.69-12.08-13.18-20.86-11-5.41-3.31-12-4.28-17.57-2.2-9.88-7.69-23.06-1.1-28.55,7.69-7.37-3.26-12.55-1-16.47,4.39-7.69-3.29-14.28,4.39-18.67,11-8.93-3.26-18.08-2.43-27.45,2.2C278.7,224.26,260,247.32,266.62,255c-27.45,3.29-6.59,29.65,14.28,24.16,0,12.08,17.57,24.16,34,14.28,2.2,11,13.18,19.77,29.65,15.37,3.29,6.59,12.08,9.88,17.57,5.49l13.18-17.57c6.14,1.23,11.73-1,16.47-8.79,9.15,2.35,17.94,1.85,25.26-9.88,4.62,5.33,10,9.24,17.57,8.79,7.76,6.05,19.77,8.79,29.21,6.39,3.74-.9,4.84,1.3,4.84,2.4-1.1,6.59-4.61,10.75-9.88,11a19.82,19.82,0,0,1,11,7.69c5.07-.34,10.26.66,12.21,2.94,8.21,13,21.83,17.93,31.71,6.95,4.12,4.9,11,5.49,16.47,1.1,3.29,5.49,9.88,11,18.08,5.81C555.43,324.19,555.43,313.21,543.35,308.82Z"/><path class="d4c1b417-6072-4861-a6f2-076470111e9a" d="M479.66,321.26c.09-1.71.8-3.61,2.38-4.11a.93.93,0,0,1,.69.08l5.71,2.85a.73.73,0,0,0,1-.72c-.26-4,5.56-4.87,6.09-.1l2.1,15.77a.29.29,0,0,0,.52.14l6.16-8.22c2.75-3.84,5.61-.8,3.84,2.75-1.1,2.2-3.29,5.49-7.51,10.15a9.77,9.77,0,0,0-2.37,5.23c-1,9.38-1.59,15.78-1.1,20.86l-12.63,4.94c4.21-10,6.24-22.37,5.58-37.73a3.84,3.84,0,0,0-1.46-2.85,78.72,78.72,0,0,1-8.59-7.86A1.44,1.44,0,0,1,479.66,321.26Z"/><path class="d4c1b417-6072-4861-a6f2-076470111e9a" d="M347.88,278.07c0-4.39,3.29-4.39,3.84,0l2.2,14.83,9.48,10.53a.23.23,0,0,0,.41-.15l-1.1-16.49a2,2,0,0,0-.21-.89l-11.32-22.09c-1.1-2.2,3.29-5.49,5.49-3.29l10.09,12.22a.76.76,0,0,0,.84.22c2.85-1,4.43.32,5,3.49l6.59,63.69-19.77,6.59-1.08-31.18a1.84,1.84,0,0,0-.47-1.17l-19.42-21.52a1.52,1.52,0,0,1-.39-1.17c.35-3.37,1.49-4.81,4.26-5.29a2.21,2.21,0,0,1,1.18.13,15.77,15.77,0,0,1,4.93,3.08Z"/><path class="c1e33376-1228-4e9e-8ab5-6291a3147d21" d="M480.62,318.21a5.85,5.85,0,0,0-1,3,1.44,1.44,0,0,0,.47,1.16,78.72,78.72,0,0,0,8.59,7.86,3.79,3.79,0,0,1,.79.84v0a22,22,0,0,0-.33-6.3.87.87,0,0,0-.32-.46l-8.13-6.23Z"/><path class="c1e33376-1228-4e9e-8ab5-6291a3147d21" d="M338.39,289.81a11.94,11.94,0,0,0-.33,1.87,1.52,1.52,0,0,0,.39,1.17l19.42,21.52a1.84,1.84,0,0,1,.47,1.17l1.08,31.18,6.56-2.19h0s-2.71-27.92-2.74-31.66-1.59-4.83-1.59-4.83-16.89-16.42-19.25-18.22-4,0-4,0Z"/><path class="c1e33376-1228-4e9e-8ab5-6291a3147d21" d="M352.46,260.66c-1.1.83-1.79,2.1-1.28,3.13L362,285h0s2.55.59,3.92-2.91c.59-1.51-11.63-20.14-11.63-20.14s-.81-1.24-1.84-1.27Z"/><path class="c1e33376-1228-4e9e-8ab5-6291a3147d21" d="M488.19,359.51a37.39,37.39,0,0,1,9-1.52,48.8,48.8,0,0,0,.08,7.93l-12.63,4.94S487.9,362.32,488.19,359.51Z"/></g><g id="37dc030f-b772-4edb-80aa-f5e38e53c1f8" data-name="tree3"><path class="16d656e2-2973-4dad-986a-9fb9d5ac647f" d="M492.84,365.92c-19.77,3.29-15.37,25.26,2.2,26.36-.11,8.86,3.28,15.49,12.08,18.67-1.83,10.39,3.79,14.3,16.47,12.08,7.49,13.08,15.37,22,37.34,19.77l16.47,6.59c1.39,4.13,5.49,5.49,9.88,4.39,7.86,2.78,14.6,1.75,19.77-4.39,10,5.94,20.27,4.85,30.75-2.2,12.08,4.39,29.57-1.58,35.14-16.47,20.86-7.69,27.45-41.73,2.2-54.91,6.77-27-3.47-38.1-26.36-37.34-10.25-13.7-26.73-16.53-50.51-6.59-8.74-6-17.82-10.6-29.65-3.29-5.59-3.15-11.35-3.51-17.57,3.29-12.28-4.14-21.19,1.31-27.45,14.28-5.39-.65-9.33,2.62-11,12.08Q501,356.18,492.84,365.92Z"/><path class="bbdd7789-9b06-4d85-9224-1d7ad0d7b05e" d="M492.84,365.92c-28.15,6.36-5.82,36.43,11,22,5.46,1.78,10,.84,13.18-4.39,0,0,24.17,11.38,39.53,15.37,7,1.81,12.69,6.63,19.77,8.79,25.26,7.69,37-6.95,47.22-12.08,6.59-3.29,18,2.13,18.67,7.69,1.1,8.79,6.59,7.69,8.79,5.49,5.49-6.59,25.26-8.79,29.65,6.59,1.52,5.33,0,6.59,3.29,7.69,6.59-6.59,16.47-34-8.79-47.22,6.77-27-3.47-38.1-26.36-37.34-10.25-13.7-26.73-16.53-50.51-6.59-8.74-6-17.82-10.6-29.65-3.29-5.59-3.15-11.35-3.51-17.57,3.29-12.28-4.14-21.19,1.31-27.45,14.28-5.39-.65-9.33,2.62-11,12.08Q501,356.18,492.84,365.92Z"/><path class="d4c1b417-6072-4861-a6f2-076470111e9a" d="M548.84,470.24l16.47-41.93a2.8,2.8,0,0,0-.38-2.68l-10.77-14.36a13.69,13.69,0,0,0-3.56-3.31l-34.45-22.11a.54.54,0,0,1-.25-.47,5.6,5.6,0,0,1,1.64-3.54,19.28,19.28,0,0,1,5.13-3.13.83.83,0,0,1,.72,0l5.45,2.73a.54.54,0,0,0,.78-.48v-3.52c.34-1.68,2.11-2.33,3.81-2a4.44,4.44,0,0,1,3.11,2.84l2.8,7.48a1.41,1.41,0,0,0,.53.67l15.4,10.43a.42.42,0,0,0,.61-.52l-3.12-6.68a.3.3,0,0,1,.06-.34l1.5-1.5,2.93-2a.4.4,0,0,1,.57.14l14.32,27.06a.47.47,0,0,0,.74.11l1.39-1.39a1.48,1.48,0,0,0,.42-.87l4.83-35.9a2.18,2.18,0,0,1,.2-.66,7.77,7.77,0,0,1,3.91-3.92,1.43,1.43,0,0,1,.8-.11,5.27,5.27,0,0,1,3.23,2.37,1.29,1.29,0,0,1,.14.63l.55,25.47L603.13,383a.17.17,0,0,1,.18,0l2.91,1c.83.64,4.13,5,3.58,8.88L600,409.06a.13.13,0,0,0,.13.2L629,406.55c5.49,0,6.59,6.59,3.84,8.24l-9.93,5.72a.37.37,0,0,0,0,.63l8.27,5.18c3.29,2.2-1.1,8.79-4.94,6l-14.57-9.17a.84.84,0,0,0-.55-.12l-20.43,2.62a1.36,1.36,0,0,0-1,.69c-12.42,27.27-22.15,45.35-28.22,51C555.43,482.32,546.65,475.73,548.84,470.24Z"/><path class="c1e33376-1228-4e9e-8ab5-6291a3147d21" d="M600,409.06,598,411.74s-1.92,2.2-.2,3.39c.14.1,31.08-5.86,31.08-5.86s2.08-.51,3,.36a2.31,2.31,0,0,0,2.21.42h0a5,5,0,0,0-5-3.5l-28.83,2.72a.13.13,0,0,1-.13-.2Z"/><path class="c1e33376-1228-4e9e-8ab5-6291a3147d21" d="M555.28,396.92a2.32,2.32,0,0,0,2.63.36c1.31-.83.58-3.3.58-3.3l-3.25-6.7-.92.61-1.5,1.5a.3.3,0,0,0-.06.34l3.12,6.68a.42.42,0,0,1-.61.52Z"/><path class="c1e33376-1228-4e9e-8ab5-6291a3147d21" d="M517.55,381.84a5.6,5.6,0,0,0-1.64,3.54.54.54,0,0,0,.25.47L550.61,408a13.69,13.69,0,0,1,3.56,3.31l10.77,14.36a2.8,2.8,0,0,1,.38,2.68l-16.47,41.93c-2.2,5.49,6.59,12.08,12.63,7.14v0s1.08-3.62-1.47-3.53-5.34.08-5.25-1.69,11.08-33.9,15-45.39c.47-1.37.58-2,0-2.94s-10.12-13.94-10.12-13.94a31.45,31.45,0,0,0-8.39-7l-33.67-21Z"/><path class="c1e33376-1228-4e9e-8ab5-6291a3147d21" d="M587.43,372.37a5.39,5.39,0,0,0-3-2,1.43,1.43,0,0,0-.8.11,7.77,7.77,0,0,0-3.91,3.92,2.18,2.18,0,0,0-.2.66L574.71,411a1.48,1.48,0,0,1-.42.87l-1.39,1.39a.47.47,0,0,1-.74-.11l-.23-.44s-.24,3.18-.24,4,.56,1.15,2.09,1.08a50.91,50.91,0,0,0,5.52-1s1.35-.32,1.27-2.62c-.07-2,3-35.46,3-35.46a7.36,7.36,0,0,1,.7-3,18.65,18.65,0,0,1,3.18-3.31Z"/><path class="c1e33376-1228-4e9e-8ab5-6291a3147d21" d="M606.21,383.94l-2.91-1a.17.17,0,0,0-.18,0l-14.75,15.84v0s-.38,2.86,1.53,2.2,16.31-17.16,16.31-17.16Z"/></g><g id="09ea098c-6af8-414d-aadc-d9660f9a75bc" data-name="tree2"><path class="d4c1b417-6072-4861-a6f2-076470111e9a" d="M369.3,403.26l1,24.33c.1,2.3-.15,4,1.75,5.32,1.72,1.17,6.84,2.17,8-1.88,1.08-3.81,2.44-27.77,2.44-27.77Z"/><path class="c1e33376-1228-4e9e-8ab5-6291a3147d21" d="M369.47,407.46l-.17-4.2h13.18s-.09,1.62-.25,4.09v.11c-7.55,5-12.75,0-12.75,0Z"/><path class="16d656e2-2973-4dad-986a-9fb9d5ac647f" d="M178.77,325.29c-17.57-1.1-18.67,35.14,6.59,32.94,2.2,4.39,7.43,8.81,16.47,7.69,5.21,5.93,11,11,22,7.69,8.15.55,13.2,1.6,13.18-3.29,5.43,2.62,7.46,2.63,11,1.1a7.35,7.35,0,0,0,8,1.79c3.51,14.81,9.21,16.83,16.19,11.39,6.68,7.19,13.25,8.85,19.77,7.69,12.49-12.14,22.54-24.4,19.77-37.34,4.46-1.86,5.17-5.73,3.29-11,2.72-8.23,2.83-15.43-4.39-19.77-4.32-19.08-15.66-29.06-38.44-24.16-2.4-11.59-8-18.24-19.77-15.37-4.39-8.79-18.13-12.89-26.36,0-12.35-2.26-20.43,1.35-24.16,12.08-6.23-2.36-8.9-.08-9.88,4.39C167.79,297.83,161.2,316.5,178.77,325.29Z"/><path class="16d656e2-2973-4dad-986a-9fb9d5ac647f" d="M327,353.84c-4.39-9.88-15.75-13.56-19.77-1.1C295.58,349,272,378,291.88,392.28c5.65,8.92,14.19,13.8,27.45,12.08,6.5,3.25,13.5,2.91,20.86,0,7.91,7.28,17.63,6,28.55-1.1,6.27,3.7,12.11,4.91,16.47-2.2,10.2,6.35,19,6.66,25.26-3.29,12.08,5.49,26.36,3.29,31.85-6.59,7.69,2.2,18.73-1.59,22-8.79,6.59,3.29,18.67-11,12.08-17.57,2.2-13.18-7.69-23.06-17.57-19.77-9.88-17.88-24.42-20.67-42.83-11-9.78-3.28-18.38-1.36-26.36,3.29-16.66-7.12-28.37,3.68-39.53,16.47C338.51,349.55,331.89,350.74,327,353.84Z"/><path class="bbdd7789-9b06-4d85-9224-1d7ad0d7b05e" d="M458.79,345.06c-9.88-17.88-24.42-20.67-42.83-11-9.78-3.28-18.38-1.36-26.36,3.29-16.66-7.12-28.37,3.68-39.53,16.47-11.57-4.29-18.18-3.1-23.06,0-2.51-5.65-7.3-9.27-11.69-9-.12-.29-.25-.58-.39-.88,2.72-8.23,2.83-15.43-4.39-19.77-4.32-19.08-15.66-29.06-38.44-24.16-2.4-11.59-8-18.24-19.77-15.37-4.39-8.79-18.13-12.89-26.36,0-12.35-2.26-20.43,1.35-24.16,12.08-6.23-2.36-8.9-.08-9.88,4.39-24.16-3.29-30.75,15.37-13.18,24.16-7.69,12.08,11,22,19.77,12.08,6.59,11,20.86,12.08,22,1.1,5.56,5.66,13.27,6.19,22,4.39,2.2,7.69,8.81,9.59,14.28,5.49,6.13,5.29,12.9,6.6,18.42,3.38a25.48,25.48,0,0,0,17.52,13.57c-1.11,6.62.89,13.57,6.89,14.9,0,0,2.88,6.4,9.88,5.49-1.73,8,23.27,12.2,26.36,4.39,1.1,5.49,19.22,8.68,25.26,5.49,5.49,5.49,23.06,3.29,23.06-1.1,7.69,4.39,19.77-4.39,18.67-12.08,10.94,3.81,19.69,1.9,26.36-5.49,12.08,6.59,34-2.2,36.24-14.28C472,358.23,465.38,346.15,458.79,345.06Z"/><path class="d4c1b417-6072-4861-a6f2-076470111e9a" d="M220.5,361.53c-4.39-2.2-2.2-7.69,2.75-6l10.43,3.84c3.29,1.1,4.39-2.2,2.75-3.84l-14.28-15.37c-1.65-1.65.55-4.94,3.84-1.65l5.31,5.31a.1.1,0,0,0,.17-.08l-.53-9.07c.55-2.75,3.84-2.75,4.39,0l12.92,31.22a.31.31,0,0,0,.56,0l11.78-23.55c1.65-2.75,6-1.65,4.94,2.75l-1.65,6,9.32-2.45a1.14,1.14,0,0,1,1.39.82l.57,2.27a1,1,0,0,1-.76,1.24l-11.76,2.71a2.93,2.93,0,0,0-2.06,1.79l-4.09,10.45a4.23,4.23,0,0,0-.29,1.55v3.59a5.28,5.28,0,0,0,.44,2.1,113.39,113.39,0,0,1,13.84,31.94,5.47,5.47,0,0,1,0,4.39,11.86,11.86,0,0,1-5.53,5.76,4.83,4.83,0,0,1-3.92.12l-2.06-.82a4.53,4.53,0,0,1-2.43-2.3l-19.35-41.76a5.75,5.75,0,0,0-2.31-2.54Z"/><path class="c1e33376-1228-4e9e-8ab5-6291a3147d21" d="M223.24,355.49a2.29,2.29,0,0,0-.16,1.69c.3.89,11.93,6.7,15.87,8.18s5.91,7.1,5.91,7.1,16.07,41.31,17.84,43.18,3,1.19,3,1.19h0c-.27.16-.52.29-.8.43a4.83,4.83,0,0,1-3.92.12l-2.06-.82a4.53,4.53,0,0,1-2.43-2.3l-19.35-41.76a5.75,5.75,0,0,0-2.31-2.54l-14.37-8.42c-4.39-2.2-2.2-7.69,2.75-6Z"/><path class="c1e33376-1228-4e9e-8ab5-6291a3147d21" d="M264.53,355.25c-2.68-1.4-.66-4.16-.66-4.16h0l9.32-2.45a1.14,1.14,0,0,1,1.39.82l.57,2.27a1,1,0,0,1-.76,1.24l-9.86,2.28Z"/></g><path class="cba0ed58-7fe7-43e6-bdaa-e91e865d7af9" d="M202.27,506.29l6,21.6c6.6,1.94,11-.51,12.8-5.6Z"/><path class="cba0ed58-7fe7-43e6-bdaa-e91e865d7af9" d="M232.82,520.07l6,21.6c6.6,1.94,11-.51,12.8-5.6Z"/><path class="cba0ed58-7fe7-43e6-bdaa-e91e865d7af9" d="M244.5,492.63l6,21.6c6.6,1.94,11-.51,12.8-5.6Z"/><path class="cba0ed58-7fe7-43e6-bdaa-e91e865d7af9" d="M456.9,532.27l.74,22.41c6,3.44,10.8,2.09,13.76-2.43Z"/><path class="cba0ed58-7fe7-43e6-bdaa-e91e865d7af9" d="M485.68,545.61,484.18,568c5.59,4,10.54,3.16,13.94-1Z"/><path class="cba0ed58-7fe7-43e6-bdaa-e91e865d7af9" d="M398.19,670l6.19,21.55c6.62,1.88,11-.61,12.75-5.71Z"/><path class="cba0ed58-7fe7-43e6-bdaa-e91e865d7af9" d="M411.82,650.82l-.63,22.41c5.74,3.8,10.65,2.75,13.89-1.58Z"/><path class="cba0ed58-7fe7-43e6-bdaa-e91e865d7af9" d="M536.34,604.1l-2.21,22.31c5.46,4.19,10.43,3.49,14-.6Z"/><path class="cba0ed58-7fe7-43e6-bdaa-e91e865d7af9" d="M719.72,406.19l-10.17,20c3.56,5.89,8.45,7,13.22,4.52Z"/><path class="cba0ed58-7fe7-43e6-bdaa-e91e865d7af9" d="M738.12,406.19l-12.81,18.4c2.72,6.32,7.4,8.13,12.48,6.29Z"/><path class="cba0ed58-7fe7-43e6-bdaa-e91e865d7af9" d="M838.81,679.92l-24.25,7.83c-1.44,6.73,4.72,13.49,10.85,12.82Z"/><path class="cba0ed58-7fe7-43e6-bdaa-e91e865d7af9" d="M854.32,628.12l-24.77,5.19c0,6.42,5.78,13.4,11.06,14Z"/><path class="cba0ed58-7fe7-43e6-bdaa-e91e865d7af9" d="M855,609.56l-25.24,4c-1.27,4.94,3.3,14.07,8.91,12.14Z"/><path class="a8446c79-e5f4-4b6c-b6d7-0244d99048a9" d="M462.09,429.61c2.43,12.93,9.48,28,22.86,46.07,11.07,12.94,20.57,20.61,31.22,31.76,19.54,20.45,41.71,46.15,57.65,84.53,15.42,37.13,23.63,83.85,15.13,121-7.23,31.6-20.6,59-42.12,57-40.1-3.66-46.05,29.72-36.82,40.81-5.32,9-4.46,16.84,0,24.11-2.32,20.3,25.29,37.76,44,30.25,21,11.26,43.91,10.74,60.51-2.84,27.26,9,55.71-39.28,30.25-53.42C632.24,802,629.34,789.64,631,777.28c0,0,12.68-64.29,13.71-90.76,1.77-45.46-13.46-100.6-39.24-131.89-11.94-14.5-34-34.07-61.17-52.77-38.23-26.3-52.73-33.51-70.15-72.24Z"/><path class="140de6dd-781b-48bf-9ed6-6d8c22ebeca4" d="M537.25,510.42h0a3.79,3.79,0,0,1,0-5.34h0c1.47-1.47,4.23,1.73,6.53,5.1h0c1.11,2.41,0,2.86-.73,3.63h0C541.59,514.87,538.72,511.89,537.25,510.42Z"/><path class="140de6dd-781b-48bf-9ed6-6d8c22ebeca4" d="M559.12,530.17,550,522.63a2.37,2.37,0,0,1-.31-3.32h0a3.86,3.86,0,0,1,4.38-.41l8.91,6.72c1.53,1.65.29,3.25-.54,4.25h0A2.37,2.37,0,0,1,559.12,530.17Z"/><path class="140de6dd-781b-48bf-9ed6-6d8c22ebeca4" d="M583.66,558.3l-9-12c-1-1.63-1.45-2.45-.62-3.61h0c.82-1.17,2.16-2.66,5.69.83l8.24,8.89a6.15,6.15,0,0,1,.22,6.43h0A2.85,2.85,0,0,1,583.66,558.3Z"/><path class="140de6dd-781b-48bf-9ed6-6d8c22ebeca4" d="M597.1,583.83l-3.21-11.21a3.26,3.26,0,0,1,1.61-4.3h0a3.26,3.26,0,0,1,4.3,1.61l3.54,7.79c1.79,3.76,2.81,9.31,1.18,10.05l-2.2,1C600.7,589.47,597.67,586.54,597.1,583.83Z"/><path class="140de6dd-781b-48bf-9ed6-6d8c22ebeca4" d="M611.74,596.07l-3-12.05a3.26,3.26,0,0,1,2.42-3.9h0c1.22-.59,3.49.68,3.9,2.42l3.59,14.21a3.26,3.26,0,0,1-2.42,3.9h0C614.45,601.06,612.34,598.94,611.74,596.07Z"/><path class="140de6dd-781b-48bf-9ed6-6d8c22ebeca4" d="M610.49,640.77l-4.22-18c-.37-1.58.37-4.22,2-4.59h0c2.09-.61,3.08-.25,3.75,1.42,2.29,6.42,3.7,9.37,4.94,17.81.29,2.38-.35,5-1.93,5.34L614,643A3,3,0,0,1,610.49,640.77Z"/><path class="140de6dd-781b-48bf-9ed6-6d8c22ebeca4" d="M626.19,656.62h0c-1.46,0-2.08-1.85-2.23-2.94l-1.14-14.25a3.11,3.11,0,0,1,3.37-3.62h0c1.46,0,2.66,1.1,2.66,3.45V654A2.43,2.43,0,0,1,626.19,656.62Z"/><path class="140de6dd-781b-48bf-9ed6-6d8c22ebeca4" d="M619.52,688.59h0c-2.35,0-4.55-1.9-4.21-6.5A121.85,121.85,0,0,1,617,663.43c.38-3,1.81-3,2.66-3h0c1.54,0,3.11.67,3.11,3.81l.43,16.45C623.23,683.7,622.81,688.59,619.52,688.59Z"/><path class="140de6dd-781b-48bf-9ed6-6d8c22ebeca4" d="M611.4,728.25h0c-2.39-.45-2.6-4.13-2.15-6.52l2.27-10.52c.45-2.39,1.35-4,3.74-3.51h0c2.42.46,4.14,4.14,3.58,6.5l-2.27,10.52C615.75,727.38,613.79,728.69,611.4,728.25Z"/><path class="140de6dd-781b-48bf-9ed6-6d8c22ebeca4" d="M621.28,746.75h0c-2.41,0-3.67-3.32-2.84-6.07l3.66-10.06c.67-2.29,2.32-3.59,4-3.15h0a3.11,3.11,0,0,1,2.2,3.79l-2.93,12.18C624.9,745.08,623.28,746.86,621.28,746.75Z"/><path class="140de6dd-781b-48bf-9ed6-6d8c22ebeca4" d="M600.51,778.37h0c-3.3-1.07-4.2-2.82-3.14-6.13L602.76,754c1.07-3.3,4.11-5.85,7.42-4.79h0c3.3,1.07,3.77,3.61,3.38,9.29a29.42,29.42,0,0,1-8.47,18.88,4.2,4.2,0,0,1-2.41,1.3A3.84,3.84,0,0,1,600.51,778.37Z"/><circle class="140de6dd-781b-48bf-9ed6-6d8c22ebeca4" cx="497.98" cy="837.54" r="17.29"/><circle class="140de6dd-781b-48bf-9ed6-6d8c22ebeca4" cx="699.57" cy="876.26" r="24.97"/><circle class="140de6dd-781b-48bf-9ed6-6d8c22ebeca4" cx="670.38" cy="918.07" r="11.63"/><circle class="62cc14be-93dc-4582-93e2-01cc59d472db" cx="551.18" cy="843.16" r="11.67"/><circle class="62cc14be-93dc-4582-93e2-01cc59d472db" cx="458.85" cy="879.67" r="7.81"/><path class="140de6dd-781b-48bf-9ed6-6d8c22ebeca4" d="M461.19,814.17l1.13,9.12a10.92,10.92,0,0,1-3.72-.18c-5.33-1.19-8.54-6.21-7.12-11.12a10.19,10.19,0,0,1,9.26-7Z"/><circle class="62cc14be-93dc-4582-93e2-01cc59d472db" cx="631.64" cy="801.33" r="16.99"/><path class="140de6dd-781b-48bf-9ed6-6d8c22ebeca4" d="M682,840.59l5-16a12.65,12.65,0,1,1-16,3.24Z"/><path class="11512de7-13dd-473e-8e3d-7ed0fb8ba759" d="M492.19,827.32c1.93-1.84,4.43-2.35,5.59-1.14s2.18,3.47-.55,6.1c-2.4,2.31-5.26,1.8-6.42.58S490.27,829.17,492.19,827.32Z"/><ellipse class="d8ee2bd1-4015-4317-8e51-d13ff56a7fe5" cx="710.57" cy="878.15" rx="7.76" ry="5.95" transform="translate(-416.81 807.02) rotate(-47.41)"/><path class="6bb7b2a5-c0d4-497d-8c00-a641feb80547" d="M673.56,916.26c-.38-.92-.56-1.88,0-2.35,1.05-.83,2.51.69,2.74,1.84s-.23,2.21-1,2.37S674.14,917.68,673.56,916.26Z"/><circle class="140de6dd-781b-48bf-9ed6-6d8c22ebeca4" cx="462.62" cy="812.72" r="10.93"/><circle class="aef7b6c7-81c7-431c-9966-1b95958cb171" cx="466.46" cy="814.15" r="3.84"/><circle class="140de6dd-781b-48bf-9ed6-6d8c22ebeca4" cx="593" cy="831.81" r="8.16"/><circle class="62cc14be-93dc-4582-93e2-01cc59d472db" cx="632.49" cy="798.66" r="15.15"/><circle class="140de6dd-781b-48bf-9ed6-6d8c22ebeca4" cx="680.58" cy="835.68" r="12.28"/><circle class="62cc14be-93dc-4582-93e2-01cc59d472db" cx="727.23" cy="827.69" r="12.28"/><circle class="140de6dd-781b-48bf-9ed6-6d8c22ebeca4" cx="728.69" cy="927.93" r="8.01"/><circle class="62cc14be-93dc-4582-93e2-01cc59d472db" cx="584.15" cy="884.31" r="7.47"/><ellipse class="43ebea0e-2288-41f0-b8a3-ca218b3f5b5a" cx="680.78" cy="830.17" rx="4.89" ry="5.3"/><ellipse class="24cfead2-687b-4fad-9412-681468e5a991" cx="596.42" cy="830.25" rx="2.52" ry="3.63" transform="translate(-204.59 195.11) rotate(-15.9)"/><g id="3a967375-ad4d-4d83-b420-a18079b537f7" data-name="monster"><path class="1e136387-3c4f-4e61-82ee-7c151d7c4f4d" d="M761.88,659.13c1.53-2.26,2.83-6.13,0-37.34-.41-4.54-.94-10.86,0-16.47,4.39-26.36,2.2-37.34,2.2-37.34s-11-62.59-49.42-76.87c-40.37-15-45,4.39-46.12,7.69-.24.72-2.4,13.82,5.49,27.45,12.08,20.86,49.14,75.4,49.42,75.77,4.71,6.37,27.22,34.44,34,54.91C759.69,663.52,761.27,660,761.88,659.13Z"/><path class="aa6be359-9421-4673-9b9a-289c198a5789" d="M783.25,564.65a1.44,1.44,0,0,1-.36-2.42c13.21-11,11.4-8.22-1.91-13.2a1.91,1.91,0,0,1-.95-2.8c8.53-13.77,9-8.37-6.58-10.32a.74.74,0,0,1-.59-1c4.17-10.35,7.07-8.7-8.27-8-2,.09-2.07-1-1.79-2.16,3.15-12.82,4.3-10.78-7.93-11-1.36,0-2,.23-1.62-1.21,2.76-12.34,4.25-11.59-8.9-10.83a3.06,3.06,0,0,1-2-.61c-4.62-3.49-26.15-19.34-38.73-21.07-7.61-1-12.1-.62-19.22-.1s-7.54,4.43-5.43,7.71c0,0,6.64,9.63,22,18.12a21.84,21.84,0,0,1,4.56,3.67c-1.41,1.17-5.6,2-18-3.89s-10.18,5.51-1.45,9.09c7.07,2.9,20.83,6.77,27,3.84q1.34,1.81,2.73,3.78c-1.88-.3-5.68-.93-7.75-1.37-2.82-.6-5.63,1.83-4.36,4.22s14.66,7.6,18.31,6.4c8.21,12.79,16.59,27.7,22.58,38.74-2.31-.89-6.91-2.79-8-4.23-1.41-1.94-6.33-7.56-6.33-7.56-4.11-3.94-9.29-.7-6.75,4.57,1.44,3,4.41,7.15,11.93,13.58,4.74,4,13.06,7,16.54,7.63l1.08,2.09s-5.5.71-7.17-1-5.22-6.78-7.89-4.53-2.39,7.6,3.24,11.54,18.23,12.9,30.57,7.22c5.13,18,7.92,36.58,3.7,51.65-.37,1.33,1.06,1.85,1.78.84,6-8.44,9.18-22.69,10.08-37.64L786,577.81C794.45,569.39,797.55,570.71,783.25,564.65Z"/><circle class="8013b3fa-963d-4b4f-8587-0ba6b97b5913" cx="704.45" cy="490.67" r="2.22"/><rect class="8013b3fa-963d-4b4f-8587-0ba6b97b5913" x="682.39" y="492.37" width="13.16" height="2.09" rx="0.68" ry="0.68" transform="translate(234.64 -221.93) rotate(21.97)"/><path class="1ddcf3e9-9942-4dc9-96db-de7a705dc82a" d="M727.93,491.16h-.05a3.74,3.74,0,0,0-3.5,3.78V495a4.7,4.7,0,0,0,1.46,3.41c10.44,10,72.81,73.68,49.74,152.73v0a1.5,1.5,0,0,0-.06.46c0,1,1.21,1.26,1.84.38,6-8.44,9.18-22.69,10.08-37.64L786,577.81c8.45-8.42,11.54-7.1-2.75-13.16a1.44,1.44,0,0,1-.36-2.43c13.21-11,11.39-8.22-1.91-13.19a1.91,1.91,0,0,1-.95-2.8c8.53-13.77,9-8.37-6.58-10.31a.74.74,0,0,1-.59-1c4.17-10.34,7.07-8.7-8.27-8-2,.09-2.07-1-1.79-2.16,3.15-12.82,4.3-10.78-7.93-11-1.36,0-2,.23-1.62-1.21,2.76-12.34,4.25-11.59-8.9-10.83a3.06,3.06,0,0,1-2-.61c-2.1-1.59-7.73-5.72-14.39-9.93Z"/></g><g id="7a2967ee-9637-4c2c-b654-d00f9ab48a5f" data-name="bird"><path class="aa6be359-9421-4673-9b9a-289c198a5789" d="M818.45,213.84c-.13-.26-.12-.67.14-.54a52.77,52.77,0,0,1,7.55,4.72c9.16,7.9,19.47,40.46,39,55.28,7,5.27,12,9.57,12,9.57s6.23,4.89,10,7.67,10.5,5.38,13,6.12c22.52,6.64,37.34,17.66,35.65,18.52,0,0-7-5.59-25.3-8.06a208.51,208.51,0,0,1-27.34-5.34,7.57,7.57,0,0,0-8.85,5.69c-1.81,7.28-11.21,39.65-12.08,43.36-2.43,10.4-4.12,16.05-5.1,17.94a.92.92,0,0,1-1.71-.22c-.6-2.5-1-8.3-2-15.83-1.28-9.73-6.76-38.51-8.23-42.49C843,304,843,301,836.09,296.16a16.62,16.62,0,0,0-4.23-2.35c-2.09-.8-5.33-1.88-7.65-2.66-6.37-2.13-19.52-8.2-20.69-8.85a9,9,0,0,0-3.29-1.31c-1.89-.35-3.77.2-4.77-.82-.78-.79-.75-3.31,3.88-2.41a6,6,0,0,0,5.05-.91,16.5,16.5,0,0,1,3.71-1.71c2.56-.68,6.95-.76,14.92,1.95a11.19,11.19,0,0,0,3.28.64,5.49,5.49,0,0,0,5.51-4.62,22.9,22.9,0,0,0,.48-7.87c-.48-4.1-2-9.78-2.46-14.39a48.55,48.55,0,0,0-2.14-9.47c-.72-2.52-.68-7.46-3.1-14.18A129,129,0,0,0,818.45,213.84Z"/><path class="d81e8ff4-0f20-4825-a14c-55bfc70cd785" d="M836.74,274.63c6.42-.7,20.58,4.25,35,9,1.33.44,2.53-1.54.53-2.92-20.32-14.88-33.43-34.33-43.84-58.95-1-1.89-3.32.22-2.9,1.58,6,19.56,10.74,40.11,10.26,50.45A.85.85,0,0,0,836.74,274.63Z"/><ellipse class="89395b22-a6af-4beb-82ac-32cdf11eed13" cx="814.6" cy="283.33" rx="1.21" ry="2.2" transform="translate(325.89 993.97) rotate(-74.66)"/><path class="085ae487-401d-47a0-83e3-20dfb5fb6e67" d="M849.86,308.2c-.28-1.88.5-2.1,1.7-1.78,6.63,3.26,12.25,3.08,17.15.48,1.91-.81,2.65-.32,2.42,1.24-2.32,11.93-8.19,30.54-14,49.08,0,.1-.18.09.21.81Z"/></g></g></svg>