<svg id="daed8420-b2b6-49ba-aaaf-6d369311eb1d" data-name="圖層 1" xmlns="http://www.w3.org/2000/svg" viewBox="0 0 992.13 992.13"><defs><style>.\32 ca7d38a-9459-4c4c-b914-1ceb4b2b9b9c{fill:#fbe0df;}.d5b3df80-50b2-4041-bf07-f1fba9957ec7{fill:#fdeeed;}.\37 c33a595-0cf2-45bd-a719-214edde8bef1,.e9763742-ab74-4ce7-a469-e14bece5494b{fill:#eeeb5d;}.\37 55c89c5-29c0-4dc9-b2d9-e4183a1b6d80{fill:#db3b2a;}.\36 9468589-65f9-4577-a836-65cc11e5416d{fill:#e57b10;}.\37 c33a595-0cf2-45bd-a719-214edde8bef1{opacity:0.18;}.df3f56bf-e7ae-48c5-ac08-a322dde8bbcc{fill:#f8c9c9;}.cb98a53b-7595-424a-af88-9b1065a68562{fill:#c9d2c1;}.\30 1777535-77cc-4612-a8b7-4ce8e8fd189d{fill:#b8c0af;}.\39 20bde73-6bd9-4251-a4fa-9f2096af4f46{fill:#b5b5b6;}.a31de985-c0b6-422e-9ee0-ce352f188ea5{fill:#fff;}.bff77aa7-d41d-4523-b541-b76395e9c9aa{fill:#d71718;}.ddde3ed0-41c5-4387-8634-ea75a48d0d60{fill:#b21e23;}.\33 3f4bf3c-de0a-4fe3-90e1-62bd52c854f8,.\33 79a1b85-3721-4712-8bcc-782a8517a8e5,.\33 91441af-56c4-4baf-9013-c90128e25c6e,.\33 b5c6d09-9e68-431c-9456-df9257b77803,.f7e83592-67be-4be7-8f39-aafde9132678{fill:none;}.\33 3f4bf3c-de0a-4fe3-90e1-62bd52c854f8,.\33 79a1b85-3721-4712-8bcc-782a8517a8e5,.\33 91441af-56c4-4baf-9013-c90128e25c6e{stroke:#fff;}.\33 3f4bf3c-de0a-4fe3-90e1-62bd52c854f8,.\33 79a1b85-3721-4712-8bcc-782a8517a8e5,.\33 91441af-56c4-4baf-9013-c90128e25c6e,.f7e83592-67be-4be7-8f39-aafde9132678{stroke-linecap:round;stroke-linejoin:round;}.\33 3f4bf3c-de0a-4fe3-90e1-62bd52c854f8{stroke-width:3.9px;}.dda9c624-46a3-4b14-9db8-feceb524d144{fill:#efea3c;}.\33 82a7087-e06a-4817-9079-15239c9b56a7{fill:#f7f9f9;}.\36 35d1100-d811-432b-8e50-81d26a026ca5{fill:#f0efef;}.e9ce7fa6-db4d-4f13-9763-99c6c49f27a1{fill:#da9c7c;}.\33 8ba1155-eea6-4f0f-a1fe-fa0563bce6f5{fill:#ccb790;}.\36 5a55664-8f43-42ab-aac5-4b8a9f94db55{fill:#7baf8c;}.a7a2915f-95dc-474d-9029-bf2d16d113a1{fill:#72917c;}.eba7c9e6-a8a9-4bf2-a32b-09fe10668b7a{fill:#df5f11;}.b5a3f960-dbd4-4235-b3f0-4de76a5046ab{fill:#6b2d3b;opacity:0.23;}.\33 79a1b85-3721-4712-8bcc-782a8517a8e5{stroke-width:7.15px;}.\33 91441af-56c4-4baf-9013-c90128e25c6e{stroke-width:6.66px;}.\34 e5aa8c4-a570-47d1-a20e-686db2767a77{fill:#f9cba3;}.\33 7bb9487-9e9d-477b-a17c-adc9cbd48b8e{fill:#fadada;}.\37 d7b2569-2670-4de3-915b-088a94bbaf76{fill:#796a56;}.\38 8576b69-f298-4c53-8cc2-04e57083f5b3{fill:#9fa0a0;}.c382c9df-ff24-423b-b3bc-0dcab613ce5f{fill:#8d8d8d;}.bcd4b062-443a-4562-b4fe-853db7c99e01{fill:#dcdddd;}.\36 a28c6ae-c51b-478a-8901-0e7293fea940{fill:#d3d3d3;}.f7e83592-67be-4be7-8f39-aafde9132678{stroke:#f0efef;stroke-width:0;}.\37 65b0513-f24f-4f42-be57-a55e8b6b3ab8{fill:#b81c25;}.\30 8874763-3084-4c33-8a0b-4312d9b16c1e{fill:#a61e2c;}.c9b050c5-33c6-4d98-ac31-76098ed1445b{fill:#e8e329;}</style></defs><title>stars</title><g id="0c14e651-0036-4d35-bfcc-a8b7f221d715" data-name="planet_sweet"><g id="bcd15b27-fef0-47f7-8d2d-8be8943ff357" data-name="light1"><path class="2ca7d38a-9459-4c4c-b914-1ceb4b2b9b9c" d="M143.52,704.34h-15a3.06,3.06,0,0,1-3.06-3.06h0a3.06,3.06,0,0,1,3.06-3.06h-1.12a6,6,0,0,0,6-5.16,5.89,5.89,0,0,0-5.83-6.59H52.81a6,6,0,0,0-6,5.16,5.89,5.89,0,0,0,5.83,6.59H68.88a3.06,3.06,0,0,1,3.06,3.06h0a3.06,3.06,0,0,1-3.06,3.06H36a5.89,5.89,0,0,0-5.87,5.87h0A5.89,5.89,0,0,0,36,716.08H61.51a3,3,0,0,1,3,3h0a3,3,0,0,1-3,3h-.16a6,6,0,0,0-6,5.16,5.89,5.89,0,0,0,5.83,6.59h66.25a6,6,0,0,0,6-5.16,5.89,5.89,0,0,0-5.83-6.59h-6.17a3,3,0,0,1-3-3h0a3,3,0,0,1,3-3h22.1a5.89,5.89,0,0,0,5.87-5.87h0A5.89,5.89,0,0,0,143.52,704.34Z"/><circle class="d5b3df80-50b2-4041-bf07-f1fba9957ec7" cx="126.94" cy="727.82" r="4.25"/><circle class="d5b3df80-50b2-4041-bf07-f1fba9957ec7" cx="36.69" cy="710.19" r="4.25"/><circle class="d5b3df80-50b2-4041-bf07-f1fba9957ec7" cx="143.09" cy="710.19" r="4.25"/><circle class="d5b3df80-50b2-4041-bf07-f1fba9957ec7" cx="62.18" cy="727.82" r="4.25"/><path class="e9763742-ab74-4ce7-a469-e14bece5494b" d="M90.34,632.45a27.43,27.43,0,0,0-18,47.41A45.87,45.87,0,0,1,81,690.74l.12.22h19.91l.12-.22a45.07,45.07,0,0,1,8.63-10.81,27.43,27.43,0,0,0-19.5-47.47Z"/><rect class="755c89c5-29c0-4dc9-b2d9-e4183a1b6d80" x="81.05" y="690.74" width="20.3" height="10.78"/><rect class="69468589-65f9-4577-a836-65cc11e5416d" x="81.05" y="653.03" width="4.32" height="14.63" rx="2.12" ry="2.12"/><rect class="69468589-65f9-4577-a836-65cc11e5416d" x="88.97" y="653.03" width="4.32" height="14.63" rx="2.12" ry="2.12"/><rect class="69468589-65f9-4577-a836-65cc11e5416d" x="96.88" y="653.03" width="4.32" height="14.63" rx="2.12" ry="2.12"/><circle class="7c33a595-0cf2-45bd-a719-214edde8bef1" cx="91.13" cy="667.58" r="56.89"/></g><g id="cef16cbe-0ae1-4998-bcd3-03b18fad43b4" data-name="light2"><path class="2ca7d38a-9459-4c4c-b914-1ceb4b2b9b9c" d="M955.13,397.05h-15a3.06,3.06,0,0,1-3.06-3.06h0a3.06,3.06,0,0,1,3.06-3.06H939a6,6,0,0,0,6-5.16,5.89,5.89,0,0,0-5.83-6.59H864.42a6,6,0,0,0-6,5.16,5.89,5.89,0,0,0,5.83,6.59h16.22a3.06,3.06,0,0,1,3.06,3.06h0a3.06,3.06,0,0,1-3.06,3.06H847.65a5.89,5.89,0,0,0-5.87,5.87h0a5.89,5.89,0,0,0,5.87,5.87h25.47a3,3,0,0,1,3,3h0a3,3,0,0,1-3,3H873a6,6,0,0,0-6,5.16,5.89,5.89,0,0,0,5.83,6.59H939a6,6,0,0,0,6-5.16,5.89,5.89,0,0,0-5.83-6.59H933a3,3,0,0,1-3-3h0a3,3,0,0,1,3-3h22.1a5.89,5.89,0,0,0,5.87-5.87h0A5.89,5.89,0,0,0,955.13,397.05Z"/><circle class="d5b3df80-50b2-4041-bf07-f1fba9957ec7" cx="938.55" cy="420.53" r="4.25"/><circle class="d5b3df80-50b2-4041-bf07-f1fba9957ec7" cx="848.3" cy="402.9" r="4.25"/><circle class="d5b3df80-50b2-4041-bf07-f1fba9957ec7" cx="954.7" cy="402.9" r="4.25"/><circle class="d5b3df80-50b2-4041-bf07-f1fba9957ec7" cx="873.79" cy="420.53" r="4.25"/><path class="e9763742-ab74-4ce7-a469-e14bece5494b" d="M901.95,325.16a27.43,27.43,0,0,0-18,47.41,45.87,45.87,0,0,1,8.7,10.88l.12.22h19.91l.12-.22a45.07,45.07,0,0,1,8.63-10.81,27.43,27.43,0,0,0-19.5-47.47Z"/><rect class="755c89c5-29c0-4dc9-b2d9-e4183a1b6d80" x="892.66" y="383.45" width="20.3" height="10.78"/><rect class="69468589-65f9-4577-a836-65cc11e5416d" x="892.66" y="345.74" width="4.32" height="14.63" rx="2.12" ry="2.12"/><rect class="69468589-65f9-4577-a836-65cc11e5416d" x="900.58" y="345.74" width="4.32" height="14.63" rx="2.12" ry="2.12"/><rect class="69468589-65f9-4577-a836-65cc11e5416d" x="908.5" y="345.74" width="4.32" height="14.63" rx="2.12" ry="2.12"/><circle class="7c33a595-0cf2-45bd-a719-214edde8bef1" cx="902.74" cy="360.29" r="56.89"/></g><g id="8b10eaad-52ad-4e2b-946e-c3f91b06dfe2" data-name="hand1b"><path class="df3f56bf-e7ae-48c5-ac08-a322dde8bbcc" d="M781.17,453.15H712.4v26.7h51.29a13.81,13.81,0,0,1,13.77,13.77,13.67,13.67,0,0,1-.14,1.85h53.38A50.32,50.32,0,0,0,781.17,453.15Z"/></g><path id="68b29214-f30a-4785-bc4a-fb075493a343" data-name="hand2b" class="df3f56bf-e7ae-48c5-ac08-a322dde8bbcc" d="M225.24,527.19H294v26.7H242.73A13.81,13.81,0,0,0,229,567.66a13.67,13.67,0,0,0,.14,1.85H175.72A50.32,50.32,0,0,1,225.24,527.19Z"/><path id="30f0ddc5-f1f3-438c-8dce-ff899819ba06" data-name="hand3b" class="df3f56bf-e7ae-48c5-ac08-a322dde8bbcc" d="M795,666.89a50.44,50.44,0,0,0-33.08-39.69c-1.14-.33-2.31-.64-3.49-.93l-5.27-8.37c-3.62,3.49-6.26,5.84-7,6.51h-.52l-9.63,0-59.15-.21-.09,26.7,51.29.18a13.67,13.67,0,0,1,13.58,15.67Z"/><ellipse class="2ca7d38a-9459-4c4c-b914-1ceb4b2b9b9c" cx="509.27" cy="376.03" rx="157.51" ry="77.4"/><path class="d5b3df80-50b2-4041-bf07-f1fba9957ec7" d="M509.27,298.63c87,0,157.51,34.65,157.51,77.4h55.69c-13.54-17.88-33.3-36.86-62.15-53.77-33.9-23-88.92-37.88-151.06-37.88-64.82,0-121.92,16.25-155.35,40.91h0c-24.65,17.72-42,34.86-54.09,50.75h51.92C351.75,333.29,422.27,298.63,509.27,298.63Z"/><path class="cb98a53b-7595-424a-af88-9b1065a68562" d="M664.67,389.32c-18.82-21.22-80.36-36.78-153.39-36.78-76.5,0-140.4,17.08-155.78,39.85,14.88,34,75.13,59.66,148.06,61q3.29,0,6.62.06C587.64,453.26,651.89,425.63,664.67,389.32Z"/><ellipse class="01777535-77cc-4612-a8b7-4ce8e8fd189d" cx="547.42" cy="447.92" rx="14.41" ry="4.48"/><ellipse class="01777535-77cc-4612-a8b7-4ce8e8fd189d" cx="484.8" cy="414.17" rx="14.41" ry="4.48"/><path class="d5b3df80-50b2-4041-bf07-f1fba9957ec7" d="M666.78,376a39.22,39.22,0,0,1-1.23,9.69l2.66-9.69Z"/><path class="920bde73-6bd9-4251-a4fa-9f2096af4f46" d="M448.58,311.86v44.89c0,6.54,18.67,11.85,41.71,11.85S532,363.29,532,356.75V311.86Z"/><ellipse class="a31de985-c0b6-422e-9ee0-ce352f188ea5" cx="490.29" cy="312.46" rx="41.71" ry="11.85"/><circle class="bff77aa7-d41d-4523-b541-b76395e9c9aa" cx="489.86" cy="271.55" r="33.13"/><path class="bff77aa7-d41d-4523-b541-b76395e9c9aa" d="M456.73,271.55H523a0,0,0,0,1,0,0V293.3a23.23,23.23,0,0,1-23.23,23.23H480a23.23,23.23,0,0,1-23.23-23.23V271.55A0,0,0,0,1,456.73,271.55Z"/><path class="bff77aa7-d41d-4523-b541-b76395e9c9aa" d="M501.1,309H476.29c-6.34,0-15.07-7.59-19.45-11.5a22.07,22.07,0,0,0,21.86,19h22.13a22.07,22.07,0,0,0,22.07-22.07V279C522.89,292.71,514.77,309,501.1,309Z"/><circle class="ddde3ed0-41c5-4387-8634-ea75a48d0d60" cx="489.86" cy="271.34" r="17.73"/><path class="33f4bf3c-de0a-4fe3-90e1-62bd52c854f8" d="M476.29,248.44S465,254.11,463.7,266.86"/><circle class="a31de985-c0b6-422e-9ee0-ce352f188ea5" cx="463.51" cy="272.57" r="2.22"/><g id="c3111d4e-115d-49d4-b5d1-874e556b247f" data-name="house2"><polygon class="dda9c624-46a3-4b14-9db8-feceb524d144" points="487.01 360.19 487.01 407.15 536.68 435.78 536.68 388.31 487.01 360.19"/><polygon class="e9763742-ab74-4ce7-a469-e14bece5494b" points="536.68 435.78 600.61 411.66 604.58 355.16 536.68 355.16 536.68 435.78"/><polygon class="382a7087-e06a-4817-9079-15239c9b56a7" points="520.39 325.5 555.89 313.5 583 328.09 547.47 340.69 520.39 325.5"/><polygon class="a31de985-c0b6-422e-9ee0-ce352f188ea5" points="547.47 340.69 583 328.09 610.45 342.87 573.56 355.34 547.47 340.69"/><polygon class="a31de985-c0b6-422e-9ee0-ce352f188ea5" points="510.6 353.76 482.13 338.44 520.39 325.5 547.47 340.69 510.6 353.76"/><polygon class="382a7087-e06a-4817-9079-15239c9b56a7" points="573.56 355.34 536.68 367.81 510.6 353.76 547.47 340.69 573.56 355.34"/><polygon class="382a7087-e06a-4817-9079-15239c9b56a7" points="610.45 342.87 606.44 363.36 571.26 376.34 573.56 355.34 610.45 342.87"/><polygon class="a31de985-c0b6-422e-9ee0-ce352f188ea5" points="573.56 355.34 571.26 376.34 536.68 388.31 536.68 367.81 573.56 355.34"/><polygon class="382a7087-e06a-4817-9079-15239c9b56a7" points="482.13 338.44 510.6 353.76 511.51 374.36 484.7 359.49 482.13 338.44"/><polygon class="635d1100-d811-432b-8e50-81d26a026ca5" points="536.68 367.81 536.68 388.31 511.51 374.36 510.6 353.76 536.68 367.81"/><path class="a31de985-c0b6-422e-9ee0-ce352f188ea5" d="M525.91,429.58V409.15a8.68,8.68,0,0,0-4.55-7.31l-3.65-2.19c-1.95-1.17-4.71,0-4.71,1.91v20.59Z"/><polygon class="635d1100-d811-432b-8e50-81d26a026ca5" points="513 422.13 525.91 416.39 525.91 429.58 513 422.13"/></g><path class="e9ce7fa6-db4d-4f13-9763-99c6c49f27a1" d="M484.62,390.47v24.77c4.58,0,8.29-2,8.29-4.48V390.47Z"/><path class="38ba1155-eea6-4f0f-a1fe-fa0563bce6f5" d="M476.33,390.47v20.29c0,2.47,3.71,4.48,8.29,4.48V390.47Z"/><path class="65a55664-8f43-42ab-aac5-4b8a9f94db55" d="M473.94,377.2h1.24l-4,4.56a3.71,3.71,0,0,0,2.78,6.16h1.24l-4,4.56a3.71,3.71,0,0,0,2.78,6.16h10.68V355.76L471.16,371A3.71,3.71,0,0,0,473.94,377.2Z"/><path class="a7a2915f-95dc-474d-9029-bf2d16d113a1" d="M494.06,377.2h1.24a3.71,3.71,0,0,0,2.78-6.16l-13.46-15.28v42.87H495.3a3.71,3.71,0,0,0,2.78-6.16l-4-4.56h1.24a3.71,3.71,0,0,0,2.78-6.16Z"/><g id="ff127cfb-19fe-45a4-be88-e033b470f9fc" data-name="house1"><polygon class="dda9c624-46a3-4b14-9db8-feceb524d144" points="481.43 387.21 481.43 434.17 431.77 462.8 431.77 415.33 481.43 387.21"/><polygon class="e9763742-ab74-4ce7-a469-e14bece5494b" points="431.77 462.8 367.84 438.68 363.86 382.18 431.77 382.18 431.77 462.8"/><polygon class="382a7087-e06a-4817-9079-15239c9b56a7" points="448.05 352.52 412.56 340.52 385.45 355.11 420.98 367.71 448.05 352.52"/><polygon class="a31de985-c0b6-422e-9ee0-ce352f188ea5" points="420.98 367.71 385.45 355.11 358 369.89 394.88 382.36 420.98 367.71"/><polygon class="a31de985-c0b6-422e-9ee0-ce352f188ea5" points="457.85 380.79 486.32 365.46 448.05 352.52 420.98 367.71 457.85 380.79"/><polygon class="382a7087-e06a-4817-9079-15239c9b56a7" points="394.88 382.36 431.77 394.83 457.85 380.79 420.98 367.71 394.88 382.36"/><polygon class="382a7087-e06a-4817-9079-15239c9b56a7" points="358 369.89 362.01 390.38 397.19 403.36 394.88 382.36 358 369.89"/><polygon class="a31de985-c0b6-422e-9ee0-ce352f188ea5" points="394.88 382.36 397.19 403.36 431.77 415.33 431.77 394.83 394.88 382.36"/><polygon class="382a7087-e06a-4817-9079-15239c9b56a7" points="486.32 365.46 457.85 380.79 456.94 401.38 483.75 386.51 486.32 365.46"/><polygon class="635d1100-d811-432b-8e50-81d26a026ca5" points="431.77 394.83 431.77 415.33 456.94 401.38 457.85 380.79 431.77 394.83"/><path class="a31de985-c0b6-422e-9ee0-ce352f188ea5" d="M442.54,456.6V436.17a8.68,8.68,0,0,1,4.55-7.31l3.65-2.19c1.95-1.17,4.71,0,4.71,1.91v20.59Z"/><polygon class="635d1100-d811-432b-8e50-81d26a026ca5" points="455.44 445.99 442.54 440.24 442.54 453.43 455.44 445.99"/></g><path class="e9ce7fa6-db4d-4f13-9763-99c6c49f27a1" d="M367.5,389.92v36.15c4.52,0,8.18-2.93,8.18-6.53V389.92Z"/><path class="38ba1155-eea6-4f0f-a1fe-fa0563bce6f5" d="M359.32,389.92v29.62c0,3.61,3.66,6.53,8.18,6.53V389.92Z"/><path class="65a55664-8f43-42ab-aac5-4b8a9f94db55" d="M357,376.83h1.22l-4,4.5a3.66,3.66,0,0,0,2.75,6.08h1.22l-4,4.5A3.66,3.66,0,0,0,357,398H367.5V355.67l-13.28,15.08A3.66,3.66,0,0,0,357,376.83Z"/><path class="a7a2915f-95dc-474d-9029-bf2d16d113a1" d="M376.81,376.83H378a3.66,3.66,0,0,0,2.75-6.08L367.5,355.67V398H378a3.66,3.66,0,0,0,2.75-6.08l-4-4.5H378a3.66,3.66,0,0,0,2.75-6.08Z"/><path class="920bde73-6bd9-4251-a4fa-9f2096af4f46" d="M668.35,319a13.19,13.19,0,0,0-9-8.2l-34.48-8.15c-7.54-1.78-15.47,4.24-17.63,13.39l-21.45,90.79c-2.36,10,2.45,19.75,10.68,21.7l33.22,7.85c7.54,1.78,15.47-4.24,17.63-13.39l21.81-92.32A19.23,19.23,0,0,0,668.35,319Z"/><path class="382a7087-e06a-4817-9079-15239c9b56a7" d="M624.42,303.69l34.63,8.18a13.3,13.3,0,0,1,9,8.16l8.75-5.43a14.19,14.19,0,0,0-9.2-7.48l-40.44-9.55c-8.27-2-16.95,4.55-19.29,14.45l-1.16,4.9C608.9,307.85,616.85,301.9,624.42,303.69Z"/><path class="635d1100-d811-432b-8e50-81d26a026ca5" d="M676.84,314.6,668.09,320a18.9,18.9,0,0,1,.83,11.58L647.3,423.14c-2.14,9.07-10.09,15-17.66,13.23l7.07,1.67c8.27,2,16.95-4.55,19.29-14.45l22.42-94.92A20.34,20.34,0,0,0,676.84,314.6Z"/><path class="eba7c9e6-a8a9-4bf2-a32b-09fe10668b7a" d="M626.7,318.85a2.61,2.61,0,0,0-1.94-2.82l-7.2-1.85a2.62,2.62,0,0,0-3.18,1.88l-1.85,7.2a2.61,2.61,0,0,0,1.17,2.86,2.56,2.56,0,0,0,.72.32l7.2,1.85a2.62,2.62,0,0,0,3.18-1.88l1.85-7.2A2.56,2.56,0,0,0,626.7,318.85Z"/><path class="eba7c9e6-a8a9-4bf2-a32b-09fe10668b7a" d="M625.48,316.35a2.56,2.56,0,0,1-.05.36l-1.85,7.2a2.62,2.62,0,0,1-3.18,1.88l-7.2-1.85a2.56,2.56,0,0,1-.72-.32,2.61,2.61,0,0,0,1.94,2.82l7.2,1.85a2.62,2.62,0,0,0,3.18-1.88l1.85-7.2A2.61,2.61,0,0,0,625.48,316.35Z"/><path class="69468589-65f9-4577-a836-65cc11e5416d" d="M625.43,318.27a2.33,2.33,0,0,0-1.72-2.51l-6.41-1.65a2.33,2.33,0,0,0-2.83,1.68l-1.65,6.41a2.33,2.33,0,0,0,1,2.55,2.28,2.28,0,0,0,.64.28l6.41,1.65a2.33,2.33,0,0,0,2.83-1.68l1.65-6.41A2.28,2.28,0,0,0,625.43,318.27Z"/><path class="eba7c9e6-a8a9-4bf2-a32b-09fe10668b7a" d="M644.16,323.4a2.61,2.61,0,0,0-1.94-2.82l-7.2-1.85a2.62,2.62,0,0,0-3.18,1.88l-1.85,7.2a2.61,2.61,0,0,0,1.17,2.86,2.56,2.56,0,0,0,.72.32l7.2,1.85a2.62,2.62,0,0,0,3.18-1.88l1.85-7.2A2.56,2.56,0,0,0,644.16,323.4Z"/><path class="eba7c9e6-a8a9-4bf2-a32b-09fe10668b7a" d="M642.95,320.9a2.56,2.56,0,0,1-.05.36l-1.85,7.2a2.62,2.62,0,0,1-3.18,1.88l-7.2-1.85a2.56,2.56,0,0,1-.72-.32,2.61,2.61,0,0,0,1.94,2.82l7.2,1.85a2.62,2.62,0,0,0,3.18-1.88l1.85-7.2A2.61,2.61,0,0,0,642.95,320.9Z"/><path class="69468589-65f9-4577-a836-65cc11e5416d" d="M642.89,322.82a2.33,2.33,0,0,0-1.72-2.51l-6.41-1.65a2.33,2.33,0,0,0-2.83,1.68l-1.65,6.41a2.33,2.33,0,0,0,1,2.55,2.28,2.28,0,0,0,.64.28l6.41,1.65a2.33,2.33,0,0,0,2.83-1.68l1.65-6.41A2.28,2.28,0,0,0,642.89,322.82Z"/><path class="eba7c9e6-a8a9-4bf2-a32b-09fe10668b7a" d="M662.33,327.58a2.61,2.61,0,0,0-1.94-2.82l-7.2-1.85a2.62,2.62,0,0,0-3.18,1.88l-1.85,7.2a2.61,2.61,0,0,0,1.17,2.86,2.56,2.56,0,0,0,.72.32l7.2,1.85a2.62,2.62,0,0,0,3.18-1.88l1.85-7.2A2.56,2.56,0,0,0,662.33,327.58Z"/><path class="eba7c9e6-a8a9-4bf2-a32b-09fe10668b7a" d="M661.11,325.08a2.56,2.56,0,0,1-.05.36l-1.85,7.2a2.62,2.62,0,0,1-3.18,1.88l-7.2-1.85a2.56,2.56,0,0,1-.72-.32,2.61,2.61,0,0,0,1.94,2.82l7.2,1.85a2.62,2.62,0,0,0,3.18-1.88l1.85-7.2A2.61,2.61,0,0,0,661.11,325.08Z"/><path class="69468589-65f9-4577-a836-65cc11e5416d" d="M661.06,327a2.33,2.33,0,0,0-1.72-2.51l-6.41-1.65a2.33,2.33,0,0,0-2.83,1.68l-1.65,6.41a2.33,2.33,0,0,0,1,2.55,2.28,2.28,0,0,0,.64.28l6.41,1.65a2.33,2.33,0,0,0,2.83-1.68l1.65-6.41A2.28,2.28,0,0,0,661.06,327Z"/><path class="eba7c9e6-a8a9-4bf2-a32b-09fe10668b7a" d="M622.73,335.38a2.61,2.61,0,0,0-1.94-2.82l-7.2-1.85a2.62,2.62,0,0,0-3.18,1.88l-1.85,7.2a2.61,2.61,0,0,0,1.17,2.86,2.56,2.56,0,0,0,.72.32l7.2,1.85a2.62,2.62,0,0,0,3.18-1.88l1.85-7.2A2.56,2.56,0,0,0,622.73,335.38Z"/><path class="eba7c9e6-a8a9-4bf2-a32b-09fe10668b7a" d="M621.51,332.88a2.56,2.56,0,0,1-.05.36l-1.85,7.2a2.62,2.62,0,0,1-3.18,1.88l-7.2-1.85a2.56,2.56,0,0,1-.72-.32,2.61,2.61,0,0,0,1.94,2.82l7.2,1.85a2.62,2.62,0,0,0,3.18-1.88l1.85-7.2A2.61,2.61,0,0,0,621.51,332.88Z"/><path class="69468589-65f9-4577-a836-65cc11e5416d" d="M621.45,334.8a2.33,2.33,0,0,0-1.72-2.51l-6.41-1.65a2.33,2.33,0,0,0-2.83,1.68l-1.65,6.41a2.33,2.33,0,0,0,1,2.55,2.28,2.28,0,0,0,.64.28l6.41,1.65a2.33,2.33,0,0,0,2.83-1.68l1.65-6.41A2.28,2.28,0,0,0,621.45,334.8Z"/><path class="eba7c9e6-a8a9-4bf2-a32b-09fe10668b7a" d="M640.19,339.94a2.61,2.61,0,0,0-1.94-2.82l-7.2-1.85a2.62,2.62,0,0,0-3.18,1.88l-1.85,7.2a2.61,2.61,0,0,0,1.17,2.86,2.56,2.56,0,0,0,.72.32l7.2,1.85a2.62,2.62,0,0,0,3.18-1.88l1.85-7.2A2.56,2.56,0,0,0,640.19,339.94Z"/><path class="eba7c9e6-a8a9-4bf2-a32b-09fe10668b7a" d="M639,337.43a2.56,2.56,0,0,1-.05.36l-1.85,7.2a2.62,2.62,0,0,1-3.18,1.88l-7.2-1.85a2.56,2.56,0,0,1-.72-.32,2.61,2.61,0,0,0,1.94,2.82l7.2,1.85a2.62,2.62,0,0,0,3.18-1.88l1.85-7.2A2.61,2.61,0,0,0,639,337.43Z"/><path class="69468589-65f9-4577-a836-65cc11e5416d" d="M638.92,339.35a2.33,2.33,0,0,0-1.72-2.51l-6.41-1.65a2.33,2.33,0,0,0-2.83,1.68l-1.65,6.41a2.33,2.33,0,0,0,1,2.55,2.28,2.28,0,0,0,.64.28l6.41,1.65a2.33,2.33,0,0,0,2.83-1.68l1.65-6.41A2.28,2.28,0,0,0,638.92,339.35Z"/><path class="eba7c9e6-a8a9-4bf2-a32b-09fe10668b7a" d="M658.36,344.11a2.61,2.61,0,0,0-1.94-2.82l-7.2-1.85a2.62,2.62,0,0,0-3.18,1.88l-1.85,7.2a2.61,2.61,0,0,0,1.17,2.86,2.56,2.56,0,0,0,.72.32l7.2,1.85a2.62,2.62,0,0,0,3.18-1.88l1.85-7.2A2.56,2.56,0,0,0,658.36,344.11Z"/><path class="eba7c9e6-a8a9-4bf2-a32b-09fe10668b7a" d="M657.14,341.61a2.56,2.56,0,0,1-.05.36l-1.85,7.2a2.62,2.62,0,0,1-3.18,1.88l-7.2-1.85a2.56,2.56,0,0,1-.72-.32,2.61,2.61,0,0,0,1.94,2.82l7.2,1.85a2.62,2.62,0,0,0,3.18-1.88l1.85-7.2A2.61,2.61,0,0,0,657.14,341.61Z"/><path class="69468589-65f9-4577-a836-65cc11e5416d" d="M657.08,343.53a2.33,2.33,0,0,0-1.72-2.51l-6.41-1.65a2.33,2.33,0,0,0-2.83,1.68l-1.65,6.41a2.33,2.33,0,0,0,1,2.55,2.28,2.28,0,0,0,.64.28l6.41,1.65a2.33,2.33,0,0,0,2.83-1.68l1.65-6.41A2.28,2.28,0,0,0,657.08,343.53Z"/><path class="eba7c9e6-a8a9-4bf2-a32b-09fe10668b7a" d="M618.67,352.75a2.61,2.61,0,0,0-1.94-2.82l-7.2-1.85a2.62,2.62,0,0,0-3.18,1.88l-1.85,7.2a2.61,2.61,0,0,0,1.17,2.86,2.56,2.56,0,0,0,.72.32l7.2,1.85a2.62,2.62,0,0,0,3.18-1.88l1.85-7.2A2.56,2.56,0,0,0,618.67,352.75Z"/><path class="eba7c9e6-a8a9-4bf2-a32b-09fe10668b7a" d="M617.45,350.25a2.56,2.56,0,0,1-.05.36l-1.85,7.2a2.62,2.62,0,0,1-3.18,1.88l-7.2-1.85a2.56,2.56,0,0,1-.72-.32,2.61,2.61,0,0,0,1.94,2.82l7.2,1.85a2.62,2.62,0,0,0,3.18-1.88l1.85-7.2A2.61,2.61,0,0,0,617.45,350.25Z"/><path class="69468589-65f9-4577-a836-65cc11e5416d" d="M617.39,352.17a2.33,2.33,0,0,0-1.72-2.51L609.25,348a2.33,2.33,0,0,0-2.83,1.68l-1.65,6.41a2.33,2.33,0,0,0,1,2.55,2.28,2.28,0,0,0,.64.28l6.41,1.65a2.33,2.33,0,0,0,2.83-1.68l1.65-6.41A2.28,2.28,0,0,0,617.39,352.17Z"/><path class="eba7c9e6-a8a9-4bf2-a32b-09fe10668b7a" d="M636.13,357.3a2.61,2.61,0,0,0-1.94-2.82l-7.2-1.85a2.62,2.62,0,0,0-3.18,1.88l-1.85,7.2a2.61,2.61,0,0,0,1.17,2.86,2.56,2.56,0,0,0,.72.32l7.2,1.85a2.62,2.62,0,0,0,3.18-1.88l1.85-7.2A2.56,2.56,0,0,0,636.13,357.3Z"/><path class="eba7c9e6-a8a9-4bf2-a32b-09fe10668b7a" d="M634.91,354.8a2.56,2.56,0,0,1-.05.36l-1.85,7.2a2.62,2.62,0,0,1-3.18,1.88l-7.2-1.85a2.56,2.56,0,0,1-.72-.32,2.61,2.61,0,0,0,1.94,2.82l7.2,1.85a2.62,2.62,0,0,0,3.18-1.88l1.85-7.2A2.61,2.61,0,0,0,634.91,354.8Z"/><path class="69468589-65f9-4577-a836-65cc11e5416d" d="M634.86,356.72a2.33,2.33,0,0,0-1.72-2.51l-6.41-1.65a2.33,2.33,0,0,0-2.83,1.68l-1.65,6.41a2.33,2.33,0,0,0,1,2.55,2.28,2.28,0,0,0,.64.28l6.41,1.65a2.33,2.33,0,0,0,2.83-1.68l1.65-6.41A2.28,2.28,0,0,0,634.86,356.72Z"/><path class="eba7c9e6-a8a9-4bf2-a32b-09fe10668b7a" d="M654.3,361.48a2.61,2.61,0,0,0-1.94-2.82l-7.2-1.85a2.62,2.62,0,0,0-3.18,1.88l-1.85,7.2a2.61,2.61,0,0,0,1.17,2.86,2.56,2.56,0,0,0,.72.32l7.2,1.85a2.62,2.62,0,0,0,3.18-1.88l1.85-7.2A2.56,2.56,0,0,0,654.3,361.48Z"/><path class="eba7c9e6-a8a9-4bf2-a32b-09fe10668b7a" d="M653.08,359a2.56,2.56,0,0,1-.05.36l-1.85,7.2a2.62,2.62,0,0,1-3.18,1.88l-7.2-1.85a2.56,2.56,0,0,1-.72-.32,2.61,2.61,0,0,0,1.94,2.82l7.2,1.85a2.62,2.62,0,0,0,3.18-1.88l1.85-7.2A2.61,2.61,0,0,0,653.08,359Z"/><path class="69468589-65f9-4577-a836-65cc11e5416d" d="M653,360.9a2.33,2.33,0,0,0-1.72-2.51l-6.41-1.65a2.33,2.33,0,0,0-2.83,1.68l-1.65,6.41a2.33,2.33,0,0,0,1,2.55,2.28,2.28,0,0,0,.64.28l6.41,1.65a2.33,2.33,0,0,0,2.83-1.68l1.65-6.41A2.28,2.28,0,0,0,653,360.9Z"/><path class="eba7c9e6-a8a9-4bf2-a32b-09fe10668b7a" d="M614.74,369.78A2.61,2.61,0,0,0,612.8,367l-7.2-1.85a2.62,2.62,0,0,0-3.18,1.88l-1.85,7.2a2.61,2.61,0,0,0,1.17,2.86,2.56,2.56,0,0,0,.72.32l7.2,1.85a2.62,2.62,0,0,0,3.18-1.88l1.85-7.2A2.56,2.56,0,0,0,614.74,369.78Z"/><path class="eba7c9e6-a8a9-4bf2-a32b-09fe10668b7a" d="M613.52,367.28a2.56,2.56,0,0,1-.05.36l-1.85,7.2a2.62,2.62,0,0,1-3.18,1.88l-7.2-1.85a2.56,2.56,0,0,1-.72-.32,2.61,2.61,0,0,0,1.94,2.82l7.2,1.85a2.62,2.62,0,0,0,3.18-1.88l1.85-7.2A2.61,2.61,0,0,0,613.52,367.28Z"/><path class="69468589-65f9-4577-a836-65cc11e5416d" d="M613.46,369.2a2.33,2.33,0,0,0-1.72-2.51L605.32,365a2.33,2.33,0,0,0-2.83,1.68l-1.65,6.41a2.33,2.33,0,0,0,1,2.55,2.28,2.28,0,0,0,.64.28l6.41,1.65a2.33,2.33,0,0,0,2.83-1.68l1.65-6.41A2.28,2.28,0,0,0,613.46,369.2Z"/><path class="eba7c9e6-a8a9-4bf2-a32b-09fe10668b7a" d="M632.2,374.33a2.61,2.61,0,0,0-1.94-2.82l-7.2-1.85a2.62,2.62,0,0,0-3.18,1.88l-1.85,7.2a2.61,2.61,0,0,0,1.17,2.86,2.56,2.56,0,0,0,.72.32l7.2,1.85a2.62,2.62,0,0,0,3.18-1.88l1.85-7.2A2.56,2.56,0,0,0,632.2,374.33Z"/><path class="eba7c9e6-a8a9-4bf2-a32b-09fe10668b7a" d="M631,371.83a2.56,2.56,0,0,1-.05.36l-1.85,7.2a2.62,2.62,0,0,1-3.18,1.88l-7.2-1.85a2.56,2.56,0,0,1-.72-.32,2.61,2.61,0,0,0,1.94,2.82l7.2,1.85a2.62,2.62,0,0,0,3.18-1.88l1.85-7.2A2.61,2.61,0,0,0,631,371.83Z"/><path class="69468589-65f9-4577-a836-65cc11e5416d" d="M630.92,373.75a2.33,2.33,0,0,0-1.72-2.51l-6.41-1.65a2.33,2.33,0,0,0-2.83,1.68l-1.65,6.41a2.33,2.33,0,0,0,1,2.55,2.28,2.28,0,0,0,.64.28l6.41,1.65a2.33,2.33,0,0,0,2.83-1.68l1.65-6.41A2.28,2.28,0,0,0,630.92,373.75Z"/><path class="eba7c9e6-a8a9-4bf2-a32b-09fe10668b7a" d="M650.36,378.51a2.61,2.61,0,0,0-1.94-2.82l-7.2-1.85a2.62,2.62,0,0,0-3.18,1.88l-1.85,7.2a2.61,2.61,0,0,0,1.17,2.86,2.56,2.56,0,0,0,.72.32l7.2,1.85a2.62,2.62,0,0,0,3.18-1.88l1.85-7.2A2.56,2.56,0,0,0,650.36,378.51Z"/><path class="eba7c9e6-a8a9-4bf2-a32b-09fe10668b7a" d="M649.14,376a2.56,2.56,0,0,1-.05.36l-1.85,7.2a2.62,2.62,0,0,1-3.18,1.88l-7.2-1.85a2.56,2.56,0,0,1-.72-.32,2.61,2.61,0,0,0,1.94,2.82l7.2,1.85a2.62,2.62,0,0,0,3.18-1.88l1.85-7.2A2.61,2.61,0,0,0,649.14,376Z"/><path class="69468589-65f9-4577-a836-65cc11e5416d" d="M649.09,377.93a2.33,2.33,0,0,0-1.72-2.51L641,373.77a2.33,2.33,0,0,0-2.83,1.68l-1.65,6.41a2.33,2.33,0,0,0,1,2.55,2.28,2.28,0,0,0,.64.28l6.41,1.65a2.33,2.33,0,0,0,2.83-1.68l1.65-6.41A2.28,2.28,0,0,0,649.09,377.93Z"/><circle class="bff77aa7-d41d-4523-b541-b76395e9c9aa" cx="662.36" cy="302.34" r="7.22" transform="matrix(0.92, -0.38, 0.38, 0.92, -65.27, 276.05)"/><path class="b5a3f960-dbd4-4235-b3f0-4de76a5046ab" d="M655.59,304.9a7,7,0,0,0,9.53,4.11,7.21,7.21,0,0,0,3.91-9.43c-.08-.2-.17-.39-.27-.57a6.92,6.92,0,0,1-4.88,6.63C660.08,307.07,655.59,304.9,655.59,304.9Z"/><path class="e9ce7fa6-db4d-4f13-9763-99c6c49f27a1" d="M547.47,424.55v25.63c4.74,0,8.57-2.07,8.57-4.63v-21Z"/><path class="38ba1155-eea6-4f0f-a1fe-fa0563bce6f5" d="M538.89,424.55v21c0,2.56,3.84,4.63,8.57,4.63V424.55Z"/><path class="65a55664-8f43-42ab-aac5-4b8a9f94db55" d="M536.42,410.82h1.28l-4.16,4.72a3.84,3.84,0,0,0,2.88,6.37h1.28l-4.16,4.72a3.84,3.84,0,0,0,2.88,6.37h11V388.64l-13.93,15.81A3.84,3.84,0,0,0,536.42,410.82Z"/><path class="a7a2915f-95dc-474d-9029-bf2d16d113a1" d="M557.24,410.82h1.28a3.84,3.84,0,0,0,2.88-6.37l-13.93-15.81V433h11a3.84,3.84,0,0,0,2.88-6.37l-4.16-4.72h1.28a3.84,3.84,0,0,0,2.88-6.37Z"/><path class="d5b3df80-50b2-4041-bf07-f1fba9957ec7" d="M758,481c-.7-.82-1.4-1.63-2.12-2.42a22.31,22.31,0,0,1-5.29-10.41,23.43,23.43,0,0,1-.07-9.3h0c0-.07,0-.15,0-.22a71.26,71.26,0,0,0,1.26-13.37,53.2,53.2,0,0,0-4.56-21.91A156.08,156.08,0,0,0,722.47,376H668.21l-2.66,9.69c-.07.29-.16.57-.24.86-10.47,37.76-76.34,66.85-156.05,66.85-87,0-157.51-34.65-157.51-77.4H299.83c-29,38.06-27.93,68.85-25.21,82.77v0a20.23,20.23,0,0,1-6,15.23q-1.74,1.69-3.39,3.46a101.61,101.61,0,0,0,15.22,151.89,20.88,20.88,0,0,1,6.44,7.44,19.7,19.7,0,0,1,2.19,9.36q0,1.06,0,2.12h0c0,1.58,0,3.16.11,4.73,0,1.16.1,2.32.18,3.47q.4,5.68,1.32,11.2s0,.09,0,.14c0,68.17,97.88,123.44,218.62,123.44s218.62-55.26,218.62-123.44c0-1.22,0-2.43-.1-3.64.4-2.91.67-5.85.84-8.82,0-.29,0-.58.05-.87.11-2.06.18-4.12.18-6.21h0q0-.23,0-.45a20.72,20.72,0,0,1,7.69-16.16c.46-.37.92-.73,1.41-1.06,1-.68,2-1.39,3-2.11A101.53,101.53,0,0,0,758,481Z"/><path class="3b5c6d09-9e68-431c-9456-df9257b77803" d="M487.61,453.43c87,0,157.51-34.65,157.51-77.4h-315C330.09,418.78,400.61,453.43,487.61,453.43Z"/><path class="3b5c6d09-9e68-431c-9456-df9257b77803" d="M509.27,298.63c-87,0-157.51,34.65-157.51,77.4h315C666.78,333.29,596.26,298.63,509.27,298.63Z"/><path class="379a1b85-3721-4712-8bcc-782a8517a8e5" d="M259.3,535.5s-14,25.95,11.44,48.77"/><path class="391441af-56c4-4baf-9013-c90128e25c6e" d="M311.75,401.57s-21.36,22-12.69,48.41"/><path class="2ca7d38a-9459-4c4c-b914-1ceb4b2b9b9c" d="M697.93,675c2.63-1.45,5.3-3.14,8-5Z"/><path class="2ca7d38a-9459-4c4c-b914-1ceb4b2b9b9c" d="M731.46,637.81c-11.85.39-33.53,37.23-33.53,37.23l8-5c-2.69,1.83-5.35,3.51-8,5-25.78,52-110.27,90.07-210.53,90.07-79.16,0-148.08-24.06-186.44-59.64,27.61,50.31,110.25,87.16,208.43,87.16q15.32,0,30.62-1.2,14.79-1.17,29.46-3.52,14-2.26,27.85-5.67,13.13-3.26,26-7.66c8.06-2.78,16-5.93,23.76-9.48a220.52,220.52,0,0,0,21.28-11.14,178.58,178.58,0,0,0,18.51-12.64,140.92,140.92,0,0,0,15.45-14,110.18,110.18,0,0,0,12.09-15.13,88,88,0,0,0,8.44-16.14,75,75,0,0,0,4.51-17,111.63,111.63,0,0,0,.89-11.24c.1-2.69.34-5.38.46-8.07a34,34,0,0,0,.08-3.87v0l.07,0C728.81,640.59,731.46,637.81,731.46,637.81Z"/><path class="2ca7d38a-9459-4c4c-b914-1ceb4b2b9b9c" d="M298.35,506.32c33.1,19,74.18,27.87,96,31.53a.55.55,0,0,0,.21-1.08c-88.48-21.49-116.37-70.94-119.93-78v0a20.23,20.23,0,0,1-6,15.23q-1.74,1.69-3.39,3.46C266.07,482.74,272.89,491.73,298.35,506.32Z"/><path class="2ca7d38a-9459-4c4c-b914-1ceb4b2b9b9c" d="M434.59,670.13c.3,0,.24-.51-.07-.52-99.83-3.06-165.8-51.4-165.8-51.4l.48,1.89a102.09,102.09,0,0,0,11.23,9.32,20.88,20.88,0,0,1,6.44,7.44,19.7,19.7,0,0,1,2.19,9.36q0,1.06,0,2.12h0c0,1.58,0,3.16.11,4.73a171.39,171.39,0,0,0,24.39,5.85C352.48,665.81,399.42,674.56,434.59,670.13Z"/><path class="2ca7d38a-9459-4c4c-b914-1ceb4b2b9b9c" d="M582.69,668.3c46.13,4.59,89.21,2.94,127.2-8.54,13.17-4,11.86-3.72,18.91-6.1,0-.29-.12,1.19-.11.9.11-2.06.18-4.12.18-6.21h0q0-.23,0-.45a20.72,20.72,0,0,1,7.69-16.16c.46-.37.92-.73,1.41-1.06,1-.68,2-1.39,3-2.11-25,10.34-79.88,35.68-158.06,38.64C582.15,667.24,582,668.23,582.69,668.3Z"/><path class="2ca7d38a-9459-4c4c-b914-1ceb4b2b9b9c" d="M630,536.76a.55.55,0,0,0,.21,1.08c21.81-3.66,62.88-12.57,96-31.53,20.55-11.77,29-19.89,31.89-25.33-.7-.82-1.4-1.63-2.12-2.42a22.31,22.31,0,0,1-5.29-10.41,23.43,23.43,0,0,1-.07-9.3h0c0-.07,0-.15,0-.22l-.3-.66S725.3,513.61,630,536.76Z"/><path class="d5b3df80-50b2-4041-bf07-f1fba9957ec7" d="M665.32,386.58c.08-.29.16-.57.24-.86Z"/><path class="d5b3df80-50b2-4041-bf07-f1fba9957ec7" d="M668.92,373.46l-.71,2.57h.13C668.7,374.48,668.92,373.46,668.92,373.46Z"/><path class="4e5aa8c4-a570-47d1-a20e-686db2767a77" d="M749.43,568h0Z"/><path class="df3f56bf-e7ae-48c5-ac08-a322dde8bbcc" d="M750,624.56a89.94,89.94,0,0,1,11.84,2.55A49.57,49.57,0,0,0,750,624.56Z"/><path class="df3f56bf-e7ae-48c5-ac08-a322dde8bbcc" d="M761.88,627.1c17.25,6,21.9,21.35,24.82,39.79.4,1.72,9,3.28,9,5.07v.93c0,22.63-26.64,41.26-59.76,42.28v0c36.94,0,66.89-20.52,66.89-45.84C802.85,650.36,785.95,634,761.88,627.1Z"/><rect class="df3f56bf-e7ae-48c5-ac08-a322dde8bbcc" x="211.52" y="527.31" width="27.31" height="9.45"/><rect class="df3f56bf-e7ae-48c5-ac08-a322dde8bbcc" x="211.52" y="599.27" width="27.31" height="9.45"/><g id="cca72528-a889-4070-8fc0-a3cdf1073947" data-name="hand3f"><path class="df3f56bf-e7ae-48c5-ac08-a322dde8bbcc" d="M802.85,666.38c0-25.1-21.72-45.77-49.65-48.48v97C781.12,712.15,802.85,691.48,802.85,666.38Z"/><path class="df3f56bf-e7ae-48c5-ac08-a322dde8bbcc" d="M728.1,674.74H447.23c-3.73,0-7.07,1.78-7.64,4.27-.72,3.14,2.9,5.87,7.41,5.87h73.07c2,0,3.83,1,3.93,2.38s-1.6,2.65-3.72,2.65H484.33c-3.73,0-7.07,1.78-7.64,4.27-.72,3.14,2.9,5.87,7.41,5.87h54c2,0,3.83,1,3.93,2.38s-1.6,2.65-3.72,2.65H469.63c-3.73,0-7.07,1.78-7.64,4.27-.72,3.14,2.9,5.87,7.41,5.87h263.7c1,0,1.91,0,2.86,0V673A18.44,18.44,0,0,1,728.1,674.74Z"/><path class="df3f56bf-e7ae-48c5-ac08-a322dde8bbcc" d="M795.72,672.89V672a23.11,23.11,0,0,0-.62-5.28H741.73c-.53,2.63-2.7,4.91-5.77,6.37v42.12C769.09,714.15,795.72,695.52,795.72,672.89Z"/><path class="37bb9487-9e9d-477b-a17c-adc9cbd48b8e" d="M769.78,632.76v63.93c12.38,0,22.41-14.31,22.41-32S782.16,632.76,769.78,632.76Z"/></g><g id="cc786be4-d3c6-4118-9aec-02f95bd7eb2c" data-name="hand2f"><path class="df3f56bf-e7ae-48c5-ac08-a322dde8bbcc" d="M425.24,597H390.95c-3.29,0-6-1.77-6-4h0c0-2.19,2.67-4,6-4h10.94c4.38,0,8.29-2,9-4.92.85-3.62-3.4-6.77-8.69-6.77H242.73c-6.94,0-12.72-3.46-13.63-7.91H175.72a22.32,22.32,0,0,0-.62,5.19v.91c0,22.87,34.58,33.1,69,33.1H425.24c4.84,0,8.8-2.63,8.8-5.84h0C434,599.66,430.08,597,425.24,597Z"/><path class="df3f56bf-e7ae-48c5-ac08-a322dde8bbcc" d="M162.12,568c0,21.54,21.8,39.17,49.4,40.65v-81.3C183.92,528.79,162.12,546.42,162.12,568Z"/><path class="37bb9487-9e9d-477b-a17c-adc9cbd48b8e" d="M191.32,542.1v51.7c-11.3,0-20.45-11.57-20.45-25.85S180,542.1,191.32,542.1Z"/></g><g id="7f68cc9f-0363-4a32-990c-4984bbf19917" data-name="hand1f"><path class="df3f56bf-e7ae-48c5-ac08-a322dde8bbcc" d="M777.31,495.48c-.91,4.94-6.69,8.78-13.63,8.78H554.2c-3.73,0-7.07,1.94-7.64,4.65-.72,3.42,2.9,6.39,7.41,6.39h1.69c2,0,3.83,1.11,3.93,2.6s-1.6,2.89-3.72,2.89H519.91c-3.73,0-7.07,1.94-7.64,4.65-.72,3.42,2.9,6.39,7.41,6.39h54c2,0,3.83,1.11,3.93,2.6s-1.6,2.89-3.72,2.89H558.65c-3.73,0-7.07,1.94-7.64,4.65-.72,3.42,2.9,6.39,7.41,6.39H768.68c34.44,0,62.63-20.75,62.63-46.11v-1a27.33,27.33,0,0,0-.62-5.75Z"/><path class="df3f56bf-e7ae-48c5-ac08-a322dde8bbcc" d="M779.47,453.15v94.29c34.2,0,61.93-21.11,61.93-47.15S813.67,453.15,779.47,453.15Z"/><path class="37bb9487-9e9d-477b-a17c-adc9cbd48b8e" d="M810.44,468.33v63.93c12.38,0,22.41-14.31,22.41-32S822.81,468.33,810.44,468.33Z"/></g><polygon class="df3f56bf-e7ae-48c5-ac08-a322dde8bbcc" points="753.19 714.86 740.92 715.22 754.08 696.59 753.19 714.86"/><g id="bc92bcd3-c6e5-4969-b529-9acda18bd75a" data-name="car"><path class="7d7b2569-2670-4de3-915b-088a94bbaf76" d="M460.45,673c0,7.06-2.4,12.79-8.63,12.79-10.38,0-13.94-5.73-13.94-12.79s5.05-12.79,11.28-12.79S460.45,665.91,460.45,673Z"/><ellipse class="88576b69-f298-4c53-8cc2-04e57083f5b3" cx="452.95" cy="672.97" rx="10.91" ry="12.79"/><path class="c382c9df-ff24-423b-b3bc-0dcab613ce5f" d="M457.61,664.72a11.83,11.83,0,0,1,1,4.67c0,5.75-4,10.42-8.89,10.42a7.9,7.9,0,0,1-4.62-1.53c1.46,3.4,4.46,5.75,7.94,5.75,4.91,0,8.89-4.66,8.89-10.42A10.88,10.88,0,0,0,457.61,664.72Z"/><ellipse class="a31de985-c0b6-422e-9ee0-ce352f188ea5" cx="452.95" cy="672.97" rx="4.68" ry="5.49"/><polygon class="bcd4b062-443a-4562-b4fe-853db7c99e01" points="553.23 611.3 493.47 611.3 487.67 611.3 449.17 611.3 445.05 619.26 561.37 619.26 553.23 611.3"/><polygon class="6a28c6ae-c51b-478a-8901-0e7293fea940" points="561.37 619.26 553.23 611.3 549.42 611.3 554.53 616.3 446.58 616.3 445.05 619.26 561.37 619.26"/><path class="755c89c5-29c0-4dc9-b2d9-e4183a1b6d80" d="M561.37,619.26H445l-4.43,26.48h47.06v6.48l77.76,1.53,4.08-21.52a11.91,11.91,0,0,0-3.58-8.52Z"/><path class="755c89c5-29c0-4dc9-b2d9-e4183a1b6d80" d="M560.59,675.58H445V648.47l112.25-2.73A8.33,8.33,0,0,1,564.92,657Z"/><line class="f7e83592-67be-4be7-8f39-aafde9132678" x1="543.26" y1="603.8" x2="551.67" y2="611.3"/><polygon class="755c89c5-29c0-4dc9-b2d9-e4183a1b6d80" points="430.12 656.91 437.2 675.58 491.08 675.58 472.67 659.04 430.12 656.91"/><rect class="755c89c5-29c0-4dc9-b2d9-e4183a1b6d80" x="448.46" y="607.55" width="44.33" height="7.73" rx="3.8" ry="3.8"/><path class="765b0513-f24f-4f42-be57-a55e8b6b3ab8" d="M441.3,645.74l-11.17,11.17a2.84,2.84,0,0,0,2,4.86h40.68a9.39,9.39,0,0,0,7.07-3.21l8.79-10.05a1.67,1.67,0,0,0-1.26-2.77Z"/><path class="08874763-3084-4c33-8a0b-4312d9b16c1e" d="M487.41,645.5H483l-7.05,8.07a9.39,9.39,0,0,1-7.07,3.21H430a2.84,2.84,0,0,0,2.1,4.75h40.68a9.39,9.39,0,0,0,7.07-3.21l8.79-10.05A1.67,1.67,0,0,0,487.41,645.5Z"/><rect class="765b0513-f24f-4f42-be57-a55e8b6b3ab8" x="451.38" y="609.38" width="38.68" height="4.07" rx="2" ry="2"/><path class="765b0513-f24f-4f42-be57-a55e8b6b3ab8" d="M491.4,672.67h67.92l4.33-18.62c.07-.18.11-.36.16-.54C551.67,671.65,499.69,672.63,491.4,672.67Z"/><path class="7d7b2569-2670-4de3-915b-088a94bbaf76" d="M513.65,673c0,7.06-2.4,12.79-8.63,12.79-10.38,0-13.94-5.73-13.94-12.79s5.05-12.79,11.28-12.79S513.65,665.91,513.65,673Z"/><path class="7d7b2569-2670-4de3-915b-088a94bbaf76" d="M550.3,673c0,7.06-2.4,12.79-8.63,12.79-10.38,0-13.94-5.73-13.94-12.79s5.05-12.79,11.28-12.79S550.3,665.91,550.3,673Z"/><ellipse class="88576b69-f298-4c53-8cc2-04e57083f5b3" cx="507.28" cy="672.97" rx="10.91" ry="12.79"/><path class="c382c9df-ff24-423b-b3bc-0dcab613ce5f" d="M512,664.72a11.83,11.83,0,0,1,1,4.67c0,5.75-4,10.42-8.89,10.42a7.9,7.9,0,0,1-4.62-1.53c1.46,3.4,4.46,5.75,7.94,5.75,4.91,0,8.89-4.66,8.89-10.42A10.88,10.88,0,0,0,512,664.72Z"/><ellipse class="88576b69-f298-4c53-8cc2-04e57083f5b3" cx="543.26" cy="672.97" rx="10.91" ry="12.79"/><ellipse class="a31de985-c0b6-422e-9ee0-ce352f188ea5" cx="507.89" cy="672.97" rx="4.68" ry="5.49"/><path class="c382c9df-ff24-423b-b3bc-0dcab613ce5f" d="M547.84,664.72a11.83,11.83,0,0,1,1,4.67c0,5.75-4,10.42-8.89,10.42a7.9,7.9,0,0,1-4.62-1.53c1.46,3.4,4.46,5.75,7.94,5.75,4.91,0,8.89-4.66,8.89-10.42A10.88,10.88,0,0,0,547.84,664.72Z"/><ellipse class="a31de985-c0b6-422e-9ee0-ce352f188ea5" cx="543.7" cy="672.97" rx="4.68" ry="5.49"/><path class="e9763742-ab74-4ce7-a469-e14bece5494b" d="M480.24,623.26H454.91a8.84,8.84,0,0,0-8.84,8.84l-2.73,11.71h35.06l4.09-20.25A8.83,8.83,0,0,0,480.24,623.26Z"/><path class="c9b050c5-33c6-4d98-ac31-76098ed1445b" d="M489.08,632.1a8.84,8.84,0,0,0-6.59-8.54l-4.09,20.25h7.95Z"/><path class="e9763742-ab74-4ce7-a469-e14bece5494b" d="M503.36,623.26a8.21,8.21,0,0,0-8.18,8.18v4.19a8.21,8.21,0,0,0,8.18,8.18H510V623.26Z"/><path class="c9b050c5-33c6-4d98-ac31-76098ed1445b" d="M510,623.26v20.55a8.21,8.21,0,0,0,8.18-8.18v-4.19A8.21,8.21,0,0,0,510,623.26Z"/><path class="e9763742-ab74-4ce7-a469-e14bece5494b" d="M532,623.26a8.21,8.21,0,0,0-8.18,8.18v4.19a8.21,8.21,0,0,0,8.18,8.18h6.65V623.26Z"/><path class="c9b050c5-33c6-4d98-ac31-76098ed1445b" d="M538.61,623.26v20.55a8.21,8.21,0,0,0,8.18-8.18v-4.19A8.21,8.21,0,0,0,538.61,623.26Z"/></g></g></svg>