<svg id="3f4c5776-5f64-4784-a158-9f4f472a6c3b" data-name="圖層 1" xmlns="http://www.w3.org/2000/svg" viewBox="0 0 992.13 992.13"><defs><style>.\32 eca5b7b-9d82-4598-812d-e42831db1c66{fill:#f0efef;}.\31 922672b-51c9-4b99-b3b2-5a7ddb4e98ad{fill:#a9977d;}.\38 cdc8972-c3d3-4ae1-8a0c-da317d1fab1f{fill:#b5a386;}.\32 366c1af-db6b-48b4-8f53-e953e6b9f739{fill:#c6b596;}.\31 9469105-acd7-433f-aa4f-6ef46ca1d533{fill:#d1bfa4;}.b811ca58-da7a-4a1a-bcf8-c0bf92cd57dd{fill:#9a8973;}.ae63f3d6-681c-430e-85aa-9fbe934a540c{fill:#9083bd;}.c5713eaa-561e-4c74-b3dd-21658ed4992d{fill:#8677b5;}.\35 6e477c9-917f-451b-8c72-0968b5985a86{fill:#61306e;}.e1cd4634-a13d-4123-8f8d-576a1d688857{fill:#3b1417;}.\31 7f611eb-bba9-47d2-828e-d9d0dca824f2,.\33 e139d26-b131-4664-b055-cb1600c3af6d,.\36 4fe8aa9-5e9f-4fcc-8d36-52607a975090,.\39 6d985ff-83da-45c8-878b-91fc88a5d113,.e945fc88-dbac-4d8f-b749-2275d1e9f0a5{fill:none;}.ac6bccdb-1d11-41bc-898d-8d334bd8382d{fill:#dfdfe1;}.\37 7feea8f-2b90-466f-9d6c-ca3a57e660b9{fill:#785426;}.\31 3da343e-f205-41ec-9d1f-190c25ab66b1{fill:#6b4921;}.f5c334ab-7c0f-452e-9440-61a4671439e0{fill:#231815;}.\30 a8cfcf0-0968-4c96-b172-be2e9e18aa63,.e121bf33-5a3e-40c1-843e-676ede5df38d{fill:#fff;}.\30 a8cfcf0-0968-4c96-b172-be2e9e18aa63{opacity:0.71;}.\33 e139d26-b131-4664-b055-cb1600c3af6d,.\39 6d985ff-83da-45c8-878b-91fc88a5d113{stroke:#fff;}.\31 7f611eb-bba9-47d2-828e-d9d0dca824f2,.\33 e139d26-b131-4664-b055-cb1600c3af6d,.\36 4fe8aa9-5e9f-4fcc-8d36-52607a975090,.\39 6d985ff-83da-45c8-878b-91fc88a5d113{stroke-linecap:round;}.\31 7f611eb-bba9-47d2-828e-d9d0dca824f2,.\39 6d985ff-83da-45c8-878b-91fc88a5d113{stroke-miterlimit:10;}.\39 6d985ff-83da-45c8-878b-91fc88a5d113{stroke-width:4.71px;}.c6725378-bcdf-4090-8041-26e32515d650{fill:#0e0a09;}.f90ded38-c1f2-46ab-b690-f43fca51b94e{fill:#609a7b;}.\31 f34595f-de18-4c76-b17d-3f2b476b170b{fill:#5c9274;}.f488e9dd-3597-4c34-8333-4bcf370a507a{fill:#498165;}.a9b9e0a9-f2fd-45ce-b64f-bb9c45b4ba26{fill:#40755a;}.\38 ae13a37-7519-4678-b8c7-36f3b58c49f9{fill:#205036;}.c7f7869b-12e2-4af9-892a-109635a8e1e3{fill:#1d482f;}.\31 7f611eb-bba9-47d2-828e-d9d0dca824f2{stroke:#595857;stroke-width:3px;}.\30 b529b02-0390-4a6a-86be-e58b6c32c044{fill:#f4f4f5;}.\32 f7f83c1-509c-4702-81f3-d5da79463a9a{fill:#2d0e13;}.\39 5f19f20-d584-4bad-bac2-b3d426588b30{fill:#582a67;}.\39 b219d00-d7dd-4138-b9df-acf3c7b3f530{fill:#704c23;}.fbba29a4-ce4a-4fc7-be31-85e3bb5151cc{fill:#1c1211;}.\30 34a118b-857c-4fae-a3c8-2e2e70b81b0f{fill:#e9f6fc;opacity:0.84;}.\36 4fe8aa9-5e9f-4fcc-8d36-52607a975090{stroke:#c6b596;stroke-width:5px;}.\33 e139d26-b131-4664-b055-cb1600c3af6d,.\36 4fe8aa9-5e9f-4fcc-8d36-52607a975090{stroke-linejoin:round;}.\31 add673f-43e1-4eae-98ff-574ce9deea53{fill:#3e3a39;}.\32 7b3b5ba-5591-4433-8b68-6277af19a609{fill:#183f28;}.\33 e139d26-b131-4664-b055-cb1600c3af6d{stroke-width:1.76px;}</style></defs><title>stars</title><g id="21c6a2c4-a2e7-4e00-8a9e-a67d7ca9b3d8" data-name="planet_car"><path class="2eca5b7b-9d82-4598-812d-e42831db1c66" d="M770.75,456.09h-98c-43.36-16.73-110.24-27.45-185.28-27.45-82,0-154.24,12.8-196.71,32.25H222.8a13.62,13.62,0,0,0-13.29,12.3c-.95,8.46,5.25,15.71,12.95,15.71h17.18c6.27,0,11.18,5.54,11.15,12.27v.13c0,40.13,106,72.66,236.68,72.66s236.68-32.53,236.68-72.66q0-.45,0-.9c-.35-8.93,6.46-16.3,14.78-16.3H771.1c7.7,0,13.89-7.26,12.95-15.71A13.62,13.62,0,0,0,770.75,456.09Z"/><rect class="2eca5b7b-9d82-4598-812d-e42831db1c66" x="58.94" y="570.4" width="107.41" height="28.25" rx="14.13" ry="14.13"/><circle class="2eca5b7b-9d82-4598-812d-e42831db1c66" cx="34.62" cy="584.52" r="13.83"/><path class="2eca5b7b-9d82-4598-812d-e42831db1c66" d="M265.64,469.89s.42,21.56,33.78,52.58l-22.28-4.8-23.5-25.09Z"/><g id="3934e593-5ff2-49b1-b1ef-8a2cf7ffd376" data-name="planet"><polygon class="1922672b-51c9-4b99-b3b2-5a7ddb4e98ad" points="393.78 451.05 465.47 428.89 514.5 478.71 479.33 610.08 377.19 525.72 393.78 451.05"/><polygon class="8cdc8972-c3d3-4ae1-8a0c-da317d1fab1f" points="502.42 320.77 599.36 396.68 587.27 464.96 514.5 478.71 465.47 428.89 502.42 320.77"/><polygon class="2366c1af-db6b-48b4-8f53-e953e6b9f739" points="350.13 408.52 393.78 451.05 465.47 428.89 502.42 320.77 382.07 349.13 350.13 408.52"/><polygon class="8cdc8972-c3d3-4ae1-8a0c-da317d1fab1f" points="350.13 408.52 393.78 451.05 377.19 525.72 322.96 549.35 261.99 466.68 350.13 408.52"/><polygon class="2366c1af-db6b-48b4-8f53-e953e6b9f739" points="603.87 592.96 631.94 524.15 587.27 464.96 514.5 478.71 479.33 610.08 603.87 592.96"/><polygon class="2366c1af-db6b-48b4-8f53-e953e6b9f739" points="327.53 616.61 322.96 549.35 377.19 525.72 479.33 610.08 385.81 663.71 327.53 616.61"/><polygon class="1922672b-51c9-4b99-b3b2-5a7ddb4e98ad" points="521.12 700.05 479.33 610.08 385.81 663.71 406.04 709.18 473.77 728.84 521.12 700.05"/><polygon class="8cdc8972-c3d3-4ae1-8a0c-da317d1fab1f" points="588.38 695.49 521.12 700.05 479.33 610.08 603.87 592.96 633.32 639.83 588.38 695.49"/><polygon class="1922672b-51c9-4b99-b3b2-5a7ddb4e98ad" points="684.73 619.32 633.32 639.83 603.87 592.96 631.94 524.15 719.13 500.79 684.73 619.32"/><polygon class="19469105-acd7-433f-aa4f-6ef46ca1d533" points="656.36 397.63 719.13 500.79 631.94 524.15 587.27 464.96 599.36 396.68 656.36 397.63"/><polygon class="2366c1af-db6b-48b4-8f53-e953e6b9f739" points="592.79 311.44 502.42 320.77 599.36 396.68 656.36 397.63 649.32 350.62 592.79 311.44"/><polygon class="8cdc8972-c3d3-4ae1-8a0c-da317d1fab1f" points="502.42 320.77 466.48 280.32 401.46 294.91 359.69 325.72 382.07 349.13 502.42 320.77"/><polygon class="2366c1af-db6b-48b4-8f53-e953e6b9f739" points="496.85 747.64 473.77 728.84 521.12 700.05 588.38 695.49 601.34 721.38 496.85 747.64"/><polygon class="19469105-acd7-433f-aa4f-6ef46ca1d533" points="687.46 648.01 684.73 619.32 633.32 639.83 588.38 695.49 601.34 721.38 687.46 648.01"/><polygon class="2366c1af-db6b-48b4-8f53-e953e6b9f739" points="719.13 500.79 730.63 545.54 709.97 616.06 687.46 648.01 684.73 619.32 719.13 500.79"/><polygon class="8cdc8972-c3d3-4ae1-8a0c-da317d1fab1f" points="649.32 350.62 683.15 364.57 715.62 424.56 719.13 500.79 656.36 397.63 649.32 350.62"/><polygon class="19469105-acd7-433f-aa4f-6ef46ca1d533" points="730.63 545.54 715.62 424.56 719.13 500.79 730.63 545.54"/><polygon class="19469105-acd7-433f-aa4f-6ef46ca1d533" points="576.65 289.56 592.79 311.44 649.32 350.62 683.15 364.57 640.32 322.45 576.65 289.56"/><polygon class="1922672b-51c9-4b99-b3b2-5a7ddb4e98ad" points="466.48 280.32 502.42 320.77 592.79 311.44 576.65 289.56 514.17 274.91 466.48 280.32"/><polygon class="1922672b-51c9-4b99-b3b2-5a7ddb4e98ad" points="382.07 349.13 350.13 408.52 261.99 466.68 311.31 365.15 359.69 325.72 382.07 349.13"/><polygon class="19469105-acd7-433f-aa4f-6ef46ca1d533" points="269.4 577.58 297.12 628.12 327.53 616.61 322.96 549.35 261.99 466.68 269.4 577.58"/><polygon class="19469105-acd7-433f-aa4f-6ef46ca1d533" points="354.05 698.62 406.04 709.18 473.77 728.84 496.85 747.64 450.78 745.79 354.05 698.62"/><polygon class="1922672b-51c9-4b99-b3b2-5a7ddb4e98ad" points="406.04 709.18 385.81 663.71 327.53 616.61 297.12 628.12 354.05 698.62 406.04 709.18"/><ellipse class="1922672b-51c9-4b99-b3b2-5a7ddb4e98ad" cx="390.06" cy="392.85" rx="6.93" ry="14.17"/><path class="b811ca58-da7a-4a1a-bcf8-c0bf92cd57dd" d="M423,452.65c-3.43.6-5.86,2.09-6.29,4.24s1.07,4.25,3.73,6.09l1.73-8.13A8.26,8.26,0,0,1,423,452.65Z"/><path class="b811ca58-da7a-4a1a-bcf8-c0bf92cd57dd" d="M438.5,455.13a8.25,8.25,0,0,1-.05,3.28L436.62,467c4.24-.38,7.35-2,7.85-4.44S442.54,457.16,438.5,455.13Z"/><path class="1922672b-51c9-4b99-b3b2-5a7ddb4e98ad" d="M519.25,520.38c-2.34,0-4.43,1.7-5.88,4.38h11.76C523.68,522.07,521.59,520.38,519.25,520.38Z"/><path class="1922672b-51c9-4b99-b3b2-5a7ddb4e98ad" d="M519.25,546.75c2.34,0,4.43-1.7,5.88-4.38H513.37C514.82,545.06,516.91,546.75,519.25,546.75Z"/><path class="1922672b-51c9-4b99-b3b2-5a7ddb4e98ad" d="M675.76,476c2.93-.83,5-2.51,5.55-4.79s-.56-4.38-2.58-6.3l-3.16,11.14Z"/><path class="1922672b-51c9-4b99-b3b2-5a7ddb4e98ad" d="M661.4,460.71c-2.93.83-5,2.51-5.55,4.79s.69,4.69,3,6.69l.08.06,3.34-11.75C662,460.57,661.67,460.63,661.4,460.71Z"/></g><path class="2eca5b7b-9d82-4598-812d-e42831db1c66" d="M730.51,469.89s-.42,21.56-33.78,52.58l22.28-4.8,23.5-25.09Z"/><path class="2eca5b7b-9d82-4598-812d-e42831db1c66" d="M953.3,516.35H810.58c-4.52,0-8.19-2.75-8.19-6.15s3.67-6.15,8.19-6.15H826c10.14,0,18.75-6.23,18.61-13.84-.13-7.42-8.27-13.46-18.19-13.46H734.74C694.4,535.7,606.85,577,497,577,391.6,577,300.58,539,257.7,484H116.14c-10,0-18.19,6.14-18.19,13.65h0c0,7.51,8.19,13.65,18.19,13.65h52.14c5.92,0,11,3.41,11.3,7.85.3,4.74-4.74,8.65-11,8.65H58.9c-10,0-18.19,6.14-18.19,13.65h0c0,7.51,8.19,13.65,18.19,13.65H208.24c5.92,0,11,3.41,11.3,7.85.3,4.74-4.74,8.65-11,8.65H197.79c-10,0-18.19,6.14-18.19,13.65h0c0,7.51,8.19,13.65,18.19,13.65H346.12c4.35,0,8.16,2.42,8.55,5.67a5.36,5.36,0,0,1-2.22,4.81c-1.4,1-4,1.41-6.31,1.53h-3.69c-10,0-18.19,6.14-18.19,13.65s8.19,13.65,18.19,13.65H494.52c5.34,0,9.93,3.14,10,7.15s-4.28,7.42-9.7,7.42h-28c-10.14,0-18.75,6.23-18.61,13.84.13,7.42,8.27,13.46,18.19,13.46H745.87c10.14,0,18.75-6.23,18.61-13.84-.13-7.42-8.27-13.46-18.19-13.46h-5.65c-5.36,0-9.71-3.26-9.71-7.28s4.35-7.28,9.71-7.28h66.28c10.14,0,15.78-6.23,15.65-13.84-.13-7.42-5.3-13.46-15.23-13.46h-2.9c-4.42,0-8-2.69-8-6s3.58-6,8-6H913.51c10,0,14.77-6.14,14.77-13.65h0c0-7.51-4.77-13.65-14.77-13.65h-5.82a8.25,8.25,0,0,1-8.25-8.25h0a8.25,8.25,0,0,1,8.25-8.25H953.3c14.19,0,25.8-8.71,25.8-19.36h0C979.1,525.06,967.49,516.35,953.3,516.35Z"/><g id="8709951c-ddb2-4c42-9c61-1fa93ae9c0bb" data-name="bicycle"><path class="ae63f3d6-681c-430e-85aa-9fbe934a540c" d="M290.9,501.77a3.48,3.48,0,0,0-4.64,2L263,538a3.86,3.86,0,0,0,1.88,4.93l.85.38,25.85-41.28Z"/><path class="c5713eaa-561e-4c74-b3dd-21658ed4992d" d="M292.12,502.32l-.55-.25L264.86,543l1.22.54a3.48,3.48,0,0,0,4.64-2L294,507.25A3.86,3.86,0,0,0,292.12,502.32Z"/><path class="56e477c9-917f-451b-8c72-0968b5985a86" d="M276.87,502.17a.85.85,0,0,0,0,.32c0,3.4,5.45,6.23,12.28,6.33s12.41-2.57,12.46-6a3.13,3.13,0,0,0-.05-.61Z"/><circle class="ae63f3d6-681c-430e-85aa-9fbe934a540c" cx="234.86" cy="483.53" r="4.79" transform="translate(-252.81 709.66) rotate(-88.97)"/><path class="c5713eaa-561e-4c74-b3dd-21658ed4992d" d="M236.35,479.88a3.91,3.91,0,0,1-4.59,5.9,3.93,3.93,0,1,0,4.59-5.9Z"/><path class="ae63f3d6-681c-430e-85aa-9fbe934a540c" d="M295.43,541.29v-.54a3.89,3.89,0,0,0-3.81-4l-31.94-.57h-.15L241.79,512.5c-3.82-5.42-4.15-2.3-6.06-.87a4.25,4.25,0,0,0-.85.88l22.4,28.1Z"/><path class="c5713eaa-561e-4c74-b3dd-21658ed4992d" d="M257.28,540.6l-21.55-29c-1.12,1.5-2,4.49-.87,6.06L254,543.26a5.57,5.57,0,0,0,1.65,1.73h0l35.83.64a3.89,3.89,0,0,0,4-3.81v-.54Z"/><rect class="e1cd4634-a13d-4123-8f8d-576a1d688857" x="215.55" y="523.8" width="1.79" height="35.66" transform="translate(-328.99 748.3) rotate(-88.97)"/><rect class="e1cd4634-a13d-4123-8f8d-576a1d688857" x="199.12" y="540.71" width="32.75" height="1.79" transform="matrix(0.02, -1, 1, 0.02, -329.91, 747.32)"/><rect class="e1cd4634-a13d-4123-8f8d-576a1d688857" x="199.12" y="540.71" width="32.75" height="1.79" transform="translate(-359.71 447.11) rotate(-58.97)"/><rect class="e1cd4634-a13d-4123-8f8d-576a1d688857" x="214.59" y="525.24" width="1.79" height="32.75" transform="translate(-235.36 172.14) rotate(-28.97)"/><rect class="e1cd4634-a13d-4123-8f8d-576a1d688857" x="214.59" y="525.24" width="1.79" height="32.75" transform="translate(-359.7 447.07) rotate(-58.97)"/><rect class="e1cd4634-a13d-4123-8f8d-576a1d688857" x="199.12" y="540.71" width="32.75" height="1.79" transform="translate(-235.33 172.09) rotate(-28.96)"/><path class="e1cd4634-a13d-4123-8f8d-576a1d688857" d="M197.57,526.7a23.89,23.89,0,1,0,33.64-2.14A23.83,23.83,0,0,0,197.57,526.7Zm29,25.38a14.63,14.63,0,1,1-1.41-20.59A14.59,14.59,0,0,1,226.54,552.09Z"/><path class="56e477c9-917f-451b-8c72-0968b5985a86" d="M200.49,529.26a20,20,0,1,0,28.18-1.79A20,20,0,0,0,200.49,529.26Zm24.27,21.26a12.26,12.26,0,1,1-1.18-17.25A12.23,12.23,0,0,1,224.76,550.52Z"/><rect class="e1cd4634-a13d-4123-8f8d-576a1d688857" x="294.11" y="524.38" width="1.79" height="35.66" transform="matrix(0.02, -1, 1, 0.02, -252.42, 827.41)"/><rect class="e1cd4634-a13d-4123-8f8d-576a1d688857" x="277.67" y="541.29" width="32.75" height="1.79" transform="matrix(0.02, -1, 1, 0.02, -253.35, 826.43)"/><rect class="e1cd4634-a13d-4123-8f8d-576a1d688857" x="277.67" y="541.29" width="32.75" height="1.79" transform="translate(-322.14 514.71) rotate(-58.97)"/><rect class="e1cd4634-a13d-4123-8f8d-576a1d688857" x="293.15" y="525.82" width="1.79" height="32.75" transform="translate(-225.82 210.26) rotate(-28.97)"/><rect class="e1cd4634-a13d-4123-8f8d-576a1d688857" x="293.15" y="525.82" width="1.79" height="32.75" transform="translate(-322.13 514.66) rotate(-58.97)"/><rect class="e1cd4634-a13d-4123-8f8d-576a1d688857" x="277.67" y="541.29" width="32.75" height="1.79" transform="translate(-225.78 210.21) rotate(-28.96)"/><path class="e1cd4634-a13d-4123-8f8d-576a1d688857" d="M276.13,527.28a23.89,23.89,0,1,0,33.64-2.14A23.83,23.83,0,0,0,276.13,527.28Zm29,25.38a14.63,14.63,0,1,1-1.41-20.59A14.59,14.59,0,0,1,305.1,552.67Z"/><path class="56e477c9-917f-451b-8c72-0968b5985a86" d="M279,529.84A20,20,0,1,0,307.22,528,20,20,0,0,0,279,529.84Zm24.27,21.26a12.26,12.26,0,1,1-1.18-17.25A12.23,12.23,0,0,1,303.31,551.1Z"/><path class="ae63f3d6-681c-430e-85aa-9fbe934a540c" d="M235.22,501.53l-21.57,36.75a4.16,4.16,0,0,0,1.48,5.68l.11.05,25.53-44A4.15,4.15,0,0,0,235.22,501.53Z"/><path class="c5713eaa-561e-4c74-b3dd-21658ed4992d" d="M240.9,500.06l-.13-.06-25.53,44a4.16,4.16,0,0,0,5.57-1.53l21.57-36.75A4.16,4.16,0,0,0,240.9,500.06Z"/><path class="e945fc88-dbac-4d8f-b749-2275d1e9f0a5" d="M241.28,498.79h0Z"/><path class="56e477c9-917f-451b-8c72-0968b5985a86" d="M246.07,503.16a32.7,32.7,0,0,0,12.07-3.5,2.1,2.1,0,0,1,1.94,0l5.54,2.84,0-.07a3,3,0,0,0-1.32-4l-4.59-2.3a3,3,0,0,0-2.69,0l-1.45.65c-1.75.78-2.34,1-2.6,1.19a15.4,15.4,0,0,1-8.65,1.86,7.49,7.49,0,0,1-1.77-.37l-.33-.12h0c-1.36-.53-4.29-2.06-3.22-5,1-2.8,5-5.45,7-6.67a2.94,2.94,0,0,0-.9-1l-5.61-3.86a2.95,2.95,0,1,0-3.34,4.85l2.17,1.49a15.4,15.4,0,0,0-2.26,2.3,8.41,8.41,0,0,0-1.5,7.79C236,501,239.29,503.72,246.07,503.16Z"/><path class="e1cd4634-a13d-4123-8f8d-576a1d688857" d="M260.07,499.65a2.1,2.1,0,0,0-1.94,0,32.7,32.7,0,0,1-12.07,3.5c-6.77.56-10.09-2.17-11.49-3.89a8.3,8.3,0,0,0,1.83,3.12,11.42,11.42,0,0,0,7.39,3.37q.73.07,1.47.08a21.45,21.45,0,0,0,10.47-2.59c.23-.12,1.5-.68,2.26-1l.37-.17,3.34,1.67a2.94,2.94,0,0,0,3.91-1.24Z"/><path class="ac6bccdb-1d11-41bc-898d-8d334bd8382d" d="M241.74,499l-.46-.17Z"/><path class="e1cd4634-a13d-4123-8f8d-576a1d688857" d="M239,494.35c-1.07,3,1.86,4.5,3.22,5a4.3,4.3,0,0,1-1.51-1,2.39,2.39,0,0,1,0-3.27,17.78,17.78,0,0,1,4.21-3.43l.16-.11a2.94,2.94,0,0,0,.93-3.89C244,488.9,240,491.56,239,494.35Z"/><circle class="56e477c9-917f-451b-8c72-0968b5985a86" cx="294.09" cy="543.03" r="4.79" transform="translate(-254.14 827.3) rotate(-88.97)"/><path class="e1cd4634-a13d-4123-8f8d-576a1d688857" d="M295.58,539.38a3.91,3.91,0,0,1-4.59,5.9,3.93,3.93,0,1,0,4.59-5.9Z"/><circle class="56e477c9-917f-451b-8c72-0968b5985a86" cx="215.57" cy="540.72" r="4.79" transform="translate(-328.94 746.52) rotate(-88.97)"/><path class="e1cd4634-a13d-4123-8f8d-576a1d688857" d="M217.06,537.07a3.91,3.91,0,0,1-4.59,5.9,3.93,3.93,0,1,0,4.59-5.9Z"/><circle class="ae63f3d6-681c-430e-85aa-9fbe934a540c" cx="265.92" cy="503.62" r="4.79" transform="translate(-242.4 760.44) rotate(-88.97)"/><path class="c5713eaa-561e-4c74-b3dd-21658ed4992d" d="M267.41,500a3.91,3.91,0,0,1-4.59,5.9,3.93,3.93,0,1,0,4.59-5.9Z"/><path class="e1cd4634-a13d-4123-8f8d-576a1d688857" d="M291.3,499.13a25.73,25.73,0,0,0-7,1,9.43,9.43,0,0,1-3.33.37h-.46c-2,0-3.62.88-3.61,1.92s1.65,1.87,3.65,1.84l.52,0a8.16,8.16,0,0,1,3.07.39,25.34,25.34,0,0,0,7.27.86c5.63-.06,10.18-1.52,10.17-3.26S296.93,499.07,291.3,499.13Z"/></g><g id="6f0c6ac5-c203-4025-81ff-18faa5d1c329" data-name="hand2"><path class="77feea8f-2b90-466f-9d6c-ca3a57e660b9" d="M395,382.93,379.63,388l-77,23,2.11,7.06L396.84,390A20.42,20.42,0,0,0,395,382.93Z"/><path class="13da343e-f205-41ec-9d1f-190c25ab66b1" d="M396.84,390l-92.08,28.11,2.06,6.89,77.42-23.13,12.18-3.31s.94-2.27.49-7.85C396.89,390.42,396.86,390.18,396.84,390Z"/><path class="77feea8f-2b90-466f-9d6c-ca3a57e660b9" d="M315.64,398.93c-11-5.33-29.11-5.76-48-.11s-33.82,15.93-40.11,26.44L221,427.19l3.79,12.7c4.28,14.34,30.38,19.21,58.29,10.88S330.17,424,325.89,409.7L322.09,397Z"/><path class="13da343e-f205-41ec-9d1f-190c25ab66b1" d="M282.35,447.1c-24.15,7.21-47,4.81-56.25-4.92C232.15,454.93,257,459,283.59,451c26.81-8,45.53-25.29,43.16-39.35C324.68,425,306.78,439.8,282.35,447.1Z"/><ellipse class="f5c334ab-7c0f-452e-9440-61a4671439e0" cx="271.56" cy="412.1" rx="52.74" ry="27.1" transform="translate(-106.58 94.96) rotate(-16.63)"/><ellipse class="0a8cfcf0-0968-4c96-b172-be2e9e18aa63" cx="271.07" cy="411.68" rx="45.2" ry="20.33" transform="translate(-106.49 94.8) rotate(-16.63)"/><path class="96d985ff-83da-45c8-878b-91fc88a5d113" d="M251.16,406.58s-13,5.24-13.15,15"/><path class="96d985ff-83da-45c8-878b-91fc88a5d113" d="M257.45,403.58s24.37-11.25,41.28-8"/><rect class="f5c334ab-7c0f-452e-9440-61a4671439e0" x="331.37" y="399.84" width="7.17" height="19.23" rx="3.58" ry="3.58" transform="translate(-72.67 72.27) rotate(-11.12)"/><rect class="f5c334ab-7c0f-452e-9440-61a4671439e0" x="339.48" y="397.4" width="7.17" height="19.23" rx="3.58" ry="3.58" transform="translate(-72.04 73.79) rotate(-11.12)"/><circle class="77feea8f-2b90-466f-9d6c-ca3a57e660b9" cx="336.06" cy="415.12" r="2.24"/><circle class="77feea8f-2b90-466f-9d6c-ca3a57e660b9" cx="344.22" cy="412.88" r="2.24"/></g><path class="c6725378-bcdf-4090-8041-26e32515d650" d="M395,382.93s-1,15.11-5.69,17.51l7.1-1.93A29.82,29.82,0,0,0,395,382.93Z"/><path class="f90ded38-c1f2-46ab-b690-f43fca51b94e" d="M466.9,572.61h0v22c0,9.59,10.08,17.37,22.52,17.37h0V590C477,590,466.9,582.2,466.9,572.61Z"/><path class="1f34595f-de18-4c76-b17d-3f2b476b170b" d="M489.43,590v22c12.44,0,22.52-7.78,22.52-17.37v-22C511.95,582.21,501.87,590,489.43,590Z"/><path class="f488e9dd-3597-4c34-8333-4bcf370a507a" d="M478.19,572.35a2.47,2.47,0,0,0-1-2,3.94,3.94,0,0,1-1.59-3.68,4.06,4.06,0,0,1,4.07-3.45h9.73v-8c-12.44,0-22.52,7.78-22.52,17.37h11.29Z"/><path class="a9b9e0a9-f2fd-45ce-b64f-bb9c45b4ba26" d="M489.43,555.24v8h9.73a4.06,4.06,0,0,1,4.07,3.45,3.94,3.94,0,0,1-1.59,3.68,2.47,2.47,0,0,0-1,2v.51a2.49,2.49,0,0,0,1,2,3.95,3.95,0,0,1-2.35,7.13h-9.88v8c12.44,0,22.52-7.78,22.52-17.37h0C512,563,501.87,555.24,489.43,555.24Z"/><path class="f488e9dd-3597-4c34-8333-4bcf370a507a" d="M489.43,590v-8h-9.88a4,4,0,0,1-4-4h0a4,4,0,0,1,1.61-3.17,2.49,2.49,0,0,0,1-2v-.26H466.9C466.9,582.2,477,590,489.43,590Z"/><path class="8ae13a37-7519-4678-b8c7-36f3b58c49f9" d="M489.43,563.22H479.7a4.06,4.06,0,0,0-4.07,3.45,3.94,3.94,0,0,0,1.59,3.68,2.47,2.47,0,0,1,1,2v.26h11.23Z"/><path class="c7f7869b-12e2-4af9-892a-109635a8e1e3" d="M501.66,574.87a2.49,2.49,0,0,1-1-2v-.51a2.47,2.47,0,0,1,1-2,3.94,3.94,0,0,0,1.59-3.68,4.06,4.06,0,0,0-4.07-3.45h-9.73V582h9.88a3.95,3.95,0,0,0,2.35-7.13Z"/><path class="8ae13a37-7519-4678-b8c7-36f3b58c49f9" d="M478.19,572.61v.26a2.49,2.49,0,0,1-1,2,4,4,0,0,0-1.61,3.17h0a4,4,0,0,0,4,4h9.88v-9.39Z"/><path class="a9b9e0a9-f2fd-45ce-b64f-bb9c45b4ba26" d="M373.05,578.53a2.64,2.64,0,0,0,.61.43,2.79,2.79,0,0,1,.52.35,2.79,2.79,0,0,0-.52-.35A2.64,2.64,0,0,1,373.05,578.53Z"/><path class="a9b9e0a9-f2fd-45ce-b64f-bb9c45b4ba26" d="M376.52,574.84h0a1.34,1.34,0,0,1-.23.45A1.34,1.34,0,0,0,376.52,574.84Z"/><path class="a9b9e0a9-f2fd-45ce-b64f-bb9c45b4ba26" d="M372.94,582.05a2.3,2.3,0,0,0,.69-.08h0A2.3,2.3,0,0,1,372.94,582.05Z"/><path class="f90ded38-c1f2-46ab-b690-f43fca51b94e" d="M427.85,588.63h0v22c0,9.59,10.08,17.37,22.52,17.37h0V606C437.94,606,427.85,598.22,427.85,588.63Z"/><path class="1f34595f-de18-4c76-b17d-3f2b476b170b" d="M450.38,606v22c12.44,0,22.52-7.78,22.52-17.37v-22C472.9,598.23,462.81,606,450.38,606Z"/><path class="f488e9dd-3597-4c34-8333-4bcf370a507a" d="M439.14,588.38a2.47,2.47,0,0,0-1-2,3.94,3.94,0,0,1-1.59-3.68,4.06,4.06,0,0,1,4.07-3.45h9.73v-8c-12.44,0-22.52,7.78-22.52,17.37h11.29Z"/><path class="a9b9e0a9-f2fd-45ce-b64f-bb9c45b4ba26" d="M450.38,571.26v8h9.73a4.06,4.06,0,0,1,4.07,3.45,3.94,3.94,0,0,1-1.59,3.68,2.47,2.47,0,0,0-1,2v.51a2.49,2.49,0,0,0,1,2,3.95,3.95,0,0,1-2.35,7.13h-9.88v8c12.44,0,22.52-7.78,22.52-17.37h0C472.9,579,462.82,571.26,450.38,571.26Z"/><path class="f488e9dd-3597-4c34-8333-4bcf370a507a" d="M450.38,606v-8h-9.88a4,4,0,0,1-4-4h0a4,4,0,0,1,1.61-3.17,2.49,2.49,0,0,0,1-2v-.26H427.85C427.85,598.22,437.94,606,450.38,606Z"/><path class="8ae13a37-7519-4678-b8c7-36f3b58c49f9" d="M450.38,579.24h-9.73a4.06,4.06,0,0,0-4.07,3.45,3.94,3.94,0,0,0,1.59,3.68,2.47,2.47,0,0,1,1,2v.26h11.23Z"/><path class="c7f7869b-12e2-4af9-892a-109635a8e1e3" d="M462.61,590.89a2.49,2.49,0,0,1-1-2v-.51a2.47,2.47,0,0,1,1-2,3.94,3.94,0,0,0,1.59-3.68,4.06,4.06,0,0,0-4.07-3.45h-9.73V598h9.88a3.95,3.95,0,0,0,2.35-7.13Z"/><path class="8ae13a37-7519-4678-b8c7-36f3b58c49f9" d="M439.14,588.63v.26a2.49,2.49,0,0,1-1,2,4,4,0,0,0-1.61,3.17h0a4,4,0,0,0,4,4h9.88v-9.39Z"/><path class="e945fc88-dbac-4d8f-b749-2275d1e9f0a5" d="M390,545.88a12.44,12.44,0,0,0-17.57-.6L369.6,548l17,18.17,2.86-2.67A12.44,12.44,0,0,0,390,545.88Z"/><path class="c6725378-bcdf-4090-8041-26e32515d650" d="M423,452.65s11.58,2.49,14.79,8.85c0,0,1.19-4,.71-6.37C438.5,455.13,431,451.29,423,452.65Z"/><g id="7f7736da-6ed9-4483-882f-f38f2c64caac" data-name="hand3_2"><path class="77feea8f-2b90-466f-9d6c-ca3a57e660b9" d="M423,452.65a8.26,8.26,0,0,0-.83,2.19L420.43,463l-10,46.84a8.36,8.36,0,0,0,6.35,9.92l.26,0,14.26-67A24.32,24.32,0,0,0,423,452.65Z"/><path class="13da343e-f205-41ec-9d1f-190c25ab66b1" d="M432,452.92l-.65-.12-14.26,67a8.35,8.35,0,0,0,9.67-6.4l9.9-46.42,1.83-8.56a8.25,8.25,0,0,0,.05-3.28A26.44,26.44,0,0,0,432,452.92Z"/><path class="c6725378-bcdf-4090-8041-26e32515d650" d="M426,511.53A12.19,12.19,0,0,1,405.2,522,12.2,12.2,0,1,0,426,511.53Z"/><g id="f7dbe474-1901-4146-a8c6-7bbcc489bcc1" data-name="hand3_1"><path class="a9b9e0a9-f2fd-45ce-b64f-bb9c45b4ba26" d="M362.63,583.5a.84.84,0,0,0,0-.41h0A.84.84,0,0,1,362.63,583.5Z"/><path class="a9b9e0a9-f2fd-45ce-b64f-bb9c45b4ba26" d="M362.64,583.09h0a.82.82,0,0,1,0-.36A.82.82,0,0,0,362.64,583.09Z"/><path class="e945fc88-dbac-4d8f-b749-2275d1e9f0a5" d="M365,575.18c0-.1-2-5.2-7.07-6.76l-.17,0-2.51,8.85.17.05C359.24,578.38,363,577.43,365,575.18Z"/><path class="e945fc88-dbac-4d8f-b749-2275d1e9f0a5" d="M340.77,571.44a.82.82,0,0,1,.27-.27A.82.82,0,0,0,340.77,571.44Z"/><path class="e945fc88-dbac-4d8f-b749-2275d1e9f0a5" d="M348.36,570.46c.47,2.9,3.13,5.65,6.88,6.77l2.51-8.85C352.77,567,348.44,570.39,348.36,570.46Z"/><path class="e945fc88-dbac-4d8f-b749-2275d1e9f0a5" d="M346.38,578.11a.82.82,0,0,1-.18.31h0A.82.82,0,0,0,346.38,578.11Z"/><path class="e945fc88-dbac-4d8f-b749-2275d1e9f0a5" d="M346.19,578.42a.84.84,0,0,0-.2.36.84.84,0,0,1,.2-.36Z"/><path class="a9b9e0a9-f2fd-45ce-b64f-bb9c45b4ba26" d="M372.11,575.38a.85.85,0,0,1-.07-.63A.85.85,0,0,0,372.11,575.38Z"/><path class="a9b9e0a9-f2fd-45ce-b64f-bb9c45b4ba26" d="M370.83,579.63a.82.82,0,0,1,.09.37A.82.82,0,0,0,370.83,579.63Z"/><path class="e945fc88-dbac-4d8f-b749-2275d1e9f0a5" d="M342.58,566.39a.85.85,0,0,1-.39.5A.85.85,0,0,0,342.58,566.39Z"/><path class="e945fc88-dbac-4d8f-b749-2275d1e9f0a5" d="M341,567.06a1.68,1.68,0,0,1,.38,0,1.59,1.59,0,0,0,.45,0,1.59,1.59,0,0,1-.45,0A1.68,1.68,0,0,0,341,567.06Z"/><path class="f488e9dd-3597-4c34-8333-4bcf370a507a" d="M357.75,568.38l1.3-4.56a10.19,10.19,0,0,0-7.91.87,6.63,6.63,0,0,0-1.33,1.08,5.87,5.87,0,0,0-.47.57,5.32,5.32,0,0,0-1,4.12C348.44,570.39,352.77,567,357.75,568.38Z"/><path class="a9b9e0a9-f2fd-45ce-b64f-bb9c45b4ba26" d="M366.32,571.16a5.87,5.87,0,0,0-.1-.73,6.63,6.63,0,0,0-.56-1.61,10.23,10.23,0,0,0-6.44-5l-.17,0-1.3,4.56.17,0c5.05,1.56,7,6.66,7.07,6.76a5.32,5.32,0,0,0,1.33-4Z"/><path class="f488e9dd-3597-4c34-8333-4bcf370a507a" d="M341.38,567a1.59,1.59,0,0,0,.45,0,1.14,1.14,0,0,0,.35-.14.85.85,0,0,0,.39-.5,1.05,1.05,0,0,0-.67-1.19h0a1.16,1.16,0,0,1-.7-.86.81.81,0,0,1,0-.3h0l-.53,3.11a1.26,1.26,0,0,1,.31-.09A1.68,1.68,0,0,1,341.38,567Z"/><path class="a9b9e0a9-f2fd-45ce-b64f-bb9c45b4ba26" d="M374.28,573.73a1.16,1.16,0,0,1-1,.37h0a1.05,1.05,0,0,0-1.2.66.85.85,0,0,0,.07.63,1.15,1.15,0,0,0,.23.3,1.59,1.59,0,0,0,.37.26,1.68,1.68,0,0,1,.31.21,1.26,1.26,0,0,1,.22.24l1.18-2.92h0A.81.81,0,0,1,374.28,573.73Z"/><path class="f488e9dd-3597-4c34-8333-4bcf370a507a" d="M352.71,582.14h0a1.1,1.1,0,0,1-.95.44,1.8,1.8,0,0,1-1-.36,1.17,1.17,0,0,1-.38-.48.81.81,0,0,1-.06-.39.86.86,0,0,1,0-.21.86.86,0,0,0-.16-.84,1.48,1.48,0,0,0-.44-.37,1.76,1.76,0,0,0-.37-.16,1.67,1.67,0,0,0-.4-.07,1.35,1.35,0,0,0-.6.11l-.18.1h0a1.56,1.56,0,0,1-2.12-.59A.83.83,0,0,1,346,579a.71.71,0,0,1,0-.18.84.84,0,0,1,.2-.36h0a.82.82,0,0,0,.18-.31.77.77,0,0,0,0-.49,1.25,1.25,0,0,0-.43-.57,1.65,1.65,0,0,0-.74-.32,1.55,1.55,0,0,0-.43,0l-.22,0h0c-1.38.39-2.59-1.23-1.39-1.85,1-.53.3-1.91-1-1.9h0a1.71,1.71,0,0,1-.75-.16l-.2-.11a1.35,1.35,0,0,1-.31-.29,1,1,0,0,1-.19-.87.73.73,0,0,1,.07-.16.82.82,0,0,1,.27-.27,1.3,1.3,0,0,1,.45-.16c1.23-.23,1-1.66-.25-2a1.78,1.78,0,0,1-.46-.18,1.39,1.39,0,0,1-.33-.26L340,571c-1.06,0-1.47,1.24-.32,1.85l-.31,1.84h-.2c-1.54-.12-1.67,1.62-.14,2,1.3.31,1.48,1.75.25,2-1.45.26-.87,2,.65,2h0c1.3,0,2,1.37,1,1.9-1.21.62,0,2.24,1.39,1.85h0c1.18-.33,2.38.86,1.66,1.64h0c-.85.92.89,2.23,2,1.5h0c.93-.62,2.5.27,2.15,1.23-.41,1.12,1.68,2,2.39,1h0a1.22,1.22,0,0,1,1.24-.4l2.17-7.65A1.22,1.22,0,0,0,352.71,582.14Z"/><path class="a9b9e0a9-f2fd-45ce-b64f-bb9c45b4ba26" d="M370.54,583.59a1.51,1.51,0,0,1-.16-.11l.7-1.73c1.3.09,1.58-1.14.7-1.74l.91-2.25a1.39,1.39,0,0,1-.42,0,1.78,1.78,0,0,1-.49-.09c-1.27-.42-2.18.7-1.25,1.54a1.3,1.3,0,0,1,.3.38.82.82,0,0,1,.09.37.73.73,0,0,1,0,.17,1,1,0,0,1-.62.64,1.35,1.35,0,0,1-.42.08h-.23a1.71,1.71,0,0,1-.72-.26h0c-1.1-.69-2.45.1-1.85,1.09.7,1.16-1.18,1.9-2.15.84h0l-.16-.15a1.55,1.55,0,0,0-.37-.22,1.65,1.65,0,0,0-.8-.12,1.25,1.25,0,0,0-.67.26.77.77,0,0,0-.27.41.82.82,0,0,0,0,.36h0a.84.84,0,0,1,0,.41.71.71,0,0,1-.08.17.83.83,0,0,1-.26.26,1.56,1.56,0,0,1-2.12-.61h0a1.18,1.18,0,0,0-.1-.18,1.35,1.35,0,0,0-.45-.4,1.67,1.67,0,0,0-.38-.15,1.76,1.76,0,0,0-.4-.06,1.48,1.48,0,0,0-.57.09.86.86,0,0,0-.57.63.86.86,0,0,1-.07.2.81.81,0,0,1-.25.3,1.17,1.17,0,0,1-.58.21,1.8,1.8,0,0,1-1.08-.24,1.1,1.1,0,0,1-.58-.87h0a1.33,1.33,0,0,0-1.19-1.09l-2.17,7.65a1.33,1.33,0,0,1,1.19,1.09h0c.07,1.22,2.31,1.57,2.55.4.21-1,2-.94,2.47.08h0c.55,1.2,2.71,1,2.47-.23h0c-.2-1,1.45-1.43,2.27-.53h0c1,1.06,2.85.32,2.15-.84-.6-1,.75-1.78,1.85-1.09h0c1.29.81,2.71-.39,1.62-1.37-.93-.84,0-2,1.25-1.54C371.11,585.85,371.92,584.3,370.54,583.59Z"/><path class="f90ded38-c1f2-46ab-b690-f43fca51b94e" d="M340.78,568.86a1.78,1.78,0,0,0,.46.18c1.3.31,1.48,1.75.25,2a1.3,1.3,0,0,0-.45.16.82.82,0,0,0-.27.27.73.73,0,0,0-.07.16,1,1,0,0,0,.19.87,1.35,1.35,0,0,0,.31.29l.2.11a1.71,1.71,0,0,0,.75.16h0c1.3,0,2,1.37,1,1.9-1.21.62,0,2.24,1.39,1.85h0l.22,0a1.55,1.55,0,0,1,.43,0,1.65,1.65,0,0,1,.74.32,1.25,1.25,0,0,1,.43.57.77.77,0,0,1,0,.49.82.82,0,0,1-.18.31h0a.84.84,0,0,0-.2.36.71.71,0,0,0,0,.18.83.83,0,0,0,.09.36,1.56,1.56,0,0,0,2.12.59h0l.18-.1a1.35,1.35,0,0,1,.6-.11,1.66,1.66,0,0,1,.4.07,1.76,1.76,0,0,1,.37.16,1.48,1.48,0,0,1,.44.37.86.86,0,0,1,.16.84.86.86,0,0,0,0,.21.81.81,0,0,0,.06.39,1.17,1.17,0,0,0,.38.48,1.8,1.8,0,0,0,1,.36,1.1,1.1,0,0,0,.95-.44h0a1.22,1.22,0,0,1,1.24-.4l1.28-4.5c-3.75-1.12-6.41-3.87-6.88-6.77h0a5,5,0,0,1-1.67-5.23c.72-3.59,9.08-4.81,13.12-4.07l.52-1.85a1.22,1.22,0,0,1-.85-1c-.07-1.22-2.31-1.57-2.55-.4h0c-.21,1-2,.94-2.47-.09-.55-1.2-2.71-1-2.47.23.2,1-1.45,1.43-2.27.53-1-1.06-2.85-.32-2.15.84h0c.6,1-.75,1.78-1.85,1.09h0c-1.29-.81-2.71.39-1.62,1.37.93.84,0,2-1.25,1.54-.84-.28-1.47.1-1.6.6a.81.81,0,0,0,0,.3,1.16,1.16,0,0,0,.7.86h0a1.05,1.05,0,0,1,.67,1.19.85.85,0,0,1-.39.5,1.14,1.14,0,0,1-.35.14,1.59,1.59,0,0,1-.45,0,1.68,1.68,0,0,0-.38,0,1.26,1.26,0,0,0-.31.09.87.87,0,0,0-.25,1.46h0A1.39,1.39,0,0,0,340.78,568.86Z"/><path class="f90ded38-c1f2-46ab-b690-f43fca51b94e" d="M349.33,566.34a5.87,5.87,0,0,1,.47-.57,6.63,6.63,0,0,1,1.33-1.08,10.19,10.19,0,0,1,7.91-.87l.75-2.66c-4-.74-12.39.48-13.12,4.07a5,5,0,0,0,1.67,5.23h0a5.32,5.32,0,0,1,1-4.12Z"/><path class="1f34595f-de18-4c76-b17d-3f2b476b170b" d="M373,576.15a1.68,1.68,0,0,0-.31-.21,1.59,1.59,0,0,1-.37-.26,1.15,1.15,0,0,1-.23-.3.85.85,0,0,1-.07-.63,1.05,1.05,0,0,1,1.2-.66h0a1.16,1.16,0,0,0,1-.37.81.81,0,0,0,.14-.27c.15-.5-.18-1.15-1-1.36-1.3-.31-1.48-1.75-.25-2,1.45-.26.87-2-.65-2h0c-1.3,0-2-1.37-1-1.9h0c1.21-.62,0-2.24-1.39-1.85-1.18.33-2.38-.86-1.66-1.64s-.89-2.23-2-1.5c-.93.62-2.5-.27-2.15-1.23h0c.41-1.12-1.68-2-2.39-1a1.33,1.33,0,0,1-1.58.31l-.52,1.85-.75,2.66.17,0a10.23,10.23,0,0,1,6.44,5,6.63,6.63,0,0,1,.56,1.61,5.87,5.87,0,0,1,.1.73,5.32,5.32,0,0,1-1.33,4c-2,2.26-5.74,3.2-9.58,2.11l-.17-.05-1.28,4.5a1.33,1.33,0,0,1,1.19,1.09h0a1.1,1.1,0,0,0,.58.87,1.8,1.8,0,0,0,1.08.24,1.17,1.17,0,0,0,.58-.21.81.81,0,0,0,.25-.3.86.86,0,0,0,.07-.2.86.86,0,0,1,.57-.63,1.48,1.48,0,0,1,.57-.09,1.76,1.76,0,0,1,.4.06,1.66,1.66,0,0,1,.38.15,1.35,1.35,0,0,1,.45.4,1.18,1.18,0,0,1,.1.18h0a1.56,1.56,0,0,0,2.12.61.83.83,0,0,0,.26-.26.71.71,0,0,0,.08-.17.84.84,0,0,0,0-.41h0a.82.82,0,0,1,0-.36.77.77,0,0,1,.27-.41,1.25,1.25,0,0,1,.67-.26,1.65,1.65,0,0,1,.8.12,1.55,1.55,0,0,1,.37.22l.16.15h0c1,1.06,2.85.32,2.15-.84-.6-1,.75-1.78,1.85-1.09h0a1.71,1.71,0,0,0,.72.26h.23a1.35,1.35,0,0,0,.42-.08,1,1,0,0,0,.62-.64.73.73,0,0,0,0-.17.82.82,0,0,0-.09-.37,1.3,1.3,0,0,0-.3-.38c-.93-.84,0-2,1.25-1.54a1.78,1.78,0,0,0,.49.09,1.39,1.39,0,0,0,.42,0h0a.87.87,0,0,0,.55-1.37A1.26,1.26,0,0,0,373,576.15Z"/><path class="f90ded38-c1f2-46ab-b690-f43fca51b94e" d="M341.2,564.34a.81.81,0,0,1,0-.3h0A.81.81,0,0,0,341.2,564.34Z"/><path class="f90ded38-c1f2-46ab-b690-f43fca51b94e" d="M345.19,576.73a1.55,1.55,0,0,0-.43,0A1.55,1.55,0,0,1,345.19,576.73Z"/><path class="f90ded38-c1f2-46ab-b690-f43fca51b94e" d="M341.19,572.75a1.35,1.35,0,0,1-.31-.29A1.35,1.35,0,0,0,341.19,572.75Z"/><path class="f90ded38-c1f2-46ab-b690-f43fca51b94e" d="M349,579.71a1.35,1.35,0,0,0-.6.11A1.35,1.35,0,0,1,349,579.71Z"/><path class="f90ded38-c1f2-46ab-b690-f43fca51b94e" d="M349.36,579.77a1.66,1.66,0,0,0-.4-.07A1.67,1.67,0,0,1,349.36,579.77Z"/><path class="f90ded38-c1f2-46ab-b690-f43fca51b94e" d="M346.06,579.32A.83.83,0,0,1,346,579,.83.83,0,0,0,346.06,579.32Z"/><path class="f90ded38-c1f2-46ab-b690-f43fca51b94e" d="M346,579a.71.71,0,0,1,0-.18A.71.71,0,0,0,346,579Z"/><path class="f90ded38-c1f2-46ab-b690-f43fca51b94e" d="M350.33,581.73a.81.81,0,0,1-.06-.39A.81.81,0,0,0,350.33,581.73Z"/><path class="a9b9e0a9-f2fd-45ce-b64f-bb9c45b4ba26" d="M364.75,582.4a1.55,1.55,0,0,0-.37-.22A1.55,1.55,0,0,1,364.75,582.4Z"/><path class="a9b9e0a9-f2fd-45ce-b64f-bb9c45b4ba26" d="M362.63,583.5a.71.71,0,0,1-.08.17A.71.71,0,0,0,362.63,583.5Z"/><path class="a9b9e0a9-f2fd-45ce-b64f-bb9c45b4ba26" d="M370.29,580.81a1.35,1.35,0,0,1-.42.08A1.35,1.35,0,0,0,370.29,580.81Z"/><path class="a9b9e0a9-f2fd-45ce-b64f-bb9c45b4ba26" d="M362.55,583.66a.83.83,0,0,1-.26.26A.83.83,0,0,0,362.55,583.66Z"/><path class="a9b9e0a9-f2fd-45ce-b64f-bb9c45b4ba26" d="M359.61,582.73a1.66,1.66,0,0,0-.38-.15A1.67,1.67,0,0,1,359.61,582.73Z"/><path class="a9b9e0a9-f2fd-45ce-b64f-bb9c45b4ba26" d="M357.63,583.43a.81.81,0,0,1-.25.3A.81.81,0,0,0,357.63,583.43Z"/><path class="a9b9e0a9-f2fd-45ce-b64f-bb9c45b4ba26" d="M358.84,582.52a1.48,1.48,0,0,0-.57.09A1.48,1.48,0,0,1,358.84,582.52Z"/><path class="f90ded38-c1f2-46ab-b690-f43fca51b94e" d="M350.17,580.3a1.48,1.48,0,0,0-.44-.37A1.48,1.48,0,0,1,350.17,580.3Z"/><path class="a9b9e0a9-f2fd-45ce-b64f-bb9c45b4ba26" d="M360.07,583.14a1.35,1.35,0,0,0-.45-.4A1.35,1.35,0,0,1,360.07,583.14Z"/><path class="f90ded38-c1f2-46ab-b690-f43fca51b94e" d="M346.37,577.62a.77.77,0,0,1,0,.49A.77.77,0,0,0,346.37,577.62Z"/><path class="a9b9e0a9-f2fd-45ce-b64f-bb9c45b4ba26" d="M368.92,580.62a1.71,1.71,0,0,0,.72.26A1.71,1.71,0,0,1,368.92,580.62Z"/><path class="a9b9e0a9-f2fd-45ce-b64f-bb9c45b4ba26" d="M362.91,582.32a1.25,1.25,0,0,1,.67-.26A1.25,1.25,0,0,0,362.91,582.32Z"/><path class="a9b9e0a9-f2fd-45ce-b64f-bb9c45b4ba26" d="M364,582.07a1.64,1.64,0,0,1,.4.11A1.64,1.64,0,0,0,364,582.07Z"/><path class="a9b9e0a9-f2fd-45ce-b64f-bb9c45b4ba26" d="M362.65,582.73a.77.77,0,0,1,.27-.41A.77.77,0,0,0,362.65,582.73Z"/><path class="f90ded38-c1f2-46ab-b690-f43fca51b94e" d="M340.45,568.6h0a1.39,1.39,0,0,0,.33.26A1.39,1.39,0,0,1,340.45,568.6Z"/><path class="a9b9e0a9-f2fd-45ce-b64f-bb9c45b4ba26" d="M356.8,583.94a1.17,1.17,0,0,0,.58-.21A1.17,1.17,0,0,1,356.8,583.94Z"/><path class="a9b9e0a9-f2fd-45ce-b64f-bb9c45b4ba26" d="M370.29,580.81a1,1,0,0,0,.62-.64A1,1,0,0,1,370.29,580.81Z"/><path class="f90ded38-c1f2-46ab-b690-f43fca51b94e" d="M352.71,582.14h0a1.22,1.22,0,0,1,1.24-.4h0A1.22,1.22,0,0,0,352.71,582.14Z"/><path class="f90ded38-c1f2-46ab-b690-f43fca51b94e" d="M350.33,581.73a1.17,1.17,0,0,0,.38.48A1.17,1.17,0,0,1,350.33,581.73Z"/><path class="f90ded38-c1f2-46ab-b690-f43fca51b94e" d="M345.93,577a1.25,1.25,0,0,1,.43.57A1.25,1.25,0,0,0,345.93,577Z"/><path class="f90ded38-c1f2-46ab-b690-f43fca51b94e" d="M345.19,576.73a1.64,1.64,0,0,1,.4.12A1.64,1.64,0,0,0,345.19,576.73Z"/><path class="a9b9e0a9-f2fd-45ce-b64f-bb9c45b4ba26" d="M355.14,582.83h0a1.1,1.1,0,0,0,.58.87A1.1,1.1,0,0,1,355.14,582.83Z"/><path class="f90ded38-c1f2-46ab-b690-f43fca51b94e" d="M341.39,572.87a1.71,1.71,0,0,0,.75.16A1.71,1.71,0,0,1,341.39,572.87Z"/><path class="f90ded38-c1f2-46ab-b690-f43fca51b94e" d="M351.76,582.58a1.1,1.1,0,0,0,.95-.44h0A1.1,1.1,0,0,1,351.76,582.58Z"/><path class="a9b9e0a9-f2fd-45ce-b64f-bb9c45b4ba26" d="M354,581.73h0a1.33,1.33,0,0,1,1.19,1.09h0A1.33,1.33,0,0,0,354,581.73Z"/><path class="f90ded38-c1f2-46ab-b690-f43fca51b94e" d="M340.69,571.6a1,1,0,0,0,.19.87A1,1,0,0,1,340.69,571.6Z"/><path class="77feea8f-2b90-466f-9d6c-ca3a57e660b9" d="M404.55,519.33l-22.32,20.85a8.69,8.69,0,0,0-.42,12.25h0c.19.2.38.39.58.57l34.4-33.24A8.69,8.69,0,0,0,404.55,519.33Z"/><path class="13da343e-f205-41ec-9d1f-190c25ab66b1" d="M394.06,552.84,416.38,532a8.69,8.69,0,0,0,.42-12.25L382.39,553A8.69,8.69,0,0,0,394.06,552.84Z"/><path class="77feea8f-2b90-466f-9d6c-ca3a57e660b9" d="M342.95,549.53A8.11,8.11,0,1,0,354,561.38l5.83-5.44-11.07-11.85Z"/><path class="77feea8f-2b90-466f-9d6c-ca3a57e660b9" d="M376.81,574.1,371,579.54A8.11,8.11,0,1,0,382,591.39l5.83-5.44Z"/><path class="f5c334ab-7c0f-452e-9440-61a4671439e0" d="M390.73,583.28a28.64,28.64,0,0,0-39.1-41.86l-2.86,2.67,11.07,11.85,2.86-2.67a12.43,12.43,0,0,1,17,18.17l-2.86,2.67,11.07,11.85Z"/><path class="17f611eb-bba9-47d2-828e-d9d0dca824f2" d="M379.21,546.85c4,1.44,7.26,5.87,8.63,9.38,2.69,6.9,1.15,12.37-3.45,17.62"/></g><circle class="f5c334ab-7c0f-452e-9440-61a4671439e0" cx="417.22" cy="519.94" r="12.2" transform="translate(-248.51 554.79) rotate(-54.25)"/></g><g id="fc5a652e-a23e-44cb-b767-dde90f87f3ad" data-name="car2"><polygon class="e1cd4634-a13d-4123-8f8d-576a1d688857" points="693.88 533.89 716.7 537.45 699.31 543.03 693.88 533.89"/><path class="a9b9e0a9-f2fd-45ce-b64f-bb9c45b4ba26" d="M718.61,541.86a3.24,3.24,0,0,0-3-4.41H701.25a30.82,30.82,0,0,0-30.68-27.84H625.25A10.48,10.48,0,0,0,615,518.09h0l-12.53,18.29a5.44,5.44,0,0,0-1,1.08H589.25a10.47,10.47,0,0,0-10.44,10.44v1H715.9Z"/><path class="c7f7869b-12e2-4af9-892a-109635a8e1e3" d="M607.7,563.12c0,6.47-2.2,11.71-7.9,11.71-9.51,0-12.76-5.24-12.76-11.71s4.63-11.71,10.33-11.71S607.7,556.65,607.7,563.12Z"/><ellipse class="8ae13a37-7519-4678-b8c7-36f3b58c49f9" cx="600.84" cy="563.12" rx="10" ry="11.71"/><path class="c7f7869b-12e2-4af9-892a-109635a8e1e3" d="M605.1,555.57a10.84,10.84,0,0,1,.87,4.28c0,5.27-3.65,9.54-8.14,9.54a7.24,7.24,0,0,1-4.23-1.4,8.12,8.12,0,0,0,7.27,5.26c4.5,0,8.14-4.27,8.14-9.54A10,10,0,0,0,605.1,555.57Z"/><ellipse class="e121bf33-5a3e-40c1-843e-676ede5df38d" cx="600.84" cy="563.12" rx="4.29" ry="5.02"/><path class="e1cd4634-a13d-4123-8f8d-576a1d688857" d="M578.81,548.87v3.81a10.47,10.47,0,0,0,10.44,10.44H703.57a10.44,10.44,0,0,0,8.54-4.47h0a10.37,10.37,0,0,0,1.81-4.67l2-5.11Z"/><path class="c7f7869b-12e2-4af9-892a-109635a8e1e3" d="M667.5,563.12c0,6.47-2.2,11.71-7.9,11.71-9.51,0-12.76-5.24-12.76-11.71s4.63-11.71,10.33-11.71S667.5,556.65,667.5,563.12Z"/><path class="c7f7869b-12e2-4af9-892a-109635a8e1e3" d="M701.07,563.12c0,6.47-2.2,11.71-7.9,11.71-9.51,0-12.76-5.24-12.76-11.71s4.63-11.71,10.33-11.71S701.07,556.65,701.07,563.12Z"/><ellipse class="8ae13a37-7519-4678-b8c7-36f3b58c49f9" cx="661.67" cy="563.12" rx="10" ry="11.71"/><path class="c7f7869b-12e2-4af9-892a-109635a8e1e3" d="M666,555.57a10.84,10.84,0,0,1,.87,4.28c0,5.27-3.65,9.54-8.14,9.54a7.24,7.24,0,0,1-4.23-1.4,8.12,8.12,0,0,0,7.27,5.26c4.5,0,8.14-4.27,8.14-9.54A10,10,0,0,0,666,555.57Z"/><ellipse class="8ae13a37-7519-4678-b8c7-36f3b58c49f9" cx="694.62" cy="563.12" rx="10" ry="11.71"/><ellipse class="e121bf33-5a3e-40c1-843e-676ede5df38d" cx="662.22" cy="563.12" rx="4.29" ry="5.02"/><path class="c7f7869b-12e2-4af9-892a-109635a8e1e3" d="M698.82,555.57a10.84,10.84,0,0,1,.87,4.28c0,5.27-3.65,9.54-8.14,9.54a7.24,7.24,0,0,1-4.23-1.4,8.12,8.12,0,0,0,7.27,5.26c4.5,0,8.14-4.27,8.14-9.54A10,10,0,0,0,698.82,555.57Z"/><ellipse class="e121bf33-5a3e-40c1-843e-676ede5df38d" cx="695.02" cy="563.12" rx="4.29" ry="5.02"/><path class="e121bf33-5a3e-40c1-843e-676ede5df38d" d="M617.37,518.09l-12.7,19.36h39.72a7.33,7.33,0,0,0,6-2.57c1.49-1.94,1.2-4.62,1.52-7a37.44,37.44,0,0,1,.88-4.35c.48-1.86,1-3.69,1.7-5.49Z"/><path class="e121bf33-5a3e-40c1-843e-676ede5df38d" d="M662.07,517.41h17.34A10.09,10.09,0,0,1,689.5,527.5v7a2.23,2.23,0,0,1-2.23,2.23H659.79a1.85,1.85,0,0,1-1.85-1.85V521.54A4.13,4.13,0,0,1,662.07,517.41Z"/><path class="0b529b02-0390-4a6a-86be-e58b6c32c044" d="M685.5,522.24s-5.08,9.57-23.67,11.91h19.88c2.09,0,3.79-1.1,3.79-2.45Z"/><path class="0b529b02-0390-4a6a-86be-e58b6c32c044" d="M648.82,522.24s-5.08,9.57-23.67,11.91H645c2.09,0,3.79-1.1,3.79-2.45Z"/><rect class="a9b9e0a9-f2fd-45ce-b64f-bb9c45b4ba26" x="672.63" y="514.63" width="2.06" height="26.22"/><rect class="2f7f83c1-509c-4702-81f3-d5da79463a9a" x="583.93" y="553.26" width="60.47" height="5.03" rx="2.52" ry="2.52"/><circle class="e121bf33-5a3e-40c1-843e-676ede5df38d" cx="587.94" cy="548.87" r="5.44"/><circle class="e121bf33-5a3e-40c1-843e-676ede5df38d" cx="641.39" cy="548.87" r="5.44"/></g><g id="cd807272-02bc-4dfb-8dc4-897698abd554" data-name="car1"><polygon class="c5713eaa-561e-4c74-b3dd-21658ed4992d" points="809.65 552.07 832.47 555.63 815.07 561.21 809.65 552.07"/><path class="ae63f3d6-681c-430e-85aa-9fbe934a540c" d="M834.38,560a3.24,3.24,0,0,0-3-4.41H817a30.82,30.82,0,0,0-30.68-27.84H741a10.48,10.48,0,0,0-10.25,8.48h0l-12.53,18.29a5.44,5.44,0,0,0-1,1.08H705a10.47,10.47,0,0,0-10.44,10.44v1H831.66Z"/><path class="e1cd4634-a13d-4123-8f8d-576a1d688857" d="M723.47,581.3c0,6.47-2.2,11.71-7.9,11.71-9.51,0-12.76-5.24-12.76-11.71s4.63-11.71,10.33-11.71S723.47,574.83,723.47,581.3Z"/><ellipse class="56e477c9-917f-451b-8c72-0968b5985a86" cx="716.6" cy="581.3" rx="10" ry="11.71"/><path class="e1cd4634-a13d-4123-8f8d-576a1d688857" d="M720.86,573.74a10.84,10.84,0,0,1,.87,4.28c0,5.27-3.65,9.54-8.14,9.54a7.24,7.24,0,0,1-4.23-1.4,8.12,8.12,0,0,0,7.27,5.26c4.5,0,8.14-4.27,8.14-9.54A10,10,0,0,0,720.86,573.74Z"/><ellipse class="e121bf33-5a3e-40c1-843e-676ede5df38d" cx="716.6" cy="581.3" rx="4.29" ry="5.02"/><path class="c5713eaa-561e-4c74-b3dd-21658ed4992d" d="M694.58,567.05v3.81A10.47,10.47,0,0,0,705,581.3H819.33a10.44,10.44,0,0,0,8.54-4.47h0a10.37,10.37,0,0,0,1.81-4.67l2-5.11Z"/><path class="e1cd4634-a13d-4123-8f8d-576a1d688857" d="M783.26,581.3c0,6.47-2.2,11.71-7.9,11.71-9.51,0-12.76-5.24-12.76-11.71s4.63-11.71,10.33-11.71S783.26,574.83,783.26,581.3Z"/><path class="e1cd4634-a13d-4123-8f8d-576a1d688857" d="M816.83,581.3c0,6.47-2.2,11.71-7.9,11.71-9.51,0-12.76-5.24-12.76-11.71s4.63-11.71,10.33-11.71S816.83,574.83,816.83,581.3Z"/><ellipse class="56e477c9-917f-451b-8c72-0968b5985a86" cx="777.43" cy="581.3" rx="10" ry="11.71"/><path class="e1cd4634-a13d-4123-8f8d-576a1d688857" d="M781.78,573.74a10.84,10.84,0,0,1,.87,4.28c0,5.27-3.65,9.54-8.14,9.54a7.24,7.24,0,0,1-4.23-1.4,8.12,8.12,0,0,0,7.27,5.26c4.5,0,8.14-4.27,8.14-9.54A10,10,0,0,0,781.78,573.74Z"/><ellipse class="56e477c9-917f-451b-8c72-0968b5985a86" cx="810.38" cy="581.3" rx="10" ry="11.71"/><ellipse class="e121bf33-5a3e-40c1-843e-676ede5df38d" cx="777.99" cy="581.3" rx="4.29" ry="5.02"/><path class="e1cd4634-a13d-4123-8f8d-576a1d688857" d="M814.58,573.74a10.84,10.84,0,0,1,.87,4.28c0,5.27-3.65,9.54-8.14,9.54a7.24,7.24,0,0,1-4.23-1.4,8.12,8.12,0,0,0,7.27,5.26c4.5,0,8.14-4.27,8.14-9.54A10,10,0,0,0,814.58,573.74Z"/><ellipse class="e121bf33-5a3e-40c1-843e-676ede5df38d" cx="810.79" cy="581.3" rx="4.29" ry="5.02"/><path class="e121bf33-5a3e-40c1-843e-676ede5df38d" d="M733.13,536.27l-12.7,19.36h39.72a7.33,7.33,0,0,0,6-2.57c1.49-1.94,1.2-4.62,1.52-7a37.44,37.44,0,0,1,.88-4.35c.48-1.86,1-3.69,1.7-5.49Z"/><path class="e121bf33-5a3e-40c1-843e-676ede5df38d" d="M777.83,535.59h17.34a10.09,10.09,0,0,1,10.09,10.09v7A2.23,2.23,0,0,1,803,555H775.56a1.85,1.85,0,0,1-1.85-1.85V539.72a4.13,4.13,0,0,1,4.13-4.13Z"/><circle class="e121bf33-5a3e-40c1-843e-676ede5df38d" cx="711.68" cy="573.7" r="3.02"/><circle class="e121bf33-5a3e-40c1-843e-676ede5df38d" cx="751.18" cy="573.7" r="3.02"/><rect class="e121bf33-5a3e-40c1-843e-676ede5df38d" x="723.29" y="571.13" width="16.26" height="5.23" rx="2.62" ry="2.62"/><rect class="c5713eaa-561e-4c74-b3dd-21658ed4992d" x="730.76" y="525.95" width="70.07" height="6.86" rx="3.43" ry="3.43"/><path class="0b529b02-0390-4a6a-86be-e58b6c32c044" d="M801.26,540.42s-5.08,9.57-23.67,11.91h19.88c2.09,0,3.79-1.1,3.79-2.45Z"/><path class="0b529b02-0390-4a6a-86be-e58b6c32c044" d="M764.59,540.42s-5.08,9.57-23.67,11.91H760.8c2.09,0,3.79-1.1,3.79-2.45Z"/><rect class="ae63f3d6-681c-430e-85aa-9fbe934a540c" x="788.4" y="532.81" width="2.06" height="26.22"/></g><path class="e1cd4634-a13d-4123-8f8d-576a1d688857" d="M686.26,581.64h4.25c2,0,3.67,1.36,3.67,3v.52h0v8.89c0,1.66-1.65,3-3.67,3h-1.1c-2,0-3.67-1.36-3.67-3v-5.37c-2.12-.22-3.78-1.71-3.78-3.52h0C682,583.24,683.89,581.64,686.26,581.64Z"/><g id="3e06c657-d3d8-4452-9345-c8edc604df6f" data-name="bus"><path class="c5713eaa-561e-4c74-b3dd-21658ed4992d" d="M543.33,610.72v12a7.76,7.76,0,0,0,7.76,7.76h104V610.72Z"/><path class="ae63f3d6-681c-430e-85aa-9fbe934a540c" d="M655.06,562.06H562.61a19.29,19.29,0,0,0-19.29,19.29v29.37H655.06Z"/><path class="e1cd4634-a13d-4123-8f8d-576a1d688857" d="M665.63,629.24c0,5.11,1.73,9.25,6.24,9.25,7.51,0,10.08-4.14,10.08-9.25S678.3,620,673.79,620,665.63,624.13,665.63,629.24Z"/><ellipse class="56e477c9-917f-451b-8c72-0968b5985a86" cx="671.05" cy="629.24" rx="7.9" ry="9.25"/><path class="e1cd4634-a13d-4123-8f8d-576a1d688857" d="M667.69,623.27a8.56,8.56,0,0,0-.69,3.38c0,4.16,2.88,7.54,6.43,7.54a5.72,5.72,0,0,0,3.34-1.11,6.41,6.41,0,0,1-5.74,4.16c-3.55,0-6.43-3.37-6.43-7.54A7.87,7.87,0,0,1,667.69,623.27Z"/><ellipse class="e121bf33-5a3e-40c1-843e-676ede5df38d" cx="671.05" cy="629.24" rx="3.39" ry="3.97"/><path class="56e477c9-917f-451b-8c72-0968b5985a86" d="M635.09,562.06h44.24a6.72,6.72,0,0,1,6.72,6.72v39.88a21.83,21.83,0,0,1-21.83,21.83h-14a21.83,21.83,0,0,1-21.83-21.83V568.78a6.72,6.72,0,0,1,6.72-6.72Z" transform="translate(1314.42 1192.55) rotate(-180)"/><rect class="e121bf33-5a3e-40c1-843e-676ede5df38d" x="605.78" y="575.4" width="14.63" height="23.67" rx="1.61" ry="1.61" transform="translate(1226.19 1174.48) rotate(-180)"/><rect class="e121bf33-5a3e-40c1-843e-676ede5df38d" x="636.69" y="575.4" width="41.03" height="23.67" rx="2.36" ry="2.36" transform="translate(1314.42 1174.48) rotate(-180)"/><rect class="e121bf33-5a3e-40c1-843e-676ede5df38d" x="588.43" y="575.4" width="14.63" height="23.67" rx="1.61" ry="1.61" transform="translate(1191.5 1174.48) rotate(-180)"/><rect class="e121bf33-5a3e-40c1-843e-676ede5df38d" x="571.08" y="575.4" width="14.63" height="23.67" rx="1.61" ry="1.61" transform="translate(1156.8 1174.48) rotate(-180)"/><rect class="e121bf33-5a3e-40c1-843e-676ede5df38d" x="553.74" y="575.4" width="14.63" height="23.67" rx="1.61" ry="1.61" transform="translate(1122.1 1174.48) rotate(-180)"/><path class="e1cd4634-a13d-4123-8f8d-576a1d688857" d="M632.68,581.64h4.25c2,0,3.67,1.36,3.67,3v.52h0v8.89c0,1.66-1.65,3-3.67,3h-1.1c-2,0-3.67-1.36-3.67-3v-5.37c-2.12-.22-3.78-1.71-3.78-3.52h0C628.37,583.24,630.31,581.64,632.68,581.64Z"/><path class="e1cd4634-a13d-4123-8f8d-576a1d688857" d="M605.47,629.24c0,5.11,1.73,9.25,6.24,9.25,7.51,0,10.08-4.14,10.08-9.25s-3.65-9.25-8.16-9.25S605.47,624.13,605.47,629.24Z"/><path class="e1cd4634-a13d-4123-8f8d-576a1d688857" d="M579,629.24c0,5.11,1.73,9.25,6.24,9.25,7.51,0,10.08-4.14,10.08-9.25s-3.65-9.25-8.16-9.25S579,624.13,579,629.24Z"/><ellipse class="56e477c9-917f-451b-8c72-0968b5985a86" cx="610.08" cy="629.24" rx="7.9" ry="9.25"/><path class="e1cd4634-a13d-4123-8f8d-576a1d688857" d="M606.64,623.27a8.56,8.56,0,0,0-.69,3.38c0,4.16,2.88,7.54,6.43,7.54a5.72,5.72,0,0,0,3.34-1.11,6.41,6.41,0,0,1-5.74,4.16c-3.55,0-6.43-3.37-6.43-7.54A7.87,7.87,0,0,1,606.64,623.27Z"/><ellipse class="56e477c9-917f-451b-8c72-0968b5985a86" cx="584.05" cy="629.24" rx="7.9" ry="9.25"/><ellipse class="e121bf33-5a3e-40c1-843e-676ede5df38d" cx="611.83" cy="629.24" rx="3.39" ry="3.97"/><path class="e1cd4634-a13d-4123-8f8d-576a1d688857" d="M580.73,623.27a8.56,8.56,0,0,0-.69,3.38c0,4.16,2.88,7.54,6.43,7.54a5.72,5.72,0,0,0,3.34-1.11,6.41,6.41,0,0,1-5.74,4.16c-3.55,0-6.43-3.37-6.43-7.54A7.87,7.87,0,0,1,580.73,623.27Z"/><ellipse class="e121bf33-5a3e-40c1-843e-676ede5df38d" cx="585.92" cy="629.24" rx="3.39" ry="3.97"/><path class="e1cd4634-a13d-4123-8f8d-576a1d688857" d="M552.43,629.24c0,5.11,1.73,9.25,6.24,9.25,7.51,0,10.08-4.14,10.08-9.25S565.11,620,560.6,620,552.43,624.13,552.43,629.24Z"/><ellipse class="56e477c9-917f-451b-8c72-0968b5985a86" cx="557.53" cy="629.24" rx="7.9" ry="9.25"/><path class="e1cd4634-a13d-4123-8f8d-576a1d688857" d="M554.21,623.27a8.56,8.56,0,0,0-.69,3.38c0,4.16,2.88,7.54,6.43,7.54a5.72,5.72,0,0,0,3.34-1.11,6.41,6.41,0,0,1-5.74,4.16c-3.55,0-6.43-3.37-6.43-7.54A7.87,7.87,0,0,1,554.21,623.27Z"/><ellipse class="e121bf33-5a3e-40c1-843e-676ede5df38d" cx="559.4" cy="629.24" rx="3.39" ry="3.97"/><path class="95f19f20-d584-4bad-bac2-b3d426588b30" d="M683.77,609.88s-5,14.66-23.47,18.22H680a3.76,3.76,0,0,0,3.76-3.76Z"/><path class="0b529b02-0390-4a6a-86be-e58b6c32c044" d="M675.8,580.06s-6.27,14-29.21,17.41h24.53c2.58,0,4.68-1.61,4.68-3.59Z"/><path class="0b529b02-0390-4a6a-86be-e58b6c32c044" d="M619,590.73s-2.51,5.61-11.7,7h9.83a1.7,1.7,0,0,0,1.87-1.44Z"/><path class="0b529b02-0390-4a6a-86be-e58b6c32c044" d="M601.6,590.73s-2.51,5.61-11.7,7h9.83a1.7,1.7,0,0,0,1.87-1.44Z"/><path class="0b529b02-0390-4a6a-86be-e58b6c32c044" d="M584.18,590.73s-2.51,5.61-11.7,7h9.83a1.7,1.7,0,0,0,1.87-1.44Z"/><path class="0b529b02-0390-4a6a-86be-e58b6c32c044" d="M566.75,590.73s-2.51,5.61-11.7,7h9.83a1.7,1.7,0,0,0,1.87-1.44Z"/><rect class="56e477c9-917f-451b-8c72-0968b5985a86" x="656.13" y="575.4" width="2.15" height="23.67" transform="translate(1314.42 1174.48) rotate(-180)"/></g><path class="a9b9e0a9-f2fd-45ce-b64f-bb9c45b4ba26" d="M702.52,637.3a.84.84,0,0,0-.1-.4h0A.84.84,0,0,1,702.52,637.3Z"/><path class="a9b9e0a9-f2fd-45ce-b64f-bb9c45b4ba26" d="M702.43,636.9h0a.82.82,0,0,1-.09-.35A.82.82,0,0,0,702.43,636.9Z"/><path class="e945fc88-dbac-4d8f-b749-2275d1e9f0a5" d="M702.52,628.65c-.06-.08-3.36-4.45-8.64-4.57h-.18v9.2h.18C697.87,633.29,701.25,631.35,702.52,628.65Z"/><path class="e945fc88-dbac-4d8f-b749-2275d1e9f0a5" d="M678.2,631.66a.82.82,0,0,1,.19-.33A.82.82,0,0,0,678.2,631.66Z"/><path class="e945fc88-dbac-4d8f-b749-2275d1e9f0a5" d="M685.23,628.65c1.25,2.66,4.55,4.58,8.47,4.64v-9.2C688.52,624.07,685.29,628.56,685.23,628.65Z"/><path class="e945fc88-dbac-4d8f-b749-2275d1e9f0a5" d="M685.42,636.55a.82.82,0,0,1-.09.35h0A.82.82,0,0,0,685.42,636.55Z"/><path class="e945fc88-dbac-4d8f-b749-2275d1e9f0a5" d="M685.33,636.9a.84.84,0,0,0-.1.4.84.84,0,0,1,.1-.4Z"/><path class="a9b9e0a9-f2fd-45ce-b64f-bb9c45b4ba26" d="M709.43,626.9a.85.85,0,0,1-.24-.59A.85.85,0,0,0,709.43,626.9Z"/><path class="a9b9e0a9-f2fd-45ce-b64f-bb9c45b4ba26" d="M709.36,631.33a.82.82,0,0,1,.19.33A.82.82,0,0,0,709.36,631.33Z"/><path class="e945fc88-dbac-4d8f-b749-2275d1e9f0a5" d="M678.56,626.31a.85.85,0,0,1-.24.59A.85.85,0,0,0,678.56,626.31Z"/><path class="e945fc88-dbac-4d8f-b749-2275d1e9f0a5" d="M677.23,627.39a1.68,1.68,0,0,1,.36-.11,1.59,1.59,0,0,0,.42-.15,1.59,1.59,0,0,1-.42.15A1.68,1.68,0,0,0,677.23,627.39Z"/><path class="f488e9dd-3597-4c34-8333-4bcf370a507a" d="M693.7,624.09v-4.74a10.19,10.19,0,0,0-7.37,3,6.63,6.63,0,0,0-1,1.4,5.87,5.87,0,0,0-.3.68,5.32,5.32,0,0,0,.19,4.23C685.29,628.56,688.52,624.07,693.7,624.09Z"/><path class="a9b9e0a9-f2fd-45ce-b64f-bb9c45b4ba26" d="M702.7,624.42a5.87,5.87,0,0,0-.3-.68,6.63,6.63,0,0,0-1-1.4,10.23,10.23,0,0,0-7.54-3h-.18v4.74h.18c5.29.12,8.58,4.49,8.64,4.57a5.32,5.32,0,0,0,.19-4.23Z"/><path class="f488e9dd-3597-4c34-8333-4bcf370a507a" d="M677.59,627.27a1.59,1.59,0,0,0,.42-.15,1.14,1.14,0,0,0,.3-.23.85.85,0,0,0,.24-.59c0-.41-.32-.83-1-1h0a1.16,1.16,0,0,1-.91-.64.81.81,0,0,1-.06-.3h0l.34,3.14a1.26,1.26,0,0,1,.27-.17A1.68,1.68,0,0,1,677.59,627.27Z"/><path class="a9b9e0a9-f2fd-45ce-b64f-bb9c45b4ba26" d="M711.07,624.72a1.16,1.16,0,0,1-.91.64h0c-.65.13-1,.55-1,1a.85.85,0,0,0,.24.59,1.15,1.15,0,0,0,.3.23,1.59,1.59,0,0,0,.42.15,1.68,1.68,0,0,1,.36.11,1.26,1.26,0,0,1,.27.17l.34-3.14h0A.81.81,0,0,1,711.07,624.72Z"/><path class="f488e9dd-3597-4c34-8333-4bcf370a507a" d="M692.61,638.7h0a1.1,1.1,0,0,1-.79.68,1.8,1.8,0,0,1-1.11-.06,1.17,1.17,0,0,1-.5-.36.81.81,0,0,1-.16-.36.86.86,0,0,1,0-.21.86.86,0,0,0-.38-.76,1.48,1.48,0,0,0-.52-.24,1.76,1.76,0,0,0-.4-.05,1.67,1.67,0,0,0-.41,0,1.35,1.35,0,0,0-.54.27l-.15.15h0a1.56,1.56,0,0,1-2.2,0,.83.83,0,0,1-.18-.32.71.71,0,0,1,0-.18.84.84,0,0,1,.1-.4h0a.82.82,0,0,0,.09-.35.77.77,0,0,0-.14-.46,1.25,1.25,0,0,0-.57-.43,1.65,1.65,0,0,0-.8-.1,1.55,1.55,0,0,0-.42.11l-.2.1h0c-1.22.75-2.83-.47-1.84-1.4s-.24-1.92-1.48-1.55h0a1.71,1.71,0,0,1-.77.05l-.22-.06a1.35,1.35,0,0,1-.38-.19,1,1,0,0,1-.42-.78.73.73,0,0,1,0-.17.82.82,0,0,1,.19-.33,1.3,1.3,0,0,1,.39-.28c1.12-.55.56-1.88-.78-1.83a1.78,1.78,0,0,1-.49,0,1.39,1.39,0,0,1-.39-.16l.26,2.41c-1,.34-1.07,1.6.2,1.86l.2,1.86a1.51,1.51,0,0,1-.19.07c-1.52.31-1.16,2,.41,2,1.34-.05,1.91,1.27.78,1.83-1.32.65-.29,2.19,1.18,1.76h0c1.25-.37,2.33.76,1.48,1.55s.62,2.15,1.84,1.4h0c1-.64,2.53.18,2,1.13h0c-.57,1.12,1.46,1.9,2.32.9h0c.73-.86,2.47-.42,2.4.59-.08,1.19,2.16,1.46,2.57.31h0a1.22,1.22,0,0,1,1.09-.73V638A1.22,1.22,0,0,0,692.61,638.7Z"/><path class="a9b9e0a9-f2fd-45ce-b64f-bb9c45b4ba26" d="M710.16,635.22a1.51,1.51,0,0,1-.19-.07l.2-1.86c1.28-.27,1.21-1.53.2-1.86l.26-2.41a1.39,1.39,0,0,1-.39.16,1.78,1.78,0,0,1-.49,0c-1.34-.05-1.91,1.27-.78,1.83a1.3,1.3,0,0,1,.39.28.82.82,0,0,1,.19.33.73.73,0,0,1,0,.17,1,1,0,0,1-.42.78,1.35,1.35,0,0,1-.38.19l-.22.06a1.71,1.71,0,0,1-.77-.05h0c-1.25-.37-2.33.76-1.48,1.55s-.62,2.15-1.84,1.4h0l-.2-.1a1.55,1.55,0,0,0-.42-.11,1.65,1.65,0,0,0-.8.1,1.25,1.25,0,0,0-.57.43.77.77,0,0,0-.14.46.82.82,0,0,0,.09.35h0a.84.84,0,0,1,.1.4.71.71,0,0,1,0,.18.83.83,0,0,1-.18.32,1.56,1.56,0,0,1-2.2,0h0l-.15-.15a1.35,1.35,0,0,0-.54-.27,1.67,1.67,0,0,0-.41,0,1.76,1.76,0,0,0-.4.05,1.48,1.48,0,0,0-.52.24.86.86,0,0,0-.38.76.86.86,0,0,1,0,.21.81.81,0,0,1-.16.36,1.17,1.17,0,0,1-.5.36,1.8,1.8,0,0,1-1.11.06,1.1,1.1,0,0,1-.79-.68h0a1.33,1.33,0,0,0-1.44-.73v7.95a1.33,1.33,0,0,1,1.44.73h0c.4,1.15,2.65.88,2.57-.31-.07-1,1.67-1.45,2.4-.59h0c.85,1,2.88.22,2.32-.9h0c-.48-1,1-1.77,2-1.13h0c1.22.75,2.83-.47,1.84-1.4s.24-1.92,1.48-1.55h0c1.47.43,2.5-1.11,1.18-1.76-1.12-.55-.56-1.88.78-1.83C711.32,637.24,711.68,635.53,710.16,635.22Z"/><path class="f90ded38-c1f2-46ab-b690-f43fca51b94e" d="M677.51,629.18a1.78,1.78,0,0,0,.49,0c1.34-.05,1.91,1.27.78,1.83a1.3,1.3,0,0,0-.39.28.82.82,0,0,0-.19.33.73.73,0,0,0,0,.17,1,1,0,0,0,.42.78,1.35,1.35,0,0,0,.38.19l.22.06a1.71,1.71,0,0,0,.77-.05h0c1.25-.37,2.33.76,1.48,1.55s.62,2.15,1.84,1.4h0l.2-.1a1.55,1.55,0,0,1,.42-.11,1.65,1.65,0,0,1,.8.1,1.25,1.25,0,0,1,.57.43.77.77,0,0,1,.14.46.82.82,0,0,1-.09.35h0a.84.84,0,0,0-.1.4.71.71,0,0,0,0,.18.83.83,0,0,0,.18.32,1.56,1.56,0,0,0,2.2,0h0l.15-.15a1.35,1.35,0,0,1,.54-.27,1.66,1.66,0,0,1,.41,0,1.76,1.76,0,0,1,.4.05,1.48,1.48,0,0,1,.52.24.86.86,0,0,1,.38.76.86.86,0,0,0,0,.21.81.81,0,0,0,.16.36,1.17,1.17,0,0,0,.5.36,1.8,1.8,0,0,0,1.11.06,1.1,1.1,0,0,0,.79-.68h0a1.22,1.22,0,0,1,1.09-.73v-4.68c-3.91-.06-7.22-2-8.47-4.64h0a5,5,0,0,1-3-4.58c-.28-3.65,7.42-7.1,11.51-7.5v-1.92a1.22,1.22,0,0,1-1.09-.73c-.4-1.15-2.65-.88-2.57.31h0c.07,1-1.67,1.45-2.4.59s-2.88-.22-2.32.9c.48,1-1,1.77-2,1.13-1.22-.75-2.83.47-1.84,1.4h0c.84.79-.24,1.92-1.48,1.55h0c-1.47-.43-2.5,1.11-1.18,1.76,1.12.55.56,1.88-.78,1.83-.89,0-1.39.49-1.38,1a.81.81,0,0,0,.06.3,1.16,1.16,0,0,0,.91.64h0c.65.13,1,.55,1,1a.85.85,0,0,1-.24.59,1.14,1.14,0,0,1-.3.23,1.59,1.59,0,0,1-.42.15,1.68,1.68,0,0,0-.36.11,1.26,1.26,0,0,0-.27.17.87.87,0,0,0,.16,1.47h0A1.39,1.39,0,0,0,677.51,629.18Z"/><path class="f90ded38-c1f2-46ab-b690-f43fca51b94e" d="M685,624.42a5.87,5.87,0,0,1,.3-.68,6.63,6.63,0,0,1,1-1.4,10.19,10.19,0,0,1,7.37-3v-2.76c-4.09.4-11.79,3.84-11.51,7.5a5,5,0,0,0,3,4.58h0a5.32,5.32,0,0,1-.19-4.23Z"/><path class="1f34595f-de18-4c76-b17d-3f2b476b170b" d="M710.52,627.39a1.68,1.68,0,0,0-.36-.11,1.59,1.59,0,0,1-.42-.15,1.15,1.15,0,0,1-.3-.23.85.85,0,0,1-.24-.59c0-.41.32-.83,1-1h0a1.16,1.16,0,0,0,.91-.64.81.81,0,0,0,.06-.3c0-.52-.49-1.05-1.38-1-1.34.06-1.91-1.27-.78-1.83,1.32-.65.29-2.19-1.18-1.76h0c-1.25.37-2.33-.76-1.48-1.55h0c1-.93-.62-2.15-1.84-1.4-1,.64-2.53-.18-2-1.13.57-1.12-1.46-1.9-2.32-.9s-2.47.42-2.4-.59h0c.08-1.19-2.16-1.46-2.57-.31a1.33,1.33,0,0,1-1.44.73v4.68h.18a10.23,10.23,0,0,1,7.54,3,6.63,6.63,0,0,1,1,1.4,5.87,5.87,0,0,1,.3.68,5.32,5.32,0,0,1-.19,4.23c-1.26,2.7-4.65,4.64-8.64,4.64h-.18V638a1.33,1.33,0,0,1,1.44.73h0a1.1,1.1,0,0,0,.79.68,1.8,1.8,0,0,0,1.11-.06,1.17,1.17,0,0,0,.5-.36.81.81,0,0,0,.16-.36.86.86,0,0,0,0-.21.86.86,0,0,1,.38-.76,1.48,1.48,0,0,1,.52-.24,1.76,1.76,0,0,1,.4-.05,1.66,1.66,0,0,1,.41,0,1.35,1.35,0,0,1,.54.27l.15.15h0a1.56,1.56,0,0,0,2.2,0,.83.83,0,0,0,.18-.32.71.71,0,0,0,0-.18.84.84,0,0,0-.1-.4h0a.82.82,0,0,1-.09-.35.77.77,0,0,1,.14-.46,1.25,1.25,0,0,1,.57-.43,1.65,1.65,0,0,1,.8-.1,1.55,1.55,0,0,1,.42.11l.2.1h0c1.22.75,2.83-.47,1.84-1.4s.24-1.92,1.48-1.55h0a1.71,1.71,0,0,0,.77.05l.22-.06a1.35,1.35,0,0,0,.38-.19,1,1,0,0,0,.42-.78.73.73,0,0,0,0-.17.82.82,0,0,0-.19-.33,1.3,1.3,0,0,0-.39-.28c-1.12-.55-.56-1.88.78-1.83a1.78,1.78,0,0,0,.49,0,1.39,1.39,0,0,0,.39-.16h0a.87.87,0,0,0,.16-1.47A1.26,1.26,0,0,0,710.52,627.39Z"/><path class="f90ded38-c1f2-46ab-b690-f43fca51b94e" d="M676.68,624.72a.81.81,0,0,1-.06-.3h0A.81.81,0,0,0,676.68,624.72Z"/><path class="f90ded38-c1f2-46ab-b690-f43fca51b94e" d="M683.9,635.55a1.55,1.55,0,0,0-.42.11A1.55,1.55,0,0,1,683.9,635.55Z"/><path class="f90ded38-c1f2-46ab-b690-f43fca51b94e" d="M679,632.81a1.35,1.35,0,0,1-.38-.19A1.35,1.35,0,0,0,679,632.81Z"/><path class="f90ded38-c1f2-46ab-b690-f43fca51b94e" d="M688.33,637.38a1.35,1.35,0,0,0-.54.27A1.35,1.35,0,0,1,688.33,637.38Z"/><path class="f90ded38-c1f2-46ab-b690-f43fca51b94e" d="M688.74,637.34a1.66,1.66,0,0,0-.41,0A1.67,1.67,0,0,1,688.74,637.34Z"/><path class="f90ded38-c1f2-46ab-b690-f43fca51b94e" d="M685.44,637.8a.83.83,0,0,1-.18-.32A.83.83,0,0,0,685.44,637.8Z"/><path class="f90ded38-c1f2-46ab-b690-f43fca51b94e" d="M685.26,637.48a.71.71,0,0,1,0-.18A.71.71,0,0,0,685.26,637.48Z"/><path class="f90ded38-c1f2-46ab-b690-f43fca51b94e" d="M690.22,639a.81.81,0,0,1-.16-.36A.81.81,0,0,0,690.22,639Z"/><path class="a9b9e0a9-f2fd-45ce-b64f-bb9c45b4ba26" d="M704.27,635.66a1.55,1.55,0,0,0-.42-.11A1.55,1.55,0,0,1,704.27,635.66Z"/><path class="a9b9e0a9-f2fd-45ce-b64f-bb9c45b4ba26" d="M702.52,637.3a.71.71,0,0,1,0,.18A.71.71,0,0,0,702.52,637.3Z"/><path class="a9b9e0a9-f2fd-45ce-b64f-bb9c45b4ba26" d="M709.16,632.62a1.35,1.35,0,0,1-.38.19A1.35,1.35,0,0,0,709.16,632.62Z"/><path class="a9b9e0a9-f2fd-45ce-b64f-bb9c45b4ba26" d="M702.49,637.48a.83.83,0,0,1-.18.32A.83.83,0,0,0,702.49,637.48Z"/><path class="a9b9e0a9-f2fd-45ce-b64f-bb9c45b4ba26" d="M699.42,637.38a1.66,1.66,0,0,0-.41,0A1.67,1.67,0,0,1,699.42,637.38Z"/><path class="a9b9e0a9-f2fd-45ce-b64f-bb9c45b4ba26" d="M697.7,638.6a.81.81,0,0,1-.16.36A.81.81,0,0,0,697.7,638.6Z"/><path class="a9b9e0a9-f2fd-45ce-b64f-bb9c45b4ba26" d="M698.61,637.39a1.48,1.48,0,0,0-.52.24A1.48,1.48,0,0,1,698.61,637.39Z"/><path class="f90ded38-c1f2-46ab-b690-f43fca51b94e" d="M689.67,637.63a1.48,1.48,0,0,0-.52-.24A1.48,1.48,0,0,1,689.67,637.63Z"/><path class="a9b9e0a9-f2fd-45ce-b64f-bb9c45b4ba26" d="M700,637.65a1.35,1.35,0,0,0-.54-.27A1.35,1.35,0,0,1,700,637.65Z"/><path class="f90ded38-c1f2-46ab-b690-f43fca51b94e" d="M685.27,636.08a.77.77,0,0,1,.14.46A.77.77,0,0,0,685.27,636.08Z"/><path class="a9b9e0a9-f2fd-45ce-b64f-bb9c45b4ba26" d="M707.79,632.82a1.71,1.71,0,0,0,.77.05A1.71,1.71,0,0,1,707.79,632.82Z"/><path class="a9b9e0a9-f2fd-45ce-b64f-bb9c45b4ba26" d="M702.48,636.08a1.25,1.25,0,0,1,.57-.43A1.25,1.25,0,0,0,702.48,636.08Z"/><path class="a9b9e0a9-f2fd-45ce-b64f-bb9c45b4ba26" d="M703.44,635.55a1.64,1.64,0,0,1,.42,0A1.64,1.64,0,0,0,703.44,635.55Z"/><path class="a9b9e0a9-f2fd-45ce-b64f-bb9c45b4ba26" d="M702.33,636.55a.77.77,0,0,1,.14-.46A.77.77,0,0,0,702.33,636.55Z"/><path class="f90ded38-c1f2-46ab-b690-f43fca51b94e" d="M677.12,629h0a1.39,1.39,0,0,0,.39.16A1.39,1.39,0,0,1,677.12,629Z"/><path class="a9b9e0a9-f2fd-45ce-b64f-bb9c45b4ba26" d="M697,639.31a1.17,1.17,0,0,0,.5-.36A1.17,1.17,0,0,1,697,639.31Z"/><path class="a9b9e0a9-f2fd-45ce-b64f-bb9c45b4ba26" d="M709.16,632.62a1,1,0,0,0,.42-.78A1,1,0,0,1,709.16,632.62Z"/><path class="f90ded38-c1f2-46ab-b690-f43fca51b94e" d="M692.61,638.7h0a1.22,1.22,0,0,1,1.09-.73h0A1.22,1.22,0,0,0,692.61,638.7Z"/><path class="f90ded38-c1f2-46ab-b690-f43fca51b94e" d="M690.22,639a1.17,1.17,0,0,0,.5.36A1.17,1.17,0,0,1,690.22,639Z"/><path class="f90ded38-c1f2-46ab-b690-f43fca51b94e" d="M684.7,635.65a1.25,1.25,0,0,1,.57.43A1.25,1.25,0,0,0,684.7,635.65Z"/><path class="f90ded38-c1f2-46ab-b690-f43fca51b94e" d="M683.9,635.55a1.64,1.64,0,0,1,.42,0A1.64,1.64,0,0,0,683.9,635.55Z"/><path class="a9b9e0a9-f2fd-45ce-b64f-bb9c45b4ba26" d="M695.14,638.7h0a1.1,1.1,0,0,0,.79.68A1.1,1.1,0,0,1,695.14,638.7Z"/><path class="f90ded38-c1f2-46ab-b690-f43fca51b94e" d="M679.19,632.87a1.71,1.71,0,0,0,.77-.05A1.71,1.71,0,0,1,679.19,632.87Z"/><path class="f90ded38-c1f2-46ab-b690-f43fca51b94e" d="M691.82,639.38a1.1,1.1,0,0,0,.79-.68h0A1.1,1.1,0,0,1,691.82,639.38Z"/><path class="a9b9e0a9-f2fd-45ce-b64f-bb9c45b4ba26" d="M693.7,638h0a1.33,1.33,0,0,1,1.44.73h0A1.33,1.33,0,0,0,693.7,638Z"/><path class="f90ded38-c1f2-46ab-b690-f43fca51b94e" d="M678.17,631.84a1,1,0,0,0,.42.78A1,1,0,0,1,678.17,631.84Z"/><path class="77feea8f-2b90-466f-9d6c-ca3a57e660b9" d="M568,492.64v32.68a8.84,8.84,0,0,0,8.81,8.81V483.83A8.84,8.84,0,0,0,568,492.64Z"/><path class="13da343e-f205-41ec-9d1f-190c25ab66b1" d="M576.83,483.83v50.31a8.84,8.84,0,0,0,8.81-8.81V492.64A8.84,8.84,0,0,0,576.83,483.83Z"/><path class="77feea8f-2b90-466f-9d6c-ca3a57e660b9" d="M585.64,533.57h0a8.84,8.84,0,0,0-8.81-8.81H513.37a18.77,18.77,0,0,0-2,8.81c0,.14,0,.27,0,.4h74.28C585.63,533.83,585.64,533.7,585.64,533.57Z"/><path class="13da343e-f205-41ec-9d1f-190c25ab66b1" d="M511.34,534a18.62,18.62,0,0,0,2,8.41h63.46a8.83,8.83,0,0,0,8.79-8.41Z"/><ellipse class="77feea8f-2b90-466f-9d6c-ca3a57e660b9" cx="575.11" cy="472.37" rx="44.97" ry="18.19"/><path class="f5c334ab-7c0f-452e-9440-61a4671439e0" d="M530.15,472.37h89.93a0,0,0,0,1,0,0v17.21a5.47,5.47,0,0,1-5.47,5.47h-79a5.47,5.47,0,0,1-5.47-5.47V472.37A0,0,0,0,1,530.15,472.37Z"/><path class="9b219d00-d7dd-4138-b9df-acf3c7b3f530" d="M575.11,454.18v18.19h45C620.08,462.32,599.95,454.18,575.11,454.18Z"/><path class="fbba29a4-ce4a-4fc7-be31-85e3bb5151cc" d="M575.11,472.37v22.68h39.72a5.25,5.25,0,0,0,5.25-5.25V472.37Z"/><path class="034a118b-857c-4fae-a3c8-2e2e70b81b0f" d="M613.12,410.94A45.57,45.57,0,0,0,610,394c-5.63-13.55-20.12-22.73-35.85-22.73-16.77,0-31,9.92-36.24,23.74l0,.06c-.32.84-.6,1.69-.85,2.56-1.84,5.21-4.36,10.72-4.36,10.72l-4.35,6.08c-2.56,3.57.22,8.33,4.86,8.33h2.59v14.82c0,5.27,4.68,9.58,10.39,9.58h3.13l.77.71v14.55a3.77,3.77,0,0,0,3.91,3.6h42a3.77,3.77,0,0,0,3.91-3.6v-8.13a22.08,22.08,0,0,1,4.46-13C610.13,433.34,613.21,421.85,613.12,410.94Z"/><path class="e121bf33-5a3e-40c1-843e-676ede5df38d" d="M574.75,401.71c-1.63,0-3.54.89-5.05,4.13-1.74,3.8-2.69,4.37-4.83,4.37-3,0-5.16-2.18-5.16-6.55a14.84,14.84,0,0,1,15.1-14.08c10.55,0,15.72,7.77,15.72,16.34,0,13.67-10.16,13.75-11.9,19.26-1,3.24-2.53,4-5.17,4-3.2,0-4.43-2.75-4.43-6.39,0-4.69,2.25-7.52,5.22-9.71,3.59-2.67,4.38-3.72,4.38-6.88C578.62,402.84,576.88,401.71,574.75,401.71Z"/><circle class="e121bf33-5a3e-40c1-843e-676ede5df38d" cx="573.83" cy="437.04" r="4.65"/><circle class="f5c334ab-7c0f-452e-9440-61a4671439e0" cx="575.11" cy="533" r="12.2" transform="translate(-166.58 278.56) rotate(-23.89)"/><path class="c6725378-bcdf-4090-8041-26e32515d650" d="M572.32,521.13a12.19,12.19,0,0,1-1.49,23.29,12.2,12.2,0,1,0,1.49-23.29Z"/><path class="c6725378-bcdf-4090-8041-26e32515d650" d="M513.37,524.75s-1.3,11.49,3.17,17.62h-3.17A19.83,19.83,0,0,1,513.37,524.75Z"/><path class="64fe8aa9-5e9f-4fcc-8d36-52607a975090" d="M815.74,374.72a31.17,31.17,0,0,0-33.39,28.77c-.06.87-.08,1.74-.08,2.59l31,2.3Z"/><path class="64fe8aa9-5e9f-4fcc-8d36-52607a975090" d="M815.74,374.72l-2.5,33.67-31-2.3a31.16,31.16,0,1,0,33.47-31.36Z"/><g id="d9709fe6-178a-4b6d-b9bc-b64031d34692" data-name="hand1"><path class="13da343e-f205-41ec-9d1f-190c25ab66b1" d="M700.49,359,666.78,476.11a18.85,18.85,0,0,0,8.81,0l10.52-35.85,20.25-70.51A8.69,8.69,0,0,0,700.49,359Z"/><path class="77feea8f-2b90-466f-9d6c-ca3a57e660b9" d="M700.45,359a8.69,8.69,0,0,0-10.74,5.91l-20.35,70.85-10.7,36.47a18.82,18.82,0,0,0,8.07,3.87h0L700.49,359Z"/><path class="64fe8aa9-5e9f-4fcc-8d36-52607a975090" d="M759.3,390.31a11.09,11.09,0,0,1,17-14"/><path class="77feea8f-2b90-466f-9d6c-ca3a57e660b9" d="M696.3,378.17a7.36,7.36,0,0,1-1.87-.37c-3.63-1.21-7.92-4.83-7.7-15.16a71.59,71.59,0,0,1,11.71-35.08c6-8.39,11.63-8.7,15.26-7.49a7.37,7.37,0,0,1-1.88,14.35c-1.61,1.63-4.83,6.42-7.56,14.58s-3,13.93-2.72,16.2a7.37,7.37,0,0,1-5.24,13Z"/><g id="c239eec6-ac88-4ea6-8c3b-41b94676cc68" data-name="pencil"><circle class="2366c1af-db6b-48b4-8f53-e953e6b9f739" cx="768.61" cy="371.54" r="3.41" transform="translate(172.88 983.02) rotate(-71.55)"/><path class="e121bf33-5a3e-40c1-843e-676ede5df38d" d="M740.08,377.75l25.37-4.17a3.32,3.32,0,0,0,1.86-5.57l-17.78-18.58Z"/><polygon class="1add673f-43e1-4eae-98ff-574ce9deea53" points="657.36 350.14 727.81 373.66 735.5 376.22 740.08 377.75 750.93 365.64 662.09 335.99 657.36 350.14"/><polygon class="f5c334ab-7c0f-452e-9440-61a4671439e0" points="662.09 335.99 750.93 365.64 750.93 365.64 749.52 349.43 744.95 347.91 737.26 345.34 666.81 321.83 662.09 335.99"/><polygon class="e121bf33-5a3e-40c1-843e-676ede5df38d" points="650.23 332.03 661.09 319.92 673.35 324.01 674.76 340.22 663.9 352.33 651.64 348.24 650.23 332.03"/><ellipse class="2366c1af-db6b-48b4-8f53-e953e6b9f739" cx="662.13" cy="335.84" rx="6" ry="4.63" transform="translate(133.96 857.61) rotate(-71.55)"/></g><path class="77feea8f-2b90-466f-9d6c-ca3a57e660b9" d="M697,378.31a10,10,0,0,1-2.54-.5,7.37,7.37,0,0,1,1.88-14.35c1.61-1.63,4.83-6.42,7.56-14.58s3-13.93,2.72-16.2a7.37,7.37,0,0,1,7.12-12.6c10.16,3.39,8.81,19.51,4.15,33.46a64.79,64.79,0,0,1-8.16,16.77C704.92,376.93,700.43,378.53,697,378.31ZM709,334.06h0Z"/><path class="13da343e-f205-41ec-9d1f-190c25ab66b1" d="M710.54,323.48a6.32,6.32,0,0,0-3.1-.23l.18,0c8.76,2.92,7.59,16.81,3.58,28.84a55.83,55.83,0,0,1-7,14.45c-3.45,4.8-6.74,6.53-9.47,6.84a8.35,8.35,0,0,0,1.43.23c3,.19,6.86-1.18,11-6.89a55.83,55.83,0,0,0,7-14.45C718.13,340.29,719.3,326.4,710.54,323.48Z"/><rect class="f5c334ab-7c0f-452e-9440-61a4671439e0" x="683.05" y="372.43" width="24.47" height="8.49" rx="4.24" ry="4.24" transform="translate(123.97 -170.05) rotate(15.29)"/><rect class="f5c334ab-7c0f-452e-9440-61a4671439e0" x="680.1" y="383.23" width="24.47" height="8.49" rx="4.24" ry="4.24" transform="translate(126.71 -168.88) rotate(15.29)"/><path class="64fe8aa9-5e9f-4fcc-8d36-52607a975090" d="M776.34,376.27a11.09,11.09,0,1,1-17,14"/></g><path class="c6725378-bcdf-4090-8041-26e32515d650" d="M677.18,470.51s-5.63,6.49-18.51,1.75c0,0,7.18,6.5,16.93,3.82Z"/><rect class="c7f7869b-12e2-4af9-892a-109635a8e1e3" x="718.36" y="484.18" width="31.15" height="1.61" transform="translate(31.14 1014.1) rotate(-70.43)"/><rect class="c7f7869b-12e2-4af9-892a-109635a8e1e3" x="733.13" y="469.41" width="1.61" height="31.15" transform="translate(31.14 1014.1) rotate(-70.43)"/><rect class="c7f7869b-12e2-4af9-892a-109635a8e1e3" x="718.36" y="484.18" width="31.15" height="1.61" transform="translate(-75.51 140.49) rotate(-10.4)"/><rect class="c7f7869b-12e2-4af9-892a-109635a8e1e3" x="733.13" y="469.41" width="1.61" height="31.15" transform="translate(-139.26 591.82) rotate(-40.43)"/><rect class="c7f7869b-12e2-4af9-892a-109635a8e1e3" x="733.13" y="469.41" width="1.61" height="31.15" transform="translate(-75.69 140.91) rotate(-10.43)"/><rect class="c7f7869b-12e2-4af9-892a-109635a8e1e3" x="718.36" y="484.18" width="31.15" height="1.61" transform="translate(-139.2 592.28) rotate(-40.46)"/><path class="c7f7869b-12e2-4af9-892a-109635a8e1e3" d="M742,462.2a24.18,24.18,0,1,0,14.69,30.88A24.18,24.18,0,0,0,742,462.2Zm-12.48,35a13.82,13.82,0,1,1,17.65-8.39A13.82,13.82,0,0,1,729.55,497.21Z"/><path class="27b3b5ba-5591-4433-8b68-6277af19a609" d="M756.95,478.23A24.18,24.18,0,0,1,709.62,487a24.18,24.18,0,1,0,47.33-8.73Z"/><path class="f90ded38-c1f2-46ab-b690-f43fca51b94e" d="M738.81,471.16a13.82,13.82,0,1,0,8.39,17.65A13.82,13.82,0,0,0,738.81,471.16Zm-8.73,24.66A12.43,12.43,0,1,1,746,488.28,12.43,12.43,0,0,1,730.08,495.83Z"/><path class="3e139d26-b131-4664-b055-cb1600c3af6d" d="M714.14,479.08s-3.83,9.32,4.38,17.74"/><circle class="f90ded38-c1f2-46ab-b690-f43fca51b94e" cx="733.89" cy="485.01" r="4.3" transform="translate(-70.41 841.28) rotate(-57.35)"/><path class="a9b9e0a9-f2fd-45ce-b64f-bb9c45b4ba26" d="M736.84,481.88A4.29,4.29,0,0,1,729.7,486a4.3,4.3,0,1,0,7.14-4.09Z"/><g id="70b92d78-bb67-4a0a-a5cb-4c90d110d89e" data-name="tri1"><path class="19469105-acd7-433f-aa4f-6ef46ca1d533" d="M182.62,506.38c0,2.79,7.25,5.05,18.73,5.15v-5.15Z"/><path class="19469105-acd7-433f-aa4f-6ef46ca1d533" d="M185.55,503.54c-1.89-.82-2.93-1.79-2.93-2.84v5.68C182.62,505.33,183.66,504.35,185.55,503.54Z"/><path class="19469105-acd7-433f-aa4f-6ef46ca1d533" d="M201.35,505.85c-7.15-.06-12.66-1-15.8-2.31-1.89.82-2.93,1.79-2.93,2.84h18.73Z"/><path class="2366c1af-db6b-48b4-8f53-e953e6b9f739" d="M218.72,503.54c-3.25,1.4-9,2.32-16.59,2.32h-.79v5.68h.79c11.94,0,19.52-2.31,19.52-5.16V500.7C221.65,501.75,220.62,502.72,218.72,503.54Z"/><path class="8cdc8972-c3d3-4ae1-8a0c-da317d1fab1f" d="M186.51,499.86a1,1,0,0,1,.13-.46l.61-2.15c-3,.91-4.63,2.12-4.63,3.45h4.31A1.24,1.24,0,0,1,186.51,499.86Z"/><path class="8cdc8972-c3d3-4ae1-8a0c-da317d1fab1f" d="M185.55,503.54a23.13,23.13,0,0,1,4.52-1.31,7.46,7.46,0,0,1-3.15-1.53h-4.31C182.62,501.75,183.66,502.72,185.55,503.54Z"/><path class="8cdc8972-c3d3-4ae1-8a0c-da317d1fab1f" d="M190.07,502.23a23.13,23.13,0,0,0-4.52,1.31c3.13,1.35,8.65,2.25,15.8,2.31v-2.27A45.17,45.17,0,0,1,190.07,502.23Z"/><path class="1922672b-51c9-4b99-b3b2-5a7ddb4e98ad" d="M216.91,497.21l.68,2.13a1,1,0,0,1,.16.51,1.24,1.24,0,0,1-.41.84,7.46,7.46,0,0,1-3.15,1.53,46.41,46.41,0,0,1-12.06,1.36h-.79v2.27h.79c7.54,0,13.34-.92,16.59-2.32,1.89-.82,2.93-1.79,2.93-2.84C221.65,499.35,219.95,498.13,216.91,497.21Z"/><path class="8cdc8972-c3d3-4ae1-8a0c-da317d1fab1f" d="M192.47,478.67c-.43.24-.67.5-.67.77.11.09.25.18.38.27Z"/><path class="19469105-acd7-433f-aa4f-6ef46ca1d533" d="M201.35,486.07h-.05c-4.62,0-8.34-1.08-9.89-2.53a1.24,1.24,0,0,1-.22-.28l-3.93,14a52,52,0,0,1,14.1-1.7Z"/><path class="19469105-acd7-433f-aa4f-6ef46ca1d533" d="M201.35,460.72c-1.83,0-3.31-.49-3.51-1.12l-5.37,19.08c1.39-.78,4.81-1.34,8.88-1.38Z"/><path class="19469105-acd7-433f-aa4f-6ef46ca1d533" d="M194.25,480.86a18.34,18.34,0,0,0,7.1,1.36v-.62A32.66,32.66,0,0,1,194.25,480.86Z"/><path class="19469105-acd7-433f-aa4f-6ef46ca1d533" d="M201.35,496.13v-.59a52,52,0,0,0-14.1,1.7l-.61,2.15C187.55,497.62,193.73,496.22,201.35,496.13Z"/><path class="2366c1af-db6b-48b4-8f53-e953e6b9f739" d="M210.94,478.55l-6.08-19c-.19.63-1.68,1.13-3.51,1.13v21.5h.05a22,22,0,0,0,6.14-1,22.87,22.87,0,0,0,3.78-1.48Z"/><path class="19469105-acd7-433f-aa4f-6ef46ca1d533" d="M194.25,480.86a32.66,32.66,0,0,0,7.1.74v-4.3c-4.06,0-7.49.6-8.88,1.38l-.29,1A11.07,11.07,0,0,0,194.25,480.86Z"/><path class="8cdc8972-c3d3-4ae1-8a0c-da317d1fab1f" d="M201.35,459.46v-1.26c-2,0-3.55.57-3.55,1.26a.49.49,0,0,0,0,.14l0-.14Z"/><path class="8cdc8972-c3d3-4ae1-8a0c-da317d1fab1f" d="M201.35,460.72v-1.26h-3.47l0,.14C198,460.23,199.52,460.72,201.35,460.72Z"/><path class="1922672b-51c9-4b99-b3b2-5a7ddb4e98ad" d="M201.35,458.19v2.52c1.84,0,3.33-.5,3.51-1.13a.49.49,0,0,0,0-.13C204.9,458.76,203.31,458.19,201.35,458.19Z"/><path class="8cdc8972-c3d3-4ae1-8a0c-da317d1fab1f" d="M191.8,479.44l-.75,2.88a1.23,1.23,0,0,0,.13.93l.93-3.3A.73.73,0,0,1,191.8,479.44Z"/><path class="8cdc8972-c3d3-4ae1-8a0c-da317d1fab1f" d="M192.11,480l.07-.25c-.13-.09-.27-.18-.38-.27A.73.73,0,0,0,192.11,480Z"/><path class="8cdc8972-c3d3-4ae1-8a0c-da317d1fab1f" d="M201.3,486.07h.05v-3.85a18.34,18.34,0,0,1-7.1-1.36,5.56,5.56,0,0,1-2.14-.89l-.93,3.3a1.24,1.24,0,0,0,.22.28C193,485,196.68,486.07,201.3,486.07Z"/><path class="1922672b-51c9-4b99-b3b2-5a7ddb4e98ad" d="M212.52,482.08l-.68-2.63c0-.32-.33-.62-.91-.89l.38,1.18a22.87,22.87,0,0,1-3.78,1.48,22,22,0,0,1-6.14,1h-.05v3.85c4,0,8.64-1.29,10.62-2.56a1.28,1.28,0,0,0,.41-.46A1.3,1.3,0,0,0,212.52,482.08Z"/><path class="8cdc8972-c3d3-4ae1-8a0c-da317d1fab1f" d="M192.11,480a5.56,5.56,0,0,0,2.14.89,11.07,11.07,0,0,1-2.07-1.14Z"/><path class="19469105-acd7-433f-aa4f-6ef46ca1d533" d="M217.6,499.34l.16.51A1,1,0,0,0,217.6,499.34Z"/><path class="19469105-acd7-433f-aa4f-6ef46ca1d533" d="M186.51,499.86l.13-.46A1,1,0,0,0,186.51,499.86Z"/><path class="19469105-acd7-433f-aa4f-6ef46ca1d533" d="M201.35,499.86H186.51a1.24,1.24,0,0,0,.41.84h14.42Z"/><path class="19469105-acd7-433f-aa4f-6ef46ca1d533" d="M201.35,500.7H186.93a7.46,7.46,0,0,0,3.15,1.53,62,62,0,0,1,11.27-1Z"/><path class="19469105-acd7-433f-aa4f-6ef46ca1d533" d="M201.35,501.23a62,62,0,0,0-11.27,1,45.17,45.17,0,0,0,11.27,1.35Z"/><path class="2366c1af-db6b-48b4-8f53-e953e6b9f739" d="M217.6,499.34l-.68-2.13L212.38,483a1.28,1.28,0,0,1-.41.46c-2,1.27-6.65,2.55-10.62,2.56v17.5h.79a46.41,46.41,0,0,0,12.06-1.36,7.46,7.46,0,0,0,3.15-1.53,1.24,1.24,0,0,0,.41-.84Z"/><path class="19469105-acd7-433f-aa4f-6ef46ca1d533" d="M201.35,496.13c-7.62.09-13.79,1.48-14.71,3.27l-.13.46h14.83Z"/></g><g id="aa3aa5e3-c121-4653-80d9-1feb6cdb683b" data-name="tri3"><path class="19469105-acd7-433f-aa4f-6ef46ca1d533" d="M97.58,543.87c0,2.79,7.25,5.05,18.73,5.15v-5.15Z"/><path class="19469105-acd7-433f-aa4f-6ef46ca1d533" d="M100.51,541c-1.89-.82-2.93-1.79-2.93-2.84v5.68C97.58,542.82,98.62,541.84,100.51,541Z"/><path class="19469105-acd7-433f-aa4f-6ef46ca1d533" d="M116.31,543.34c-7.15-.06-12.66-1-15.8-2.31-1.89.82-2.93,1.79-2.93,2.84h18.73Z"/><path class="2366c1af-db6b-48b4-8f53-e953e6b9f739" d="M133.68,541c-3.25,1.4-9,2.32-16.59,2.32h-.79V549h.79c11.94,0,19.52-2.31,19.52-5.16v-5.68C136.61,539.23,135.58,540.21,133.68,541Z"/><path class="8cdc8972-c3d3-4ae1-8a0c-da317d1fab1f" d="M101.47,537.34a1,1,0,0,1,.13-.46l.61-2.15c-3,.91-4.63,2.12-4.63,3.45h4.31A1.24,1.24,0,0,1,101.47,537.34Z"/><path class="8cdc8972-c3d3-4ae1-8a0c-da317d1fab1f" d="M100.51,541a23.13,23.13,0,0,1,4.52-1.31,7.46,7.46,0,0,1-3.15-1.53H97.58C97.58,539.23,98.62,540.21,100.51,541Z"/><path class="8cdc8972-c3d3-4ae1-8a0c-da317d1fab1f" d="M105,539.71a23.13,23.13,0,0,0-4.52,1.31c3.13,1.35,8.65,2.25,15.8,2.31v-2.27A45.17,45.17,0,0,1,105,539.71Z"/><path class="1922672b-51c9-4b99-b3b2-5a7ddb4e98ad" d="M131.87,534.7l.68,2.13a1,1,0,0,1,.16.51,1.24,1.24,0,0,1-.41.84,7.46,7.46,0,0,1-3.15,1.53,46.41,46.41,0,0,1-12.06,1.36h-.79v2.27h.79c7.54,0,13.34-.92,16.59-2.32,1.89-.82,2.93-1.79,2.93-2.84C136.61,536.84,134.91,535.62,131.87,534.7Z"/><path class="8cdc8972-c3d3-4ae1-8a0c-da317d1fab1f" d="M107.43,516.16c-.43.24-.67.5-.67.77.11.09.25.18.38.27Z"/><path class="19469105-acd7-433f-aa4f-6ef46ca1d533" d="M116.31,523.56h-.05c-4.62,0-8.34-1.08-9.89-2.53a1.24,1.24,0,0,1-.22-.28l-3.93,14a52,52,0,0,1,14.1-1.7Z"/><path class="19469105-acd7-433f-aa4f-6ef46ca1d533" d="M116.31,498.21c-1.83,0-3.31-.49-3.51-1.12l-5.37,19.08c1.39-.78,4.81-1.34,8.88-1.38Z"/><path class="19469105-acd7-433f-aa4f-6ef46ca1d533" d="M109.21,518.34a18.34,18.34,0,0,0,7.1,1.36v-.62A32.66,32.66,0,0,1,109.21,518.34Z"/><path class="19469105-acd7-433f-aa4f-6ef46ca1d533" d="M116.31,533.62V533a52,52,0,0,0-14.1,1.7l-.61,2.15C102.51,535.1,108.69,533.71,116.31,533.62Z"/><path class="2366c1af-db6b-48b4-8f53-e953e6b9f739" d="M125.9,516l-6.08-19c-.19.63-1.68,1.13-3.51,1.13v21.5h.05a22,22,0,0,0,6.14-1,22.87,22.87,0,0,0,3.78-1.48Z"/><path class="19469105-acd7-433f-aa4f-6ef46ca1d533" d="M109.21,518.34a32.66,32.66,0,0,0,7.1.74v-4.3c-4.06,0-7.49.6-8.88,1.38l-.29,1A11.07,11.07,0,0,0,109.21,518.34Z"/><path class="8cdc8972-c3d3-4ae1-8a0c-da317d1fab1f" d="M116.31,496.94v-1.26c-2,0-3.55.57-3.55,1.26a.49.49,0,0,0,0,.14l0-.14Z"/><path class="8cdc8972-c3d3-4ae1-8a0c-da317d1fab1f" d="M116.31,498.21v-1.26h-3.47l0,.14C113,497.71,114.48,498.21,116.31,498.21Z"/><path class="1922672b-51c9-4b99-b3b2-5a7ddb4e98ad" d="M116.31,495.68v2.52c1.84,0,3.33-.5,3.51-1.13a.49.49,0,0,0,0-.13C119.86,496.25,118.27,495.68,116.31,495.68Z"/><path class="8cdc8972-c3d3-4ae1-8a0c-da317d1fab1f" d="M106.76,516.93l-.75,2.88a1.23,1.23,0,0,0,.13.93l.93-3.3A.73.73,0,0,1,106.76,516.93Z"/><path class="8cdc8972-c3d3-4ae1-8a0c-da317d1fab1f" d="M107.07,517.45l.07-.25c-.13-.09-.27-.18-.38-.27A.73.73,0,0,0,107.07,517.45Z"/><path class="8cdc8972-c3d3-4ae1-8a0c-da317d1fab1f" d="M116.25,523.56h.05v-3.85a18.34,18.34,0,0,1-7.1-1.36,5.56,5.56,0,0,1-2.14-.89l-.93,3.3a1.24,1.24,0,0,0,.22.28C107.91,522.48,111.64,523.56,116.25,523.56Z"/><path class="1922672b-51c9-4b99-b3b2-5a7ddb4e98ad" d="M127.48,519.57l-.68-2.63c0-.32-.33-.62-.91-.89l.38,1.18a22.87,22.87,0,0,1-3.78,1.48,22,22,0,0,1-6.14,1h-.05v3.85c4,0,8.64-1.29,10.62-2.56a1.28,1.28,0,0,0,.41-.46A1.3,1.3,0,0,0,127.48,519.57Z"/><path class="8cdc8972-c3d3-4ae1-8a0c-da317d1fab1f" d="M107.07,517.45a5.56,5.56,0,0,0,2.14.89,11.07,11.07,0,0,1-2.07-1.14Z"/><path class="19469105-acd7-433f-aa4f-6ef46ca1d533" d="M132.56,536.83l.16.51A1,1,0,0,0,132.56,536.83Z"/><path class="19469105-acd7-433f-aa4f-6ef46ca1d533" d="M101.47,537.34l.13-.46A1,1,0,0,0,101.47,537.34Z"/><path class="19469105-acd7-433f-aa4f-6ef46ca1d533" d="M116.31,537.34H101.47a1.24,1.24,0,0,0,.41.84h14.42Z"/><path class="19469105-acd7-433f-aa4f-6ef46ca1d533" d="M116.31,538.18H101.89a7.46,7.46,0,0,0,3.15,1.53,62,62,0,0,1,11.27-1Z"/><path class="19469105-acd7-433f-aa4f-6ef46ca1d533" d="M116.31,538.71a62,62,0,0,0-11.27,1,45.17,45.17,0,0,0,11.27,1.35Z"/><path class="2366c1af-db6b-48b4-8f53-e953e6b9f739" d="M132.56,536.83l-.68-2.13-4.54-14.16a1.28,1.28,0,0,1-.41.46c-2,1.27-6.65,2.55-10.62,2.56v17.5h.79a46.41,46.41,0,0,0,12.06-1.36,7.46,7.46,0,0,0,3.15-1.53,1.24,1.24,0,0,0,.41-.84Z"/><path class="19469105-acd7-433f-aa4f-6ef46ca1d533" d="M116.31,533.62c-7.62.09-13.79,1.48-14.71,3.27l-.13.46h14.83Z"/></g><g id="8275cd59-f1ad-4b5a-add7-64dd8a4473bf" data-name="tri2"><path class="19469105-acd7-433f-aa4f-6ef46ca1d533" d="M891.05,533.05c0,2.79,7.25,5.05,18.73,5.15v-5.15Z"/><path class="19469105-acd7-433f-aa4f-6ef46ca1d533" d="M894,530.21c-1.89-.82-2.93-1.79-2.93-2.84v5.68C891.05,532,892.09,531,894,530.21Z"/><path class="19469105-acd7-433f-aa4f-6ef46ca1d533" d="M909.78,532.52c-7.15-.06-12.66-1-15.8-2.31-1.89.82-2.93,1.79-2.93,2.84h18.73Z"/><path class="2366c1af-db6b-48b4-8f53-e953e6b9f739" d="M927.15,530.21c-3.25,1.4-9,2.32-16.59,2.32h-.79v5.68h.79c11.94,0,19.52-2.31,19.52-5.16v-5.68C930.08,528.42,929,529.4,927.15,530.21Z"/><path class="8cdc8972-c3d3-4ae1-8a0c-da317d1fab1f" d="M894.94,526.53a1,1,0,0,1,.13-.46l.61-2.15c-3,.91-4.63,2.12-4.63,3.45h4.31A1.24,1.24,0,0,1,894.94,526.53Z"/><path class="8cdc8972-c3d3-4ae1-8a0c-da317d1fab1f" d="M894,530.21a23.13,23.13,0,0,1,4.52-1.31,7.46,7.46,0,0,1-3.15-1.53h-4.31C891.05,528.42,892.09,529.4,894,530.21Z"/><path class="8cdc8972-c3d3-4ae1-8a0c-da317d1fab1f" d="M898.5,528.9a23.13,23.13,0,0,0-4.52,1.31c3.13,1.35,8.65,2.25,15.8,2.31v-2.27A45.17,45.17,0,0,1,898.5,528.9Z"/><path class="1922672b-51c9-4b99-b3b2-5a7ddb4e98ad" d="M925.34,523.89,926,526a1,1,0,0,1,.16.51,1.24,1.24,0,0,1-.41.84,7.46,7.46,0,0,1-3.15,1.53,46.41,46.41,0,0,1-12.06,1.36h-.79v2.27h.79c7.54,0,13.34-.92,16.59-2.32,1.89-.82,2.93-1.79,2.93-2.84C930.08,526,928.38,524.8,925.34,523.89Z"/><path class="8cdc8972-c3d3-4ae1-8a0c-da317d1fab1f" d="M900.9,505.35c-.43.24-.67.5-.67.77.11.09.25.18.38.27Z"/><path class="19469105-acd7-433f-aa4f-6ef46ca1d533" d="M909.78,512.75h-.05c-4.62,0-8.34-1.08-9.89-2.53a1.24,1.24,0,0,1-.22-.28l-3.93,14a52,52,0,0,1,14.1-1.7Z"/><path class="19469105-acd7-433f-aa4f-6ef46ca1d533" d="M909.78,487.39c-1.83,0-3.31-.49-3.51-1.12l-5.37,19.08c1.39-.78,4.81-1.34,8.88-1.38Z"/><path class="19469105-acd7-433f-aa4f-6ef46ca1d533" d="M902.68,507.53a18.34,18.34,0,0,0,7.1,1.36v-.62A32.66,32.66,0,0,1,902.68,507.53Z"/><path class="19469105-acd7-433f-aa4f-6ef46ca1d533" d="M909.78,522.81v-.59a52,52,0,0,0-14.1,1.7l-.61,2.15C896,524.29,902.16,522.9,909.78,522.81Z"/><path class="2366c1af-db6b-48b4-8f53-e953e6b9f739" d="M919.37,505.23l-6.08-19c-.19.63-1.68,1.13-3.51,1.13v21.5h.05a22,22,0,0,0,6.14-1,22.87,22.87,0,0,0,3.78-1.48Z"/><path class="19469105-acd7-433f-aa4f-6ef46ca1d533" d="M902.68,507.53a32.66,32.66,0,0,0,7.1.74V504c-4.06,0-7.49.6-8.88,1.38l-.29,1A11.07,11.07,0,0,0,902.68,507.53Z"/><path class="8cdc8972-c3d3-4ae1-8a0c-da317d1fab1f" d="M909.78,486.13v-1.26c-2,0-3.55.57-3.55,1.26a.49.49,0,0,0,0,.14l0-.14Z"/><path class="8cdc8972-c3d3-4ae1-8a0c-da317d1fab1f" d="M909.78,487.39v-1.26h-3.47l0,.14C906.46,486.9,908,487.39,909.78,487.39Z"/><path class="1922672b-51c9-4b99-b3b2-5a7ddb4e98ad" d="M909.78,484.87v2.52c1.84,0,3.33-.5,3.51-1.13a.49.49,0,0,0,0-.13C913.33,485.43,911.74,484.87,909.78,484.87Z"/><path class="8cdc8972-c3d3-4ae1-8a0c-da317d1fab1f" d="M900.23,506.12l-.75,2.88a1.23,1.23,0,0,0,.13.93l.93-3.3A.73.73,0,0,1,900.23,506.12Z"/><path class="8cdc8972-c3d3-4ae1-8a0c-da317d1fab1f" d="M900.54,506.64l.07-.25c-.13-.09-.27-.18-.38-.27A.73.73,0,0,0,900.54,506.64Z"/><path class="8cdc8972-c3d3-4ae1-8a0c-da317d1fab1f" d="M909.72,512.75h.05v-3.85a18.34,18.34,0,0,1-7.1-1.36,5.56,5.56,0,0,1-2.14-.89l-.93,3.3a1.24,1.24,0,0,0,.22.28C901.38,511.67,905.1,512.75,909.72,512.75Z"/><path class="1922672b-51c9-4b99-b3b2-5a7ddb4e98ad" d="M920.95,508.75l-.68-2.63c0-.32-.33-.62-.91-.89l.38,1.18a22.87,22.87,0,0,1-3.78,1.48,22,22,0,0,1-6.14,1h-.05v3.85c4,0,8.64-1.29,10.62-2.56a1.28,1.28,0,0,0,.41-.46A1.3,1.3,0,0,0,920.95,508.75Z"/><path class="8cdc8972-c3d3-4ae1-8a0c-da317d1fab1f" d="M900.54,506.64a5.56,5.56,0,0,0,2.14.89,11.07,11.07,0,0,1-2.07-1.14Z"/><path class="19469105-acd7-433f-aa4f-6ef46ca1d533" d="M926,526l.16.51A1,1,0,0,0,926,526Z"/><path class="19469105-acd7-433f-aa4f-6ef46ca1d533" d="M894.94,526.53l.13-.46A1,1,0,0,0,894.94,526.53Z"/><path class="19469105-acd7-433f-aa4f-6ef46ca1d533" d="M909.78,526.53H894.94a1.24,1.24,0,0,0,.41.84h14.42Z"/><path class="19469105-acd7-433f-aa4f-6ef46ca1d533" d="M909.78,527.37H895.36a7.46,7.46,0,0,0,3.15,1.53,62,62,0,0,1,11.27-1Z"/><path class="19469105-acd7-433f-aa4f-6ef46ca1d533" d="M909.78,527.9a62,62,0,0,0-11.27,1,45.17,45.17,0,0,0,11.27,1.35Z"/><path class="2366c1af-db6b-48b4-8f53-e953e6b9f739" d="M926,526l-.68-2.13-4.54-14.16a1.28,1.28,0,0,1-.41.46c-2,1.27-6.65,2.55-10.62,2.56v17.5h.79a46.41,46.41,0,0,0,12.06-1.36,7.46,7.46,0,0,0,3.15-1.53,1.24,1.24,0,0,0,.41-.84Z"/><path class="19469105-acd7-433f-aa4f-6ef46ca1d533" d="M909.78,522.81c-7.62.09-13.79,1.48-14.71,3.27l-.13.46h14.83Z"/></g></g></svg>