<svg id="f264244d-50e3-471c-bc94-b60b6916aa0e" data-name="圖層 1" xmlns="http://www.w3.org/2000/svg" viewBox="0 0 992.13 992.13"><defs><style>.b56b748f-7332-4254-b393-47cebc32f1a3{fill:#f5e03b;}.\38 561c42c-3bb8-4761-ab30-1879a7466108{fill:#f2d32d;}.\31 6df21f7-6a6e-48b4-906b-2917e311256c{fill:#62a086;}.e1f230b3-d1d1-4738-8fe3-caaec34c8f58{fill:#0e8053;}.\32 6ae59b1-04a4-4c6a-8778-3ce4b2ae7686{fill:#0f9b6d;}.\32 ce059da-54fe-48a2-9fe4-6fb1335ca967{fill:#12a37b;}.f6792d0e-aa53-4041-98a6-9c2b2dffec02{fill:#0d885e;}.\36 be023d9-ae04-4bc9-b5fc-6857a83affab{fill:#0f8057;}.cbf238d7-36e4-492e-a3fb-d5cef336b883{fill:#eacd2a;}.\36 32fab99-02d4-4be6-945d-cec0082ff583{fill:#f7eeca;}.a2ad1a66-c5cc-48ca-8092-c264c77920be{fill:#f6e464;}.\32 4b6d9be-a603-4f38-a528-7f9eb2827288{fill:#c9caca;}.\36 f7b763a-e51d-4af4-93ba-2d75985c683e{fill:#f8e589;}.dc66a61c-7e7b-4969-a222-8c3c5339c501{fill:none;stroke:#fff;stroke-linecap:round;stroke-linejoin:round;stroke-width:7px;}.\30 289f94a-2566-45e3-a991-e964b0700a8a{fill:#0e784b;}.\36 97c3b4d-dc02-4bcf-bd06-db3b7dc6add1{fill:#2f4b26;}.\32 153f1da-2250-4857-ab06-e92525970aa2{fill:#66af32;}.\34 4dca7db-f397-4898-8d85-4238ea3cf5c4{fill:#00684a;}.\35 e222657-0065-476c-936d-b262166b0143{fill:#015e42;}.\35 6f91ed4-9d36-40d9-9b92-db7882f66483{fill:#dcdddd;}.be777dca-b24e-4787-8670-69d47247463d{fill:#f0efef;}.\32 d9dc091-f37a-4e94-86ce-3821fb71709f{fill:#fff;}.\37 8dfba76-feaf-450a-8e4b-dc7fc792b671{fill:#f7f9f9;}.edac9ad7-be63-47ca-9610-03837ff4da06{fill:#221714;}.\36 fa845cb-d7e1-431f-9a63-595c2169b3be{fill:#050000;}.\31 3fcb075-b9ef-4430-95ec-569df83e07a5{fill:#d8d8d8;}.\35 37a5d93-c904-4a17-ab50-9ac062dbeea3{fill:#8cc5b4;}.\35 a608898-fa65-4c12-9b70-5c8b3decef13{fill:#83bba8;}.e91d2099-c63a-44e9-927a-182a309af642{fill:#9fa0a0;}.d4483990-4533-4230-9999-d134732304f0{fill:#8a8a8a;}.\34 1eb86ef-f340-4433-8572-cd2405f0e5cc{fill:#457234;}.\36 a0b7182-f01e-4ba5-be4b-a44240ec28d3{fill:#81b558;}</style></defs><title>stars</title><g id="f5f8944d-e39e-44bc-bda3-e0d13003c90a" data-name="planet_station"><g id="bf2a74ea-cf5c-4204-a18b-e447b49fd3b2" data-name="light11"><path class="b56b748f-7332-4254-b393-47cebc32f1a3" d="M153.65,680.54v48a7.61,7.61,0,0,0,7.59,7.59V673A7.61,7.61,0,0,0,153.65,680.54Z"/><path class="8561c42c-3bb8-4761-ab30-1879a7466108" d="M161.23,673v63.18a7.61,7.61,0,0,0,7.59-7.59v-48A7.61,7.61,0,0,0,161.23,673Z"/></g><g id="bfb4b6fb-de22-4448-a2e8-fa7dc5d07d7d" data-name="light10"><path class="b56b748f-7332-4254-b393-47cebc32f1a3" d="M214.79,739.47v48a7.61,7.61,0,0,0,7.59,7.59V731.88A7.61,7.61,0,0,0,214.79,739.47Z"/><path class="8561c42c-3bb8-4761-ab30-1879a7466108" d="M222.37,731.88v63.18a7.61,7.61,0,0,0,7.59-7.59v-48A7.61,7.61,0,0,0,222.37,731.88Z"/></g><g id="590f8d53-5642-49bc-b910-028097c0ffcc" data-name="light9"><path class="b56b748f-7332-4254-b393-47cebc32f1a3" d="M28.45,689.36v48A7.61,7.61,0,0,0,36,745V681.78A7.61,7.61,0,0,0,28.45,689.36Z"/><path class="8561c42c-3bb8-4761-ab30-1879a7466108" d="M36,681.78V745a7.61,7.61,0,0,0,7.59-7.59v-48A7.61,7.61,0,0,0,36,681.78Z"/></g><g id="9f234933-49a9-4b34-8469-5f6766c93fc3" data-name="light8"><path class="b56b748f-7332-4254-b393-47cebc32f1a3" d="M74.16,766v48a7.61,7.61,0,0,0,7.59,7.59V758.38A7.61,7.61,0,0,0,74.16,766Z"/><path class="8561c42c-3bb8-4761-ab30-1879a7466108" d="M81.75,758.38v63.18A7.61,7.61,0,0,0,89.34,814V766A7.61,7.61,0,0,0,81.75,758.38Z"/></g><g id="779992aa-9362-445a-b525-cec60c7b7572" data-name="light7"><path class="b56b748f-7332-4254-b393-47cebc32f1a3" d="M110.17,719.26v48a7.61,7.61,0,0,0,7.59,7.59V711.68A7.61,7.61,0,0,0,110.17,719.26Z"/><path class="8561c42c-3bb8-4761-ab30-1879a7466108" d="M117.76,711.68v63.18a7.61,7.61,0,0,0,7.59-7.59v-48A7.61,7.61,0,0,0,117.76,711.68Z"/></g><g id="e74e3d3d-c350-4fd2-afbc-b89b46fb930f" data-name="light6"><path class="b56b748f-7332-4254-b393-47cebc32f1a3" d="M138.3,797.55v48a7.61,7.61,0,0,0,7.59,7.59V790A7.61,7.61,0,0,0,138.3,797.55Z"/><path class="8561c42c-3bb8-4761-ab30-1879a7466108" d="M145.89,790v63.18a7.61,7.61,0,0,0,7.59-7.59v-48A7.61,7.61,0,0,0,145.89,790Z"/></g><g id="7ab5a795-8ae6-4986-8449-7903894e5254" data-name="light5"><path class="b56b748f-7332-4254-b393-47cebc32f1a3" d="M805.52,719.26v48a7.61,7.61,0,0,0,7.59,7.59V711.68A7.61,7.61,0,0,0,805.52,719.26Z"/><path class="8561c42c-3bb8-4761-ab30-1879a7466108" d="M813.1,711.68v63.18a7.61,7.61,0,0,0,7.59-7.59v-48A7.61,7.61,0,0,0,813.1,711.68Z"/></g><g id="617f3ab4-2beb-4b17-be12-5b58d3b61733" data-name="light4"><path class="b56b748f-7332-4254-b393-47cebc32f1a3" d="M842.27,785.45v48a7.61,7.61,0,0,0,7.59,7.59V777.87A7.61,7.61,0,0,0,842.27,785.45Z"/><path class="8561c42c-3bb8-4761-ab30-1879a7466108" d="M849.86,777.87V841a7.61,7.61,0,0,0,7.59-7.59v-48A7.61,7.61,0,0,0,849.86,777.87Z"/></g><g id="19829892-0529-488f-bf95-a21dcea4638d" data-name="light3"><path class="b56b748f-7332-4254-b393-47cebc32f1a3" d="M872.4,680.54v48a7.61,7.61,0,0,0,7.59,7.59V673A7.61,7.61,0,0,0,872.4,680.54Z"/><path class="8561c42c-3bb8-4761-ab30-1879a7466108" d="M880,673v63.18a7.61,7.61,0,0,0,7.59-7.59v-48A7.61,7.61,0,0,0,880,673Z"/></g><g id="33e9337a-29bb-4edc-a1c7-6b91811a73bf" data-name="light2"><path class="b56b748f-7332-4254-b393-47cebc32f1a3" d="M908.16,712.13v48a7.61,7.61,0,0,0,7.59,7.59V704.54A7.61,7.61,0,0,0,908.16,712.13Z"/><path class="8561c42c-3bb8-4761-ab30-1879a7466108" d="M915.75,704.54v63.18a7.61,7.61,0,0,0,7.59-7.59v-48A7.61,7.61,0,0,0,915.75,704.54Z"/></g><g id="65ed241a-4465-4462-9a82-d0c5d92af77b" data-name="light1"><path class="b56b748f-7332-4254-b393-47cebc32f1a3" d="M961.32,687.68v48a7.61,7.61,0,0,0,7.59,7.59V680.09A7.61,7.61,0,0,0,961.32,687.68Z"/><path class="8561c42c-3bb8-4761-ab30-1879a7466108" d="M968.9,680.09v63.18a7.61,7.61,0,0,0,7.59-7.59v-48A7.61,7.61,0,0,0,968.9,680.09Z"/></g><path class="16df21f7-6a6e-48b4-906b-2917e311256c" d="M353.65,790c16.57,39.32,78.48,68.54,152.33,68.54S641.73,829.29,658.3,790Z"/><path class="e1f230b3-d1d1-4738-8fe3-caaec34c8f58" d="M197.13,693.36C231,773.81,357.69,833.59,508.79,833.59s277.75-59.78,311.66-140.23Z"/><ellipse class="26ae59b1-04a4-4c6a-8778-3ce4b2ae7686" cx="505.98" cy="677.96" rx="343.5" ry="112.01"/><rect class="26ae59b1-04a4-4c6a-8778-3ce4b2ae7686" x="162.48" y="627.06" width="686.99" height="50.9"/><ellipse class="2ce059da-54fe-48a2-9fe4-6fb1335ca967" cx="505.98" cy="627.06" rx="343.5" ry="112.01"/><ellipse class="26ae59b1-04a4-4c6a-8778-3ce4b2ae7686" cx="462.81" cy="624.74" rx="177.74" ry="48.45"/><ellipse class="26ae59b1-04a4-4c6a-8778-3ce4b2ae7686" cx="606.59" cy="660.72" rx="125.91" ry="34.32"/><path class="f6792d0e-aa53-4041-98a6-9c2b2dffec02" d="M800.34,615.31A20.35,20.35,0,0,0,780,635.67h40.7A20.35,20.35,0,0,0,800.34,615.31Z"/><path class="f6792d0e-aa53-4041-98a6-9c2b2dffec02" d="M505.27,694.37a20.35,20.35,0,0,0-20.35,20.35h40.7A20.35,20.35,0,0,0,505.27,694.37Z"/><path class="6be023d9-ae04-4bc9-b5fc-6857a83affab" d="M407.83,695.44a20.35,20.35,0,0,0-20.35,20.35h40.7A20.35,20.35,0,0,0,407.83,695.44Z"/><polygon class="cbf238d7-36e4-492e-a3fb-d5cef336b883" points="280.99 495.84 291.16 519.13 357.8 519.13 415.03 492.9 280.99 495.84"/><rect class="632fab99-02d4-4be6-945d-cec0082ff583" x="291.16" y="519.13" width="65.31" height="69.31"/><polygon class="a2ad1a66-c5cc-48ca-8092-c264c77920be" points="403.44 498.32 389.79 557.12 356.47 588.44 356.47 519.13 403.44 498.32"/><rect class="24b6d9be-a603-4f38-a528-7f9eb2827288" x="297.68" y="523.9" width="14.69" height="14.69"/><rect class="24b6d9be-a603-4f38-a528-7f9eb2827288" x="316.47" y="523.9" width="14.69" height="14.69"/><rect class="24b6d9be-a603-4f38-a528-7f9eb2827288" x="335.25" y="523.9" width="14.69" height="14.69"/><polygon class="b56b748f-7332-4254-b393-47cebc32f1a3" points="280.99 495.84 280.99 552.18 291.16 553.78 291.16 519.13 280.99 495.84"/><polygon class="632fab99-02d4-4be6-945d-cec0082ff583" points="644.36 523.99 694.68 559.95 694.68 637.97 654.11 610.51 644.36 523.99"/><polygon class="b56b748f-7332-4254-b393-47cebc32f1a3" points="694.68 559.95 750.24 520.63 750.24 598.65 694.68 637.97 694.68 559.95"/><polygon class="6f7b763a-e51d-4af4-93ba-2d75985c683e" points="644.36 523.99 694.68 559.95 750.24 520.63 681.52 499.64 644.36 523.99"/><path class="dc66a61c-7e7b-4969-a222-8c3c5339c501" d="M359.92,242.48c26.79-9.93,64.3-17.08,107.14-19.82"/><path class="dc66a61c-7e7b-4969-a222-8c3c5339c501" d="M539.7,225.3s56.46.67,92.28,10.86c26.22,7.46,45.86,16.88,55.74,27.56"/><path class="e1f230b3-d1d1-4738-8fe3-caaec34c8f58" d="M498.37,199.31a51.17,51.17,0,0,0-49.74,39.23l0,.13a51.1,51.1,0,0,0-1.32,9.4c-9.13,65-15.85,130.43-29.84,194.62-13.13,60.26-32.18,115.28-77.9,158.83L321,614a7.2,7.2,0,0,0-3,8,4.68,4.68,0,0,0-.27,1.54c0,15.53,80.86,28.11,180.61,28.11h0V199.31Z"/><path class="0289f94a-2566-45e3-a991-e964b0700a8a" d="M679,623.57a4.68,4.68,0,0,0-.27-1.54,7.2,7.2,0,0,0-3-8l-18.53-12.53c-26.05-17.62-46.54-56.66-57.68-85.05-21.08-53.71-27.95-110.92-35.91-167.62-4.65-33.09-12.62-67.37-14.15-100.77a51.1,51.1,0,0,0-1.32-9.4s0-.13,0-.13a51.15,51.15,0,0,0-49.73-39.23V651.68C598.11,651.68,679,639.09,679,623.57Z"/><circle class="2ce059da-54fe-48a2-9fe4-6fb1335ca967" cx="474.84" cy="232.76" r="4.69"/><circle class="2ce059da-54fe-48a2-9fe4-6fb1335ca967" cx="484" cy="255.27" r="4.69"/><circle class="2ce059da-54fe-48a2-9fe4-6fb1335ca967" cx="465.46" cy="277.58" r="4.69"/><circle class="2ce059da-54fe-48a2-9fe4-6fb1335ca967" cx="484" cy="296.34" r="4.69"/><circle class="2ce059da-54fe-48a2-9fe4-6fb1335ca967" cx="465.46" cy="315.09" r="4.69"/><circle class="2ce059da-54fe-48a2-9fe4-6fb1335ca967" cx="474.84" cy="356.28" r="4.69"/><circle class="2ce059da-54fe-48a2-9fe4-6fb1335ca967" cx="447.4" cy="365.65" r="4.69"/><circle class="2ce059da-54fe-48a2-9fe4-6fb1335ca967" cx="465.46" cy="383.73" r="4.69"/><circle class="2ce059da-54fe-48a2-9fe4-6fb1335ca967" cx="484" cy="330.28" r="4.69"/><circle class="2ce059da-54fe-48a2-9fe4-6fb1335ca967" cx="456.77" cy="339.66" r="4.69"/><circle class="2ce059da-54fe-48a2-9fe4-6fb1335ca967" cx="474.84" cy="405.26" r="4.69"/><rect class="697c3b4d-dc02-4bcf-bd06-db3b7dc6add1" x="503.06" y="620.72" width="17.55" height="29" rx="5.43" ry="5.43"/><path class="2153f1da-2250-4857-ab06-e92525970aa2" d="M521.84,612.07a9.92,9.92,0,0,0,0-19.84h-1.1a11.7,11.7,0,1,0-19.49,0h-1.1a9.92,9.92,0,0,0,0,19.84,9.92,9.92,0,1,0,0,19.84h21.7a9.92,9.92,0,1,0,0-19.84Z"/><path class="44dca7db-f397-4898-8d85-4238ea3cf5c4" d="M606.59,400.57a31.2,31.2,0,0,0-30.32,23.91v.08a31.15,31.15,0,0,0-.8,5.73c-5.56,39.62-9.67,79.51-18.19,118.65-8,36.74-19.62,70.28-47.49,96.82l-11.3,7.64a4.39,4.39,0,0,0-1.82,4.87,2.86,2.86,0,0,0-.17.94c0,9.47,49.29,17.14,110.1,17.14h0V400.57Z"/><path class="5e222657-0065-476c-936d-b262166b0143" d="M716.7,659.21a2.86,2.86,0,0,0-.17-.94,4.39,4.39,0,0,0-1.82-4.87l-11.3-7.64C687.53,635,675,611.22,668.25,593.91c-12.85-32.75-17-67.62-21.89-102.19-2.83-20.17-7.69-41.07-8.63-61.43a31.15,31.15,0,0,0-.8-5.73s0-.08,0-.08a31.18,31.18,0,0,0-30.32-23.91V676.35C667.4,676.35,716.7,668.67,716.7,659.21Z"/><circle class="2ce059da-54fe-48a2-9fe4-6fb1335ca967" cx="588.86" cy="425.49" r="3.37"/><circle class="2ce059da-54fe-48a2-9fe4-6fb1335ca967" cx="597.87" cy="436.06" r="3.37"/><circle class="2ce059da-54fe-48a2-9fe4-6fb1335ca967" cx="584.41" cy="491.57" r="3.37"/><circle class="2ce059da-54fe-48a2-9fe4-6fb1335ca967" cx="582.13" cy="442.79" r="3.37"/><circle class="2ce059da-54fe-48a2-9fe4-6fb1335ca967" cx="595.25" cy="477.24" r="3.37"/><circle class="2ce059da-54fe-48a2-9fe4-6fb1335ca967" cx="591.14" cy="453.36" r="3.37"/><circle class="2ce059da-54fe-48a2-9fe4-6fb1335ca967" cx="582.13" cy="466.67" r="3.37"/><path class="632fab99-02d4-4be6-945d-cec0082ff583" d="M221.74,544.31V618.9L294,641.72l-1.39-69.28Zm65.49,87.81-14.69-4.74V612.69l14.69,4.74Zm0-19.43-14.69-4.74V593.26L287.23,598Zm0-19.43-14.69-4.74V573.82l14.69,4.74Z"/><polygon class="24b6d9be-a603-4f38-a528-7f9eb2827288" points="272.54 588.51 287.23 593.26 287.23 578.57 272.54 573.83 272.54 588.51"/><polygon class="24b6d9be-a603-4f38-a528-7f9eb2827288" points="272.54 607.95 287.23 612.69 287.23 598 272.54 593.26 272.54 607.95"/><polygon class="24b6d9be-a603-4f38-a528-7f9eb2827288" points="272.54 627.38 287.23 632.12 287.23 617.43 272.54 612.69 272.54 627.38"/><polygon class="b56b748f-7332-4254-b393-47cebc32f1a3" points="371.4 552.18 289.55 552.18 292.63 572.44 371.4 552.18"/><polygon class="a2ad1a66-c5cc-48ca-8092-c264c77920be" points="289.55 552.18 221.74 544.31 292.63 572.44 289.55 552.18"/><polygon class="cbf238d7-36e4-492e-a3fb-d5cef336b883" points="292.63 572.44 294.03 641.72 371.4 611.82 371.4 552.18 292.63 572.44"/><polygon class="632fab99-02d4-4be6-945d-cec0082ff583" points="374.58 681.77 305.18 681.77 305.18 589.23 378.82 617.3 374.58 681.77"/><polygon class="b56b748f-7332-4254-b393-47cebc32f1a3" points="415.39 663.58 374.58 681.77 378.82 617.3 415.39 571.03 415.39 663.58"/><polygon class="a2ad1a66-c5cc-48ca-8092-c264c77920be" points="345.98 571.03 378.82 617.3 415.39 571.03 345.98 571.03"/><polygon class="6f7b763a-e51d-4af4-93ba-2d75985c683e" points="305.18 589.23 378.82 617.3 345.98 571.03 305.18 589.23"/><rect class="24b6d9be-a603-4f38-a528-7f9eb2827288" x="312.53" y="660.72" width="14.69" height="14.69"/><rect class="24b6d9be-a603-4f38-a528-7f9eb2827288" x="312.53" y="639.01" width="14.69" height="14.69"/><rect class="24b6d9be-a603-4f38-a528-7f9eb2827288" x="312.53" y="617.3" width="14.69" height="14.69"/><polygon class="24b6d9be-a603-4f38-a528-7f9eb2827288" points="745.33 546.08 731.06 557.16 731.06 542.89 745.33 531.81 745.33 546.08"/><polygon class="24b6d9be-a603-4f38-a528-7f9eb2827288" points="745.33 565.21 731.06 576.29 731.06 562.02 745.33 550.94 745.33 565.21"/><polygon class="24b6d9be-a603-4f38-a528-7f9eb2827288" points="745.33 584.34 731.06 595.42 731.06 581.15 745.33 570.07 745.33 584.34"/><path class="f6792d0e-aa53-4041-98a6-9c2b2dffec02" d="M265.47,640.37a20.35,20.35,0,0,0-20.35,20.35h40.7A20.35,20.35,0,0,0,265.47,640.37Z"/><path class="f6792d0e-aa53-4041-98a6-9c2b2dffec02" d="M455.94,671.6A20.35,20.35,0,0,0,435.59,692h40.7A20.35,20.35,0,0,0,455.94,671.6Z"/><path class="6be023d9-ae04-4bc9-b5fc-6857a83affab" d="M763.62,589.23a20.35,20.35,0,0,0-20.35,20.35H784A20.35,20.35,0,0,0,763.62,589.23Z"/><g id="9674fdc9-fa5a-4fed-8949-bdfd5db59ceb" data-name="eye"><path class="56f91ed4-9d36-40d9-9b92-db7882f66483" d="M390.6,259H285.79l9.84,34.76h.19c2,8.56,20.2,15.27,42.38,15.27s40.39-6.71,42.38-15.27h.19Z"/><ellipse class="be777dca-b24e-4787-8670-69d47247463d" cx="338.19" cy="258.98" rx="52.41" ry="20.71"/><ellipse class="56f91ed4-9d36-40d9-9b92-db7882f66483" cx="338.19" cy="258.8" rx="28.92" ry="11.43"/><circle class="2d9dc091-f37a-4e94-86ce-3821fb71709f" cx="336.73" cy="218.06" r="44.99"/><path class="78dfba76-feaf-450a-8e4b-dc7fc792b671" d="M358.6,183.34A41.13,41.13,0,0,1,302,239.95a41.13,41.13,0,1,0,56.61-56.61Z"/><circle class="56f91ed4-9d36-40d9-9b92-db7882f66483" cx="321.97" cy="203.19" r="22.96"/><path class="be777dca-b24e-4787-8670-69d47247463d" d="M311.47,215A16.38,16.38,0,0,0,339,207.83Z"/><circle class="edac9ad7-be63-47ca-9610-03837ff4da06" cx="321.05" cy="202.27" r="13.71"/><path class="6fa845cb-d7e1-431f-9a63-595c2169b3be" d="M327.88,190.4a13.69,13.69,0,0,1-18.7,18.7,13.7,13.7,0,1,0,18.7-18.7Z"/><circle class="2d9dc091-f37a-4e94-86ce-3821fb71709f" cx="317.38" cy="196.36" r="2.38"/><path class="13fcb075-b9ef-4430-95ec-569df83e07a5" d="M324.24,304.53s31.25,3.3,47.71-5.56a23,23,0,0,0,8.55-13.31Z"/><rect class="2d9dc091-f37a-4e94-86ce-3821fb71709f" x="301.38" y="281.24" width="23.4" height="12.01" rx="5.34" ry="5.34" transform="translate(64.14 -57.08) rotate(11.6)"/><path class="2d9dc091-f37a-4e94-86ce-3821fb71709f" d="M308.17,290.48s-.65,3.56-3.4,3.94c0,0,6.41,2.1,8.83-2.82Z"/></g><circle class="2d9dc091-f37a-4e94-86ce-3821fb71709f" cx="355.96" cy="328.53" r="2.65"/><circle class="2d9dc091-f37a-4e94-86ce-3821fb71709f" cx="381" cy="309.01" r="2.65"/><circle class="2d9dc091-f37a-4e94-86ce-3821fb71709f" cx="399.04" cy="311.67" r="2.65"/><circle class="2d9dc091-f37a-4e94-86ce-3821fb71709f" cx="408.06" cy="339.66" r="2.65"/><circle class="2d9dc091-f37a-4e94-86ce-3821fb71709f" cx="413.49" cy="243.08" r="2.65"/><circle class="2d9dc091-f37a-4e94-86ce-3821fb71709f" cx="434.89" cy="210.72" r="2.65"/><circle class="2d9dc091-f37a-4e94-86ce-3821fb71709f" cx="588.67" cy="243.08" r="2.65"/><circle class="2d9dc091-f37a-4e94-86ce-3821fb71709f" cx="561.54" cy="203.36" r="2.65"/><circle class="2d9dc091-f37a-4e94-86ce-3821fb71709f" cx="581.74" cy="212.77" r="2.65"/><circle class="2d9dc091-f37a-4e94-86ce-3821fb71709f" cx="604.55" cy="210.12" r="2.65"/><circle class="2d9dc091-f37a-4e94-86ce-3821fb71709f" cx="622.42" cy="222.66" r="2.65"/><circle class="2d9dc091-f37a-4e94-86ce-3821fb71709f" cx="642.05" cy="222.66" r="2.65"/><circle class="2d9dc091-f37a-4e94-86ce-3821fb71709f" cx="604.55" cy="244.51" r="2.65"/><circle class="2d9dc091-f37a-4e94-86ce-3821fb71709f" cx="588.67" cy="318.42" r="2.65"/><circle class="2d9dc091-f37a-4e94-86ce-3821fb71709f" cx="605.26" cy="323.86" r="2.65"/><circle class="2d9dc091-f37a-4e94-86ce-3821fb71709f" cx="634.25" cy="342.31" r="2.65"/><circle class="2d9dc091-f37a-4e94-86ce-3821fb71709f" cx="644.7" cy="318.42" r="2.65"/><circle class="2d9dc091-f37a-4e94-86ce-3821fb71709f" cx="664.69" cy="334.97" r="2.65"/><circle class="2d9dc091-f37a-4e94-86ce-3821fb71709f" cx="678.97" cy="335.8" r="2.65"/><circle class="2d9dc091-f37a-4e94-86ce-3821fb71709f" cx="581.74" cy="351.59" r="2.65"/><circle class="2d9dc091-f37a-4e94-86ce-3821fb71709f" cx="408.06" cy="210.58" r="2.65"/><circle class="2d9dc091-f37a-4e94-86ce-3821fb71709f" cx="388.66" cy="342.63" r="2.65"/><path class="dc66a61c-7e7b-4969-a222-8c3c5339c501" d="M442.71,333.2c-47.39-5.13-86.07-15.85-107.47-29.56"/><path class="dc66a61c-7e7b-4969-a222-8c3c5339c501" d="M563.11,338.74s23.32,0,42.49-2.43c54-6.85,69.61-18.79,86.23-31.48"/><g id="873125db-5da8-4101-9989-8abc87348410" data-name="paper"><path class="537a5d93-c904-4a17-ab50-9ac062dbeea3" d="M477,357h93.43a12.3,12.3,0,0,1,12.3,12.3v5.14A11.67,11.67,0,0,1,571,386.07H477a11.67,11.67,0,0,1-11.67-11.67v-5.77A11.67,11.67,0,0,1,477,357Z" transform="translate(55.6 -68.03) rotate(7.84)"/><path class="5a608898-fa65-4c12-9b70-5c8b3decef13" d="M563.81,366.52s14-.64,14,15.27Z"/><path class="2d9dc091-f37a-4e94-86ce-3821fb71709f" d="M580.6,252.39c-6.27-.86-12.38,5.26-14.28,14l-51-4.33c-35.25-3-57.35,34.22-60.58,67.64a72.6,72.6,0,0,0,6.78,38.07c1.71,3.57,3.13,9.62,7.37,10.91,5.12,1.56,11.55,1.57,16.9,2.31l19.86,2.74,42.58,5.87c6.44.89,14.22.8,20.43,2.81-9.68-3.14-18.53-21.31-20.76-30.37-2-8.16-1.27-16.81,1.2-25a66.07,66.07,0,0,1,5.26-12.47c9.71-17.78,31.39-31.23,35.85-51.8.07-.33.12-.63.16-.92l0-.12C591.72,262,587.34,253.32,580.6,252.39Z"/><path class="537a5d93-c904-4a17-ab50-9ac062dbeea3" d="M481.81,245.5h95.13a11.93,11.93,0,0,1,11.93,11.93v3.91a11.32,11.32,0,0,1-11.32,11.32H481.81a11.32,11.32,0,0,1-11.32-11.32v-4.52a11.32,11.32,0,0,1,11.32-11.32Z" transform="translate(40.31 -69.86) rotate(7.84)"/><ellipse class="2d9dc091-f37a-4e94-86ce-3821fb71709f" cx="579.09" cy="267.5" rx="15.18" ry="11.76" transform="translate(235.06 804.67) rotate(-82.16)"/><path class="5a608898-fa65-4c12-9b70-5c8b3decef13" d="M480.47,243.93s-10.12,4.19-3.18,16.31Z"/><path class="78dfba76-feaf-450a-8e4b-dc7fc792b671" d="M575.58,257s-10.12,4.19-3.18,16.31Z"/><rect class="a2ad1a66-c5cc-48ca-8092-c264c77920be" x="481.93" y="287.1" width="72.3" height="7.56" rx="3.36" ry="3.36" transform="translate(44.54 -67.98) rotate(7.84)"/><rect class="a2ad1a66-c5cc-48ca-8092-c264c77920be" x="474.47" y="299.6" width="72.3" height="7.56" rx="3.36" ry="3.36" transform="translate(46.18 -66.84) rotate(7.84)"/><rect class="a2ad1a66-c5cc-48ca-8092-c264c77920be" x="469.26" y="312.59" width="72.3" height="7.56" rx="3.36" ry="3.36" transform="matrix(0.99, 0.14, -0.14, 0.99, 47.9, -66.01)"/><rect class="a2ad1a66-c5cc-48ca-8092-c264c77920be" x="466.81" y="326.18" width="72.3" height="7.56" rx="3.36" ry="3.36" transform="translate(49.73 -65.55) rotate(7.84)"/><rect class="a2ad1a66-c5cc-48ca-8092-c264c77920be" x="465.64" y="338.85" width="72.3" height="7.56" rx="3.36" ry="3.36" transform="translate(51.45 -65.27) rotate(7.84)"/><rect class="a2ad1a66-c5cc-48ca-8092-c264c77920be" x="467.19" y="352.41" width="72.3" height="7.56" rx="3.36" ry="3.36" transform="translate(53.32 -65.36) rotate(7.84)"/><path class="78dfba76-feaf-450a-8e4b-dc7fc792b671" d="M493.88,379.16l69.23,9.54s-7-4.87-8.45-11.82Z"/></g><g id="9461c5f8-0664-4cb9-9cef-1d88a1af1c4c" data-name="target"><ellipse class="e91d2099-c63a-44e9-927a-182a309af642" cx="725.01" cy="310.61" rx="19.64" ry="10.67" transform="translate(-47.49 469.85) rotate(-34.84)"/><ellipse class="24b6d9be-a603-4f38-a528-7f9eb2827288" cx="724.64" cy="310.09" rx="14.19" ry="7.25" transform="translate(-47.26 469.55) rotate(-34.84)"/><ellipse class="e91d2099-c63a-44e9-927a-182a309af642" cx="724.64" cy="310.09" rx="7.29" ry="3.72" transform="translate(-47.26 469.55) rotate(-34.84)"/><polygon class="2d9dc091-f37a-4e94-86ce-3821fb71709f" points="691.97 274.42 691.91 283.41 709.43 270.78 700.84 268.25 691.97 274.42"/><ellipse class="2d9dc091-f37a-4e94-86ce-3821fb71709f" cx="701.08" cy="277.44" rx="11.03" ry="2.7" transform="translate(-32.83 450.24) rotate(-34.84)"/><polygon class="2d9dc091-f37a-4e94-86ce-3821fb71709f" points="701.69 297.01 713.84 302.18 720.22 297.74 719.38 284.96 701.69 297.01"/><ellipse class="2d9dc091-f37a-4e94-86ce-3821fb71709f" cx="709.73" cy="289.81" rx="11.03" ry="6.98" transform="translate(-38.35 457.39) rotate(-34.84)"/><ellipse class="2d9dc091-f37a-4e94-86ce-3821fb71709f" cx="704.96" cy="282.96" rx="11.03" ry="6.98" transform="translate(-35.29 453.44) rotate(-34.84)"/><path class="24b6d9be-a603-4f38-a528-7f9eb2827288" d="M693.28,244.89h0l0,0-.09-.09-26.43-26.41a3.42,3.42,0,0,0-4.75-.85l-1.75,1.22,39.27,56.42h0c5.76-4,4.82-15.33-2.11-25.28A37,37,0,0,0,693.28,244.89Z"/><path class="56f91ed4-9d36-40d9-9b92-db7882f66483" d="M658.5,219.89a3.42,3.42,0,0,0-.85,4.75l15.53,33.83.18.39.1.21h0a37.06,37.06,0,0,0,3.06,5.26c6.92,9.94,17.19,14.76,23,10.78L660.2,218.7Z"/><circle class="56f91ed4-9d36-40d9-9b92-db7882f66483" cx="660.2" cy="218.7" r="7.29" transform="translate(-6.6 416.36) rotate(-34.84)"/><circle class="e91d2099-c63a-44e9-927a-182a309af642" cx="632.59" cy="178.97" r="10.5" transform="matrix(0.82, -0.57, 0.57, 0.82, 11.14, 393.46)"/><path class="e91d2099-c63a-44e9-927a-182a309af642" d="M652.67,216.41,624,185l17.24-12,18.07,39a4,4,0,0,1-1.35,5h0A4,4,0,0,1,652.67,216.41Z"/><path class="e91d2099-c63a-44e9-927a-182a309af642" d="M632.38,185.2c-2.87-4.13-6.51-5.8-11-3.46-6.09,3.2-6.86,9.74-4,13.87,7.64,10.64,25.47,21,35.67,26.4,2,1,6.08-2,4.45-4.29Z"/><path class="24b6d9be-a603-4f38-a528-7f9eb2827288" d="M657.56,217.71,634.1,184a9.1,9.1,0,1,0-14.36,11.16c7.93,10.37,25.13,20.41,35.08,25.64A2.13,2.13,0,0,0,657.56,217.71Z"/><path class="e91d2099-c63a-44e9-927a-182a309af642" d="M638.86,169.6c-3.74,3.36-3.43,7.35-.56,11.48L660,216c1.63,2.34,5.86-.47,5.57-2.68-1.49-11.42-5-31.75-12.37-42.62C650.37,166.56,644,165,638.86,169.6Z"/><path class="24b6d9be-a603-4f38-a528-7f9eb2827288" d="M663.9,214.49c-1.46-11.15-4.89-30.77-11.86-41.8a9.21,9.21,0,0,0-.5-.81,9.1,9.1,0,0,0-14.95,10.4L660,216A2.13,2.13,0,0,0,663.9,214.49Z"/><path class="56f91ed4-9d36-40d9-9b92-db7882f66483" d="M713.84,302.18l8.34,8.62a2.17,2.17,0,0,0,3.49-2.51l-5.45-10.56Z"/><path class="24b6d9be-a603-4f38-a528-7f9eb2827288" d="M703.93,280.82a27.09,27.09,0,0,1-3.83,2.23,1.17,1.17,0,0,1-1-2.13,24.25,24.25,0,0,0,6.27-4.36,1.17,1.17,0,1,1,1.67,1.64A22.05,22.05,0,0,1,703.93,280.82Z"/><path class="24b6d9be-a603-4f38-a528-7f9eb2827288" d="M708.7,287.67a27.09,27.09,0,0,1-3.83,2.23,1.17,1.17,0,0,1-1-2.13,24.25,24.25,0,0,0,6.27-4.36,1.17,1.17,0,1,1,1.67,1.64A22.05,22.05,0,0,1,708.7,287.67Z"/><rect class="d4483990-4533-4230-9999-d134732304f0" x="645.06" y="179.04" width="4.33" height="41.93" rx="1.66" ry="1.66" transform="translate(4.37 413.65) rotate(-35.56)"/></g><rect class="41eb86ef-f340-4433-8572-cd2405f0e5cc" x="407.83" y="650.55" width="17.55" height="29" rx="5.43" ry="5.43"/><path class="2153f1da-2250-4857-ab06-e92525970aa2" d="M426.61,641.9a9.92,9.92,0,0,0,0-19.84h-1.1a11.7,11.7,0,1,0-19.49,0h-1.1a9.92,9.92,0,0,0,0,19.84,9.92,9.92,0,0,0,0,19.84h21.7a9.92,9.92,0,0,0,0-19.84Z"/><rect class="41eb86ef-f340-4433-8572-cd2405f0e5cc" x="697.06" y="644.06" width="17.55" height="29" rx="5.43" ry="5.43"/><path class="6a0b7182-f01e-4ba5-be4b-a44240ec28d3" d="M715.83,635.41a9.92,9.92,0,0,0,0-19.84h-1.1a11.7,11.7,0,1,0-19.49,0h-1.1a9.92,9.92,0,0,0,0,19.84,9.92,9.92,0,0,0,0,19.84h21.7a9.92,9.92,0,1,0,0-19.84Z"/><rect class="41eb86ef-f340-4433-8572-cd2405f0e5cc" x="206.49" y="595.65" width="17.55" height="29" rx="5.43" ry="5.43"/><path class="6a0b7182-f01e-4ba5-be4b-a44240ec28d3" d="M225.26,587a9.92,9.92,0,0,0,0-19.84h-1.1a11.7,11.7,0,1,0-19.49,0h-1.1a9.92,9.92,0,0,0,0,19.84,9.92,9.92,0,0,0,0,19.84h21.7a9.92,9.92,0,1,0,0-19.84Z"/><path class="6be023d9-ae04-4bc9-b5fc-6857a83affab" d="M232.63,611.89a20.35,20.35,0,0,0-20.35,20.35H253A20.35,20.35,0,0,0,232.63,611.89Z"/></g></svg>