<svg id="e162a846-d9c1-4938-b17d-d645be94369d" data-name="圖層 1" xmlns="http://www.w3.org/2000/svg" viewBox="0 0 992.13 992.13"><defs><style>.dae31925-3976-478e-8d5a-6fcbe6bdd084{fill:#001123;}.\36 8d38aa0-6148-4aae-85c5-73751b1c87de{fill:#142345;}.\30 be94bdb-fec2-4ddc-83c6-256b6284b810{fill:#19264b;}.\33 6569952-8abe-40d8-b452-8df96f7e5428{fill:#cfa02a;}.\36 aac8f37-34e2-46c4-b197-b3c637ee2f7b{fill:#dcdddd;}.\36 d717a60-a97f-4073-b359-ca686dbffe18{fill:#cd9e2c;}.\32 fb0ba27-b173-4d85-abc9-e8b05babfc3f{fill:#b36b1f;}.e36c1bbe-1b67-45c2-ac6f-5d575e091855{fill:#d1d1d1;}.e290f3bc-edef-40cf-b5f3-a13fda202bd6{fill:#d3328c;}.e19d1340-bc2e-459c-b9d3-f78e6e135c8f{fill:#d44588;}.\32 437db53-932d-4bfd-afc1-7e8f3ab08260{fill:#f5e929;}.\30 4fefd52-1ca3-489d-aeae-ea8626678952,.\32 210bcc6-c641-48f9-8a58-14e660226308,.\35 88fe587-a271-45ee-bb4c-f2f6a164498f,.\36 99872f7-d840-411d-9188-905aefd4c5e4,.c89e5b4a-445e-414c-86c2-69d6e871353d,.e95ee804-75ba-498e-86b0-430d6e059305{fill:none;}.\30 4fefd52-1ca3-489d-aeae-ea8626678952,.\32 210bcc6-c641-48f9-8a58-14e660226308,.\35 88fe587-a271-45ee-bb4c-f2f6a164498f,.c89e5b4a-445e-414c-86c2-69d6e871353d,.e95ee804-75ba-498e-86b0-430d6e059305{stroke:#f5e929;stroke-linecap:round;stroke-linejoin:round;}.\32 210bcc6-c641-48f9-8a58-14e660226308{stroke-width:1.79px;}.e95ee804-75ba-498e-86b0-430d6e059305{stroke-width:1.74px;}.\30 4fefd52-1ca3-489d-aeae-ea8626678952{stroke-width:1.67px;}.c89e5b4a-445e-414c-86c2-69d6e871353d{stroke-width:1.91px;}.\35 88fe587-a271-45ee-bb4c-f2f6a164498f{stroke-width:2.16px;}.\38 a6b5534-a73e-45c7-9e71-46161a88c59c{fill:#c31875;}.\34 20d29c0-8241-435a-b54c-c5db934b2e97{fill:#c3317c;}.\33 39fabdc-8f78-4286-aa89-6779b7a7abe7{fill:#c39c61;}.\34 d38eb14-8b9d-4dc5-b4b7-c0a2e958f8dd{fill:#f4e829;}.\38 ae8c6e2-8c3f-455f-9a9f-45e8d1476c36{fill:#b73678;}.\30 313fd4f-0afb-40fc-b37e-92225906f6b6{fill:#0e1a38;}.\36 96d9c1b-1c15-41e3-86b9-2fa16021f98b{fill:#003c56;}.e8a8d0a7-5156-4ead-8d1a-f2089710f8c7{fill:#ae7f46;}.cf955921-c191-4880-98ff-13fa4f6364be{fill:#9f703b;}.e4c97719-bbbb-4caf-b546-d72636fb299b{fill:#d9cb2c;}.\36 1dbe216-c9d8-4c2e-a42b-9ca061a6d7a3{fill:#060001;}.\32 74fd022-7982-4dd3-b7f8-3570153c43ba{fill:#fff;}</style></defs><title>stars</title><g id="755e55bd-24fe-471b-be97-c9395cf1c98a" data-name="planet_pencil"><polygon class="dae31925-3976-478e-8d5a-6fcbe6bdd084" points="395.09 680.78 485.9 636.01 472.75 691.34 425.95 709.71 395.09 680.78"/><polygon class="dae31925-3976-478e-8d5a-6fcbe6bdd084" points="551.23 641.64 548.04 717.28 584.8 717.28 609.63 639.67 551.23 641.64"/><path class="68d38aa0-6148-4aae-85c5-73751b1c87de" d="M507.62,657.28,489.5,742.83,551.23,724s13-32.65,10.87-76.61C561.07,625.88,507.62,657.28,507.62,657.28Z"/><path class="dae31925-3976-478e-8d5a-6fcbe6bdd084" d="M378,394.61a17.4,17.4,0,1,0,29.53-12.42L375,386.76h4.82A17.3,17.3,0,0,0,378,394.61Z"/><path class="0be94bdb-fec2-4ddc-83c6-256b6284b810" d="M437.9,375.23l-29.71,6.16c.29.25.56.53.83.79l30.15-4.25C438.76,377,438.35,376.13,437.9,375.23Z"/><path class="0be94bdb-fec2-4ddc-83c6-256b6284b810" d="M363.6,386.76l-4.51,1.64c.24.23.46.48.67.72l16.8-2.37Z"/><polygon class="0be94bdb-fec2-4ddc-83c6-256b6284b810" points="309.55 415.86 309.41 416.06 329.28 399.27 309.55 415.86"/><path class="0be94bdb-fec2-4ddc-83c6-256b6284b810" d="M309.41,416.06a18,18,0,0,1,1.4,1.24C310.94,415.92,310.5,415.39,309.41,416.06Z"/><path class="36569952-8abe-40d8-b452-8df96f7e5428" d="M515.8,672.85s-2.87,33-19.72,44C479.64,727.63,472.75,728,472.75,728l13.09-33.88,15.91-25.93Z"/><path class="36569952-8abe-40d8-b452-8df96f7e5428" d="M433.62,742.33c6.53,1,9.59.21,15.65.17,25.83-.18,41-21.11,41-21.11l-.06.09a55.37,55.37,0,0,0,10.3-13.35c5.49-9.82,8.6-21.62,9.52-34.46l-32.49-17.31-1,.47c.13,20.3-6.35,31.25-15.72,36.44l-.55-.29c-5,2.35-11.54,3.52-20,3.32a78.62,78.62,0,0,1-30-6.72L359,713.36C376.39,725.75,411.39,738.45,433.62,742.33Z"/><path class="36569952-8abe-40d8-b452-8df96f7e5428" d="M319.07,612.91c4.64,36.58,14.15,62,33.19,81.73a132,132,0,0,0,14.21,12.74c1,.79,2.08,1.57,3.15,2.33l40.71-20.12q-3.65-1.61-7.1-3.56a42.91,42.91,0,0,1-7.7-4.7,1.46,1.46,0,0,1-.44-.54h0c-22.94-16.78-37.45-45.07-37.66-74.61,0-4-5.16-17.2-4.91-20.62h0l-33.47-12h0C318.25,587.69,317.54,600.84,319.07,612.91Z"/><path class="dae31925-3976-478e-8d5a-6fcbe6bdd084" d="M418.88,558.38a78.5,78.5,0,0,0-13.42-4.65,113.56,113.56,0,0,1,13.16,4.78Z"/><path class="dae31925-3976-478e-8d5a-6fcbe6bdd084" d="M399.73,513.33a147.56,147.56,0,0,1,60,25.22h0A138.33,138.33,0,0,0,399.73,513.33Z"/><path class="dae31925-3976-478e-8d5a-6fcbe6bdd084" d="M459.76,538.53h0c1.06.76,2.1,1.56,3.13,2.35Q461.33,539.69,459.76,538.53Z"/><path class="dae31925-3976-478e-8d5a-6fcbe6bdd084" d="M426,562q-3.44-2-7.08-3.62l-.26.13C421.35,559.69,423.82,560.88,426,562Z"/><path class="0be94bdb-fec2-4ddc-83c6-256b6284b810" d="M312.14,544.35c0-.75.07-1.47.1-2.21h0Z"/><path class="0be94bdb-fec2-4ddc-83c6-256b6284b810" d="M269.27,510.56v0h0Z"/><path class="0be94bdb-fec2-4ddc-83c6-256b6284b810" d="M277.23,474a19.2,19.2,0,0,1,8.64,2.71,101.85,101.85,0,0,0-4.94-22Z"/><path class="dae31925-3976-478e-8d5a-6fcbe6bdd084" d="M352.42,590.64l43.94-21.33-27.45-14.68C356.57,560.3,353.21,573.17,352.42,590.64Z"/><path class="dae31925-3976-478e-8d5a-6fcbe6bdd084" d="M368.91,554.63l27.45,14.68,22.25-10.8a113.56,113.56,0,0,0-13.16-4.78,78.59,78.59,0,0,0-16.51-2.28C380.48,551.19,373.95,552.31,368.91,554.63Z"/><path class="6aac8f37-34e2-46c4-b197-b3c637ee2f7b" d="M815.93,440.48a143.18,143.18,0,0,0-100.61-19.94,79.47,79.47,0,0,0,22.86,13.57l5,1.63c1,3.83.65,8.39-.34,13.74-1.31,21.83,6.47,35.31,18.93,44.49a47.56,47.56,0,0,1,6,16.27c-6.82,21.77,1,38.12,16.81,51.52a92.7,92.7,0,0,1,6.51,22c-11.65,15.62.36,35.77.36,35.77,1.73,4.91,1.91,11,.82,18-18.51,10.06-14.75,29-14.75,29a48.28,48.28,0,0,1-7,15.35c-54.19,9.41-101.83,39.71-101.83,39.71l-44-22.14-27.33-14.11.1-.38c.18-.63.36-1.24.53-1.88.41-1.49.79-3,1.15-4.5l0-.18c-5.07-2.84-9.92-5.54-14.37-8L230.63,839a27.7,27.7,0,0,1-27.45-1.63,28.11,28.11,0,0,1-13.28-24.08,28.65,28.65,0,0,1,16-25.62L476.44,656.33l-5.7-3.05c.27-3.42.41-7.09.41-11.1,0-29.54-14.31-57.94-37.13-74.88l-.65-.48A83,83,0,0,0,426,562c-2.13-1.11-4.61-2.31-7.34-3.49l-22.25,10.8-43.94,21.33-1,.48L156.49,685.76A141.73,141.73,0,0,0,279.32,941.23L801.47,692.61a144.7,144.7,0,0,0,82.11-130A143.21,143.21,0,0,0,815.93,440.48Z"/><path class="36569952-8abe-40d8-b452-8df96f7e5428" d="M368.91,554.63l-.54-.29c-9.41,5.12-16,16-16,36.32l0,0C353.21,573.17,356.57,560.3,368.91,554.63Z"/><path class="36569952-8abe-40d8-b452-8df96f7e5428" d="M433.62,566.76l-.24.07.65.48h0A1.46,1.46,0,0,0,433.62,566.76Z"/><path class="36569952-8abe-40d8-b452-8df96f7e5428" d="M399.73,513.33a121.24,121.24,0,0,0-18.93-1.54C355,511.79,339.16,526,339.16,526l.06-.09a55.37,55.37,0,0,0-10.39,13.27c-5.56,9.78-8.76,21.56-9.76,34.39l32.36,17.54,1-.47c0-20.3,6.57-31.2,16-36.32l.54.29c5-2.31,11.57-3.44,20-3.18a78.62,78.62,0,0,1,29.94,6.93l40.85-19.83A147.56,147.56,0,0,0,399.73,513.33Z"/><path class="36569952-8abe-40d8-b452-8df96f7e5428" d="M433.38,566.83l.24-.07A42.91,42.91,0,0,0,426,562,83,83,0,0,1,433.38,566.83Z"/><path class="0be94bdb-fec2-4ddc-83c6-256b6284b810" d="M467.89,534.59l39.73-19.33c-15.14-11.68-33.74-20.57-56.24-25.49-31.53-6.9-88.06-1.93-112.16,36.16,12.44-11.57,30.84-17.2,56-13.36,1.5.23,3,.5,4.48.77a138.33,138.33,0,0,1,60,25.2Z"/><path class="0be94bdb-fec2-4ddc-83c6-256b6284b810" d="M515.19,637.52l-.59.29a213.07,213.07,0,0,1,.9,39.23A222.22,222.22,0,0,0,515.19,637.52Z"/><path class="0be94bdb-fec2-4ddc-83c6-256b6284b810" d="M515.12,636.76c-2.88-33.23-16.77-61.69-37.81-83.11l-.33.1c18.9,19.87,33.23,47.45,37.61,84.07l.59-.29C515.17,637.26,515.15,637,515.12,636.76Z"/><path class="0be94bdb-fec2-4ddc-83c6-256b6284b810" d="M339.22,525.93l-.06.09s15.8-14.22,41.64-14.22a121.24,121.24,0,0,1,18.93,1.54c-1.49-.27-3-.54-4.48-.77C370.07,508.73,351.67,514.36,339.22,525.93Z"/><path class="0be94bdb-fec2-4ddc-83c6-256b6284b810" d="M462.87,540.9A132,132,0,0,1,477,553.74l.33-.1A136.44,136.44,0,0,0,462.87,540.9Z"/><path class="36569952-8abe-40d8-b452-8df96f7e5428" d="M410.32,689.59s21.9,5.79,37.79-2.81c18-9.73,22.63-33.49,22.63-33.49l6.8,3.08s14.72,36.24-6.84,43.56-57.24,0-57.24,0Z"/><g id="92cc2fbf-eadb-4b13-949c-49a7d2347492" data-name="lt5"><path class="6d717a60-a97f-4073-b359-ca686dbffe18" d="M859.42,270.88v2.31l.93,2.41c.37.4.73.42,1.08,0l1-2.36v-2.39Z"/><path class="6d717a60-a97f-4073-b359-ca686dbffe18" d="M865.5,268.18a14.35,14.35,0,0,1-9.49,0l-.22-15.87h9.92Z"/><path class="2fb0ba27-b173-4d85-abc9-e8b05babfc3f" d="M850.2,244.21v6.26c6.77,4.21,13.56,4.51,20.38.34v-6.6Z"/><ellipse class="6d717a60-a97f-4073-b359-ca686dbffe18" cx="860.39" cy="244.21" rx="10.19" ry="4.34"/><path class="2fb0ba27-b173-4d85-abc9-e8b05babfc3f" d="M863.45,270.47a5.81,5.81,0,0,1-5.14,0v-1.76a12.35,12.35,0,0,0,5.14,0Z"/><path class="2fb0ba27-b173-4d85-abc9-e8b05babfc3f" d="M864.89,266a22.14,22.14,0,0,1-8.28,0,1.36,1.36,0,0,1-1.23-1.42h0c0-.52.54-.84,1.39-.72a25.75,25.75,0,0,0,8.28,0c.67,0,1.06.18,1.06.72h0C866.11,265.29,865.68,265.74,864.89,266Z"/><path class="2fb0ba27-b173-4d85-abc9-e8b05babfc3f" d="M864.89,261.08a22.14,22.14,0,0,1-8.28,0,1.56,1.56,0,0,1-1.23-1.62h0c0-.52.54-.84,1.39-.72a25.75,25.75,0,0,0,8.28,0c.67,0,1.06.18,1.06.72h0A1.75,1.75,0,0,1,864.89,261.08Z"/><path class="2fb0ba27-b173-4d85-abc9-e8b05babfc3f" d="M864.89,256.39a22.14,22.14,0,0,1-8.28,0,1.56,1.56,0,0,1-1.23-1.62h0c0-.52.54-.84,1.39-.72a25.75,25.75,0,0,0,8.28,0c.67,0,1.06.18,1.06.72h0A1.75,1.75,0,0,1,864.89,256.39Z"/></g><g id="6c03093a-fc14-4dd1-9e46-ce3547f0ba81" data-name="lt6"><path class="6d717a60-a97f-4073-b359-ca686dbffe18" d="M892.8,335.18v2.31l.93,2.41c.37.4.73.42,1.08,0l1-2.36v-2.39Z"/><path class="6d717a60-a97f-4073-b359-ca686dbffe18" d="M898.88,332.47a14.35,14.35,0,0,1-9.49,0l-.22-15.87h9.92Z"/><path class="2fb0ba27-b173-4d85-abc9-e8b05babfc3f" d="M883.58,308.51v6.26c6.77,4.21,13.56,4.51,20.38.34v-6.6Z"/><ellipse class="6d717a60-a97f-4073-b359-ca686dbffe18" cx="893.76" cy="308.51" rx="10.19" ry="4.34"/><path class="2fb0ba27-b173-4d85-abc9-e8b05babfc3f" d="M896.82,334.77a5.81,5.81,0,0,1-5.14,0V333a12.35,12.35,0,0,0,5.14,0Z"/><path class="2fb0ba27-b173-4d85-abc9-e8b05babfc3f" d="M898.26,330.33a22.14,22.14,0,0,1-8.28,0,1.36,1.36,0,0,1-1.23-1.42h0c0-.52.54-.84,1.39-.72a25.75,25.75,0,0,0,8.28,0c.67,0,1.06.18,1.06.72h0C899.49,329.59,899.06,330,898.26,330.33Z"/><path class="2fb0ba27-b173-4d85-abc9-e8b05babfc3f" d="M898.26,325.37a22.14,22.14,0,0,1-8.28,0,1.56,1.56,0,0,1-1.23-1.62h0c0-.52.54-.84,1.39-.72a25.75,25.75,0,0,0,8.28,0c.67,0,1.06.18,1.06.72h0A1.75,1.75,0,0,1,898.26,325.37Z"/><path class="2fb0ba27-b173-4d85-abc9-e8b05babfc3f" d="M898.26,320.69a22.14,22.14,0,0,1-8.28,0,1.56,1.56,0,0,1-1.23-1.62h0c0-.52.54-.84,1.39-.72a25.75,25.75,0,0,0,8.28,0c.67,0,1.06.18,1.06.72h0A1.75,1.75,0,0,1,898.26,320.69Z"/></g><g id="cbacbe4e-7901-4208-b09e-158b26f031e5" data-name="lt3"><path class="6d717a60-a97f-4073-b359-ca686dbffe18" d="M216,532.47v2.31l.93,2.41c.37.4.73.42,1.08,0l1-2.36v-2.39Z"/><path class="6d717a60-a97f-4073-b359-ca686dbffe18" d="M222.11,529.76a14.35,14.35,0,0,1-9.49,0l-.22-15.87h9.92Z"/><path class="2fb0ba27-b173-4d85-abc9-e8b05babfc3f" d="M206.81,505.8v6.26c6.77,4.21,13.56,4.51,20.38.34v-6.6Z"/><ellipse class="6d717a60-a97f-4073-b359-ca686dbffe18" cx="217" cy="505.8" rx="10.19" ry="4.34"/><path class="2fb0ba27-b173-4d85-abc9-e8b05babfc3f" d="M220.06,532.06a5.81,5.81,0,0,1-5.14,0V530.3a12.35,12.35,0,0,0,5.14,0Z"/><path class="2fb0ba27-b173-4d85-abc9-e8b05babfc3f" d="M221.5,527.62a22.14,22.14,0,0,1-8.28,0A1.36,1.36,0,0,1,212,526.2h0c0-.52.54-.84,1.39-.72a25.75,25.75,0,0,0,8.28,0c.67,0,1.06.18,1.06.72h0C222.73,526.87,222.29,527.33,221.5,527.62Z"/><path class="2fb0ba27-b173-4d85-abc9-e8b05babfc3f" d="M221.5,522.66a22.14,22.14,0,0,1-8.28,0A1.56,1.56,0,0,1,212,521h0c0-.52.54-.84,1.39-.72a25.75,25.75,0,0,0,8.28,0c.67,0,1.06.18,1.06.72h0A1.75,1.75,0,0,1,221.5,522.66Z"/><path class="2fb0ba27-b173-4d85-abc9-e8b05babfc3f" d="M221.5,518a22.14,22.14,0,0,1-8.28,0,1.56,1.56,0,0,1-1.23-1.62h0c0-.52.54-.84,1.39-.72a25.75,25.75,0,0,0,8.28,0c.67,0,1.06.18,1.06.72h0A1.75,1.75,0,0,1,221.5,518Z"/></g><g id="5f9040fe-b0f3-48f8-86cb-47ffef83f4be" data-name="lt4"><path class="6d717a60-a97f-4073-b359-ca686dbffe18" d="M790,322.84v2.31l.93,2.41c.37.4.73.42,1.08,0l1-2.36v-2.39Z"/><path class="6d717a60-a97f-4073-b359-ca686dbffe18" d="M796,320.13a14.35,14.35,0,0,1-9.49,0l-.22-15.87h9.92Z"/><path class="2fb0ba27-b173-4d85-abc9-e8b05babfc3f" d="M780.75,296.17v6.26c6.77,4.21,13.56,4.51,20.38.34v-6.6Z"/><ellipse class="6d717a60-a97f-4073-b359-ca686dbffe18" cx="790.94" cy="296.17" rx="10.19" ry="4.34"/><path class="2fb0ba27-b173-4d85-abc9-e8b05babfc3f" d="M794,322.43a5.81,5.81,0,0,1-5.14,0v-1.76a12.35,12.35,0,0,0,5.14,0Z"/><path class="2fb0ba27-b173-4d85-abc9-e8b05babfc3f" d="M795.44,318a22.14,22.14,0,0,1-8.28,0,1.36,1.36,0,0,1-1.23-1.42h0c0-.52.54-.84,1.39-.72a25.75,25.75,0,0,0,8.28,0c.67,0,1.06.18,1.06.72h0C796.66,317.25,796.23,317.7,795.44,318Z"/><path class="2fb0ba27-b173-4d85-abc9-e8b05babfc3f" d="M795.44,313a22.14,22.14,0,0,1-8.28,0,1.56,1.56,0,0,1-1.23-1.62h0c0-.52.54-.84,1.39-.72a25.75,25.75,0,0,0,8.28,0c.67,0,1.06.18,1.06.72h0A1.75,1.75,0,0,1,795.44,313Z"/><path class="2fb0ba27-b173-4d85-abc9-e8b05babfc3f" d="M795.44,308.35a22.14,22.14,0,0,1-8.28,0,1.56,1.56,0,0,1-1.23-1.62h0c0-.52.54-.84,1.39-.72a25.75,25.75,0,0,0,8.28,0c.67,0,1.06.18,1.06.72h0A1.75,1.75,0,0,1,795.44,308.35Z"/></g><g id="7fc9c062-7049-407a-95d6-6b76b21962e1" data-name="lt2"><path class="6d717a60-a97f-4073-b359-ca686dbffe18" d="M103,528.6v2.31l.93,2.41c.37.4.73.42,1.08,0l1-2.36v-2.39Z"/><path class="6d717a60-a97f-4073-b359-ca686dbffe18" d="M109.09,525.9a14.35,14.35,0,0,1-9.49,0L99.38,510h9.92Z"/><path class="2fb0ba27-b173-4d85-abc9-e8b05babfc3f" d="M93.79,501.93v6.26c6.77,4.21,13.56,4.51,20.38.34v-6.6Z"/><ellipse class="6d717a60-a97f-4073-b359-ca686dbffe18" cx="103.97" cy="501.93" rx="10.19" ry="4.34"/><path class="2fb0ba27-b173-4d85-abc9-e8b05babfc3f" d="M107,528.2a5.81,5.81,0,0,1-5.14,0v-1.76a12.35,12.35,0,0,0,5.14,0Z"/><path class="2fb0ba27-b173-4d85-abc9-e8b05babfc3f" d="M108.47,523.76a22.14,22.14,0,0,1-8.28,0A1.36,1.36,0,0,1,99,522.33h0c0-.52.54-.84,1.39-.72a25.75,25.75,0,0,0,8.28,0c.67,0,1.06.18,1.06.72h0C109.7,523,109.27,523.46,108.47,523.76Z"/><path class="2fb0ba27-b173-4d85-abc9-e8b05babfc3f" d="M108.47,518.8a22.14,22.14,0,0,1-8.28,0A1.56,1.56,0,0,1,99,517.18h0c0-.52.54-.84,1.39-.72a25.75,25.75,0,0,0,8.28,0c.67,0,1.06.18,1.06.72h0A1.75,1.75,0,0,1,108.47,518.8Z"/><path class="2fb0ba27-b173-4d85-abc9-e8b05babfc3f" d="M108.47,514.11a22.14,22.14,0,0,1-8.28,0A1.56,1.56,0,0,1,99,512.5h0c0-.52.54-.84,1.39-.72a25.75,25.75,0,0,0,8.28,0c.67,0,1.06.18,1.06.72h0A1.75,1.75,0,0,1,108.47,514.11Z"/></g><g id="9f577190-52ad-4615-bdbc-190232fbd1a9" data-name="lt1"><path class="6d717a60-a97f-4073-b359-ca686dbffe18" d="M159.14,478.21v2.31l.93,2.41c.37.4.73.42,1.08,0l1-2.36v-2.39Z"/><path class="6d717a60-a97f-4073-b359-ca686dbffe18" d="M165.22,475.5a14.35,14.35,0,0,1-9.49,0l-.22-15.87h9.92Z"/><path class="2fb0ba27-b173-4d85-abc9-e8b05babfc3f" d="M149.92,451.53v6.26c6.77,4.21,13.56,4.51,20.38.34v-6.6Z"/><ellipse class="6d717a60-a97f-4073-b359-ca686dbffe18" cx="160.11" cy="451.53" rx="10.19" ry="4.34"/><path class="2fb0ba27-b173-4d85-abc9-e8b05babfc3f" d="M163.17,477.8a5.81,5.81,0,0,1-5.14,0V476a12.35,12.35,0,0,0,5.14,0Z"/><path class="2fb0ba27-b173-4d85-abc9-e8b05babfc3f" d="M164.61,473.36a22.14,22.14,0,0,1-8.28,0,1.36,1.36,0,0,1-1.23-1.42h0c0-.52.54-.84,1.39-.72a25.75,25.75,0,0,0,8.28,0c.67,0,1.06.18,1.06.72h0C165.83,472.61,165.4,473.07,164.61,473.36Z"/><path class="2fb0ba27-b173-4d85-abc9-e8b05babfc3f" d="M164.61,468.4a22.14,22.14,0,0,1-8.28,0,1.56,1.56,0,0,1-1.23-1.62h0c0-.52.54-.84,1.39-.72a25.75,25.75,0,0,0,8.28,0c.67,0,1.06.18,1.06.72h0A1.75,1.75,0,0,1,164.61,468.4Z"/><path class="2fb0ba27-b173-4d85-abc9-e8b05babfc3f" d="M164.61,463.72a22.14,22.14,0,0,1-8.28,0,1.56,1.56,0,0,1-1.23-1.62h0c0-.52.54-.84,1.39-.72a25.75,25.75,0,0,0,8.28,0c.67,0,1.06.18,1.06.72h0A1.75,1.75,0,0,1,164.61,463.72Z"/></g><path class="e36c1bbe-1b67-45c2-ac6f-5d575e091855" d="M389.8,572.5s71.5,8.47,79,87.55c0,0,13.09-32.61-14.47-71.63,0,0-16-24.13-35.42-30Z"/><g id="d8e928e0-1aff-4c63-9ea4-2ea40cb14db2" data-name="cir1"><path class="e290f3bc-edef-40cf-b5f3-a13fda202bd6" d="M572.21,761.21a44,44,0,0,0-44-44v87.94A44,44,0,0,0,572.21,761.21Z"/><path class="e19d1340-bc2e-459c-b9d3-f78e6e135c8f" d="M484.27,761.21a44,44,0,0,0,44,44V717.24A44,44,0,0,0,484.27,761.21Z"/><circle class="2437db53-932d-4bfd-afc1-7e8f3ab08260" cx="563.63" cy="743.7" r="3.28"/><circle class="2437db53-932d-4bfd-afc1-7e8f3ab08260" cx="552.08" cy="740.42" r="3.28"/><circle class="2437db53-932d-4bfd-afc1-7e8f3ab08260" cx="525.55" cy="723.91" r="3.28"/><circle class="2437db53-932d-4bfd-afc1-7e8f3ab08260" cx="515.52" cy="733.31" r="3.28"/><circle class="2437db53-932d-4bfd-afc1-7e8f3ab08260" cx="506.43" cy="730.03" r="3.28"/><circle class="2437db53-932d-4bfd-afc1-7e8f3ab08260" cx="498.95" cy="740.42" r="3.28"/><circle class="2437db53-932d-4bfd-afc1-7e8f3ab08260" cx="528.06" cy="798.52" r="3.28"/><circle class="2437db53-932d-4bfd-afc1-7e8f3ab08260" cx="563.63" cy="771.77" r="3.28"/><circle class="2437db53-932d-4bfd-afc1-7e8f3ab08260" cx="544.53" cy="728.19" r="3.28"/><circle class="2437db53-932d-4bfd-afc1-7e8f3ab08260" cx="550.23" cy="773.44" r="3.28"/><circle class="2437db53-932d-4bfd-afc1-7e8f3ab08260" cx="537.28" cy="786.41" r="3.28"/><circle class="2437db53-932d-4bfd-afc1-7e8f3ab08260" cx="493.41" cy="771.77" r="3.28"/><circle class="2437db53-932d-4bfd-afc1-7e8f3ab08260" cx="509.72" cy="779.92" r="3.28"/><polyline class="2210bcc6-c641-48f9-8a58-14e660226308" points="563.63 743.7 556.57 758.37 533.54 758.37"/><polyline class="e95ee804-75ba-498e-86b0-430d6e059305" points="482.75 764.87 514.59 764.87 521.41 770.53 521.41 780.96 511.3 788.7 493.52 788.7"/><polyline class="2210bcc6-c641-48f9-8a58-14e660226308" points="493.41 771.77 509.72 771.77 509.72 779.92"/><polyline class="04fefd52-1ca3-489d-aeae-ea8626678952" points="556.9 794.55 550.23 790.79 550.23 773.43 537.28 773.43 537.28 786.89 537.28 805.18"/><line class="c89e5b4a-445e-414c-86c2-69d6e871353d" x1="525.55" y1="750.98" x2="525.55" y2="724.91"/><line class="588fe587-a271-45ee-bb4c-f2f6a164498f" x1="528.24" y1="798.52" x2="528.24" y2="765.39"/><polyline class="2210bcc6-c641-48f9-8a58-14e660226308" points="533.54 756.09 533.54 734.6 544.53 728.19 544.53 719.59"/><polyline class="2210bcc6-c641-48f9-8a58-14e660226308" points="542.78 758.34 542.78 745.32 550.5 741.2"/><polyline class="2210bcc6-c641-48f9-8a58-14e660226308" points="532.3 763.62 546.19 763.62 563.63 771.77 558.75 783.2 565.93 787.25"/><polyline class="c89e5b4a-445e-414c-86c2-69d6e871353d" points="524.77 756.09 515.67 748.78 515.67 733.31 515.67 717.24"/><polyline class="c89e5b4a-445e-414c-86c2-69d6e871353d" points="520.76 762.58 506.43 752.35 506.43 731.4"/><circle class="8a6b5534-a73e-45c7-9e71-46161a88c59c" cx="528.06" cy="759.66" r="8.67"/><polyline class="e95ee804-75ba-498e-86b0-430d6e059305" points="484.43 757.45 498.95 757.45 498.95 740.42 491.69 734.6"/><line class="2210bcc6-c641-48f9-8a58-14e660226308" x1="556.56" y1="758.37" x2="572.05" y2="764.87"/><polyline class="e95ee804-75ba-498e-86b0-430d6e059305" points="511.3 788.7 517.9 797.32 514.6 805.18"/><line class="2210bcc6-c641-48f9-8a58-14e660226308" x1="550.23" y1="790.79" x2="546.94" y2="803.11"/><line class="2210bcc6-c641-48f9-8a58-14e660226308" x1="552.08" y1="740.42" x2="557.36" y2="726.75"/><line class="2210bcc6-c641-48f9-8a58-14e660226308" x1="525.55" y1="715.27" x2="525.55" y2="723.91"/><line class="e95ee804-75ba-498e-86b0-430d6e059305" x1="506.43" y1="730.03" x2="506.43" y2="720.62"/><path class="420d29c0-8241-435a-b54c-c5db934b2e97" d="M484.27,761.21a44,44,0,0,1,44-44v-3.71a47.69,47.69,0,0,0,0,95.37v-3.71A44,44,0,0,1,484.27,761.21Z"/><path class="8a6b5534-a73e-45c7-9e71-46161a88c59c" d="M528.24,713.52v3.71a44,44,0,1,1,0,87.94v3.71a47.69,47.69,0,0,0,0-95.37Z"/></g><g id="938a5790-4377-40b9-93f5-daa8f621c55c" data-name="cir3"><path class="e290f3bc-edef-40cf-b5f3-a13fda202bd6" d="M727.32,527.54A44,44,0,0,0,771.75,484l-87.94-.91A44,44,0,0,0,727.32,527.54Z"/><path class="e19d1340-bc2e-459c-b9d3-f78e6e135c8f" d="M728.23,439.6a44,44,0,0,0-44.42,43.52l87.94.91A44,44,0,0,0,728.23,439.6Z"/><circle class="2437db53-932d-4bfd-afc1-7e8f3ab08260" cx="744.92" cy="519.14" r="3.28" transform="translate(218.12 1258.65) rotate(-89.41)"/><circle class="2437db53-932d-4bfd-afc1-7e8f3ab08260" cx="748.32" cy="507.62" r="3.28" transform="translate(233 1250.66) rotate(-89.41)"/><circle class="2437db53-932d-4bfd-afc1-7e8f3ab08260" cx="765.11" cy="481.26" r="3.28" transform="translate(275.97 1241.36) rotate(-89.41)"/><circle class="2437db53-932d-4bfd-afc1-7e8f3ab08260" cx="755.8" cy="471.13" r="3.28" transform="translate(276.89 1222.03) rotate(-89.41)"/><circle class="2437db53-932d-4bfd-afc1-7e8f3ab08260" cx="759.18" cy="462.08" r="3.28" transform="translate(289.28 1216.45) rotate(-89.41)"/><circle class="2437db53-932d-4bfd-afc1-7e8f3ab08260" cx="748.87" cy="454.49" r="3.28" transform="translate(286.66 1198.63) rotate(-89.41)"/><circle class="2437db53-932d-4bfd-afc1-7e8f3ab08260" cx="690.47" cy="483" r="3.28" transform="translate(200.36 1168.44) rotate(-89.41)"/><circle class="2437db53-932d-4bfd-afc1-7e8f3ab08260" cx="716.85" cy="518.85" r="3.28" transform="translate(190.63 1230.3) rotate(-89.41)"/><circle class="2437db53-932d-4bfd-afc1-7e8f3ab08260" cx="760.63" cy="500.2" r="3.28" transform="translate(252.6 1255.62) rotate(-89.41)"/><circle class="2437db53-932d-4bfd-afc1-7e8f3ab08260" cx="715.32" cy="505.42" r="3.28" transform="translate(202.54 1215.49) rotate(-89.41)"/><circle class="2437db53-932d-4bfd-afc1-7e8f3ab08260" cx="702.49" cy="492.35" r="3.28" transform="translate(202.91 1189.71) rotate(-89.41)"/><circle class="2437db53-932d-4bfd-afc1-7e8f3ab08260" cx="717.58" cy="448.63" r="3.28" transform="translate(261.56 1161.54) rotate(-89.41)"/><circle class="2437db53-932d-4bfd-afc1-7e8f3ab08260" cx="709.26" cy="464.85" r="3.28" transform="translate(237.11 1169.27) rotate(-89.41)"/><polyline class="2210bcc6-c641-48f9-8a58-14e660226308" points="744.92 519.13 730.32 511.92 730.56 488.89"/><polyline class="e95ee804-75ba-498e-86b0-430d6e059305" points="724.58 438.04 724.25 469.88 718.52 476.64 708.1 476.54 700.46 466.35 700.65 448.56"/><polyline class="2210bcc6-c641-48f9-8a58-14e660226308" points="717.58 448.63 717.41 464.93 709.26 464.85"/><polyline class="04fefd52-1ca3-489d-aeae-ea8626678952" points="694.14 511.88 697.97 505.25 715.32 505.42 715.46 492.48 702.01 492.35 683.72 492.16"/><line class="c89e5b4a-445e-414c-86c2-69d6e871353d" x1="738.03" y1="480.98" x2="764.1" y2="481.25"/><line class="588fe587-a271-45ee-bb4c-f2f6a164498f" x1="690.46" y1="483.18" x2="723.6" y2="483.52"/><polyline class="2210bcc6-c641-48f9-8a58-14e660226308" points="732.84 488.92 754.34 489.14 760.63 500.2 769.23 500.29"/><polyline class="2210bcc6-c641-48f9-8a58-14e660226308" points="730.5 498.14 743.52 498.27 747.55 506.03"/><polyline class="2210bcc6-c641-48f9-8a58-14e660226308" points="725.33 487.6 725.18 501.49 716.85 518.85 705.47 513.85 701.35 520.98"/><polyline class="c89e5b4a-445e-414c-86c2-69d6e871353d" points="732.93 480.15 740.34 471.13 755.8 471.29 771.88 471.45"/><polyline class="c89e5b4a-445e-414c-86c2-69d6e871353d" points="726.49 476.07 736.86 461.85 757.81 462.07"/><circle class="8a6b5534-a73e-45c7-9e71-46161a88c59c" cx="729.33" cy="483.4" r="8.67" transform="translate(238.43 1207.7) rotate(-89.41)"/><polyline class="e95ee804-75ba-498e-86b0-430d6e059305" points="731.99 439.8 731.84 454.32 748.87 454.49 754.77 447.3"/><line class="2210bcc6-c641-48f9-8a58-14e660226308" x1="730.32" y1="511.92" x2="723.66" y2="527.34"/><polyline class="e95ee804-75ba-498e-86b0-430d6e059305" points="700.46 466.35 691.77 472.85 683.95 469.48"/><line class="2210bcc6-c641-48f9-8a58-14e660226308" x1="697.97" y1="505.25" x2="685.69" y2="501.84"/><line class="2210bcc6-c641-48f9-8a58-14e660226308" x1="748.32" y1="507.62" x2="761.94" y2="513.04"/><line class="2210bcc6-c641-48f9-8a58-14e660226308" x1="773.74" y1="481.35" x2="765.11" y2="481.26"/><line class="e95ee804-75ba-498e-86b0-430d6e059305" x1="759.18" y1="462.08" x2="768.59" y2="462.18"/><path class="420d29c0-8241-435a-b54c-c5db934b2e97" d="M728.23,439.6A44,44,0,0,1,771.75,484l3.71,0a47.69,47.69,0,0,0-95.37-1l3.71,0A44,44,0,0,1,728.23,439.6Z"/><path class="8a6b5534-a73e-45c7-9e71-46161a88c59c" d="M775.46,484.06l-3.71,0a44,44,0,1,1-87.94-.91l-3.71,0a47.69,47.69,0,0,0,95.37,1Z"/></g><g id="7480bf8c-54e7-423e-93e3-2884ef2c238b" data-name="cir2"><path class="e290f3bc-edef-40cf-b5f3-a13fda202bd6" d="M119.12,734.58A44,44,0,0,0,137.53,794l41-77.81A44,44,0,0,0,119.12,734.58Z"/><path class="e19d1340-bc2e-459c-b9d3-f78e6e135c8f" d="M196.93,775.56a44,44,0,0,0-18.41-59.4l-41,77.81A44,44,0,0,0,196.93,775.56Z"/><circle class="2437db53-932d-4bfd-afc1-7e8f3ab08260" cx="118.56" cy="754.06" r="3.28" transform="translate(-603.87 507.54) rotate(-62.22)"/><circle class="2437db53-932d-4bfd-afc1-7e8f3ab08260" cx="127.24" cy="762.35" r="3.28" transform="translate(-606.56 519.65) rotate(-62.22)"/><circle class="2437db53-932d-4bfd-afc1-7e8f3ab08260" cx="143.02" cy="789.33" r="3.28" transform="translate(-622 548.02) rotate(-62.22)"/><circle class="2437db53-932d-4bfd-afc1-7e8f3ab08260" cx="156.28" cy="785.68" r="3.28" transform="translate(-611.7 557.8) rotate(-62.22)"/><circle class="2437db53-932d-4bfd-afc1-7e8f3ab08260" cx="162.79" cy="792.82" r="3.28" transform="translate(-614.54 567.37) rotate(-62.22)"/><circle class="2437db53-932d-4bfd-afc1-7e8f3ab08260" cx="174.25" cy="787.11" r="3.28" transform="translate(-603.37 574.47) rotate(-62.22)"/><circle class="2437db53-932d-4bfd-afc1-7e8f3ab08260" cx="175.58" cy="722.14" r="3.28" transform="translate(-545.17 540.95) rotate(-62.22)"/><circle class="2437db53-932d-4bfd-afc1-7e8f3ab08260" cx="131.64" cy="729.23" r="3.28" transform="translate(-574.91 505.86) rotate(-62.22)"/><circle class="2437db53-932d-4bfd-afc1-7e8f3ab08260" cx="128.23" cy="776.69" r="3.28" transform="translate(-618.72 528.18) rotate(-62.22)"/><circle class="2437db53-932d-4bfd-afc1-7e8f3ab08260" cx="144.27" cy="734" r="3.28" transform="translate(-572.39 519.58) rotate(-62.22)"/><circle class="2437db53-932d-4bfd-afc1-7e8f3ab08260" cx="161.77" cy="728.56" r="3.28" transform="translate(-558.23 532.16) rotate(-62.22)"/><circle class="2437db53-932d-4bfd-afc1-7e8f3ab08260" cx="193.76" cy="761.95" r="3.28" transform="translate(-570.69 578.3) rotate(-62.22)"/><circle class="2437db53-932d-4bfd-afc1-7e8f3ab08260" cx="183.14" cy="747.14" r="3.28" transform="translate(-563.26 560.99) rotate(-62.22)"/><polyline class="2210bcc6-c641-48f9-8a58-14e660226308" points="118.56 754.06 131.64 744.38 152.02 755.11"/><polyline class="e95ee804-75ba-498e-86b0-430d6e059305" points="199.98 773.02 171.81 758.19 168.41 750 173.27 740.78 185.82 738.64 201.56 746.92"/><polyline class="2210bcc6-c641-48f9-8a58-14e660226308" points="193.76 761.95 179.34 754.36 183.14 747.14"/><polyline class="04fefd52-1ca3-489d-aeae-ea8626678952" points="148.2 712.21 152.36 718.65 144.27 734 155.72 740.03 161.99 728.13 170.51 711.95"/><line class="c89e5b4a-445e-414c-86c2-69d6e871353d" x1="155.64" y1="765.37" x2="143.49" y2="788.44"/><line class="588fe587-a271-45ee-bb4c-f2f6a164498f" x1="175.42" y1="722.05" x2="159.97" y2="751.37"/><polyline class="2210bcc6-c641-48f9-8a58-14e660226308" points="150.95 757.12 140.94 776.14 128.23 776.69 124.22 784.3"/><polyline class="2210bcc6-c641-48f9-8a58-14e660226308" points="143.82 750.83 137.75 762.35 129 762.39"/><polyline class="2210bcc6-c641-48f9-8a58-14e660226308" points="155.56 751.04 143.27 744.57 131.63 729.23 141.28 721.39 136.82 714.46"/><polyline class="c89e5b4a-445e-414c-86c2-69d6e871353d" points="158.71 761.21 163.35 771.92 156.14 785.61 148.65 799.83"/><polyline class="c89e5b4a-445e-414c-86c2-69d6e871353d" points="165.28 757.34 173.19 773.07 163.43 791.61"/><circle class="8a6b5534-a73e-45c7-9e71-46161a88c59c" cx="157.46" cy="756.53" r="8.67" transform="translate(-585.27 543.28) rotate(-62.22)"/><polyline class="e95ee804-75ba-498e-86b0-430d6e059305" points="195.03 778.81 182.19 772.04 174.25 787.11 177.96 795.65"/><line class="2210bcc6-c641-48f9-8a58-14e660226308" x1="131.64" y1="744.38" x2="120.97" y2="731.41"/><polyline class="e95ee804-75ba-498e-86b0-430d6e059305" points="185.82 738.64 184 727.93 190.58 722.52"/><line class="2210bcc6-c641-48f9-8a58-14e660226308" x1="152.36" y1="718.65" x2="161" y2="709.28"/><line class="2210bcc6-c641-48f9-8a58-14e660226308" x1="127.24" y1="762.35" x2="116.2" y2="771.99"/><line class="2210bcc6-c641-48f9-8a58-14e660226308" x1="139" y1="796.97" x2="143.02" y2="789.33"/><line class="e95ee804-75ba-498e-86b0-430d6e059305" x1="162.79" y1="792.82" x2="158.41" y2="801.14"/><path class="420d29c0-8241-435a-b54c-c5db934b2e97" d="M196.93,775.56A44,44,0,0,1,137.53,794l-1.73,3.29a47.69,47.69,0,0,0,44.45-84.38l-1.73,3.29A44,44,0,0,1,196.93,775.56Z"/><path class="8a6b5534-a73e-45c7-9e71-46161a88c59c" d="M135.8,797.26l1.73-3.29a44,44,0,1,1,41-77.81l1.73-3.29a47.69,47.69,0,0,0-44.45,84.38Z"/></g><path class="0be94bdb-fec2-4ddc-83c6-256b6284b810" d="M777.44,562.55l6.51,22A92.7,92.7,0,0,0,777.44,562.55Z"/><path class="0be94bdb-fec2-4ddc-83c6-256b6284b810" d="M769.16,561.86a34.15,34.15,0,0,1-1.46,9.85q12.4,6.6,24.7,13.83l-7.29-24.61c-5.76-3.22-11.59-6.32-17.46-9.35A35,35,0,0,1,769.16,561.86Z"/><path class="0be94bdb-fec2-4ddc-83c6-256b6284b810" d="M770.38,667.25l-7,15.35A48.28,48.28,0,0,0,770.38,667.25Z"/><path class="0be94bdb-fec2-4ddc-83c6-256b6284b810" d="M784.31,620.28l.82,18C786.21,631.24,786,625.18,784.31,620.28Z"/><path class="dae31925-3976-478e-8d5a-6fcbe6bdd084" d="M678.24,432.54a1005.61,1005.61,0,0,0-160.6-23.62A19.86,19.86,0,0,0,522,448.17c9.09,0,19.43-6.9,22.73-15.5,33.29.82,67.16,6,101.56,15.4l30.82-15Z"/><path class="dae31925-3976-478e-8d5a-6fcbe6bdd084" d="M346.93,414.92c11,0,19.84-7.28,19.84-16.26a14.32,14.32,0,0,0-3.78-9.53l-20.91,2.95L327.3,401h0C328.71,408.86,336.95,414.92,346.93,414.92Z"/><path class="dae31925-3976-478e-8d5a-6fcbe6bdd084" d="M318.33,435.61c0-5.9-2.6-13.56-7.52-18.32-.58,5.85-11.69,27.1-28.64,37.45a34,34,0,0,0,9.41,1.33C306.35,456.07,318.33,446.91,318.33,435.61Z"/><path class="dae31925-3976-478e-8d5a-6fcbe6bdd084" d="M738.18,434.12a79.47,79.47,0,0,1-22.86-13.57q-6.42,1.11-12.77,2.81Q720.32,428.32,738.18,434.12Z"/><path class="0be94bdb-fec2-4ddc-83c6-256b6284b810" d="M678.19,434.12a46,46,0,0,0,5,1.63Z"/><path class="0be94bdb-fec2-4ddc-83c6-256b6284b810" d="M683.2,435.75l-.34,13.74C683.85,444.13,684.24,439.57,683.2,435.75Z"/><path class="0be94bdb-fec2-4ddc-83c6-256b6284b810" d="M761.78,494l6,16.27A47.56,47.56,0,0,0,761.78,494Z"/><path class="0be94bdb-fec2-4ddc-83c6-256b6284b810" d="M677.7,432.54q32.59,7.45,65.15,16.94l.34-13.74a46,46,0,0,1-5-1.63q-17.87-5.79-35.63-10.77A145.76,145.76,0,0,0,677.7,432.54Z"/><path class="699872f7-d840-411d-9188-905aefd4c5e4" d="M562.09,658.22l-46.61,19c0-.07,0-.13,0-.2l0,.2-39-20.91L206,787.64a28.65,28.65,0,0,0-16,25.62,28.11,28.11,0,0,0,13.28,24.08A27.7,27.7,0,0,0,230.63,839L584.8,670.35c-11.14-6.15-19.73-10.79-22.7-12.38Z"/><path class="dae31925-3976-478e-8d5a-6fcbe6bdd084" d="M598.35,597.06l-37.84,18.41,0,.18c2.49,21,1.83,30.43,1.56,42.31,3,1.6,11.56,6.23,22.7,12.38l17.31-8.24C604.8,641,603.29,618.89,598.35,597.06Z"/><path class="dae31925-3976-478e-8d5a-6fcbe6bdd084" d="M560.74,448.82a27,27,0,0,0-9.51,20.82c0,7.6,3.84,14.61,9.81,19.64L623.32,459C600.91,453.53,580,450.06,560.74,448.82Z"/><path class="dae31925-3976-478e-8d5a-6fcbe6bdd084" d="M461.94,412.63c3.14-9,15-17.65,26.93-17.5a48.17,48.17,0,0,1,7.34.27l0,0c68.34-1.32,136.84,8.53,206.36,28q6.34-1.7,12.77-2.81C699.87,407.45,684.14,384,686.12,343l-248.19,35a76.12,76.12,0,0,1,6.5,27.51Z"/><path class="dae31925-3976-478e-8d5a-6fcbe6bdd084" d="M658.77,567.67a624.18,624.18,0,0,1,81.92,28.45l12.09-5.76a30.92,30.92,0,0,0,16.24-19,546.06,546.06,0,0,0-60.77-27.78Z"/><path class="dae31925-3976-478e-8d5a-6fcbe6bdd084" d="M755.87,536.5a31.47,31.47,0,0,0-16.38-4.77,30,30,0,0,0-11.72,2.43q21.05,8.8,41.2,19.25A30.94,30.94,0,0,0,755.87,536.5Z"/><path class="dae31925-3976-478e-8d5a-6fcbe6bdd084" d="M639.51,637.72c-5.73,1.57-10.6,6.55-13.52,13l23.22-11.06c-3.3-.73-6.56-1.41-9.7-2Z"/><path class="dae31925-3976-478e-8d5a-6fcbe6bdd084" d="M295.05,492.84a18.83,18.83,0,0,0-9.19-16.14c1.19,13.64-2.54,25.55-16.58,33.87a19.23,19.23,0,0,0,6.64,1.2A19,19,0,0,0,295.05,492.84Z"/><path class="dae31925-3976-478e-8d5a-6fcbe6bdd084" d="M339.22,525.93c24.1-38.09,80.63-43.06,112.16-36.16,22.5,4.92,41.1,13.81,56.24,25.49L548,495.6c-32.88-39.69-77.24-67-124.28-67C349,428.68,315,470.1,312.23,542.15l16.6-3A55.37,55.37,0,0,1,339.22,525.93Z"/><path class="dae31925-3976-478e-8d5a-6fcbe6bdd084" d="M618.23,587.39a23.06,23.06,0,0,0-2.16,9.78c0,11.93,8.85,21.6,19.77,21.6a18.21,18.21,0,0,0,4.2-.5h0c10.32,2.46,21.7,5.75,33.83,9.65l47-22.36c-29.09-11.41-57.73-20.5-85.55-26.48Z"/><path class="dae31925-3976-478e-8d5a-6fcbe6bdd084" d="M599.19,678.27a152.55,152.55,0,0,0,2.92-16.17l-17.31,8.24c4.45,2.46,9.31,5.15,14.37,8l0-.07Z"/><polygon class="dae31925-3976-478e-8d5a-6fcbe6bdd084" points="597.73 514.55 594.32 495.68 597.65 514.38 597.73 514.55"/><path class="dae31925-3976-478e-8d5a-6fcbe6bdd084" d="M626,650.73a33.22,33.22,0,0,0-2.93,13.6c0,8,2.93,15.06,7.5,19.72,12.19,8.84,24.9,15.51,38.14,19.53v17.94s47.64-30.3,101.83-39.71c-44.58-18.39-87.05-34.57-121.32-42.13Z"/><path class="dae31925-3976-478e-8d5a-6fcbe6bdd084" d="M560.51,615.47l37.84-18.41c-8.28-36.56-26.2-72.35-50.31-101.47l-40.41,19.66C539.44,539.81,555.88,576.75,560.51,615.47Z"/><path class="dae31925-3976-478e-8d5a-6fcbe6bdd084" d="M673.88,627.93c30.83,9.9,66.71,23.8,103.62,38.53,0,0-3.75-19,14.75-29-24-11.86-47.84-22.62-71.42-31.87Z"/><path class="dae31925-3976-478e-8d5a-6fcbe6bdd084" d="M627.69,577.51a20.76,20.76,0,0,0-9.45,9.88l17.06-8.3C632.75,578.54,630.21,578,627.69,577.51Z"/><path class="dae31925-3976-478e-8d5a-6fcbe6bdd084" d="M676.55,433.07l-30.82,15c38,10.34,76.73,25.74,116.05,45.9-12.46-9.18-20.24-22.66-18.93-44.49Q710.29,440,677.7,432.54Z"/><path class="dae31925-3976-478e-8d5a-6fcbe6bdd084" d="M561,489.28A33.19,33.19,0,0,0,581.16,497a37.45,37.45,0,0,0,13-1.58l.18.25Q664.83,508,727.78,534.15a30,30,0,0,1,11.72-2.43,31.47,31.47,0,0,1,16.38,4.77A30.94,30.94,0,0,1,769,553.41c5.24,2.71,10.44,5.47,15.58,8.35-15.82-13.4-23.63-29.75-16.81-51.52C714.43,487,666.11,469.37,623.32,459Z"/><path class="dae31925-3976-478e-8d5a-6fcbe6bdd084" d="M597.73,514.55a27.24,27.24,0,0,0,21.1,44.18c13.4,2.39,26.71,5.4,40,8.93l49.48-24.07A519.26,519.26,0,0,0,597.73,514.55Z"/><path class="dae31925-3976-478e-8d5a-6fcbe6bdd084" d="M752.78,590.36l-12.09,5.76q25.37,10.71,50.74,23.37s-12-20.15-.36-35.77q-11-6.48-22.05-12.34A30.92,30.92,0,0,1,752.78,590.36Z"/><path class="0be94bdb-fec2-4ddc-83c6-256b6284b810" d="M708.25,543.59A546.06,546.06,0,0,1,769,571.38a30.49,30.49,0,0,0,1.3-8.8,31.25,31.25,0,0,0-1.35-9.17q-20.16-10.43-41.2-19.25c-.56.23-1.12.48-1.68.76Z"/><path class="0be94bdb-fec2-4ddc-83c6-256b6284b810" d="M708.25,543.59l17.85-8.68c.56-.27,1.12-.52,1.68-.76q-62.87-26.29-133.46-38.48l3.41,18.88A519.26,519.26,0,0,1,708.25,543.59Z"/><polygon class="0be94bdb-fec2-4ddc-83c6-256b6284b810" points="269.42 523.94 312.21 542.15 269.26 510.58 269.42 523.94"/><path class="0be94bdb-fec2-4ddc-83c6-256b6284b810" d="M599.12,678.52c-.36,1.5-.74,3-1.15,4.5-.17.64-.36,1.25-.53,1.88l-.1.38,27.33,14.11,44,22.14c-8.92-8.45-42.27-27.89-69.53-43.18Z"/><path class="0be94bdb-fec2-4ddc-83c6-256b6284b810" d="M635.29,579.09c27.82,6,56.46,15.07,85.55,26.48l19.86-9.45a624.18,624.18,0,0,0-81.92-28.45Z"/><path class="0be94bdb-fec2-4ddc-83c6-256b6284b810" d="M423.76,428.63c47,0,91.4,27.27,124.28,67l13-6.32c-6-5-9.81-12-9.81-19.64a27,27,0,0,1,9.51-20.82c19.29,1.24,40.17,4.7,62.58,10.15l22.42-10.91c-34.41-9.35-68.27-14.57-101.56-15.4-3.3,8.6-13.64,15.5-22.73,15.5a19.86,19.86,0,0,1-4.35-39.24,1005.61,1005.61,0,0,1,160.6,23.62,145.76,145.76,0,0,1,24.85-9.19c-69.53-19.44-138-29.29-206.36-28l0,0a48.17,48.17,0,0,0-7.34-.27c-12-.15-23.78,8.53-26.93,17.5l-17.5-7.18a76.12,76.12,0,0,0-6.5-27.51l-30.15,4.25a17.39,17.39,0,1,1-27.64,4.57h-4.82l-16.8,2.37a12.23,12.23,0,0,1,3.23,8.14c0,7.67-7.59,13.89-16.95,13.89-8.53,0-15.57-5.17-16.75-11.89h0l-19.87,16.79c1.09-.67,1.54-.14,1.4,1.24,4.93,4.76,7.52,12.42,7.52,18.32,0,11.3-12,20.46-26.75,20.46a34,34,0,0,1-9.41-1.33,101.85,101.85,0,0,1,4.94,22,18.83,18.83,0,0,1,9.19,16.14,19,19,0,0,1-19.13,18.92,19.23,19.23,0,0,1-6.64-1.2h0l43,31.57h0C315,470.1,349,428.68,423.76,428.63Z"/><path class="0be94bdb-fec2-4ddc-83c6-256b6284b810" d="M640,618.27a18.21,18.21,0,0,1-4.2.5c-10.92,0-19.77-9.67-19.77-21.6a23.06,23.06,0,0,1,2.16-9.78l-19.88,9.67c4.94,21.83,6.44,43.92,3.76,65L626,650.73c2.92-6.46,7.79-11.44,13.52-13h0c3.14.56,6.4,1.24,9.7,2l24.67-11.75c-12.14-3.9-23.51-7.19-33.83-9.65Z"/><path class="0be94bdb-fec2-4ddc-83c6-256b6284b810" d="M720.84,605.57c23.58,9.25,47.45,20,71.42,31.87l-.82-18Q766,606.87,740.7,596.12Z"/><path class="0be94bdb-fec2-4ddc-83c6-256b6284b810" d="M630.56,684.05c-4.58-4.66-7.5-11.76-7.5-19.72a33.22,33.22,0,0,1,2.93-13.6L602.11,662.1a152.55,152.55,0,0,1-2.92,16.17h0l0,.07c27.26,15.28,60.6,34.73,69.53,43.18V703.58C655.46,699.56,642.74,692.9,630.56,684.05Z"/><path class="0be94bdb-fec2-4ddc-83c6-256b6284b810" d="M649.21,639.68c34.26,7.56,76.74,23.74,121.32,42.13l7-15.35c-36.91-14.73-72.79-28.63-103.62-38.53Z"/><path class="0be94bdb-fec2-4ddc-83c6-256b6284b810" d="M623.32,459c42.79,10.4,91.12,28,144.43,51.26l-6-16.27c-39.32-20.16-78-35.56-116.05-45.9Z"/><path class="0be94bdb-fec2-4ddc-83c6-256b6284b810" d="M618.23,587.39a20.76,20.76,0,0,1,9.45-9.88c2.53.49,5.07,1,7.61,1.58l23.48-11.42c-13.24-3.53-26.55-6.54-40-8.93a27.24,27.24,0,0,1-21.1-44.18l-.08-.17-3.33-18.71-.18-.25a37.45,37.45,0,0,1-13,1.58A33.19,33.19,0,0,1,561,489.28l-13,6.32c24.12,29.12,42,64.91,50.31,101.47Z"/><path class="0be94bdb-fec2-4ddc-83c6-256b6284b810" d="M556.29,617.53,517.4,636.45l0,0-2.17,1.05a222.22,222.22,0,0,1,.3,39.52c0,.07,0,.13,0,.2l46.61-19V658l-1.13-.61Z"/><path class="0be94bdb-fec2-4ddc-83c6-256b6284b810" d="M515.19,637.52l2.17-1.05,0,0,38.89-18.92-1.11-9.47L542,558.77l-33-14.62-31.65,9.5c21,21.42,34.93,49.88,37.81,83.11C515.15,637,515.17,637.26,515.19,637.52Z"/><path class="0be94bdb-fec2-4ddc-83c6-256b6284b810" d="M561,657.35l1.13.61c.27-11.88.93-21.33-1.56-42.31l0-.18-4.22,2.05Z"/><path class="0be94bdb-fec2-4ddc-83c6-256b6284b810" d="M459.76,538.53q1.56,1.16,3.1,2.37a136.44,136.44,0,0,1,14.45,12.74l31.65-9.5,33,14.62,13.17,49.29,1.11,9.47,4.22-2.05c-4.63-38.72-21.07-75.66-52.89-100.21l-39.73,19.33Z"/><g id="7712a424-d296-4123-8384-369c1fe7de21" data-name="pencil"><path class="339fabdc-8f78-4286-aa89-6779b7a7abe7" d="M742.16,57.19c40.09-4,79.55-3,118.23,4.44-11,41.19-31.77,75.92-59.44,106Z"/><path class="4d38eb14-8b9d-4dc5-b4b7-c0a2e958f8dd" d="M842.86,107.68c.28.76,13.6-28.53,17.52-46.06a379.6,379.6,0,0,0-51-6.17S838.77,63.51,842.86,107.68Z"/><path class="8ae8c6e2-8c3f-455f-9a9f-45e8d1476c36" d="M577,215.29C589.61,239,602.1,263,616.19,284.57c90.53-53.63,183.29-111.45,184.76-116.92,8-30,2.85-53.84-7.31-71.63Z"/><path class="e19d1340-bc2e-459c-b9d3-f78e6e135c8f" d="M742.16,57.19c-63.27,31.19-128.43,65.35-196.92,101.89C556.51,176.75,566.8,196,577,215.29L793.64,96C778.57,69.63,752.52,56.64,742.16,57.19Z"/><path class="0313fd4f-0afb-40fc-b37e-92225906f6b6" d="M593.29,388.94l121.34-62.73s-4.48-20-11.25-29.36c-3.36-4.63-1-20.76-1-20.76s-15.84-7.46-10.52-38.08,11-62.79,11-62.79-29.47.26-37.66-26.64L657,121.68s-40.4-1.14-53.54-35.72l-16.68-5.32s-32.42,18.94-51-6.75L517,74.53S495.42,122.12,456.77,106l-16.94.9c-6.78,15.94-16.39,27.64-28.49,35.63,0,0-16.21,16.71-41.35,19.41-6.44.69,168.65,249.68,168.65,249.68Z"/><path class="696d9c1b-1c15-41e3-86b9-2fa16021f98b" d="M525.1,118.66c5.82-15.81,9.75-30.87,10.74-44.77L517,74.53c-4.93,26.63-16.52,54.24-31.67,82.37-5.25,6-16,9.18-27.73,7.46-15.61-2.3-27.06-12.41-25.56-22.59a12.34,12.34,0,0,1,.39-1.71l-.15,0a331.07,331.07,0,0,0,24.52-34l-16.94.9c-6.85,11.77-16.78,23.67-28.49,35.63l-.09,0c3,9.48-1.69,20.44-11.56,25.86-10.81,5.94-23.88,3-29.71-6.49l-2.2,1-10,17.54-.21.81c5.63,4.24,9.37,11.61,9.37,20,0,13.16-9.21,22.29-20.47,23.83l-.27,0-.11.41s-.43,10.75,0,16.73l.09.2c11.79,2.88,20.87,21,20.87,43,0,1,0,2.08-.07,3.11l9.43,18.08,14.08,28.38,7.5,19.17,12.46,18.39a18.76,18.76,0,0,1,6.37-2.13c13.13-1.83,25.71,10.63,28.11,27.82a40.52,40.52,0,0,1,.28,8.38h0l17.26,6.59.14,0c6.47-10.94,17.21-18.1,29.38-18.1,16.9,0,31.05,13.82,34.82,32.39h0l0,0c65.32-32.84,127.19-78.06,183.2-139.35a31.83,31.83,0,0,0-7.67-12.17C654.54,336.89,552.51,404.8,546.83,403c-.06-.89-.09-1.8-.09-2.7,0-23.95,21.57-43.36,48.17-43.36a53.83,53.83,0,0,1,7.34.5C650.7,313,691.48,259.74,710.57,184.07l-7.71-8.85C679.67,246.24,646.27,302,601,340.08l0-.07a31.93,31.93,0,0,1-13,2.71c-15.27,0-27.66-10.34-27.66-23.1,0-10.41,8.25-19.21,19.58-22.1h0c41.42-38.93,72.61-89,86.32-153.74A80.31,80.31,0,0,0,657,121.68c-15.32,73.23-42,126.49-79.86,152.74a22.37,22.37,0,0,1-3.8.94c-15.3,2.35-30.13-11.5-33.11-30.93-1.66-10.81.7-21.07,5.75-28.45l-.09-.16c26.41-40.35,47.58-83,57.57-129.87l-16.68-5.32c-5.47,45.18-28.48,84-54.1,121.78a20,20,0,0,1-16.42,8.92c-11.37,0-20.59-10-20.59-22.39a27.65,27.65,0,0,1,4.67-15.81c9.6-18.7,18.32-37,24.74-54.49"/><path class="e19d1340-bc2e-459c-b9d3-f78e6e135c8f" d="M379.54,248.57c-18.14,9.35-36.54,18.91-50.34,26.25l.75.27c23.78-12.65,32.94-17.53,49.72-26.52Z"/><path class="e19d1340-bc2e-459c-b9d3-f78e6e135c8f" d="M375.72,406.05a14.72,14.72,0,0,0,1-1.43A14.75,14.75,0,0,1,375.72,406.05Z"/><path class="e19d1340-bc2e-459c-b9d3-f78e6e135c8f" d="M380.06,404.65c-1.39.47-2.83.93-4.34,1.4C375.94,406.37,377.48,405.84,380.06,404.65Z"/><path class="8ae8c6e2-8c3f-455f-9a9f-45e8d1476c36" d="M456.66,281.59a106.94,106.94,0,0,1,8,41.61c0,11.38-1.05,20.72-3.79,29.64v0c-.11.35-.22.68-.32,1l-.1.31c-.7,2.2-1.43,4.23-2.2,6.21,26.83-15.85,51.28-30.57,57.19-34.16a5,5,0,0,0,1.95-2.29c13.25-30,3.09-57.45-4.07-73.57Z"/><path class="e19d1340-bc2e-459c-b9d3-f78e6e135c8f" d="M456.66,281.59l56.65-31.2c-17.43-26.44-50.35-38.52-66.55-36.21,0,0-19.83,10.07-44.58,22.76C429.67,242.47,447.36,259.68,456.66,281.59Z"/><path class="e8a8d0a7-5156-4ead-8d1a-f2089710f8c7" d="M329.94,275.09l-1.41.75c29,9.87,44.58,27.93,52.18,47.57l.61-.33C374,303.29,358.63,285.08,329.94,275.09Z"/><path class="e8a8d0a7-5156-4ead-8d1a-f2089710f8c7" d="M380.06,404.65c11.53-3.92,20.32-8.77,51.39-25.46,1-1.62,1.91-3.17,2.74-4.66C410.68,388.23,389,400.51,380.06,404.65Z"/><path class="e8a8d0a7-5156-4ead-8d1a-f2089710f8c7" d="M381.32,323.07l-.61.33c12.78,33,2.93,70.54-4,81.21C383.64,394,393.69,356.3,381.32,323.07Z"/><path class="e8a8d0a7-5156-4ead-8d1a-f2089710f8c7" d="M381.32,323.07l56.58-31.16c-9.6-22.81-27.62-39.19-48.88-42.64l0-.07a52,52,0,0,0-9.4-.64c-16.78,9-25.94,13.88-49.72,26.52C358.63,285.08,374,303.29,381.32,323.07Z"/><path class="cf955921-c191-4880-98ff-13fa4f6364be" d="M439.88,362.24l.1-.29a.77.77,0,0,1,.12-.34,98.38,98.38,0,0,0,5.25-32,97.38,97.38,0,0,0-7.45-37.74l-56.58,31.16c12.37,33.22,2.32,70.88-4.57,81.55a14.72,14.72,0,0,1-1,1.43c1.52-.47,3-.93,4.34-1.4,9-4.14,30.62-16.42,54.12-30.12A100.9,100.9,0,0,0,439.88,362.24Z"/><path class="e4c97719-bbbb-4caf-b546-d72636fb299b" d="M456.44,365.83c.07-.54.14-1.08.21-1.62q-.44,1-.91,2Z"/><path class="e4c97719-bbbb-4caf-b546-d72636fb299b" d="M464.65,323.2a106.94,106.94,0,0,0-8-41.61l-3.64,2-15.12,8.32a97.38,97.38,0,0,1,7.45,37.74,98.38,98.38,0,0,1-5.25,32,.77.77,0,0,0-.12.34l-.1.29a100.9,100.9,0,0,1-5.69,12.29c-.82,1.49-1.73,3-2.74,4.66l-.49.8c-.63,1.15-.1,2,1.19,2.28,1.07.28,1.7-.25,3-2.32,1.74-2.43,3.11-4.37,1.8-2.29-.63,1.15-.1,2,1.19,2.28,1.07.28,1.7-.25,3-2.32.79-1.1,1.52-2.26,2.23-3.46-.05.73.49,1.25,1.45,1.48s1.7-.25,3-2.32c.51-.72,1-1.46,1.48-2.23.07.6.58,1,1.44,1.25,1.07.28,1.7-.25,3-2.32.67-1.31,1.29-2.57,1.88-3.82q.47-1,.91-2c.56-1.26,1.08-2.51,1.58-3.79.78-2,1.5-4,2.2-6.21l.1-.31c.11-.34.22-.67.32-1v0C463.6,343.92,464.65,334.59,464.65,323.2Z"/><path class="339fabdc-8f78-4286-aa89-6779b7a7abe7" d="M369.21,406.91c23,0,33.43-29.38,33.43-61.07,0-40.86-24.31-72.74-54.24-74-43.3-1.81-44.7,43.59-44.7,50.28C303.69,380.17,337.34,406.91,369.21,406.91Z"/><path class="4d38eb14-8b9d-4dc5-b4b7-c0a2e958f8dd" d="M402.18,236.93a97,97,0,0,0-15.15-1.8,1.78,1.78,0,0,0-2,1.39,1.73,1.73,0,0,0,.81,1.94l-2.26-.08a1.81,1.81,0,0,0-2,1.39,1.7,1.7,0,0,0,1.14,2.1c3.34.16,1.67.15-2.59,0a1.81,1.81,0,0,0-2,1.39,1.7,1.7,0,0,0,1.14,2.1c3.65.17,1,.29-3.88.14a1.81,1.81,0,0,0-2,1.39,1.7,1.7,0,0,0,1.14,2.1,37,37,0,0,1,4.85-.45h.12a52,52,0,0,1,9.4.64l0,.07c21.26,3.45,39.28,19.83,48.88,42.64L453,283.59l3.64-2C447.36,259.68,429.67,242.47,402.18,236.93Z"/><g id="4e04feb2-8134-475b-9263-6bcb18ccc851" data-name="eyes"><circle class="61dbe216-c9d8-4c2e-a42b-9ca061a6d7a3" cx="321.62" cy="319.29" r="5.78"/><circle class="61dbe216-c9d8-4c2e-a42b-9ca061a6d7a3" cx="365.71" cy="319.29" r="5.78"/><circle class="4d38eb14-8b9d-4dc5-b4b7-c0a2e958f8dd" cx="343.96" cy="335.55" r="13.6"/><path id="66454b27-219f-411b-b9b6-51ebdede6e7f" data-name="mouth" class="61dbe216-c9d8-4c2e-a42b-9ca061a6d7a3" d="M367.49,355.19a2.33,2.33,0,0,1,1.95,3.62c-3.27,4.91-10.63,13.09-23.52,13.36s-20.53-8.3-23.82-13.37a2.33,2.33,0,0,1,2-3.61Z"/><circle class="274fd022-7982-4dd3-b7f8-3570153c43ba" cx="339.91" cy="334.37" r="4.04"/></g></g><path class="36569952-8abe-40d8-b452-8df96f7e5428" d="M514.59,637.81c-4.38-36.61-18.72-64.19-37.61-84.07a132,132,0,0,0-14.11-12.84c-1-.79-2.07-1.59-3.13-2.35l-40.85,19.83Q422.51,560,426,562a42.91,42.91,0,0,1,7.66,4.76,1.46,1.46,0,0,1,.44.55h0c22.82,16.94,37.13,45.33,37.13,74.88,0,4-.14,7.68-.41,11.1l5.7,3.05,39,20.91,0-.2A213.07,213.07,0,0,0,514.59,637.81Z"/></g></svg>