<svg id="f31b6a7a-79bb-460d-93c2-79cfb95b4dc5" data-name="圖層 1" xmlns="http://www.w3.org/2000/svg" viewBox="0 0 158.66 298.27"><defs><style>.\32 d361eb1-0e7e-40a9-bdee-7597b736292a{fill:#08004e;}.\39 e8fe94c-5a9c-488d-9c45-9475e964da30{fill:#fff0e5;}.c83f164c-23ac-45d4-8319-1214ab6780ca{fill:none;stroke:#f7f7f7;stroke-miterlimit:10;stroke-width:4px;}.ec9d99ab-700b-4715-ade3-808bf787e58e{fill:#f7f7f7;}</style></defs><title>about</title><rect class="2d361eb1-0e7e-40a9-bdee-7597b736292a" x="34.8" y="101.77" width="89.15" height="114.3"/><rect class="2d361eb1-0e7e-40a9-bdee-7597b736292a" x="34.8" y="227.81" width="89.15" height="70.46"/><rect class="2d361eb1-0e7e-40a9-bdee-7597b736292a" x="135.33" y="101.36" width="23.33" height="86.9"/><rect class="2d361eb1-0e7e-40a9-bdee-7597b736292a" y="101.41" width="23.33" height="86.9"/><rect class="9e8fe94c-5a9c-488d-9c45-9475e964da30" x="34.8" width="89.15" height="89.24"/><rect class="2d361eb1-0e7e-40a9-bdee-7597b736292a" x="62.54" y="39.19" width="6.42" height="6.73"/><rect class="2d361eb1-0e7e-40a9-bdee-7597b736292a" x="89.08" y="39.19" width="6.42" height="6.73"/><polygon class="2d361eb1-0e7e-40a9-bdee-7597b736292a" points="98.12 0 34.8 46.42 34.57 0 123.81 0 123.95 19.83 98.12 0"/><path class="2d361eb1-0e7e-40a9-bdee-7597b736292a" d="M79.19,52.45S62.75,64.19,47.88,54.8c0,0,3.67,18.91,18,17.22,13.31-1.57,13.31-14.09,13.31-14.09s5.48,14.87,14.87,14.87c11.74,0,17.22-18,17.22-18S89.37,61.06,79.19,52.45Z"/><line class="c83f164c-23ac-45d4-8319-1214ab6780ca" x1="83.11" y1="101.77" x2="76.06" y2="216.07"/><circle class="ec9d99ab-700b-4715-ade3-808bf787e58e" cx="93.67" cy="135.04" r="3.52"/><circle class="ec9d99ab-700b-4715-ade3-808bf787e58e" cx="91.33" cy="164.79" r="3.52"/></svg>