<svg id="圖層_1" data-name="圖層 1" xmlns="http://www.w3.org/2000/svg" viewBox="0 0 154 154"><defs><style>.cls-1{fill:#fff;}.cls-2{fill:#ff6c4d;}.cls-3{fill:#ff8b6b;}.cls-4{fill:#14114b;}</style></defs><circle class="cls-1" cx="77" cy="77" r="77"/><polygon class="cls-2" points="48.8 47.5 26.4 69.9 76.5 120 126.6 69.9 104.2 47.5 48.8 47.5"/><polygon class="cls-3" points="48.8 47.5 58.23 68.72 26.4 69.9 48.8 47.5"/><polyline class="cls-3" points="94.77 68.72 104.2 47.5 126.6 69.9"/><polygon class="cls-3" points="77.09 47.5 58.23 68.72 94.77 68.72 77.09 47.5"/><polygon class="cls-3" points="48.8 68.72 75.91 119.41 58.67 68.72 48.8 68.72"/><polygon class="cls-3" points="101.85 68.72 75.91 119.41 92.4 68.72 101.85 68.72"/><rect class="cls-4" x="98.86" y="19" width="15.34" height="3.98"/><rect class="cls-4" x="109.35" y="27.04" width="4.84" height="1.76"/><rect class="cls-4" x="109.35" y="33.27" width="4.84" height="1.76"/><rect class="cls-4" x="109.35" y="39.5" width="4.84" height="1.76"/><rect class="cls-4" x="109.35" y="45.73" width="4.84" height="1.76"/><rect class="cls-4" x="109.35" y="51.95" width="4.84" height="1.76"/><rect class="cls-4" x="105.09" y="59.34" width="9.34" height="2.42"/><rect class="cls-4" x="109.35" y="68.22" width="4.84" height="1.76"/><rect class="cls-4" x="109.35" y="74.45" width="4.84" height="1.76"/><rect class="cls-4" x="109.35" y="80.68" width="4.84" height="1.76"/><rect class="cls-4" x="109.35" y="86.91" width="4.84" height="1.76"/><rect class="cls-4" x="109.35" y="93.13" width="4.84" height="1.76"/><rect class="cls-4" x="105.09" y="100.52" width="9.34" height="2.42"/><rect class="cls-4" x="109.35" y="109.4" width="4.84" height="1.76"/><rect class="cls-4" x="109.35" y="115.63" width="4.84" height="1.76"/><rect class="cls-4" x="109.35" y="121.86" width="4.84" height="1.76"/><rect class="cls-4" x="109.35" y="128.08" width="4.84" height="1.76"/><rect class="cls-4" x="109.35" y="134.31" width="4.84" height="1.76"/></svg>