<svg xmlns="http://www.w3.org/2000/svg" xmlns:xlink="http://www.w3.org/1999/xlink" viewBox="0 0 904.53 588"><defs><style>.cls-1{fill:#ff6b4d;}.cls-2{fill:#ff8b6b;}.cls-3{fill:#f2f2f2;}.cls-4{fill:#e6e6e6;}.cls-5{fill:#ff5a31;}.cls-6{fill:url(#未命名漸層_3);}.cls-7{fill:url(#未命名漸層_3-2);}.cls-8{fill:url(#未命名漸層_3-3);}.cls-9{fill:#ff6c4d;}.cls-10{fill:#fff;}.cls-11{fill:#14114b;}.cls-12{fill:#f4432d;}.cls-13{fill:none;stroke:#fff;stroke-miterlimit:10;stroke-width:3px;}</style><linearGradient id="未命名漸層_3" x1="-772.03" y1="-2670.41" x2="-772.03" y2="-2770.16" gradientTransform="translate(1348.31 2861.47)" gradientUnits="userSpaceOnUse"><stop offset="0" stop-color="#fff"/><stop offset="1" stop-color="#fff" stop-opacity="0"/></linearGradient><linearGradient id="未命名漸層_3-2" x1="-583.99" y1="-2846.96" x2="-583.99" y2="-2972.09" gradientTransform="translate(1427.04 3049.86)" xlink:href="#未命名漸層_3"/><linearGradient id="未命名漸層_3-3" x1="-404.58" y1="-2634.54" x2="-404.58" y2="-2799.58" gradientTransform="translate(1238.4 3120.34)" xlink:href="#未命名漸層_3"/></defs><title>course</title><g id="圖層_4" data-name="圖層 4"><path class="cls-1" d="M.9,354.53s353.75-3.59,470.8,51.64c123.72,58.37,189.6,111.88,210.85,135.32s40.6,50.34,40.6,50.34H.9Z"/><ellipse class="cls-2" cx="644.05" cy="546.37" rx="15.98" ry="64.92" transform="translate(-175.86 748.98) rotate(-54.19)"/><ellipse class="cls-2" cx="337.56" cy="400.17" rx="18.81" ry="68.39" transform="translate(-119.13 656.14) rotate(-79.12)"/><ellipse class="cls-2" cx="86.22" cy="364.05" rx="66.34" ry="15.01"/><ellipse class="cls-2" cx="454.36" cy="528.36" rx="15.76" ry="40.82" transform="translate(-113.89 931.72) rotate(-84.67)"/><path class="cls-3" d="M223.92,252.5s34.67-13.65,52.86,0,40.36,0,40.36,0v52.29s-20.46,12.51-41.5,0-51.72,3.41-51.72,3.41Z"/><path class="cls-1" d="M256.88,262.73v29.56h10.24s17.62,1.13,17.62-15.92c0-13.64-17.05-13.64-17.05-13.64Z"/><rect class="cls-4" x="217.66" y="252.5" width="6.25" height="162"/><polygon class="cls-5" points="202.88 417.34 212.55 407.68 217.66 417.34 220.5 407.68 227.9 407.68 237.56 421.89 240.4 432.69 217.66 432.69 202.88 423.02 202.88 417.34"/><circle class="cls-3" cx="540.78" cy="176.57" r="2.61"/><rect class="cls-6" x="574.26" y="91.31" width="4.04" height="99.75" transform="translate(268.62 -366.14) rotate(45)"/><circle class="cls-3" cx="798.52" cy="184.73" r="3.28"/><rect class="cls-7" x="840.53" y="77.77" width="5.06" height="125.13" transform="translate(346.16 -555.03) rotate(45)"/><circle class="cls-3" cx="775.08" cy="461.83" r="3.16"/><rect class="cls-8" x="830.48" y="320.77" width="6.68" height="165.03" transform="translate(529.39 -471.48) rotate(45)"/><path class="cls-9" d="M106.26,279.67c3.4,1.78,12.93,10.2,14.29,20.4,2,14.9,7.1,31.81,4.94,38.29-3.79,11.37-21.12,4.33-33,5.95s-21.12,11.38-27.08,9.75S41.16,299.9,52.54,291.23,93.3,272.88,106.26,279.67Z"/><circle class="cls-10" cx="104.89" cy="297.14" r="7.93"/><circle class="cls-11" cx="105.71" cy="293.32" r="3.35"/><circle class="cls-10" cx="78.37" cy="297.14" r="7.93"/><circle class="cls-11" cx="80.55" cy="293.32" r="3.35"/><path class="cls-11" d="M101.54,302.79s7.58,7.58,4.33,8.13a18.4,18.4,0,0,1-6,0l-1.62-8.13Z"/><path class="cls-11" d="M112.74,323.12s-3-1.36-10.87-1.36-8.05,3.17-9.63,4.14,6.68.81,14.92.21S112.74,323.12,112.74,323.12Z"/><path class="cls-9" d="M101.66,268.64c0-3.89,3.44-6,7.32-6s6.76,2.08,6.76,6-1.71,5.72-5.4,6.95C106.26,277,101.66,272.53,101.66,268.64Z"/><circle class="cls-9" cx="51.29" cy="279.32" r="4.87"/><path class="cls-12" d="M55.26,289.19c-4.08,25.84,6.68,59.73,12,61.17,6,1.63,15.17-8.12,27.09-9.75,10.64-1.45,25.6,4,31.37-2.92-.06.23-.12.46-.19.67-3.79,11.37-21.12,4.33-33,5.95s-21.12,11.38-27.08,9.75C59.6,352.49,38.93,294.63,55.26,289.19Z"/><path class="cls-9" d="M126,337.27s-1.62,25.46-6.5,26.54-9.2-18.88-9.2-18.88Z"/><path class="cls-9" d="M80,342.92S77.83,366,74,366s-8.67-15.86-8.67-15.86Z"/><path class="cls-12" d="M341.45,347.88s-5.33-16.15-14.42-28.13c-3.12-4.11-6.43,19.75,11.13,31.78C351.19,360.46,341.45,347.88,341.45,347.88Z"/><path class="cls-12" d="M369.33,352.81S381.08,337.3,394.61,330c4.65-2.5-2.19,29.62-23.71,30C354.94,360.29,369.33,352.81,369.33,352.81Z"/><path class="cls-9" d="M364.06,323.75c7.58,3,12.95,3.87,13.88,33.05.89,28.08,8.13,50.86-1.51,48.7-1.86-.42-6.55-21.95-20.66-20.54s-23,24.17-27.19,22.36-7.15-20.56-2.71-51.86S356.48,320.77,364.06,323.75Z"/><ellipse class="cls-10" cx="364.76" cy="343.64" rx="8.57" ry="7.76" transform="translate(-17.41 19.47) rotate(-2.99)"/><ellipse class="cls-11" cx="365.44" cy="341.39" rx="4.42" ry="4" transform="translate(-17.29 19.5) rotate(-2.99)"/><path class="cls-11" d="M364.38,366.38a10.14,10.14,0,0,0-8-3.48c-5,.28-4.58-2.49-.82-4.27s11.51-1.81,11.95,5.22S364.38,366.38,364.38,366.38Z"/><path class="cls-13" d="M364.06,323.75s-2.66-15-18.86-15.68c-15.69-.62-7.76,10.32-7.76,10.32"/><circle class="cls-10" cx="338.13" cy="320.34" r="4.72"/><path class="cls-12" d="M360.49,384.72c11.06-1.11,16.6,11.36,19.16,17.41.3,4.7-.26,6-3.22,3.37-1.31-1.18-5.81-19-17.66-20.49A13.72,13.72,0,0,1,360.49,384.72Z"/><path class="cls-12" d="M325.87,355.46c3.76-26.48,23.06-33,33.51-32.55-10.71,1.47-25.55,9.44-28.79,32.3-3.9,27.44-2.07,45.23,1.23,50.42-1.29,1.36-2.37,2.07-3.24,1.69C324.43,405.51,321.43,386.76,325.87,355.46Z"/><polygon class="cls-10" points="536.02 171.01 525.01 170.75 531.5 179.65 527.85 190.04 538.32 186.62 547.08 193.3 547.05 182.29 556.12 176.02 545.63 172.64 542.48 162.08 536.02 171.01"/><path class="cls-5" d="M15.86,364-9.3,390.31l29.24.21,3.4,4.08s5.44,2.72,10.2,0,6.8-4.08,6.8-4.08l17,5.44,4.08-5.44L71.81,378.7S41,372.84,15.86,364Z"/><path class="cls-5" d="M72.31,505,47.14,531.3l29.25.21,3.4,4.08s5.44,2.72,10.2,0,6.8-4.08,6.8-4.08l17,5.44,4.08-5.44,10.38-11.82S97.47,513.83,72.31,505Z"/><circle class="cls-11" cx="537.45" cy="175.98" r="1.02"/><circle class="cls-11" cx="543.26" cy="178.82" r="1.02"/><path class="cls-11" d="M541.17,181.77l-2-.28c-1.51-.22-1.37-1.23-1.37-1.23S536.64,184.74,541.17,181.77Z"/><ellipse class="cls-2" cx="122.84" cy="504.72" rx="50.74" ry="19"/></g></svg>