<svg xmlns="http://www.w3.org/2000/svg" xmlns:xlink="http://www.w3.org/1999/xlink" viewBox="0 0 838 588"><defs><style>.cls-1,.cls-13,.cls-15,.cls-9{fill:none;}.cls-1{clip-rule:evenodd;}.cls-2{clip-path:url(#clip-path);}.cls-3{clip-path:url(#clip-path-2);}.cls-4{clip-path:url(#clip-path-3);}.cls-5{fill:#14114b;}.cls-16,.cls-18,.cls-6{fill:#fff;}.cls-14,.cls-7{fill:#ff6c4d;}.cls-8{fill:#f4432d;}.cls-9{stroke:#fff;stroke-width:5px;}.cls-13,.cls-15,.cls-9{stroke-miterlimit:10;}.cls-10{fill:#f2f2f2;}.cls-11{fill:#ff8b6b;}.cls-12{fill:#ccc;}.cls-13{stroke:#14114b;stroke-width:9px;}.cls-14{opacity:0.41;}.cls-15{stroke:#ff6c4d;stroke-width:7px;}.cls-16,.cls-17{opacity:0.14;}.cls-17{fill:url(#未命名漸層_7);}.cls-18{font-size:51.18px;font-family:NotoSansCJKtc-Black-B5pc-H, Noto Sans CJK TC;}</style><clipPath id="clip-path"><path class="cls-1" d="M-1249,76.49c-.1.15.68,87.51.68,87.51l21,.21s56.87,6.6,57.34-41.73-53.49-45.84-53.49-45.84Z"/></clipPath><clipPath id="clip-path-2"><path class="cls-1" d="M-1418.37-5355.51c-.09.15.69,87.51.69,87.51l21,.21s56.86,6.6,57.33-41.73-53.48-45.84-53.48-45.84Z"/></clipPath><clipPath id="clip-path-3"><path class="cls-1" d="M-1396.37-5433.51c-.09.15.69,87.51.69,87.51l21,.21s56.86,6.6,57.33-41.73-53.48-45.84-53.48-45.84Z"/></clipPath><linearGradient id="未命名漸層_7" x1="490.64" y1="542.97" x2="486.64" y2="590.97" gradientUnits="userSpaceOnUse"><stop offset="0" stop-color="#fff"/><stop offset="1" stop-color="#fff" stop-opacity="0"/></linearGradient></defs><title>hero</title><g id="圖層_2" data-name="圖層 2"><rect class="cls-5" width="838" height="588"/><rect class="cls-6" x="451.6" y="396.14" width="326.4" height="131.27"/><rect class="cls-7" x="345.08" y="420.98" width="106.53" height="106.43"/><path class="cls-7" d="M524,394.37s9.44-31.93,9.44-55.88-10-61.2-2.5-70.07,80,5.33,91.69,63,3.61,63,3.61,63Z"/><circle class="cls-6" cx="575.33" cy="315.88" r="19.07"/><path class="cls-8" d="M575.33,296.81a19.07,19.07,0,0,0-19.07,19.07c0,.15,0,.29,0,.44h38.1c0-.15,0-.29,0-.44A19.07,19.07,0,0,0,575.33,296.81Z"/><path class="cls-5" d="M575.33,324a7.53,7.53,0,0,0,7.54-7.54c0-.05,0-.11,0-.17H567.8c0,.06,0,.12,0,.17A7.54,7.54,0,0,0,575.33,324Z"/><path class="cls-5" d="M552.84,360.22s13.69-2.82,20-2.82,15.39,2.82,15.39,2.82,4,1.4,0,3.51-15.39,0-15.39,0-13.69,0-17.11.71S549.42,360.92,552.84,360.22Z"/><path class="cls-8" d="M622.67,331.4c-11.67-57.65-84.19-71.85-91.69-63a10.14,10.14,0,0,0-1.84,3.83c22.85,1,76.35,12.25,85.66,58.26,6.8,33.58,1.47,56.5.37,63.86h11.11S634.34,389.05,622.67,331.4Z"/><path class="cls-9" d="M531.43,271.9s-11.82-14.54-27.58-6.23,1.32,20.77-3.94,24.93"/><circle class="cls-6" cx="492.85" cy="294.59" r="9.31"/><rect class="cls-6" x="699.06" y="334.06" width="16.85" height="60.31"/><rect class="cls-6" x="720.35" y="334.06" width="14.19" height="60.31" transform="translate(55.13 -93.85) rotate(7.67)"/><rect class="cls-7" x="746.96" y="332.28" width="17.74" height="60.31" transform="translate(-64.64 190.76) rotate(-13.8)"/><rect class="cls-6" x="329.2" y="387.74" width="36.36" height="27.45"/><path class="cls-6" d="M305.26,402.35c4.43-3.54,17.73,0,17.73,0v-3.54s-14.19-3.55-17.73,0S300.82,405.9,305.26,402.35Z"/><path class="cls-7" d="M239.62,360.67s-36.36-6.21-40.8,17.74,3.55,51.44,0,63.86-9.76,30.15-1.77,35.47,58.54-7.09,69.18-2.66,34.59,3.55,37.25.89,1.78-38.14-8.87-55.88,1.78-53.21-24.83-55.88S239.62,360.67,239.62,360.67Z"/><circle class="cls-6" cx="248.93" cy="385.94" r="15.52"/><path class="cls-8" d="M248.93,370.42a15.52,15.52,0,0,0-15.52,15.52,24.05,24.05,0,0,0,0-2.52h31a24.05,24.05,0,0,0,0,2.52A15.52,15.52,0,0,0,248.93,370.42Z"/><path class="cls-5" d="M255.43,389.7a6.14,6.14,0,0,0,6.14-6.14c0-.05,0-.09,0-.14H249.3c0,.05,0,.09,0,.14A6.14,6.14,0,0,0,255.43,389.7Z"/><circle class="cls-6" cx="225.87" cy="423.2" r="15.52"/><path class="cls-8" d="M225.87,407.68a15.52,15.52,0,0,0-15.52,15.52,24.88,24.88,0,0,0,0-2.53h31c0,2.77,0,2.65,0,2.53A15.51,15.51,0,0,0,225.87,407.68Z"/><path class="cls-5" d="M232.37,427a6.14,6.14,0,0,0,6.14-6.14c0-.05,0-.09,0-.14H226.24c0,.05,0,.09,0,.14A6.14,6.14,0,0,0,232.37,427Z"/><circle class="cls-6" cx="265.79" cy="422.31" r="15.52"/><path class="cls-8" d="M265.79,406.79a15.52,15.52,0,0,0-15.53,15.52,24.88,24.88,0,0,0,0-2.53h31a24.88,24.88,0,0,0,0,2.53A15.52,15.52,0,0,0,265.79,406.79Z"/><path class="cls-5" d="M272.28,426.06a6.14,6.14,0,0,0,6.14-6.13c0-.05,0-.1,0-.15H266.15v.15A6.13,6.13,0,0,0,272.28,426.06Z"/><path class="cls-7" d="M197.05,477.74s14.19,39.92,19.51,41.69-2.29-40.8,5.95-41.69S213,463.55,197.05,477.74Z"/><path class="cls-7" d="M272.28,476.83s5.48,42.6,10.8,42.6,9.76-32.82,19.51-42.57S272.28,476.83,272.28,476.83Z"/><path class="cls-5" d="M250.26,444c-8.87.89-16.85,17.74-11.53,21.29s7.1-4.44,15.08-5.32c4.75-.53,10.65,3.54,12.42,3.54S268,442.27,250.26,444Z"/><path class="cls-7" d="M194.52,344.55s-5.92,2.22-3,9.62,5.92,8.14,9.62,7.4,7.4-3,7.4-5.92a21,21,0,0,0-1.48-8.88C205.62,343.07,196.74,343.07,194.52,344.55Z"/><path class="cls-7" d="M272.69,349.24s-5.11,9.71,2.65,11.6,11.41,1.86,11.16-4.59S280.84,345.74,272.69,349.24Z"/><path class="cls-6" d="M176.34,406.28l9.75-10.57,2.44,14.63,12.19-4.88L194.22,416l7.31,1.63-13,.16,18.27,6.46-25.59-.12s4.07,56.08-13.82,70.71-63.4,48-95.1,23.58-14.63-59.34,34.14-72.34S147.89,413.59,176.34,406.28Z"/><polygon class="cls-7" points="178.27 434.88 184.47 425.99 164.33 406.38 153.67 415.59 178.27 434.88"/><path class="cls-7" d="M169.18,376.32s-11.43,31.13-3.55,30.82l-11,8.18s-9.5-25.39,2.19-34.94l0,10.28Z"/><polygon class="cls-6" points="479.99 328.74 502.16 342.93 479.99 350.02 439.19 368.65 324.77 371.31 282.19 314.55 359.36 287.05 459.58 295.03 479.99 328.74"/><path class="cls-5" d="M324.66,319.54h-1.78v-2.4h2.06l.3-2.58h-1.87v-2.4h2.21l.48-3.93h2.15l-.46,3.93h2.42l.49-3.93h2.15l-.45,3.93h1.89v2.4h-2.19l-.34,2.58h2v2.4h-2.32l-.53,4.49h-2.19l.53-4.49h-2.4L326.3,324h-2.17Zm4.87-2.4.32-2.58h-2.42l-.32,2.58Z"/><path class="cls-5" d="M336.16,319a10.94,10.94,0,0,1,11.1-11.35c5.3,0,8.68,3.61,8.68,8.73,0,4.49-3,6.72-5.62,6.72a2.63,2.63,0,0,1-2.82-1.85h-.07a3.84,3.84,0,0,1-2.93,1.62c-1.94,0-3.23-1.47-3.23-3.7,0-3,2.16-6,5-6a1.92,1.92,0,0,1,1.83,1.22h0l.38-1h2.3l-1.13,5.43c-.34,1.36,0,2,1.07,2,1.46,0,2.87-1.71,2.87-4.3,0-3.42-1.81-6.57-6.64-6.57-4.14,0-8.25,3.53-8.25,9,0,4.79,3.36,7,7.1,7a8.6,8.6,0,0,0,3.66-.91l.81,2a9.66,9.66,0,0,1-4.76,1.15C340.61,328.26,336.16,325.32,336.16,319Zm10.68.47.59-3.21a1.21,1.21,0,0,0-1.08-.68c-1.39,0-2.26,2-2.26,3.38,0,1,.47,1.57,1.24,1.57C345.82,320.56,346.26,320.26,346.84,319.5Z"/><path class="cls-5" d="M359.19,314.63l1.44-2.53L358,310.86l.61-1.84,2.85.61.32-2.93h2l.29,2.93,2.88-.61.59,1.84-2.68,1.24,1.47,2.53-1.55,1.15-2-2.19-2,2.19Z"/><path class="cls-5" d="M377.81,312.54a3.78,3.78,0,0,0-2.61-1.19c-1.13,0-1.73.41-1.73,1.47,0,2.15,6.38,2,6.38,6.61a4.52,4.52,0,0,1-3.78,4.72v2.53h-2.49v-2.4a8.23,8.23,0,0,1-4.32-1.87l1.66-2.55a5.6,5.6,0,0,0,3.43,1.4c1.31,0,1.89-.51,1.89-1.55,0-2.32-6.36-2.38-6.36-6.72a4.37,4.37,0,0,1,3.7-4.57v-2.51h2.49v2.47a6,6,0,0,1,3.61,2Z"/><path class="cls-5" d="M383.93,319.54h-1.78v-2.4h2.06l.3-2.58h-1.87v-2.4h2.21l.49-3.93h2.14l-.46,3.93h2.42l.49-3.93h2.15l-.45,3.93h1.89v2.4h-2.19l-.34,2.58h2v2.4h-2.31l-.54,4.49H388l.53-4.49h-2.4l-.55,4.49H383.4Zm4.87-2.4.32-2.58H386.7l-.32,2.58Z"/><path class="cls-5" d="M396.88,319.54h-1.79v-2.4h2.07l.29-2.58h-1.87v-2.4h2.21l.49-3.93h2.15l-.47,3.93h2.43l.49-3.93H405l-.44,3.93h1.89v2.4h-2.19l-.34,2.58h2v2.4h-2.32l-.53,4.49h-2.19l.53-4.49h-2.4l-.55,4.49h-2.17Zm4.87-2.4.32-2.58h-2.43l-.32,2.58Z"/><path class="cls-5" d="M409.27,314.63l1.45-2.53-2.66-1.24.62-1.84,2.85.61.32-2.93h2l.3,2.93L417,309l.6,1.84-2.68,1.24,1.47,2.53-1.56,1.15-2-2.19-2,2.19Z"/><path class="cls-5" d="M420.18,317.26a20.54,20.54,0,0,1,3.21-11.12l2.36,1a21.61,21.61,0,0,0,0,20.29l-2.36,1A20.44,20.44,0,0,1,420.18,317.26Z"/><path class="cls-5" d="M436.4,312.54a3.78,3.78,0,0,0-2.61-1.19c-1.13,0-1.73.41-1.73,1.47,0,2.15,6.38,2,6.38,6.61a4.52,4.52,0,0,1-3.78,4.72v2.53h-2.49v-2.4a8.23,8.23,0,0,1-4.32-1.87l1.66-2.55a5.6,5.6,0,0,0,3.43,1.4c1.31,0,1.89-.51,1.89-1.55,0-2.32-6.36-2.38-6.36-6.72a4.37,4.37,0,0,1,3.7-4.57v-2.51h2.49v2.47a6,6,0,0,1,3.61,2Z"/><path class="cls-5" d="M323.77,342.78A20.49,20.49,0,0,1,327,331.66l2.36,1a21.61,21.61,0,0,0,0,20.29l-2.36,1A20.49,20.49,0,0,1,323.77,342.78Z"/><path class="cls-5" d="M331.76,352.92a21.61,21.61,0,0,0,0-20.29l2.36-1a20.87,20.87,0,0,1,0,22.24Z"/><path class="cls-5" d="M340.22,344.54a10.94,10.94,0,0,1,11.1-11.35c5.3,0,8.68,3.61,8.68,8.74,0,4.48-3,6.71-5.62,6.71a2.62,2.62,0,0,1-2.82-1.85h-.07a3.84,3.84,0,0,1-2.93,1.62c-1.94,0-3.23-1.47-3.23-3.7,0-3,2.16-6,4.95-6a1.91,1.91,0,0,1,1.83,1.21h0l.38-1h2.3l-1.13,5.42c-.34,1.36,0,2,1.07,2,1.46,0,2.87-1.7,2.87-4.3,0-3.42-1.81-6.57-6.64-6.57-4.14,0-8.25,3.53-8.25,9,0,4.78,3.36,7,7.1,7a8.6,8.6,0,0,0,3.66-.91l.81,2a9.66,9.66,0,0,1-4.76,1.15C344.67,353.77,340.22,350.83,340.22,344.54Zm10.68.47.59-3.21a1.2,1.2,0,0,0-1.08-.68c-1.38,0-2.26,2-2.26,3.38,0,1,.47,1.57,1.24,1.57C349.88,346.07,350.32,345.77,350.9,345Z"/><path class="cls-5" d="M363.8,345.05H362v-2.4h2.07l.29-2.57H362.5v-2.41h2.21l.49-3.93h2.15l-.47,3.93h2.43l.49-3.93h2.14l-.44,3.93h1.89v2.41H371.2l-.34,2.57h2v2.4h-2.32l-.53,4.49h-2.19l.53-4.49H366l-.55,4.49h-2.17Zm4.87-2.4.32-2.57h-2.43l-.31,2.57Z"/><path class="cls-5" d="M376.19,340.14l1.45-2.53L375,336.38l.62-1.85,2.85.61.32-2.93h2l.3,2.93,2.87-.61.6,1.85-2.68,1.23,1.47,2.53-1.56,1.15-2-2.19-2,2.19Z"/><path class="cls-5" d="M394.82,338.06a3.74,3.74,0,0,0-2.62-1.19c-1.12,0-1.72.4-1.72,1.46,0,2.15,6.38,2,6.38,6.61a4.54,4.54,0,0,1-3.79,4.73v2.53h-2.48v-2.41a8.2,8.2,0,0,1-4.32-1.87l1.66-2.55a5.58,5.58,0,0,0,3.42,1.4c1.32,0,1.89-.51,1.89-1.55,0-2.32-6.35-2.38-6.35-6.72a4.37,4.37,0,0,1,3.7-4.57v-2.51h2.48v2.47a6,6,0,0,1,3.62,2Z"/><path class="cls-5" d="M407.76,338.06a3.72,3.72,0,0,0-2.61-1.19c-1.13,0-1.72.4-1.72,1.46,0,2.15,6.38,2,6.38,6.61a4.54,4.54,0,0,1-3.79,4.73v2.53h-2.49v-2.41a8.2,8.2,0,0,1-4.31-1.87l1.66-2.55a5.55,5.55,0,0,0,3.42,1.4c1.32,0,1.89-.51,1.89-1.55,0-2.32-6.36-2.38-6.36-6.72a4.38,4.38,0,0,1,3.7-4.57v-2.51H406v2.47a6.06,6.06,0,0,1,3.62,2Z"/><path class="cls-5" d="M413.33,340.14l1.45-2.53-2.66-1.23.62-1.85,2.85.61.32-2.93h2l.3,2.93,2.87-.61.6,1.85L419,337.61l1.47,2.53-1.56,1.15-2-2.19-2,2.19Z"/><path class="cls-5" d="M425.13,345.05h-1.78v-2.4h2.06l.3-2.57h-1.87v-2.41h2.21l.49-3.93h2.14l-.46,3.93h2.42l.49-3.93h2.15l-.45,3.93h1.89v2.41h-2.19l-.34,2.57h2v2.4h-2.31l-.54,4.49h-2.19l.54-4.49h-2.41l-.55,4.49H424.6Zm4.87-2.4.32-2.57H427.9l-.32,2.57Z"/><path class="cls-5" d="M444.91,338.06a3.76,3.76,0,0,0-2.62-1.19c-1.13,0-1.72.4-1.72,1.46,0,2.15,6.38,2,6.38,6.61a4.54,4.54,0,0,1-3.79,4.73v2.53h-2.49v-2.41a8.2,8.2,0,0,1-4.31-1.87l1.66-2.55a5.55,5.55,0,0,0,3.42,1.4c1.32,0,1.89-.51,1.89-1.55,0-2.32-6.36-2.38-6.36-6.72a4.38,4.38,0,0,1,3.7-4.57v-2.51h2.49v2.47a6.06,6.06,0,0,1,3.62,2Z"/><path class="cls-5" d="M451,345.05h-1.79v-2.4h2.06l.3-2.57h-1.87v-2.41h2.21l.49-3.93h2.15l-.47,3.93h2.42l.49-3.93h2.15l-.45,3.93h1.9v2.41h-2.19l-.34,2.57h2v2.4h-2.32l-.53,4.49h-2.19l.53-4.49h-2.4l-.56,4.49H450.5Zm4.86-2.4.32-2.57h-2.42l-.32,2.57Z"/><rect class="cls-7" x="660.82" y="330.31" width="6.21" height="66.52" transform="translate(137.6 -180.46) rotate(17.24)"/><polygon class="cls-8" points="677.48 300.44 689.83 314.49 686.94 323.81 683.26 335.67 664.21 337.19 677.48 300.44"/><rect class="cls-10" x="655.6" y="313.66" width="6.21" height="82.49" transform="translate(-28.65 59.29) rotate(-5.04)"/><rect class="cls-11" x="644.07" y="353.57" width="33.7" height="42.57"/><polygon class="cls-12" points="658.42 314.41 653.57 300.39 652.05 314.55 658.42 314.41"/><path class="cls-5" d="M548.27,452.32c0-2.55-1.8-3.88-4.18-3.88s-4.06,1.21-5.86,3l-5.68-5.22a16.86,16.86,0,0,1,12.82-6.09c7.2,0,12.82,3.42,12.82,11.49s-9.92,10.44-9.16,18.1h-9C538.64,460.8,548.27,457.08,548.27,452.32Zm-9.92,27.45a6.16,6.16,0,1,1,6.15,6.44A6.13,6.13,0,0,1,538.35,479.77Z"/><circle class="cls-13" cx="545.48" cy="462.45" r="35.92"/><circle class="cls-7" cx="709.01" cy="187.01" r="15.25"/><circle class="cls-14" cx="709.01" cy="187.01" r="29.66"/><rect class="cls-6" x="705.62" y="1.58" width="6.78" height="132.36"/><polygon class="cls-6" points="709.01 129.03 666.64 187.01 747.14 187.01 709.01 129.03"/><polygon class="cls-10" points="707.76 132.4 722.88 187.01 747.14 186.69 711.31 132.4 707.76 132.4"/><rect class="cls-15" x="167.76" y="94.67" width="145.24" height="63.28"/><polygon class="cls-7" points="213.73 111.19 201.18 111.19 198.45 108.94 201.18 106.81 213.73 106.81 216.46 109 213.73 111.19"/><polygon class="cls-7" points="213.73 127.74 201.18 127.74 198.45 125.45 201.18 123.28 213.73 123.28 216.46 125.51 213.73 127.74"/><polygon class="cls-7" points="213.73 145.81 201.18 145.81 198.45 143.53 201.18 141.38 213.73 141.38 216.46 143.6 213.73 145.81"/><polygon class="cls-7" points="214.71 122.84 214.71 111.85 217.13 109.46 219.41 111.85 219.41 122.84 217.06 125.23 214.71 122.84"/><polygon class="cls-7" points="195.65 140.26 195.65 129.27 198.2 126.88 200.6 129.27 200.6 140.26 198.13 142.65 195.65 140.26"/><polygon class="cls-7" points="243.57 111.19 231.03 111.19 228.3 108.94 231.03 106.81 243.57 106.81 246.3 109 243.57 111.19"/><polygon class="cls-7" points="243.57 127.74 231.03 127.74 228.3 125.45 231.03 123.28 243.57 123.28 246.3 125.51 243.57 127.74"/><polygon class="cls-7" points="243.57 145.81 231.03 145.81 228.3 143.53 231.03 141.38 243.57 141.38 246.3 143.6 243.57 145.81"/><polygon class="cls-7" points="244.56 122.84 244.56 111.85 246.77 109.46 248.86 111.85 248.86 122.84 246.71 125.23 244.56 122.84"/><polygon class="cls-7" points="244.79 140.26 244.79 129.27 247 126.88 249.1 129.27 249.1 140.26 246.94 142.65 244.79 140.26"/><polygon class="cls-7" points="275.76 128.48 263.21 128.48 260.48 126.38 263.21 124.4 275.76 124.4 278.49 126.44 275.76 128.48"/><polygon class="cls-7" points="276.74 123.71 276.74 112.72 279.19 110.33 281.5 112.72 281.5 123.71 279.12 126.1 276.74 123.71"/><polygon class="cls-7" points="258 123.71 258 112.72 260.27 110.33 262.42 112.72 262.42 123.71 260.21 126.1 258 123.71"/><polygon class="cls-7" points="277 140.26 277 129.27 279.45 126.88 281.76 129.27 281.76 140.26 279.38 142.65 277 140.26"/><circle class="cls-14" cx="126.77" cy="257.34" r="29.66"/><circle class="cls-7" cx="126.77" cy="256.49" r="15.25"/><rect class="cls-6" x="125.39" y="1.58" width="6.78" height="200.68"/><polygon class="cls-6" points="128.78 197.18 86.41 257.34 166.91 257.34 128.78 197.18"/><polygon class="cls-10" points="126.68 201.52 141.79 258.19 166.06 257.85 130.23 201.52 126.68 201.52"/><circle class="cls-7" cx="177.81" cy="179.73" r="4.16"/><circle class="cls-7" cx="192.36" cy="179.73" r="4.16"/><circle class="cls-6" cx="205.86" cy="179.73" r="4.16"/><rect class="cls-16" x="269.88" y="134.57" width="6.64" height="88.95" rx="3.32" ry="3.32" transform="translate(452.24 -94.16) rotate(90)"/><rect class="cls-7" x="232.21" y="163.16" width="6.64" height="31.77" rx="3.32" ry="3.32" transform="translate(414.58 -56.49) rotate(90)"/><rect class="cls-8" x="438.3" y="420.98" width="13.3" height="103.77"/><path class="cls-8" d="M294.61,420.09c-10.64-17.74,1.78-53.21-24.83-55.88s-30.16-3.54-30.16-3.54-26.51-4.53-37,9.06c12.16-5.73,25.49-4.63,25.49-4.63s4.44,0,31,2.66,21.29,41.69,31.93,59.43c8.71,14.51,9.83,40,8.87,50.55,3.55-.38,2.77-1,3.55-1.77C306.14,473.31,305.26,437.83,294.61,420.09Z"/><rect class="cls-7" x="704.38" y="341.15" width="6.21" height="31.04"/><circle class="cls-6" cx="751.39" cy="342.04" r="3.55"/><circle class="cls-6" cx="757.6" cy="369.54" r="3.55"/><circle class="cls-6" cx="760.26" cy="381.07" r="3.55"/><circle class="cls-7" cx="511.41" cy="128.88" r="10.98"/><circle class="cls-14" cx="511.49" cy="130.21" r="21.79"/><rect class="cls-6" x="509.47" y="-5.11" width="5.5" height="100.85"/><polygon class="cls-6" points="512.22 92.56 477.82 130.21 543.18 130.21 512.22 92.56"/><polygon class="cls-10" points="512.22 95.74 523.94 130.21 542.76 130.01 514.97 95.74 512.22 95.74"/><rect class="cls-7" x="683.1" y="449.36" width="78.94" height="78.94"/><rect class="cls-11" x="683.1" y="449.36" width="78.94" height="13.03"/><path class="cls-6" d="M716.08,485.34s2.48-7.67,6.09-8.34c3.77-.71,4.06,4.28,4.06,4.28l-2.71,1.8h9.7l4.28-9-3.16,1.57s-2.93-5.86-7.66-5.86-11.5.68-11.5.68a4.51,4.51,0,0,0-2.93,2.7c-1.13,2.48-4.51,8.34-4.51,8.34Z"/><path class="cls-6" d="M720.9,501s-7.88,1.68-10.27-1.1,1.68-5.66,1.68-5.66l2.92,1.44-4.85-8.4-10,.8,3,1.95s-3.62,5.47-1.25,9.57,6.34,9.62,6.34,9.62a4.53,4.53,0,0,0,3.8,1.18c2.72-.26,9.48-.26,9.48-.26Z"/><path class="cls-6" d="M731.71,489.5s5.4,6,4.18,9.44c-1.27,3.62-5.74,1.37-5.74,1.37l-.21-3.24-4.84,8.39,5.66,8.22.22-3.52s6.54.39,8.9-3.71,5.17-10.29,5.17-10.29a4.52,4.52,0,0,0-.88-3.89c-1.58-2.22-5-8.08-5-8.08Z"/><rect class="cls-7" x="683.1" y="434.46" width="39.03" height="6.39"/><polygon class="cls-17" points="340 525 167.78 588 806 588 778 527 340 525"/><text class="cls-18" transform="translate(70.7 85.5) rotate(90)">Q&amp;A</text></g></svg>