<svg xmlns="http://www.w3.org/2000/svg" xmlns:xlink="http://www.w3.org/1999/xlink" viewBox="0 0 838 588"><defs><style>.cls-1,.cls-12,.cls-16,.cls-7{fill:none;}.cls-1{clip-rule:evenodd;}.cls-2{clip-path:url(#clip-path);}.cls-17,.cls-20,.cls-3{fill:#fff;}.cls-13,.cls-4{fill:#ff6c4d;}.cls-5{fill:#f4432d;}.cls-6,.cls-8{fill:#14114b;}.cls-7{stroke:#fff;stroke-width:5px;}.cls-12,.cls-16,.cls-7{stroke-miterlimit:10;}.cls-8{font-size:23.97px;}.cls-17,.cls-8{font-family:NotoSansCJKtc-Black-B5pc-H, Noto Sans CJK TC;}.cls-9{fill:#f2f2f2;}.cls-10{fill:#ff8b6b;}.cls-11{fill:#ccc;}.cls-12{stroke:#14114b;stroke-width:9px;}.cls-13{opacity:0.41;}.cls-14{clip-path:url(#clip-path-2);}.cls-15{clip-path:url(#clip-path-3);}.cls-16{stroke:#ff6c4d;stroke-width:6px;}.cls-17{font-size:23.39px;}.cls-18{letter-spacing:-0.02em;}.cls-19{letter-spacing:0em;}.cls-20{opacity:0.14;}.cls-21{fill:#e6e6e6;}</style><clipPath id="clip-path"><path class="cls-1" d="M-1249,76.49c-.1.15.68,87.51.68,87.51l21,.21s56.87,6.6,57.34-41.73-53.49-45.84-53.49-45.84Z"/></clipPath><clipPath id="clip-path-2"><path class="cls-1" d="M-1418.37-5355.51c-.09.15.69,87.51.69,87.51l21,.21s56.86,6.6,57.33-41.73-53.48-45.84-53.48-45.84Z"/></clipPath><clipPath id="clip-path-3"><path class="cls-1" d="M-1396.37-5433.51c-.09.15.69,87.51.69,87.51l21,.21s56.86,6.6,57.33-41.73-53.48-45.84-53.48-45.84Z"/></clipPath></defs><title>hero_cover_question</title><g id="圖層_2" data-name="圖層 2"><rect class="cls-3" x="456" y="411" width="368" height="145"/><rect class="cls-4" x="322" y="437" width="134" height="119"/><path class="cls-4" d="M537.67,409s10.65-36,10.65-63S537,277,545.5,267s90.22,6,103.37,71,4.07,71,4.07,71Z"/><circle class="cls-3" cx="595.5" cy="320.5" r="21.5"/><path class="cls-5" d="M595.5,299A21.51,21.51,0,0,0,574,320.5c0,.17,0,.33,0,.5H617c0-.17,0-.33,0-.5A21.51,21.51,0,0,0,595.5,299Z"/><path class="cls-6" d="M595.5,329.7a8.51,8.51,0,0,0,8.5-8.5c0-.07,0-.13,0-.2H587c0,.07,0,.13,0,.2A8.51,8.51,0,0,0,595.5,329.7Z"/><path class="cls-6" d="M570.14,370.49s15.43-3.17,22.5-3.17S610,370.49,610,370.49s4.5,1.59,0,4-17.36,0-17.36,0-15.42,0-19.28.79S566.29,371.28,570.14,370.49Z"/><path class="cls-5" d="M648.87,338C635.72,273,554,257,545.5,267a11.41,11.41,0,0,0-2.08,4.31C569.18,272.46,629.5,285.13,640,337c7.66,37.86,1.65,63.7.41,72h12.53S662,403,648.87,338Z"/><path class="cls-7" d="M546,270.92s-13.32-16.4-31.09-7,1.48,23.43-4.44,28.11"/><circle class="cls-3" cx="502.5" cy="296.5" r="10.5"/><rect class="cls-3" x="735" y="341" width="19" height="68"/><rect class="cls-3" x="759" y="341" width="16" height="68" transform="translate(56.93 -99.04) rotate(7.67)"/><rect class="cls-4" x="789" y="339" width="20" height="68" transform="translate(-65.91 201.37) rotate(-13.8)"/><rect class="cls-3" x="318" y="401.53" width="41" height="30.94"/><path class="cls-3" d="M291,418c5-4,20,0,20,0v-4s-16-4-20,0S286,422,291,418Z"/><path class="cls-4" d="M217,371s-41-7-46,20,4,58,0,72-11,34-2,40,66-8,78-3,39,4,42,1,2-43-10-63,2-60-28-63S217,371,217,371Z"/><circle class="cls-3" cx="227.5" cy="399.5" r="17.5"/><path class="cls-5" d="M227.5,382A17.49,17.49,0,0,0,210,399.5c0,.14,0,.27,0-2.85h35c0,3.12,0,3,0,2.85A17.49,17.49,0,0,0,227.5,382Z"/><path class="cls-6" d="M234.83,403.73a6.91,6.91,0,0,0,6.91-6.92v-.16H227.92a.92.92,0,0,0,0,.16A6.92,6.92,0,0,0,234.83,403.73Z"/><circle class="cls-3" cx="201.5" cy="441.5" r="17.5"/><path class="cls-5" d="M201.5,424A17.49,17.49,0,0,0,184,441.5c0,.14,0,.27,0-2.85h35c0,3.12,0,3,0,2.85A17.49,17.49,0,0,0,201.5,424Z"/><path class="cls-6" d="M208.83,445.73a6.91,6.91,0,0,0,6.91-6.92v-.16H201.92a.92.92,0,0,0,0,.16A6.92,6.92,0,0,0,208.83,445.73Z"/><circle class="cls-3" cx="246.5" cy="440.5" r="17.5"/><path class="cls-5" d="M246.5,423A17.49,17.49,0,0,0,229,440.5c0,.14,0,.27,0-2.85h35c0,3.12,0,3,0,2.85A17.49,17.49,0,0,0,246.5,423Z"/><path class="cls-6" d="M253.83,444.73a6.91,6.91,0,0,0,6.91-6.92v-.16H246.92a.92.92,0,0,0,0,.16A6.92,6.92,0,0,0,253.83,444.73Z"/><path class="cls-4" d="M169,503s16,45,22,47-2.58-46,6.71-47S187,487,169,503Z"/><path class="cls-4" d="M253.83,502S260,550,266,550s11-37,22-48S253.83,502,253.83,502Z"/><path class="cls-6" d="M229,465c-10,1-19,20-13,24s8-5,17-6c5.35-.59,12,4,14,4S249,463,229,465Z"/><circle class="cls-4" cx="713" cy="185" r="18"/><path class="cls-4" d="M166.15,352.83s-6.67,2.5-3.34,10.84,6.68,9.18,10.85,8.34,8.34-3.33,8.34-6.67a23.59,23.59,0,0,0-1.67-10C178.66,351.16,168.65,351.16,166.15,352.83Z"/><path class="cls-4" d="M254.28,358.11s-5.75,10.95,3,13.08,12.87,2.1,12.58-5.17S263.47,354.17,254.28,358.11Z"/><path class="cls-3" d="M145.65,422.42l11-11.91,2.74,16.5,13.75-5.5-7.33,11.91,8.25,1.83-14.67.19L180,442.73l-28.85-.15s4.58,63.24-15.58,79.73S64.09,576.38,28.35,548.89,11.85,482,66.84,467.33,113.57,430.67,145.65,422.42Z"/><polygon class="cls-4" points="147.83 454.67 154.82 444.65 132.11 422.54 120.09 432.93 147.83 454.67"/><path class="cls-4" d="M137.58,388.64s-12.88,35.11-4,34.76l-12.4,9.22s-10.7-28.63,2.47-39.39l0,11.59Z"/><polygon class="cls-3" points="488 335 513 351 488 359 442 380 313 383 265 319 352 288 465 297 488 335"/><text class="cls-8" transform="translate(309.93 329.69)">#@*$##*($<tspan x="0" y="28.76">()@#*$$*#$#</tspan></text><rect class="cls-4" x="691.88" y="336.77" width="7" height="75" transform="matrix(0.96, 0.3, -0.3, 0.96, 142.19, -189.3)"/><polygon class="cls-5" points="710.66 303.1 724.59 318.94 721.33 329.45 717.18 342.82 695.71 344.53 710.66 303.1"/><rect class="cls-9" x="686" y="318" width="7" height="93" transform="translate(-29.38 62.03) rotate(-5.04)"/><rect class="cls-10" x="673" y="363" width="38" height="48"/><polygon class="cls-11" points="689.18 318.84 683.71 303.04 682 319 689.18 318.84"/><rect class="cls-4" x="703" y="454" width="103" height="103"/><rect class="cls-10" x="703" y="454" width="103" height="17"/><path class="cls-6" d="M573.8,463.52c0-3-2.13-4.6-4.94-4.6s-4.81,1.44-6.93,3.57l-6.73-6.18a20,20,0,0,1,15.17-7.21c8.51,0,15.17,4,15.17,13.6s-11.74,12.35-10.84,21.42H564.05C562.41,473.54,573.8,469.15,573.8,463.52ZM562.06,496a7.29,7.29,0,1,1,7.28,7.63A7.26,7.26,0,0,1,562.06,496Z"/><circle class="cls-12" cx="570.5" cy="475.5" r="42.5"/><circle class="cls-13" cx="713" cy="185" r="35"/><rect class="cls-3" x="709" width="8" height="122.37"/><polygon class="cls-3" points="713 116.59 663 185 758 185 713 116.59"/><polygon class="cls-9" points="711.53 120.56 729.36 185 758 184.62 715.72 120.56 711.53 120.56"/><rect class="cls-4" y="557" width="838" height="31"/><rect class="cls-16" x="244" y="148.16" width="130" height="64.68"/><polygon class="cls-4" points="282.27 163.05 269.59 163.05 266.83 161.06 269.59 159.19 282.27 159.19 285.02 161.12 282.27 163.05"/><polygon class="cls-4" points="282.27 182.15 269.59 182.15 266.83 180.16 269.59 178.29 282.27 178.29 285.02 180.22 282.27 182.15"/><polygon class="cls-4" points="282.27 201.74 269.59 201.74 266.83 199.75 269.59 197.88 282.27 197.88 285.02 199.81 282.27 201.74"/><polygon class="cls-4" points="283.26 177.49 283.26 164.81 285.24 162.06 287.12 164.81 287.12 177.49 285.19 180.25 283.26 177.49"/><polygon class="cls-4" points="265.14 196.59 265.14 183.91 267.12 181.16 269 183.91 269 196.59 267.07 199.35 265.14 196.59"/><polygon class="cls-4" points="312.42 163.05 299.74 163.05 296.98 161.06 299.74 159.19 312.42 159.19 315.18 161.12 312.42 163.05"/><polygon class="cls-4" points="312.42 182.15 299.74 182.15 296.98 180.16 299.74 178.29 312.42 178.29 315.18 180.22 312.42 182.15"/><polygon class="cls-4" points="312.42 201.74 299.74 201.74 296.98 199.75 299.74 197.88 312.42 197.88 315.18 199.81 312.42 201.74"/><polygon class="cls-4" points="313.41 177.49 313.41 164.81 315.4 162.06 317.27 164.81 317.27 177.49 315.34 180.25 313.41 177.49"/><polygon class="cls-4" points="313.62 196.59 313.62 183.91 315.61 181.16 317.48 183.91 317.48 196.59 315.55 199.35 313.62 196.59"/><polygon class="cls-4" points="344.94 182.15 332.26 182.15 329.5 180.16 332.26 178.29 344.94 178.29 347.7 180.22 344.94 182.15"/><polygon class="cls-4" points="345.93 177.49 345.93 164.81 347.92 162.06 349.79 164.81 349.79 177.49 347.86 180.25 345.93 177.49"/><polygon class="cls-4" points="327.6 177.49 327.6 164.81 329.59 162.06 331.46 164.81 331.46 177.49 329.53 180.25 327.6 177.49"/><polygon class="cls-4" points="346.14 196.59 346.14 183.91 348.13 181.16 350 183.91 350 196.59 348.07 199.35 346.14 196.59"/><text class="cls-17" transform="translate(240.32 137.31)">N<tspan class="cls-18" x="17.87" y="0">X</tspan><tspan class="cls-19" x="32.7" y="0">T</tspan></text><circle class="cls-13" cx="92" cy="268" r="35"/><circle class="cls-4" cx="92" cy="267" r="18"/><polygon class="cls-9" points="89.53 202.13 107.36 269 136 268.61 93.72 202.13 89.53 202.13"/><rect class="cls-3" x="88" width="8" height="203"/><polygon class="cls-3" points="92 197 42 268 137 268 92 197"/><circle class="cls-4" cx="245.31" cy="230" r="4.69"/><circle class="cls-4" cx="261.71" cy="230" r="4.69"/><circle class="cls-3" cx="276.94" cy="230" r="4.69"/><rect class="cls-20" x="328.91" y="195.86" width="7.49" height="66.74" rx="3.75" ry="3.75" transform="translate(561.89 -103.43) rotate(90)"/><rect class="cls-4" x="300.65" y="217.31" width="7.49" height="23.83" rx="3.75" ry="3.75" transform="translate(533.63 -75.17) rotate(90)"/><rect class="cls-5" x="424" y="437" width="32" height="122"/><rect class="cls-21" x="372" y="473" width="105" height="82.54"/><path class="cls-5" d="M279,438c-12-20,2-60-28-63s-34-4-34-4-29.89-5.1-41.74,10.22C189,374.75,204,376,204,376s5,0,35,3,24,47,36,67c9.82,16.36,11.07,45.07,10,57,4-.44,3.12-1.12,4-2C292,498,291,458,279,438Z"/><rect class="cls-4" x="741" y="349" width="7" height="35"/><circle class="cls-3" cx="794" cy="350" r="4"/><circle class="cls-3" cx="801" cy="381" r="4"/><circle class="cls-3" cx="804" cy="394" r="4"/><path class="cls-3" d="M746,500.94s3.24-10,7.94-10.88c4.92-.92,5.3,5.59,5.3,5.59L755.75,498H768.4L774,486.23l-4.12,2.06s-3.83-7.65-10-7.65-15,.89-15,.89a5.9,5.9,0,0,0-3.82,3.53c-1.47,3.23-5.88,10.88-5.88,10.88Z"/><path class="cls-3" d="M752.33,521.35s-10.28,2.2-13.4-1.44c-3.25-3.8,2.19-7.38,2.19-7.38l3.81,1.88-6.33-10.95-13,1,3.84,2.54s-4.71,7.13-1.62,12.48,8.26,12.55,8.26,12.55a5.89,5.89,0,0,0,5,1.55c3.54-.34,12.37-.35,12.37-.35Z"/><path class="cls-3" d="M766.43,506.37s7.05,7.8,5.46,12.32c-1.66,4.72-7.49,1.79-7.49,1.79l-.27-4.23-6.33,11,7.4,10.73.27-4.6s8.54.51,11.63-4.84,6.74-13.43,6.74-13.43a5.94,5.94,0,0,0-1.15-5.08c-2.07-2.89-6.48-10.53-6.48-10.53Z"/><circle class="cls-4" cx="496" cy="102" r="12"/><circle class="cls-13" cx="496" cy="102" r="22"/><rect class="cls-3" x="493.96" y="-0.81" width="5.56" height="68"/><polygon class="cls-3" points="496.74 63.98 462 102 528 102 496.74 63.98"/><polygon class="cls-9" points="496.74 67.19 508.57 102 527.57 101.8 499.52 67.19 496.74 67.19"/></g></svg>