<svg xmlns="http://www.w3.org/2000/svg" xmlns:xlink="http://www.w3.org/1999/xlink" viewBox="0 0 838 588"><defs><style>.cls-1,.cls-12,.cls-16,.cls-2,.cls-7{fill:none;}.cls-1{clip-rule:evenodd;}.cls-3{clip-path:url(#clip-path);}.cls-4{clip-path:url(#clip-path-2);}.cls-5{clip-path:url(#clip-path-3);}.cls-6{fill:#14114b;}.cls-12,.cls-7{stroke:#fff;}.cls-12,.cls-16,.cls-7{stroke-miterlimit:10;}.cls-7{stroke-width:3px;}.cls-11,.cls-17,.cls-20,.cls-8{fill:#fff;}.cls-9{fill:#f4432d;}.cls-10,.cls-19{fill:#ff6c4d;}.cls-11{opacity:0.41;}.cls-13,.cls-17{opacity:0.14;}.cls-13{fill:url(#未命名漸層_7);}.cls-14{clip-path:url(#clip-path-4);}.cls-15{fill:#ff8b6b;}.cls-16{stroke:#ff6c4d;stroke-width:10px;}.cls-18{fill:#f2f2f2;}.cls-19{opacity:0.31;}.cls-20{font-size:53.57px;font-family:NotoSansCJKtc-Black-B5pc-H, Noto Sans CJK TC;}.cls-21{letter-spacing:-0.01em;}</style><clipPath id="clip-path"><path class="cls-1" d="M-2131-561.51c-.1.15.68,87.51.68,87.51l21,.21s56.87,6.6,57.34-41.73-53.49-45.84-53.49-45.84Z"/></clipPath><clipPath id="clip-path-2"><path class="cls-1" d="M-2300.37-5993.51c-.09.15.69,87.51.69,87.51l21,.21s56.86,6.6,57.33-41.73-53.48-45.84-53.48-45.84Z"/></clipPath><clipPath id="clip-path-3"><path class="cls-1" d="M-2278.37-6071.51c-.09.15.69,87.51.69,87.51l21,.21s56.86,6.6,57.33-41.73-53.48-45.84-53.48-45.84Z"/></clipPath><linearGradient id="未命名漸層_7" x1="972.93" y1="502.77" x2="984.15" y2="597.31" gradientTransform="matrix(-0.86, 0, 0, 1, 1042.1, 0)" gradientUnits="userSpaceOnUse"><stop offset="0" stop-color="#fff"/><stop offset="1" stop-color="#fff" stop-opacity="0"/></linearGradient><clipPath id="clip-path-4"><circle class="cls-2" cx="208" cy="145" r="72"/></clipPath></defs><title>hero</title><g id="圖層_4" data-name="圖層 4"><rect class="cls-6" x="2" width="838" height="592"/><path class="cls-7" d="M838-3S719.67,130.33,623,147"/><rect class="cls-8" x="596.89" y="337.99" width="8.05" height="194.79" transform="translate(-66.25 110.5) rotate(-9.96)"/><rect class="cls-8" x="643.46" y="329.81" width="8.05" height="194.79" transform="translate(-64.13 118.43) rotate(-9.96)"/><rect class="cls-8" x="615.63" y="513.61" width="43.42" height="5.28" transform="translate(1354.38 914.49) rotate(170.04)"/><rect class="cls-8" x="608.33" y="472.01" width="43.42" height="5.28" transform="translate(1332.68 833.17) rotate(170.04)"/><rect class="cls-8" x="601.02" y="430.4" width="43.42" height="5.28" transform="matrix(-0.98, 0.17, -0.17, -0.98, 1310.98, 751.84)"/><rect class="cls-8" x="593.71" y="388.79" width="43.42" height="5.28" transform="matrix(-0.98, 0.17, -0.17, -0.98, 1289.28, 670.52)"/><rect class="cls-8" x="586.41" y="347.19" width="43.42" height="5.28" transform="translate(1267.58 589.2) rotate(170.04)"/><rect class="cls-8" x="563.8" y="149.55" width="8.05" height="194.79" transform="translate(-34.16 101.94) rotate(-9.96)"/><rect class="cls-8" x="610.37" y="141.37" width="8.05" height="194.79" transform="translate(-32.04 109.87) rotate(-9.96)"/><rect class="cls-8" x="582.54" y="325.18" width="43.42" height="5.28" transform="translate(1256.1 546.18) rotate(170.04)"/><rect class="cls-8" x="575.23" y="283.57" width="43.42" height="5.28" transform="translate(1234.4 464.86) rotate(170.04)"/><rect class="cls-8" x="567.93" y="241.97" width="43.42" height="5.28" transform="translate(1212.7 383.54) rotate(170.04)"/><rect class="cls-8" x="560.62" y="200.36" width="43.42" height="5.28" transform="translate(1191 302.21) rotate(170.04)"/><rect class="cls-8" x="553.31" y="158.75" width="43.42" height="5.28" transform="translate(1169.3 220.89) rotate(170.04)"/><rect class="cls-8" x="608.3" y="531.16" width="18.8" height="5.13" transform="translate(1318.41 952.56) rotate(170.04)"/><rect class="cls-8" x="655.84" y="522.81" width="18.8" height="5.13" transform="translate(1411.32 927.76) rotate(170.04)"/><polygon class="cls-8" points="500.1 130.48 523.67 124.56 514.04 146.87 526.95 167.45 502.76 165.18 487.18 183.83 481.86 160.12 459.31 151.06 480.21 138.67 481.86 114.43 500.1 130.48"/><path class="cls-9" d="M604.92,183.75s1.26-25,9.48-45.5c2.83-7,16.81,25.49-3.39,49.4C596,205.39,604.92,183.75,604.92,183.75Z"/><path class="cls-9" d="M558.85,180.45s-25.21-13.53-47.75-14.93c-7.74-.48,21.11,38.25,50.08,25.53C582.67,181.62,558.85,180.45,558.85,180.45Z"/><path class="cls-10" d="M545.87,132.08c-9.59,7.19-16.86,10.53-6.8,52.26,9.68,40.17,8.3,75.29,21.12,68.46,2.48-1.32.73-33.66,21.28-37.16s42.1,25.27,47.28,21.09,2.12-31.94-16.38-74.58S555.46,124.9,545.87,132.08Z"/><ellipse class="cls-8" cx="552.63" cy="160.55" rx="12.6" ry="11.4" transform="translate(-21.57 122.27) rotate(-12.39)"/><ellipse class="cls-6" cx="546.76" cy="161.84" rx="6.5" ry="5.88" transform="translate(-21.99 121.05) rotate(-12.39)"/><path class="cls-6" d="M579.46,160.24a10.69,10.69,0,0,1-2.17,8.6c-3.24,3.76-.87,5.27,2.79,3.45s8.41-7.94,3.26-12.9S579.46,160.24,579.46,160.24Z"/><path class="cls-7" d="M545.87,132.08s-2.09-22.35,20.63-29.58c22-7,15,11.6,15,11.6"/><circle class="cls-8" cx="581.3" cy="117.13" r="6.94"/><path class="cls-9" d="M574.69,217.13c-16.11,2.74-19.11,22.57-20.38,32.15,1.41,6.77,2.73,8.45,5.88,3.52,1.4-2.19.85-29.15,17.06-35.93A20.19,20.19,0,0,0,574.69,217.13Z"/><path class="cls-9" d="M612.37,162.15c-15.65-36.07-45.55-37.77-60.2-33.09,15.77-2.08,39.91,3.43,53.42,34.58,16.22,37.38,20.56,63.32,17.9,72,2.36,1.41,4.17,2,5.26,1.12C633.92,232.55,630.87,204.79,612.37,162.15Z"/><circle class="cls-10" cx="135.26" cy="239.56" r="5.63"/><circle class="cls-10" cx="154.97" cy="239.56" r="5.63"/><circle class="cls-8" cx="173.27" cy="239.56" r="5.63"/><polygon class="cls-10" points="432.98 115 390.96 187.79 475.01 187.79 432.98 115"/><polygon class="cls-10" points="459.13 195.55 406.83 195.55 361.82 273.52 504.14 273.52 459.13 195.55"/><polygon class="cls-10" points="495.45 280.96 370.92 280.96 325.91 358.93 540.46 358.93 495.45 280.96"/><polygon class="cls-10" points="526.89 366.37 337.93 366.37 292.91 444.33 571.9 444.33 526.89 366.37"/><circle class="cls-8" cx="415.51" cy="220.79" r="3.88"/><circle class="cls-8" cx="457.25" cy="246.02" r="4.85"/><circle class="cls-11" cx="381.54" cy="258.64" r="4.85"/><circle class="cls-11" cx="455.3" cy="325.61" r="5.82"/><circle class="cls-8" cx="401.93" cy="295.52" r="6.79"/><circle class="cls-8" cx="375.72" cy="339.19" r="5.82"/><circle class="cls-8" cx="507.71" cy="312.02" r="3.88"/><circle class="cls-8" cx="479.57" cy="345.02" r="5.82"/><circle class="cls-8" cx="432.98" cy="399.37" r="6.79"/><circle class="cls-8" cx="401.93" cy="378.98" r="2.91"/><circle class="cls-8" cx="333.02" cy="399.37" r="4.85"/><circle class="cls-11" cx="378.63" cy="426.54" r="6.79"/><circle class="cls-8" cx="504.8" cy="426.54" r="6.79"/><circle class="cls-8" cx="498.01" cy="385.78" r="3.88"/><circle class="cls-8" cx="411.63" cy="156.73" r="3.88"/><circle class="cls-8" cx="434.92" cy="145.09" r="3.88"/><circle class="cls-8" cx="431.04" cy="175.17" r="4.85"/><circle class="cls-11" cx="452.39" cy="175.17" r="3.88"/><path class="cls-12" d="M403.35,166.32s19.93,9.82,27.69-5.71c0,0,18.44,13.59,24.26-1.94"/><path class="cls-12" d="M391,224.67s11.94,19.41,44.93,9.71c0,0,27.18,21.62,49.5,9.35"/><path class="cls-12" d="M340.67,333.37s26.8,16,54.95-13.1c0,0,37.85,9.7,56.29-8.74,0,0,27.17,11.65,50.47-10.67"/><path class="cls-12" d="M333,374.87s25.72,33.72,71.33,19.16c0,0,34.94,27.17,81.53,4.85,0,0,31.44,29.7,66.67,11.94"/><polygon class="cls-13" points="455 494.54 416.2 588 -44 586.82 238 457 455 494.54"/><g class="cls-14"><circle class="cls-15" cx="243.54" cy="195.13" r="57.42"/><path class="cls-10" d="M196.66,228.25a57.4,57.4,0,0,0,103-20.81l-.11-.86S284.67,149.21,256,155.46c-15.9,3.47-21.47-6.84-23.27-16.72a57.46,57.46,0,0,0-39.89,29.49c4.1,8.93,12.3,29.26,7.76,40.44A59.68,59.68,0,0,0,196.66,228.25Z"/><rect class="cls-8" x="239.9" y="133.15" width="2.73" height="8.2"/><circle class="cls-10" cx="237.47" cy="128.29" r="6.68"/><circle class="cls-10" cx="241.92" cy="122.32" r="5.57"/><circle class="cls-10" cx="245.27" cy="128.29" r="5.57"/><circle class="cls-15" cx="239.29" cy="129.2" r="5.16"/><rect class="cls-8" x="258.13" y="134.06" width="2.73" height="8.2"/><circle class="cls-10" cx="259.34" cy="126.47" r="5.16"/><circle class="cls-15" cx="262.89" cy="131.43" r="4.35"/><circle class="cls-10" cx="257.11" cy="127.38" r="5.57"/><circle class="cls-10" cx="256.2" cy="132.85" r="4.66"/><circle class="cls-8" cx="219.85" cy="102.16" r="5.47"/><circle class="cls-8" cx="166.99" cy="155.94" r="2.73"/></g><circle class="cls-16" cx="208" cy="145" r="72"/><rect class="cls-17" x="188.97" y="233.55" width="92.03" height="12.02" rx="5" ry="5"/><path class="cls-10" d="M230.14,381c-7,0-60.43-9.16-75.08,14.65s-46.69,101.63-22.89,107.12c0,0,8.24.92,10.07-4.57s-5.49-29.3,23.81-25.64c61.78,7.72,31.13,34.79,40.29,37.54,14,4.21,40-12,43.95-57.69C254.86,399.27,244.79,381,230.14,381Z"/><circle class="cls-8" cx="224.95" cy="402.07" r="12.4"/><circle class="cls-8" cx="192.65" cy="405.55" r="12.4"/><circle class="cls-6" cx="195.49" cy="399.65" r="4.65"/><circle class="cls-6" cx="227.31" cy="397.28" r="4.65"/><path class="cls-6" d="M206.34,420.33s34.79-3.66,20.14,18.31c-6.5,9.76-14.65-1.83-22-1.83s-14.65,6.41-22,5.49S184.36,420.33,206.34,420.33Z"/><path class="cls-8" d="M147.74,392.86s-18.21-22.78-28.39-13.73c-8.24,7.32-3.32,12.12-.91,13.73,2.74,1.83,5.49-.92,15.56,0S147.74,392.86,147.74,392.86Z"/><path class="cls-8" d="M184.36,370s-1.83-5.49-5.49-7.33-3.66-6.41-.92-7.32,6.41,0,7.33,4.58S184.36,370,184.36,370Z"/><path class="cls-10" d="M240.21,379.13c-4.46-1-7.32-9.16-2.74-15.57s18.31,4.58,15.56,10.07S248.46,381,240.21,379.13Z"/><path class="cls-10" d="M161.47,381.87s-10.07,3.66-8.24-1.83,2.75-9.16,5.49-9.16,6.41.92,7.33,3.67S167.88,381,161.47,381.87Z"/><path class="cls-9" d="M137.66,495.41c-23.08-5.33,6.34-78.64,21.51-104.8a24.46,24.46,0,0,0-4.11,5c-14.65,23.8-46.69,101.63-22.89,107.12,0,0,8.24.92,10.07-4.57a11.55,11.55,0,0,0,.36-3.12A15.9,15.9,0,0,1,137.66,495.41Z"/><path class="cls-9" d="M211.83,502.73c-9.16-2.74,21.49-29.81-40.29-37.54-14.78-1.84-20.24,3.3-22.25,9.56,3.47-2.18,8.74-3.23,16.76-2.23,61.78,7.72,31.13,34.79,40.29,37.54,8.8,2.64,22.29-2.77,32.11-18.42C229.51,501.61,219.08,504.91,211.83,502.73Z"/><rect class="cls-18" x="380.89" y="434.47" width="89.11" height="86.98"/><rect class="cls-15" x="412.8" y="433.89" width="26.4" height="88.11"/><rect class="cls-10" x="296.35" y="464" width="63.65" height="62" transform="translate(-28.89 20.42) rotate(-3.41)"/><rect class="cls-15" x="321" y="464.01" width="14" height="62" transform="translate(-28.89 20.41) rotate(-3.41)"/><rect class="cls-15" x="321" y="464.01" width="14" height="62" transform="translate(802.61 138.12) rotate(86.59)"/><rect class="cls-8" x="489" y="469" width="66" height="59"/><rect class="cls-15" x="516.48" y="469" width="10.52" height="59" transform="translate(1043.48 997) rotate(180)"/><rect class="cls-15" x="517.48" y="465.52" width="9.04" height="66" transform="translate(1020.52 -23.48) rotate(90)"/><rect class="cls-10" x="18.16" y="522.35" width="27.47" height="9.65"/><rect class="cls-10" x="18.16" y="505.98" width="27.47" height="9.65"/><rect class="cls-10" x="18.16" y="489.61" width="27.47" height="9.65"/><rect class="cls-10" x="18.16" y="473.23" width="27.47" height="9.65"/><rect class="cls-19" x="18.16" y="456.86" width="27.47" height="9.65"/><rect class="cls-19" x="18.16" y="440.49" width="27.47" height="9.65"/><rect class="cls-19" x="18.16" y="424.12" width="27.47" height="9.65"/><rect class="cls-19" x="18.16" y="407.74" width="27.47" height="9.65"/><rect class="cls-19" x="18.16" y="391.37" width="27.47" height="9.65"/><rect class="cls-19" x="18.16" y="375" width="27.47" height="9.65"/><text class="cls-20" transform="translate(17.71 102) rotate(90)">A<tspan class="cls-21" x="35.35" y="0">c</tspan><tspan x="63.48" y="0">tivities</tspan></text><circle class="cls-10" cx="86.54" cy="278.32" r="2.51"/><circle class="cls-10" cx="99.09" cy="278.32" r="2.51"/><circle class="cls-10" cx="111.63" cy="278.32" r="2.51"/><circle class="cls-10" cx="124.17" cy="278.32" r="2.51"/><circle class="cls-10" cx="136.72" cy="278.32" r="2.51"/><circle class="cls-10" cx="92.82" cy="288.35" r="2.51"/><circle class="cls-10" cx="105.36" cy="288.35" r="2.51"/><circle class="cls-10" cx="117.9" cy="288.35" r="2.51"/><circle class="cls-10" cx="130.44" cy="288.35" r="2.51"/><circle class="cls-10" cx="142.99" cy="288.35" r="2.51"/><circle class="cls-10" cx="86.54" cy="298.39" r="2.51"/><circle class="cls-10" cx="99.09" cy="298.39" r="2.51"/><circle class="cls-10" cx="111.63" cy="298.39" r="2.51"/><circle class="cls-10" cx="124.17" cy="298.39" r="2.51"/><circle class="cls-10" cx="136.72" cy="298.39" r="2.51"/><circle class="cls-10" cx="92.82" cy="308.42" r="2.51"/><circle class="cls-10" cx="105.36" cy="308.42" r="2.51"/><circle class="cls-10" cx="117.9" cy="308.42" r="2.51"/><circle class="cls-10" cx="130.44" cy="308.42" r="2.51"/><circle class="cls-10" cx="142.99" cy="308.42" r="2.51"/><circle class="cls-10" cx="86.54" cy="318.46" r="2.51"/><circle class="cls-10" cx="99.09" cy="318.46" r="2.51"/><circle class="cls-10" cx="111.63" cy="318.46" r="2.51"/><circle class="cls-10" cx="124.17" cy="318.46" r="2.51"/><circle class="cls-10" cx="136.72" cy="318.46" r="2.51"/><circle class="cls-10" cx="92.82" cy="328.49" r="2.51"/><circle class="cls-10" cx="105.36" cy="328.49" r="2.51"/><circle class="cls-10" cx="117.9" cy="328.49" r="2.51"/><circle class="cls-10" cx="130.44" cy="328.49" r="2.51"/><circle class="cls-10" cx="142.99" cy="328.49" r="2.51"/><rect class="cls-8" x="80.45" y="244" width="39.09" height="8.99" transform="translate(-146.43 143.49) rotate(-45)"/><rect class="cls-8" x="80.45" y="244" width="39.09" height="8.99" transform="translate(205.01 2.07) rotate(45)"/><circle class="cls-6" cx="488" cy="146" r="2"/><circle class="cls-6" cx="500" cy="142" r="2"/><path class="cls-6" d="M501.12,149l-3.2,2.36c-2.4,1.77-3.59.16-3.59.16S498.87,159.34,501.12,149Z"/></g></svg>