<svg xmlns="http://www.w3.org/2000/svg" xmlns:xlink="http://www.w3.org/1999/xlink" viewBox="0 0 838 588"><defs><style>.cls-1,.cls-12,.cls-13,.cls-6,.cls-7{fill:none;}.cls-1{clip-rule:evenodd;}.cls-2{clip-path:url(#clip-path);}.cls-16,.cls-3{fill:#14114b;}.cls-14,.cls-15,.cls-4{fill:#fff;}.cls-5{fill:#ff6c4d;}.cls-13,.cls-6{stroke:#ff6c4d;}.cls-12,.cls-13,.cls-6,.cls-7{stroke-miterlimit:10;}.cls-12,.cls-7{stroke:#fff;}.cls-13,.cls-7{stroke-width:6px;}.cls-8{fill:#ff8b6b;}.cls-15,.cls-9{opacity:0.14;}.cls-9{fill:url(#未命名漸層_7);}.cls-10{fill:#f4432d;}.cls-11{fill:#f2f2f2;}.cls-12{stroke-width:3px;}.cls-14{opacity:0.09;}.cls-16{font-size:47.93px;font-family:NotoSansCJKtc-Black-B5pc-H, Noto Sans CJK TC;}</style><clipPath id="clip-path"><path class="cls-1" d="M-3073,76.49c-.1.15.68,87.51.68,87.51l21,.21s56.87,6.6,57.34-41.73-53.49-45.84-53.49-45.84Z"/></clipPath><linearGradient id="未命名漸層_7" x1="218.59" y1="540.83" x2="219.25" y2="569.8" gradientUnits="userSpaceOnUse"><stop offset="0" stop-color="#fff"/><stop offset="1" stop-color="#fff" stop-opacity="0"/></linearGradient></defs><title>hero</title><g id="圖層_6" data-name="圖層 6"><rect class="cls-3" width="840" height="592"/><rect class="cls-4" x="569.3" y="111.38" width="120.22" height="162.09"/><rect class="cls-5" x="716.53" y="152.15" width="92.3" height="124.45"/><circle class="cls-5" cx="602.14" cy="235.51" r="27.27"/><rect class="cls-3" x="726.44" y="185.67" width="63.94" height="18.91"/><rect class="cls-3" x="726.44" y="209.53" width="41.1" height="12.16"/><rect class="cls-3" x="726.44" y="230.02" width="6.3" height="37.15"/><rect class="cls-3" x="738.14" y="230.02" width="6.3" height="37.15"/><rect class="cls-3" x="789.02" y="237.11" width="4.45" height="14.18"/><rect class="cls-3" x="796.5" y="230.02" width="4.45" height="14.18"/><rect class="cls-3" x="789.02" y="255.68" width="4.45" height="14.18"/><rect class="cls-3" x="796.5" y="248.59" width="4.45" height="14.18"/><path class="cls-5" d="M597,135.51l4.31,4.3c4.57,4.57,5.39,9.78.18,15s-10.59,4.55-15,.18l-4.51-4.5Zm-8,16.15c2.42,2.42,5.23,3,8.8-.54s2.83-6.26.42-8.67l-.48-.49-9.22,9.22Z"/><path class="cls-5" d="M597.6,162.33l4.51-.45a8.52,8.52,0,0,0,2.11,5.17c1.33,1.33,2.46,1.45,3.26.65s.32-2-.42-3.8L606,161.18A6.21,6.21,0,0,1,607,154c2.51-2.52,6.78-2.28,10,.9a9.86,9.86,0,0,1,2.9,6.84l-4,.47A6.86,6.86,0,0,0,613.9,158c-1.11-1.11-2.23-1.35-3-.54s-.2,2.09.61,3.94l1.12,2.62c1.11,2.59,1,5-1.14,7.06-2.5,2.49-6.79,2.59-10.41-1A11.85,11.85,0,0,1,597.6,162.33Z"/><path class="cls-5" d="M616.25,169.91c5-5,11.19-4.51,15-.71a9.05,9.05,0,0,1,2.6,6.5l-4.19.41a5.26,5.26,0,0,0-1.43-3.77c-1.93-1.93-5.25-1.79-8.17,1.13s-3.34,6.08-1.22,8.19a5.47,5.47,0,0,0,4.22,1.49l-.36,4.14a8.77,8.77,0,0,1-7.1-2.67C611.78,180.81,611.18,175,616.25,169.91Z"/><path class="cls-5" d="M637.92,176.44l3.6,3.61-5.69,5.69,4.93,4.93,5.69-5.69,3.56,3.56-15,15L631.48,200l6.16-6.16-4.93-4.93L626.55,195l-3.6-3.6Z"/><path class="cls-5" d="M645.4,198.74c4.91-4.91,10.46-4.91,14.55-.83s4.06,9.66-.83,14.55-10.62,5.07-14.7,1S640.49,203.65,645.4,198.74Zm10.06,10.06c2.9-2.9,3.38-5.84,1.41-7.81s-4.89-1.47-7.79,1.43-3.54,6-1.57,7.93S652.54,211.72,655.46,208.8Z"/><path class="cls-5" d="M661.21,214.55c4.91-4.91,10.47-4.91,14.55-.83s4.07,9.66-.82,14.55-10.63,5.07-14.71,1S656.3,219.46,661.21,214.55Zm10.07,10.06c2.89-2.9,3.38-5.84,1.4-7.81s-4.89-1.47-7.78,1.43-3.55,6-1.57,7.93S668.36,227.53,671.28,224.61Z"/><path class="cls-5" d="M685.12,223.64l3.6,3.6-12,11.95,5.82,5.82-3,3-9.42-9.42Z"/><path class="cls-6" d="M611.39,114l3,3c3.2,3.2,3.78,6.86.12,10.51s-7.42,3.19-10.48.13l-3.16-3.16Zm-5.61,11.33c1.7,1.69,3.67,2.12,6.17-.38s2-4.39.3-6.08l-.34-.34L605.44,125Z"/><path class="cls-6" d="M611.82,132.81l3.16-.31a6,6,0,0,0,1.49,3.63c.93.93,1.72,1,2.28.45s.23-1.38-.29-2.67l-.78-1.9a4.34,4.34,0,0,1,.75-5c1.76-1.77,4.75-1.6,7,.63a6.91,6.91,0,0,1,2,4.8l-2.84.32a4.83,4.83,0,0,0-1.36-3c-.77-.78-1.56-.94-2.13-.38s-.14,1.47.43,2.77l.79,1.83a4.11,4.11,0,0,1-.81,5c-1.75,1.75-4.75,1.82-7.29-.72A8.31,8.31,0,0,1,611.82,132.81Z"/><path class="cls-6" d="M624.91,138.13c3.5-3.5,7.84-3.16,10.51-.49a6.29,6.29,0,0,1,1.82,4.56l-2.93.28a3.72,3.72,0,0,0-1-2.64c-1.35-1.36-3.68-1.26-5.73.79s-2.34,4.26-.86,5.74a3.86,3.86,0,0,0,3,1l-.26,2.91a6.18,6.18,0,0,1-5-1.88C621.77,145.78,621.35,141.69,624.91,138.13Z"/><path class="cls-6" d="M640.11,142.72l2.52,2.53-4,4,3.46,3.46,4-4,2.5,2.5-10.5,10.5-2.5-2.5,4.32-4.32-3.46-3.45-4.32,4.32-2.52-2.53Z"/><path class="cls-6" d="M645.36,158.36c3.44-3.45,7.34-3.45,10.2-.58s2.85,6.77-.58,10.2-7.45,3.56-10.31.69S641.91,161.8,645.36,158.36Zm7,7c2-2,2.37-4.09,1-5.47s-3.43-1-5.46,1-2.48,4.18-1.1,5.56S650.37,167.46,652.41,165.41Z"/><path class="cls-6" d="M656.45,169.45c3.44-3.44,7.34-3.44,10.2-.58s2.85,6.78-.57,10.21-7.46,3.55-10.32.69S653,172.89,656.45,169.45Zm7.06,7.06c2-2,2.37-4.1,1-5.48s-3.43-1-5.47,1-2.48,4.18-1.1,5.56S661.46,178.55,663.51,176.51Z"/><path class="cls-6" d="M673.22,175.83l2.52,2.53-8.38,8.38,4.08,4.08-2.12,2.11-6.6-6.6Z"/><polyline class="cls-7" points="725.93 178.52 739.22 165.23 758.3 184.31 767.94 174.67 771.93 178.67 776.15 174.45 799.44 174.45"/><polygon class="cls-5" points="662.28 111.38 662.28 132.09 689.52 132.09 662.28 111.38"/><polygon class="cls-3" points="793.48 152.15 793.48 163.83 808.84 163.83 793.48 152.15"/><rect class="cls-8" x="38.01" y="454.35" width="80.71" height="57.93"/><rect class="cls-5" x="498.33" y="-12" width="8.52" height="102.46"/><polygon class="cls-5" points="504.63 94.28 493.64 94.28 453.63 134.29 551.55 134.29 511.61 94.35 504.63 94.28"/><path class="cls-4" d="M502.59,151.75a12,12,0,0,0,12-12H490.63A12,12,0,0,0,502.59,151.75Z"/><polygon class="cls-8" points="505.8 94.29 528.61 134.29 551.55 134.56 511.61 94.35 505.8 94.29"/><rect class="cls-5" x="70.9" y="-4.15" width="8.52" height="169.46"/><polygon class="cls-5" points="77.19 169.14 66.2 169.14 26.19 209.15 124.12 209.15 84.17 169.2 77.19 169.14"/><path class="cls-4" d="M75.15,226.6a12,12,0,0,0,12-12H63.2A12,12,0,0,0,75.15,226.6Z"/><polygon class="cls-8" points="78.36 169.15 101.17 209.15 124.12 209.41 84.17 169.2 78.36 169.15"/><polygon class="cls-9" points="153.15 493.47 -175.57 576.27 614.37 576.27 566.29 513.26 153.15 493.47"/><polygon class="cls-8" points="648.02 419.78 655.38 410.66 580.34 359.55 572.98 368.67 648.02 419.78"/><polygon class="cls-5" points="564.11 408.16 618.9 340.28 574.81 310.24 520.01 378.12 564.11 408.16"/><polygon class="cls-10" points="564.11 408.16 618.9 340.28 610.46 334.53 555.67 402.41 564.11 408.16"/><path class="cls-8" d="M704.87,307.39s16.69-10.8,24.36,4.93c10,20.61,60.57,97.76,39.1,114.85s-103,14.14-117.69,0,4.11-91.84,29.08-102.4S693,314,704.87,307.39Z"/><path class="cls-5" d="M704.82,328s30.33-.63,36.8,26-7.15,16.28-3.06,29.74,38,94.4,4.84,96.19-104.69,24.95-92.76-26.07,5.11-97.09,21.47-112.4S689.49,342.07,704.82,328Z"/><ellipse class="cls-11" cx="715.23" cy="419.28" rx="15.92" ry="17.76"/><ellipse class="cls-3" cx="708.24" cy="422.31" rx="6.99" ry="6.42"/><ellipse class="cls-11" cx="675.39" cy="419.28" rx="15.92" ry="17.76"/><ellipse class="cls-3" cx="668.4" cy="422.31" rx="6.99" ry="6.42"/><path class="cls-3" d="M686.91,427.45s-14,12.91-6.08,16.32,10.48,1.41,10.48,1.41l-1.54-18.55Z"/><path class="cls-5" d="M742,474.19s2.39,31.25-2.34,43.16.41,24-8.86,24S717.44,527,719.5,509s-1.44-30.64-1.44-30.64S733.45,465.83,742,474.19Z"/><path class="cls-5" d="M692.07,483.35s-7.37,17-9,31.36-.55,26.66-9.44,26.66S659,522.65,660,508.84s-.12-37.52-.12-37.52Z"/><path class="cls-3" d="M689.32,449.44c2.38-.31,15.33-4.07,17.38,2.19s-6.14,9.24-13.12,8.61-19.28-7-15.18-8.92S689.32,449.44,689.32,449.44Z"/><path class="cls-10" d="M730.31,467.87c33.13-1.79-.75-82.73-4.84-96.19s9.54-3.13,3.07-29.74a33.41,33.41,0,0,0-3.68-9.15A31.23,31.23,0,0,1,741.62,354c6.48,26.61-7.15,16.28-3.06,29.74s38,94.4,4.84,96.19c-28.11,1.52-83.88,18.42-92.85-7.67C671.09,479.2,708.8,469,730.31,467.87Z"/><rect class="cls-5" x="165.82" y="128.82" width="11.84" height="52.04"/><rect class="cls-4" x="161.8" y="148.72" width="19.63" height="11.23"/><polygon class="cls-5" points="182.99 90.26 182.53 90.26 182.53 116.52 159.64 116.52 159.64 91.75 149.26 109.73 160.5 129.21 182.99 129.21 194.23 109.73 182.99 90.26"/><polygon class="cls-5" points="160.5 218.41 160.95 218.41 160.95 192.15 183.85 192.15 183.85 216.92 194.23 198.94 182.99 179.46 160.5 179.46 149.26 198.94 160.5 218.41"/><rect class="cls-8" x="232.65" y="165.76" width="19.63" height="61.37"/><rect class="cls-5" x="239.56" y="104.42" width="4.65" height="61.35"/><rect class="cls-4" x="228.94" y="175.25" width="27.05" height="11.23"/><polygon class="cls-5" points="360.47 203.11 349.46 203.11 349.04 161.36 359.57 161.36 360.47 203.11"/><rect class="cls-4" x="341.99" y="173.89" width="25.45" height="10.57"/><polygon class="cls-8" points="416.25 215.14 396.62 215.14 400.4 153.77 411.6 153.77 416.25 215.14"/><rect class="cls-4" x="392.91" y="180.18" width="27.05" height="11.23"/><polygon class="cls-8" points="290.36 89.33 300.94 89.33 300.94 100.4 298.66 104.28 300.94 105.39 297.16 109.73 302.08 111.93 298.66 114.57 305.86 117.6 298.66 121.75 302.27 123.83 298.11 126.96 301.13 129.21 297.16 131.73 302.45 131.73 300.38 135.08 300.38 149.16 291.31 149.16 290.36 89.33"/><polygon class="cls-5" points="308.48 210.08 288.84 210.08 290.36 134.23 303.82 148.71 308.48 210.08"/><rect class="cls-4" x="285.14" y="158.19" width="27.05" height="11.23"/><polyline class="cls-12" points="333.45 138.76 343.22 138.76 345.89 135.29 349.49 145.29 354.15 137.36 356.69 142.76 360.56 133.88 364.96 139.25 377.67 139.25"/><circle class="cls-13" cx="355.56" cy="139.25" r="22.11"/><path class="cls-5" d="M412.29,166.23v-15h-3.14v-8s-1.39-10.78,6.22-10.78,7.23,7.23,7.23,7.23,7.64-13.83-6.77-13.83-13.78,14.47-13.78,24.74l-5.43-.13v17.16Z"/><polygon class="cls-8" points="366.8 215.58 344.58 215.58 348.86 197.84 361.54 197.84 366.8 215.58"/><rect class="cls-5" x="84.25" y="408.16" width="280.17" height="105.1"/><rect class="cls-4" x="397.73" y="432.83" width="17.78" height="20.02"/><rect class="cls-5" x="441.08" y="448.59" width="66.41" height="11.95"/><rect class="cls-8" x="422.25" y="431.1" width="66.41" height="11.95"/><rect class="cls-5" x="447.35" y="396.11" width="66.41" height="26.2"/><rect class="cls-8" x="453.63" y="379.21" width="37.65" height="11.95"/><rect class="cls-4" x="346.43" y="460.26" width="213.87" height="58.74"/><polygon class="cls-4" points="154.15 399.06 154.15 412.71 234.56 427.78 253.86 427.78 278.18 407.42 278.18 391.54 156.55 398.92 154.15 399.06"/><polygon class="cls-8" points="234.96 414.99 154.15 399.06 154.15 412.71 233.55 427.78 234.96 414.99"/><polygon class="cls-5" points="255.06 413.42 234.96 414.99 233.55 427.78 253.86 427.78 255.06 413.42"/><polygon class="cls-8" points="278.18 391.54 255.06 413.42 253.86 427.78 278.18 407.42 278.18 391.54"/><rect class="cls-8" x="171.75" y="300.67" width="11.66" height="100.97"/><rect class="cls-8" x="260.19" y="295.68" width="11.66" height="100.97"/><rect class="cls-5" x="208.02" y="339.94" width="39.8" height="22.55"/><polygon class="cls-4" points="210.82 341.54 207.69 342.92 181.03 300.93 184.15 299.54 210.82 341.54"/><polygon class="cls-4" points="247.74 343.23 244.31 342.51 257.96 296.35 261.39 297.06 247.74 343.23"/><rect class="cls-8" x="233.78" y="309.04" width="11.66" height="100.97"/><polygon class="cls-4" points="154.15 287.5 154.15 301.15 234.56 316.21 253.86 316.21 278.18 295.85 278.18 279.97 156.55 287.35 154.15 287.5"/><polygon class="cls-8" points="234.96 303.43 154.15 287.5 154.15 301.15 233.55 316.21 234.96 303.43"/><polygon class="cls-5" points="255.06 301.86 234.96 303.43 233.55 316.21 253.86 316.21 255.06 301.86"/><polygon class="cls-8" points="278.18 279.97 255.06 301.86 253.86 316.21 278.18 295.85 278.18 279.97"/><rect class="cls-14" x="135.18" y="229.73" width="310.37" height="15.86"/><rect class="cls-4" x="471.3" y="170.64" width="9.49" height="84.52" rx="4.74" ry="4.74"/><rect class="cls-15" x="492" y="170.64" width="9.49" height="84.52" rx="4.74" ry="4.74"/><rect class="cls-4" x="512.7" y="243.09" width="9.49" height="42.26" rx="4.74" ry="4.74"/><rect class="cls-15" x="512.7" y="168.92" width="9.49" height="84.52" rx="4.74" ry="4.74"/><rect class="cls-5" x="492" y="233.61" width="9.49" height="30.19" rx="4.74" ry="4.74"/><rect class="cls-5" x="530.81" y="170.64" width="9.49" height="90.56" rx="4.74" ry="4.74"/><text class="cls-16" transform="translate(448.47 509.2)">!</text></g></svg>