<svg id="d2211ece-28fc-4b4d-a951-6bee524d3f04" data-name="圖層 1" xmlns="http://www.w3.org/2000/svg" viewBox="0 0 285 285"><defs><style>.e26e5ff4-c04b-434a-b8fe-789b11e7e137{fill:#ff3b49;}</style></defs><title>index_</title><path class="e26e5ff4-c04b-434a-b8fe-789b11e7e137" d="M276,158.6c-.72,1-.37,2.15-.45,3.22-2,27.36-10.86,52-29.57,72.49-10.71,11.75-23.58,20.56-37.88,27.34a179,179,0,0,1-45.17,14.08,254.17,254.17,0,0,1-41,3.95q-11.88.2-23.71-.66c-6.55-.47-13.11-.32-19.66-.4-10.87-.14-21.75-.07-32.63-.27-4.48-.08-9-.1-13.43-.16-2.2,0-2.2,0-2.42-2.14-.06-.64-.12-1.27-.12-1.91-.1-15.11-.11-30.23-.3-45.34-.26-20.39-.25-40.78-.51-61.17-.24-18.87-.18-37.74-.47-56.61-.31-20.47-.22-40.94-.48-61.41q-.28-21.95-.28-43.9A5.58,5.58,0,0,0,27.84,5h4.32a1.1,1.1,0,0,0,1,.42l19.56-.1c.64,0,1.27.13,1.91.14,18.78.1,37.57.3,56.35.27a234.31,234.31,0,0,1,48.76,5.08,185,185,0,0,1,49.09,17.32c14.83,7.88,28,17.93,38.77,30.87a118.13,118.13,0,0,1,24,47.79,118.9,118.9,0,0,1,3.9,25c.08,1.73-.45,3.51.48,5.16Z"/></svg>