<svg id="3e9bc105-5358-47a4-928d-fb9c80119f72" data-name="圖層 1" xmlns="http://www.w3.org/2000/svg" viewBox="0 0 285 285"><defs><style>.d2b95501-c2b9-4046-860d-c3a6674af6dc{fill:#fff463;}</style></defs><title>index_</title><path class="d2b95501-c2b9-4046-860d-c3a6674af6dc" d="M150.48,280.21H134A138,138,0,0,1,57.4,251.41,138.83,138.83,0,0,1,7.29,173.06a125.4,125.4,0,0,1-2.75-16.83c-.42-4.58-.81-9.17-.81-13.77A138.26,138.26,0,0,1,35.8,53.11,137.58,137.58,0,0,1,73.23,21.58,134.84,134.84,0,0,1,115.34,5.8a167.48,167.48,0,0,1,21.35-2.51,130.23,130.23,0,0,1,16.59.3,130,130,0,0,1,27.56,5,138.7,138.7,0,0,1,96.39,100.8,141.38,141.38,0,0,1,3.23,20.06,150,150,0,0,1,.24,22.24,126.12,126.12,0,0,1-4.29,26,138.53,138.53,0,0,1-19.34,42.16,141.14,141.14,0,0,1-26.83,29.25,136.58,136.58,0,0,1-43.81,24.26,125.68,125.68,0,0,1-26.42,6C156.84,279.66,153.68,280.11,150.48,280.21Z"/></svg>