<svg id="13fdb0e9-d6e3-4c3a-9b0e-e20af55e3459" data-name="圖層 1" xmlns="http://www.w3.org/2000/svg" viewBox="0 0 167.5 135.27"><defs><style>.\30 0a1dec0-0be5-41f4-92dd-9a62e2136e8e{fill:#a0d4fc;}.c83fe3e0-28e3-48f6-a71e-71d81a30c647{fill:#2697e6;}.a2900b08-5be4-4fac-b995-09ff18652a9d{fill:#feb503;}.d9f0e28e-d68c-43a6-aeb4-7fd84905d493{fill:#fdb503;}.\39 4db260b-b576-40cd-b6d1-b2bdaf712ea2{fill:#2797e4;}.a0453ac3-2873-47ec-8ab4-de75e592c775{fill:#fff;}.a597c6d9-a72e-47d6-8c24-77098dc10834{fill:#fd9466;}.\33 9f5d4ef-0ab2-4efc-82d6-2e7161baa789{fill:#fb9569;}.a737d354-4802-4f13-a80f-d628353bb56c{fill:#2d98e2;}.\38 b1ce06a-604b-41ef-a232-c9426658e85e{fill:#0f8dd8;}.\35 1960c91-1379-4d95-a1cf-b4fc02a9e7fa{fill:#2597e6;}</style></defs><title>index_</title><g id="953b8fad-f6aa-4c58-bd9a-94725bb2bcc4" data-name="nPJik6"><path class="00a1dec0-0be5-41f4-92dd-9a62e2136e8e" d="M25.74,25.16a6.88,6.88,0,0,1,4.74-6.62q8.69-3.1,17.39-6.21L72.47,3.61c3-1.06,6-2.16,9-3.23,2.31-.83,4.44-.15,6.6.7,5,2,10,3.89,15.07,5.82l14.1,5.38c6.57,2.5,13.11,5.08,19.71,7.48a7.13,7.13,0,0,1,4.72,8.67A6.65,6.65,0,0,1,134,33.37c-3.34-.62-6.4-2.21-9.57-3.39-6.45-2.4-12.88-4.87-19.31-7.33q-9.21-3.52-18.41-7.08c-.62-.24-1.25-.43-1.84-.72a3.08,3.08,0,0,0-2.53,0l-9.07,3.27q-9.77,3.51-19.55,7c-6.29,2.24-12.57,4.51-18.9,6.65A6.83,6.83,0,0,1,25.74,25.16Z"/><path class="c83fe3e0-28e3-48f6-a71e-71d81a30c647" d="M90.65,61.89a5.59,5.59,0,0,1-2.11,4.57A7,7,0,0,1,77,63.08a.91.91,0,0,1,0-.71.55.55,0,0,0,.29-.52c-.08-1.3.2-2.58.2-3.87,0-7.08,0-14.16,0-21.25,0-1.08-.32-2.14-.22-3.23a.39.39,0,0,0-.36-.43c-.1-2.84,2.46-5.7,5.61-6.26a7,7,0,0,1,8.13,5.55,2.07,2.07,0,0,1,0,1.14c-.6.43-.53,1.07-.53,1.68q0,13.06,0,26.11c0,.17,0,.35,0,.52C90.2,62.57,90.5,61.72,90.65,61.89Zm-.31-29.56-.08-.16s-.09.1-.09.15,0,.11.07.16Z"/><path class="a2900b08-5be4-4fac-b995-09ff18652a9d" d="M14.15,51c0,3.5,0,7,0,10.51A7,7,0,0,1,.29,63,10.62,10.62,0,0,1,0,60.55Q0,50.77,0,41a7.22,7.22,0,0,1,7.44-7.43,7.08,7.08,0,0,1,6.7,6.71c.06,1.79,0,3.57,0,5.36S14.16,49.21,14.15,51Z"/><path class="d9f0e28e-d68c-43a6-aeb4-7fd84905d493" d="M51.14,50.91c.08-2.55-.19-5.11.12-7.66a6.93,6.93,0,0,1,7.39-6.13,6.8,6.8,0,0,1,6.57,6.55c.11,6.13.14,12.27,0,18.4-.13,4.65-5.48,7.68-9.75,5.73l-1.24-.55c0-.33-.3-.46-.5-.64a7.26,7.26,0,0,1-2.45-5.7c0-1.4,0-2.81,0-4.21A55,55,0,0,0,51.14,50.91Z"/><path class="94db260b-b576-40cd-b6d1-b2bdaf712ea2" d="M51.14,50.91a55,55,0,0,1,.11,5.78c0,1.4,0,2.81,0,4.21a7.26,7.26,0,0,0,2.45,5.7c.2.18.48.32.5.64l-13-5.18c-.52-.21-1-.39-1.57-.58a1.82,1.82,0,0,0-.89-.53q-3.35-1.35-6.71-2.67C30,57.48,28,56.66,26.77,54.61c-.34-.56-.36-1.3-1-1.7,0-.42,0-.84-.06-1.25a7,7,0,0,1,9.59-7l15,6C50.6,50.76,50.87,50.82,51.14,50.91Z"/><path class="94db260b-b576-40cd-b6d1-b2bdaf712ea2" d="M133.47,68.21c-.48-.1-1,.36-1.44,0,.09-.82-.54-.38-.78-.38q-11.15,0-22.29,0c-.32,0-.73-.18-.91.29-3-.23-5.62-3.24-5.69-6.58,0-.56,0-1.11.07-1.67a7.25,7.25,0,0,1,7.15-5.48c2.26,0,4.53.15,6.79-.11,2.71.18,5.42,0,8.13.07,1.11,0,2.23,0,3.34,0A3,3,0,0,1,128,55.6c0,1.78,0,3.57,0,5.35C127.89,63.8,129.25,66.8,133.47,68.21Z"/><path class="a0453ac3-2873-47ec-8ab4-de75e592c775" d="M80.48,101.53c1.73.7,1.91,1,1.84,2.7a7.34,7.34,0,0,1-4.44,6.62,2,2,0,0,1-2,0,1.73,1.73,0,0,1-1-1.47c0-.7.54-.93,1-1.18A5,5,0,0,0,79,103.66c0-.73-.12-.91-.8-.5a26.5,26.5,0,0,1-2.49,1.34,1.89,1.89,0,0,1-2.23-.41c-1-1-.83-1.77.45-2.3A19.87,19.87,0,0,0,78,99.59c.27-.2.64-.31.78-.75a5,5,0,0,0-1.93-.13c-1.24,0-1.81-.57-1.82-1.79q0-3.89,0-7.78c0-1.32.54-1.89,1.83-1.89q7.68,0,15.35,0c1.34,0,1.9.59,1.91,1.93q0,3.84,0,7.68c0,1.28-.57,1.83-1.86,1.85H90a13.17,13.17,0,0,0,3.85,2.41c.54.25,1.11.42,1.66.67a1.06,1.06,0,0,1,.5,1.71,2.13,2.13,0,0,1-2.82.89c-.48-.21-1-.45-1.42-.69-1.31-.68-1.31-.69-1.32.85,0,1.68,0,3.37,0,5a1.56,1.56,0,0,1-1,1.59,1.74,1.74,0,0,1-1.87-.28,1.59,1.59,0,0,1-.54-1.31c0-2,0-4.07,0-6.1,0-.94.27-1.23,1.6-1.85-.9-.9-1.8-1.76-2.62-2.71-.4-.47-2.5-.35-3,.09C82.25,99.81,81.43,100.62,80.48,101.53Zm.09-7.39c-.49,0-1,0-1.46,0-.68,0-.93.24-.92.92s.14,1.09.91,1.08,1.81,0,2.71,0c.73,0,1.18-.09,1.18-1s-.42-1.07-1.16-1C81.41,94.16,81,94.14,80.57,94.14Zm7.8,2c.59,0,1.18,0,1.78,0s.64-.58.65-1.06,0-.92-.69-.92H86.76c-.42,0-.6.22-.65.65-.13,1.08.05,1.32,1.11,1.33Zm-7.85-4.32H82.2c.69,0,.77-.43.77-1s-.06-1-.77-1c-1,0-2,0-2.93,0-.71,0-1.1.13-1.1,1s.38,1,1.09,1C79.69,91.78,80.11,91.81,80.52,91.81Zm7.81,0c.56,0,1.12,0,1.68,0,.78,0,.77-.49.79-1.06s-.16-.91-.82-.89c-.94,0-1.89,0-2.83,0-.74,0-1.07.17-1.06,1s.38,1,1.1,1C87.56,91.78,87.95,91.81,88.33,91.81ZM75.59,88.88h-.11V97h.11Z"/><path class="a597c6d9-a72e-47d6-8c24-77098dc10834" d="M133.47,68.21c-4.22-1.41-5.58-4.41-5.48-7.26.06-1.78,0-3.57,0-5.35a3,3,0,0,0-.15-1.24,40.25,40.25,0,0,1,.18-4.6,7.15,7.15,0,0,1,7.29-5.69,6.93,6.93,0,0,1,6.57,6.58c.09,3.81.1,7.63,0,11.45S137.53,69.06,133.47,68.21Z"/><path class="a0453ac3-2873-47ec-8ab4-de75e592c775" d="M67.85,100.74a3.17,3.17,0,0,1,1.26.29l.19.24v.8l-.21.22h-.22a2.17,2.17,0,0,0-1.22-.21c-2.14,0-4.28,0-6.41,0-.66,0-1.7.28-1.48-1.06a1.35,1.35,0,0,0-.22-.08c-.29,1.1-1.12,2-1.35,3.27.58-.38,1.07-.59,1-1.24,0-.3.16-.45.46-.43,0,.31-.35.77.36.69l3.38,0a.41.41,0,0,0,.47,0H65l.27.05.6.11h0l.23.2h0a2.9,2.9,0,0,1-2.23,4.09,7.35,7.35,0,0,1-2.41.08c-.59-.08-1.09-.43-1-1.11s.62-.52,1.06-.54A11.83,11.83,0,0,0,63,106a.82.82,0,0,0,.59-.69.32.32,0,0,0-.36-.4c-1.86.2-3.93-.79-5.51,1.06a5.16,5.16,0,0,1-2.2,1.19c-.27.1-.64.09-.73.54l.51.1a55.57,55.57,0,0,0,7.14.28,30.37,30.37,0,0,0,5.64-.3h.62a2.42,2.42,0,0,1,.71,1l-.08.64a.45.45,0,0,0-.22.42.07.07,0,0,0,0,.1,1.08,1.08,0,0,0-.53.55l-.45.24c-.42,0-.87-.08-1.26.18l-5,.07a2.34,2.34,0,0,0-1.28,0l-4.2-.06a8.78,8.78,0,0,0-2.32-.35l-.41-.09a.35.35,0,0,0-.43-.17l-.67-.24a.31.31,0,0,0-.37-.17l-.45-.25c0-.11-.07-.15-.18-.11l-1-.76c-.79-.91-.83-.9-1.76.22a.24.24,0,0,0-.16.12,2.47,2.47,0,0,0-1.05,1l-.43.28-1.07,0-.38-.27a4.61,4.61,0,0,1-.46-1.88l.23-.6.2-.24h0l.22-.21a1.54,1.54,0,0,0,.84-.62.53.53,0,0,0,.48-.37l0-.07,0,.06A1.19,1.19,0,0,0,48,105c0-1,0-1.94,0-2.91,0-.53-.22-.79-.78-.62l-1,0a1.66,1.66,0,0,0-.83-.44h0a3.62,3.62,0,0,1-.27-1.68l.11-.3a2.85,2.85,0,0,1,2-.55c.94,0,1.88,0,2.82,0l.3.11a1.09,1.09,0,0,0,.55.55h0a31.45,31.45,0,0,1,.17,5.34,2.54,2.54,0,0,0,2.14,2.46v-1.26l.61-.45a2.79,2.79,0,0,0,1.89-.82,1.22,1.22,0,0,0,.66-.6.9.9,0,0,0,.47-.6c.22-.25.63-.52-.08-.65a3,3,0,0,0-1.26.06c-.72,0-1.44-.06-2.16-.06s-1.33-.32-1.12-1.25l.56-.47.61,0c.34.06.49-.14.39-.42s0-.68.06-1h0l.25-.17a5,5,0,0,0,2.59-1c.23-.2.55-.61.15-.74-.58-.19-1.47-.46-1.8.21-.63,1.27-1.48,1-2.44.66h0a2.11,2.11,0,0,1,0-2.1l.24-.17a.71.71,0,0,0,.6-.24l.63,0c.42.38.84.07,1.27,0h2.73c.43.23.91.17,1-.3s-.5-.53-.9-.54H55l-.62-.43-.16-.23v0q0-2.82-.07-5.63a1.06,1.06,0,0,0,.06-.16l.16-.25.31-.33a18.82,18.82,0,0,1,3.13-.13c.37,0,.79.08,1-.36a.34.34,0,0,0,.06-.19L59,87a1,1,0,0,0,.6-.48l1.06-.07h.21l.63.05c.43.22.18,1,.85,1h2.94l1.05.22a.16.16,0,0,0,.14.06l.26.2h0a.91.91,0,0,0,.44.61l0,5.27a.38.38,0,0,0-.18.43.18.18,0,0,0-.1.14.71.71,0,0,0-.47.43.13.13,0,0,0-.13,0l-3.79,0c-.29,0-.6.08-.6.44s.35.38.62.38L66,95.73h1.89l1,.47h0l.2.26.15.35-.1,1.08-.65.67a.71.71,0,0,0-.64.17l-.63,0c-.18,0-.31,0-.33.2l-.14.32a.64.64,0,0,0-.39.5h0c-1.22.48-2.49.17-3.74.26-.27,0-.63-.06-.66.33s.33.48.66.47a20.9,20.9,0,0,0,3.14-.08,4.8,4.8,0,0,0,1.65,0Zm-12.07,0a4.19,4.19,0,0,0,.73.06c1.08-.1,2.44.51,3-1.13.07-.24.44-.35.73-.34.54,0,.77-.21.68-.77s.1-1.11-.65-1.25a.91.91,0,0,0-1.16.62,4.05,4.05,0,0,1-2.35,2.26C56.42,100.35,56,100.31,55.78,100.77Zm4.9-7.92h0c-1,0-2,0-3,0-.32,0-.67.12-.68.51s.34.49.67.49c1.92,0,3.84,0,5.76,0,.35,0,.77-.06.78-.51s-.41-.49-.77-.49Zm-.07-4H57.78c-.32,0-.7,0-.68.45s.36.37.64.37h5.67c.31,0,.71,0,.68-.45s-.45-.36-.75-.37C62.43,88.86,61.52,88.87,60.61,88.87Zm0,2.87h2.73c.3,0,.71.06.71-.4s-.4-.42-.7-.42H57.76c-.31,0-.7,0-.66.45s.37.36.65.36Zm4.12,5.59v0c-.21,0-.42,0-.62,0-.47,0-1.1-.09-1,.65s.64.47,1.07.52c.74.08,1.25-.77,2-.5.11,0,.2-.16.16-.32a.4.4,0,0,0-.37-.31C65.54,97.32,65.12,97.33,64.71,97.33ZM65,108.57l0-.11H57.56v.11Z"/><path class="a0453ac3-2873-47ec-8ab4-de75e592c775" d="M40.34,89.44c.79.24.86.86.72,1.51a1.18,1.18,0,0,1-1.27,1c-1-.08-1.22.43-1.11,1.27a.84.84,0,0,1,0,.11c0,1.94,0,2,1.89,2a1.36,1.36,0,0,1,1.51,1.39c0,.86-.56,1.43-1.54,1.49-1.9.12-1.84.12-1.88,2.06,0,1,.29,1.29,1.26,1.24,1.15-.06,1.77.51,1.78,1.45s-.59,1.52-1.74,1.52q-9.88,0-19.76,0a1.51,1.51,0,0,1-1.71-1.46c0-.92.64-1.49,1.74-1.52,1.43,0,1.43,0,1.43-1.44a7,7,0,0,1,0-.84c.1-.81-.29-1.06-1-1a6.31,6.31,0,0,1-1.26,0,1.43,1.43,0,0,1,.08-2.85c.49,0,1,0,1.47,0s.73-.28.74-.79-.08-.85-.69-.46a1.66,1.66,0,0,1-1.61,0,1.37,1.37,0,0,1-.47-2.47,19.82,19.82,0,0,0,3.41-4,2,2,0,0,1,2.38-.87,1.11,1.11,0,0,1,.87,1.37c-.23,1,.38.92,1,.92q6.2,0,12.41,0c.47,0,1-.15,1.37.3h-15a.4.4,0,0,0,.37.24H39.45A1.09,1.09,0,0,0,40.34,89.44ZM24.51,92.82c-.31.48,0,1-.14,1.53-.17.74.14,1.18,1,1.21s1.25-.26,1.2-1.13c0-.52,0-1,0-1.57,0-.34.07-.73-.43-.82l-.79,0H25.1l-.37.06c-.14,0-.19,0-.16.16Zm6.5.88c0-.35,0-.7,0-1s-.21-.66-.69-.7C29.16,91.88,29,92,29,93.18c0,.49,0,1,0,1.46,0,.7.42.87,1,.86s1.05-.11,1-.86C31,94.33,31,94,31,93.7Zm4.68-.07c0-1.63,0-1.59-.86-1.67s-1.39.22-1.25,1.22a8.25,8.25,0,0,1,0,1.35c0,.73.36,1,1,1s1.11-.14,1.06-.93C35.67,94.26,35.68,94,35.68,93.64ZM29,99.91c0,1.7.08,1.79,1.25,1.75.66,0,.94-.38.78-.93-.24-.84.75-2.08-.65-2.51C29.24,97.88,29,98.28,29,99.91Zm4.63,0c.14.47-.31,1.19.31,1.57a1.37,1.37,0,0,0,1.5,0c.65-.73.18-1.73.27-2.61,0-.29,0-.57-.4-.64l-.21,0C33.77,98.07,33.59,98.27,33.59,100Zm-7.17-.1c-.17-.45.37-1.23-.36-1.51-.47-.18-1.22-.42-1.54.35s0,2.79.41,2.93a1.19,1.19,0,0,0,.21,0C26.24,101.81,26.41,101.58,26.41,99.85Z"/><path class="d9f0e28e-d68c-43a6-aeb4-7fd84905d493" d="M116.37,54.26c-2.26.25-4.53.07-6.79.11a7.25,7.25,0,0,0-7.15,5.48,2.21,2.21,0,0,1-.17-1c0-4.84,0-9.67,0-14.51a7.21,7.21,0,0,1,5.11-6.95,7.1,7.1,0,0,1,8,3,6.21,6.21,0,0,1,1.06,3.36C116.41,47.25,116.38,50.75,116.37,54.26Z"/><path class="a0453ac3-2873-47ec-8ab4-de75e592c775" d="M118,92.89c1.26,0,2.52,0,3.79,0s1.83.6,1.84,1.68-.59,1.7-1.8,1.71c-2.17,0-4.35,0-6.52,0-.89,0-1,.22-.69,1,1.63,4.05,4,7.43,8,9.55a1.24,1.24,0,0,1,.57,1.93c-.75,1.29-1.82,1.75-2.85,1.14a19,19,0,0,1-5.92-5.58,30.18,30.18,0,0,1-2.07-3.66c-.13-.26-.14-.71-.53-.67s-.31.42-.41.68a18.35,18.35,0,0,1-7.59,9c-1.31.82-2.18.67-3.1-.51-.69-.88-.6-1.48.39-2.05a17.65,17.65,0,0,0,4-3.16,16.59,16.59,0,0,0,3.7-6.65c.25-.79,0-1.07-.83-1q-3.15.06-6.31,0a1.66,1.66,0,0,1-1.76-2.06,1.6,1.6,0,0,1,1.76-1.32h6.52c1.47,0,1.48,0,1.54-1.52,0-1.23,0-2.45.1-3.68s.75-2,2-1.93,1.68.8,1.63,2.11-.1,2.73-.22,4.09c-.06.71.18.94.87.93C115.39,92.87,116.68,92.89,118,92.89Zm-4.65.4v.11h9v-.11Zm-4.08.14v-.11H102v.11Z"/><path class="a0453ac3-2873-47ec-8ab4-de75e592c775" d="M135.14,88.4l-.79.49a3.11,3.11,0,0,0-1.3.37c-.36.13-1,.06-.95.59s.71.23,1.09.28a1,1,0,0,0,.31-.06l1,0a.74.74,0,0,0,.63.22h0c.53,1.33.21,1.82-1.21,1.85a2.77,2.77,0,0,0-.52,0c-.46.1-1.28-.29-1.27.46s.83.41,1.3.43c.84,0,1.6-.06,2.14.92.37.67.86-.2,1.28-.36s.12-.45-.09-.69c-.48-.57-.29-1.12.43-1.31a1.43,1.43,0,0,1,1.12.17c.32.19.63.32,1,0a2.46,2.46,0,0,1,1.78-.49l.37.29,0,.82-.18.27c-.48.25-.74.51,0,.82l.19.19a1,1,0,0,1-.28,1.39,1,1,0,0,1-1.36-.09c-.56-.53-1-.31-1.46,0a1.82,1.82,0,0,1-1.9.23c-1.18-.58-2.4-.19-3.6-.29a.51.51,0,0,0-.57.37.44.44,0,0,0,.14.47c.23.21.53.16.8.16h11.44a4.15,4.15,0,0,0,.52,0,.47.47,0,0,0,.46-.48.46.46,0,0,0-.46-.48,8.23,8.23,0,0,0-1.26,0c-1,.07-1.48-.3-1.43-1.31l.5-.56,2.07,0c.36,0,.76,0,.79-.47s-.42-.43-.75-.45L143,92a.12.12,0,0,0-.11-.08l-.28-.42,0-.6a.4.4,0,0,0,.22-.42l.22-.22a9.36,9.36,0,0,1,2.29-.15c.33,0,.79.09.81-.42s-.41-.47-.76-.48l-2.31,0-.22-.18a1.4,1.4,0,0,1,.07-1.63.13.13,0,0,0,.12-.08.42.42,0,0,0,.43-.16h.41a.24.24,0,0,0,.42,0h2.1a5.75,5.75,0,0,0,1.69,0l.4.19.64.64a.24.24,0,0,0,.06.18q0,1.48,0,3l0,.84a2.86,2.86,0,0,0-.16,1.69l0,.41c-.42,1.66-.35,1.83.84,1.9l.39.22.23.21h0c.49,1.3.12,2.67.3,4l-.7.86a.39.39,0,0,0-.42.19h-.64a4.37,4.37,0,0,1-1.22-.73.12.12,0,0,0-.06-.13c-.24-.74.38-1.63-.42-2.27-2.8,0-5.6-.07-8.41-.07s-5.33,0-8,.05c-.88.47-.29,1.24-.39,1.87l-.07.35-.17.28-.43.42a.42.42,0,0,0-.42.21l-1,0a2.34,2.34,0,0,1-.87-2.21,16.89,16.89,0,0,0-.06-2l.14-.52.68-.67a.09.09,0,0,0,.11,0c.49,0,1.22.12,1.13-.65a16.8,16.8,0,0,0-.3-3.36l0-.63,0-2.95h0l.16-.21a.14.14,0,0,0,.09-.11l.59-.31h.42c.6.24,1.06-.09,1.53-.39a.15.15,0,0,0,.15,0,.39.39,0,0,0,.43-.16l.62-.25,1.28-.06.2.07.62.64,0,.63Z"/><path class="a0453ac3-2873-47ec-8ab4-de75e592c775" d="M27.68,128.58c0-2.5,0-4.91,0-7.33,0-1.21.58-1.72,1.77-1.64a1.23,1.23,0,0,1,1.32,1.32q0,6.25,0,12.51A1.5,1.5,0,0,1,29.6,135a2,2,0,0,1-2.33-.76c-.91-1.37-1.77-2.78-2.64-4.17s-1.79-2.89-2.69-4.35c-.37.2-.21.47-.21.68,0,2.35,0,4.69,0,7,0,1.09-.51,1.61-1.48,1.64a1.47,1.47,0,0,1-1.62-1.63c0-4,0-8,0-12a1.66,1.66,0,0,1,1.18-1.78,2.14,2.14,0,0,1,2.59.88c1.54,2.42,3,4.87,4.55,7.31C27.1,128.13,27.15,128.47,27.68,128.58Z"/><path class="39f5d4ef-0ab2-4efc-82d6-2e7161baa789" d="M25.8,52.92c.61.4.63,1.14,1,1.7,1.23,2,3.25,2.87,5.31,3.67Q35.45,59.6,38.79,61a1.82,1.82,0,0,1,.89.53,7,7,0,0,1-10.94,5.66,6.9,6.9,0,0,1-3.12-5.76c-.08-2.52,0-5,0-7.55A4.47,4.47,0,0,1,25.8,52.92Z"/><path class="a0453ac3-2873-47ec-8ab4-de75e592c775" d="M142,103.88h7.19a1.27,1.27,0,0,1,1.41,1.25c.09.78-.48,1.31-1.41,1.32-2.49,0-5,0-7.46,0-.84,0-1.18.21-1.18,1.11,0,3.07-.61,3.64-3.67,3.78-1,0-1.91.12-2.54-.84a1.25,1.25,0,0,1-.19-1.37,1,1,0,0,1,1.08-.46c.28,0,.56,0,.84,0a1.23,1.23,0,0,0,1.19-1.88c-.2-.43-.58-.33-.91-.33H129c-1.15,0-1.67-.4-1.68-1.25s.65-1.32,1.75-1.33c2.42,0,4.84,0,7.25,0,.52,0,1,0,1.19-.6a1.25,1.25,0,0,1,1.21-.69,1.83,1.83,0,0,0,1.47-.94h-6.1a9.46,9.46,0,0,1-1.05,0,1.05,1.05,0,0,1-1-1.15,1,1,0,0,1,1-1.08c1.19,0,2.38,0,3.57,0,2.28,0,4.56,0,6.83,0a1.7,1.7,0,0,1,1.77,1.19c.29.77-.4,1.1-.91,1.46-.79.55-1.59,1.08-2.38,1.62Zm-13.53.37v.11h8.57v-.11Zm21,.1v-.08H142v.08Z"/><path class="a0453ac3-2873-47ec-8ab4-de75e592c775" d="M134,121.64a1.9,1.9,0,0,1,2-2c2.38-.06,4.76,0,7.14,0a1.34,1.34,0,0,1,1.37,1.52,1.37,1.37,0,0,1-1.45,1.46c-1.68,0-3.36,0-5,0-.82,0-1.19.21-1.08,1.06a3.7,3.7,0,0,1,0,.84c-.08.74.26,1,1,1,1.36,0,2.73,0,4.1,0,1.1,0,1.73.62,1.69,1.56s-.66,1.42-1.72,1.43c-1.4,0-2.8,0-4.2,0-.64,0-.83.23-.86.86-.1,2.63-.12,2.63,2.55,2.63,1.16,0,2.31,0,3.47,0s1.71.51,1.69,1.52A1.44,1.44,0,0,1,143,135c-2.28,0-4.55,0-6.83,0a2.22,2.22,0,0,1-2.34-2.31c0-3.22,0-6.44,0-9.67a.5.5,0,0,1,.18-.46,2,2,0,0,1,.19.58c0,3.08,0,6.16-.07,9.24,0,.38-.07.79.32,1.08V121.32Zm3.75-1.61,0,.11H143V120Zm-.54.12a1.06,1.06,0,0,0-1-.08C136.47,120.27,136.74,120.17,137.23,120.15Z"/><path class="a0453ac3-2873-47ec-8ab4-de75e592c775" d="M51.84,129.87c.77,2.05,1.92,2.75,3.84,2.33a2.49,2.49,0,0,0,2.14-2.8c0-2.66,0-5.33,0-8,0-1.27.53-1.8,1.66-1.8A1.33,1.33,0,0,1,61,121c0,3,.18,6-.07,9-.34,4.11-3.33,5.37-6.57,5.2-3.65-.19-5.59-2.34-5.6-6q0-4,0-8.1c0-1.09.46-1.54,1.52-1.56s1.51.44,1.52,1.55c0,.73,0,1.47-.05,2.2a37.38,37.38,0,0,0-.13,5.32C51.62,129.07,51.47,129.52,51.84,129.87Zm6.36-.47h.1v-5.8h-.1Z"/><path class="a0453ac3-2873-47ec-8ab4-de75e592c775" d="M103,119.62a1.81,1.81,0,0,1,2,1.27c1.59,4,3.18,7.93,4.74,11.91.43,1.09.12,1.8-.82,2.14a1.54,1.54,0,0,1-2.16-1.05c-.32-.78-.6-1.57-.88-2.37a.86.86,0,0,0-.93-.66c-1.26,0-2.52,0-3.79,0a.83.83,0,0,0-.91.66c-.26.76-.56,1.51-.85,2.26-.45,1.16-1.16,1.53-2.17,1.14s-1.22-1.11-.76-2.27c1.33-3.39,2.68-6.77,4-10.16.23-.59.45-1.18.72-1.75A1.74,1.74,0,0,1,103,119.62Zm.17,4.67-.26,0c-.21.55-.43,1.09-.64,1.64-.9,2.34-.77,2.5,1.77,2.18h.1c.38,0,.48-.21.34-.56Z"/><path class="a0453ac3-2873-47ec-8ab4-de75e592c775" d="M119.73,127.46c.08-1.67-.16-3.75.12-5.81a2,2,0,0,1,2-1.95,26.51,26.51,0,0,1,5.77.09,4.14,4.14,0,0,1,3.73,4.45c0,2.66-1.3,4.4-3.67,4.91a18.61,18.61,0,0,1-3.88.17c-.68,0-.93.23-.9.92,0,1,0,2.1,0,3.15a1.49,1.49,0,0,1-1.5,1.67,1.54,1.54,0,0,1-1.66-1.64C119.69,131.57,119.73,129.71,119.73,127.46Zm5.33-4.88c-2.2,0-2.2,0-2.2,2.23,0,.25,0,.49,0,.74-.06.61.16.92.82.88.94-.06,1.89,0,2.83-.1a1.87,1.87,0,0,0,0-3.73C126,122.55,125.55,122.58,125.06,122.58Z"/><path class="a0453ac3-2873-47ec-8ab4-de75e592c775" d="M88.75,128.46c0-1.65,0-3.29,0-4.94,0-.64-.21-.88-.85-.86-.8,0-1.61,0-2.42,0a1.34,1.34,0,0,1-1.43-1.47,1.32,1.32,0,0,1,1.38-1.52c3.26,0,6.51,0,9.77,0a1.5,1.5,0,0,1,0,3,17.35,17.35,0,0,1-2.2,0c-.83-.07-1.09.22-1.08,1.06,0,3.19,0,6.37,0,9.56a1.6,1.6,0,1,1-3.18.12c0-1.64,0-3.29,0-4.94ZM88.29,120v.1h7.06V120ZM87,120c-.48,0-.76-.18-1,.09A1.37,1.37,0,0,0,87,120Z"/><path class="a0453ac3-2873-47ec-8ab4-de75e592c775" d="M38.23,128.5c0-1.61,0-3.23,0-4.84,0-.8-.26-1.06-1-1a18.93,18.93,0,0,1-2.21,0,1.5,1.5,0,0,1,0-3c3.19,0,6.38,0,9.57,0a1.48,1.48,0,0,1,1.52,1.54,1.42,1.42,0,0,1-1.56,1.46,20.34,20.34,0,0,1-2.1,0c-.78-.06-1,.23-1,1,0,3.15,0,6.31,0,9.46a1.73,1.73,0,0,1-.77,1.72,1.6,1.6,0,0,1-2.46-1.41c0-1.65,0-3.29,0-4.94ZM35.47,120v.11h9.38V120Zm-.84,2.1v.11h3.28v-.11Z"/><path class="a0453ac3-2873-47ec-8ab4-de75e592c775" d="M73.38,135.09a8,8,0,0,1-6.31-13.18,7.91,7.91,0,0,1,8.43-2.65,7.33,7.33,0,0,1,5.75,7.81c-.3,3.15-3,4.87-5.85,3.57a1.93,1.93,0,0,0-1.87,0,3.41,3.41,0,0,1-5.12-3.36c.11-2.72,2-5.43,5.7-4.55a1.57,1.57,0,0,0,1.22-.06,1.79,1.79,0,0,1,2.51,2.08c-.19,1.07-.39,2.14-.55,3.21-.11.69-.27,1.5.65,1.76s1.46-.29,1.86-1a5.9,5.9,0,0,0-1.59-7,7,7,0,0,0-7.27-1.37A7.16,7.16,0,0,0,69.3,133a7.87,7.87,0,0,0,7.26.6c.2-.07.38-.2.58-.26s.67-.26.86.08-.2.54-.46.68A7.85,7.85,0,0,1,73.38,135.09Zm5.28-4.93a6.17,6.17,0,0,0-.69-.08,1.23,1.23,0,0,1-1.21-1.29,10.49,10.49,0,0,1,.61-3.35c.52-1.14-.23-2.65-1.26-2.49a9.86,9.86,0,0,1-3.33,0c-1.49-.26-3,1-3.56,2.65-.72,2-.31,3.85,1.2,4.61a3.72,3.72,0,0,0,3.68-.25c.35-.21.62-.44,1-.08A2.87,2.87,0,0,0,78.66,130.16Z"/><path class="a737d354-4802-4f13-a80f-d628353bb56c" d="M167.5,51.16q0,4.94,0,9.88a7,7,0,1,1-14.07.27q-.14-10.36,0-20.71a7,7,0,0,1,6.21-7,7.15,7.15,0,0,1,7.52,4.84,7.33,7.33,0,0,1,.34,2.28Q167.49,46,167.5,51.16ZM167,40c-.16-.67-.35-1.34-.49-2s-1.1.27-1.05-.41c0-.49.33-.89-.15-1.37a6.34,6.34,0,0,0-5.66-1.93,6.12,6.12,0,0,0-5.5,6.4c0,6.9.08,13.81,0,20.71a6.09,6.09,0,0,0,5.14,6.3,6.41,6.41,0,0,0,6.4-2.37,14.13,14.13,0,0,0,1.32-3c.34-.31.2-.72.21-1.09q0-10.07,0-20.14C167.16,40.72,167.29,40.31,167,40Z"/><path class="a0453ac3-2873-47ec-8ab4-de75e592c775" d="M150.67,127.24c0,2,0,4,0,6,0,1.22-.53,1.82-1.54,1.85s-1.67-.64-1.68-1.84q0-5.94,0-11.88c0-1.23.49-1.74,1.59-1.75s1.61.54,1.62,1.74C150.68,123.31,150.67,125.27,150.67,127.24Z"/><path class="a0453ac3-2873-47ec-8ab4-de75e592c775" d="M116,127.34c0,2,0,3.92,0,5.88,0,1.21-.61,1.88-1.63,1.86s-1.6-.7-1.6-1.91q0-5.88,0-11.76c0-1.12.45-1.71,1.33-1.81a1.49,1.49,0,0,1,1.88,1.65c0,2,0,4.06,0,6.09Zm-2.66,5.43h.11V123.6h-.11Z"/><path class="a0453ac3-2873-47ec-8ab4-de75e592c775" d="M38.42,105.25a1.75,1.75,0,0,1,1.27.41,10.94,10.94,0,0,1,2.25,3.39,1.2,1.2,0,0,1-.69,1.65,1.79,1.79,0,0,1-2.45-.46A27.4,27.4,0,0,1,36.91,107C36.44,106,37.18,105.23,38.42,105.25Z"/><path class="a0453ac3-2873-47ec-8ab4-de75e592c775" d="M22,105.29a1.45,1.45,0,0,1,1.42,2,10.16,10.16,0,0,1-1.59,2.93,1.9,1.9,0,0,1-2.16.68c-1.1-.3-1.47-1.14-.82-2.07a24.84,24.84,0,0,0,1.47-2.53A1.69,1.69,0,0,1,22,105.29Z"/><path class="8b1ce06a-604b-41ef-a232-c9426658e85e" d="M90.65,61.89c-.15-.16-.45.68-.5-.08,0-.17,0-.35,0-.52q0-13.06,0-26.11c0-.62-.07-1.26.53-1.68a8.88,8.88,0,0,1,.1.93q0,13.11,0,26.22C90.77,61.06,90.69,61.47,90.65,61.89Z"/><path class="8b1ce06a-604b-41ef-a232-c9426658e85e" d="M76.94,33.07a.39.39,0,0,1,.36.43c-.1,1.09.21,2.15.22,3.23,0,7.08,0,14.16,0,21.25,0,1.29-.28,2.57-.2,3.87a.55.55,0,0,1-.29.52,2.14,2.14,0,0,1-.14-1q0-13.72,0-27.44C76.87,33.62,76.91,33.34,76.94,33.07Z"/><path class="a0453ac3-2873-47ec-8ab4-de75e592c775" d="M135.85,90.3v-.58l.18-.26.22-.2c.59-.15,1.17-.29.39-1-.26-.24-.17-.57-.12-.88l.35-.28a3.83,3.83,0,0,1,1.48,0,.1.1,0,0,0,.11.05c.27.42.52.37.76,0h0a.64.64,0,0,0,.53-.36l.29-.06,1.06.15a.88.88,0,0,1,.16,1.21c-.61.33-.71.65,0,1h0l.12,1-.3.38a1.73,1.73,0,0,1-1.5-.16.84.84,0,0,0-1.21.08A1.72,1.72,0,0,1,135.85,90.3Z"/><path class="a0453ac3-2873-47ec-8ab4-de75e592c775" d="M32.78,105.69a1.59,1.59,0,0,1,.89.25,5.06,5.06,0,0,1,1.38,3.87,1.53,1.53,0,0,1-1.55,1A1.51,1.51,0,0,1,32,109.79a16.59,16.59,0,0,1-.67-2.42A1.33,1.33,0,0,1,32.78,105.69Z"/><path class="a0453ac3-2873-47ec-8ab4-de75e592c775" d="M50.22,91.25A1.74,1.74,0,0,1,49,90.79c-.48-.4-1-.79-1.47-1.18s-1.13-.91-.72-1.73a1.78,1.78,0,0,1,2.18-.77,7.56,7.56,0,0,1,2.42,1.79,1.17,1.17,0,0,1,.16,1.45A1.65,1.65,0,0,1,50.22,91.25Z"/><path class="a0453ac3-2873-47ec-8ab4-de75e592c775" d="M25.81,107.82c-.07-1.3.39-2,1.34-2.09s1.67.6,1.83,1.76a16.7,16.7,0,0,1,.11,1.78,1.49,1.49,0,0,1-1.47,1.6A1.35,1.35,0,0,1,26,109.59C25.89,109,25.87,108.41,25.81,107.82Z"/><path class="a0453ac3-2873-47ec-8ab4-de75e592c775" d="M47.55,92.3a5.79,5.79,0,0,1,3.06,2.06A1.26,1.26,0,0,1,50.38,96a1.4,1.4,0,0,1-1.81.36,25,25,0,0,1-2.51-1.89,1,1,0,0,1-.21-1.26A1.83,1.83,0,0,1,47.55,92.3Z"/><path class="a0453ac3-2873-47ec-8ab4-de75e592c775" d="M59.68,102.53c-.3,0-.47.13-.46.43,0,.65-.46.86-1,1.24.23-1.3,1.06-2.17,1.35-3.27a1.35,1.35,0,0,1,.22.08c-.22,1.34.82,1,1.48,1.06,2.14,0,4.28,0,6.41,0a2.17,2.17,0,0,1,1.22.21c-.49.47-1.12.09-1.66.29H66l-5.48-.12c-.08-.11-.15-.11-.23,0l-.19.08A.31.31,0,0,0,59.68,102.53Z"/><path class="8b1ce06a-604b-41ef-a232-c9426658e85e" d="M108,68.09c.18-.47.59-.29.91-.29q11.15,0,22.29,0c.24,0,.87-.43.78.38h-.64c-.28-.31-.65-.19-1-.19H112c-.33,0-.71-.12-1,.19a5.46,5.46,0,0,1-1.69,0,.53.53,0,0,0-.83,0Z"/><path class="a0453ac3-2873-47ec-8ab4-de75e592c775" d="M134,121.64l.44-.32v12.13c-.39-.29-.32-.7-.32-1.08,0-3.08.05-6.16.07-9.24a2,2,0,0,0-.19-.58A1.41,1.41,0,0,1,134,121.64Z"/><path class="94db260b-b576-40cd-b6d1-b2bdaf712ea2" d="M111,68.19c.28-.31.65-.19,1-.19H130.4c.33,0,.71-.12,1,.19a5,5,0,0,1-1.86.07q-8.7,0-17.4,0C111.75,68.26,111.37,68.21,111,68.19Z"/><path class="a0453ac3-2873-47ec-8ab4-de75e592c775" d="M51.84,129.87c-.36-.35-.21-.8-.2-1.19a37.38,37.38,0,0,1,.13-5.32Z"/><path class="94db260b-b576-40cd-b6d1-b2bdaf712ea2" d="M108.47,68.16a.53.53,0,0,1,.83,0C109,68.44,108.73,68.33,108.47,68.16Z"/><path class="8b1ce06a-604b-41ef-a232-c9426658e85e" d="M90.34,32.33l-.1.15c0-.05-.07-.11-.07-.16s.06-.1.09-.15Z"/><path class="a0453ac3-2873-47ec-8ab4-de75e592c775" d="M75.59,88.88V97h-.11V88.87Z"/><path class="a0453ac3-2873-47ec-8ab4-de75e592c775" d="M65,108.57H57.56v-.11h7.51Z"/><path class="a0453ac3-2873-47ec-8ab4-de75e592c775" d="M65,103.22l.27.05Z"/><path class="a0453ac3-2873-47ec-8ab4-de75e592c775" d="M40.34,89.44a1.09,1.09,0,0,1-.88.23H25.71a.4.4,0,0,1-.37-.24h15Z"/><path class="a0453ac3-2873-47ec-8ab4-de75e592c775" d="M24.73,92.07l-.16.16C24.54,92.1,24.59,92,24.73,92.07Z"/><path class="a0453ac3-2873-47ec-8ab4-de75e592c775" d="M113.34,93.29h9v.11h-9Z"/><path class="a0453ac3-2873-47ec-8ab4-de75e592c775" d="M109.25,93.42H102v-.11h7.28Z"/><path class="a0453ac3-2873-47ec-8ab4-de75e592c775" d="M128.49,104.25h8.57v.11h-8.57Z"/><path class="a0453ac3-2873-47ec-8ab4-de75e592c775" d="M149.48,104.35H142v-.08h7.5Z"/><path class="a0453ac3-2873-47ec-8ab4-de75e592c775" d="M137.77,120H143v.11h-5.21Z"/><path class="a0453ac3-2873-47ec-8ab4-de75e592c775" d="M137.23,120.15c-.49,0-.76.12-1-.08A1.06,1.06,0,0,1,137.23,120.15Z"/><path class="a0453ac3-2873-47ec-8ab4-de75e592c775" d="M58.2,129.4v-5.8h.1v5.8Z"/><path class="a0453ac3-2873-47ec-8ab4-de75e592c775" d="M88.29,120h7.07v.1H88.3Z"/><path class="a0453ac3-2873-47ec-8ab4-de75e592c775" d="M87,120a1.37,1.37,0,0,1-1,.09C86.2,119.86,86.48,120,87,120Z"/><path class="a0453ac3-2873-47ec-8ab4-de75e592c775" d="M35.47,120h9.38v.11H35.47Z"/><path class="a0453ac3-2873-47ec-8ab4-de75e592c775" d="M34.63,122.12h3.28v.11H34.64Z"/><path class="a0453ac3-2873-47ec-8ab4-de75e592c775" d="M78.66,130.16a2.87,2.87,0,0,1-3.54-.27c-.39-.36-.66-.13-1,.08a3.72,3.72,0,0,1-3.68.25c-1.51-.75-1.92-2.61-1.2-4.61.6-1.65,2.07-2.91,3.56-2.65a9.86,9.86,0,0,0,3.33,0c1-.16,1.78,1.34,1.26,2.49a10.49,10.49,0,0,0-.61,3.35A1.23,1.23,0,0,0,78,130.08,6.17,6.17,0,0,1,78.66,130.16Zm-4.13-3.58A1.45,1.45,0,0,0,73.26,125,2,2,0,0,0,71.42,127a1.37,1.37,0,0,0,1.3,1.59A2,2,0,0,0,74.53,126.58Z"/><path class="51960c91-1379-4d95-a1cf-b4fc02a9e7fa" d="M167,62.31a14.13,14.13,0,0,1-1.32,3,6.41,6.41,0,0,1-6.4,2.37,6.09,6.09,0,0,1-5.14-6.3c.1-6.9.05-13.81,0-20.71a6.12,6.12,0,0,1,5.5-6.4,6.34,6.34,0,0,1,5.66,1.93c.48.47.18.87.15,1.37,0,.69.9-.35,1.05.41s.32,1.35.49,2Z"/><path class="8b1ce06a-604b-41ef-a232-c9426658e85e" d="M167,62.31q0-11.16,0-22.32c.33.31.2.72.2,1.09q0,10.07,0,20.14C167.16,61.59,167.3,62,167,62.31Z"/><path class="a0453ac3-2873-47ec-8ab4-de75e592c775" d="M113.33,132.77V123.6h.11v9.17Z"/><path class="a0453ac3-2873-47ec-8ab4-de75e592c775" d="M60.48,102.46h-.23C60.33,102.36,60.4,102.36,60.48,102.46Z"/></g></svg>