<svg id="b19b844a-6e27-4ebe-8525-cddff884343e" data-name="圖層 1" xmlns="http://www.w3.org/2000/svg" viewBox="0 0 285 285"><defs><style>.c2e4e047-4cf0-4fd2-bfaa-ad5349dd8c13{fill:#ff9856;}</style></defs><title>index_</title><path class="c2e4e047-4cf0-4fd2-bfaa-ad5349dd8c13" d="M275.76,143.86a136,136,0,0,1-10.24,54.44c-11.07,26.53-29,47-54.18,61.06a152.93,152.93,0,0,1-47,16.56,210.22,210.22,0,0,1-47.49,3.22,131,131,0,0,1-27.74-3.67,44.06,44.06,0,0,1-7.45-2.62c-4.53-2.1-9.43-3-14.24-4.11-8.24-1.93-16.53-3.63-24.7-5.86a62,62,0,0,1-10.85-3.78,10.61,10.61,0,0,1-4.11-3.57A42.89,42.89,0,0,1,22.62,245C19.4,235.9,17.55,226.5,15.93,217c-1.44-8.42-2.39-16.92-3.27-25.41-.5-4.84-.76-9.71-1.11-14.57-.62-8.61-.83-17.23-1.13-25.86-.26-7.36-.24-14.71-.15-22.06.1-7.75.43-15.5.94-23.23,1.15-17.3,2.9-34.54,6.64-51.5C19.78,45.66,22.08,37,26.31,29c.19-.35.39-.7.57-1.05a15.27,15.27,0,0,1,9.73-7.92c6.14-1.81,12.38-3.12,18.65-4.34,11.2-2.18,22.54-3.64,33.66-6.27,2.63-.62,5.16-1.72,7.8-2.32a94.65,94.65,0,0,1,14-1.64,147.41,147.41,0,0,1,22,.29c21.63,1.6,42.72,5.75,62.81,14.24,16.84,7.12,32,16.83,44.53,30.21a129.37,129.37,0,0,1,31.63,58.91A137.09,137.09,0,0,1,275.76,143.86Z"/></svg>