<svg xmlns="http://www.w3.org/2000/svg" xmlns:xlink="http://www.w3.org/1999/xlink" viewBox="0 0 184.05 169"><defs><style>.cls-1{fill:#ff6c4d;}.cls-2{fill:#fff;}.cls-3{fill:#f4432d;}.cls-4{fill:#14114b;}.cls-5{fill:url(#未命名漸層_5);}.cls-6{fill:none;stroke:#ff6c4d;stroke-miterlimit:10;stroke-width:3px;}.cls-7{fill:#3d3d78;}</style><linearGradient id="未命名漸層_5" x1="57.2" y1="-239.99" x2="63.45" y2="-239.1" gradientTransform="matrix(0.98, 0.18, -0.18, 0.98, -38.88, 328.43)" gradientUnits="userSpaceOnUse"><stop offset="0" stop-color="#ff6c4d"/><stop offset="1" stop-color="#ff8b6b"/></linearGradient></defs><title>maker</title><g id="圖層_6" data-name="圖層 6"><path class="cls-1" d="M74.05,37C62.52,35.26,39.92,59.12,28,83.8c-14.32,29.54,3.41,43.56,14.94,52.12s34.59,13.09,49.78,4,10-72-3.14-88.62S80.68,38,74.05,37Z"/><path class="cls-2" d="M61.39,64.63s.33,12.21,11.37,12.62,13-9.33,11.57-13.49S82.12,49,74.3,50,61,54.38,61.39,64.63Z"/><path class="cls-3" d="M60.42,63.06s24.81.39,24-3.18.42-10.28-11.65-10.09C59.43,50,60.26,58,60.42,63.06Z"/><ellipse class="cls-4" cx="77.72" cy="68" rx="4.63" ry="4.19" transform="translate(-10.84 14.88) rotate(-10.23)"/><path class="cls-4" d="M52.87,83.66a22.43,22.43,0,0,1,11.6,2.26c6.12,2.87,15.3,6.2,1.33,7.35S49.3,86.35,52.87,83.66Z"/><path class="cls-5" d="M61.28,103.05s38.68,9.32,42.54,4.21,6.46,16.23-44.46,6.22"/><path class="cls-6" d="M76.16,39.4S83.47,4.54,96.48,10.87s11.68,9.33,11.68,9.33"/><circle class="cls-1" cx="110.62" cy="21.54" r="4.15"/><polygon class="cls-4" points="124.98 116.82 124.98 135.49 131.26 129.82 131.26 113.55 124.98 116.82"/><polygon class="cls-4" points="106.62 142.49 125.5 145.82 141.02 124.33 132.73 122.49 106.62 142.49"/><rect class="cls-7" x="122.42" y="118.23" width="2.81" height="12.57" transform="translate(247.64 249.04) rotate(180)"/><polygon class="cls-4" points="106.85 57.69 106.85 132.49 151.39 102.16 151.39 57.69 106.85 57.69"/><rect class="cls-7" x="98.33" y="57.68" width="8.52" height="74.8"/><path class="cls-1" d="M24.17,111s15.35,46.42,18.61,46.47,10.75-21.21,7.32-25.57S24.17,111,24.17,111Z"/><path class="cls-1" d="M78.42,143.5c.89-3.26,19.23-12.57,19.23-12.57s-8.38,28-13.81,28C83.84,158.9,77.19,148,78.42,143.5Z"/><path class="cls-3" d="M49.29,131.55C37.76,123,20,109,34.35,79.43,42.06,63.54,54.17,48,64.9,39.4,53,46,37.24,64.64,28,83.8c-14.32,29.54,3.41,43.56,14.94,52.12s34.58,13.09,49.78,4a10.48,10.48,0,0,0,2.79-2.53C80.42,143.92,59.94,139.46,49.29,131.55Z"/></g></svg>