<?xml version="1.0" encoding="UTF-8"?>
<svg width="280px" height="221px" viewBox="0 0 280 221" version="1.1" xmlns="http://www.w3.org/2000/svg" xmlns:xlink="http://www.w3.org/1999/xlink">
    <!-- Generator: Sketch 48.1 (47250) - http://www.bohemiancoding.com/sketch -->
    <title>service_2</title>
    <desc>Created with Sketch.</desc>
    <defs></defs>
    <g id="Page-2" stroke="none" stroke-width="1" fill="none" fill-rule="evenodd">
        <g id="service_2">
            <rect id="Rectangle-14" fill="#FFFFFF" x="119" y="4" width="92" height="41"></rect>
            <g id="Group-20" transform="translate(131.000000, 15.000000)" fill="#081248">
                <polygon id="Triangle" points="81.2195122 0 90 18.8888889 72.4390244 18.8888889"></polygon>
                <ellipse id="Oval-7" cx="46.097561" cy="10" rx="9.87804878" ry="10"></ellipse>
                <rect id="Rectangle-15" x="0" y="0" width="17.5609756" height="18.8888889"></rect>
            </g>
            <rect id="Rectangle-14-Copy" fill="#FFFFFF" opacity="0.200000003" x="121" y="69" width="118" height="9"></rect>
            <rect id="Rectangle-13" fill="#081248" x="5" y="171" width="103" height="46"></rect>
            <rect id="Rectangle-13-Copy" fill="#081248" x="118" y="186" width="158" height="24"></rect>
            <g id="Group-16-Copy" transform="translate(37.500000, 78.500000) rotate(-345.000000) translate(-37.500000, -78.500000) translate(26.000000, 47.000000)" fill="#FFFFFF">
                <path d="M16.5586881,63 L16.5586881,49.9485685 L6.44131193,49.9485685 L6.44131193,63 L3.55271368e-14,59.2338793 L3.90798505e-14,45.7861878 L8.22036812,40.9798845 L8.22036812,22.0201155 L4.01900735e-14,17.2138122 L3.28626015e-14,3.76612069 L6.44131193,3.15303339e-14 L6.44131193,13.0514315 L16.5586881,13.0514315 L16.5586881,2.04281037e-14 L23,3.76612069 L23,17.2138122 L15.1760642,21.7883285 L15.1760642,41.2116715 L23,45.7861878 L23,59.2338793 L16.5586881,63 Z" id="Combined-Shape"></path>
            </g>
            <g id="Group-19" transform="translate(228.500000, 135.500000) rotate(-15.000000) translate(-228.500000, -135.500000) translate(206.000000, 101.000000)">
                <rect id="Rectangle-12" fill="#081248" x="16.4628839" y="13.1424335" width="9.87773035" height="55.8553422"></rect>
                <path d="M9.87773035,4.12575328 C20.1873862,1.83421218 37.0219241,4.2363003 44.9985494,11.2596034 C44.9985494,11.9305385 43.1495648,12.7692073 39.4515957,13.7756098 C41.1324908,19.4785577 41.9729383,22.3300316 41.9729383,22.3300316 C24.9908347,11.0325899 14.2219803,16.0808648 9.87773035,19.7585829 L9.87773035,25.1896642 L0,25.1896642 L0,0 L9.87773035,0 L9.87773035,4.12575328 Z" id="Combined-Shape" fill="#D8D8D8"></path>
            </g>
            <g id="Group-16" transform="translate(66.000000, 106.000000)">
                <ellipse id="Oval-6-Copy" fill="#FFFFFF" cx="20.0571429" cy="9.91836735" rx="10.0285714" ry="9.91836735"></ellipse>
                <path d="M0,53.1183673 C3.56571429,34.6040816 10.4742857,25.3469388 20.7257143,25.3469388 C30.9771429,25.3469388 36.7714286,34.6040816 38.1085714,53.1183673 L0,53.1183673 Z" id="Path-89-Copy-2" fill="#EEEEEE"></path>
            </g>
            <path d="M102.548992,126.381085 L98,133.981992 L111.192076,130.181539 C130.297842,139.27282 146.674213,139.27282 160.321189,130.181539 C180.791652,116.544616 167.144677,85.2467602 134.846834,90.6121069 C113.314939,94.1890046 102.548992,106.111997 102.548992,126.381085 Z" id="Path-93" fill="#FFFFFF"></path>
            <text id="?" font-family="NotoSansCJKtc-Black, Noto Sans CJK TC" font-size="34.1" font-weight="700" fill="#14114B">
                <tspan x="128" y="127">?</tspan>
            </text>
        </g>
    </g>
</svg>