<svg id="42395285-ef30-4e88-9f42-cc93b6649690" data-name="圖層 1" xmlns="http://www.w3.org/2000/svg" viewBox="0 0 992.13 992.13"><defs><style>.\39 39490b3-2301-48d8-a5ca-d4d6ac7ab5b4{fill:#9169ab;}.fc4cd1bd-ec47-49dd-b38d-334b94973d62{fill:#7f58a2;}.\33 33e2214-9cb1-4484-ad55-65b8e325845e,.\37 2780ef6-edba-4bed-b300-064f7d561574,.\37 bf37b52-c233-448f-aa52-a0684056c98f,.c5b7a8d6-3bbb-4253-88e4-827ec838e4ab,.e9b70a50-21de-4a94-90af-60ec417a5150{fill:none;}.\39 c1ad4fa-a5d1-4a5b-8904-728111239104{fill:#eb7f87;}.\30 42dcf94-214a-403d-b2bf-ff2c30076398{fill:#f5e929;}.\35 411f80a-31be-45c9-92e7-2b0e1bb43a52{fill:#ec98a4;}.\36 753ddfd-e478-4ca2-82e9-beb6d331e66f{fill:#de707d;}.\38 54c93d8-cf9b-43b9-9b64-5c995804df81{fill:#cc2920;}.ab703a9b-a29c-4c78-9604-aa629adee57f{fill:#db3b2a;}.cd12b128-ee27-4866-b655-08fd22fc635b{fill:#f7f9f9;}.\31 9eccf08-9978-4d01-8219-87187e5d3944{fill:#f4da26;}.e53f76bb-23f5-40a0-afee-62ed3e0670f3{fill:#2c445c;}.aa6d6490-c844-4627-9ca3-a4d60bb44061{fill:#6d3d94;}.\33 33e2214-9cb1-4484-ad55-65b8e325845e{stroke:#231815;stroke-width:2.36px;}.\33 33e2214-9cb1-4484-ad55-65b8e325845e,.\37 2780ef6-edba-4bed-b300-064f7d561574{stroke-linejoin:round;}.\35 f96426b-ad56-49d8-9fef-45437f7b43ad{fill:#231815;}.d7cc090d-4a32-4281-b61f-69d955e9b7fe{fill:#fff;}.\37 2780ef6-edba-4bed-b300-064f7d561574{stroke:#db3b2a;stroke-linecap:round;stroke-width:18.53px;}.c5b7a8d6-3bbb-4253-88e4-827ec838e4ab{stroke:#eb7f87;stroke-width:2.44px;}.\37 bf37b52-c233-448f-aa52-a0684056c98f,.c5b7a8d6-3bbb-4253-88e4-827ec838e4ab{stroke-miterlimit:10;}.\34 96c973b-a19e-4a40-be38-6256cb37df1e{fill:#e5c826;}.\37 bf37b52-c233-448f-aa52-a0684056c98f{stroke:#f5e929;stroke-width:6px;}</style></defs><title>stars</title><g id="e48a927f-b3a1-487e-97f4-9e6152ea77d5" data-name="planet_play"><path class="939490b3-2301-48d8-a5ca-d4d6ac7ab5b4" d="M479.56,233.29V684.47c0,4.23,4.57,7.7,10.15,7.7V225.59C484.13,225.59,479.56,229.05,479.56,233.29Z"/><path class="fc4cd1bd-ec47-49dd-b38d-334b94973d62" d="M489.71,225.59V692.17c5.58,0,10.15-3.46,10.15-7.7V233.29C499.86,229.05,495.29,225.59,489.71,225.59Z"/><path class="939490b3-2301-48d8-a5ca-d4d6ac7ab5b4" d="M681.88,306,282.5,746.52a10.18,10.18,0,0,0,.7,14.33l413-455.6A10.18,10.18,0,0,0,681.88,306Z"/><path class="fc4cd1bd-ec47-49dd-b38d-334b94973d62" d="M696.22,305.26l-413,455.6a10.18,10.18,0,0,0,14.33-.7L696.92,319.59A10.18,10.18,0,0,0,696.22,305.26Z"/><path class="939490b3-2301-48d8-a5ca-d4d6ac7ab5b4" d="M276.48,282.77,696.92,746.52a10.18,10.18,0,0,1-.7,14.33L262.15,282.07A10.18,10.18,0,0,1,276.48,282.77Z"/><path class="fc4cd1bd-ec47-49dd-b38d-334b94973d62" d="M262.15,282.07,696.22,760.86a10.18,10.18,0,0,1-14.33-.7L261.45,296.4A10.18,10.18,0,0,1,262.15,282.07Z"/><path class="e9b70a50-21de-4a94-90af-60ec417a5150" d="M794.5,432.06c.86-.3,1.71-.61,2.58-.89C796.21,431.45,795.36,431.76,794.5,432.06Z"/><path class="e9b70a50-21de-4a94-90af-60ec417a5150" d="M789.53,433.91c.84-.34,1.68-.69,2.54-1C791.21,433.22,790.37,433.57,789.53,433.91Z"/><path class="e9b70a50-21de-4a94-90af-60ec417a5150" d="M727.59,498.62c.29-.9.56-1.8.88-2.69C728.15,496.82,727.88,497.72,727.59,498.62Z"/><path class="e9b70a50-21de-4a94-90af-60ec417a5150" d="M784.69,436c.82-.37,1.64-.76,2.48-1.11C786.33,435.2,785.51,435.59,784.69,436Z"/><path class="e9b70a50-21de-4a94-90af-60ec417a5150" d="M726.07,503.76c.25-.95.49-1.91.77-2.84C726.56,501.86,726.32,502.81,726.07,503.76Z"/><path class="e9b70a50-21de-4a94-90af-60ec417a5150" d="M751.21,459.37c.61-.63,1.2-1.27,1.83-1.89C752.41,458.1,751.82,458.74,751.21,459.37Z"/><path class="e9b70a50-21de-4a94-90af-60ec417a5150" d="M810,427.83c.91-.18,1.82-.38,2.74-.55C811.87,427.44,811,427.64,810,427.83Z"/><path class="e9b70a50-21de-4a94-90af-60ec417a5150" d="M799.57,430.43c.88-.26,1.75-.54,2.64-.78C801.33,429.89,800.45,430.17,799.57,430.43Z"/><path class="e9b70a50-21de-4a94-90af-60ec417a5150" d="M804.76,429c.9-.22,1.79-.46,2.69-.66C806.55,428.56,805.66,428.79,804.76,429Z"/><path class="e9b70a50-21de-4a94-90af-60ec417a5150" d="M747.77,463.1c.58-.66,1.14-1.33,1.73-2C748.91,461.77,748.35,462.44,747.77,463.1Z"/><path class="e9b70a50-21de-4a94-90af-60ec417a5150" d="M729.34,493.67c.33-.86.64-1.74,1-2.59C730,491.93,729.67,492.8,729.34,493.67Z"/><path class="e9b70a50-21de-4a94-90af-60ec417a5150" d="M754.82,455.81c.64-.6,1.27-1.22,1.93-1.81C756.09,454.59,755.46,455.21,754.82,455.81Z"/><path class="e9b70a50-21de-4a94-90af-60ec417a5150" d="M780,438.21c.8-.41,1.59-.83,2.4-1.21C781.58,437.39,780.79,437.81,780,438.21Z"/><path class="e9b70a50-21de-4a94-90af-60ec417a5150" d="M733.51,484.22c.41-.82.81-1.64,1.24-2.44C734.32,482.58,733.92,483.4,733.51,484.22Z"/><path class="e9b70a50-21de-4a94-90af-60ec417a5150" d="M758.61,452.42c.67-.57,1.33-1.15,2-1.71C759.94,451.26,759.29,451.84,758.61,452.42Z"/><path class="e9b70a50-21de-4a94-90af-60ec417a5150" d="M766.68,446.19c.73-.51,1.46-1,2.2-1.54C768.14,445.15,767.41,445.67,766.68,446.19Z"/><path class="e9b70a50-21de-4a94-90af-60ec417a5150" d="M762.58,449.2c.7-.54,1.39-1.09,2.1-1.62C764,448.11,763.28,448.66,762.58,449.2Z"/><path class="e9b70a50-21de-4a94-90af-60ec417a5150" d="M724.8,509c.21-1,.41-2,.65-3C725.21,507,725,508,724.8,509Z"/><path class="e9b70a50-21de-4a94-90af-60ec417a5150" d="M775.42,440.67c.78-.44,1.54-.9,2.33-1.32C777,439.78,776.19,440.23,775.42,440.67Z"/><path class="e9b70a50-21de-4a94-90af-60ec417a5150" d="M771,443.33c.75-.48,1.5-1,2.27-1.43C772.47,442.36,771.73,442.85,771,443.33Z"/><path class="e9b70a50-21de-4a94-90af-60ec417a5150" d="M731.31,488.88c.37-.84.73-1.69,1.12-2.52C732,487.18,731.68,488,731.31,488.88Z"/><path class="e9b70a50-21de-4a94-90af-60ec417a5150" d="M735.93,479.71c.45-.79.89-1.59,1.36-2.37C736.82,478.12,736.38,478.92,735.93,479.71Z"/><path class="e9b70a50-21de-4a94-90af-60ec417a5150" d="M815.43,426.87c.93-.14,1.85-.31,2.79-.43C817.28,426.56,816.36,426.72,815.43,426.87Z"/><path class="e9b70a50-21de-4a94-90af-60ec417a5150" d="M834.84,425.32c-.92,0-1.83,0-2.75.07,1,0,2-.06,3-.06Z"/><path class="e9b70a50-21de-4a94-90af-60ec417a5150" d="M837,425.34h0Z"/><path class="e9b70a50-21de-4a94-90af-60ec417a5150" d="M722.84,522.09c0,.25,0,.51,0,.76h0C722.81,522.6,722.81,522.35,722.84,522.09Z"/><path class="e9b70a50-21de-4a94-90af-60ec417a5150" d="M741.44,471.1c.52-.73,1-1.47,1.56-2.18C742.46,469.63,742,470.37,741.44,471.1Z"/><path class="e9b70a50-21de-4a94-90af-60ec417a5150" d="M723.07,520c.12-1.13.22-2.26.38-3.38C723.29,517.74,723.19,518.88,723.07,520Z"/><path class="e9b70a50-21de-4a94-90af-60ec417a5150" d="M723.81,514.42c.17-1.05.32-2.11.51-3.14C724.12,512.31,724,513.37,723.81,514.42Z"/><path class="e9b70a50-21de-4a94-90af-60ec417a5150" d="M820.9,426.14c.95-.11,1.89-.23,2.84-.31C822.78,425.91,821.84,426,820.9,426.14Z"/><path class="e9b70a50-21de-4a94-90af-60ec417a5150" d="M738.59,475.32c.48-.76,1-1.52,1.46-2.27C739.54,473.79,739.07,474.56,738.59,475.32Z"/><path class="e9b70a50-21de-4a94-90af-60ec417a5150" d="M826.46,425.64c1-.06,1.91-.14,2.87-.19C828.37,425.5,827.41,425.58,826.46,425.64Z"/><path class="e9b70a50-21de-4a94-90af-60ec417a5150" d="M744.5,467c.55-.69,1.09-1.4,1.65-2.08C745.59,465.62,745.05,466.33,744.5,467Z"/><path class="fc4cd1bd-ec47-49dd-b38d-334b94973d62" d="M639.12,533v10.15h83.32c0-3.36,0-7.15,0-10.14Z"/><path class="fc4cd1bd-ec47-49dd-b38d-334b94973d62" d="M251.27,533v9.8a10,10,0,0,0,2.56.34h430V533Z"/><path class="939490b3-2301-48d8-a5ca-d4d6ac7ab5b4" d="M251.27,522.83v0A10.25,10.25,0,0,0,241,532.65l2.69,1c0-.23,0-.46,0-.7H683.82V522.83Z"/><path class="939490b3-2301-48d8-a5ca-d4d6ac7ab5b4" d="M722.46,533c0-2.83,0-5,0-5.31,0,.73-.06,5-.06,5,0-9,0,0,0,0l-10.26-.33q0-4.79.33-9.5H639.12V533Z"/><path class="939490b3-2301-48d8-a5ca-d4d6ac7ab5b4" d="M722.79,522.86h0c-.13,1.59-.23,3.19-.29,4.81C722.55,526.05,722.66,524.45,722.79,522.86Z"/><path class="939490b3-2301-48d8-a5ca-d4d6ac7ab5b4" d="M243.69,533a10.18,10.18,0,0,0,7.58,9.8V533Z"/><path class="fc4cd1bd-ec47-49dd-b38d-334b94973d62" d="M837.81,425.36H837l-1.93,0c-1,0-2,0-3,.06s-1.84,0-2.76.07-1.92.12-2.87.19-1.82.1-2.72.18-1.89.21-2.84.31-1.79.18-2.68.3-1.86.29-2.79.43-1.77.26-2.64.41-1.83.36-2.74.55-1.74.33-2.59.52-1.8.44-2.69.66-1.71.41-2.55.63-1.76.52-2.64.78-1.67.48-2.49.74-1.72.59-2.58.89-1.63.55-2.44.84-1.69.67-2.54,1-1.58.61-2.36.94-1.65.74-2.48,1.11-1.54.68-2.3,1-1.6.81-2.4,1.21-1.5.74-2.24,1.14-1.55.88-2.33,1.32-1.46.81-2.17,1.23-1.51.95-2.27,1.43-1.41.86-2.09,1.32-1.47,1-2.2,1.54-1.35.92-2,1.4-1.4,1.08-2.1,1.62-1.31,1-1.95,1.5-1.34,1.14-2,1.71-1.26,1-1.87,1.59-1.29,1.2-1.93,1.81-1.2,1.1-1.78,1.67-1.22,1.26-1.83,1.89-1.15,1.16-1.7,1.76-1.16,1.31-1.73,2-1.09,1.22-1.62,1.84-1.1,1.39-1.65,2.08-1,1.25-1.5,1.89-1,1.45-1.56,2.18-.95,1.29-1.4,2-1,1.51-1.46,2.27-.88,1.33-1.29,2-.91,1.58-1.36,2.37-.8,1.36-1.18,2.06-.83,1.63-1.24,2.44-.74,1.41-1.08,2.14-.75,1.68-1.12,2.52-.67,1.46-1,2.2-.67,1.72-1,2.59-.6,1.5-.87,2.27-.59,1.79-.88,2.69-.52,1.52-.75,2.3c-.28.94-.52,1.89-.77,2.84-.2.76-.43,1.5-.61,2.27-.24,1-.44,2-.65,3-.16.74-.34,1.47-.48,2.22-.2,1-.35,2.09-.51,3.14-.12.74-.26,1.47-.36,2.21-.15,1.11-.26,2.25-.38,3.38-.07.7-.17,1.39-.23,2.09,0,.25,0,.51,0,.76a10.14,10.14,0,0,1-.35,20.26h0c7.48,0,10.24-5.72,10.24-11.38,0-54.83,44.05-96.17,102.47-96.17A102.59,102.59,0,0,1,937.62,538V573a10.26,10.26,0,0,0,10.26,10.26V539C947.88,477.83,898.63,426.83,837.81,425.36Z"/><path class="fc4cd1bd-ec47-49dd-b38d-334b94973d62" d="M732.4,533h-9.93c0,3,0,6.78,0,10.14A10.17,10.17,0,0,0,732.4,533Z"/><path class="fc4cd1bd-ec47-49dd-b38d-334b94973d62" d="M722.46,533h9.93a10.17,10.17,0,0,0-9.61-10.12c-.13,1.59-.23,3.19-.29,4.81C722.48,528,722.47,530.15,722.46,533Z"/><path class="939490b3-2301-48d8-a5ca-d4d6ac7ab5b4" d="M837.07,415.08c-33.85-.46-65.38,11.15-88.59,32.57a112.43,112.43,0,0,0-36,75.18h9.75l.54,0c0-.25,0-.51,0-.76.06-.7.16-1.39.23-2.09.12-1.13.22-2.26.38-3.38.1-.74.24-1.47.36-2.21.17-1.05.32-2.11.51-3.14.14-.75.32-1.48.48-2.22.21-1,.41-2,.65-3,.19-.77.41-1.51.61-2.27.25-.95.49-1.91.77-2.84.23-.78.5-1.53.75-2.3s.56-1.8.88-2.69.58-1.51.87-2.27.64-1.74,1-2.59.65-1.47,1-2.2.73-1.69,1.12-2.52.72-1.43,1.08-2.14.81-1.64,1.24-2.44.79-1.37,1.18-2.06.89-1.59,1.36-2.37.86-1.35,1.29-2,1-1.52,1.46-2.27.93-1.3,1.4-2,1-1.47,1.56-2.18,1-1.26,1.5-1.89,1.09-1.4,1.65-2.08,1.08-1.23,1.62-1.84,1.14-1.33,1.73-2,1.14-1.17,1.7-1.76,1.2-1.27,1.83-1.89,1.19-1.11,1.78-1.67,1.27-1.22,1.93-1.81,1.24-1.06,1.87-1.59,1.33-1.15,2-1.71,1.3-1,1.95-1.5,1.39-1.09,2.1-1.62,1.33-.93,2-1.4,1.46-1,2.2-1.54,1.39-.88,2.09-1.32,1.5-1,2.27-1.43,1.45-.82,2.17-1.23,1.54-.9,2.33-1.32,1.49-.76,2.24-1.14,1.59-.83,2.4-1.21,1.53-.69,2.3-1,1.64-.76,2.48-1.11,1.58-.63,2.36-.94,1.68-.69,2.54-1,1.62-.56,2.44-.84,1.71-.61,2.58-.89,1.66-.49,2.49-.74,1.75-.54,2.64-.78,1.7-.42,2.55-.63,1.79-.46,2.69-.66,1.73-.35,2.59-.52,1.82-.38,2.74-.55,1.76-.28,2.64-.41,1.85-.31,2.79-.43,1.78-.2,2.68-.3,1.89-.23,2.84-.31,1.81-.12,2.72-.18,1.91-.14,2.87-.19,1.84,0,2.76-.07,1.83-.06,2.75-.07h.31l1.81,0h.84a112.73,112.73,0,0,1,110.07,112.7v45.18A10.26,10.26,0,0,0,958.14,573V538.85C958.14,471.54,904.37,416,837.07,415.08Z"/><path class="939490b3-2301-48d8-a5ca-d4d6ac7ab5b4" d="M722.42,532.66s0-9,0,0c0,0,0-4.26.06-5,.06-1.62.17-3.22.29-4.81l-.54,0h-9.75q-.35,4.71-.33,9.5Z"/><path class="939490b3-2301-48d8-a5ca-d4d6ac7ab5b4" d="M737.29,477.34c.42-.68.86-1.35,1.29-2C738.16,476,737.71,476.65,737.29,477.34Z"/><path class="939490b3-2301-48d8-a5ca-d4d6ac7ab5b4" d="M740,473.05c.45-.66.93-1.3,1.4-2C741,471.75,740.49,472.39,740,473.05Z"/><path class="939490b3-2301-48d8-a5ca-d4d6ac7ab5b4" d="M734.75,481.77c.38-.7.79-1.37,1.18-2.06C735.54,480.4,735.13,481.08,734.75,481.77Z"/><path class="939490b3-2301-48d8-a5ca-d4d6ac7ab5b4" d="M724.32,511.27c.14-.75.32-1.48.48-2.22C724.64,509.79,724.46,510.52,724.32,511.27Z"/><path class="939490b3-2301-48d8-a5ca-d4d6ac7ab5b4" d="M723.45,516.63c.1-.74.24-1.47.36-2.21C723.69,515.15,723.55,515.88,723.45,516.63Z"/><path class="939490b3-2301-48d8-a5ca-d4d6ac7ab5b4" d="M722.84,522.09c.06-.7.16-1.39.23-2.09C723,520.7,722.9,521.39,722.84,522.09Z"/><path class="939490b3-2301-48d8-a5ca-d4d6ac7ab5b4" d="M725.45,506c.19-.77.41-1.51.61-2.27C725.87,504.52,725.64,505.27,725.45,506Z"/><path class="939490b3-2301-48d8-a5ca-d4d6ac7ab5b4" d="M732.43,486.36c.34-.72.72-1.43,1.08-2.14C733.15,484.93,732.77,485.63,732.43,486.36Z"/><path class="939490b3-2301-48d8-a5ca-d4d6ac7ab5b4" d="M726.84,500.92c.23-.78.5-1.53.75-2.3C727.34,499.39,727.07,500.14,726.84,500.92Z"/><path class="939490b3-2301-48d8-a5ca-d4d6ac7ab5b4" d="M730.33,491.08c.31-.74.65-1.47,1-2.2C731,489.61,730.64,490.33,730.33,491.08Z"/><path class="939490b3-2301-48d8-a5ca-d4d6ac7ab5b4" d="M728.47,495.93c.27-.77.58-1.51.87-2.27C729,494.42,728.74,495.17,728.47,495.93Z"/><path class="939490b3-2301-48d8-a5ca-d4d6ac7ab5b4" d="M807.45,428.35c.86-.19,1.73-.35,2.59-.52C809.18,428,808.31,428.16,807.45,428.35Z"/><path class="939490b3-2301-48d8-a5ca-d4d6ac7ab5b4" d="M802.22,429.65c.84-.23,1.7-.42,2.55-.63C803.91,429.23,803.06,429.42,802.22,429.65Z"/><path class="939490b3-2301-48d8-a5ca-d4d6ac7ab5b4" d="M812.79,427.28c.87-.16,1.76-.28,2.64-.41C814.55,427,813.66,427.12,812.79,427.28Z"/><path class="939490b3-2301-48d8-a5ca-d4d6ac7ab5b4" d="M792.06,432.9c.8-.3,1.62-.56,2.44-.84C793.69,432.34,792.87,432.6,792.06,432.9Z"/><path class="939490b3-2301-48d8-a5ca-d4d6ac7ab5b4" d="M797.08,431.17c.82-.26,1.66-.49,2.49-.74C798.74,430.67,797.91,430.9,797.08,431.17Z"/><path class="939490b3-2301-48d8-a5ca-d4d6ac7ab5b4" d="M818.22,426.44c.89-.12,1.78-.2,2.68-.3C820,426.24,819.11,426.32,818.22,426.44Z"/><path class="939490b3-2301-48d8-a5ca-d4d6ac7ab5b4" d="M743,468.92c.48-.64,1-1.26,1.5-1.89C744,467.66,743.49,468.27,743,468.92Z"/><path class="939490b3-2301-48d8-a5ca-d4d6ac7ab5b4" d="M947.88,539v-1a112.73,112.73,0,0,0-110.07-112.7C898.63,426.83,947.88,477.83,947.88,539Z"/><path class="939490b3-2301-48d8-a5ca-d4d6ac7ab5b4" d="M835.15,425.32H835l1.93,0Z"/><path class="939490b3-2301-48d8-a5ca-d4d6ac7ab5b4" d="M787.17,434.85c.78-.33,1.58-.63,2.36-.94C788.74,434.22,787.94,434.52,787.17,434.85Z"/><path class="939490b3-2301-48d8-a5ca-d4d6ac7ab5b4" d="M823.74,425.83c.9-.08,1.81-.12,2.72-.18C825.55,425.7,824.64,425.75,823.74,425.83Z"/><path class="939490b3-2301-48d8-a5ca-d4d6ac7ab5b4" d="M829.33,425.45c.91,0,1.84,0,2.76-.07C831.17,425.41,830.24,425.41,829.33,425.45Z"/><path class="939490b3-2301-48d8-a5ca-d4d6ac7ab5b4" d="M753,457.48c.58-.57,1.19-1.11,1.78-1.67C754.22,456.37,753.62,456.91,753,457.48Z"/><path class="939490b3-2301-48d8-a5ca-d4d6ac7ab5b4" d="M782.39,437c.76-.36,1.53-.69,2.3-1C783.92,436.31,783.15,436.64,782.39,437Z"/><path class="939490b3-2301-48d8-a5ca-d4d6ac7ab5b4" d="M760.63,450.71c.64-.52,1.3-1,1.95-1.5C761.93,449.7,761.27,450.19,760.63,450.71Z"/><path class="939490b3-2301-48d8-a5ca-d4d6ac7ab5b4" d="M746.16,464.94c.52-.63,1.08-1.23,1.62-1.84C747.23,463.71,746.68,464.31,746.16,464.94Z"/><path class="939490b3-2301-48d8-a5ca-d4d6ac7ab5b4" d="M749.5,461.13c.55-.6,1.14-1.17,1.7-1.76C750.64,460,750.06,460.53,749.5,461.13Z"/><path class="939490b3-2301-48d8-a5ca-d4d6ac7ab5b4" d="M756.75,454c.61-.54,1.24-1.06,1.87-1.59C758,452.95,757.36,453.46,756.75,454Z"/><path class="939490b3-2301-48d8-a5ca-d4d6ac7ab5b4" d="M773.24,441.91c.71-.43,1.45-.82,2.17-1.23C774.69,441.08,774,441.48,773.24,441.91Z"/><path class="939490b3-2301-48d8-a5ca-d4d6ac7ab5b4" d="M777.75,439.35c.74-.4,1.49-.76,2.24-1.14C779.24,438.59,778.48,439,777.75,439.35Z"/><path class="939490b3-2301-48d8-a5ca-d4d6ac7ab5b4" d="M768.88,444.65c.69-.45,1.39-.88,2.09-1.32C770.28,443.77,769.57,444.2,768.88,444.65Z"/><path class="939490b3-2301-48d8-a5ca-d4d6ac7ab5b4" d="M764.68,447.59c.66-.48,1.33-.93,2-1.4C766,446.65,765.33,447.11,764.68,447.59Z"/><rect class="9c1ad4fa-a5d1-4a5b-8904-728111239104" x="425.29" y="229.57" width="133.55" height="25.02"/><circle class="042dcf94-214a-403d-b2bf-ff2c30076398" cx="530.01" cy="194.49" r="52.68"/><path class="9c1ad4fa-a5d1-4a5b-8904-728111239104" d="M450.85,254.59H433.27c-2.38,0-4.62-2.11-6.58-5.22a7.9,7.9,0,0,0-1.4,4.35c0,11.74,29.9,21.26,66.78,21.26l2.83,0V260.1C477.6,260,462,257.92,450.85,254.59Z"/><path class="9c1ad4fa-a5d1-4a5b-8904-728111239104" d="M541.32,254.57c-11.43,3.41-27.48,5.54-45.28,5.54H494.9V275c35.57-.47,63.95-9.8,63.95-21.23a9.06,9.06,0,0,0-2.91-6.21,22.41,22.41,0,0,1-4.44,3A17.81,17.81,0,0,1,541.32,254.57Z"/><path class="9c1ad4fa-a5d1-4a5b-8904-728111239104" d="M433.46,243.53a5.42,5.42,0,0,1-.22-1.45c0-9.58,26-17.41,58.88-18v-37A27.8,27.8,0,0,1,494.9,175V118.88h0a75.52,75.52,0,0,0-75.29,75.29V226.1c0,5.14.61,12.27,4.83,19C425.79,243,430.36,245.34,433.46,243.53Z"/><path class="9c1ad4fa-a5d1-4a5b-8904-728111239104" d="M551.5,250.55a55,55,0,0,1-10.18,4A17.81,17.81,0,0,0,551.5,250.55Z"/><path class="9c1ad4fa-a5d1-4a5b-8904-728111239104" d="M433.27,254.59h17.58c-9.8-2.92-16.2-6.78-17.39-11.06a19.84,19.84,0,0,0-6.77,5.84C428.65,252.49,430.89,254.59,433.27,254.59Z"/><path class="5411f80a-31be-45c9-92e7-2b0e1bb43a52" d="M520.23,159h0a28.16,28.16,0,0,0-25.33,16,27.8,27.8,0,0,0-2.77,12.06v37l2.77,0H496c32.55,0,59.31,7.11,62.48,16.21a14.71,14.71,0,0,0,.32-3V197.58A38.73,38.73,0,0,0,520.23,159Z"/><path class="6753ddfd-e478-4ca2-82e9-beb6d331e66f" d="M558.78,242.85a43.21,43.21,0,0,1-3.39,4.14c.19.18.38.35.55.53A8.06,8.06,0,0,0,558.78,242.85Z"/><path class="6753ddfd-e478-4ca2-82e9-beb6d331e66f" d="M555.39,247a31.58,31.58,0,0,1-3.89,3.56,22.41,22.41,0,0,0,4.44-3C555.77,247.34,555.58,247.16,555.39,247Z"/><path class="6753ddfd-e478-4ca2-82e9-beb6d331e66f" d="M450.85,254.59c11.17,3.33,26.76,5.42,44,5.51v-5.51Z"/><path class="6753ddfd-e478-4ca2-82e9-beb6d331e66f" d="M558.53,240.27a14.77,14.77,0,0,1-3.27,6.59l.14.13a43.21,43.21,0,0,0,3.39-4.14,5.31,5.31,0,0,0,.07-.76A5.49,5.49,0,0,0,558.53,240.27Z"/><path class="6753ddfd-e478-4ca2-82e9-beb6d331e66f" d="M492.12,232.47v-8.38c-32.86.58-58.88,8.41-58.88,18a5.42,5.42,0,0,0,.22,1.45c11.34-6.59,33.33-11.06,58.61-11.06Z"/><path class="6753ddfd-e478-4ca2-82e9-beb6d331e66f" d="M494.9,252h-2.77V232.47h-.06c-25.28,0-47.27,4.47-58.61,11.06,1.19,4.28,7.59,8.14,17.39,11.06h44Z"/><path class="6753ddfd-e478-4ca2-82e9-beb6d331e66f" d="M494.9,232.49v-8.43l-2.77,0v8.38Z"/><path class="6753ddfd-e478-4ca2-82e9-beb6d331e66f" d="M492.12,232.47V252h2.77V232.49Z"/><path class="6753ddfd-e478-4ca2-82e9-beb6d331e66f" d="M558.53,240.27c-3.17-9.1-29.93-16.21-62.48-16.21H494.9v36H496c17.8,0,33.85-2.13,45.28-5.54a55,55,0,0,0,10.18-4,31.58,31.58,0,0,0,3.89-3.56l-.14-.13A14.77,14.77,0,0,0,558.53,240.27Z"/><path class="854c93d8-cf9b-43b9-9b64-5c995804df81" d="M443.19,377.66l-58.35-28.55-51.66-25.28c-2.09-1-5.59,1.72-5.09,4L340.45,384l14,63.44.26-.21a4.84,4.84,0,0,0,.81,1.57c5.45,6.93,29.74-3.07,54.25-22.34s40-40.51,34.52-47.44a4.84,4.84,0,0,0-1.34-1.15Z"/><path class="ab703a9b-a29c-4c78-9604-aa629adee57f" d="M443.19,377.66l-58.35-28.55-51.66-25.28a3.51,3.51,0,0,0-3.52.76l80.07,101.87c24.52-19.27,40-40.51,34.52-47.44a4.84,4.84,0,0,0-1.34-1.15Z"/><path class="cd12b128-ee27-4866-b655-08fd22fc635b" d="M322.79,315.2h0a1.39,1.39,0,0,1,2.49-1.06h0a1.39,1.39,0,0,0,2.41-.35h0a1.39,1.39,0,0,1,2.68.32h0a1.39,1.39,0,0,0,2.26.91h0a1.39,1.39,0,0,1,2.16,1.62h0a1.39,1.39,0,0,0,1.51,1.92h0a1.39,1.39,0,0,1,1.06,2.49h0a1.39,1.39,0,0,0,.35,2.41h0a1.39,1.39,0,0,1-.32,2.68h0a1.39,1.39,0,0,0-.91,2.26h0a1.39,1.39,0,0,1-1.62,2.16h0a1.39,1.39,0,0,0-1.92,1.51h0a1.39,1.39,0,0,1-2.49,1.06h0a1.39,1.39,0,0,0-2.41.35h0a1.39,1.39,0,0,1-2.68-.32h0a1.39,1.39,0,0,0-2.26-.91h0a1.39,1.39,0,0,1-2.16-1.62h0a1.39,1.39,0,0,0-1.51-1.92h0a1.39,1.39,0,0,1-1.06-2.49h0a1.39,1.39,0,0,0-.35-2.41h0a1.39,1.39,0,0,1,.32-2.68h0a1.39,1.39,0,0,0,.91-2.26h0a1.39,1.39,0,0,1,1.62-2.16h0A1.39,1.39,0,0,0,322.79,315.2Z"/><circle class="042dcf94-214a-403d-b2bf-ff2c30076398" cx="455" cy="209.69" r="46.77"/><path class="19eccf08-9978-4d01-8219-87187e5d3944" d="M490.49,179.25a53.9,53.9,0,0,1-62.91,68.31,46.76,46.76,0,0,0,62.91-68.31Z"/><path class="9c1ad4fa-a5d1-4a5b-8904-728111239104" d="M458.25,233.46a19.93,19.93,0,0,1-19.88-19.88V202.15a19.81,19.81,0,0,1,5.8-14,19.92,19.92,0,0,0-10.93,17.71V217.3a19.93,19.93,0,0,0,19.88,19.88h0a19.81,19.81,0,0,0,14.07-5.88,19.67,19.67,0,0,1-8.94,2.16Z"/><path class="5411f80a-31be-45c9-92e7-2b0e1bb43a52" d="M473,205.87A19.93,19.93,0,0,0,453.12,186h0a19.67,19.67,0,0,0-8.94,2.16,19.81,19.81,0,0,0-5.8,14v11.43a19.93,19.93,0,0,0,19.88,19.88h0a19.67,19.67,0,0,0,8.94-2.16,19.81,19.81,0,0,0,5.8-14Z"/><path class="9c1ad4fa-a5d1-4a5b-8904-728111239104" d="M536.75,203.86A19.93,19.93,0,0,1,516.88,184V172.56a19.81,19.81,0,0,1,5.8-14,19.92,19.92,0,0,0-10.93,17.71V187.7a19.93,19.93,0,0,0,19.88,19.88h0a19.81,19.81,0,0,0,14.07-5.88,19.67,19.67,0,0,1-8.94,2.16Z"/><path class="e53f76bb-23f5-40a0-afee-62ed3e0670f3" d="M522.27,159a19.77,19.77,0,0,0-5.39,13.54V184a19.93,19.93,0,0,0,19.88,19.88h0a19.67,19.67,0,0,0,8.94-2.16,19.81,19.81,0,0,0,5.8-14V176.27c0-.46,0-.91-.07-1.37A38.66,38.66,0,0,0,522.27,159Z"/><path class="6753ddfd-e478-4ca2-82e9-beb6d331e66f" d="M494.9,118.88h0V175a28.16,28.16,0,0,1,25.33-16h0q1,0,2,.06a38.75,38.75,0,0,1,36.58,38.56v39.66a14.71,14.71,0,0,1-.32,3,5.49,5.49,0,0,1,.32,1.82,5.31,5.31,0,0,1-.07.76c6.93-9.58,11.41-23,11.41-32.4V194.18A75.51,75.51,0,0,0,494.9,118.88Z"/><circle class="042dcf94-214a-403d-b2bf-ff2c30076398" cx="317.78" cy="483.9" r="12.89" transform="translate(-160.8 158.16) rotate(-22.47)"/><path class="19eccf08-9978-4d01-8219-87187e5d3944" d="M305.7,488.47c1.88,6.21,9.41,10.45,17,7.34a12.87,12.87,0,0,0,7-16.83c-.15-.35-.31-.69-.48-1,0,0,.56,8.33-8.7,11.83C313.72,492.35,305.7,488.47,305.7,488.47Z"/><path class="aa6d6490-c844-4627-9ca3-a4d60bb44061" d="M652.9,539.66c-7.32,44.43-27.56,111.94-83.43,147l-40.9-123.32L620,515.75C636.65,507.1,656,521.16,652.9,539.66Z"/><path class="aa6d6490-c844-4627-9ca3-a4d60bb44061" d="M348.75,660.4C369,681.07,393.82,697,420.5,705.7c54.05,17.63,135.63,9.37,175.56-45.12,22.58-30.81,34.15-56.4,35.81-94.62.35-8.12.21-29.65-.51-37.76L349.67,432c-7.77-2.65-31.65,43.83-33.54,48.76C292.11,543.26,306.2,616.92,348.75,660.4Z"/><path class="042dcf94-214a-403d-b2bf-ff2c30076398" d="M373.26,397.38c29.66-30.67,71-47.53,113.51-47.95a174.9,174.9,0,0,1,115.61,42.35c26.44,23,40.92,52.21,48,86.19,14.75,71.28-27,151.4-95.94,173.18C483,673.67,411.47,641.68,367,586.44,321,529.18,325,447.28,373.26,397.38Z"/><path class="19eccf08-9978-4d01-8219-87187e5d3944" d="M650.34,475.87c-2.91-14.42-7.66-27.08-14.38-40.63a.24.24,0,0,0-.45.12c.71,9.81-.78,19.84-2,30C623.86,547.2,553.79,605.71,471.93,596A149.28,149.28,0,0,1,340.51,457.46a.48.48,0,0,0-.94-.1A146,146,0,0,0,367,586.43c44.45,55.25,116,87.24,187.37,64.7C623.32,629.36,665.44,550.69,650.34,475.87Z"/><ellipse class="19eccf08-9978-4d01-8219-87187e5d3944" cx="541.46" cy="425.48" rx="20.05" ry="13.74" transform="translate(-128.03 586.7) rotate(-51.7)"/><ellipse class="19eccf08-9978-4d01-8219-87187e5d3944" cx="440.97" cy="526.09" rx="20.05" ry="13.74" transform="translate(-245.41 515.54) rotate(-49.15)"/><path class="333e2214-9cb1-4484-ad55-65b8e325845e" d="M316.56,560.16C324,588,338.4,614.1,357.71,632.73c20.6,19.87,62.38,43.16,89.55,51.52,43,13.24,103.06,11.29,146.68-15.14,5.63-3.41,10.7-6.18,17-13.91,0,0,9.72-10.21,4.64-13.67"/><path class="5f96426b-ad56-49d8-9fef-45437f7b43ad" d="M316.55,561.67a1.51,1.51,0,0,1-1.46-1.12c-7.18-26.72-9.11-54.82-2.9-78a1.51,1.51,0,0,1,2.92.78C309,506,311,533.55,318,559.77a1.51,1.51,0,0,1-1.46,1.9Z"/><circle class="ab703a9b-a29c-4c78-9604-aa629adee57f" cx="504.55" cy="481.03" r="38.73" transform="translate(-145.53 229.31) rotate(-22.47)"/><path class="854c93d8-cf9b-43b9-9b64-5c995804df81" d="M468.26,494.77c5.64,18.67,28.28,31.42,51.1,22.06a38.68,38.68,0,0,0,21-50.58c-.44-1.06-.92-2.08-1.44-3.07,0,0,1.69,25-26.15,35.54C492.34,506.42,468.26,494.77,468.26,494.77Z"/><circle class="d7cc090d-4a32-4281-b61f-69d955e9b7fe" cx="497.75" cy="460.48" r="8.04"/><circle id="ec7ecc37-d8b4-4c91-8b8a-930c4526fca0" data-name="eye1" class="5f96426b-ad56-49d8-9fef-45437f7b43ad" cx="495.05" cy="421.75" r="15.1"/><circle id="926a5806-67e9-44f3-82c3-7b5cd9111737" data-name="eye2" class="5f96426b-ad56-49d8-9fef-45437f7b43ad" cx="444.56" cy="483.62" r="15.1"/><circle class="042dcf94-214a-403d-b2bf-ff2c30076398" cx="592.62" cy="666.61" r="13.12" transform="translate(-209.76 277.05) rotate(-22.47)"/><path class="19eccf08-9978-4d01-8219-87187e5d3944" d="M580.33,671.26c1.91,6.33,9.58,10.64,17.31,7.47a13.11,13.11,0,0,0,7.11-17.14c-.15-.36-.31-.7-.49-1,0,0,.57,8.48-8.86,12C588.49,675.21,580.33,671.26,580.33,671.26Z"/><circle class="042dcf94-214a-403d-b2bf-ff2c30076398" cx="309.53" cy="529.48" r="13.12" transform="translate(-178.84 158.46) rotate(-22.47)"/><path class="19eccf08-9978-4d01-8219-87187e5d3944" d="M297.23,534.14c1.91,6.33,9.58,10.64,17.31,7.47a13.11,13.11,0,0,0,7.11-17.14c-.15-.36-.31-.7-.49-1,0,0,.57,8.48-8.86,12C305.39,538.09,297.23,534.14,297.23,534.14Z"/><circle class="042dcf94-214a-403d-b2bf-ff2c30076398" cx="327.91" cy="585.26" r="13.12" transform="translate(-198.76 169.72) rotate(-22.47)"/><path class="19eccf08-9978-4d01-8219-87187e5d3944" d="M315.62,589.91c1.91,6.33,9.58,10.64,17.31,7.47A13.11,13.11,0,0,0,340,580.25c-.15-.36-.31-.7-.49-1,0,0,.57,8.48-8.86,12C323.78,593.86,315.62,589.91,315.62,589.91Z"/><circle class="042dcf94-214a-403d-b2bf-ff2c30076398" cx="360.18" cy="630.03" r="13.12" transform="translate(-213.42 185.45) rotate(-22.47)"/><path class="19eccf08-9978-4d01-8219-87187e5d3944" d="M347.88,634.69c1.91,6.33,9.58,10.64,17.31,7.47A13.11,13.11,0,0,0,372.3,625c-.15-.36-.31-.7-.49-1,0,0,.57,8.48-8.86,12C356,638.63,347.88,634.69,347.88,634.69Z"/><circle class="042dcf94-214a-403d-b2bf-ff2c30076398" cx="407.05" cy="666.57" r="13.12" transform="matrix(0.92, -0.38, 0.38, 0.92, -223.83, 206.14)"/><path class="19eccf08-9978-4d01-8219-87187e5d3944" d="M394.75,671.23c1.91,6.33,9.58,10.64,17.31,7.47a13.11,13.11,0,0,0,7.11-17.14c-.15-.36-.31-.7-.49-1,0,0,.57,8.48-8.86,12C402.91,675.18,394.75,671.23,394.75,671.23Z"/><circle class="042dcf94-214a-403d-b2bf-ff2c30076398" cx="466.26" cy="686.78" r="13.12" transform="translate(-227.06 230.3) rotate(-22.47)"/><path class="19eccf08-9978-4d01-8219-87187e5d3944" d="M454,691.44c1.91,6.33,9.58,10.64,17.31,7.47a13.11,13.11,0,0,0,7.11-17.14c-.15-.36-.31-.7-.49-1,0,0,.57,8.48-8.86,12C462.13,695.39,454,691.44,454,691.44Z"/><circle class="042dcf94-214a-403d-b2bf-ff2c30076398" cx="529.44" cy="690.32" r="13.12" transform="translate(-223.62 254.71) rotate(-22.47)"/><path class="19eccf08-9978-4d01-8219-87187e5d3944" d="M517.15,695c1.91,6.33,9.58,10.64,17.31,7.47a13.11,13.11,0,0,0,7.11-17.14c-.15-.36-.31-.7-.49-1,0,0,.57,8.48-8.86,12C525.31,698.93,517.15,695,517.15,695Z"/><path class="72780ef6-edba-4bed-b300-064f7d561574" d="M431.05,542.74c82.67,55.72,174-10.66,152.72-90.74-3.44-12.93-11.88-31.16-25-41.37"/><line class="c5b7a8d6-3bbb-4253-88e4-827ec838e4ab" x1="285.11" y1="753.73" x2="201.31" y2="810.31"/><line class="c5b7a8d6-3bbb-4253-88e4-827ec838e4ab" x1="288.58" y1="764.61" x2="204.78" y2="821.19"/><line class="c5b7a8d6-3bbb-4253-88e4-827ec838e4ab" x1="297.4" y1="777.68" x2="213.6" y2="834.26"/><line class="c5b7a8d6-3bbb-4253-88e4-827ec838e4ab" x1="306.23" y1="790.75" x2="222.43" y2="847.33"/><line class="c5b7a8d6-3bbb-4253-88e4-827ec838e4ab" x1="317.33" y1="801.46" x2="233.53" y2="858.04"/><g id="e6c31cc4-46fd-4ecb-8f6a-f4ae1a8bf416" data-name="bell"><path class="fc4cd1bd-ec47-49dd-b38d-334b94973d62" d="M251.27,533.06v76.17A29.79,29.79,0,0,1,221.48,639h0a29.79,29.79,0,0,1-23.18-11.08l-26.09-32.42h0A10.26,10.26,0,0,0,170.63,610l19.21,23.8a40.94,40.94,0,0,0,31.29,15.49,40.09,40.09,0,0,0,40.4-40V533.06Z"/><path class="939490b3-2301-48d8-a5ca-d4d6ac7ab5b4" d="M241,533h0s0,.05,0,.08v76.17a19.53,19.53,0,0,1-34.73,12.27l-19.7-24.4a10.26,10.26,0,0,0-14.37-1.58l26.09,32.42A29.79,29.79,0,0,0,221.48,639h0a29.79,29.79,0,0,0,29.79-29.79V542.78a10.18,10.18,0,0,1-7.55-9.1l-2.69-1C241,532.76,241,532.87,241,533Z"/><g id="26bfb16a-50ab-4cae-a6d5-0bb4800cb5aa" data-name="bell_inner"><circle class="5411f80a-31be-45c9-92e7-2b0e1bb43a52" cx="165.99" cy="588.76" r="19.42" transform="translate(-361.04 278.22) rotate(-43.75)"/><path class="9c1ad4fa-a5d1-4a5b-8904-728111239104" d="M151.53,601.79c6,7.7,18.94,9.53,27.89,1a19.4,19.4,0,0,0,.6-27.46c-.4-.41-.81-.8-1.23-1.17,0,0,5.34,11.38-5.75,21.37C164.91,602.85,151.53,601.79,151.53,601.79Z"/><path class="19eccf08-9978-4d01-8219-87187e5d3944" d="M116.41,521.54l-.22.15c-22.91,15.51-46.16,24-61,23.31a281.32,281.32,0,0,1,27.86,31l.24.32-.24-.32.24.32.12.16a58.29,58.29,0,0,0,79,12.84c.55-.37,1.06-.77,1.59-1.16Z"/><path class="042dcf94-214a-403d-b2bf-ff2c30076398" d="M116.41,521.54,164,588.17a58.19,58.19,0,0,0,16.2-76.32l.06.1.09-.06a281.53,281.53,0,0,1-19.69-38.78C156.1,487.11,139.56,505.82,116.41,521.54Zm63.51-10.22c-.6-1-1.22-2-1.88-3C178.7,509.32,179.32,510.32,179.92,511.32Z"/><path class="9c1ad4fa-a5d1-4a5b-8904-728111239104" d="M109.23,511.5c-19.15,13-38,20.45-48.28,19.95A14.38,14.38,0,0,1,58,531,6.71,6.71,0,0,1,54,528.44c-5.2-7.68,10.68-27.52,35.54-44.54l-5.07-7.09c-32.14,22-51.31,49.77-42.88,62.22,2.55,3.77,7.34,5.69,13.67,6,14.8.65,38.05-7.79,61-23.31l.22-.15Z"/><path class="5411f80a-31be-45c9-92e7-2b0e1bb43a52" d="M160,458.83c-8.51-12.57-41.93-4.81-74.63,17.33l-.93.65,5.07,7.09.75-.52c25.29-17.13,50.06-24.72,55.31-17a6.71,6.71,0,0,1,.89,4.72,14.4,14.4,0,0,1-.69,2.89c-3.36,9.75-17.32,24.47-36.49,37.45l0,0,7.18,10c23.15-15.72,39.69-34.43,44.28-48.45C162.56,467.39,162.46,462.46,160,458.83Z"/><path class="19eccf08-9978-4d01-8219-87187e5d3944" d="M89.5,483.91c-24.86,17-40.74,36.86-35.54,44.54A6.71,6.71,0,0,0,58,531a14.38,14.38,0,0,0,2.93.43A25.27,25.27,0,0,1,62.49,528c5-9.48,17.69-22.21,34.47-33.65Z"/><path class="042dcf94-214a-403d-b2bf-ff2c30076398" d="M145.56,466.42c-5.25-7.76-30-.16-55.31,17l-.75.52L97,494.34l.48-.33c17-11.53,33.78-18.71,44.53-19.83a25.27,25.27,0,0,1,3.78-.14,14.4,14.4,0,0,0,.69-2.89A6.71,6.71,0,0,0,145.56,466.42Z"/><path class="6753ddfd-e478-4ca2-82e9-beb6d331e66f" d="M101.93,501.29l-5-7C80.18,505.78,67.48,518.51,62.49,528A25.27,25.27,0,0,0,61,531.45c10.29.5,29.12-7,48.28-19.95Z"/><path class="9c1ad4fa-a5d1-4a5b-8904-728111239104" d="M142,474.17c-10.75,1.12-27.51,8.31-44.53,19.83l-.48.33,5,7,7.3,10.21,0,0c19.17-13,33.13-27.7,36.49-37.45A25.27,25.27,0,0,0,142,474.17Z"/></g></g><line class="c5b7a8d6-3bbb-4253-88e4-827ec838e4ab" x1="217.4" y1="728.5" x2="312.38" y2="823.48"/><line class="c5b7a8d6-3bbb-4253-88e4-827ec838e4ab" x1="204.73" y1="741.64" x2="299.71" y2="836.62"/><line class="c5b7a8d6-3bbb-4253-88e4-827ec838e4ab" x1="192.06" y1="754.77" x2="287.04" y2="849.75"/><line class="c5b7a8d6-3bbb-4253-88e4-827ec838e4ab" x1="179.39" y1="767.91" x2="274.37" y2="862.89"/><line class="c5b7a8d6-3bbb-4253-88e4-827ec838e4ab" x1="255.45" y1="729.89" x2="178.31" y2="781.98"/><line class="c5b7a8d6-3bbb-4253-88e4-827ec838e4ab" x1="270.93" y1="738.47" x2="187.13" y2="795.05"/><g id="9bc088a0-3bb3-4ff8-a4ff-2aec13a01ba9" data-name="horse"><rect class="9c1ad4fa-a5d1-4a5b-8904-728111239104" x="261.21" y="208.05" width="50.47" height="36.3" rx="13.16" ry="13.16" transform="matrix(0.96, -0.28, 0.28, 0.96, -52.48, 90.75)"/><path class="9c1ad4fa-a5d1-4a5b-8904-728111239104" d="M212.59,346.54c-4.39-4.07-12.74-7.59-22.67-9.07s-18.95-.53-24.33,2.09l-4.19-.62-.92,6.21c-1,6.51,10.65,13.63,25.94,15.9s28.47-1.16,29.44-7.67l.92-6.21Z"/><ellipse class="19eccf08-9978-4d01-8219-87187e5d3944" cx="189.09" cy="343.05" rx="11.92" ry="27.99" transform="translate(-178.02 479.68) rotate(-81.55)"/><rect class="5411f80a-31be-45c9-92e7-2b0e1bb43a52" x="260.33" y="207.52" width="50.47" height="31.39" rx="12.24" ry="12.24" transform="translate(-51.67 90.38) rotate(-16.51)"/><path class="5411f80a-31be-45c9-92e7-2b0e1bb43a52" d="M208.35,338.92c-.64-10-3.3-29.77-4.75-30l-16.71-2.5-13.5,27.22c-1.27,2.56-4.45,6.06-.75,9s28.67,8.35,32.89,5.9a6.5,6.5,0,0,0,2.85-4.31A27.25,27.25,0,0,0,208.35,338.92Z"/><path class="042dcf94-214a-403d-b2bf-ff2c30076398" d="M248,203.24a31,31,0,0,0-21.2,12.24,26.51,26.51,0,0,0-4.89,17.6,43.75,43.75,0,0,1-31.22,44.65q-.78.23-1.56.43a26.79,26.79,0,0,0-17.61,13.66,31,31,0,0,0-2.89,18.6,31.39,31.39,0,0,0,.92,4.1c5.65,19.07,23.09,23,40.75,20.3a87.36,87.36,0,0,0,71.81-107.11c-.27-1.1-.58-2.21-.89-3.31A31.09,31.09,0,0,0,248,203.24Z"/><path class="19eccf08-9978-4d01-8219-87187e5d3944" d="M258.64,203.8a34.77,34.77,0,0,1,8.66,13.72c.31,1.1.62,2.21.89,3.31a86.19,86.19,0,0,1-59.62,103.63,88.14,88.14,0,0,1-11.69,2.6,52.42,52.42,0,0,1-19.76-.34c8.16,8.36,20.9,9.92,33.77,7.94a87.36,87.36,0,0,0,71.81-107.11c-.27-1.1-.58-2.21-.89-3.31C278.34,213.68,272.91,206.77,258.64,203.8Z"/><path class="042dcf94-214a-403d-b2bf-ff2c30076398" d="M116.79,268.77l-7.55-4.35c.77-1.33,19.28-32.54,62.37-28.75l-.76,8.68C133.23,241,117,268.49,116.79,268.77Z"/><path class="042dcf94-214a-403d-b2bf-ff2c30076398" d="M176.15,228.93a5.46,5.46,0,0,0-6.47,4.18l-5.84,27.14a5.44,5.44,0,0,0,3.79,6.34l9.18-37.44A5.37,5.37,0,0,0,176.15,228.93Z"/><path class="19eccf08-9978-4d01-8219-87187e5d3944" d="M176.82,229.15l-9.18,37.44c.13,0,.25.1.38.12h0a5.46,5.46,0,0,0,6.47-4.18l5.84-27.14A5.44,5.44,0,0,0,176.82,229.15Z"/><path class="042dcf94-214a-403d-b2bf-ff2c30076398" d="M101.35,260.63a5.46,5.46,0,0,0,2.24,7.37l24.49,13.07a5.44,5.44,0,0,0,7.14-1.9L101.75,260A5.37,5.37,0,0,0,101.35,260.63Z"/><path class="19eccf08-9978-4d01-8219-87187e5d3944" d="M101.75,260l33.48,19.12c.07-.11.16-.21.22-.33h0a5.46,5.46,0,0,0-2.24-7.37l-24.49-13.07A5.44,5.44,0,0,0,101.75,260Z"/><circle class="042dcf94-214a-403d-b2bf-ff2c30076398" cx="99.5" cy="259.89" r="10.26" transform="translate(-88.31 54.53) rotate(-21.49)"/><circle class="042dcf94-214a-403d-b2bf-ff2c30076398" cx="177.21" cy="227.97" r="10.26" transform="translate(-104.44 164.33) rotate(-39.41)"/><path class="19eccf08-9978-4d01-8219-87187e5d3944" d="M185.82,221.55a10.26,10.26,0,0,0-12.14-2.83,10.24,10.24,0,0,1,1.14,19.14,10.26,10.26,0,0,0,11-16.3Z"/><path class="19eccf08-9978-4d01-8219-87187e5d3944" d="M94,251.44a10.26,10.26,0,0,0-4.18,11.75,10.24,10.24,0,0,1,19.15,1,10.26,10.26,0,0,0-15-12.76Z"/><circle class="19eccf08-9978-4d01-8219-87187e5d3944" cx="234.84" cy="205.93" r="5.22" transform="translate(-48.85 75.25) rotate(-16.51)"/><circle class="042dcf94-214a-403d-b2bf-ff2c30076398" cx="157.33" cy="289.66" r="35.54" transform="translate(-148.12 165.75) rotate(-39.41)"/><path class="19eccf08-9978-4d01-8219-87187e5d3944" d="M185.9,267.16a35.37,35.37,0,0,0-18.4-11.8,35.53,35.53,0,0,1-24.88,66.18,35.54,35.54,0,0,0,43.28-54.38Z"/><rect class="6753ddfd-e478-4ca2-82e9-beb6d331e66f" x="147.25" y="273.64" width="5.91" height="10.5" rx="2.3" ry="2.3" transform="translate(25.69 -12.38) rotate(5.16)"/><rect class="6753ddfd-e478-4ca2-82e9-beb6d331e66f" x="134.29" y="280.71" width="5.91" height="10.5" rx="2.3" ry="2.3" transform="translate(26.27 -11.18) rotate(5.16)"/><circle class="6753ddfd-e478-4ca2-82e9-beb6d331e66f" cx="146.31" cy="292.38" r="3.49" transform="translate(-77.07 53.65) rotate(-16.51)"/><path class="6753ddfd-e478-4ca2-82e9-beb6d331e66f" d="M142.37,303.27l17.25-9.74s1.8,6.66-6.15,10.72S142.37,303.27,142.37,303.27Z"/><circle class="5411f80a-31be-45c9-92e7-2b0e1bb43a52" cx="213.82" cy="282.06" r="9.39" transform="translate(-71.36 72.41) rotate(-16.51)"/><circle class="5411f80a-31be-45c9-92e7-2b0e1bb43a52" cx="230.35" cy="266.49" r="9.39" transform="translate(-66.25 76.47) rotate(-16.51)"/><circle class="5411f80a-31be-45c9-92e7-2b0e1bb43a52" cx="239.24" cy="245.36" r="9.39" transform="translate(-59.88 78.12) rotate(-16.51)"/><circle class="cd12b128-ee27-4866-b655-08fd22fc635b" cx="97.26" cy="263.36" r="1.97" transform="translate(-70.85 38.51) rotate(-16.51)"/><circle class="cd12b128-ee27-4866-b655-08fd22fc635b" cx="172.93" cy="231.48" r="1.97" transform="translate(-58.66 58.71) rotate(-16.51)"/></g><g id="d75f1692-8185-4f40-9604-9be34a8ba4a6" data-name="baby2"><path class="042dcf94-214a-403d-b2bf-ff2c30076398" d="M777.74,253.93H663v3.68a13.15,13.15,0,0,1,2.58-.26c7.78,0,14.09,6.81,14.09,15.22s-6.31,15.22-14.09,15.22a13.13,13.13,0,0,1-2.58-.26v17a13.38,13.38,0,0,1,8.66-3.22c7.78,0,14.09,6.81,14.09,15.22,0,7.67-5.25,14-12.08,15.06a31.89,31.89,0,0,0,21.49,8.31H750.8a16.2,16.2,0,0,1-1.19-6.12c0-8.41,6.31-15.22,14.09-15.22s14.09,6.81,14.09,15.22a16.21,16.21,0,0,1-1.19,6.12h1.13v-.37c1.42-.16,2.83-.39,4.22-.66v-85Z"/><path class="19eccf08-9978-4d01-8219-87187e5d3944" d="M807.63,253.93H782v85a55.79,55.79,0,0,0,21.93-9.45c-6-1.77-10.34-7.67-10.34-14.67,0-8.41,6.31-15.22,14.09-15.22,6.19,0,11.45,4.32,13.34,10.32a56.9,56.9,0,0,0,6.62-26.74V253.93Z"/><path class="5411f80a-31be-45c9-92e7-2b0e1bb43a52" d="M679.67,272.57c0-8.41-6.31-15.22-14.09-15.22a13.15,13.15,0,0,0-2.58.26v29.92a13.13,13.13,0,0,0,2.58.26C673.37,287.79,679.67,281,679.67,272.57Z"/><ellipse class="5411f80a-31be-45c9-92e7-2b0e1bb43a52" cx="716.91" cy="312.16" rx="14.09" ry="15.22"/><path class="5411f80a-31be-45c9-92e7-2b0e1bb43a52" d="M721.43,271.89c0,8.41,6.31,15.22,14.09,15.22a13.52,13.52,0,0,0,9.78-4.27v-21.9a13.52,13.52,0,0,0-9.78-4.27C727.74,256.67,721.43,263.48,721.43,271.89Z"/><path class="5411f80a-31be-45c9-92e7-2b0e1bb43a52" d="M749.61,271.89a15.78,15.78,0,0,0-4.31-11v21.9A15.78,15.78,0,0,0,749.61,271.89Z"/><ellipse class="5411f80a-31be-45c9-92e7-2b0e1bb43a52" cx="694.28" cy="284.37" rx="6.41" ry="6.93"/><path class="5411f80a-31be-45c9-92e7-2b0e1bb43a52" d="M738.12,303.87a6.69,6.69,0,0,0,6.41,6.93,6,6,0,0,0,.77-.05V297a6,6,0,0,0-.77-.05A6.69,6.69,0,0,0,738.12,303.87Z"/><path class="5411f80a-31be-45c9-92e7-2b0e1bb43a52" d="M750.95,303.87A6.76,6.76,0,0,0,745.3,297v13.75A6.76,6.76,0,0,0,750.95,303.87Z"/><path class="5411f80a-31be-45c9-92e7-2b0e1bb43a52" d="M763.7,318.61c-7.78,0-14.09,6.81-14.09,15.22a16.21,16.21,0,0,0,1.19,6.12H776.6a16.21,16.21,0,0,0,1.19-6.12C777.79,325.42,771.48,318.61,763.7,318.61Z"/><ellipse class="5411f80a-31be-45c9-92e7-2b0e1bb43a52" cx="779.77" cy="293.24" rx="14.09" ry="15.22"/><ellipse class="5411f80a-31be-45c9-92e7-2b0e1bb43a52" cx="807.63" cy="269.15" rx="14.09" ry="15.22"/><path class="5411f80a-31be-45c9-92e7-2b0e1bb43a52" d="M807.63,299.57c-7.78,0-14.09,6.81-14.09,15.22,0,7,4.38,12.9,10.34,14.67A56.9,56.9,0,0,0,821,309.9C819.09,303.89,813.83,299.57,807.63,299.57Z"/><path class="5411f80a-31be-45c9-92e7-2b0e1bb43a52" d="M685.75,316.57c0-8.41-6.31-15.22-14.09-15.22a13.38,13.38,0,0,0-8.66,3.22v2.95a32.46,32.46,0,0,0,10.67,24.12C680.5,330.58,685.75,324.24,685.75,316.57Z"/><path class="9c1ad4fa-a5d1-4a5b-8904-728111239104" d="M833.26,241.68a6.1,6.1,0,0,0-5.86-6.33h-5.46a6.1,6.1,0,0,0-5.86,6.33v11.94H654.24v9.18a5.69,5.69,0,0,0,5.46,5.9H814.55s12.51,1.68,17.22-10.36a12.91,12.91,0,0,0,1.49-6Z"/><path class="9c1ad4fa-a5d1-4a5b-8904-728111239104" d="M803.45,225.68h-64c-16.45,0-29.86-2-43.44,5.14h3.5v11.55H681.46v11.24h122a20.33,20.33,0,0,0,9.74-2.42C827.27,243.46,820.48,225.68,803.45,225.68Z"/><path class="9c1ad4fa-a5d1-4a5b-8904-728111239104" d="M681.46,242.37h18.09V230.82H696l-.81.43Z"/><rect class="5411f80a-31be-45c9-92e7-2b0e1bb43a52" x="680.68" y="230.82" width="15.36" height="23.11"/><path class="042dcf94-214a-403d-b2bf-ff2c30076398" d="M812,216.7H733.42c-18.59,0-36.69,0-52.65,14.12H696c13.59-7.11,27-5.14,43.44-5.14h64c17,0,23.82,17.78,9.74,25.51h0a20.33,20.33,0,0,1-9.74,2.42h-123c-5.31,0-7.43-5.55-3-8l4.07-3.28H667.57a2.13,2.13,0,0,0-1.26.42l-9.15,6.73c-5.4,4-2.8,13.08,3.73,13.08H812a20.16,20.16,0,0,0,12-4h0C841.23,245.91,832.89,216.7,812,216.7Z"/><path class="9c1ad4fa-a5d1-4a5b-8904-728111239104" d="M677.39,245.66c-4.39,2.41-2.28,8,3,8h1V242.37Z"/><path class="19eccf08-9978-4d01-8219-87187e5d3944" d="M799.38,207.77c-.1-.14-.22-.28-.36-.44a5.57,5.57,0,0,1,1.85-1.07h-3.33a8.28,8.28,0,0,0-5.43,0h-8.48l-29.71,51.19H761a5.61,5.61,0,0,0,3.33-1.1,50.14,50.14,0,0,0,13.09-14.79c3.12-5.27,8.93-18.12,15.18-26.32a16,16,0,0,1,4.4-4l.18-.1c.63-.32,2.74-1.27,3,.1l.73-1.11-.89-2.25Z"/><path class="19eccf08-9978-4d01-8219-87187e5d3944" d="M791.74,186S812,181.61,812,203.69c0,12.24-5.65,18.76-5.65,18.76l-2.92,1.74-3.53-22Z"/><path class="042dcf94-214a-403d-b2bf-ff2c30076398" d="M726.37,259.38a.89.89,0,0,1-.35-1.66c7.51-4,25.76-16,38-42.19,17.23-36.77,38.47-33,43.78-23.76,8.28,14.49-4.36,32.41-4.36,32.41H793.29a.57.57,0,0,1-.36-.95c2.57-2.87,9.74-11.4,6.4-13.84-4-2.94-14.65,12.81-21,24.08-5.87,10.36-11.27,19.59-19.75,25.89Z"/><path class="19eccf08-9978-4d01-8219-87187e5d3944" d="M794,211.35s7-7.6,8.83-7.82"/></g><path class="e9b70a50-21de-4a94-90af-60ec417a5150" d="M878.26,522h0a5.73,5.73,0,0,0-1.71-8.73L876,513v11.21A16.62,16.62,0,0,0,878.26,522Z"/><path class="e9b70a50-21de-4a94-90af-60ec417a5150" d="M878.26,522h0a5.73,5.73,0,0,0-1.71-8.73L876,513v10.43A15,15,0,0,1,865.48,528a16.95,16.95,0,0,0,12.78-6Z"/><path class="5411f80a-31be-45c9-92e7-2b0e1bb43a52" d="M912.14,564.58c0-.45,0-.9,0-1.36a16.45,16.45,0,0,0-16.45-16.45C904.61,546.76,911.83,554.68,912.14,564.58Z"/><path class="5411f80a-31be-45c9-92e7-2b0e1bb43a52" d="M876,480.26s0,0,0,0,0,.09,0,.13Z"/><path class="5411f80a-31be-45c9-92e7-2b0e1bb43a52" d="M876,522.73c-3,3.38-6.66,5.29-10.54,5.29A15,15,0,0,0,876,523.45Z"/><path class="5411f80a-31be-45c9-92e7-2b0e1bb43a52" d="M876,493.89v-1.35l-.13-.07A8,8,0,0,1,876,493.89Z"/><g id="436c48e9-6cf6-4877-9aa9-a62d46fbdb70" data-name="baby3"><rect class="19eccf08-9978-4d01-8219-87187e5d3944" x="653.87" y="758.23" width="8.05" height="24.76" rx="2.84" ry="2.84" transform="translate(-345.9 632.52) rotate(-41.68)"/><rect class="496c973b-a19e-4a40-be38-6256cb37df1e" x="702.18" y="715.22" width="8.05" height="24.76" rx="2.84" ry="2.84" transform="translate(-305.07 653.76) rotate(-41.68)"/><rect class="6753ddfd-e478-4ca2-82e9-beb6d331e66f" x="792.68" y="746.62" width="11.14" height="30.95" rx="4.34" ry="4.34" transform="translate(-304.71 723.7) rotate(-41.68)"/><rect class="496c973b-a19e-4a40-be38-6256cb37df1e" x="800.48" y="801.18" width="5.57" height="15.47" rx="2.17" ry="2.17" transform="translate(-334.57 738.88) rotate(-41.68)"/><rect class="19eccf08-9978-4d01-8219-87187e5d3944" x="730.09" y="863.85" width="5.57" height="15.47" rx="2.17" ry="2.17" transform="translate(-394.06 707.93) rotate(-41.68)"/><rect class="9c1ad4fa-a5d1-4a5b-8904-728111239104" x="680.33" y="846.65" width="11.14" height="30.95" rx="4.34" ry="4.34" transform="translate(-399.66 674.31) rotate(-41.68)"/><path class="042dcf94-214a-403d-b2bf-ff2c30076398" d="M759.41,832.51a35.86,35.86,0,0,1-7.27,4.87l5.64,6.34,6.47-5.76Z"/><path class="19eccf08-9978-4d01-8219-87187e5d3944" d="M759.41,832.51l4.85,5.44,6.47-5.76-5.44-6.11a36.17,36.17,0,0,1-5.41,6Z"/><path class="9c1ad4fa-a5d1-4a5b-8904-728111239104" d="M756,828.7l-8.23-9.25-20.48,18.23c6.75,4.21,16.2,4,24.83-.31l-2.59-2.91Z"/><path class="6753ddfd-e478-4ca2-82e9-beb6d331e66f" d="M756,828.7l6.47-5.76,2.8,3.14c5.91-8.3,7.45-18.17,3.9-25.68l-21.4,19.06Z"/><path class="6753ddfd-e478-4ca2-82e9-beb6d331e66f" d="M756,828.7l3.39,3.8.47-.4a36.17,36.17,0,0,0,5.41-6l-2.8-3.14Z"/><path class="9c1ad4fa-a5d1-4a5b-8904-728111239104" d="M756,828.7l-6.47,5.76,2.59,2.91a35.86,35.86,0,0,0,7.27-4.87Z"/><rect class="6753ddfd-e478-4ca2-82e9-beb6d331e66f" x="731.72" y="795.19" width="16.4" height="6.19" transform="translate(-343.54 694.07) rotate(-41.68)"/><rect class="9c1ad4fa-a5d1-4a5b-8904-728111239104" x="720.55" y="805.69" width="15.17" height="6.19" transform="translate(-353.5 688.89) rotate(-41.68)"/><path class="9c1ad4fa-a5d1-4a5b-8904-728111239104" d="M708.81,816.87a31.11,31.11,0,0,1-42.64-1.2c.38.48.78,1,1.19,1.43a31.11,31.11,0,0,0,43.92,2.55l9.13-8.13-2.47-2.77Z"/><path class="6753ddfd-e478-4ca2-82e9-beb6d331e66f" d="M749.73,780.44l-8.21,7.31,2.47,2.77,8.21-7.31a31.11,31.11,0,0,0,2.55-43.92c-.41-.47-.84-.91-1.28-1.35A31.11,31.11,0,0,1,749.73,780.44Z"/><rect class="9c1ad4fa-a5d1-4a5b-8904-728111239104" x="717.26" y="803.23" width="15.17" height="3.71" transform="translate(-351.87 685.76) rotate(-41.68)"/><rect class="6753ddfd-e478-4ca2-82e9-beb6d331e66f" x="728.43" y="792.73" width="16.4" height="3.71" transform="translate(-341.91 690.94) rotate(-41.68)"/><path class="042dcf94-214a-403d-b2bf-ff2c30076398" d="M633,765a9,9,0,0,0,11.94,13.41l37-32.93L670,732.07Z"/><path class="19eccf08-9978-4d01-8219-87187e5d3944" d="M719.65,699.88a9,9,0,0,0-12.67-.74l-37,32.93,11.94,13.41,37-32.93A9,9,0,0,0,719.65,699.88Z"/><path class="5411f80a-31be-45c9-92e7-2b0e1bb43a52" d="M669.91,773.17,690.37,755l-2.47-2.77L667.44,770.4a31.11,31.11,0,0,0-2.55,43.92h0c.41.47.84.91,1.28,1.35A31.11,31.11,0,0,1,669.91,773.17Z"/><path class="9c1ad4fa-a5d1-4a5b-8904-728111239104" d="M710.83,736.75a31.11,31.11,0,0,1,42.64,1.2c-.38-.48-.78-1-1.19-1.43h0A31.11,31.11,0,0,0,708.36,734L687.9,752.19l2.47,2.77Z"/><path class="9c1ad4fa-a5d1-4a5b-8904-728111239104" d="M710.83,736.75,690.37,755l25.93,29.13,12.25-10.91,13,14.57,8.21-7.31a29.3,29.3,0,1,0-38.9-43.69Z"/><path class="5411f80a-31be-45c9-92e7-2b0e1bb43a52" d="M708.81,816.87l9.13-8.13-13-14.57,11.33-10.08L690.37,755l-20.46,18.21a29.3,29.3,0,1,0,38.9,43.69Z"/><rect class="9c1ad4fa-a5d1-4a5b-8904-728111239104" x="720.71" y="776.16" width="16.4" height="19.5" transform="translate(-338.1 683.62) rotate(-41.68)"/><rect class="5411f80a-31be-45c9-92e7-2b0e1bb43a52" x="709.54" y="786.66" width="15.17" height="19.5" transform="translate(-348.06 678.43) rotate(-41.68)"/><path class="9c1ad4fa-a5d1-4a5b-8904-728111239104" d="M787.87,759.74l-39.76,35.4,4.94,5.55L740.79,811.6l3.6,4,22-19.55a18,18,0,0,1,2.84,4.31l30.61-27.25a9,9,0,0,0-11.94-13.41Z"/><path class="5411f80a-31be-45c9-92e7-2b0e1bb43a52" d="M744.4,815.64l-3.6-4-11.33,10.08-4.94-5.55-39.76,35.4a9,9,0,0,0,11.94,13.41l30.61-27.25a18,18,0,0,1-4-3.32Z"/><path class="9c1ad4fa-a5d1-4a5b-8904-728111239104" d="M744.4,815.64l3.4,3.81,21.4-19.06a18,18,0,0,0-2.84-4.31Z"/><path class="5411f80a-31be-45c9-92e7-2b0e1bb43a52" d="M744.4,815.64l-21,18.73a18,18,0,0,0,4,3.32l20.48-18.23Z"/><rect class="9c1ad4fa-a5d1-4a5b-8904-728111239104" x="736.25" y="799.65" width="16.4" height="7.43" transform="translate(-345.77 698.37) rotate(-41.68)"/><rect class="5411f80a-31be-45c9-92e7-2b0e1bb43a52" x="725.08" y="810.15" width="15.17" height="7.43" transform="translate(-355.73 693.18) rotate(-41.68)"/><path class="19eccf08-9978-4d01-8219-87187e5d3944" d="M769.92,844.31l33-29.38a4.27,4.27,0,0,0,.35-6h0a4.27,4.27,0,0,0-6-.35l-26.53,23.62L764.26,838Z"/><path class="042dcf94-214a-403d-b2bf-ff2c30076398" d="M757.78,843.71l-24.56,21.87a4.27,4.27,0,0,0-.35,6h0a4.27,4.27,0,0,0,6,.35l31-27.63L764.26,838Z"/><circle class="042dcf94-214a-403d-b2bf-ff2c30076398" cx="672.65" cy="788.35" r="3.25" transform="translate(-353.96 646.82) rotate(-41.68)"/><circle class="042dcf94-214a-403d-b2bf-ff2c30076398" cx="689.83" cy="807.65" r="3.25" transform="translate(-362.44 663.13) rotate(-41.68)"/><circle class="042dcf94-214a-403d-b2bf-ff2c30076398" cx="724.55" cy="742.14" r="3.25" transform="translate(-310.1 669.64) rotate(-41.68)"/><circle class="042dcf94-214a-403d-b2bf-ff2c30076398" cx="741.73" cy="761.45" r="3.25" transform="translate(-318.58 685.95) rotate(-41.68)"/></g><path class="e9b70a50-21de-4a94-90af-60ec417a5150" d="M790.3,513.31a5.73,5.73,0,0,0-1.7,8.73,16.61,16.61,0,0,0,3.06,2.82V512.58Z"/><path class="6753ddfd-e478-4ca2-82e9-beb6d331e66f" d="M899.92,573.21s-4.72,26.11-35,29.8"/><path class="5411f80a-31be-45c9-92e7-2b0e1bb43a52" d="M772,546.76a16.45,16.45,0,0,0-16.45,16.45c0,.46,0,.91,0,1.36C755.85,554.68,763.07,546.76,772,546.76Z"/><g id="fac134f7-ad93-4bd2-ac50-9e861e1b7b4f" data-name="baby"><line class="7bf37b52-c233-448f-aa52-a0684056c98f" x1="809.43" y1="427.83" x2="809.43" y2="500.25"/><line class="7bf37b52-c233-448f-aa52-a0684056c98f" x1="855.25" y1="427.83" x2="855.25" y2="500.25"/><path class="6753ddfd-e478-4ca2-82e9-beb6d331e66f" d="M868,477.13h4.92a3.13,3.13,0,0,1,3.13,3.09,15.64,15.64,0,0,0-.13-1.86c-.68-5.25-4-9.26-7.92-9.26H834.49v8Z"/><path class="9c1ad4fa-a5d1-4a5b-8904-728111239104" d="M822.62,610.09l-7,3.15a28.81,28.81,0,0,1-17.52,2.11,53.19,53.19,0,0,1-42.61-50.77c0,.23,0,.45,0,.67,0,28.95,18.32,53.08,42.64,58.58a25.94,25.94,0,0,0,17.52-2.37l7-3.54a24.65,24.65,0,0,1,11.87-2.7v-7.53A27.2,27.2,0,0,0,822.62,610.09Z"/><path class="6753ddfd-e478-4ca2-82e9-beb6d331e66f" d="M869.54,615.35A28.81,28.81,0,0,1,852,613.24l-7-3.15a27.2,27.2,0,0,0-10.57-2.4v7.53a24.73,24.73,0,0,1,10.57,2.7l7,3.54a25.94,25.94,0,0,0,17.52,2.37c24.32-5.5,42.64-29.63,42.64-58.58,0-.23,0-.45,0-.67A53.19,53.19,0,0,1,869.54,615.35Z"/><path class="9c1ad4fa-a5d1-4a5b-8904-728111239104" d="M863.33,566.48H848.88a3.66,3.66,0,0,0-3.66,3.66v25.08a7.78,7.78,0,0,1-7.78,7.78h-3v4.68a27.2,27.2,0,0,1,10.57,2.4l7,3.15a28.81,28.81,0,0,0,17.52,2.11,53.19,53.19,0,0,0,42.61-50.77c-.32-9.9-7.54-17.81-16.42-17.81H884.64A21.38,21.38,0,0,1,863.33,566.48Z"/><path class="5411f80a-31be-45c9-92e7-2b0e1bb43a52" d="M798.14,615.35a28.81,28.81,0,0,0,17.52-2.11l7-3.15a27.2,27.2,0,0,1,11.87-2.4V603h-5.59a7.78,7.78,0,0,1-7.78-7.78V570.15a3.66,3.66,0,0,0-3.66-3.66H805.68a21.38,21.38,0,0,1-21.31-19.72H772c-8.89,0-16.11,7.92-16.42,17.81A53.19,53.19,0,0,0,798.14,615.35Z"/><path class="19eccf08-9978-4d01-8219-87187e5d3944" d="M876,502.57V513l.54.29a5.73,5.73,0,0,1,1.71,8.73h0a16.95,16.95,0,0,1-12.78,6h-31v18.75h50.15c0-.55.08-1.11.08-1.67v-2.58l7.42-8.89a23.74,23.74,0,0,0,4.52-22.12,24.43,24.43,0,0,0-12.08-14.4L876,492.54v10Z"/><path class="042dcf94-214a-403d-b2bf-ff2c30076398" d="M834.49,546.76V528H801.38a16.89,16.89,0,0,1-12.79-6,5.73,5.73,0,0,1,1.7-8.73l1.36-.72V492.1l-9.39,5a24.43,24.43,0,0,0-12.08,14.4,23.74,23.74,0,0,0,4.52,22.12l9.58,11.47c0,.56,0,1.12.08,1.67h50.11Z"/><path class="042dcf94-214a-403d-b2bf-ff2c30076398" d="M805.68,566.48h11.77a3.66,3.66,0,0,1,3.66,3.66v25.08a7.78,7.78,0,0,0,7.78,7.78h5.59V546.76H784.37A21.38,21.38,0,0,0,805.68,566.48Z"/><path class="19eccf08-9978-4d01-8219-87187e5d3944" d="M834.49,603h3a7.78,7.78,0,0,0,7.78-7.78V570.15a3.66,3.66,0,0,1,3.66-3.66h14.45a21.38,21.38,0,0,0,21.31-19.72H834.49Z"/><path class="9c1ad4fa-a5d1-4a5b-8904-728111239104" d="M872.88,477.13h-38.4V528h31c3.88,0,7.59-1.91,10.54-5.29V493.89a8,8,0,0,0-.13-1.42l.13.07V480.35s0-.09,0-.13A3.13,3.13,0,0,0,872.88,477.13Z"/><rect class="5411f80a-31be-45c9-92e7-2b0e1bb43a52" x="802.55" y="548.75" width="63.87" height="8.31" rx="3.24" ry="3.24"/><circle class="5411f80a-31be-45c9-92e7-2b0e1bb43a52" cx="826.81" cy="596.14" r="2.01"/><circle class="5411f80a-31be-45c9-92e7-2b0e1bb43a52" cx="839.36" cy="596.14" r="2.01"/><path class="9c1ad4fa-a5d1-4a5b-8904-728111239104" d="M767.55,573.21s4.72,26.11,35,29.8"/><path class="e9b70a50-21de-4a94-90af-60ec417a5150" d="M791.65,523.61v-11l-1.36.72a5.73,5.73,0,0,0-1.7,8.73,16.89,16.89,0,0,0,12.79,6,14.81,14.81,0,0,1-9.72-3.81Z"/><path class="9c1ad4fa-a5d1-4a5b-8904-728111239104" d="M791.9,480.26a3.13,3.13,0,0,1,3.13-3.13h39.46v-8H799.71c-3.77,0-6.95,3.67-7.81,8.58a15.36,15.36,0,0,0-.24,2.68v6.5a11.51,11.51,0,0,1,.24-2.31Z"/><path class="5411f80a-31be-45c9-92e7-2b0e1bb43a52" d="M791.65,524.21a14.81,14.81,0,0,0,9.72,3.81,13.76,13.76,0,0,1-9.72-4.41Z"/><path class="5411f80a-31be-45c9-92e7-2b0e1bb43a52" d="M791.65,493.89v29.72a13.76,13.76,0,0,0,9.72,4.41h33.11V477.13H795a3.13,3.13,0,0,0-3.13,3.13v4.27a11.51,11.51,0,0,0-.24,2.31v5.25l.24-.13A8,8,0,0,0,791.65,493.89Z"/></g><path class="5411f80a-31be-45c9-92e7-2b0e1bb43a52" d="M791.9,492l-.24.13v1.79A8,8,0,0,1,791.9,492Z"/><path class="042dcf94-214a-403d-b2bf-ff2c30076398" d="M191.45,738.3A51.77,51.77,0,0,1,264.66,737l37.72,36.38a51.77,51.77,0,0,1,1.32,73.21l-1.81,1.87,8.88,8.56a65,65,0,0,0-1.94-91.59l-36.49-35.19a65,65,0,0,0-91.6,1.37l8.91,8.59Z"/><path class="19eccf08-9978-4d01-8219-87187e5d3944" d="M301.9,848.43l-1.81,1.87a51.77,51.77,0,0,1-73.21,1.32l-37.72-36.38A51.77,51.77,0,0,1,187.84,742l1.81-1.87-8.91-8.59-.3.29h0a65,65,0,0,0,1.66,91.9L218.59,859a65,65,0,0,0,91.9-1.66h0l.28-.31Z"/><path class="042dcf94-214a-403d-b2bf-ff2c30076398" d="M290,838.88a40.64,40.64,0,0,1-57.46,1l-31.84-30.71a40.64,40.64,0,0,1-1-57.46l1-1-11-10.57L187.84,742a51.77,51.77,0,0,0,1.32,73.21l37.72,36.38a51.77,51.77,0,0,0,73.21-1.32l1.81-1.87-11-10.57Z"/><path class="19eccf08-9978-4d01-8219-87187e5d3944" d="M302.38,773.35,264.66,737a51.77,51.77,0,0,0-73.21,1.32l-1.81,1.87,11,10.57.39-.41a40.63,40.63,0,0,1,57.46-1L290.3,780a40.63,40.63,0,0,1,1,57.46l-.39.41,11,10.57,1.81-1.87A51.77,51.77,0,0,0,302.38,773.35Z"/></g></svg>