<svg id="36bc5d2e-b9d7-4a4e-9128-2137a8018163" data-name="圖層 1" xmlns="http://www.w3.org/2000/svg" viewBox="0 0 992.13 992.13"><defs><style>.\36 0d57822-8898-4167-beb7-f517bcd523f8{fill:#656e88;}.cc5a0adb-e28f-4c11-a351-8d61d221a203{fill:#142540;}.cea9a5b7-1f78-4bd4-bc2d-2be25cca6776{fill:#959ba6;}.\37 5f09671-127f-453c-9dfd-f077ac1774e7{fill:#2d3c55;}.\39 b930146-c5dc-4936-9ac5-0b63beacd2cd{fill:#8d95a3;}.d901aaf3-de5e-462a-92c7-e52877814158{fill:#8c5e2d;}.\36 ad7db4b-2ab8-4358-9994-dd87444eeafc{fill:#ce8a35;}.bc93f78c-db78-4d4b-9155-3f2a8d08334b{fill:#434751;}.e7fd5bfb-110d-4ad4-97bc-f733d0136dae{fill:#2e3d56;}.\35 debc7d3-e0e7-44de-a229-d72027ae00f0{fill:#1f263c;}.\38 107ce2c-41a8-4ac9-8cc9-6fb69cacd3e2{fill:#282b41;}.a70fda1e-2a1e-41fa-afc9-c9fad68a7652{fill:#885c31;}.\36 9f95f20-aed9-4be1-89e2-1bfa907f6c38{fill:#f4ebcc;}.\36 6d7aa99-ff05-4469-b04a-c9be1a99ded2{fill:#d9c7a4;}.a0665b7f-f89e-409b-a05f-a416b5620596{fill:#673d1c;}.\31 d96e1cb-d6b4-497b-aae8-f281f8865a69{fill:#895b2f;}.f68a68c2-b242-41a6-a417-dff9fc2f9f3d{fill:#61381a;}.\32 7159969-6be0-47aa-bb43-a2ff84fe013d{fill:#683e1d;}.d61640a4-26f8-4f46-8aa9-8129453a8f85{fill:#5e3418;}.e0f5bf54-e52a-4aee-9294-dacccdf3825c{fill:#895b2d;}.c4c9ba43-ed33-4471-bedb-9a0b5f1e6273{fill:#5d3418;}.d144152c-42fb-41d4-a5cb-d193b6eba664{fill:#5c3317;}.d859811d-3f21-468f-8109-740ca623fe13{fill:#593016;}.\35 83a9b71-f7db-4389-886b-0873a739d429{fill:#f1e7c8;}.b2a5fe48-f592-4f59-82ea-f89396d2d40b{fill:#9d764b;}.e346fa4b-c9ae-4a8c-8539-7d23e0cdcbb1{fill:#8a5f34;}.\34 2cb90ce-f46f-4552-814b-ee62a3e878ed{fill:#ae8e65;}.d5b06e9a-282d-41e3-8d40-9973fc58f27d{fill:#e1d1af;}.\31 16184df-b768-4fa6-ac55-49b479ddc123{fill:#5a6270;}.\33 b44851a-cb57-4227-8fa3-d2fb41e0bbe1{fill:#cd8b34;}.\36 b57223e-8cc8-4ff0-8760-9603e5293e66{fill:#2f3643;}.\30 68e959e-c5b4-42a6-9a9e-719ba7a51085{fill:#1d2a3c;}.\35 52c600f-2062-4643-8de6-53f35c85e17e{fill:#5f3518;}.a705a523-beb6-47f1-90aa-b4a3ef3f1361{fill:#d19444;}.\37 e18bf85-36df-480c-bc2e-31e0fa2abd7d{fill:#9098a4;}.d6f910e5-aa1e-4856-82e2-9d7ee7fa3aa5{fill:#626c86;}.\33 d3b8106-0e96-42d1-80ea-de4e12ef27a8{fill:#8e97a3;}.cb13e578-f289-4b26-8145-38034c15d9e6{fill:#636d87;}.\36 db7f50f-3f15-4b5d-adf0-a1b68af89f30{fill:#8d96a3;}.fc15e331-d906-44f3-93e4-88087ad0ecc1{fill:#8c93a1;}.\37 b60da85-9758-44f5-a97e-e9913b9aaae7{fill:#5e6a82;}.e08329bb-acc7-471c-a7d3-238625e6be43{fill:#8c95a2;}</style></defs><title>stars</title><g id="fea13a95-1088-43c2-8132-0156ce908a90" data-name="plannet_ink"><path class="60d57822-8898-4167-beb7-f517bcd523f8" d="M397.72,486.11s2,11.08,0,13.64-81.82,65.06-81.82,65.06S299.71,577.88,292,605.72s-29.91,191.29-31,218.76c-.32,8.24,4.54,15.73,8.54,21,8,10.51,146.6,90.63,196.31,101.71,30.41,6.78,56.54-6.82,56.54-6.82,97.45-53.69,210.8-135.52,271.32-194.89,17.82-17.48,15.34-49.43,15.34-49.43L790.35,530.72S783.53,495.49,754,475s-87.5-39.21-87.5-39.21L573.3,405.71s-10.23-4.55-25.57,0S397.72,486.11,397.72,486.11Z"/><path class="cc5a0adb-e28f-4c11-a351-8d61d221a203" d="M286,818.76a27.13,27.13,0,0,1-2.24-14c2.4-23.31,12.44-117.68,21.2-149.44,6.82-24.72,21-39.68,33.3-31.1,28.07,19.6,22.53-4.47,22.53-4.47s.94-10.65,14.18-7.26c20.77,5.33,26.31,5.33,83.41-27.91S649.66,533,659.09,517.65c14.07-22.83,39.07.54,51.39,14.6a32.74,32.74,0,0,0,19.85,10.84l11.13-1.39c15.26-1.9,30.27,6.68,35.39,21.19q.33.93.6,1.89L800,668c4.28,19.62-.71,55.8-16.45,68.27L536.36,909.71c-16.28,9-44.92,20-71.59,13.64L390.62,886.7s-59.3-29.31-81-42.61C295.81,835.58,289.16,825.69,286,818.76Z"/><path class="cea9a5b7-1f78-4bd4-bc2d-2be25cca6776" d="M809.1,696.17,806.25,671a811.81,811.81,0,0,0-12.61-111.3l0-.13-1.35-11.89c-.57,0,2.35-71-125.32-104.64-19.66-5.19-108.42-25.7-108.42-25.7L401.7,504.3,397.15,508l-2.27,4s-68.14,53.85-74.72,59.66c-3.07,2.71-9.66,10.23-6,14.21s11,2.67,19.32-2.84c11.41-7.55,24.72-31.25,65.91-22.73s61.64,23.25,103.41,22.44c31.63-.61,92.57-.26,167.05-68.18,19.56-17.84,40.56-21.06,47.84-11.43,4.31,5.7,2.75,14.82-3.17,24.3-43.41,63.43-187.42,139.79-211.43,149-11.08,4.25-26.85,3-34.94,0A432.73,432.73,0,0,1,408.39,647c-55.64-32.82-70.4-49-79.77-39.22-8.21,8.58,25.78,28.77,71.17,54.12,16.74,9.35,35.63,21.15,44.1,26.52a45.25,45.25,0,0,1,11,9.79c7.8,9.66,19.9,29.64,20.45,61.07.13,7.11-.26,92.89-.35,113.58,0,3.36.17,7.31,2.82,9.39,2.94,2.3,7.53.67,7.39-4.92-3.14-123.62,11.88-164.09,21.55-182.39,7.43-14.06,20.24-19,40-31.32,16.5-10.28,56.89-28.55,83.31-44.53C645.77,609.6,718.76,556,718.76,556a38.45,38.45,0,0,1,27.72-8.65c39.18,3.54,48,119.82,47.28,126.27-2.13,18.32-.85,34.09-17.47,54.55C747.58,763.5,588.88,875.62,512.5,912.69c-31.61,15.34-58.38,3.41-58.38,3.41l-64.77-29s-7-3.27-10.23-3.87c-2.56-.47-6-.46-7.24,1.92s-.85,7.07,3,9.62,64.45,34.69,79.69,39.63c18.86,6.11,32.81,10.65,56.68,0s169.18-104,186.65-118S804.47,730.09,806,723.69c.19-.78,1.07-5.42,1.35-5.32A87.6,87.6,0,0,0,809.1,696.17Z"/><path class="75f09671-127f-453c-9dfd-f077ac1774e7" d="M399.57,493.36s-2.13,11.51,0,15.34a48.45,48.45,0,0,0,3.81,5.47,47.37,47.37,0,0,0,6.21,5.61C421.94,530,452.4,546.12,479,550c29,4.26,94.61,7.67,133.74-18.32,43.42-28.84,47.16-43.89,48.43-51.56s5.11-26.42-6-33.24-45.17-25.14-89.92-21.31-92.9,0-114.21,14.92S406.39,477.17,403,482.28A22.26,22.26,0,0,0,399.57,493.36Z"/><path class="60d57822-8898-4167-beb7-f517bcd523f8" d="M393.6,451.17v25.22a23.58,23.58,0,0,0,4.53,14c6.5,8.82,20.9,23.84,48.74,34.64,41.76,16.19,141.74,34.5,216.68-50.42,11.16-12.65,7.59-39.79,2.74-47.19-38.74-59.21-181.07-76.82-256.93-3.52C393.88,438.86,393.6,451.17,393.6,451.17Z"/><path class="75f09671-127f-453c-9dfd-f077ac1774e7" d="M510.07,411.07s-19.87-.24-52.11,17.37c-27.54,15-38.54,41.4-10.55,55.48,1.81.91,2.15.37,1.69-1-10.39-29.87,60.57-58.28,88-59.88a6.61,6.61,0,0,0,2.06-.36,36.39,36.39,0,0,0,8.26-4.36c3.09-2.37-15.45-2.47-21.63-2.43a6,6,0,0,1-3.37-1A22.7,22.7,0,0,0,510.07,411.07Z"/><path class="cc5a0adb-e28f-4c11-a351-8d61d221a203" d="M511.43,498.4s-1.92-3.55,3.41-5.25,10.87-2.34,14.7-7.24,19.39-23.44,42.4-18.32,25.77,10.28,25.77,10.28S579,499.64,511.43,498.4Z"/><path class="75f09671-127f-453c-9dfd-f077ac1774e7" d="M619,462.68s1.82-14.12-45-21.31a116,116,0,0,0-29.19-.64s-10.91-9.27,20-11.4c0,0-1.49-6.82,6.39-6.82,6,0,49.22,2,56.46,23.54C629.27,450.51,619,462.68,619,462.68Z"/><path class="9b930146-c5dc-4936-9ac5-0b63beacd2cd" d="M522.07,383.07a6.65,6.65,0,0,0-2.44-.32c-7.68.43-54,4.25-92.93,34.89-42.61,33.52-22.27,60.68,2.27,69.6,1.65.6,3.7-.78,5.26-2.22a2.72,2.72,0,0,0-.33-4.26c-8.06-5.41-29-24.08,5-55.69,22.42-20.82,72.38-30.79,83.94-32.87a4.47,4.47,0,0,0,3.77-4.11C526.7,386.31,525.78,384.29,522.07,383.07Z"/><path class="9b930146-c5dc-4936-9ac5-0b63beacd2cd" d="M653.52,434.16c-2.25-33.13-52.09-55.49-117.27-54.95a5.43,5.43,0,0,0-5,7.34l0,.05,0,.05a6.94,6.94,0,0,0,6.33,4.47c50.68.86,88.18,18.56,90,44.86,2,29.38-41.89,58-100.91,62-29.82,2-59.26-2.93-79.31-11.42a8.54,8.54,0,0,0-6.29-.15c-3.73,1.38-2,5.46-1.48,6.55,1.77,3.41,8.83,6,12.21,7,22.32,6.49,48.22,11.4,77.4,9.41C601.57,504.46,656,469.94,653.52,434.16Z"/><path class="cc5a0adb-e28f-4c11-a351-8d61d221a203" d="M618,493c-28.84,15.94-55.71,25-93.68,28.16-4.33.43-6.29,5.37-5.65,8.31h0c.64,2.94,2.81,4.31,6.5,4.19,38.5-.82,64.56-12.43,97.45-28.27,3.27-1.42,4.94-4.21,3.63-8.17h0C624.43,492.77,621,491.94,618,493Z"/><path class="d901aaf3-de5e-462a-92c7-e52877814158" d="M551.28,766.09s36.22-24.72,37.93-26.42,40.48-107,131.68-87.79l31-17.6c3.88-2,4.49-1.29,4.77,5L759.54,682l-23.71,18.59c-4.51,1.81-35.19,79.8-131.29,91.94l-47.3,28.13Z"/><path class="6ad7db4b-2ab8-4358-9994-dd87444eeafc" d="M558,769.08s34.18-23.42,35.76-25S635.12,637,723.59,659.42l28.09-17.33L753.81,680,731,697.2c-4.16,1.67-38.25,78-127,89.21l-42.33,26.14Z"/><rect class="bc93f78c-db78-4d4b-9155-3f2a8d08334b" x="579.52" y="770.81" width="15.8" height="3.7" rx="0.83" ry="0.83" transform="translate(-307.63 397.23) rotate(-30)"/><rect class="bc93f78c-db78-4d4b-9155-3f2a8d08334b" x="724.23" y="673.82" width="15.8" height="3.7" rx="0.83" ry="0.83" transform="translate(-239.75 456.59) rotate(-30)"/><path class="e7fd5bfb-110d-4ad4-97bc-f733d0136dae" d="M623.16,743.43c-5.27-4-17.41,1.5-15.81,8.73.88,4,4.68,4.54,8.13,3.83,4.25-.87,9.19-2.59,11.11,2.7,2.68,7.35-7.35,12.86-12.94,7.82-.63-.57-3.29.52-2.72,1,5.85,5.27,18.72,1.8,19-7a7.21,7.21,0,0,0-6.64-7.38c-2.37-.23-4.34,1-6.59,1.29-13.18,1.72-3.42-15.52,3.78-10,.69.53,3.29-.61,2.72-1Z"/><path class="e7fd5bfb-110d-4ad4-97bc-f733d0136dae" d="M631,736.69c5.9-2.78,11.18-7.8,16.41-11.66,1.58-1.17-.8-2-1.88-1.18l-7.88,5.82c-2.53,1.87-5,4.12-7.89,5.47-1.8.85-.19,2.22,1.24,1.55Z"/><path class="e7fd5bfb-110d-4ad4-97bc-f733d0136dae" d="M636.87,733.42q3.94,10.42,6.92,21.14c.17.61,3.07-.16,2.9-.78q-3-10.73-6.92-21.14c-.25-.65-3.1.24-2.9.78Z"/><path class="e7fd5bfb-110d-4ad4-97bc-f733d0136dae" d="M657.3,715.28c-2.43,6.23-2.29,15.51,3.32,20.24,4.7,4,9.93-1.43,12.26-5.38,3.09-5.23,5.31-14.21-.64-18.32-4.79-3.3-10.79-1.17-13.64,3.51-.8,1.31,2.14,1.25,2.75.25,3.72-6.11,9.75-2.88,11.18,1.23a12.46,12.46,0,0,1,.32,5.39c-.37,3.16-1.72,7.12-3.94,9.46-5.35,5.62-8.54-.33-9.71-4.86a18.08,18.08,0,0,1,.84-11.29c.58-1.48-2.32-1.35-2.75-.25Z"/><path class="e7fd5bfb-110d-4ad4-97bc-f733d0136dae" d="M679.07,697q2.21,11.7,5.27,23.19c.21.8,3.11,0,2.9-.78Q684.18,708,682,696.26c-.15-.77-3.06-.09-2.9.78Z"/><path class="e7fd5bfb-110d-4ad4-97bc-f733d0136dae" d="M681,698.94a24.39,24.39,0,0,1,6.55-7.13c1.83-1.2,4.19-2.66,5.7-.57a6.14,6.14,0,0,1,.72,4.52c-.62,5.11-5.85,12.19-10.87,13.66-1.67.49-1.44,1.49.27,1,4.15-1.22,7-4,9.7-7.33,2.47-3.11,5.81-8.83,3.14-12.83-4.65-7-15.79,5.66-18.07,9.17-.25.38,2.38.25,2.86-.48Z"/><path class="e7fd5bfb-110d-4ad4-97bc-f733d0136dae" d="M690.2,705.61a52.66,52.66,0,0,0,11.4,6.63c.8.34,3.45-.86,2.32-1.34a50.82,50.82,0,0,1-11-6.39c-.77-.58-3.42.56-2.7,1.1Z"/><path class="e7fd5bfb-110d-4ad4-97bc-f733d0136dae" d="M698.21,682.05a42.23,42.23,0,0,0,12.33,7.37c.75.29,3.39-.87,2.34-1.27a40.92,40.92,0,0,1-12-7.16c-.68-.59-3.35.52-2.71,1.07Z"/><path class="e7fd5bfb-110d-4ad4-97bc-f733d0136dae" d="M716.11,673.28c-1.83,4.92-5.25,10.85-5.86,16.05-.47,4,2.31,9.27,3.62,13,.39,1.09,3.27.26,2.9-.78-1.37-3.84-4.31-9.36-3.37-13.45,1.16-5.08,3.8-10.22,5.62-15.12.39-1-2.52-.7-2.91.33Z"/><path class="5debc7d3-e0e7-44de-a229-d72027ae00f0" d="M447.6,771.49c-10.39-6.63-35.25-20.45-50.38-23.91-3.71-.85-6.08.9-9,3.24-6.83,5.47-10.86,50.68-11.78,65.08-1.87,29.18,41.93,39.14,63.05,42.78.91.16,4.89-.89,6-2.85C453.13,841.9,463,781.33,447.6,771.49Z"/><path class="8107ce2c-41a8-4ac9-8cc9-6fb69cacd3e2" d="M351.14,681.73c-.24-3.93-5-11.63-5.43-12.29-6-9-15.06-14.28-23.9-19.81a12.8,12.8,0,0,0-6.32-1.26c-7.84.14-11.31,12-12.28,16.57-1.74,8.21-14.71,69.92-15.47,72.23-3,12.74,3.53,19.29,9.39,20.67,5,1.17,9.95,2.58,15,3.55,11.17,2.15,18.78-2.23,23.13-12.85S351.73,691.46,351.14,681.73Z"/><g id="875eba91-6c06-4fe7-836e-c5a1eda00de3" data-name="book10"><path class="a70fda1e-2a1e-41fa-afc9-c9fad68a7652" d="M434.47,802.84c-1.86.29-70.85,2.85-74.87,3a.54.54,0,0,1-.34-.1l-6.83-4.82a.55.55,0,0,1-.22-.55l9.07-47.93a.22.22,0,0,0-.22-.27h-2.82a.17.17,0,0,0-.16.13l-9.6,48.59s-12.15,59.95-9.45,64.77,8.84,4.4,8.84,4.4a9.3,9.3,0,0,0,6.39,3.27c21.15,1.94,63-1.93,64.49-2.27,3-.67,2.49-1.07,3.58-5,0,0,11.8-51.81,13.22-62C435.72,802.79,435.08,802.74,434.47,802.84Z"/><path class="69f95f20-aed9-4be1-89e2-1bfa907f6c38" d="M359.24,805.67l-7.17-4.92,8.48-46.55c11.06-1.53,25.68,2.1,40.28,10.53,17.31,10,29.65,25,31.37,38.15Z"/><polygon class="66d7aa99-ff05-4469-b04a-c9be1a99ded2" points="372.73 754.33 361.43 789.96 374.21 754.61 372.73 754.33"/><polygon class="66d7aa99-ff05-4469-b04a-c9be1a99ded2" points="376.28 755.11 367.29 783.35 377.76 755.43 376.28 755.11"/><polygon class="66d7aa99-ff05-4469-b04a-c9be1a99ded2" points="383.44 756.97 373.57 779.2 385.32 757.59 383.44 756.97"/><polygon class="66d7aa99-ff05-4469-b04a-c9be1a99ded2" points="394.3 761.28 381.67 776.96 395.59 761.91 394.3 761.28"/><polygon class="66d7aa99-ff05-4469-b04a-c9be1a99ded2" points="397.58 762.92 374.85 790.71 399.01 763.68 397.58 762.92"/><polygon class="66d7aa99-ff05-4469-b04a-c9be1a99ded2" points="402.6 765.74 388.63 781.76 403.79 766.47 402.6 765.74"/><polygon class="66d7aa99-ff05-4469-b04a-c9be1a99ded2" points="405.54 767.8 391.69 781.76 407.03 768.59 405.54 767.8"/><polygon class="66d7aa99-ff05-4469-b04a-c9be1a99ded2" points="412.95 772.96 391.69 788.15 414.11 774.07 412.95 772.96"/><polygon class="66d7aa99-ff05-4469-b04a-c9be1a99ded2" points="417.44 777.09 397.55 789.43 418.46 778.1 417.44 777.09"/><polygon class="66d7aa99-ff05-4469-b04a-c9be1a99ded2" points="420.63 780.34 398.29 792.41 421.34 781.18 420.63 780.34"/><polygon class="66d7aa99-ff05-4469-b04a-c9be1a99ded2" points="423.17 783.35 401.59 792.41 424.03 784.45 423.17 783.35"/><polygon class="66d7aa99-ff05-4469-b04a-c9be1a99ded2" points="425.37 786.28 405.75 792.41 426.46 787.88 425.37 786.28"/><polygon class="66d7aa99-ff05-4469-b04a-c9be1a99ded2" points="430.01 794.35 399.36 799.01 430.5 795.49 430.01 794.35"/><polygon class="66d7aa99-ff05-4469-b04a-c9be1a99ded2" points="430.96 796.68 412.81 798.38 431.52 798.38 430.96 796.68"/><path class="66d7aa99-ff05-4469-b04a-c9be1a99ded2" d="M362.39,754c0,.17-4.9,35.93-4.9,35.93l5.86-35.84Z"/><polygon class="66d7aa99-ff05-4469-b04a-c9be1a99ded2" points="364.31 755.11 358.21 785.55 365.58 755.11 364.31 755.11"/><path class="a0665b7f-f89e-409b-a05f-a416b5620596" d="M351.19,802.58c1,.74,4.73,3.51,6.51,4.79a.68.68,0,0,0,.93-.14l.71-1.07a.38.38,0,0,0-.09-.56l-7.05-4.82a.18.18,0,0,0-.25,0l-.8,1.3A.31.31,0,0,0,351.19,802.58Z"/><rect class="a0665b7f-f89e-409b-a05f-a416b5620596" x="353.37" y="805.66" width="1.54" height="64.46" rx="0.4" ry="0.4" transform="translate(154.61 -49.61) rotate(10.24)"/></g><g id="94a87edf-6f66-4f76-8b12-ec168affec90" data-name="book9"><path class="69f95f20-aed9-4be1-89e2-1bfa907f6c38" d="M278.6,686,236,664.51c9.41-13.57,27.67-21.08,46.65-19.19,21,2.09,38.6,15.25,43.55,32.52Z"/><path class="1d96e1cb-d6b4-497b-aae8-f281f8865a69" d="M234.84,661.06a.52.52,0,0,1,.78-.38l35.52,21.41a15.55,15.55,0,0,0,13.77,1c2.85-1.19,41.15-7.26,41.15-7.26s3.2-.78,2.63,2.38c-.53,2.93-11.82,58.75-13,64.33a.69.69,0,0,1-.54.54c-4.24.88-36.95,7.68-39.82,8.41a15,15,0,0,1-13.05-1.86c-5.84-3.7-30.7-22.65-34.54-25.58a1.09,1.09,0,0,1-.42-1Z"/><path class="f68a68c2-b242-41a6-a417-dff9fc2f9f3d" d="M271.14,682.08l13.77,1A15.17,15.17,0,0,1,271.14,682.08Z"/><polygon class="27159969-6be0-47aa-bb43-a2ff84fe013d" points="275.35 751.45 284 683.56 283.44 683.71 274.61 751.63 275.35 751.45"/><polygon class="f68a68c2-b242-41a6-a417-dff9fc2f9f3d" points="271.14 682.08 261.71 749.19 262.3 749.58 271.8 682.45 271.14 682.08"/><polygon class="66d7aa99-ff05-4469-b04a-c9be1a99ded2" points="242.54 657.43 243.74 656.34 259.9 670.5 242.54 657.43"/><polygon class="66d7aa99-ff05-4469-b04a-c9be1a99ded2" points="245.38 655.06 246.45 654.1 265.52 671.14 245.38 655.06"/><polygon class="66d7aa99-ff05-4469-b04a-c9be1a99ded2" points="250.88 651.43 252.08 650.8 268.31 670.32 250.88 651.43"/><polygon class="66d7aa99-ff05-4469-b04a-c9be1a99ded2" points="255.69 649.06 256.75 648.53 271.14 672.29 255.69 649.06"/><polygon class="66d7aa99-ff05-4469-b04a-c9be1a99ded2" points="259.9 647.61 260.85 647.32 271.14 666.59 259.9 647.61"/><polygon class="66d7aa99-ff05-4469-b04a-c9be1a99ded2" points="269.41 645.51 270.85 645.35 275.56 662.97 269.41 645.51"/><polygon class="66d7aa99-ff05-4469-b04a-c9be1a99ded2" points="278.04 644.99 279.31 644.99 278.6 657.88 278.04 644.99"/><polygon class="66d7aa99-ff05-4469-b04a-c9be1a99ded2" points="281.81 645.18 283.02 645.6 280.96 658.29 281.81 645.18"/><polygon class="66d7aa99-ff05-4469-b04a-c9be1a99ded2" points="294.39 647.78 295.64 648.11 280.99 673.51 294.39 647.78"/><polygon class="66d7aa99-ff05-4469-b04a-c9be1a99ded2" points="296.88 648.58 297.85 648.93 284 670.32 296.88 648.58"/><path class="66d7aa99-ff05-4469-b04a-c9be1a99ded2" d="M304.75,652.2s-22.37,23.54-21.95,23.23,23-22.69,23-22.69Z"/><polygon class="66d7aa99-ff05-4469-b04a-c9be1a99ded2" points="311.06 656.36 284 678.2 311.7 656.86 311.06 656.36"/><polygon class="66d7aa99-ff05-4469-b04a-c9be1a99ded2" points="312.73 657.7 298.11 670.32 313.52 658.38 312.73 657.7"/><polygon class="66d7aa99-ff05-4469-b04a-c9be1a99ded2" points="317.16 661.95 291.23 677.46 318.06 662.97 317.16 661.95"/><path class="66d7aa99-ff05-4469-b04a-c9be1a99ded2" d="M322.75,669.63s-16.94,5.7-16.93,5.59,17.42-4.72,17.42-4.72Z"/></g><g id="b044f32c-0309-4fad-a994-2e146e1b325d" data-name="book8"><path class="69f95f20-aed9-4be1-89e2-1bfa907f6c38" d="M325.7,425.08s3.55-6.58,13.92-10.7c1.55-.61-10.09-61.51-10.09-61.51l-51.28-28.48-6.3,6.14L316,358.06l1.35,2Z"/><path class="1d96e1cb-d6b4-497b-aae8-f281f8865a69" d="M316.77,357.45l-43-26.67a.65.65,0,0,1-.12-1l4.11-4.19a.84.84,0,0,1,1.07-.22l47.4,26.25a4.55,4.55,0,0,1,2.36,3.23l9.81,60.94s2.56,1.49,3.41-2.13c.75-3.19-8.07-50.11-10.2-61.32a5.07,5.07,0,0,0-2.61-3.54L280.25,322.9s-5.23-3-9.91,1c-3.43,2.88-2.34,9.27-2.34,9.27L288.66,419l35.7,9s2.56.87,3-2.87c.39-3.44-8.07-57.41-9.41-65.9A2.48,2.48,0,0,0,316.77,357.45Z"/><polygon class="d61640a4-26f8-4f46-8aa9-8129453a8f85" points="276.91 370.62 288.72 419.71 315.71 426.48 313.1 379.36 276.91 370.62"/></g><g id="ee47f7bd-0fd1-4d9b-95a3-73bcd5fe9adf" data-name="book7"><path class="69f95f20-aed9-4be1-89e2-1bfa907f6c38" d="M289.25,472.8c-1-1.21,7.83-11.08,14.49-16.21,0,0,.86-54.92-1.05-69a5.25,5.25,0,0,0-4-4.4l-60.23-14a4.75,4.75,0,0,0-5,2.24,3.2,3.2,0,0,0,1.49,4c15.93,6,50.44,19.34,51.56,21.73.85,1.81.7,74.8.7,74.8Z"/><path class="e0f5bf54-e52a-4aee-9294-dacccdf3825c" d="M287.71,398a2.7,2.7,0,0,0-1.64-2.42l-49.55-20.65c-3.57-1.21-3.36-5.26,3.14-4.52,8.89,1,57.42,13.42,57.42,13.42s4.26.43,4.26,8.31,2.4,64.44,2.4,64.44c1.86,3.53,4.47,1.08,4.42-3.82,0-4-2.53-69.57-2.53-69.57a2,2,0,0,0-1.55-1.85l-62.46-14.13s-15.91-3-16.12,6.18c-.21,9-.17,73.39,0,84.46A2.33,2.33,0,0,0,227,460L281.1,479.3s7.67,4,8.1-3.62C289.58,468.72,287.93,408.92,287.71,398Z"/><path class="c4c9ba43-ed33-4471-bedb-9a0b5f1e6273" d="M225.38,387.57s29,11.61,41.37,15.24l-4.23,69.87L227,460a2,2,0,0,1-1.56-2.17C225.45,456,225.38,387.57,225.38,387.57Z"/></g><g id="bd60a7f1-54cb-4df2-8a9e-e938f875b4ed" data-name="book6"><path class="69f95f20-aed9-4be1-89e2-1bfa907f6c38" d="M255,412.6s-7.69-6.26-10.83-12.43c-.72-1.42-50.22,8.38-57.39,9.81a2.61,2.61,0,0,0-1.55.95c-1.32,1.67-2.62,6.42,3.83,6.6C198.52,417.79,255,412.6,255,412.6Z"/><path class="e0f5bf54-e52a-4aee-9294-dacccdf3825c" d="M256.66,495.62a1.58,1.58,0,0,0,1.37-1.57V413.24a1.46,1.46,0,0,0-1.58-1.46l-66.22,5.78s-5.13.27-5.92-3.15l0-.09a3.54,3.54,0,0,1,2.9-4.16c8.91-1.59,56.59-10.12,57-10s1.46,2.2,1.46,2.2l.39-3.2s0-1.7-2.27-1.42c-.85.1-47.43,6.76-59.49,8.81-5.43.92-5.15,6.82-5.15,6.82l-.57,85s-.28,4.12,5.54,5C189.42,504.14,246.85,496.88,256.66,495.62Z"/><path class="d144152c-42fb-41d4-a5cb-d193b6eba664" d="M240.62,433.89c.59-5.73-2.77-5.73-6.25-5.16-2.82.46-40.09,9.13-48.19,9.66-2.91.19-7.21-3.13-7.21-3.13l-.42,63.13s-.28,4.12,5.54,5c3.68.54,32-2.74,52.57-5.24C235.87,487,240.24,437.53,240.62,433.89Z"/></g><g id="bd9ac71d-3714-42ef-9a53-864d83780c47" data-name="book5"><path class="69f95f20-aed9-4be1-89e2-1bfa907f6c38" d="M234.15,450.39s-9.78-5.64-14-11.79c-1.85-2.7-60.23,18.18-60.23,18.18-3.37,5.47-2.41,8.28,4.69,9.3C189.88,465.46,211.79,456.94,234.15,450.39Z"/><path class="e0f5bf54-e52a-4aee-9294-dacccdf3825c" d="M224.16,443.07a57.9,57.9,0,0,1-4-4.47c-.53-.67-39,11.82-43.67,13.24-2.42.73-11.1,3-15.41,6.17s-2.26,7.88,6.34,7c27.49-2.77,67.93-14.61,68.37-17.2a1.83,1.83,0,0,1,1,.65c-3.76,21.35-4,46.7-2.14,73.91a1.11,1.11,0,0,1-.86,1.06c-8,1.87-69.56,15.8-74.14,15.67-4.9-.14-7.46-4.84-7.46-4.84l.36-71.4s-.36-6.18,3.48-7.85c13.64-5.94,62.37-20,67.63-21.4a.37.37,0,0,1,.46.35l.06,9.12"/><path class="d859811d-3f21-468f-8109-740ca623fe13" d="M173.73,536.63c19.94-4.06,54.24-11.84,60.06-13.2a1.11,1.11,0,0,0,.86-1.06c-.51-7.61-.86-15.07-1-22.33C210.77,504.84,191.25,518.18,173.73,536.63Z"/></g><g id="8459fd9e-677d-4baf-bc04-f2f559d13021" data-name="book4"><path class="e0f5bf54-e52a-4aee-9294-dacccdf3825c" d="M225,512.24,219,594.36l-54,28.69,3.55-71.84S180.17,534.56,225,512.24Z"/><path class="69f95f20-aed9-4be1-89e2-1bfa907f6c38" d="M223.29,515.09s17.69,17.33,25.36,20.6-72.37,26.56-72.37,26.56-9.53-5.76-8.81-7.24C172.64,544.32,223.29,515.09,223.29,515.09Z"/><polygon class="66d7aa99-ff05-4469-b04a-c9be1a99ded2" points="228.38 519.92 187.63 540.24 225.89 517.59 228.38 519.92"/><polygon class="66d7aa99-ff05-4469-b04a-c9be1a99ded2" points="230.53 521.88 184.93 546.63 187.63 545.77 232.72 523.84 230.53 521.88"/><polygon class="66d7aa99-ff05-4469-b04a-c9be1a99ded2" points="236.42 527.04 208.82 539.67 239.39 529.48 236.42 527.04"/><path class="e0f5bf54-e52a-4aee-9294-dacccdf3825c" d="M222.71,510.86a.43.43,0,0,1,.42,0L224.9,512s.3.15-.2.38c-5,2.26-48,26.61-55.53,41-1.28,2.46,4.3,5.57,6.32,6.69a2.19,2.19,0,0,0,1.58.23c8.91-2.08,48.15-12.67,71.57-24.67,2.24-1.15,1.78,1.67,1.78,1.67l-16.13,69.5a1.91,1.91,0,0,1-1,1.26c-5.82,3.06-43.2,22.43-60.29,24.17a7.55,7.55,0,0,1-1.7-.07c-6.47-.81-12-5.64-13-6.86a.77.77,0,0,1-.17-.56L163.7,557a14.81,14.81,0,0,1,2.7-6.39C175.3,539.58,207.91,517.93,222.71,510.86Z"/></g><g id="8a483667-0cb2-41b6-9d8e-a9f9d7540b88" data-name="book3"><path class="583a9b71-f7db-4389-886b-0873a739d429" d="M386.78,357.2s-11.06.13-18,5.9c-2.09,1.73-12.5-66.48-12.5-66.48l-25.1-38a8.35,8.35,0,0,1-1.22-6.86c.76-2.65,5-4.57,9.27-1.47,10.43,7.59,37.5,36.93,37.5,36.93Z"/><path class="e0f5bf54-e52a-4aee-9294-dacccdf3825c" d="M357.7,295.89a5,5,0,0,0-.81-2l-25.15-37a4.08,4.08,0,0,1-.73-2.74c.24-2.28,3.25-6.41,8.25-2.2,7.36,6.19,31.1,30.89,35.35,35.32a2.94,2.94,0,0,1,.79,1.63l10.64,71.19a.36.36,0,0,0,.36.31h3.14a.33.33,0,0,0,.33-.38l-10.83-73.51a3.26,3.26,0,0,0-1-1.9c-5.35-5.19-35.63-34.49-38-36-3.73-2.4-14.33-2.66-13.8,7.4.34,6.44,8.72,60.48,10.22,69.8a5.3,5.3,0,0,0,1.09,2.46l29.87,37.58c1.49,1.12,2.72-.37,2.53-2.26Z"/><polygon class="b2a5fe48-f592-4f59-82ea-f89396d2d40b" points="368.85 289.84 370.86 301.43 371.3 302.73 369.49 289.87 368.85 289.84"/><path class="b2a5fe48-f592-4f59-82ea-f89396d2d40b" d="M364.87,292.55s5.95-4.56,10.45-4.06l-.56-.71a58.19,58.19,0,0,0-9.71,3.46Z"/><polygon class="b2a5fe48-f592-4f59-82ea-f89396d2d40b" points="372.79 299.56 370.49 289.18 371.12 288.9 372.79 299.56"/><polygon class="b2a5fe48-f592-4f59-82ea-f89396d2d40b" points="363.92 286.04 368.97 290.17 369.49 289.87 363.92 286.04"/><polygon class="b2a5fe48-f592-4f59-82ea-f89396d2d40b" points="367.07 286.04 371.12 288.9 370.82 289.03 367.07 286.04"/></g><g id="81f57ed4-d6d3-429a-a403-c08890b39fb7" data-name="book2"><path class="e346fa4b-c9ae-4a8c-8539-7d23e0cdcbb1" d="M655.48,143.74l-26.56,49.09a20.63,20.63,0,0,0-1.64,8.32c0,4.83,5.94,77.8,5.94,77.8h1.14a3.71,3.71,0,0,0,2.63-1.09l1.86-1.86,58.75-1.78,1.55,1.29a4,4,0,0,0,4.65.36l.23-.14-1.5-76.51c0-1.93-1.57-6-3.14-8.38L670,143.74S664.33,138.91,655.48,143.74Z"/><path class="69f95f20-aed9-4be1-89e2-1bfa907f6c38" d="M658.43,145.88a7.62,7.62,0,0,1,8.32,0C668.35,147,696.17,199,696.17,199l1.42,75.22c.72,7-58.21,9.82-58.75,1.78-1.88-28.17-4.47-77.26-4.47-77.26Z"/><path class="42cb90ce-f46f-4552-814b-ee62a3e878ed" d="M661,146.9s-16,38-19.07,47.41C638.11,206.13,661,146.9,661,146.9Z"/><path class="42cb90ce-f46f-4552-814b-ee62a3e878ed" d="M660.25,151.25s-10.74,32.63-12.79,41.62C644.88,204.18,660.25,151.25,660.25,151.25Z"/><path class="42cb90ce-f46f-4552-814b-ee62a3e878ed" d="M661.45,154.66s-4.93,31.11-5.51,40.38C655.22,206.71,661.45,154.66,661.45,154.66Z"/><path class="42cb90ce-f46f-4552-814b-ee62a3e878ed" d="M662.63,147.11s1,38.66.45,47.93C662.35,206.71,662.63,147.11,662.63,147.11Z"/><path class="42cb90ce-f46f-4552-814b-ee62a3e878ed" d="M664.78,152.21s4.3,34.79,4.12,39.23C668.74,195.41,664.78,152.21,664.78,152.21Z"/><path class="42cb90ce-f46f-4552-814b-ee62a3e878ed" d="M664.78,147.11s11.12,47.62,10.94,52.06C675.56,203.14,664.78,147.11,664.78,147.11Z"/><path class="42cb90ce-f46f-4552-814b-ee62a3e878ed" d="M666.89,147.64s16.64,39.79,17.64,45.18C685.25,196.73,666.89,147.64,666.89,147.64Z"/><polygon class="42cb90ce-f46f-4552-814b-ee62a3e878ed" points="641.72 224 641.3 197.33 641.72 197.33 641.72 224"/><polygon class="42cb90ce-f46f-4552-814b-ee62a3e878ed" points="647.19 226.33 647.5 197.9 646.87 197.9 647.19 226.33"/><polygon class="42cb90ce-f46f-4552-814b-ee62a3e878ed" points="670.63 245.14 671.26 204.37 670.63 204.37 670.63 245.14"/><polygon class="42cb90ce-f46f-4552-814b-ee62a3e878ed" points="644.33 279.36 644.97 279.51 643.4 226.33 644.33 279.36"/><polygon class="42cb90ce-f46f-4552-814b-ee62a3e878ed" points="640.76 278.15 641.62 278.53 639.69 242.39 640.76 278.15"/><polygon class="42cb90ce-f46f-4552-814b-ee62a3e878ed" points="650.51 280.34 649.95 280.24 648.88 234.18 650.51 280.34"/><polygon class="42cb90ce-f46f-4552-814b-ee62a3e878ed" points="652.54 224.71 652.7 200.88 652.38 200.88 652.54 224.71"/><polygon class="42cb90ce-f46f-4552-814b-ee62a3e878ed" points="654.32 274.21 654.32 232.6 653.45 232.6 654.32 274.21"/><polygon class="42cb90ce-f46f-4552-814b-ee62a3e878ed" points="665.6 257.82 666.42 204.37 665.6 204.37 665.6 257.82"/><polygon class="42cb90ce-f46f-4552-814b-ee62a3e878ed" points="676.54 280.24 677.36 280.17 676.71 226.15 676.54 280.24"/><polygon class="42cb90ce-f46f-4552-814b-ee62a3e878ed" points="686.83 276.7 687.65 276.7 687.06 237.72 686.83 276.7"/><polygon class="42cb90ce-f46f-4552-814b-ee62a3e878ed" points="689.99 269.46 690.4 269.46 689.99 224.71 689.99 269.46"/><polygon class="42cb90ce-f46f-4552-814b-ee62a3e878ed" points="693.05 246.37 693.47 201.62 693.05 201.62 693.05 246.37"/><polygon class="42cb90ce-f46f-4552-814b-ee62a3e878ed" points="685.97 228.47 686.12 198.48 685.41 198.48 685.97 228.47"/></g><g id="85c6e735-68a8-420a-b172-6caa9b0eb260" data-name="paper"><path class="69f95f20-aed9-4be1-89e2-1bfa907f6c38" d="M780.12,219.77l5.11,94.82c5.11-3.41,39.56,2.69,45,9.59,3.84,4.9,15.13-81.79,11.29-86.3C841.49,237.88,819.33,208.69,780.12,219.77Z"/><path class="d5b06e9a-282d-41e3-8d40-9973fc58f27d" d="M807.61,315.52c-9.93-2-19.82-2.63-22.37-.93l-3.59-66.48s30.54,6.72,39,15.13C822.53,265.16,807.61,315.52,807.61,315.52Z"/><path class="69f95f20-aed9-4be1-89e2-1bfa907f6c38" d="M757.63,242.39c6.12,1.16-19,69.44-28.84,75.38l58,35.52c2.79-1.35,30.26-66.62,31.3-88.14C818.21,263.45,757.63,242.39,757.63,242.39Z"/><path class="116184df-b768-4fa6-ac55-49b479ddc123" d="M781.63,319.33A137.26,137.26,0,0,0,756.8,305a1.14,1.14,0,0,1-.42-1.55h0a1.14,1.14,0,0,1,1.55-.42,130.31,130.31,0,0,1,24.82,14.33,1.14,1.14,0,0,1,.42,1.55h0A1.14,1.14,0,0,1,781.63,319.33Z"/><path class="116184df-b768-4fa6-ac55-49b479ddc123" d="M786.17,310.78A137.26,137.26,0,0,0,761,297a1.14,1.14,0,0,1-.45-1.54h0a1.14,1.14,0,0,1,1.54-.45,130.31,130.31,0,0,1,25.12,13.8,1.14,1.14,0,0,1,.45,1.54h0A1.14,1.14,0,0,1,786.17,310.78Z"/><path class="116184df-b768-4fa6-ac55-49b479ddc123" d="M790.06,301.65a137.26,137.26,0,0,0-25.27-13.54,1.14,1.14,0,0,1-.47-1.54h0a1.14,1.14,0,0,1,1.54-.47,130.31,130.31,0,0,1,25.27,13.54,1.14,1.14,0,0,1,.47,1.54h0A1.14,1.14,0,0,1,790.06,301.65Z"/><path class="116184df-b768-4fa6-ac55-49b479ddc123" d="M793.21,291.7a137.26,137.26,0,0,0-26.1-11.86,1.14,1.14,0,0,1-.56-1.51h0a1.14,1.14,0,0,1,1.51-.56,130.31,130.31,0,0,1,26.1,11.86,1.14,1.14,0,0,1,.56,1.51h0A1.14,1.14,0,0,1,793.21,291.7Z"/><path class="116184df-b768-4fa6-ac55-49b479ddc123" d="M796.66,282.87a137.26,137.26,0,0,0-26.2-11.63,1.14,1.14,0,0,1-.58-1.5h0a1.14,1.14,0,0,1,1.5-.58,130.31,130.31,0,0,1,26.2,11.63,1.14,1.14,0,0,1,.58,1.5h0A1.14,1.14,0,0,1,796.66,282.87Z"/><g id="d1deaefa-fb64-4018-8eaf-772e9d9a51c9" data-name="pen1"><path class="3b44851a-cb57-4227-8fa3-d2fb41e0bbe1" d="M760.22,211.25s5.32,37.1,5.2,41.55c-.28,9.87.36,11.08,4.47,10.53,4.3-.57,3-5.69,1.43-11.41-2.64-9.5-6.19-34.24-7.72-40.68C762.86,208.12,759.86,209.54,760.22,211.25Z"/><path class="6b57223e-8cc8-4ff0-8760-9603e5293e66" d="M768.06,263.44l.3,5.62s.07,2.29,1.41,2.27c.79,0,1.75-.28,2-2a40.83,40.83,0,0,0-.18-6.61A5,5,0,0,1,768.06,263.44Z"/></g></g><path class="068e959e-c5b4-42a6-9a9e-719ba7a51085" d="M599.74,301.4l-2.38,4.65c0,1.82.78,2.17,2.21,1.12a7.05,7.05,0,0,0,2.37-2.78l.94-1.74Z"/><g id="8e2a8fce-bd4e-479a-b00e-832952dbd942" data-name="book1"><path class="e346fa4b-c9ae-4a8c-8539-7d23e0cdcbb1" d="M614.74,383c-23,.23-59.42.87-61.49.47-3.61.42-13.45-.82-14.86-1.44-1.93-.85-60.54-17.19-67.69-19.29a.75.75,0,0,1-.51-.92l25.48-93.48a.74.74,0,0,1,1-.49l13.75,5.89,46.11,33.4,13.35.85,64.49-14.49-17.89,88.06A1.8,1.8,0,0,1,614.74,383Z"/><path class="552c600f-2062-4643-8de6-53f35c85e17e" d="M503.27,274.89l-4.38-.67-22.38,86,63.16,17.41s5.58,4.29,11.48.7c.49-.3,60.82.38,60.82.38l15.32-74.84-70.74,6Z"/><path class="69f95f20-aed9-4be1-89e2-1bfa907f6c38" d="M556.37,303.59s-21-27.74-45.95-29.86c-6.91-.59-9.43,0-9.43,0L479.08,358.9l60.85,16.61c.41.12.85,0,1,.38a14.11,14.11,0,0,0,.59,1.32c.54,1,7.61,1.27,8.11.37l.66-1.06c.31-.51.76-.38,1.35-.38l58.52.21,15.07-72.9s-24.49-30-66.89.5Z"/><path class="42cb90ce-f46f-4552-814b-ee62a3e878ed" d="M544.92,373.27c-6.16-10.76-46.35-20.08-50.32-19.55.45-1,41.37,7.36,50.87,17.46C546.38,371.88,545.62,373.66,544.92,373.27Z"/><path class="42cb90ce-f46f-4552-814b-ee62a3e878ed" d="M543.5,370.6l12.87-67.66a.93.93,0,0,1,1.07-.75l.18,0a.93.93,0,0,1,.75,1.07L546.61,370.1c-.72,4.44-1.69,2.52-1.69,2.52A1.89,1.89,0,0,1,543.5,370.6Z"/><path class="42cb90ce-f46f-4552-814b-ee62a3e878ed" d="M548.33,370.36a.6.6,0,0,0-.56.63h0a.6.6,0,0,0,.71.45c8.39-4.37,42-7.44,43.78-5.22C589.77,364.09,558.33,365.71,548.33,370.36Z"/><path class="42cb90ce-f46f-4552-814b-ee62a3e878ed" d="M549.51,371.73a.6.6,0,0,0-.64.55h0a.6.6,0,0,0,.65.54c10.92-3.38,37.23-4.06,41.5-1.28C586.51,368.13,561.21,369,549.51,371.73Z"/><path class="42cb90ce-f46f-4552-814b-ee62a3e878ed" d="M604.15,364.58c-20.88-8.29-54.29-.92-58.51,4.91-.44.13-.05,1.12.39,1,5-4.42,31.67-13.33,57.73-5.18l2.77,8.1Z"/><path class="75f09671-127f-453c-9dfd-f077ac1774e7" d="M598.84,305.57c-14.3-2.3-24.4.67-32.36,7-1,.81-1.58,1.48-1.25,1.9h0c.42.47,1,.79,1.25.54,9.91-7,18.65-9.5,32.36-7,1.22.26,1.22-.55,1.22-1.22h0C600.07,306.12,599.93,305.81,598.84,305.57Z"/><path class="75f09671-127f-453c-9dfd-f077ac1774e7" d="M597.1,317c-13.37-3.9-23.35-2.1-31.69,3.28-1,.7-1.68,1.3-1.41,1.75h0c.34.52.82.89,1.12.68,10.28-5.84,18.91-7.32,31.69-3.28,1.13.4,1.23-.41,1.31-1.07h0C598.2,317.7,598.11,317.38,597.1,317Z"/><path class="75f09671-127f-453c-9dfd-f077ac1774e7" d="M594.67,326.16c-13.28-2.64-22.78.08-30.36,6.21-.91.79-1.51,1.45-1.21,1.87h0c.38.48.87.81,1.15.57,9.42-6.77,17.65-9,30.36-6.21,1.13.29,1.15-.52,1.17-1.19h0C595.79,326.74,595.68,326.43,594.67,326.16Z"/><path id="2a753d00-1134-4555-a834-120fcbb737e4" data-name="pen2" class="a705a523-beb6-47f1-90aa-b4a3ef3f1361" d="M622.52,261.1c-1.08-.64-1.89.12-2.86,1.49-1.24,1.75-11.78,23.51-18.79,31.52-1.89,2.16-1.82,4.69-1.26,7.29a2.81,2.81,0,0,0,3.27,1.34,8.83,8.83,0,0,0,5.14-5.85,97,97,0,0,1,3.2-9.94C617.73,272,625,262.59,622.52,261.1Z"/></g><g id="744cba2a-f55b-4fad-b93a-d99809658fe2" data-name="ink4"><path class="60d57822-8898-4167-beb7-f517bcd523f8" d="M448.81,276l-.15-.5a28.2,28.2,0,0,0-4.22-8.91c-3.81-5.55-9.14-9.27-15-9-20,.9-16.88,21.81-16.88,26.45,0,6.93-1.31,13.42-4.43,18.39h0v0a25,25,0,0,1-4.37,5.18,19.64,19.64,0,0,0-1.69,1.87c-3.54,4.47-5,7.21-5,13.24,0,15.16,10.08,24.53,24.46,24.53a25.9,25.9,0,0,0,23-14.51c4.47-7.62,7.23-18,7.23-29.37C451.71,292.94,450.93,283.39,448.81,276Z"/><path class="7e18bf85-36df-480c-bc2e-31e0fa2abd7d" d="M422.2,274.46a16.42,16.42,0,0,0,1.68,7.83c-4.59,0-7-1.62-7-6.62s3.72-9,8.31-9S422.2,269.47,422.2,274.46Z"/><path class="cc5a0adb-e28f-4c11-a351-8d61d221a203" d="M432.68,266.77c-9.66-1.3-11.06,7.3-11.06,13.94,0,3.8,2.83,14.6,2.75,18.48-.22,9.76-2.51,15-4.61,19.06-1.78,3.51-5.47,6.93-4.63,13.74.73,5.95,6.09,10.89,15.74,6.61a38.94,38.94,0,0,0,4.73-3c3.95-3.26,9.48-12.9,10.39-17.91a68.07,68.07,0,0,0,2.39-18.51C448.39,289.54,446.87,268.67,432.68,266.77Z"/></g><g id="4a4ee02b-4ed1-40cc-8877-086cdaec8d1f" data-name="ink3"><circle class="75f09671-127f-453c-9dfd-f077ac1774e7" cx="520.44" cy="194.15" r="16.52"/><circle class="d6f910e5-aa1e-4856-82e2-9d7ee7fa3aa5" cx="520.13" cy="193.34" r="15.71"/><ellipse class="3d3b8106-0e96-42d1-80ea-de4e12ef27a8" cx="518.63" cy="183.05" rx="5.66" ry="4.09"/><ellipse class="cc5a0adb-e28f-4c11-a351-8d61d221a203" cx="521.58" cy="196.63" rx="10.02" ry="10.46"/></g><g id="96eeb0fe-5138-428c-b8f9-9e08c8e07d62" data-name="ink1"><path class="cb13e578-f289-4b26-8145-38034c15d9e6" d="M590.83,100.34a25.21,25.21,0,0,0-3.67.28c-2.67-18.33-18.59-30.22-35.31-30.22-18.34,0-33.21,15.19-33.21,36.6,0,14.82,3.84,24.58,10,30.6a23.34,23.34,0,0,0-.32,8.16c1.3,11.21,10.55,20.43,23.57,20.43,24.82,0,33.95-19.35,34.36-30.69a25.14,25.14,0,0,0,4.57.43c11.71,0,21.2-8,21.2-17.8S602.54,100.34,590.83,100.34Z"/><ellipse class="6db7f50f-3f15-4b5d-adf0-a1b68af89f30" cx="569.61" cy="93.63" rx="11.31" ry="15.82" transform="translate(29.5 297.35) rotate(-30)"/><path class="fc15e331-d906-44f3-93e4-88087ad0ecc1" d="M554.21,164.94c-4.14-1.45-3.5-4.57-.38-5.34,16.78,1.63,21.15-10,26.65-26.2,2.14-2.15,3.16-.43,3.16-.43C587.63,136.14,579.63,167.2,554.21,164.94Z"/><path class="cc5a0adb-e28f-4c11-a351-8d61d221a203" d="M589.54,102.88a3.22,3.22,0,0,0-3,1.49c-3.56,5.62-16.23,22.17-41.72-5.78-4-4.4-15.79-2.94-13.33,12.69,1.81,11.52,7.51,20.32,4.4,29.39-1.67,4.88-2,24.07,23,20.45,19.68-2.85,17.92-27.18,17.92-27.18s-.44-9.29,9.27-4.92c10.59,4.76,23.46-5.36,18.38-15.92A17.57,17.57,0,0,0,589.54,102.88Z"/></g><g id="577793b2-f305-49d7-88d9-4f083c7bc4cf" data-name="ink2"><circle class="7b60da85-9758-44f5-a97e-e9913b9aaae7" cx="758.27" cy="60.56" r="17.54"/><circle class="cc5a0adb-e28f-4c11-a351-8d61d221a203" cx="759.23" cy="58.45" r="12.43"/><ellipse class="e08329bb-acc7-471c-a7d3-238625e6be43" cx="767.51" cy="53.23" rx="3.73" ry="5.54" transform="translate(56.89 348.05) rotate(-26.5)"/></g></g></svg>