<svg id="e692b214-f7a6-4326-a7ac-457605e01160" data-name="圖層 1" xmlns="http://www.w3.org/2000/svg" viewBox="0 0 265.19 81.5"><defs><style>.bac28e48-012f-4fa6-a830-ee3cdf7b0401{fill:#fff;}</style></defs><title>AlphaTeam Logo</title><path class="bac28e48-012f-4fa6-a830-ee3cdf7b0401" d="M171.93,35.79h7.53a.81.81,0,0,1,.74.48s1.64,3.14,1.82,3.4.26.31.44.31h4.69a.26.26,0,0,0,.24-.38L178,19.69a1,1,0,0,0-.89-.56h-2.27a1,1,0,0,0-.87.54l-10.12,19.9a.28.28,0,0,0,.24.41h4.74c.17,0,.27-.07.4-.25s1.93-3.48,1.93-3.48A.83.83,0,0,1,171.93,35.79ZM173.27,31l2.46-4.87a.23.23,0,0,1,.41,0L178.42,31a.23.23,0,0,1-.21.33h-4.74A.22.22,0,0,1,173.27,31Z"/><path class="bac28e48-012f-4fa6-a830-ee3cdf7b0401" d="M193.51,19.13h-3.94a.22.22,0,0,0-.23.22V39.66a.32.32,0,0,0,.33.32h3.74a.32.32,0,0,0,.32-.32V19.35A.22.22,0,0,0,193.51,19.13Z"/><path class="bac28e48-012f-4fa6-a830-ee3cdf7b0401" d="M205.28,25.35a6.94,6.94,0,0,0-4.94,1.95.11.11,0,0,1-.18-.05L200,26.12a.33.33,0,0,0-.33-.28h-3.1a.34.34,0,0,0-.34.34v22.2a.34.34,0,0,0,.34.34h3.35a.34.34,0,0,0,.34-.34V38.75a.13.13,0,0,1,.22-.1,7.41,7.41,0,0,0,4.8,1.72,7.51,7.51,0,0,0,0-15Zm-3,5a3.34,3.34,0,0,1,4.92,0h0a3.74,3.74,0,0,1,0,5.13,3.36,3.36,0,0,1-2.45,1.05,3.45,3.45,0,0,1-2.48-1.05,3.71,3.71,0,0,1-1-2.58A3.66,3.66,0,0,1,202.29,30.31Z"/><path class="bac28e48-012f-4fa6-a830-ee3cdf7b0401" d="M219.12,33.21a3.83,3.83,0,0,1,1-2.58,3.43,3.43,0,0,1,2.48-1.05,3.34,3.34,0,0,1,2.44,1.05,3.83,3.83,0,0,1,1,2.58v6.42a.35.35,0,0,0,.35.35h3.82a.35.35,0,0,0,.35-.35V32.92a7.48,7.48,0,0,0-11.15-6.54.23.23,0,0,1-.35-.19V19.42a.29.29,0,0,0-.29-.29h-4a.29.29,0,0,0-.3.29V39.63a.35.35,0,0,0,.35.35h3.85a.35.35,0,0,0,.35-.35Z"/><path class="bac28e48-012f-4fa6-a830-ee3cdf7b0401" d="M244.13,27c-.82-1-2.74-1.6-4.45-1.6a7.48,7.48,0,1,0,0,14.95,7,7,0,0,0,4.49-1.45c.08-.08.14,0,.14,0V40.3a.24.24,0,0,0,.28.23l3-.46a.4.4,0,0,0,.4-.4V26.12a.29.29,0,0,0-.29-.29h-2.87c-.23,0-.27.06-.31.27s-.06.58-.08.82S244.32,27.25,244.13,27Zm-3.94,9.5a3.41,3.41,0,0,1-2.47-1.05,3.76,3.76,0,0,1,0-5.16,3.45,3.45,0,0,1,2.48-1,3.36,3.36,0,0,1,2.45,1,3.62,3.62,0,0,1,1,2.58,3.66,3.66,0,0,1-1,2.58A3.36,3.36,0,0,1,240.19,36.52Z"/><path class="bac28e48-012f-4fa6-a830-ee3cdf7b0401" d="M184.19,44h-19.9a.35.35,0,0,0-.35.35V48.4a.35.35,0,0,0,.35.35h7.48a.37.37,0,0,1,.37.36V65.36a.37.37,0,0,0,.37.38h4a.38.38,0,0,0,.37-.38V49.11a.36.36,0,0,1,.37-.36h6.91a.35.35,0,0,0,.35-.35V44.32A.35.35,0,0,0,184.19,44Z"/><path class="bac28e48-012f-4fa6-a830-ee3cdf7b0401" d="M191,51.49A7.52,7.52,0,1,0,187,66a7.44,7.44,0,0,0,7.18-2.33.15.15,0,0,0,0-.21l-2.87-2a.33.33,0,0,0-.41,0,3.27,3.27,0,0,1-2.1.81,3.32,3.32,0,0,1-2.38-1.08,4.91,4.91,0,0,1-.71-1c0-.08-.06-.16.06-.16H196a.18.18,0,0,0,.18-.14,6.51,6.51,0,0,0,.1-.92A7.59,7.59,0,0,0,191,51.49Zm1.08,5.35A.1.1,0,0,1,192,57h-6.27c-.06,0-.09-.06-.07-.13a3.15,3.15,0,0,1,.76-1.28,3.42,3.42,0,0,1,2.48-1.09,3.23,3.23,0,0,1,2.44,1.09A3.7,3.7,0,0,1,192.1,56.84Z"/><path class="bac28e48-012f-4fa6-a830-ee3cdf7b0401" d="M210.07,52.79a6.64,6.64,0,0,0-4.69-1.63,7.47,7.47,0,1,0,0,14.94,7.74,7.74,0,0,0,4.51-1.49c.07-.06.12,0,.12,0V66a.12.12,0,0,0,.15.12l3.2-.34a.34.34,0,0,0,.33-.34V51.91a.34.34,0,0,0-.33-.34h-2.84a.19.19,0,0,0-.2.17s-.14.81-.17,1C210.14,52.8,210.1,52.81,210.07,52.79Zm-4.15,9.49a3.45,3.45,0,0,1-2.48-1.05,3.84,3.84,0,0,1-1-2.58,3.76,3.76,0,0,1,1-2.58A3.46,3.46,0,0,1,205.92,55a3.37,3.37,0,0,1,2.45,1.06,3.61,3.61,0,0,1,1,2.58,3.67,3.67,0,0,1-1,2.58A3.36,3.36,0,0,1,205.92,62.28Z"/><path class="bac28e48-012f-4fa6-a830-ee3cdf7b0401" d="M234.72,51.16a6.47,6.47,0,0,0-5.14,2.68.14.14,0,0,1-.22,0,6.49,6.49,0,0,0-5.15-2.68,5.38,5.38,0,0,0-3.65,1.44c-.07.08-.18.08-.25-.06s-.21-.46-.31-.69a.43.43,0,0,0-.48-.29H216.6a.31.31,0,0,0-.31.31V65.65a.29.29,0,0,0,.29.29h3.86a.29.29,0,0,0,.29-.29V58.24a3.23,3.23,0,0,1,3-2.84c1.78,0,3.18,1.57,3.18,3.76v6.49a.29.29,0,0,0,.29.29h3.58a.29.29,0,0,0,.29-.29V59.16c0-1.77,1.28-3.76,3.14-3.76s3.17,1.57,3.17,3.76v6.49a.29.29,0,0,0,.29.29h3.58a.29.29,0,0,0,.29-.29V59.16C241.57,54.71,238.9,51.16,234.72,51.16Z"/><path class="bac28e48-012f-4fa6-a830-ee3cdf7b0401" d="M130,45.85c-2.47-.25-4.29-2.29-5.69-4.05a1.44,1.44,0,0,1,0-1.68c1.31-2,4-6,4-6A3.75,3.75,0,0,0,122,30.06L119,34.19a.33.33,0,0,1-.53,0c-2.25-2.57-5.79-5.23-9.82-5.23a11.86,11.86,0,0,0-9.87,5.41.44.44,0,0,1-.72,0c-2.19-2.72-5-5.44-10-5.44s-7.71,2.68-9.89,5.37a.53.53,0,0,1-.85,0c-1.11-1.48-4.5-5.36-10-5.36a12,12,0,0,0-9.94,5.25.53.53,0,0,1-.89,0,11.15,11.15,0,0,0-9.65-5.09c-6.36,0-12,5.22-12,11.64a12.08,12.08,0,0,0,12,12,11,11,0,0,0,9.69-5.75.54.54,0,0,1,.89-.06c2.2,2.81,5.35,5.5,9.9,5.5s7.75-3,10-5.91a.53.53,0,0,1,.87,0c2.14,3,4.65,5.91,9.9,5.91s7.79-2.92,9.94-5.85a.53.53,0,0,1,.87,0c2.17,2.93,4.88,5.85,9.75,5.85s7.29-2.44,9.4-5.1a.39.39,0,0,1,.61,0,12.9,12.9,0,0,0,10.85,5.65,3.59,3.59,0,0,0,3.84-3.49A3.44,3.44,0,0,0,130,45.85ZM47,45.42A4.47,4.47,0,1,1,51.47,41,4.53,4.53,0,0,1,47,45.42Zm20.39-.26c-1.9,0-3.57-1.78-4.84-3.69a1,1,0,0,1,0-1.11c1.24-1.77,2.76-3.7,4.82-3.7s3.51,1.94,4.75,3.69a1,1,0,0,1,0,1.13C70.86,43.34,69.34,45.16,67.35,45.16Zm20.75,0c-1.85,0-3.36-1.82-4.62-3.68a1,1,0,0,1,0-1.13c1.21-1.75,2.65-3.69,4.61-3.69s3.45,1.94,4.71,3.69a1,1,0,0,1,0,1.13C91.57,43.34,90,45.16,88.1,45.16Zm20.56-8.5c2.13,0,3.39,2,4.5,3.71a1,1,0,0,1,0,1.11c-1.13,1.76-2.74,3.68-4.51,3.68s-3.29-1.82-4.55-3.68a1,1,0,0,1,0-1.13C105.25,38.57,106.51,36.66,108.66,36.66Z"/><path class="bac28e48-012f-4fa6-a830-ee3cdf7b0401" d="M125.27,12.31H44.41a28.8,28.8,0,0,0,0,57.6h80.86a28.8,28.8,0,0,0,0-57.6Zm0,49.74H44.41a20.94,20.94,0,0,1,0-41.88h80.86a20.94,20.94,0,1,1,0,41.88Z"/><path class="bac28e48-012f-4fa6-a830-ee3cdf7b0401" d="M244.31,62.27h7.41a.25.25,0,0,1,.25.25v3.16a.25.25,0,0,1-.25.25h-7.39a.27.27,0,0,1-.27-.27V62.52A.25.25,0,0,1,244.31,62.27Z"/></svg>