<svg id="a4dc83bd-f545-48bb-b2e1-b096a58bf128" data-name="圖層 1" xmlns="http://www.w3.org/2000/svg" viewBox="0 0 301.97 195.37"><defs><style>.e142c665-4c08-458a-a9ec-0948ae07f39a{fill:#fff;}.ea47b930-9408-4fb4-b6c1-0ceb647f4d44{fill:#ff6c37;}</style></defs><title>CEP_LOGO</title><path class="e142c665-4c08-458a-a9ec-0948ae07f39a" d="M135.13,136a5.51,5.51,0,0,1-4-1.62c-1.5-1.5-1.47-3.19-1.47-6.11s0-4.61,1.47-6.11a5.51,5.51,0,0,1,4-1.62,5.23,5.23,0,0,1,5.42,4.67H138.2a3.14,3.14,0,0,0-5.32-1.68c-.75.81-.92,1.68-.92,4.74s.17,3.93.92,4.74a3.16,3.16,0,0,0,5.34-1.69h2.33a5.24,5.24,0,0,1-5.42,4.68"/><path class="e142c665-4c08-458a-a9ec-0948ae07f39a" d="M148.48,127.62a2,2,0,0,0-1.63-.72,2.22,2.22,0,0,0-2.15,2.43v6.59h-2.18V125.08h2.14v1.18a3.58,3.58,0,0,1,2.88-1.31,3.32,3.32,0,0,1,2.58,1Z"/><path class="e142c665-4c08-458a-a9ec-0948ae07f39a" d="M152.41,131.13c0,1.86,1,3,2.76,3a3.25,3.25,0,0,0,2.63-1.11l1.38,1.31a5.07,5.07,0,0,1-4.06,1.68c-2.71,0-4.87-1.43-4.87-5.55,0-3.51,1.82-5.54,4.6-5.54s4.59,2.14,4.59,5.22v1Zm4.57-3a2.23,2.23,0,0,0-2.13-1.37,2.26,2.26,0,0,0-2.16,1.37,3.44,3.44,0,0,0-.28,1.47h4.87a3.29,3.29,0,0,0-.3-1.47"/><path class="e142c665-4c08-458a-a9ec-0948ae07f39a" d="M167.3,135.92v-1a3.56,3.56,0,0,1-2.88,1.11,3.85,3.85,0,0,1-2.91-1,3.35,3.35,0,0,1-.85-2.33c0-1.81,1.26-3.12,3.74-3.12h2.86v-.77c0-1.36-.68-2-2.37-2a2.55,2.55,0,0,0-2.38,1l-1.42-1.34A4.42,4.42,0,0,1,165,125c3,0,4.47,1.26,4.47,3.72v7.25Zm0-4.79h-2.54c-1.29,0-1.95.58-1.95,1.56s.62,1.53,2,1.53a2.61,2.61,0,0,0,2-.61,2.19,2.19,0,0,0,.47-1.6Z"/><path class="e142c665-4c08-458a-a9ec-0948ae07f39a" d="M175.59,135.92a2.83,2.83,0,0,1-3-3v-6h-1.24v-1.66h1.24V122h2.18v3.3h2.1v1.66h-2.1v5.85a1.11,1.11,0,0,0,1.2,1.27h.9v1.86Z"/><path class="e142c665-4c08-458a-a9ec-0948ae07f39a" d="M179.18,120.64h2.31V123h-2.31Zm.07,4.44h2.18v10.84h-2.18Z"/><polygon class="e142c665-4c08-458a-a9ec-0948ae07f39a" points="188.65 135.92 186.87 135.92 182.9 125.08 185.21 125.08 187.77 132.71 190.31 125.08 192.62 125.08 188.65 135.92"/><path class="e142c665-4c08-458a-a9ec-0948ae07f39a" d="M194,120.64h2.31V123H194Zm.07,4.44h2.17v10.84H194.1Z"/><path class="e142c665-4c08-458a-a9ec-0948ae07f39a" d="M203,135.92a2.83,2.83,0,0,1-3-3v-6h-1.24v-1.66H200V122h2.18v3.3h2.1v1.66h-2.1v5.85c0,.8.38,1.27,1.2,1.27h.9v1.86Z"/><path class="e142c665-4c08-458a-a9ec-0948ae07f39a" d="M210,138.07a3.47,3.47,0,0,1-.79,1.35,3,3,0,0,1-2.22.79h-.88v-2h.56c.92,0,1.24-.27,1.56-1.15l.6-1.69-3.78-10.31h2.3l2.59,7.62,2.52-7.62h2.33Z"/><path class="e142c665-4c08-458a-a9ec-0948ae07f39a" d="M226.72,135.92v-1a3.56,3.56,0,0,1-2.88,1.11,3.83,3.83,0,0,1-2.91-1,3.31,3.31,0,0,1-.86-2.33c0-1.81,1.27-3.12,3.74-3.12h2.87v-.77c0-1.36-.69-2-2.37-2a2.55,2.55,0,0,0-2.38,1l-1.43-1.34a4.45,4.45,0,0,1,3.89-1.57c3,0,4.46,1.26,4.46,3.72v7.25Zm0-4.79h-2.54c-1.29,0-1.95.58-1.95,1.56s.62,1.53,2,1.53a2.61,2.61,0,0,0,2-.61,2.19,2.19,0,0,0,.47-1.6Z"/><path class="e142c665-4c08-458a-a9ec-0948ae07f39a" d="M238.39,135.92v-6.61a2.1,2.1,0,0,0-2.19-2.41,2.16,2.16,0,0,0-2.24,2.41v6.61h-2.18V125.08h2.14v1.09A3.88,3.88,0,0,1,236.8,125a3.74,3.74,0,0,1,2.67,1,3.94,3.94,0,0,1,1.09,3.05v6.93Z"/><path class="e142c665-4c08-458a-a9ec-0948ae07f39a" d="M249.71,135.92v-1.16a3.34,3.34,0,0,1-2.86,1.28,3.74,3.74,0,0,1-2.65-1c-1.09-1.09-1.22-3-1.22-4.59s.13-3.48,1.22-4.57a3.67,3.67,0,0,1,2.62-1,3.37,3.37,0,0,1,2.85,1.22v-5.46h2.18v15.21Zm-2.29-9c-2,0-2.26,1.67-2.26,3.59s.3,3.61,2.26,3.61,2.25-1.69,2.25-3.61-.28-3.59-2.25-3.59"/><polygon class="e142c665-4c08-458a-a9ec-0948ae07f39a" points="129.79 157.05 129.79 141.84 139.5 141.84 139.5 143.91 132.09 143.91 132.09 148.35 138.42 148.35 138.42 150.41 132.09 150.41 132.09 154.98 139.5 154.98 139.5 157.05 129.79 157.05"/><path class="e142c665-4c08-458a-a9ec-0948ae07f39a" d="M148.16,157.05v-6.6c0-1.69-1-2.42-2.18-2.42a2.16,2.16,0,0,0-2.24,2.42v6.6h-2.18V146.22h2.13v1.09a3.86,3.86,0,0,1,2.89-1.22,3.75,3.75,0,0,1,2.67,1,4,4,0,0,1,1.09,3.06v6.92Z"/><path class="e142c665-4c08-458a-a9ec-0948ae07f39a" d="M156.92,157.05a2.83,2.83,0,0,1-3-3v-5.95h-1.24v-1.67H154v-3.29h2.18v3.29h2.09v1.67h-2.09v5.85c0,.79.38,1.26,1.19,1.26h.9v1.86Z"/><path class="e142c665-4c08-458a-a9ec-0948ae07f39a" d="M167,148.76a2,2,0,0,0-1.62-.73,2.23,2.23,0,0,0-2.16,2.44v6.58H161V146.22h2.14v1.17a3.57,3.57,0,0,1,2.88-1.3,3.35,3.35,0,0,1,2.58,1Z"/><path class="e142c665-4c08-458a-a9ec-0948ae07f39a" d="M170.89,152.26c0,1.86,1,3,2.76,3a3.23,3.23,0,0,0,2.63-1.11l1.38,1.3a5.07,5.07,0,0,1-4,1.69c-2.72,0-4.88-1.43-4.88-5.56,0-3.5,1.82-5.53,4.6-5.53s4.59,2.13,4.59,5.21v1Zm4.57-3a2.21,2.21,0,0,0-2.13-1.37,2.26,2.26,0,0,0-2.16,1.37,3.65,3.65,0,0,0-.28,1.48h4.87a3.34,3.34,0,0,0-.3-1.48"/><path class="e142c665-4c08-458a-a9ec-0948ae07f39a" d="M187.6,156.22a3.74,3.74,0,0,1-2.63,1,3.37,3.37,0,0,1-2.84-1.24v5.49H180V146.22h2.14v1.15a3.34,3.34,0,0,1,2.86-1.28,3.74,3.74,0,0,1,2.65,1c1.09,1.09,1.22,2.93,1.22,4.57s-.13,3.51-1.22,4.6M184.4,148c-2,0-2.27,1.67-2.27,3.59s.3,3.61,2.27,3.61,2.24-1.68,2.24-3.61-.28-3.59-2.24-3.59"/><path class="e142c665-4c08-458a-a9ec-0948ae07f39a" d="M197.3,148.76a2,2,0,0,0-1.62-.73,2.23,2.23,0,0,0-2.16,2.44v6.58h-2.18V146.22h2.14v1.17a3.57,3.57,0,0,1,2.88-1.3,3.38,3.38,0,0,1,2.59,1Z"/><path class="e142c665-4c08-458a-a9ec-0948ae07f39a" d="M201.66,152.26c0,1.86,1,3,2.75,3a3.23,3.23,0,0,0,2.63-1.11l1.39,1.3a5.09,5.09,0,0,1-4.06,1.69c-2.71,0-4.87-1.43-4.87-5.56,0-3.5,1.82-5.53,4.59-5.53s4.6,2.13,4.6,5.21v1Zm4.57-3a2.24,2.24,0,0,0-2.14-1.37,2.26,2.26,0,0,0-2.15,1.37,3.34,3.34,0,0,0-.28,1.48h4.87a3.48,3.48,0,0,0-.3-1.48"/><path class="e142c665-4c08-458a-a9ec-0948ae07f39a" d="M217.75,157.05v-6.6a2.11,2.11,0,0,0-2.18-2.42,2.16,2.16,0,0,0-2.25,2.42v6.6h-2.17V146.22h2.13v1.09a3.86,3.86,0,0,1,2.89-1.22,3.77,3.77,0,0,1,2.67,1,4,4,0,0,1,1.09,3.06v6.92Z"/><path class="e142c665-4c08-458a-a9ec-0948ae07f39a" d="M224,152.26c0,1.86,1,3,2.75,3a3.23,3.23,0,0,0,2.63-1.11l1.39,1.3a5.09,5.09,0,0,1-4.06,1.69c-2.71,0-4.87-1.43-4.87-5.56,0-3.5,1.81-5.53,4.59-5.53s4.6,2.13,4.6,5.21v1Zm4.57-3a2.24,2.24,0,0,0-2.14-1.37,2.26,2.26,0,0,0-2.15,1.37,3.34,3.34,0,0,0-.28,1.48h4.87a3.48,3.48,0,0,0-.3-1.48"/><path class="e142c665-4c08-458a-a9ec-0948ae07f39a" d="M239.62,157.05V156a3.86,3.86,0,0,1-2.88,1.22,3.71,3.71,0,0,1-2.67-1,4,4,0,0,1-1.09-3.05v-6.92h2.18v6.6a2.1,2.1,0,0,0,2.18,2.41,2.15,2.15,0,0,0,2.24-2.41v-6.6h2.18v10.83Z"/><path class="e142c665-4c08-458a-a9ec-0948ae07f39a" d="M250.76,148.76a2,2,0,0,0-1.63-.73,2.23,2.23,0,0,0-2.16,2.44v6.58H244.8V146.22h2.13v1.17a3.61,3.61,0,0,1,2.89-1.3,3.38,3.38,0,0,1,2.58,1Z"/><path class="e142c665-4c08-458a-a9ec-0948ae07f39a" d="M257,157.18a6,6,0,0,1-4.55-1.56l1.43-1.44a4.19,4.19,0,0,0,3.12,1.14c1.32,0,2.37-.47,2.37-1.5,0-.72-.41-1.2-1.45-1.28l-1.73-.15c-2-.17-3.21-1.09-3.21-3,0-2.12,1.82-3.31,4.08-3.31a6,6,0,0,1,4,1.21l-1.37,1.39a4.06,4.06,0,0,0-2.67-.79c-1.3,0-2,.58-2,1.4,0,.63.34,1.12,1.49,1.23l1.71.15c2,.17,3.23,1.13,3.23,3.06,0,2.26-1.93,3.44-4.51,3.44"/><path class="e142c665-4c08-458a-a9ec-0948ae07f39a" d="M270.33,157.05v-6.64a2.09,2.09,0,0,0-2.18-2.38,2.12,2.12,0,0,0-2.2,2.38v6.64h-2.18V141.84H266v5.47a3.69,3.69,0,0,1,2.79-1.22c2.42,0,3.77,1.62,3.77,4v7Z"/><path class="e142c665-4c08-458a-a9ec-0948ae07f39a" d="M275.37,141.77h2.31v2.31h-2.31Zm.06,4.45h2.18v10.83h-2.18Z"/><path class="e142c665-4c08-458a-a9ec-0948ae07f39a" d="M288.3,156.22a3.74,3.74,0,0,1-2.63,1,3.36,3.36,0,0,1-2.84-1.24v5.49h-2.18V146.22h2.13v1.15a3.35,3.35,0,0,1,2.87-1.28,3.74,3.74,0,0,1,2.65,1c1.08,1.09,1.21,2.93,1.21,4.57s-.13,3.51-1.21,4.6M285.09,148c-2,0-2.26,1.67-2.26,3.59s.29,3.61,2.26,3.61,2.24-1.68,2.24-3.61-.28-3.59-2.24-3.59"/><path class="e142c665-4c08-458a-a9ec-0948ae07f39a" d="M135.55,172.2h-3.46v6h-2.3V163h5.76a4.62,4.62,0,1,1,0,9.23m-.12-7.16h-3.34v5.07h3.34a2.54,2.54,0,1,0,0-5.07"/><path class="e142c665-4c08-458a-a9ec-0948ae07f39a" d="M148.07,169.89a2,2,0,0,0-1.62-.72,2.23,2.23,0,0,0-2.16,2.43v6.58h-2.18V167.35h2.14v1.17a3.6,3.6,0,0,1,2.88-1.3,3.36,3.36,0,0,1,2.59,1Z"/><path class="e142c665-4c08-458a-a9ec-0948ae07f39a" d="M157.65,177a4.43,4.43,0,0,1-3.25,1.28,4.36,4.36,0,0,1-3.23-1.28c-1-1.07-1.28-2.44-1.28-4.27s.26-3.19,1.28-4.25a4.33,4.33,0,0,1,3.23-1.29,4.4,4.4,0,0,1,3.25,1.29c1,1.06,1.28,2.43,1.28,4.25s-.26,3.2-1.28,4.27M156,169.78a2.24,2.24,0,0,0-1.6-.62,2.17,2.17,0,0,0-1.58.62,6.28,6.28,0,0,0,0,5.95,2.18,2.18,0,0,0,1.58.63,2.24,2.24,0,0,0,1.6-.63,6.28,6.28,0,0,0,0-5.95"/><path class="e142c665-4c08-458a-a9ec-0948ae07f39a" d="M165.08,182.69a5,5,0,0,1-3.82-1.43l1.39-1.39a3,3,0,0,0,2.35,1,2.44,2.44,0,0,0,2.54-2.75v-1.39a3.34,3.34,0,0,1-2.8,1.24,3.6,3.6,0,0,1-2.59-1c-1-1-1.21-2.56-1.21-4.4s.17-3.35,1.21-4.4a3.68,3.68,0,0,1,2.61-.94,3.31,3.31,0,0,1,2.84,1.29v-1.16h2.12v10.77a4.34,4.34,0,0,1-4.64,4.57m.26-13.52c-2,0-2.23,1.68-2.23,3.39s.26,3.4,2.23,3.4,2.2-1.69,2.2-3.4-.24-3.39-2.2-3.39"/><path class="e142c665-4c08-458a-a9ec-0948ae07f39a" d="M178.71,169.89a2,2,0,0,0-1.62-.72,2.23,2.23,0,0,0-2.16,2.43v6.58h-2.18V167.35h2.14v1.17a3.6,3.6,0,0,1,2.88-1.3,3.36,3.36,0,0,1,2.59,1Z"/><path class="e142c665-4c08-458a-a9ec-0948ae07f39a" d="M187.32,178.18v-1a3.56,3.56,0,0,1-2.88,1.11,3.83,3.83,0,0,1-2.91-1,3.35,3.35,0,0,1-.85-2.33c0-1.82,1.26-3.12,3.74-3.12h2.86v-.77c0-1.37-.69-2-2.37-2a2.52,2.52,0,0,0-2.37,1l-1.43-1.35a4.44,4.44,0,0,1,3.88-1.56c3,0,4.47,1.26,4.47,3.72v7.24Zm0-4.78h-2.54c-1.29,0-2,.57-2,1.56s.62,1.53,2,1.53a2.61,2.61,0,0,0,2-.61,2.21,2.21,0,0,0,.47-1.61Z"/><path class="e142c665-4c08-458a-a9ec-0948ae07f39a" d="M205.59,178.18v-6.6c0-1.69-1-2.42-2.18-2.42a2.15,2.15,0,0,0-2.24,2.32v6.7H199v-6.6c0-1.69-1-2.42-2.18-2.42a2.17,2.17,0,0,0-2.25,2.42v6.6h-2.18V167.35h2.14v1.09a3.94,3.94,0,0,1,2.89-1.22,3.47,3.47,0,0,1,3.07,1.58,4.12,4.12,0,0,1,3.4-1.58,4,4,0,0,1,2.74,1,4,4,0,0,1,1.15,3.06v6.92Z"/><path class="e142c665-4c08-458a-a9ec-0948ae07f39a" d="M156.36,39.47H137.09A1.14,1.14,0,0,1,136,38.32v-3.8a1.14,1.14,0,0,1,1.14-1.15h19.27a1.14,1.14,0,0,1,1.14,1.15v3.8a1.14,1.14,0,0,1-1.14,1.15m-18.12-2.29h17V35.66h-17Z"/><path class="e142c665-4c08-458a-a9ec-0948ae07f39a" d="M163.57,47.26h-2.83V43.45h-28v3.81h-2.83V42a1.42,1.42,0,0,1,1.42-1.41h30.84A1.41,1.41,0,0,1,163.57,42Z"/><rect class="e142c665-4c08-458a-a9ec-0948ae07f39a" x="132.92" y="25.54" width="27.38" height="2.83"/><rect class="e142c665-4c08-458a-a9ec-0948ae07f39a" x="134.43" y="29.8" width="24.33" height="2.29"/><rect class="e142c665-4c08-458a-a9ec-0948ae07f39a" x="135.52" y="44.49" width="22.44" height="2.29"/><path class="e142c665-4c08-458a-a9ec-0948ae07f39a" d="M156.15,51H138.23a1.15,1.15,0,0,1-.73-2l5-4.14L144,46.61l-2.54,2.11h14.74Z"/><rect class="e142c665-4c08-458a-a9ec-0948ae07f39a" x="145.18" y="24.26" width="2.83" height="7.78"/><rect class="e142c665-4c08-458a-a9ec-0948ae07f39a" x="153.56" y="44.81" width="2.29" height="6.74" transform="translate(3.86 107.35) rotate(-38.72)"/><rect class="e142c665-4c08-458a-a9ec-0948ae07f39a" x="134.3" y="52.42" width="24.94" height="2.29"/><rect class="e142c665-4c08-458a-a9ec-0948ae07f39a" x="131.18" y="55.85" width="30.39" height="2.83"/><rect class="e142c665-4c08-458a-a9ec-0948ae07f39a" x="145.18" y="48.98" width="2.83" height="9.26"/><rect class="e142c665-4c08-458a-a9ec-0948ae07f39a" x="172.62" y="32.95" width="32.91" height="3.48"/><path class="e142c665-4c08-458a-a9ec-0948ae07f39a" d="M174,58.72l-1.69-3,1.52-.85c13.49-7.53,13.49-13.93,13.49-20.12V24.26h3.49V34.7c0,8-1.15,15.28-15.28,23.17Z"/><path class="e142c665-4c08-458a-a9ec-0948ae07f39a" d="M204.7,58.57l-1.53-.84c-10.65-5.82-15.83-13.23-15.83-22.65V33.34h3.49v1.74c0,8,4.58,14.44,14,19.59l1.53.83Z"/><path class="e142c665-4c08-458a-a9ec-0948ae07f39a" d="M132.45,80.12l-2-2.45,9.66-7.81a1.55,1.55,0,0,1,2,0l9.67,7.8-2,2.46-8.68-7Z"/><rect class="e142c665-4c08-458a-a9ec-0948ae07f39a" x="137.62" y="76.38" width="7.08" height="2.81"/><path class="e142c665-4c08-458a-a9ec-0948ae07f39a" d="M148.22,92.15H134.16a1.57,1.57,0,0,1-1.57-1.57v-9A1.57,1.57,0,0,1,134.16,80h14.06a1.57,1.57,0,0,1,1.57,1.58v9a1.57,1.57,0,0,1-1.57,1.57M135.74,89h10.91V83.13H135.74Z"/><path class="e142c665-4c08-458a-a9ec-0948ae07f39a" d="M132.61,103.32l-2.69-1.63.81-1.34c1.52-2.52,1.86-7.91,1.86-9.77V89h3.15v1.58c0,.31,0,7.61-2.31,11.39Z"/><rect class="e142c665-4c08-458a-a9ec-0948ae07f39a" x="132.67" y="84.58" width="17.04" height="2.98"/><rect class="e142c665-4c08-458a-a9ec-0948ae07f39a" x="153.94" y="75.1" width="3.15" height="21.78"/><path class="e142c665-4c08-458a-a9ec-0948ae07f39a" d="M156.51,104.44h-1.58v-3.15h1.58A3.18,3.18,0,0,0,160,98V70.38h3.14V98a6.35,6.35,0,0,1-6.6,6.47"/><path class="e142c665-4c08-458a-a9ec-0948ae07f39a" d="M192.05,80.12l-8.67-7-8.69,7-2-2.46,9.67-7.8a1.57,1.57,0,0,1,2,0L194,77.67Z"/><rect class="e142c665-4c08-458a-a9ec-0948ae07f39a" x="179.88" y="76.38" width="7.09" height="2.81"/><path class="e142c665-4c08-458a-a9ec-0948ae07f39a" d="M190.48,92.15H176.42a1.57,1.57,0,0,1-1.57-1.57v-9A1.57,1.57,0,0,1,176.42,80h14.06a1.58,1.58,0,0,1,1.58,1.58v9a1.58,1.58,0,0,1-1.58,1.57M178,89h10.92V83.13H178Z"/><path class="e142c665-4c08-458a-a9ec-0948ae07f39a" d="M174.86,103.32l-2.7-1.63.82-1.35c1.53-2.52,1.87-7.9,1.87-9.76V89H178v1.58c0,.31,0,7.6-2.32,11.4Z"/><rect class="e142c665-4c08-458a-a9ec-0948ae07f39a" x="174.93" y="84.58" width="17.05" height="2.98"/><rect class="e142c665-4c08-458a-a9ec-0948ae07f39a" x="196.19" y="75.1" width="3.15" height="21.78"/><path class="e142c665-4c08-458a-a9ec-0948ae07f39a" d="M198.77,104.44H197.2v-3.15h1.57A3.18,3.18,0,0,0,202.22,98V70.38h3.15V98a6.35,6.35,0,0,1-6.6,6.47"/><path class="e142c665-4c08-458a-a9ec-0948ae07f39a" d="M226.65,104.43h-1.57v-3.14h1.57c3.22,0,3.43-1.38,3.44-1.54V95.54h3.15V99.8c0,1.6-1.38,4.63-6.59,4.63"/><path class="e142c665-4c08-458a-a9ec-0948ae07f39a" d="M220.68,85.92h-3.15V72a1.58,1.58,0,0,1,1.58-1.58h6.15v3.15h-4.58Z"/><rect class="e142c665-4c08-458a-a9ec-0948ae07f39a" x="227.01" y="72.37" width="8.59" height="2.87" transform="translate(15.78 185.6) rotate(-45.11)"/><rect class="e142c665-4c08-458a-a9ec-0948ae07f39a" x="229.87" y="69.51" width="2.87" height="8.59" transform="translate(15.35 184.77) rotate(-44.89)"/><rect class="e142c665-4c08-458a-a9ec-0948ae07f39a" x="227.01" y="79.62" width="8.58" height="2.86" transform="translate(10.51 187.46) rotate(-45.04)"/><rect class="e142c665-4c08-458a-a9ec-0948ae07f39a" x="229.87" y="76.76" width="2.86" height="8.58" transform="translate(10.37 187.17) rotate(-44.97)"/><path class="e142c665-4c08-458a-a9ec-0948ae07f39a" d="M248.1,93.56H245V88h-27.3v5.52H214.5v-7.1a1.57,1.57,0,0,1,1.57-1.57h30.46a1.57,1.57,0,0,1,1.57,1.57Z"/><path class="e142c665-4c08-458a-a9ec-0948ae07f39a" d="M233.19,98.69h-3.14v-4a1.58,1.58,0,0,1,.77-1.36l1.5-.87h-9.06V89.28h14.87a1.58,1.58,0,0,1,.8,2.94l-5.74,3.35Z"/><rect class="e142c665-4c08-458a-a9ec-0948ae07f39a" x="220.25" y="95.87" width="22.42" height="3.15"/><path class="e142c665-4c08-458a-a9ec-0948ae07f39a" d="M287,82.8H274.43a1.57,1.57,0,0,1-1.57-1.58v-9a1.57,1.57,0,0,1,1.57-1.58H287a1.58,1.58,0,0,1,1.58,1.58v9A1.58,1.58,0,0,1,287,82.8m-11-3.15h9.43V73.77H276Z"/><rect class="e142c665-4c08-458a-a9ec-0948ae07f39a" x="257.74" y="71.42" width="11.52" height="3.15" transform="translate(-9.07 51.4) rotate(-10.95)"/><rect class="e142c665-4c08-458a-a9ec-0948ae07f39a" x="256.31" y="80.6" width="13.94" height="3.15"/><rect class="e142c665-4c08-458a-a9ec-0948ae07f39a" x="261.93" y="73.49" width="3.15" height="30.95"/><path class="e142c665-4c08-458a-a9ec-0948ae07f39a" d="M258.24,97.39l-2.42-2,1-1.21c3.87-4.65,4.89-12.13,4.9-12.2a1.57,1.57,0,0,1,3-.5c.18.36,4.37,8.74,5.31,10.89l.63,1.44-2.88,1.26-.64-1.44c-.49-1.13-2-4.19-3.25-6.76a26.33,26.33,0,0,1-4.62,9.32Z"/><rect class="e142c665-4c08-458a-a9ec-0948ae07f39a" x="272.86" y="85.47" width="15.73" height="3.15"/><rect class="e142c665-4c08-458a-a9ec-0948ae07f39a" x="273.17" y="92.59" width="15.11" height="3.15"/><rect class="e142c665-4c08-458a-a9ec-0948ae07f39a" x="271.68" y="101.29" width="18.1" height="3.15"/><rect class="e142c665-4c08-458a-a9ec-0948ae07f39a" x="279.15" y="85.74" width="3.15" height="18.27"/><path class="e142c665-4c08-458a-a9ec-0948ae07f39a" d="M189,101.37h-7.26v-4.8h6.35v-3h-7.84a1.49,1.49,0,0,0-1.49,1.49v7.79a1.49,1.49,0,0,0,1.49,1.49h10.24a1.5,1.5,0,0,0,1.5-1.49V97.45h-3Z"/><path class="e142c665-4c08-458a-a9ec-0948ae07f39a" d="M146.73,101.37h-7.26v-4.8h6.37v-3H138a1.49,1.49,0,0,0-1.49,1.49v7.79a1.49,1.49,0,0,0,1.49,1.49h10.24a1.49,1.49,0,0,0,1.49-1.49V97.45h-3Z"/><rect class="e142c665-4c08-458a-a9ec-0948ae07f39a" x="217.68" y="75.03" width="7.44" height="2.87"/><rect class="e142c665-4c08-458a-a9ec-0948ae07f39a" x="217.68" y="79.55" width="7.44" height="2.86"/><path class="e142c665-4c08-458a-a9ec-0948ae07f39a" d="M245.12,85.92H242V73.52H237.4V70.37h6.14A1.58,1.58,0,0,1,245.12,72Z"/><rect class="e142c665-4c08-458a-a9ec-0948ae07f39a" x="237.54" y="75.03" width="7.44" height="2.87"/><rect class="e142c665-4c08-458a-a9ec-0948ae07f39a" x="237.54" y="79.55" width="7.44" height="2.86"/><path class="e142c665-4c08-458a-a9ec-0948ae07f39a" d="M89.6,104.81h-71a4.69,4.69,0,0,1-4.69-4.69v-71a4.7,4.7,0,0,1,4.69-4.7H58.91v9.39H23.33V95.42H84.91V59.94H94.3v40.18a4.7,4.7,0,0,1-4.7,4.69"/><path class="ea47b930-9408-4fb4-b6c1-0ceb647f4d44" d="M83.06,9.14,54.44,61.35l-.18.35a2.19,2.19,0,0,0-.14.77,2.16,2.16,0,0,0,2.16,2.16,2.4,2.4,0,0,0,.71-.12l.53-.26L109.6,35.69A26.55,26.55,0,0,0,83.06,9.14"/></svg>