<svg id="da4a43bc-1828-4c88-8e40-d99f8c7330a5" data-name="圖層 1" xmlns="http://www.w3.org/2000/svg" viewBox="0 0 141.46 134.16"><defs><style>.\38 67d6d55-690e-461b-9677-274732ea33a7{fill:#ffecde;}.\35 fd697dc-dc85-418a-8690-a5e56c2741ae{fill:#08004e;}</style></defs><title>about</title><rect class="867d6d55-690e-461b-9677-274732ea33a7" x="33.7" y="32.1" width="89.15" height="89.24"/><rect class="5fd697dc-dc85-418a-8690-a5e56c2741ae" x="61.45" y="71.3" width="6.42" height="6.73"/><rect class="5fd697dc-dc85-418a-8690-a5e56c2741ae" x="87.98" y="71.3" width="6.42" height="6.73"/><polygon class="5fd697dc-dc85-418a-8690-a5e56c2741ae" points="24.86 27.41 17.82 83.77 -4.88 74.38 28 106.47 42.87 74.38 52.26 43.85 92.97 58.72 89.84 46.2 102.37 46.2 112.54 50.89 121.15 102.56 140.72 83.77 132.11 83.77 128.98 15.66 51.48 12.53 24.86 27.41"/><rect class="5fd697dc-dc85-418a-8690-a5e56c2741ae" x="65.72" y="92.89" width="28.42" height="4.7" transform="translate(-22.22 24.35) rotate(-15.23)"/><rect class="5fd697dc-dc85-418a-8690-a5e56c2741ae" x="50.48" y="61.63" width="16.56" height="3.05" transform="translate(11.65 -9.11) rotate(9.83)"/><rect class="5fd697dc-dc85-418a-8690-a5e56c2741ae" x="84.15" y="61.63" width="16.56" height="3.05" transform="translate(-11.05 20.45) rotate(-11.92)"/></svg>