<svg id="204186a2-34c2-4971-a2db-f2a6b3fa22b7" data-name="圖層 1" xmlns="http://www.w3.org/2000/svg" viewBox="0 0 162.47 306.09"><defs><style>.\39 bb573c7-6260-47c4-aefa-be3bab01ea1f{fill:#ffa82a;}.\30 79beb49-5d9c-41f5-a6b4-abefc510f11e{fill:#08004e;}.\32 0401c15-2257-4bc8-9e69-4d52dc27bb1e{fill:#ffecde;}</style></defs><title>about</title><rect class="9bb573c7-6260-47c4-aefa-be3bab01ea1f" x="36.66" y="109.6" width="89.15" height="114.3"/><rect class="079beb49-5d9c-41f5-a6b4-abefc510f11e" x="36.66" y="235.64" width="89.15" height="70.46"/><rect class="9bb573c7-6260-47c4-aefa-be3bab01ea1f" x="139.14" y="109.6" width="23.33" height="66.54"/><rect class="9bb573c7-6260-47c4-aefa-be3bab01ea1f" y="109.6" width="23.33" height="66.54"/><rect class="20401c15-2257-4bc8-9e69-4d52dc27bb1e" x="139.14" y="181.62" width="23.33" height="21.14"/><rect class="20401c15-2257-4bc8-9e69-4d52dc27bb1e" y="181.62" width="23.33" height="21.14"/><rect class="20401c15-2257-4bc8-9e69-4d52dc27bb1e" x="36.66" y="7.83" width="89.15" height="89.24"/><rect class="079beb49-5d9c-41f5-a6b4-abefc510f11e" x="64.4" y="47.02" width="6.42" height="6.73"/><rect class="079beb49-5d9c-41f5-a6b4-abefc510f11e" x="90.94" y="47.02" width="6.42" height="6.73"/><rect class="079beb49-5d9c-41f5-a6b4-abefc510f11e" x="54.19" y="70.52" width="39.57" height="4.6" transform="translate(12.69 -10.96) rotate(9.26)"/><polygon class="079beb49-5d9c-41f5-a6b4-abefc510f11e" points="29.39 4.43 29.39 52.45 50.75 52.45 50.75 26.59 100.87 26.59 100.87 18.47 115.66 18.47 115.66 34.72 128.81 34.72 128.81 0 29.39 0 29.39 4.43"/><rect class="079beb49-5d9c-41f5-a6b4-abefc510f11e" x="94.36" y="129.17" width="20.35" height="20.35"/></svg>