<svg id="b19dc892-b84c-4624-b713-69700c486ed5" data-name="圖層 1" xmlns="http://www.w3.org/2000/svg" xmlns:xlink="http://www.w3.org/1999/xlink" viewBox="0 0 93.46 57.17"><defs><style>.d22a5354-ff9a-4918-993d-fdffaf4f1b5b,.e63a0501-d917-48cb-849c-4de28db68afd,.e89e93a8-fb2b-4143-9c54-b515a29108dc{fill:none;}.e89e93a8-fb2b-4143-9c54-b515a29108dc{stroke:#ff5559;stroke-width:4px;}.d22a5354-ff9a-4918-993d-fdffaf4f1b5b,.e89e93a8-fb2b-4143-9c54-b515a29108dc{stroke-miterlimit:10;}.\30 5f53fdf-076d-441f-9bd0-da5cd56ba33a{fill:#ff5559;}.ce4235f9-8140-40ad-aee0-002cc9b2d4fd{clip-path:url(#103e6365-61e1-4321-b1d8-fa2a5816dd64);}.\30 2e53e64-6fdd-40ac-af45-33c412dedfbf{opacity:0.26;}.d22a5354-ff9a-4918-993d-fdffaf4f1b5b{stroke:#fff;}</style><clipPath id="103e6365-61e1-4321-b1d8-fa2a5816dd64"><rect class="e63a0501-d917-48cb-849c-4de28db68afd" x="-721.86" y="-345.34" width="641" height="1147"/></clipPath></defs><title>about</title><path class="e89e93a8-fb2b-4143-9c54-b515a29108dc" d="M23.4,2H86.09a5.13,5.13,0,0,1,5.13,5.13v0a5.13,5.13,0,0,1-5.13,5.13H23.4a0,0,0,0,1,0,0V2A0,0,0,0,1,23.4,2Z"/><path class="05f53fdf-076d-441f-9bd0-da5cd56ba33a" d="M9.21,12.53H71.9A5.13,5.13,0,0,1,77,17.65v0a5.13,5.13,0,0,1-5.13,5.13H9.21a0,0,0,0,1,0,0V12.53a0,0,0,0,1,0,0Z"/><path class="e89e93a8-fb2b-4143-9c54-b515a29108dc" d="M23.64,23.32H86.33a5.13,5.13,0,0,1,5.13,5.13v0a5.13,5.13,0,0,1-5.13,5.13H23.64a0,0,0,0,1,0,0V23.32a0,0,0,0,1,0,0Z"/><path class="e89e93a8-fb2b-4143-9c54-b515a29108dc" d="M2,34.12H64.69a5.13,5.13,0,0,1,5.13,5.13v0a5.13,5.13,0,0,1-5.13,5.13H2a0,0,0,0,1,0,0V34.12a0,0,0,0,1,0,0Z"/><path class="e89e93a8-fb2b-4143-9c54-b515a29108dc" d="M23.64,44.92H86.33A5.13,5.13,0,0,1,91.46,50v0a5.13,5.13,0,0,1-5.13,5.13H23.64a0,0,0,0,1,0,0V44.92a0,0,0,0,1,0,0Z"/><g class="ce4235f9-8140-40ad-aee0-002cc9b2d4fd"><g class="02e53e64-6fdd-40ac-af45-33c412dedfbf"><line class="d22a5354-ff9a-4918-993d-fdffaf4f1b5b" x1="-1049.88" y1="523.38" x2="131.62" y2="-216.04"/><line class="d22a5354-ff9a-4918-993d-fdffaf4f1b5b" x1="-1009.86" y1="587.32" x2="171.63" y2="-152.1"/><line class="d22a5354-ff9a-4918-993d-fdffaf4f1b5b" x1="-969.85" y1="651.26" x2="211.65" y2="-88.16"/><line class="d22a5354-ff9a-4918-993d-fdffaf4f1b5b" x1="-929.83" y1="715.2" x2="251.66" y2="-24.22"/><line class="d22a5354-ff9a-4918-993d-fdffaf4f1b5b" x1="-889.82" y1="779.14" x2="291.68" y2="39.72"/></g></g></svg>