<svg id="d43f5371-3827-4dc5-bdb0-f184d3deeba2" data-name="圖層 1" xmlns="http://www.w3.org/2000/svg" viewBox="0 0 308 340.78"><defs><style>.\30 2170cb6-7dd6-4d03-be6d-f6616dfc47bb,.\36 dd8457b-7d66-4d46-ab8c-e5fe505e40ff{fill:none;stroke:#ff5559;stroke-miterlimit:10;}.\36 dd8457b-7d66-4d46-ab8c-e5fe505e40ff{stroke-width:8px;}.d394a17d-6ae7-408d-9002-aaa892aa1d7a{fill:#ff5559;}.\30 2170cb6-7dd6-4d03-be6d-f6616dfc47bb{stroke-width:6px;}</style></defs><title>about</title><polyline class="6dd8457b-7d66-4d46-ab8c-e5fe505e40ff" points="304 0 304 182.2 151.08 335.12 4 188.05 4 0"/><path class="d394a17d-6ae7-408d-9002-aaa892aa1d7a" d="M101,86l12.59,0c8.34,0,14.35,2.67,14.34,10,0,3.86-2.16,7.56-5.81,8.77v.28c4.64,1,8,4.15,8,9.67,0,8.06-6.59,11.92-15.58,11.9l-13.58,0Zm12.81,35.63c6.35,0,10-2.25,10-7.22,0-4.58-3.52-6.57-10-6.58h-6.46l0,13.8Zm-1-18.66c6.18,0,8.78-2.31,8.79-6.12,0-4.25-2.86-5.86-8.6-5.86H107.4l0,12Z"/><path class="d394a17d-6ae7-408d-9002-aaa892aa1d7a" d="M163.17,115.17l-14.13,0-3.49,11.59H139l13.53-40.61H160l13.41,40.65h-6.79Zm-1.54-5L160,104.67c-1.37-4.42-2.58-8.95-3.85-13.53H156c-1.17,4.64-2.44,9.11-3.77,13.52l-1.66,5.46Z"/><path class="d394a17d-6ae7-408d-9002-aaa892aa1d7a" d="M182.56,106.58c0-13.25,8.09-21.19,18.36-21.17a15.66,15.66,0,0,1,11.53,5.15L209,94.64A10.81,10.81,0,0,0,201,91c-7,0-11.88,5.84-11.89,15.39s4.51,15.57,11.68,15.58a11.84,11.84,0,0,0,9-4.29l3.42,4a16,16,0,0,1-12.65,5.83C190.37,127.51,182.54,119.89,182.56,106.58Z"/><path class="d394a17d-6ae7-408d-9002-aaa892aa1d7a" d="M227.08,86.22h6.4l0,19.21h.17l15.48-19.19h7.12l-12.61,15.66,14.65,25h-7.12L239.7,107l-6.25,7.61,0,12.26H227Z"/><polyline class="02170cb6-7dd6-4d03-be6d-f6616dfc47bb" points="70.89 83.2 54.47 107.99 70.89 131.19"/></svg>