<svg xmlns="http://www.w3.org/2000/svg" viewBox="0 0 157 153"><defs><style>.be98098e-0880-465e-868d-c681dba8f715,.ff376a1b-a887-453d-8f5a-e1c4581830b1{fill:#ff6b4d;}.a01c24a0-37ee-4f85-ba5c-c215384e018d,.a1cb072d-61b7-45e9-9738-f365c9c738b5,.a2879afa-0c88-4a86-9fee-c123e20d55ed,.b228a65c-5efe-45cc-9307-d31a052f8ebe,.be98098e-0880-465e-868d-c681dba8f715,.e818a1f6-7475-401d-a239-1a5d1eda1d06,.eefbd6e3-29be-43fd-a453-59886dd1f1fe,.ff376a1b-a887-453d-8f5a-e1c4581830b1{stroke:#14104b;}.a01c24a0-37ee-4f85-ba5c-c215384e018d,.a1cb072d-61b7-45e9-9738-f365c9c738b5,.a2266ee9-5b08-4ac7-8e55-94d84d5c7170,.a2879afa-0c88-4a86-9fee-c123e20d55ed,.b228a65c-5efe-45cc-9307-d31a052f8ebe,.be98098e-0880-465e-868d-c681dba8f715,.e818a1f6-7475-401d-a239-1a5d1eda1d06,.eefbd6e3-29be-43fd-a453-59886dd1f1fe,.ff376a1b-a887-453d-8f5a-e1c4581830b1{stroke-miterlimit:10;}.a2266ee9-5b08-4ac7-8e55-94d84d5c7170,.a2879afa-0c88-4a86-9fee-c123e20d55ed,.eefbd6e3-29be-43fd-a453-59886dd1f1fe,.ff376a1b-a887-453d-8f5a-e1c4581830b1{stroke-width:4px;}.a1cb072d-61b7-45e9-9738-f365c9c738b5,.e818a1f6-7475-401d-a239-1a5d1eda1d06,.eefbd6e3-29be-43fd-a453-59886dd1f1fe{fill:#fbb03b;}.a1cb072d-61b7-45e9-9738-f365c9c738b5{stroke-width:2px;}.a01c24a0-37ee-4f85-ba5c-c215384e018d,.a2879afa-0c88-4a86-9fee-c123e20d55ed,.b228a65c-5efe-45cc-9307-d31a052f8ebe{fill:#fff;}.b228a65c-5efe-45cc-9307-d31a052f8ebe,.e818a1f6-7475-401d-a239-1a5d1eda1d06{stroke-width:3px;}.a2266ee9-5b08-4ac7-8e55-94d84d5c7170{fill:none;stroke:#ff6b4d;}</style></defs><title>course</title><g id="b5e36d19-347e-4f88-bc23-500c7140ff5d" data-name="圖層 2"><path class="be98098e-0880-465e-868d-c681dba8f715" d="M51.76,90s-14.65,5.78-15.69,21.21,10.46,37.6,33.47,35.67L80,111.21Z"/><path class="ff376a1b-a887-453d-8f5a-e1c4581830b1" d="M52.27,96s-14.19,5.61-15.21,20.56S47.2,153,69.51,151.14l10.14-34.58Z"/><path class="a1cb072d-61b7-45e9-9738-f365c9c738b5" d="M85,116l-8,34s18,1,27-2,19-14,19-14Z"/><rect class="a01c24a0-37ee-4f85-ba5c-c215384e018d" x="54" y="16" width="8" height="53"/><polygon class="a1cb072d-61b7-45e9-9738-f365c9c738b5" points="78 65 70 65 70 30 79 30 78 65"/><rect class="b228a65c-5efe-45cc-9307-d31a052f8ebe" x="88.5" y="3.5" width="11" height="65"/><polygon class="a01c24a0-37ee-4f85-ba5c-c215384e018d" points="118 72 107.5 72.5 109.5 49.5 118 49 118 72"/><polygon class="e818a1f6-7475-401d-a239-1a5d1eda1d06" points="129 57 119.5 57.5 118 80 129 80 129 57"/><line class="a2266ee9-5b08-4ac7-8e55-94d84d5c7170" x1="31" y1="25" x2="42" y2="25"/><line class="a2266ee9-5b08-4ac7-8e55-94d84d5c7170" x1="31" y1="38" x2="44" y2="38"/><line class="a2266ee9-5b08-4ac7-8e55-94d84d5c7170" x1="31" y1="51" x2="42" y2="51"/><line class="a2266ee9-5b08-4ac7-8e55-94d84d5c7170" x1="31" y1="65" x2="42" y2="65"/><line class="a2266ee9-5b08-4ac7-8e55-94d84d5c7170" x1="32" y1="76" x2="47" y2="76"/><line class="a2266ee9-5b08-4ac7-8e55-94d84d5c7170" x1="31" y1="84" x2="39" y2="84"/><line class="a2266ee9-5b08-4ac7-8e55-94d84d5c7170" x1="28" y1="97" x2="39" y2="97"/><line class="a2266ee9-5b08-4ac7-8e55-94d84d5c7170" x1="28" y1="109" x2="36" y2="109"/><path class="eefbd6e3-29be-43fd-a453-59886dd1f1fe" d="M85,108l-8,34s18,1,27-2,19-14,19-14Z"/><path class="a2879afa-0c88-4a86-9fee-c123e20d55ed" d="M55,82l27,22,43,19s4.72-28.85-18-42C88,70,67,71,55,82Z"/></g></svg>