<svg xmlns="http://www.w3.org/2000/svg" viewBox="0 0 157 153"><defs><style>.aaaa818d-d4e7-4726-9125-1d3853b16845,.e06da0b0-17ef-43ba-a234-99ee1c3db9b6{fill:#ff6b4d;}.a239230b-53ed-4b86-8fe1-30bf5f556473,.a80eef92-bcb9-4528-8571-9d5cd2b3c11a,.aaaa818d-d4e7-4726-9125-1d3853b16845,.b9d62f5e-f569-4da2-8d64-03190f8d0da3,.bc557f1d-7dce-4b4e-999a-f024d2e1e5a2,.e06da0b0-17ef-43ba-a234-99ee1c3db9b6,.eaa499a4-a875-4410-aa86-934b3c65927e,.fa9fa23a-d0b5-430e-8770-1670447cb753{stroke:#14104b;stroke-miterlimit:10;}.a239230b-53ed-4b86-8fe1-30bf5f556473,.b9d62f5e-f569-4da2-8d64-03190f8d0da3{fill:#fff;}.b9d62f5e-f569-4da2-8d64-03190f8d0da3,.e06da0b0-17ef-43ba-a234-99ee1c3db9b6,.eaa499a4-a875-4410-aa86-934b3c65927e,.fa9fa23a-d0b5-430e-8770-1670447cb753{stroke-width:3px;}.a80eef92-bcb9-4528-8571-9d5cd2b3c11a,.bc557f1d-7dce-4b4e-999a-f024d2e1e5a2,.eaa499a4-a875-4410-aa86-934b3c65927e{fill:#fbb03b;}.a80eef92-bcb9-4528-8571-9d5cd2b3c11a{stroke-width:2px;}.a42ea4a0-8ecc-499c-b0d6-36e68a5ebe34{fill:#14104b;}.fa9fa23a-d0b5-430e-8770-1670447cb753{fill:none;}</style></defs><title>course</title><g id="f70fbd15-d340-40d0-a944-c9fa59deeed2" data-name="圖層 2"><path class="aaaa818d-d4e7-4726-9125-1d3853b16845" d="M72.5,43S60.92,25.11,39.87,32.47,23,75.63,33.55,83l36.84-6.32V64.05S63,66.16,60.92,60.89s5.26-7.36,9.47-6.31Z"/><path class="b9d62f5e-f569-4da2-8d64-03190f8d0da3" d="M84,57s-9-1-8,4,4,6,8,4L78,80l13,3,1-12,7-1,2,14h9V70h5l3,12h8s11-48-18-50S83,45,83,45Z"/><polygon class="bc557f1d-7dce-4b4e-999a-f024d2e1e5a2" points="36 87 65 81 66 91 114 89 77 124 36 87"/><polygon class="eaa499a4-a875-4410-aa86-934b3c65927e" points="38 93 67 87 68 97 116 95 79 130 38 93"/><polygon class="a80eef92-bcb9-4528-8571-9d5cd2b3c11a" points="24.61 31.42 32.09 36.21 28.35 39.77 22.5 35.63 24.61 31.42"/><circle class="a239230b-53ed-4b86-8fe1-30bf5f556473" cx="17.76" cy="29.84" r="6.84"/><circle class="aaaa818d-d4e7-4726-9125-1d3853b16845" cx="114" cy="123" r="6.5"/><polyline class="a80eef92-bcb9-4528-8571-9d5cd2b3c11a" points="102.96 106.33 112 115 106 120 98.98 111.25"/><circle class="a42ea4a0-8ecc-499c-b0d6-36e68a5ebe34" cx="101.5" cy="53.5" r="7.5"/><circle class="e06da0b0-17ef-43ba-a234-99ee1c3db9b6" cx="99" cy="58" r="4.5"/><polyline class="fa9fa23a-d0b5-430e-8770-1670447cb753" points="22.17 77.74 37.66 72.68 38.92 63.84 45.24 73.95 47.76 58.79 57.87 56.26 60.4 47.42 50.29 43.63 59.38 39.84"/></g></svg>