<svg xmlns="http://www.w3.org/2000/svg" viewBox="0 0 157 153"><defs><style>.ab8aa494-0544-49f3-9129-c985183ad22e,.e687d215-df58-4b3d-9b33-1d6a3b673082{fill:#ff6b4d;}.a5a7b067-09a8-473b-afb7-b36acc2d5eac,.a9b97f8e-00c0-415b-8ebb-e4905994e4b0,.ab8aa494-0544-49f3-9129-c985183ad22e,.b3c717c3-e761-4609-ba64-da75bc2fd0a1,.e146dad6-d294-432e-b165-9caba7fc40db,.e687d215-df58-4b3d-9b33-1d6a3b673082,.e9b872a1-f101-4b51-82b3-2038e5de3604,.f8c0c9eb-ed21-490f-9cf3-5d932bc4bc7c{stroke:#14104b;}.a5a7b067-09a8-473b-afb7-b36acc2d5eac,.a9b97f8e-00c0-415b-8ebb-e4905994e4b0,.ab8aa494-0544-49f3-9129-c985183ad22e,.ac1a1ad4-33bc-4554-aac2-6eab60a97af3,.b3c717c3-e761-4609-ba64-da75bc2fd0a1,.e146dad6-d294-432e-b165-9caba7fc40db,.e687d215-df58-4b3d-9b33-1d6a3b673082,.e9b872a1-f101-4b51-82b3-2038e5de3604,.f8c0c9eb-ed21-490f-9cf3-5d932bc4bc7c{stroke-miterlimit:10;}.f8c0c9eb-ed21-490f-9cf3-5d932bc4bc7c{fill:#14104b;}.ac1a1ad4-33bc-4554-aac2-6eab60a97af3,.e9b872a1-f101-4b51-82b3-2038e5de3604{fill:none;}.ab8aa494-0544-49f3-9129-c985183ad22e,.ac1a1ad4-33bc-4554-aac2-6eab60a97af3,.b3c717c3-e761-4609-ba64-da75bc2fd0a1,.e9b872a1-f101-4b51-82b3-2038e5de3604{stroke-width:2px;}.a9b97f8e-00c0-415b-8ebb-e4905994e4b0,.b3c717c3-e761-4609-ba64-da75bc2fd0a1{fill:#fbb03b;}.a9b97f8e-00c0-415b-8ebb-e4905994e4b0,.e146dad6-d294-432e-b165-9caba7fc40db{stroke-width:3px;}.a5a7b067-09a8-473b-afb7-b36acc2d5eac,.e146dad6-d294-432e-b165-9caba7fc40db{fill:#fff;}.ac1a1ad4-33bc-4554-aac2-6eab60a97af3{stroke:#fff;}</style></defs><title>course</title><g id="b3416106-2681-40e8-9d3e-f7bd15d447f8" data-name="圖層 2"><polygon class="e687d215-df58-4b3d-9b33-1d6a3b673082" points="61.5 102.16 61.5 134.5 134 134.5 134 107.55 112.73 107.55 112.73 100 61.5 102.16"/><polygon class="f8c0c9eb-ed21-490f-9cf3-5d932bc4bc7c" points="73 119 73 134 81.94 134 81.94 119 77 115 73 119"/><path class="e9b872a1-f101-4b51-82b3-2038e5de3604" d="M97,109l-7,7a11,11,0,0,0,7,3c4,0,5-3,5-3Z"/><path class="a9b97f8e-00c0-415b-8ebb-e4905994e4b0" d="M50,71l2,26,20-2s-3-14,9-14S92,95,92,95l17-1-1-29Z"/><polygon class="b3c717c3-e761-4609-ba64-da75bc2fd0a1" points="115 65 115 103 131 103 134 65 115 65"/><polygon class="a9b97f8e-00c0-415b-8ebb-e4905994e4b0" points="120.5 67.5 120.5 105.5 136.5 105.5 139.5 67.5 120.5 67.5"/><polygon class="e146dad6-d294-432e-b165-9caba7fc40db" points="74.5 46 74.5 65 92.5 62 90.5 45 74.5 46"/><polygon class="a5a7b067-09a8-473b-afb7-b36acc2d5eac" points="119 45 118 61 135 61 137 45 119 45"/><polygon class="e687d215-df58-4b3d-9b33-1d6a3b673082" points="77 42 141 42 109 18 77 42"/><polygon class="e687d215-df58-4b3d-9b33-1d6a3b673082" points="54 48 54.78 69 61 67 58.67 46 54 48"/><polygon class="ab8aa494-0544-49f3-9129-c985183ad22e" points="57 48 57.78 69 64 67 61.67 46 57 48"/><path class="ac1a1ad4-33bc-4554-aac2-6eab60a97af3" d="M27,103S46.57,69,52,48"/><circle class="b3c717c3-e761-4609-ba64-da75bc2fd0a1" cx="20.5" cy="106.5" r="5.5"/><circle class="b3c717c3-e761-4609-ba64-da75bc2fd0a1" cx="26.5" cy="108.5" r="5.5"/></g></svg>