<svg xmlns="http://www.w3.org/2000/svg" viewBox="0 0 157 153"><defs><style>.bf457a91-8d8b-42e6-b18f-e695767d9808,.e01b6bed-6505-4b03-8909-a71130241575,.e065570c-d2c3-46c9-b42f-2386102a9624{fill:#fff;}.a6770930-3d3c-45d2-86a7-97e9755683c0,.b91b4cd0-62b9-451d-9d7a-534176798212,.bf457a91-8d8b-42e6-b18f-e695767d9808,.e01b6bed-6505-4b03-8909-a71130241575,.e065570c-d2c3-46c9-b42f-2386102a9624,.e43d1cf0-ecf4-405f-8946-a11e1ddcd2c9,.effd45c1-6b04-48c5-814b-6c4bec21e3f3,.fe158944-0ff9-43b7-ae7e-265b3f276f95{stroke:#14104b;stroke-miterlimit:10;}.e01b6bed-6505-4b03-8909-a71130241575,.e43d1cf0-ecf4-405f-8946-a11e1ddcd2c9{stroke-width:4px;}.effd45c1-6b04-48c5-814b-6c4bec21e3f3,.fe158944-0ff9-43b7-ae7e-265b3f276f95{fill:#ff6b4d;}.b91b4cd0-62b9-451d-9d7a-534176798212,.bf457a91-8d8b-42e6-b18f-e695767d9808,.effd45c1-6b04-48c5-814b-6c4bec21e3f3{stroke-width:3px;}.a6770930-3d3c-45d2-86a7-97e9755683c0,.e43d1cf0-ecf4-405f-8946-a11e1ddcd2c9{fill:#fbb03b;}.a6770930-3d3c-45d2-86a7-97e9755683c0{stroke-width:2px;}.a0069fc6-281e-4ebb-b8cd-74d11b3fa135{fill:#14104b;}.b91b4cd0-62b9-451d-9d7a-534176798212{fill:none;}</style></defs><title>course</title><g id="a5e3903e-40b8-4515-8434-6778e926b9f9" data-name="圖層 2"><polygon class="e065570c-d2c3-46c9-b42f-2386102a9624" points="72.72 16.76 51.77 23.19 64.68 48.79 72.72 16.76"/><polygon class="e01b6bed-6505-4b03-8909-a71130241575" points="62.53 9 38 27.4 67.13 55 62.53 9"/><path class="fe158944-0ff9-43b7-ae7e-265b3f276f95" d="M91,13,82,59l40-29S111,7,91,13Z"/><path class="effd45c1-6b04-48c5-814b-6c4bec21e3f3" d="M85,19,76,65l40-29S105,13,85,19Z"/><path class="a6770930-3d3c-45d2-86a7-97e9755683c0" d="M75,73s18-21,27-18-2,14,8,8,11-14,11-14,3,28-18,19S75,73,75,73Z"/><polygon class="fe158944-0ff9-43b7-ae7e-265b3f276f95" points="75 82 105 110 154 89 122 71 75 82"/><polygon class="a6770930-3d3c-45d2-86a7-97e9755683c0" points="75 88 105 116 154 95 122 77 75 88"/><polygon class="bf457a91-8d8b-42e6-b18f-e695767d9808" points="114 83 106 93 112 98 121 85 114 83"/><polygon class="fe158944-0ff9-43b7-ae7e-265b3f276f95" points="72.68 97.5 57 128.5 75 128.5 72.68 97.5"/><polygon class="a6770930-3d3c-45d2-86a7-97e9755683c0" points="98 118.39 85 136.67 114 133.49 110 147 134 116 100 123.95 98 118.39"/><ellipse class="fe158944-0ff9-43b7-ae7e-265b3f276f95" cx="141.5" cy="59" rx="7.5" ry="10"/><ellipse class="bf457a91-8d8b-42e6-b18f-e695767d9808" cx="134" cy="59.5" rx="7.5" ry="10"/><ellipse class="a6770930-3d3c-45d2-86a7-97e9755683c0" cx="49.95" cy="75.29" rx="15.04" ry="25.5" transform="translate(-10.91 8.51) rotate(-8.78)"/><ellipse class="e43d1cf0-ecf4-405f-8946-a11e1ddcd2c9" cx="53.95" cy="74.29" rx="15.04" ry="25.5" transform="translate(-10.71 9.11) rotate(-8.78)"/><ellipse class="fe158944-0ff9-43b7-ae7e-265b3f276f95" cx="23.65" cy="78.49" rx="6.66" ry="14.64" transform="translate(-11.71 4.53) rotate(-8.78)"/><ellipse class="e065570c-d2c3-46c9-b42f-2386102a9624" cx="8" cy="81" rx="5" ry="7"/><circle class="a0069fc6-281e-4ebb-b8cd-74d11b3fa135" cx="45" cy="66" r="3"/><circle class="a0069fc6-281e-4ebb-b8cd-74d11b3fa135" cx="57" cy="65" r="2"/><polyline class="b91b4cd0-62b9-451d-9d7a-534176798212" points="45 72 51 82 55 71 59 80 62 75 65 77 67 72"/></g></svg>