<svg id="圖層_1" data-name="圖層 1" xmlns="http://www.w3.org/2000/svg" viewBox="0 0 154 154"><defs><style>.cls-1{fill:#fff;}.cls-2{fill:#ff6c4d;}.cls-3{fill:#ff8b6b;}.cls-4{fill:#14114b;}</style></defs><circle class="cls-1" cx="77" cy="77" r="77"/><circle class="cls-2" cx="76.5" cy="77.51" r="45.5"/><path class="cls-3" d="M60.65,34.86l7.21,4.07,11.52,3.45,3.46,3.46,3.45-5.76,5.76-3.46,1.6-1.25S84,33.17,77.08,32,60.65,34.86,60.65,34.86Z"/><path class="cls-3" d="M40.22,57.36v6.91l1.15,8.06V83.85a23.52,23.52,0,0,0,1.15,5.76l1.15,2.3,1.15,1.15,2.31-5.76,3.45-4.6,4.61-8.07,3.46-5.76,8.06-2.3s-9.22,2.3,2.3,0,10.37,0,11.52-2.3,4.61,0,1.15-2.31C70,54.16,70.16,56.2,70.16,56.2L61,52.75,57.49,51.6H44.82L40.7,55.19Z"/><path class="cls-3" d="M108.18,57.36l-4.61,1.15-1.15,1.15L96.66,62H94.35l1.16,2.31,4.6,2.3,3.46,6.91v1.15l1.15,3.46L107,81.55,108.18,85h1.15l1.15-3.45c1.15-2.31,1.15-8.07,1.15-8.07s-1.15,0,0-2.3l1.15-2.31,2.31-4.6V62l-3.46-4.6h-3.45Z"/><path class="cls-3" d="M73.62,96.52,69,100l-5.76,3.45L65.56,108l9.21,1.15,2.31-2.3h4.6A40.84,40.84,0,0,0,88.59,108c2.31,0,5.76-2.3,5.76-2.3v-3.46L93.2,97.67l-6.91-3.45-4.61,1.15H78.23l-3.46,2.3Z"/><path class="cls-3" d="M59.2,120.28l5.8-2.07,12.21,1.53h3.05c1.53,0,4.58-1.53,7.63-1.53h4.58L94,119.74a35.52,35.52,0,0,1-14.5,3.05C71.1,122.79,59.2,120.28,59.2,120.28Z"/><path class="cls-4" d="M113.61,96.93c0-2.21-1.56-3.36-3.62-3.36s-3.51,1.05-5.07,2.61L100,91.66a14.62,14.62,0,0,1,11.1-5.27c6.23,0,11.1,3,11.1,9.94s-8.59,9-7.94,15.67h-7.78C105.27,104.27,113.61,101.05,113.61,96.93ZM105,120.69a5.33,5.33,0,1,1,5.33,5.57A5.31,5.31,0,0,1,105,120.69Z"/><circle class="cls-1" cx="38.19" cy="60.62" r="24.38"/><circle class="cls-4" cx="35.19" cy="60.62" r="16.62"/></svg>