<svg id="圖層_1" data-name="圖層 1" xmlns="http://www.w3.org/2000/svg" viewBox="0 0 154 154"><defs><style>.cls-1{fill:#fff;}.cls-2{fill:#ff6c4d;}.cls-3{fill:#ff8b6b;}.cls-4,.cls-5{fill:none;stroke:#14114b;stroke-miterlimit:10;}.cls-4{stroke-width:7px;}.cls-5{stroke-width:2px;}</style></defs><circle class="cls-1" cx="77" cy="77" r="77"/><circle class="cls-2" cx="96.18" cy="57.64" r="28.98"/><rect class="cls-2" x="90.38" y="19" width="12.24" height="76"/><rect class="cls-2" x="90.38" y="19" width="12.24" height="76" transform="translate(153.5 -39.5) rotate(90)"/><rect class="cls-2" x="90.38" y="19" width="12.24" height="76" transform="translate(68.57 -51.54) rotate(45)"/><rect class="cls-2" x="90.38" y="19" width="12.24" height="76" transform="translate(205.04 29.07) rotate(135)"/><circle class="cls-3" cx="50.52" cy="103.44" r="19.25"/><rect class="cls-3" x="46.47" y="77.73" width="8.13" height="50.47" transform="translate(-37.85 29.87) rotate(-24.27)"/><rect class="cls-3" x="46.47" y="77.73" width="8.13" height="50.47" transform="translate(123.63 14.58) rotate(65.73)"/><rect class="cls-3" x="46.47" y="77.73" width="8.13" height="50.47" transform="translate(39.73 -11.22) rotate(20.73)"/><rect class="cls-3" x="46.47" y="77.73" width="8.13" height="50.47" transform="translate(164.72 92.15) rotate(110.73)"/><circle class="cls-1" cx="96.19" cy="57.62" r="10.62"/><line class="cls-4" x1="137" y1="89" x2="87" y2="139"/><line class="cls-5" x1="51" y1="104" x2="81" y2="132"/><line class="cls-5" x1="97" y1="58" x2="127" y2="86"/></svg>