<svg xmlns="http://www.w3.org/2000/svg" viewBox="0 0 811.81 322.47"><defs><style>.cls-1{fill:#ff6c4d;}.cls-2{fill:#fff;}.cls-3{fill:#ff8b6b;}.cls-4,.cls-5{fill:none;stroke-miterlimit:10;}.cls-4{stroke:#fff;stroke-width:3px;}.cls-5{stroke:#ff6c4d;stroke-width:6px;}</style></defs><title>cover</title><g id="圖層_6" data-name="圖層 6"><rect class="cls-1" x="722.5" y="54.73" width="8.52" height="102.46"/><polygon class="cls-1" points="728.79 161.01 717.8 161.01 677.79 201.03 775.72 201.03 735.77 161.08 728.79 161.01"/><path class="cls-2" d="M726.75,218.48a12,12,0,0,0,12-12H714.8A12,12,0,0,0,726.75,218.48Z"/><polygon class="cls-3" points="729.96 161.02 752.78 201.03 775.72 201.29 735.77 161.08 729.96 161.02"/><rect class="cls-1" x="77.32" y="2.77" width="8.52" height="169.46"/><polygon class="cls-1" points="83.62 176.06 72.63 176.06 32.61 216.07 130.54 216.07 90.59 176.12 83.62 176.06"/><path class="cls-2" d="M81.58,233.52a12,12,0,0,0,12-12H69.62A12,12,0,0,0,81.58,233.52Z"/><polygon class="cls-3" points="84.78 176.07 107.6 216.07 130.54 216.33 90.59 176.12 84.78 176.07"/><rect class="cls-1" x="319.7" y="186.66" width="11.84" height="52.04"/><rect class="cls-2" x="315.67" y="206.56" width="19.63" height="11.23"/><polygon class="cls-1" points="336.86 148.09 336.41 148.09 336.41 174.36 313.51 174.36 313.51 149.59 303.13 167.57 314.37 187.04 336.86 187.04 348.1 167.57 336.86 148.09"/><polygon class="cls-1" points="314.37 276.25 314.83 276.25 314.83 249.99 337.72 249.99 337.72 274.76 348.1 256.78 336.86 237.3 314.37 237.3 303.13 256.78 314.37 276.25"/><rect class="cls-3" x="386.52" y="223.6" width="19.63" height="61.37"/><rect class="cls-1" x="393.44" y="162.26" width="4.65" height="61.35"/><rect class="cls-2" x="382.81" y="233.08" width="27.05" height="11.23"/><polygon class="cls-1" points="514.34 260.94 503.33 260.94 502.91 219.2 513.45 219.2 514.34 260.94"/><rect class="cls-2" x="495.86" y="231.73" width="25.45" height="10.57"/><polygon class="cls-3" points="586.63 272.98 566.99 272.98 570.78 211.61 581.98 211.61 586.63 272.98"/><rect class="cls-2" x="563.29" y="238.01" width="27.05" height="11.23"/><polygon class="cls-3" points="444.23 147.16 454.82 147.16 454.82 158.24 452.53 162.11 454.82 163.22 451.04 167.57 455.95 169.76 452.53 172.41 459.73 175.43 452.53 179.59 456.14 181.67 451.98 184.8 455 187.04 451.04 189.57 456.33 189.57 454.25 192.92 454.25 206.99 445.18 206.99 444.23 147.16"/><polygon class="cls-1" points="462.35 267.92 442.72 267.92 444.23 192.06 457.7 206.54 462.35 267.92"/><rect class="cls-2" x="439.01" y="216.03" width="27.05" height="11.23"/><polyline class="cls-4" points="487.32 196.6 497.09 196.6 499.76 193.13 503.36 203.13 508.03 195.2 510.56 200.6 514.43 191.72 518.83 197.09 531.54 197.09"/><circle class="cls-5" cx="509.43" cy="197.09" r="22.11"/><path class="cls-1" d="M582.66,224.07v-15h-3.13v-8s-1.4-10.78,6.21-10.78,7.23,7.23,7.23,7.23,7.65-13.83-6.77-13.83-13.78,14.46-13.78,24.74l-5.43-.13v17.16Z"/><polygon class="cls-3" points="520.67 273.42 498.45 273.42 502.74 255.67 515.41 255.67 520.67 273.42"/></g></svg>