<svg id="圖層_1" data-name="圖層 1" xmlns="http://www.w3.org/2000/svg" viewBox="0 0 174.82 171.3"><defs><style>.cls-1{fill:#a0d4fc;}.cls-2{fill:#2697e6;}.cls-3{fill:#feb503;}.cls-4{fill:#fdb503;}.cls-5{fill:#2797e4;}.cls-6{fill:#fff;}.cls-7{fill:#fd9466;}.cls-8{fill:#fb9569;}.cls-9{fill:#2d98e2;}.cls-10{fill:#0f8dd8;}.cls-11{fill:#2597e6;}</style></defs><title>footerlogo</title><g id="nPJik6"><path class="cls-1" d="M29,41.11a6.9,6.9,0,0,1,4.74-6.63c5.8-2.06,11.59-4.15,17.38-6.21l24.62-8.71,9-3.24c2.31-.83,4.44-.15,6.6.7,5,2,10,3.9,15.07,5.82l14.11,5.38c6.56,2.51,13.11,5.08,19.71,7.48a7.13,7.13,0,0,1,4.72,8.67,6.65,6.65,0,0,1-7.64,5c-3.34-.62-6.4-2.21-9.57-3.39-6.46-2.41-12.88-4.88-19.32-7.34Q99.16,35.07,90,31.51c-.61-.23-1.25-.43-1.84-.72a3.06,3.06,0,0,0-2.53,0c-3,1.09-6,2.19-9.07,3.27q-9.76,3.51-19.55,7c-6.29,2.24-12.58,4.51-18.9,6.65A6.83,6.83,0,0,1,29,41.11Z"/><path class="cls-2" d="M93.9,77.83a5.64,5.64,0,0,1-2.11,4.58A7,7,0,0,1,80.25,79a.92.92,0,0,1,0-.71.55.55,0,0,0,.3-.52c-.08-1.3.19-2.58.2-3.86,0-7.09,0-14.17,0-21.25,0-1.08-.32-2.14-.22-3.23,0-.25-.12-.39-.36-.44-.1-2.84,2.46-5.7,5.61-6.26a7,7,0,0,1,8.14,5.55,2.1,2.1,0,0,1,0,1.14c-.6.43-.53,1.07-.53,1.68V77.23c0,.18,0,.35,0,.53C93.44,78.52,93.75,77.67,93.9,77.83Zm-.31-29.55-.09-.17a.6.6,0,0,0-.09.15c0,.06,0,.11.08.17Z"/><path class="cls-3" d="M17.4,66.94c0,3.51,0,7,0,10.52A7,7,0,0,1,3.53,79a10.48,10.48,0,0,1-.29-2.5q0-9.76,0-19.54a7.22,7.22,0,0,1,7.45-7.43,7.08,7.08,0,0,1,6.69,6.7c.06,1.79,0,3.58,0,5.36Z"/><path class="cls-4" d="M54.39,66.86c.07-2.56-.19-5.12.12-7.66a6.92,6.92,0,0,1,7.39-6.13,6.8,6.8,0,0,1,6.57,6.54c.11,6.13.14,12.27,0,18.4-.12,4.65-5.47,7.68-9.75,5.73l-1.24-.55c0-.33-.3-.46-.5-.65a7.24,7.24,0,0,1-2.45-5.7c0-1.4,0-2.81,0-4.21A55.55,55.55,0,0,0,54.39,66.86Z"/><path class="cls-5" d="M54.39,66.86a55.55,55.55,0,0,1,.1,5.77c0,1.4,0,2.81,0,4.21A7.24,7.24,0,0,0,57,82.54c.2.19.48.32.5.65L44.5,78c-.52-.21-1-.39-1.58-.58a1.77,1.77,0,0,0-.88-.52q-3.34-1.36-6.71-2.68c-2.06-.8-4.09-1.62-5.32-3.67-.33-.56-.35-1.3-1-1.7,0-.42,0-.84-.06-1.25a7,7,0,0,1,9.59-7l15,6C53.85,66.7,54.12,66.77,54.39,66.86Z"/><path class="cls-5" d="M136.71,84.16c-.47-.11-1,.36-1.43,0,.09-.81-.54-.38-.79-.38q-11.15,0-22.29,0c-.32,0-.73-.18-.91.29-3-.22-5.62-3.24-5.69-6.58,0-.55.05-1.11.07-1.67a7.25,7.25,0,0,1,7.15-5.47c2.27,0,4.54.14,6.8-.11,2.71.19,5.42,0,8.13.08,1.11,0,2.23,0,3.34,0a3.07,3.07,0,0,1,.15,1.24c0,1.78,0,3.57,0,5.35C131.14,79.74,132.49,82.74,136.71,84.16Z"/><path class="cls-6" d="M83.73,117.48c1.72.7,1.9,1,1.84,2.7a7.36,7.36,0,0,1-4.44,6.62,2,2,0,0,1-2,0,1.76,1.76,0,0,1-1-1.47c0-.7.54-.94,1-1.19a5,5,0,0,0,3.13-4.49c0-.73-.12-.91-.8-.5s-1.64.94-2.5,1.34a1.88,1.88,0,0,1-2.23-.41c-1-1-.83-1.77.45-2.31a19.68,19.68,0,0,0,4.07-2.18c.27-.2.63-.31.78-.75a4.85,4.85,0,0,0-1.93-.14c-1.24,0-1.81-.57-1.82-1.79,0-2.59,0-5.19,0-7.78,0-1.32.54-1.89,1.83-1.89q7.68,0,15.36,0c1.34,0,1.9.58,1.9,1.93q0,3.84,0,7.68c0,1.28-.57,1.83-1.86,1.85-.66,0-1.31,0-2.24,0a13.25,13.25,0,0,0,3.85,2.42c.54.25,1.11.42,1.65.67a1.07,1.07,0,0,1,.51,1.71,2.14,2.14,0,0,1-2.82.89c-.48-.21-1-.45-1.42-.69-1.31-.69-1.31-.69-1.32.84v5a1.56,1.56,0,0,1-1,1.59,1.74,1.74,0,0,1-1.88-.27,1.58,1.58,0,0,1-.53-1.31c0-2,0-4.07,0-6.1,0-1,.26-1.23,1.6-1.85-.9-.9-1.81-1.76-2.62-2.7-.4-.47-2.5-.36-3,.08C85.49,115.76,84.67,116.57,83.73,117.48Zm.09-7.39c-.49,0-1,0-1.46,0-.68,0-.94.24-.93.91s.15,1.1.91,1.09,1.81,0,2.72,0c.73,0,1.18-.09,1.17-1s-.42-1.07-1.16-1C84.65,110.11,84.23,110.08,83.82,110.09Zm7.79,2c.6,0,1.19,0,1.78,0s.64-.58.65-1.06,0-.93-.69-.92H90c-.41,0-.59.22-.64.65-.13,1.08,0,1.32,1.1,1.33C90.85,112.08,91.23,112.07,91.61,112.07Zm-7.84-4.32h1.67c.69,0,.77-.42.77-1s-.06-1-.77-1c-1,0-2,0-2.92,0-.71,0-1.1.13-1.1,1s.38,1,1.09,1C82.93,107.73,83.35,107.75,83.77,107.75Zm7.81,0c.55,0,1.11,0,1.67,0,.79,0,.78-.49.8-1s-.16-.91-.83-.89c-.94,0-1.89,0-2.83,0-.74,0-1.06.17-1.06,1s.38,1,1.09,1A11.2,11.2,0,0,1,91.58,107.75Zm-12.75-2.93h-.1v8.12h.1Z"/><path class="cls-7" d="M136.71,84.16c-4.22-1.42-5.57-4.42-5.48-7.27.06-1.78,0-3.57,0-5.35a3.07,3.07,0,0,0-.15-1.24,39.31,39.31,0,0,1,.18-4.6,7.16,7.16,0,0,1,7.29-5.7,6.93,6.93,0,0,1,6.56,6.59c.09,3.81.1,7.63,0,11.44S140.78,85,136.71,84.16Z"/><path class="cls-6" d="M71.1,116.69a3.09,3.09,0,0,1,1.26.29l.18.24v.8l-.21.22h-.22a2.18,2.18,0,0,0-1.23-.21c-2.13,0-4.27,0-6.41,0-.66,0-1.7.29-1.48-1.06a1.41,1.41,0,0,0-.22-.07c-.29,1.09-1.12,2-1.35,3.27.58-.38,1.06-.59,1-1.24,0-.3.15-.45.46-.43,0,.3-.35.77.36.69l3.38,0a.42.42,0,0,0,.47,0h1.15l.26,0,.61.11h0l.24.21h0a2.9,2.9,0,0,1-2.24,4.09,7.45,7.45,0,0,1-2.4.08c-.59-.08-1.09-.43-1-1.11s.62-.53,1.07-.54a11.8,11.8,0,0,0,1.46-.09.83.83,0,0,0,.59-.69.32.32,0,0,0-.36-.4c-1.86.2-3.93-.79-5.52,1.06a5.11,5.11,0,0,1-2.2,1.19c-.27.1-.64.09-.73.54l.51.1a54.93,54.93,0,0,0,7.14.27,29.5,29.5,0,0,0,5.63-.3l.63,0a2.43,2.43,0,0,1,.7,1l-.08.64a.45.45,0,0,0-.22.41.07.07,0,0,0,0,.1,1.07,1.07,0,0,0-.53.56l-.45.23c-.43,0-.87-.08-1.27.19L65,127a2.32,2.32,0,0,0-1.28,0l-4.21-.06a8.63,8.63,0,0,0-2.32-.35l-.41-.09a.36.36,0,0,0-.43-.17l-.67-.24a.3.3,0,0,0-.37-.17l-.45-.25q0-.16-.18-.12l-1-.75c-.79-.91-.84-.91-1.76.21a.28.28,0,0,0-.16.12,2.48,2.48,0,0,0-1.05,1l-.43.28-1.07,0-.38-.26a4.62,4.62,0,0,1-.47-1.88l.24-.6.2-.24h0l.22-.21a1.52,1.52,0,0,0,.83-.62.54.54,0,0,0,.48-.37l0-.07,0,.07a1.19,1.19,0,0,0,.92-1.13c0-1,0-1.94,0-2.91,0-.52-.22-.78-.78-.62l-1.05,0a1.64,1.64,0,0,0-.83-.44h0a3.7,3.7,0,0,1-.27-1.68c0-.1.08-.2.11-.3a2.87,2.87,0,0,1,2-.55c.93,0,1.88,0,2.82,0l.29.11a1.15,1.15,0,0,0,.56.55h0a31.67,31.67,0,0,1,.17,5.33,2.54,2.54,0,0,0,2.14,2.47v-1.26l.61-.45a2.76,2.76,0,0,0,1.89-.83,1.18,1.18,0,0,0,.65-.59.91.91,0,0,0,.47-.61c.22-.24.63-.51-.08-.64a3.14,3.14,0,0,0-1.26,0c-.72,0-1.44-.06-2.16-.06s-1.33-.32-1.12-1.25l.56-.47.61,0c.34.05.48-.14.38-.42a2.18,2.18,0,0,1,.06-1h0l.25-.18a5,5,0,0,0,2.59-1c.22-.2.55-.61.15-.74-.58-.2-1.48-.46-1.81.21-.62,1.27-1.47,1-2.44.66h0a2.1,2.1,0,0,1,0-2.1L56,112a.73.73,0,0,0,.6-.24l.63,0c.43.38.85.08,1.27,0h2.73c.44.24.91.18,1-.3s-.49-.53-.9-.53h-3l-.62-.43-.16-.23v0c0-1.88-.05-3.76-.07-5.63a.58.58,0,0,0,.06-.17l.16-.24.31-.33a18.23,18.23,0,0,1,3.13-.14c.37,0,.79.08,1-.35a.36.36,0,0,0,.06-.2l.15-.2a1,1,0,0,0,.6-.47l1.06-.07h.21l.63,0c.43.22.18,1,.85,1h2.94l1,.22a.15.15,0,0,0,.15.06L70,104h0a.89.89,0,0,0,.44.61l0,5.27a.39.39,0,0,0-.17.43.18.18,0,0,0-.1.14.7.7,0,0,0-.47.43.13.13,0,0,0-.13,0l-3.79,0c-.29,0-.6.08-.6.44s.35.39.62.38c1.12,0,2.24,0,3.36-.07l1.89,0,1,.46h0l.2.26.15.35c0,.36-.06.71-.1,1.07-.21.23-.43.45-.65.68a.7.7,0,0,0-.64.17h-.63c-.18,0-.31,0-.33.21l-.13.31a.65.65,0,0,0-.39.5h0c-1.22.47-2.49.17-3.74.26-.26,0-.63-.06-.66.33s.33.48.66.47a20.47,20.47,0,0,0,3.13-.09,4.63,4.63,0,0,0,1.66,0Zm-12.08,0a3.25,3.25,0,0,0,.73.06c1.08-.1,2.44.51,3-1.13.08-.24.45-.35.73-.34.54,0,.78-.22.69-.77s.1-1.12-.65-1.25a.91.91,0,0,0-1.16.62A4,4,0,0,1,60,116.16C59.66,116.29,59.26,116.26,59,116.71Zm4.9-7.92h0c-1,0-2,0-3,0-.32,0-.68.13-.68.52s.33.48.67.48c1.92,0,3.84,0,5.76,0,.35,0,.78-.06.78-.51s-.41-.49-.77-.49Zm-.06-4H61c-.32,0-.69,0-.67.45s.36.36.64.37h5.67c.31,0,.71,0,.68-.45s-.45-.36-.75-.36Zm0,2.88h2.73c.3,0,.71.06.71-.4s-.4-.41-.7-.41H61c-.31,0-.7,0-.66.46s.37.36.65.36ZM68,113.28v0c-.21,0-.41,0-.62,0-.47,0-1.1-.09-1,.65s.64.48,1.07.52c.74.08,1.25-.76,2-.5.11,0,.2-.17.16-.32a.38.38,0,0,0-.37-.31C68.78,113.26,68.37,113.28,68,113.28Zm.34,11.24,0-.11H60.8v.11Z"/><path class="cls-6" d="M43.58,105.39c.79.24.86.86.72,1.5a1.18,1.18,0,0,1-1.27,1c-1-.09-1.22.43-1.11,1.27a.34.34,0,0,1,0,.1c0,1.94,0,2,1.89,2a1.36,1.36,0,0,1,1.51,1.39c0,.86-.56,1.42-1.54,1.48-1.9.12-1.84.12-1.88,2.07,0,1,.29,1.29,1.26,1.24,1.15-.07,1.77.51,1.77,1.44s-.59,1.52-1.74,1.52q-9.88,0-19.76,0c-1.07,0-1.7-.59-1.72-1.45s.64-1.5,1.74-1.53c1.42,0,1.42,0,1.43-1.44,0-.28,0-.57,0-.84.11-.82-.29-1.06-1-1a6.62,6.62,0,0,1-1.26,0,1.33,1.33,0,0,1-1.29-1.4,1.35,1.35,0,0,1,1.36-1.45c.49,0,1,0,1.47,0s.73-.28.74-.79-.08-.86-.68-.47a1.68,1.68,0,0,1-1.61,0,1.37,1.37,0,0,1-.47-2.48,19.52,19.52,0,0,0,3.4-4,2,2,0,0,1,2.38-.87,1.11,1.11,0,0,1,.87,1.37c-.22,1,.38.92,1,.91h12.4c.47,0,1-.15,1.37.3h-15a.41.41,0,0,0,.38.24H42.7A1.12,1.12,0,0,0,43.58,105.39Zm-15.83,3.38c-.31.48,0,1-.14,1.53-.17.74.13,1.18,1,1.21s1.25-.25,1.2-1.12c0-.53,0-1,0-1.58,0-.33.08-.73-.42-.81l-.79,0h-.23L28,108c-.14,0-.2,0-.17.16Zm6.5.88c0-.35,0-.7,0-1s-.21-.67-.69-.7c-1.15-.09-1.35.07-1.35,1.22,0,.48,0,1,0,1.46,0,.7.42.87,1,.86s1.06-.12,1-.86C34.24,110.28,34.25,110,34.25,109.65Zm4.68-.07c0-1.63,0-1.59-.86-1.67s-1.38.22-1.25,1.22a8.8,8.8,0,0,1,0,1.36c0,.73.36,1,1,1s1.12-.14,1.06-.93C38.91,110.21,38.93,109.9,38.93,109.58Zm-6.72,6.27c0,1.7.08,1.8,1.24,1.75.67,0,.94-.38.79-.93-.24-.84.75-2.07-.65-2.5C32.48,113.82,32.21,114.22,32.21,115.85Zm4.62.05c.14.47-.31,1.18.31,1.57a1.4,1.4,0,0,0,1.5,0c.64-.73.18-1.73.27-2.61,0-.29,0-.57-.39-.65l-.21,0C37,114,36.83,114.22,36.83,115.9Zm-7.17-.11c-.17-.45.37-1.23-.37-1.51-.46-.17-1.22-.41-1.54.35s0,2.79.41,2.93l.21,0C29.48,117.75,29.66,117.52,29.66,115.79Z"/><path class="cls-4" d="M119.62,70.2c-2.26.25-4.53.07-6.8.11a7.25,7.25,0,0,0-7.15,5.47,2.22,2.22,0,0,1-.17-1c0-4.84,0-9.67,0-14.51a7.21,7.21,0,0,1,5.11-7,7.11,7.11,0,0,1,8,3,6.24,6.24,0,0,1,1.06,3.36C119.65,63.19,119.63,66.7,119.62,70.2Z"/><path class="cls-6" d="M121.23,108.84c1.26,0,2.52,0,3.78,0s1.83.6,1.84,1.68-.59,1.7-1.8,1.71c-2.17,0-4.35,0-6.52,0-.89,0-1,.23-.69,1,1.63,4,4,7.43,8,9.54a1.24,1.24,0,0,1,.57,1.93c-.74,1.3-1.81,1.75-2.84,1.14a18.89,18.89,0,0,1-5.92-5.58,29.8,29.8,0,0,1-2.07-3.65c-.13-.26-.14-.71-.53-.67s-.31.42-.41.68a18.37,18.37,0,0,1-7.59,9c-1.31.81-2.18.67-3.1-.51-.69-.88-.6-1.48.39-2a17.75,17.75,0,0,0,4.05-3.16,16.6,16.6,0,0,0,3.69-6.65c.25-.79,0-1.07-.83-1-2.1,0-4.2,0-6.31,0a1.65,1.65,0,0,1-1.75-2.06,1.59,1.59,0,0,1,1.76-1.32h6.52c1.47,0,1.48,0,1.54-1.53.05-1.22,0-2.45.11-3.67s.75-2,2-1.93,1.69.8,1.63,2.12-.1,2.73-.22,4.09c-.06.71.19.94.87.92C118.63,108.81,119.93,108.83,121.23,108.84Zm-4.65.39v.11h9v-.11Zm-4.08.14v-.11h-7.28v.11Z"/><path class="cls-6" d="M138.39,104.34l-.79.49a3.09,3.09,0,0,0-1.3.37c-.36.13-1,.06-1,.59s.71.22,1.09.28a1.13,1.13,0,0,0,.31-.06l1.05,0a.72.72,0,0,0,.62.22h0c.53,1.34.21,1.83-1.2,1.85a3.13,3.13,0,0,0-.53,0c-.46.1-1.28-.29-1.26.47s.83.4,1.3.43c.84,0,1.6-.06,2.14.91.37.68.86-.2,1.28-.36s.12-.45-.09-.69c-.48-.56-.28-1.12.43-1.31a1.47,1.47,0,0,1,1.12.17c.32.19.63.32.95,0a2.45,2.45,0,0,1,1.77-.49l.37.29,0,.82-.18.27c-.48.25-.73.51,0,.82l.19.19a1,1,0,0,1-.28,1.39,1,1,0,0,1-1.35-.09c-.56-.53-1-.31-1.46,0a1.85,1.85,0,0,1-1.9.23c-1.18-.58-2.4-.19-3.6-.29a.49.49,0,0,0-.57.36.44.44,0,0,0,.14.48c.23.21.53.15.8.15h11.44a4.53,4.53,0,0,0,.52,0,.46.46,0,0,0,.46-.47.47.47,0,0,0-.46-.49,8.7,8.7,0,0,0-1.25,0c-1,.08-1.48-.29-1.43-1.3l.49-.56,2.07,0c.36,0,.76,0,.79-.46s-.42-.43-.74-.45l-2.16-.13a.15.15,0,0,0-.12-.08l-.28-.42,0-.6a.4.4,0,0,0,.22-.42l.22-.22a9.74,9.74,0,0,1,2.29-.15c.33,0,.78.09.8-.41s-.41-.48-.76-.48l-2.31,0L146,105a1.4,1.4,0,0,1,.07-1.63.16.16,0,0,0,.12-.08.42.42,0,0,0,.43-.16h.41c.15.17.29.17.43,0h2.1a5.63,5.63,0,0,0,1.69,0l.39.19.65.64a.2.2,0,0,0,.06.18c0,1,0,2,0,3l-.05.84a2.8,2.8,0,0,0-.16,1.69l0,.41c-.42,1.67-.35,1.84.84,1.9l.39.22.23.21h0c.49,1.3.12,2.67.3,4l-.7.86a.41.41,0,0,0-.43.2h-.64a4.54,4.54,0,0,1-1.21-.73.11.11,0,0,0-.06-.13c-.24-.73.37-1.63-.42-2.27-2.8,0-5.6-.06-8.41-.07-2.66,0-5.32,0-8,.06-.89.46-.3,1.24-.39,1.87,0,.11,0,.23-.08.35l-.16.27-.43.43a.41.41,0,0,0-.42.2l-1,0a2.36,2.36,0,0,1-.87-2.21,18.79,18.79,0,0,0-.06-2c0-.17.09-.35.14-.52l.68-.67a.09.09,0,0,0,.11,0c.49,0,1.22.12,1.13-.65a17.21,17.21,0,0,0-.3-3.36c0-.21,0-.42,0-.62l0-3h0l.16-.22a.13.13,0,0,0,.09-.11l.59-.3h.42c.6.24,1.06-.09,1.53-.39a.14.14,0,0,0,.15,0,.4.4,0,0,0,.43-.17l.62-.25,1.28-.06.2.07.62.63,0,.63Z"/><path class="cls-6" d="M30.92,144.53c0-2.5,0-4.91,0-7.33,0-1.21.57-1.71,1.77-1.64A1.23,1.23,0,0,1,34,136.88c0,4.17,0,8.34,0,12.51a1.49,1.49,0,0,1-1.18,1.54,2,2,0,0,1-2.33-.75c-.91-1.37-1.76-2.78-2.64-4.18s-1.79-2.89-2.69-4.34c-.37.2-.21.46-.21.68,0,2.35,0,4.69,0,7,0,1.1-.51,1.61-1.48,1.64a1.47,1.47,0,0,1-1.63-1.63c0-4,0-8,0-12a1.66,1.66,0,0,1,1.19-1.78,2.13,2.13,0,0,1,2.58.88c1.54,2.42,3,4.87,4.55,7.31C30.35,144.07,30.4,144.41,30.92,144.53Z"/><path class="cls-8" d="M29.05,68.86c.61.4.63,1.14,1,1.7,1.23,2,3.26,2.87,5.32,3.67q3.36,1.32,6.71,2.68a1.77,1.77,0,0,1,.88.52A7,7,0,0,1,32,83.09a6.89,6.89,0,0,1-3.12-5.76c-.08-2.52,0-5,0-7.55A4.33,4.33,0,0,1,29.05,68.86Z"/><path class="cls-6" d="M145.27,119.83h7.19a1.28,1.28,0,0,1,1.4,1.25c.09.79-.48,1.32-1.41,1.32-2.49,0-5,0-7.47,0-.83,0-1.17.22-1.18,1.12,0,3.06-.6,3.63-3.67,3.78-1,0-1.91.12-2.54-.84a1.26,1.26,0,0,1-.2-1.37,1,1,0,0,1,1.09-.46c.28,0,.56,0,.84,0a1.23,1.23,0,0,0,1.19-1.88c-.2-.43-.58-.33-.91-.33h-7.36c-1.15,0-1.67-.4-1.68-1.25s.65-1.32,1.75-1.32c2.42,0,4.84,0,7.25,0,.52,0,1,0,1.19-.6a1.25,1.25,0,0,1,1.21-.69,1.84,1.84,0,0,0,1.47-.94h-6.1c-.35,0-.7,0-1.05,0a1.06,1.06,0,0,1-1-1.16,1,1,0,0,1,1-1.08c1.2,0,2.39,0,3.58,0,2.28,0,4.55,0,6.83,0a1.72,1.72,0,0,1,1.77,1.2c.29.77-.4,1.1-.91,1.46-.79.55-1.59,1.08-2.38,1.62Zm-13.53.36v.11h8.57v-.11Zm21,.1v-.08h-7.5v.08Z"/><path class="cls-6" d="M137.27,137.59a1.9,1.9,0,0,1,2-2c2.38-.06,4.77,0,7.15,0a1.34,1.34,0,0,1,1.37,1.52,1.36,1.36,0,0,1-1.45,1.46c-1.68,0-3.36.05-5,0-.82,0-1.19.21-1.08,1.06a3.93,3.93,0,0,1,0,.84c-.08.75.26,1,1,1,1.36,0,2.73,0,4.1,0,1.09,0,1.72.62,1.69,1.56s-.67,1.42-1.72,1.43c-1.4,0-2.81,0-4.21,0-.64,0-.83.23-.85.86-.1,2.63-.12,2.63,2.55,2.63,1.16,0,2.31,0,3.47,0s1.71.51,1.69,1.52a1.43,1.43,0,0,1-1.63,1.5c-2.28,0-4.55,0-6.83,0a2.21,2.21,0,0,1-2.34-2.3c0-3.23,0-6.45,0-9.67a.5.5,0,0,1,.18-.47,2.31,2.31,0,0,1,.19.58c0,3.08-.05,6.16-.07,9.24,0,.38-.07.8.32,1.08V137.27ZM141,136l0,.11h5.2V136Zm-.55.12a1.08,1.08,0,0,0-1-.09C139.71,136.22,140,136.12,140.47,136.1Z"/><path class="cls-6" d="M55.08,145.82c.77,2.05,1.92,2.75,3.84,2.33a2.49,2.49,0,0,0,2.14-2.8c0-2.66,0-5.33,0-8,0-1.27.54-1.8,1.67-1.8a1.33,1.33,0,0,1,1.5,1.4c0,3,.18,6-.07,9-.34,4.11-3.33,5.37-6.56,5.2-3.65-.19-5.59-2.35-5.6-6q0-4.05,0-8.1c0-1.09.46-1.54,1.52-1.56s1.51.44,1.52,1.55c0,.74,0,1.47-.05,2.2a37.82,37.82,0,0,0-.13,5.32C54.87,145,54.72,145.47,55.08,145.82Zm6.36-.47h.11v-5.81h-.11Z"/><path class="cls-6" d="M106.29,135.57a1.8,1.8,0,0,1,2,1.27c1.58,4,3.17,7.93,4.73,11.91.43,1.09.12,1.8-.81,2.14a1.54,1.54,0,0,1-2.16-1c-.32-.78-.6-1.57-.88-2.36a.86.86,0,0,0-.93-.66c-1.26,0-2.53,0-3.79,0a.84.84,0,0,0-.91.67c-.26.76-.56,1.51-.85,2.26-.45,1.16-1.17,1.53-2.18,1.13s-1.21-1.1-.76-2.26q2-5.09,4-10.16c.23-.59.45-1.18.72-1.75A1.73,1.73,0,0,1,106.29,135.57Zm.17,4.67-.26,0c-.22.54-.44,1.09-.65,1.63-.9,2.34-.77,2.5,1.77,2.18h.1c.39,0,.48-.21.34-.56C107.32,142.42,106.89,141.33,106.46,140.24Z"/><path class="cls-6" d="M123,143.41c.08-1.67-.16-3.75.12-5.8a2,2,0,0,1,2-2,26.51,26.51,0,0,1,5.77.09,4.14,4.14,0,0,1,3.73,4.44c0,2.66-1.31,4.41-3.67,4.91a18,18,0,0,1-3.88.17c-.68,0-.93.24-.9.92,0,1.05,0,2.11,0,3.16a1.49,1.49,0,0,1-1.49,1.67,1.54,1.54,0,0,1-1.66-1.64C122.94,147.52,123,145.66,123,143.41Zm5.33-4.88c-2.2,0-2.2,0-2.2,2.23a5.93,5.93,0,0,1,0,.73c0,.61.16.92.83.88.94-.05,1.89,0,2.83-.1a1.87,1.87,0,0,0,0-3.73A14.42,14.42,0,0,0,128.3,138.53Z"/><path class="cls-6" d="M92,144.41c0-1.65,0-3.3,0-4.94,0-.64-.21-.89-.85-.86-.8,0-1.61,0-2.41,0a1.34,1.34,0,0,1-1.43-1.47,1.32,1.32,0,0,1,1.38-1.51c3.25,0,6.51,0,9.76,0a1.43,1.43,0,0,1,1.42,1.51,1.41,1.41,0,0,1-1.43,1.49,17.94,17.94,0,0,1-2.2,0c-.83-.07-1.1.22-1.08,1.06,0,3.19,0,6.37,0,9.56a1.6,1.6,0,1,1-3.19.12c0-1.64,0-3.29,0-4.93ZM91.54,136v.1h7V136Zm-1.33,0c-.49,0-.76-.18-1,.09A1.37,1.37,0,0,0,90.21,136Z"/><path class="cls-6" d="M41.48,144.45c0-1.62,0-3.23,0-4.84,0-.81-.26-1.06-1-1a20.38,20.38,0,0,1-2.21,0,1.5,1.5,0,0,1,0-3c3.18,0,6.37,0,9.56,0a1.49,1.49,0,0,1,1.53,1.54,1.41,1.41,0,0,1-1.56,1.46c-.71,0-1.41.05-2.11,0s-1,.23-1,1c0,3.16,0,6.31,0,9.47a1.74,1.74,0,0,1-.77,1.72,1.61,1.61,0,0,1-2.46-1.41c0-1.65,0-3.3,0-4.94ZM38.72,136v.11H48.1V136Zm-.84,2.1v.11h3.28v-.11Z"/><path class="cls-6" d="M76.63,151a8,8,0,0,1-6.32-13.18,7.92,7.92,0,0,1,8.44-2.64A7.31,7.31,0,0,1,84.49,143c-.3,3.15-3,4.86-5.84,3.57a1.91,1.91,0,0,0-1.87,0,3.41,3.41,0,0,1-5.12-3.36c.11-2.72,2-5.43,5.7-4.55a1.56,1.56,0,0,0,1.22-.06,1.79,1.79,0,0,1,2.52,2.08c-.19,1.07-.39,2.14-.56,3.21-.1.7-.27,1.51.65,1.76s1.46-.28,1.86-1a5.89,5.89,0,0,0-1.59-7,7,7,0,0,0-7.27-1.37A7.16,7.16,0,0,0,72.55,149a7.83,7.83,0,0,0,7.25.6c.2-.07.38-.19.58-.25s.67-.26.86.08-.2.53-.46.68A7.91,7.91,0,0,1,76.63,151Zm5.28-4.93a5.4,5.4,0,0,0-.69-.08,1.25,1.25,0,0,1-1.21-1.3,10.53,10.53,0,0,1,.61-3.35c.52-1.14-.23-2.64-1.26-2.48a9.8,9.8,0,0,1-3.33,0c-1.49-.25-3,1-3.56,2.65-.73,2-.31,3.86,1.2,4.61a3.71,3.71,0,0,0,3.68-.25c.35-.21.62-.44,1-.08A2.88,2.88,0,0,0,81.91,146.11Z"/><path class="cls-9" d="M170.75,67.11c0,3.29,0,6.59,0,9.88a7,7,0,1,1-14.07.27q-.13-10.35,0-20.71a7,7,0,0,1,6.21-7,7.16,7.16,0,0,1,7.52,4.84,7.33,7.33,0,0,1,.34,2.28Q170.74,61.91,170.75,67.11Zm-.54-11.17c-.17-.67-.36-1.34-.49-2s-1.1.27-1.05-.41c0-.5.33-.89-.15-1.37a6.37,6.37,0,0,0-5.66-1.93,6.12,6.12,0,0,0-5.5,6.4c0,6.91.08,13.81,0,20.71a6.07,6.07,0,0,0,5.14,6.3,6.38,6.38,0,0,0,6.4-2.36,14.14,14.14,0,0,0,1.32-3c.35-.31.2-.72.21-1.09V57C170.4,56.67,170.54,56.26,170.21,55.94Z"/><path class="cls-6" d="M153.91,143.18c0,2,0,4,0,6,0,1.22-.54,1.83-1.54,1.85s-1.67-.64-1.67-1.84q0-5.94,0-11.88c0-1.23.49-1.74,1.59-1.74s1.61.54,1.62,1.73C153.93,139.26,153.92,141.22,153.91,143.18Z"/><path class="cls-6" d="M119.23,143.29c0,2,0,3.92,0,5.88,0,1.21-.61,1.88-1.63,1.86s-1.6-.7-1.6-1.91q0-5.88,0-11.76c0-1.12.45-1.71,1.33-1.81,1.21-.13,1.87.42,1.88,1.65,0,2,0,4.06,0,6.09Zm-2.66,5.43h.11v-9.17h-.11Z"/><path class="cls-6" d="M41.66,121.2a1.76,1.76,0,0,1,1.27.4,10.89,10.89,0,0,1,2.25,3.4,1.19,1.19,0,0,1-.69,1.65,1.78,1.78,0,0,1-2.44-.46,27.89,27.89,0,0,1-1.89-3.26C39.69,122,40.42,121.18,41.66,121.2Z"/><path class="cls-6" d="M25.22,121.24a1.44,1.44,0,0,1,1.42,2,10.05,10.05,0,0,1-1.59,2.93,1.89,1.89,0,0,1-2.15.68c-1.11-.3-1.47-1.14-.82-2.07a25.6,25.6,0,0,0,1.47-2.53A1.68,1.68,0,0,1,25.22,121.24Z"/><path class="cls-10" d="M93.9,77.83c-.15-.16-.46.69-.51-.07,0-.18,0-.35,0-.53V51.12c0-.61-.07-1.25.53-1.68a7.34,7.34,0,0,1,.1.93V76.59C94,77,93.94,77.42,93.9,77.83Z"/><path class="cls-10" d="M80.18,49c.24.05.39.19.36.44-.1,1.09.22,2.15.22,3.23,0,7.08,0,14.16,0,21.25,0,1.28-.28,2.56-.2,3.86a.55.55,0,0,1-.3.52,2.12,2.12,0,0,1-.14-1V49.84C80.11,49.57,80.16,49.29,80.18,49Z"/><path class="cls-6" d="M139.1,106.24l0-.58.19-.26.21-.2c.59-.15,1.17-.29.39-1-.26-.24-.17-.57-.12-.88.12-.09.24-.18.35-.28a3.88,3.88,0,0,1,1.48,0,.1.1,0,0,0,.12.06c.27.42.52.37.75,0h0a.65.65,0,0,0,.53-.36l.29-.06,1.06.15a.89.89,0,0,1,.16,1.21c-.61.32-.72.65,0,1h0l.12,1c-.11.12-.21.25-.31.37a1.73,1.73,0,0,1-1.49-.15.84.84,0,0,0-1.21.08A1.71,1.71,0,0,1,139.1,106.24Z"/><path class="cls-6" d="M36,121.63a1.59,1.59,0,0,1,.89.26,5.08,5.08,0,0,1,1.38,3.87,1.52,1.52,0,0,1-1.55,1,1.5,1.5,0,0,1-1.52-1.06,17.15,17.15,0,0,1-.67-2.43A1.33,1.33,0,0,1,36,121.63Z"/><path class="cls-6" d="M53.46,107.19a1.74,1.74,0,0,1-1.26-.45c-.49-.4-1-.8-1.47-1.18s-1.12-.91-.72-1.74a1.79,1.79,0,0,1,2.18-.77,7.85,7.85,0,0,1,2.42,1.79,1.17,1.17,0,0,1,.16,1.46A1.65,1.65,0,0,1,53.46,107.19Z"/><path class="cls-6" d="M29.05,123.76c-.07-1.3.39-2,1.35-2.09s1.67.6,1.82,1.76a15.19,15.19,0,0,1,.11,1.78,1.49,1.49,0,0,1-1.47,1.59,1.34,1.34,0,0,1-1.61-1.27A17.11,17.11,0,0,1,29.05,123.76Z"/><path class="cls-6" d="M50.79,108.25a5.79,5.79,0,0,1,3.06,2.06,1.26,1.26,0,0,1-.22,1.64,1.4,1.4,0,0,1-1.81.36,24.22,24.22,0,0,1-2.51-1.89,1,1,0,0,1-.21-1.26A1.82,1.82,0,0,1,50.79,108.25Z"/><path class="cls-6" d="M62.93,118.48c-.31,0-.48.13-.46.43,0,.65-.46.86-1,1.24.23-1.3,1.06-2.18,1.35-3.27A1.41,1.41,0,0,1,63,117c-.22,1.35.82,1,1.48,1.06,2.14,0,4.28,0,6.41,0a2.18,2.18,0,0,1,1.23.21c-.49.47-1.13.08-1.66.29H69.2l-5.48-.12c-.07-.11-.15-.11-.22,0l-.19.08C63.18,118.42,63.06,118.37,62.93,118.48Z"/><path class="cls-10" d="M111.29,84c.18-.47.59-.29.91-.29q11.14,0,22.29,0c.25,0,.88-.43.79.38h-.65c-.28-.31-.65-.19-1-.19H115.22c-.34,0-.71-.12-1,.19a5.32,5.32,0,0,1-1.69,0,.53.53,0,0,0-.83,0Z"/><path class="cls-6" d="M137.27,137.59l.44-.32v12.12c-.39-.28-.32-.7-.32-1.08,0-3.08.05-6.16.07-9.24a2.31,2.31,0,0,0-.19-.58A1.39,1.39,0,0,1,137.27,137.59Z"/><path class="cls-5" d="M114.23,84.13c.28-.31.65-.19,1-.19h18.42c.34,0,.71-.12,1,.19a5.06,5.06,0,0,1-1.86.07h-17.4C115,84.21,114.61,84.16,114.23,84.13Z"/><path class="cls-6" d="M55.08,145.82c-.36-.35-.21-.8-.2-1.2A37.82,37.82,0,0,1,55,139.3C55,141.47,55.06,143.64,55.08,145.82Z"/><path class="cls-5" d="M111.71,84.11a.53.53,0,0,1,.83,0C112.25,84.39,112,84.28,111.71,84.11Z"/><path class="cls-10" d="M93.59,48.28l-.1.15c0-.06-.08-.11-.08-.17a.6.6,0,0,1,.09-.15Z"/><path class="cls-6" d="M78.83,104.82v8.12h-.1v-8.12Z"/><path class="cls-6" d="M68.29,124.52H60.8v-.11h7.51Z"/><path class="cls-6" d="M68.29,119.17l.26,0Z"/><path class="cls-6" d="M43.58,105.39a1.12,1.12,0,0,1-.88.23H29a.41.41,0,0,1-.38-.24h15Z"/><path class="cls-6" d="M28,108l-.17.16C27.78,108,27.84,108,28,108Z"/><path class="cls-6" d="M116.58,109.23h9v.11h-9Z"/><path class="cls-6" d="M112.5,109.37h-7.28v-.11h7.28Z"/><ellipse class="cls-6" cx="136.03" cy="120.25" rx="6.06" ry="0.08"/><ellipse class="cls-6" cx="148.97" cy="120.25" rx="5.3" ry="0.06"/><path class="cls-6" d="M141,136h5.18v.11H141Z"/><path class="cls-6" d="M140.47,136.1c-.49,0-.76.12-1-.09A1.08,1.08,0,0,1,140.47,136.1Z"/><path class="cls-6" d="M61.44,145.35v-5.8h.11v5.81Z"/><path class="cls-6" d="M91.54,136H98.6v.1h-7Z"/><path class="cls-6" d="M90.21,136a1.37,1.37,0,0,1-1,.09C89.45,135.8,89.72,136,90.21,136Z"/><path class="cls-6" d="M38.72,136H48.1v.11H38.72Z"/><path class="cls-6" d="M37.88,138.06h3.28v.11H37.88Z"/><path class="cls-6" d="M81.91,146.11a2.88,2.88,0,0,1-3.55-.27c-.39-.36-.66-.13-1,.08a3.71,3.71,0,0,1-3.68.25c-1.51-.75-1.93-2.61-1.2-4.61.59-1.65,2.07-2.9,3.56-2.65a9.8,9.8,0,0,0,3.33,0c1-.16,1.78,1.34,1.26,2.48a10.53,10.53,0,0,0-.61,3.35,1.25,1.25,0,0,0,1.21,1.3A5.4,5.4,0,0,1,81.91,146.11Zm-4.13-3.58A1.46,1.46,0,0,0,76.5,141a2,2,0,0,0-1.83,1.93,1.37,1.37,0,0,0,1.3,1.59A2,2,0,0,0,77.78,142.53Z"/><path class="cls-11" d="M170.2,78.26a14.14,14.14,0,0,1-1.32,3,6.38,6.38,0,0,1-6.4,2.36,6.07,6.07,0,0,1-5.14-6.3c.1-6.9,0-13.8,0-20.71a6.12,6.12,0,0,1,5.5-6.4,6.37,6.37,0,0,1,5.66,1.93c.48.48.18.87.15,1.37,0,.68.9-.35,1.05.41s.32,1.35.49,2Z"/><path class="cls-10" d="M170.2,78.26q0-11.16,0-22.32c.33.32.19.73.2,1.09V77.17C170.4,77.54,170.55,78,170.2,78.26Z"/><path class="cls-6" d="M116.57,148.72v-9.18h.11v9.17Z"/><path class="cls-6" d="M63.72,118.41H63.5C63.57,118.3,63.65,118.3,63.72,118.41Z"/></g></svg>