<svg id="0847b680-3a81-4ba1-a4a9-08b78a8ce7ed" data-name="圖層 1" xmlns="http://www.w3.org/2000/svg" viewBox="0 0 104.85 70.13"><defs><style>.\35 51364e0-69f8-4b7b-b0c3-4851c906ede2{fill:#fff;}</style></defs><title>index_</title><path class="551364e0-69f8-4b7b-b0c3-4851c906ede2" d="M36.2,4.29A30.77,30.77,0,1,1,5.42,35.06,30.81,30.81,0,0,1,36.2,4.29m0-2A32.77,32.77,0,1,0,69,35.06,32.77,32.77,0,0,0,36.2,2.29Z"/><path class="551364e0-69f8-4b7b-b0c3-4851c906ede2" d="M68.65,4.29A30.77,30.77,0,1,1,37.87,35.06,30.81,30.81,0,0,1,68.65,4.29m0-2a32.77,32.77,0,1,0,32.77,32.77A32.77,32.77,0,0,0,68.65,2.29Z"/></svg>