<svg id="3b6b3e04-fe59-42e2-8b2a-41a8366b551a" data-name="圖層 1" xmlns="http://www.w3.org/2000/svg" viewBox="0 0 253 276.85"><defs><style>.fc6bed76-b2ed-488b-9c04-b466c66a09f8{fill:#ff3b49;}</style></defs><title>index</title><path class="fc6bed76-b2ed-488b-9c04-b466c66a09f8" d="M238.31,6.37c7,0,11.27,4.11,11.27,9.62a8,8,0,0,1-2.69,5.95l-1.78-1.48A5.93,5.93,0,0,0,247.19,16c0-4.11-3.37-6.83-8.79-6.83s-8.91,2.6-8.91,6.75a6.59,6.59,0,0,0,2.43,5l-1.72,1.51a8.38,8.38,0,0,1-3.11-6.66C227.1,10.42,231.27,6.37,238.31,6.37Z"/><path class="fc6bed76-b2ed-488b-9c04-b466c66a09f8" d="M227.49,38.41l9.2-5.27V29.24h-9.2V26.49h21.69v6.81c0,4.41-1.57,7.57-6.1,7.57A5.88,5.88,0,0,1,237,36l-9.5,5.56Zm11.42-9.17v3.64c0,3.4,1.36,5.27,4.17,5.27S247,36.28,247,32.88V29.24Z"/><path class="fc6bed76-b2ed-488b-9c04-b466c66a09f8" d="M249.17,45.28V57.8h-2.31V48h-6.8v8.23h-2.34V48h-7.9V58.12h-2.34V45.28Z"/><path class="fc6bed76-b2ed-488b-9c04-b466c66a09f8" d="M234.11,72.62V64.69l-6.63-2.1V59.81l21.69,7.37v3l-21.69,7.37v-2.9Zm2.19-.68,3.31-1c2.46-.8,4.82-1.48,7.34-2.19V68.6c-2.54-.68-4.88-1.39-7.34-2.16l-3.31-1.07Z"/><path class="fc6bed76-b2ed-488b-9c04-b466c66a09f8" d="M246.86,83.36V76.79h2.31V92.68h-2.31V86.11H227.49V83.36Z"/><path class="fc6bed76-b2ed-488b-9c04-b466c66a09f8" d="M249.17,96.56v2.75H227.49V96.56Z"/><path class="fc6bed76-b2ed-488b-9c04-b466c66a09f8" d="M249.17,102.3v2.87l-11.75,3.52c-2.54.77-4.62,1.27-7.16,2.1v.12c2.54.8,4.62,1.33,7.16,2.1l11.75,3.49v2.78l-21.69-6.89v-3.17Z"/><path class="fc6bed76-b2ed-488b-9c04-b466c66a09f8" d="M249.17,122.25V125H227.49v-2.75Z"/><path class="fc6bed76-b2ed-488b-9c04-b466c66a09f8" d="M246.86,135.44v-6.57h2.31v15.89h-2.31v-6.57H227.49v-2.75Z"/><path class="fc6bed76-b2ed-488b-9c04-b466c66a09f8" d="M235.92,151.72l13.25-6.51v2.93L243,150.92c-1.6.71-3.11,1.36-4.73,2.13v.12c1.63.77,3.14,1.51,4.73,2.16l6.13,2.81V161l-13.25-6.51h-8.43v-2.75Z"/><path class="fc6bed76-b2ed-488b-9c04-b466c66a09f8" d="M164.4,6.37c7,0,11.18,3.82,11.18,9.26s-4.23,9.26-11.18,9.26-11.3-3.82-11.3-9.26S157.45,6.37,164.4,6.37Zm0,15.71c5.44,0,8.79-2.57,8.79-6.45s-3.34-6.45-8.79-6.45-8.91,2.54-8.91,6.45S159,22.08,164.4,22.08Z"/><path class="fc6bed76-b2ed-488b-9c04-b466c66a09f8" d="M175.17,29.57v6.18c0,4.88-1.63,8.14-6.36,8.14s-6.72-3.25-6.72-8V32.32h-8.61V29.57Zm-10.86,6c0,3.82,1.39,5.62,4.5,5.62S173,39.24,173,35.43V32.32h-8.64Z"/><path class="fc6bed76-b2ed-488b-9c04-b466c66a09f8" d="M175.17,48.27V60.78h-2.31V51h-6.8v8.23h-2.34V51h-7.9V61.11h-2.34V48.27Z"/><path class="fc6bed76-b2ed-488b-9c04-b466c66a09f8" d="M175.17,65.67v2.84l-13.67,7.9L157,78.72v.15c2.19-.15,4.62-.35,6.86-.35h11.27v2.6H153.49V78.3l13.7-7.9,4.47-2.34v-.12c-2.19.12-4.5.33-6.78.33H153.49v-2.6Z"/><path class="fc6bed76-b2ed-488b-9c04-b466c66a09f8" d="M101.17,7.61V20.13H98.86V10.36h-6.8v8.23H89.72V10.36h-7.9V20.45H79.49V7.61Z"/><path class="fc6bed76-b2ed-488b-9c04-b466c66a09f8" d="M87.92,28.53,101.17,22V25L95,27.73c-1.6.71-3.11,1.36-4.73,2.13V30c1.63.77,3.14,1.51,4.73,2.16L101.17,35v2.84L87.92,31.28H79.49V28.53Z"/><path class="fc6bed76-b2ed-488b-9c04-b466c66a09f8" d="M101.17,40.72V53.24H98.86V43.47h-6.8V51.7H89.72V43.47h-7.9V53.56H79.49V40.72Z"/><path class="fc6bed76-b2ed-488b-9c04-b466c66a09f8" d="M82.33,56.55l1.86,1.63a8.52,8.52,0,0,0-2.69,6c0,2.84,1.42,4.56,3.55,4.56s2.93-1.57,3.85-3.61L90.25,62c.86-2,2.4-4.41,5.56-4.41,3.34,0,5.77,2.9,5.77,6.83a8.89,8.89,0,0,1-2.69,6.39l-1.75-1.45a7,7,0,0,0,2-4.94c0-2.46-1.24-4.05-3.2-4.05S93.1,62.27,92.38,64l-1.33,3.11c-1.09,2.51-2.57,4.47-5.8,4.47-3.43,0-6.15-2.84-6.15-7.37A10.36,10.36,0,0,1,82.33,56.55Z"/><path class="fc6bed76-b2ed-488b-9c04-b466c66a09f8" d="M98.86,86.94V80.37h2.31V96.26H98.86V89.69H79.49V86.94Z"/><path class="fc6bed76-b2ed-488b-9c04-b466c66a09f8" d="M90.4,98.1c7,0,11.18,3.82,11.18,9.26s-4.23,9.26-11.18,9.26-11.3-3.82-11.3-9.26S83.45,98.1,90.4,98.1Zm0,15.71c5.44,0,8.79-2.57,8.79-6.45s-3.34-6.45-8.79-6.45-8.91,2.54-8.91,6.45S85,113.81,90.4,113.81Z"/><path class="fc6bed76-b2ed-488b-9c04-b466c66a09f8" d="M8.33,6l1.86,1.63a8.52,8.52,0,0,0-2.69,6c0,2.84,1.42,4.56,3.55,4.56s2.93-1.57,3.85-3.61l1.36-3.14c.86-2,2.4-4.41,5.56-4.41,3.34,0,5.77,2.9,5.77,6.83a8.89,8.89,0,0,1-2.69,6.39l-1.75-1.45a7,7,0,0,0,2-4.94c0-2.46-1.24-4.05-3.2-4.05s-2.9,1.89-3.61,3.58l-1.33,3.11C16,19.06,14.48,21,11.25,21,7.82,21,5.1,18.17,5.1,13.65A10.36,10.36,0,0,1,8.33,6Z"/><path class="fc6bed76-b2ed-488b-9c04-b466c66a09f8" d="M27.17,25.28V37.79H24.86V28h-6.8v8.23H15.72V28H7.82V38.12H5.49V25.28Z"/><path class="fc6bed76-b2ed-488b-9c04-b466c66a09f8" d="M27.17,42.68V55.19H24.86V45.43h-6.8v8.23H15.72V45.43H7.82V55.52H5.49V42.68Z"/><path class="fc6bed76-b2ed-488b-9c04-b466c66a09f8" d="M24.86,71.23V64.66h2.31V80.55H24.86V74H5.49V71.23Z"/><path class="fc6bed76-b2ed-488b-9c04-b466c66a09f8" d="M27.17,84.43v2.75H18.09V97.3h9.08V100H5.49V97.3H15.72V87.18H5.49V84.43Z"/><path class="fc6bed76-b2ed-488b-9c04-b466c66a09f8" d="M27.17,106v12.52H24.86v-9.76h-6.8v8.23H15.72v-8.23H7.82v10.09H5.49V106Z"/><path class="fc6bed76-b2ed-488b-9c04-b466c66a09f8" d="M27.17,127.78v2.84L15.37,132.9l-7,1.27v.12c2.34.5,4.67,1,7,1.57l11.81,3v2.49l-11.81,3c-2.31.53-4.64,1-7,1.54v.15l7,1.24,11.81,2.28v2.63l-21.69-4.5v-3.28l13.08-3.28c1.72-.38,3.28-.71,4.94-1.06V140c-1.66-.35-3.23-.74-4.94-1.09L5.49,135.65V132.4Z"/><path class="fc6bed76-b2ed-488b-9c04-b466c66a09f8" d="M16.4,154.53c7,0,11.18,3.82,11.18,9.26s-4.23,9.26-11.18,9.26-11.3-3.82-11.3-9.26S9.45,154.53,16.4,154.53Zm0,15.71c5.44,0,8.79-2.57,8.79-6.45s-3.34-6.45-8.79-6.45-8.91,2.54-8.91,6.45S11,170.24,16.4,170.24Z"/><path class="fc6bed76-b2ed-488b-9c04-b466c66a09f8" d="M5.49,189.65l9.2-5.27v-3.91H5.49v-2.75H27.17v6.81c0,4.41-1.57,7.57-6.1,7.57A5.88,5.88,0,0,1,15,187.2l-9.5,5.56Zm11.42-9.17v3.64c0,3.4,1.36,5.27,4.17,5.27S25,187.52,25,184.12v-3.64Z"/><path class="fc6bed76-b2ed-488b-9c04-b466c66a09f8" d="M27.17,196.52v2.75H7.82v9.47H5.49V196.52Z"/><path class="fc6bed76-b2ed-488b-9c04-b466c66a09f8" d="M27.17,212.56V218c0,6.66-3.88,10.24-10.77,10.24S5.49,224.66,5.49,218.12v-5.56ZM7.73,217.76c0,5.12,3.2,7.63,8.67,7.63S25,222.88,25,217.76v-2.46H7.73Z"/><circle class="fc6bed76-b2ed-488b-9c04-b466c66a09f8" cx="20" cy="256.42" r="7.5"/><circle class="fc6bed76-b2ed-488b-9c04-b466c66a09f8" cx="99" cy="137.42" r="5.5"/><circle class="fc6bed76-b2ed-488b-9c04-b466c66a09f8" cx="172.5" cy="101.92" r="7"/><circle class="fc6bed76-b2ed-488b-9c04-b466c66a09f8" cx="241.5" cy="190.92" r="7"/></svg>