<svg id="5d908e6c-f65f-4646-9238-b30dc449dd50" data-name="圖層 1" xmlns="http://www.w3.org/2000/svg" viewBox="0 0 799.83 201"><defs><style>.\34 6c769be-f136-41a4-821b-a55de69d2090{fill:#fff;}.\37 9e58bec-41bc-42e0-b3d3-5c229cf563d2{fill:#e34b52;}</style></defs><title>index_</title><path class="46c769be-f136-41a4-821b-a55de69d2090" d="M24,7a3.72,3.72,0,0,0-3.14-1.74,3,3,0,0,0-2,.73A2.47,2.47,0,0,0,18,7.95q0,1.22,3,2.9t3,1.68a4.6,4.6,0,0,1,2.12,3.74A6.72,6.72,0,0,1,24.43,21a6,6,0,0,1-4.64,1.82q-3.74,0-5.89-3.74l2.06-2a4.85,4.85,0,0,0,1.52,2,3.55,3.55,0,0,0,2.28.92,2.74,2.74,0,0,0,2.2-1,3.45,3.45,0,0,0,.81-2.31,2.67,2.67,0,0,0-.6-1.73q-.6-.74-4.07-2.28T14.62,8.38a5.69,5.69,0,0,1,1.6-4.1,5.33,5.33,0,0,1,4-1.66,6.71,6.71,0,0,1,5.26,2.16Z"/><path class="46c769be-f136-41a4-821b-a55de69d2090" d="M33.63,22.35H30.56V12.59H29.07v-2.5h1.49V5.59h3.07v4.5h2.44v2.5H33.63Z"/><path class="46c769be-f136-41a4-821b-a55de69d2090" d="M50.62,22.35h-3V21.21a4.93,4.93,0,0,1-4,1.55,5,5,0,0,1-4.2-2A7.55,7.55,0,0,1,37.88,16a7,7,0,0,1,1.6-4.64,5.11,5.11,0,0,1,4.1-1.92,5,5,0,0,1,4,1.58V9.83h3ZM48,16.08a4.2,4.2,0,0,0-1-2.87,3.4,3.4,0,0,0-5,0,4.21,4.21,0,0,0-1,2.9A4.23,4.23,0,0,0,42,19,3.23,3.23,0,0,0,44.5,20.1,3.18,3.18,0,0,0,47,19,4.3,4.3,0,0,0,48,16.08Z"/><path class="46c769be-f136-41a4-821b-a55de69d2090" d="M58.16,11A4.72,4.72,0,0,1,62,9.42q4.31,0,4.31,5.29v7.64h-3V15.73q0-4-2.44-4-2.66,0-2.66,4.25v6.34H55.09V9.83h3.07Z"/><path class="46c769be-f136-41a4-821b-a55de69d2090" d="M74.1,22.35H71V.71H74.1Z"/><path class="46c769be-f136-41a4-821b-a55de69d2090" d="M81.14,16.39a5.21,5.21,0,0,0,.79,3,2.5,2.5,0,0,0,2.19,1.17,2.66,2.66,0,0,0,2.79-2.15l2.92.48a5.55,5.55,0,0,1-5.7,3.9,5.91,5.91,0,0,1-4.55-1.82,6.68,6.68,0,0,1-1.7-4.74,7.18,7.18,0,0,1,1.63-4.93,6.28,6.28,0,0,1,8.81-.1A7,7,0,0,1,89.88,16v.41ZM87,14.68a3.49,3.49,0,0,0-.81-2.28,2.58,2.58,0,0,0-2.09-1,2.54,2.54,0,0,0-2.09,1,3.55,3.55,0,0,0-.81,2.23Z"/><path class="46c769be-f136-41a4-821b-a55de69d2090" d="M92,9.83h3.55l3.26,7.51,3.42-7.51h3.49L96.83,27.58H93.4l3.87-7.16Z"/><path class="46c769be-f136-41a4-821b-a55de69d2090" d="M127.25,17.35,131.4,2.86h1.71l4.34,14.48L141.7,3.12h3.42l-6.53,19.62h-2.47L132,9.52,128.1,22.73h-2.5L119.48,3.12h3.42Z"/><path class="46c769be-f136-41a4-821b-a55de69d2090" d="M159.76,22.35h-3V21.21a4.93,4.93,0,0,1-4,1.55,5,5,0,0,1-4.2-2A7.55,7.55,0,0,1,147,16a7,7,0,0,1,1.6-4.64,5.11,5.11,0,0,1,4.1-1.92,5,5,0,0,1,4,1.58V9.83h3Zm-2.66-6.27a4.2,4.2,0,0,0-1-2.87,3.4,3.4,0,0,0-5,0,4.21,4.21,0,0,0-1,2.9,4.23,4.23,0,0,0,1,2.92,3.23,3.23,0,0,0,2.54,1.11,3.18,3.18,0,0,0,2.5-1.08A4.3,4.3,0,0,0,157.1,16.08Z"/><path class="46c769be-f136-41a4-821b-a55de69d2090" d="M167.31,11a4.72,4.72,0,0,1,3.83-1.55q4.31,0,4.31,5.29v7.64h-3V15.73q0-4-2.44-4-2.66,0-2.66,4.25v6.34h-3.07V9.83h3.07Z"/><path class="46c769be-f136-41a4-821b-a55de69d2090" d="M191.84,21.27q0,6.43-6,6.43a7.07,7.07,0,0,1-4.5-1.44,4.55,4.55,0,0,1-1.84-3.76h3.26a2.55,2.55,0,0,0,.92,1.81,2.9,2.9,0,0,0,2.06.89q3,0,3-3.61V20.8a4.72,4.72,0,0,1-3.95,1.65,5.07,5.07,0,0,1-4.15-1.84,6.87,6.87,0,0,1-1.51-4.5,7.26,7.26,0,0,1,1.62-4.82A5.22,5.22,0,0,1,185,9.36,4.41,4.41,0,0,1,188.76,11V9.77h3.07Zm-2.63-5.45a3.94,3.94,0,0,0-1-2.76,3.22,3.22,0,0,0-2.5-1,3.15,3.15,0,0,0-2.52,1.14,4.31,4.31,0,0,0-1,2.88q0,3.74,3.49,3.74a3.11,3.11,0,0,0,2.52-1.12A4.29,4.29,0,0,0,189.21,15.82Z"/><path class="46c769be-f136-41a4-821b-a55de69d2090" d="M15.5,42.37H41.25q19.68,0,32,13T85.61,88.25q0,19.84-12.49,32.93t-32,13.1H15.5ZM31.1,120.2h5.3q33,0,33-31.87t-33-31.87H31.1Z"/><path class="79e58bec-41bc-42e0-b3d3-5c229cf563d2" d="M122.71,88.25v13.93H93V88.25Z"/><path class="46c769be-f136-41a4-821b-a55de69d2090" d="M179,61q-5.9-8.33-15-8.33a14.1,14.1,0,0,0-9.69,3.48,11.82,11.82,0,0,0-3.94,9.31q0,5.83,14.31,13.85t14.46,8q10.14,7.57,10.15,17.87,0,14.08-8.1,22.79t-22.18,8.71q-17.87,0-28.17-17.87l9.84-9.69a23.15,23.15,0,0,0,7.27,9.69q5.3,4.39,10.9,4.39a13.09,13.09,0,0,0,10.52-4.54,16.49,16.49,0,0,0,3.86-11.05,12.76,12.76,0,0,0-2.88-8.25q-2.88-3.56-19.46-10.9t-16.58-21A27.2,27.2,0,0,1,142,47.9,25.47,25.47,0,0,1,161.17,40q15.9,0,25.14,10.3Z"/><path class="46c769be-f136-41a4-821b-a55de69d2090" d="M238.85,90.07q-5.6-5.6-12.57-5.6-8.18,0-12.87,5.91a22.51,22.51,0,0,0-4.69,14.46q0,8.56,5.3,14a17.28,17.28,0,0,0,12.87,5.45q6.51,0,12-5.75v14.08a29.08,29.08,0,0,1-14.69,3.63A28.39,28.39,0,0,1,202.51,127a31.82,31.82,0,0,1-8.63-22.56,31.64,31.64,0,0,1,8.86-22.64,29.34,29.34,0,0,1,22.18-9.31,25.75,25.75,0,0,1,13.93,3.79Z"/><path class="46c769be-f136-41a4-821b-a55de69d2090" d="M264.13,30.87V79.47q5.75-7,18.32-7a18,18,0,0,1,15,7.27q5.6,7.27,5.6,18v36.49H288.51V102.64q0-18.93-11.66-18.93-12.72,0-12.72,20.9v29.68H249.45V30.87Z"/><path class="46c769be-f136-41a4-821b-a55de69d2090" d="M374.07,104.31q0,14.08-8.63,23t-22.64,8.93q-14,0-22.79-8.93t-8.78-22.94q0-14,8.63-22.94t22.71-8.93q14.08,0,22.79,8.86T374.07,104.31Zm-48,.23q0,8.4,4.69,13.7a15.43,15.43,0,0,0,12.11,5.3,14.37,14.37,0,0,0,11.89-5.68,21.15,21.15,0,0,0,4.47-13.48,20.92,20.92,0,0,0-4.54-13.48,14.5,14.5,0,0,0-11.89-5.68,15.16,15.16,0,0,0-12,5.45Q326.07,96.13,326.07,104.53Z"/><path class="46c769be-f136-41a4-821b-a55de69d2090" d="M440.84,104.31q0,14.08-8.63,23t-22.64,8.93q-14,0-22.79-8.93T378,104.38q0-14,8.63-22.94t22.71-8.93q14.08,0,22.79,8.86T440.84,104.31Zm-48,.23q0,8.4,4.69,13.7a15.43,15.43,0,0,0,12.11,5.3,14.37,14.37,0,0,0,11.89-5.68A21.15,21.15,0,0,0,426,104.38a20.92,20.92,0,0,0-4.54-13.48,14.5,14.5,0,0,0-11.89-5.68,15.16,15.16,0,0,0-12,5.45Q392.84,96.13,392.84,104.53Z"/><path class="46c769be-f136-41a4-821b-a55de69d2090" d="M464.77,134.29H450.08V30.87h14.69Z"/><path class="46c769be-f136-41a4-821b-a55de69d2090" d="M527.9,81.38h8.88l-4.61,24.09-.23,1.84a26.3,26.3,0,0,0-.46,3.11q0,2.54,2.08,2.54,3.57,0,7.09-5.3a21.8,21.8,0,0,0,3.52-12.33q0-23.75-25.71-23.75a29.13,29.13,0,0,0-20.34,7.61q-8.36,7.61-8.36,20.35t9,20.29q9,7.55,21.79,7.55,10.95,0,16-3.92l7.72,6.34a51.92,51.92,0,0,1-25,6.34,38.48,38.48,0,0,1-27.09-10.72q-11.53-10.72-11.53-26.05a34.51,34.51,0,0,1,11.47-26.11A38,38,0,0,1,519,62.47q15.39,0,24.78,9t9.39,20.92q0,11.93-7.38,19.88t-14.87,8q-5,0-5-6.92-6,5.77-12.68,5.76A13.11,13.11,0,0,1,503,114.35a16.85,16.85,0,0,1-4.15-11.53,22.31,22.31,0,0,1,5.3-14.75q5.3-6.34,12.51-6.34t10,5.53Zm-10.72,9.45q-3.46,0-6.34,3.46a11.91,11.91,0,0,0-2.88,7.84q0,9.92,6.22,9.91,4.5,0,7.38-4.5A15.94,15.94,0,0,0,524.45,99v-.81a7,7,0,0,0-2.19-5.3A7.15,7.15,0,0,0,517.18,90.83Z"/><path class="46c769be-f136-41a4-821b-a55de69d2090" d="M568.88,40h11.81l51.94,69.2.3-66.78h15.45V136.1H636.72l-52.09-69-.15,67.23h-15.6Z"/><path class="46c769be-f136-41a4-821b-a55de69d2090" d="M689.41,134.29H675.33V55.55H654.89V42.37h55V55.55H689.41Z"/><path class="46c769be-f136-41a4-821b-a55de69d2090" d="M715.91,42.37h15.6V93.86q0,29.68,18.63,29.68t18.63-29.68V42.37H784.2v55q0,39.37-34.15,39.37T715.91,97.34Z"/><path class="46c769be-f136-41a4-821b-a55de69d2090" d="M37.87,162.83c3.72,3.48,8.53,8.45,10.63,11.85l-4.08,3a35.43,35.43,0,0,0-2.1-3.07c-21.47,1.05-24.34,1.13-26.49,1.86a36.84,36.84,0,0,0-1.58-4.61,8.33,8.33,0,0,0,3.36-2.35,54,54,0,0,0,8.57-11L31,160.53a66.47,66.47,0,0,1-8.82,10.31l16.58-.53c-1.58-1.78-3.2-3.48-4.69-5Zm-20.7,16.25H44.42V196.8H39.24v-2H22.1v2.06H17.17Zm4.93,4.61v6.47H39.24V183.7Z"/><path class="46c769be-f136-41a4-821b-a55de69d2090" d="M83,174.92c2.67,7.89,7.56,14.23,15.12,17.31a19.35,19.35,0,0,0-3.56,4.53c-7.32-3.44-12-9.34-15.16-17.14A27.83,27.83,0,0,1,64.31,196.8a14.24,14.24,0,0,0-3.6-4.08c9.26-4.12,13.1-10.84,14.68-17.79H61.48v-5H76.2c.4-3.8.36-7.48.4-10.8h5.26c0,3.32-.08,7-.49,10.8H97.27v5Z"/><path class="46c769be-f136-41a4-821b-a55de69d2090" d="M117.4,170.47V168.9a42.52,42.52,0,0,1-4.33,2.91h17.06v12.7h-14c-.08.4-.12.85-.2,1.25h15.2v10.8h-4.21v-1.09h-7.48v1.25h-4v-8.37a25.79,25.79,0,0,1-2.59,7.08,22.05,22.05,0,0,0-4.21-1.86c3.19-5.14,3.52-12.37,3.52-17.1v-4.08l-.93.49a25.66,25.66,0,0,0-2.51-4.61c4.69-2,9.42-5.3,12-9.18l4.41,1.74c-.24.36-.49.69-.73,1,3,1.74,6.35,3.72,8.21,5.05l-2.47,4c-1.09-.89-2.67-1.94-4.41-3.07v2.63Zm8.37,10.72v-1.66h-9.26c0,.53,0,1.09-.08,1.66Zm-9.18-6.06v1.58h9.18v-1.58Zm8.86-7.48-3.84-2.43c-.85.81-1.74,1.66-2.63,2.43Zm-6,21.39v2.87h7.48V189Zm18.48-3.19h-4.53V163.28h4.53Zm7.4-26.61V191.1c0,2.59-.49,3.88-2,4.65s-3.72,1-7,1a19.75,19.75,0,0,0-1.42-4.81c2.06,0,4.16,0,4.81,0s.93-.2.93-.89V159.23Z"/><path class="46c769be-f136-41a4-821b-a55de69d2090" d="M164.55,185.52a38.63,38.63,0,0,1-4.08,8.29,31,31,0,0,0-3.15-2.18,28.87,28.87,0,0,0,3.56-7.16Zm5.66-2.35V196.6h-4.65V183.17H158v-4h7.52V176H157.8v-4h3.92a24.3,24.3,0,0,0-1.17-4.21l3.32-.81H158.4v-3.92h6.91c-.36-1.09-.81-2.22-1.21-3.19l4.81-1.17c.61,1.33,1.33,3,1.82,4.37h5.78V167h-5.05l3.28.65c-.61,1.54-1.21,3.11-1.82,4.37h4.21v4h-6.92v3.11h6.27v4ZM164.39,167a20,20,0,0,1,1.33,4.21l-2.91.81h5.82a46,46,0,0,0,1.74-5Zm30.77,9.83H191.4v19.85h-4.69V176.86h-3.76v.48c0,5.94-.53,14.27-4,19.45a18,18,0,0,0-3.72-2.87,15.79,15.79,0,0,0,1.82-3.92l-2.87,1.78a49,49,0,0,0-3.15-6.07l3.15-1.7a40,40,0,0,1,3,5.3,43.73,43.73,0,0,0,1.25-12V163a57.39,57.39,0,0,0,12.25-3.44l3.68,3.52a62.71,62.71,0,0,1-11.48,3v6.35h12.21Z"/><path class="46c769be-f136-41a4-821b-a55de69d2090" d="M222,169.58H206.28v-3.8h6.67a37.7,37.7,0,0,0-2.59-5.1l3.76-1.74a36.07,36.07,0,0,1,3,5.38l-2.71,1.46H222Zm-1.66,2.75c4-2.18,4.45-5,4.45-7.6v-4.33h13.63v8.81c0,1.17.08,1.66.57,1.66h1.62a8.08,8.08,0,0,0,2-.28c.08,1.21.2,2.87.32,4a6.43,6.43,0,0,1-2.26.28h-2.1c-3.8,0-4.53-1.7-4.53-5.7v-4.33h-4.85v0c0,3.92-1.13,8.45-6.19,11.16a15.64,15.64,0,0,0-2.63-3v2H208V171.4h12.37Zm.08,8.13H208v-3.64h12.45Zm21.63-2.79a25.87,25.87,0,0,1-6.47,11.77,30.52,30.52,0,0,0,8.37,2.91,19,19,0,0,0-3,4.33,29.32,29.32,0,0,1-9.38-4,32.81,32.81,0,0,1-9.38,4.08,23.53,23.53,0,0,0-1.86-3.6v1.46h-8.29v1.7h-4.08v-14h12.37v10a27.38,27.38,0,0,0,7.44-2.87,28.26,28.26,0,0,1-5.3-7.52l2.63-.93h-3.76v-4.49H238.3l.81-.2Zm-25.84,8.57h-4.12v4.53h4.13Zm10.63-5.18a19.57,19.57,0,0,0,4.77,5.74,19,19,0,0,0,4.33-5.74Z"/><path class="46c769be-f136-41a4-821b-a55de69d2090" d="M272.59,169.58h-17v-3.8h7a37.81,37.81,0,0,0-2.59-5.1l3.76-1.74a36.07,36.07,0,0,1,3,5.38l-2.67,1.46h8.53ZM257.35,175V171.4h13.55V175Zm13.46,5.42H257.35v-3.64h13.46Zm.16,14.19h-9.42v1.7h-4v-14H271Zm-9.42-8.41v4.53h5.26v-4.53Zm30.45-9h-7.48v19.61h-5V177.27h-7.08v-4.73h7.08v-12.7h5v12.7H292Z"/><path class="46c769be-f136-41a4-821b-a55de69d2090" d="M340.16,189.48H324.71v2.91c0,2.14-.49,3.19-2.14,3.84s-3.88.61-6.92.61a15.59,15.59,0,0,0-1.46-4c1.9.08,4.33.08,4.93,0s.85-.12.85-.61v-2.75H303.6v-3.8H320v-1.17a29.46,29.46,0,0,0,4.45-2.35h-13V178.8H329l1-.24,2.71,2.47a56.56,56.56,0,0,1-7.72,4.65h15.12Zm-31.26-7.6h-4.57v-8.29h3l-.73-12a56.29,56.29,0,0,0,8.17-2.26l1.94,2.79a38.59,38.59,0,0,1-5.5,1.54l.08,1.17h5.13v3h-5l.08,1.37h5v2.06a31.61,31.61,0,0,0,2.83-1.54c-.77-.49-1.54-.93-2.26-1.33l2.22-1.9c.81.4,1.66.89,2.51,1.37a15.68,15.68,0,0,0,1.62-1.7l3.15.93a17.08,17.08,0,0,1-2.14,2.43,16.43,16.43,0,0,1,2.43,1.86l-2.39,2.1a27,27,0,0,0-2.34-2,29.64,29.64,0,0,1-3.28,2.1H332l.16-1.42h-4.77v-3h5.05l.08-1.37h-4.93v-3h5.14l.08-1.33h-5.46v-3h10.15c-.2,4.25-.49,9.38-.85,13.14h3v8.29h-4.77v-4.81h-26Zm2.91-8.29h6.55a25.75,25.75,0,0,0-1.82-1.86v.44h-4.81Zm12.54-7.44a21.23,21.23,0,0,0-2.1-1.7,20.56,20.56,0,0,1-3.28,2,22.23,22.23,0,0,0-2.51-2.14,18.38,18.38,0,0,0,3.07-1.58c-.77-.44-1.46-.85-2.18-1.21l2.14-1.86c.77.36,1.62.81,2.47,1.29a13.49,13.49,0,0,0,1.46-1.62l3.15.93a14.84,14.84,0,0,1-2,2.22c.81.57,1.54,1.13,2.1,1.62Z"/><path class="46c769be-f136-41a4-821b-a55de69d2090" d="M365.83,162.31c-1.05,3.4-2.39,7.44-3.52,10.59a13.16,13.16,0,0,1,3,8.37c0,2.63-.53,4.37-1.82,5.34a4.93,4.93,0,0,1-2.3.89,13.26,13.26,0,0,1-2.59.08,9.74,9.74,0,0,0-1.05-4.12,13.25,13.25,0,0,0,1.74,0,1.74,1.74,0,0,0,1.09-.32,3.11,3.11,0,0,0,.69-2.43,11.46,11.46,0,0,0-2.79-7.4c.81-2.43,1.62-5.7,2.26-8.37h-3.23v31.78h-4.21V160.69H362l.69-.2Zm19,30c.61,0,.81-.69.89-4.81a11.93,11.93,0,0,0,3.92,1.78c-.36,5.54-1.5,7.08-4.33,7.08h-2.79c-3.56,0-4.37-1.37-4.37-5.38v-8.25h-2.67c-.61,6.79-2.47,11.48-10.31,14.19a12.57,12.57,0,0,0-2.67-3.88c6.43-2,7.88-5.26,8.37-10.31H366V178.4h23v4.29H382.7V191c0,1.13.08,1.29.65,1.29ZM369,171.81h-3.15v-8h9.38A29.65,29.65,0,0,0,373.6,160l4.57-1.29a25.87,25.87,0,0,1,2.3,5.14h8.37v8h-3.19v3.6H369Zm1.29-3.84v3.28h13.91V168Z"/></svg>