<svg id="00b3bd7a-fd4f-4481-a7f9-302e05be805f" data-name="圖層 1" xmlns="http://www.w3.org/2000/svg" viewBox="0 0 309.5 202.06"><defs><style>.\34 5698335-7f4f-42d5-b54a-b18df9d84754{fill:#fff;}</style></defs><title>index_</title><circle class="45698335-7f4f-42d5-b54a-b18df9d84754" cx="1.39" cy="1.39" r="1.39"/><circle class="45698335-7f4f-42d5-b54a-b18df9d84754" cx="13.66" cy="1.39" r="1.39"/><circle class="45698335-7f4f-42d5-b54a-b18df9d84754" cx="25.93" cy="1.39" r="1.39"/><circle class="45698335-7f4f-42d5-b54a-b18df9d84754" cx="38.2" cy="1.39" r="1.39"/><circle class="45698335-7f4f-42d5-b54a-b18df9d84754" cx="50.47" cy="1.39" r="1.39"/><circle class="45698335-7f4f-42d5-b54a-b18df9d84754" cx="62.74" cy="1.39" r="1.39"/><circle class="45698335-7f4f-42d5-b54a-b18df9d84754" cx="75" cy="1.39" r="1.39"/><circle class="45698335-7f4f-42d5-b54a-b18df9d84754" cx="87.27" cy="1.39" r="1.39"/><circle class="45698335-7f4f-42d5-b54a-b18df9d84754" cx="99.54" cy="1.39" r="1.39"/><circle class="45698335-7f4f-42d5-b54a-b18df9d84754" cx="111.81" cy="1.39" r="1.39"/><circle class="45698335-7f4f-42d5-b54a-b18df9d84754" cx="124.08" cy="1.39" r="1.39"/><circle class="45698335-7f4f-42d5-b54a-b18df9d84754" cx="136.35" cy="1.39" r="1.39"/><circle class="45698335-7f4f-42d5-b54a-b18df9d84754" cx="148.62" cy="1.39" r="1.39"/><circle class="45698335-7f4f-42d5-b54a-b18df9d84754" cx="160.88" cy="1.39" r="1.39"/><circle class="45698335-7f4f-42d5-b54a-b18df9d84754" cx="173.15" cy="1.39" r="1.39"/><circle class="45698335-7f4f-42d5-b54a-b18df9d84754" cx="185.42" cy="1.39" r="1.39"/><circle class="45698335-7f4f-42d5-b54a-b18df9d84754" cx="197.69" cy="1.39" r="1.39"/><circle class="45698335-7f4f-42d5-b54a-b18df9d84754" cx="209.96" cy="1.39" r="1.39"/><circle class="45698335-7f4f-42d5-b54a-b18df9d84754" cx="222.23" cy="1.39" r="1.39"/><circle class="45698335-7f4f-42d5-b54a-b18df9d84754" cx="234.5" cy="1.39" r="1.39"/><circle class="45698335-7f4f-42d5-b54a-b18df9d84754" cx="246.76" cy="1.39" r="1.39"/><circle class="45698335-7f4f-42d5-b54a-b18df9d84754" cx="259.03" cy="1.39" r="1.39"/><circle class="45698335-7f4f-42d5-b54a-b18df9d84754" cx="271.3" cy="1.39" r="1.39"/><circle class="45698335-7f4f-42d5-b54a-b18df9d84754" cx="283.57" cy="1.39" r="1.39"/><circle class="45698335-7f4f-42d5-b54a-b18df9d84754" cx="295.84" cy="1.39" r="1.39"/><circle class="45698335-7f4f-42d5-b54a-b18df9d84754" cx="308.11" cy="1.39" r="1.39"/><circle class="45698335-7f4f-42d5-b54a-b18df9d84754" cx="1.39" cy="13.85" r="1.39"/><circle class="45698335-7f4f-42d5-b54a-b18df9d84754" cx="13.66" cy="13.85" r="1.39"/><circle class="45698335-7f4f-42d5-b54a-b18df9d84754" cx="25.93" cy="13.85" r="1.39"/><circle class="45698335-7f4f-42d5-b54a-b18df9d84754" cx="38.2" cy="13.85" r="1.39"/><circle class="45698335-7f4f-42d5-b54a-b18df9d84754" cx="50.47" cy="13.85" r="1.39"/><circle class="45698335-7f4f-42d5-b54a-b18df9d84754" cx="62.74" cy="13.85" r="1.39"/><circle class="45698335-7f4f-42d5-b54a-b18df9d84754" cx="75" cy="13.85" r="1.39"/><circle class="45698335-7f4f-42d5-b54a-b18df9d84754" cx="87.27" cy="13.85" r="1.39"/><circle class="45698335-7f4f-42d5-b54a-b18df9d84754" cx="99.54" cy="13.85" r="1.39"/><circle class="45698335-7f4f-42d5-b54a-b18df9d84754" cx="111.81" cy="13.85" r="1.39"/><circle class="45698335-7f4f-42d5-b54a-b18df9d84754" cx="124.08" cy="13.85" r="1.39"/><circle class="45698335-7f4f-42d5-b54a-b18df9d84754" cx="136.35" cy="13.85" r="1.39"/><circle class="45698335-7f4f-42d5-b54a-b18df9d84754" cx="148.62" cy="13.85" r="1.39"/><circle class="45698335-7f4f-42d5-b54a-b18df9d84754" cx="160.88" cy="13.85" r="1.39"/><circle class="45698335-7f4f-42d5-b54a-b18df9d84754" cx="173.15" cy="13.85" r="1.39"/><circle class="45698335-7f4f-42d5-b54a-b18df9d84754" cx="185.42" cy="13.85" r="1.39"/><circle class="45698335-7f4f-42d5-b54a-b18df9d84754" cx="197.69" cy="13.85" r="1.39"/><circle class="45698335-7f4f-42d5-b54a-b18df9d84754" cx="209.96" cy="13.85" r="1.39"/><circle class="45698335-7f4f-42d5-b54a-b18df9d84754" cx="222.23" cy="13.85" r="1.39"/><circle class="45698335-7f4f-42d5-b54a-b18df9d84754" cx="234.5" cy="13.85" r="1.39"/><circle class="45698335-7f4f-42d5-b54a-b18df9d84754" cx="246.76" cy="13.85" r="1.39"/><circle class="45698335-7f4f-42d5-b54a-b18df9d84754" cx="259.03" cy="13.85" r="1.39"/><circle class="45698335-7f4f-42d5-b54a-b18df9d84754" cx="271.3" cy="13.85" r="1.39"/><circle class="45698335-7f4f-42d5-b54a-b18df9d84754" cx="283.57" cy="13.85" r="1.39"/><circle class="45698335-7f4f-42d5-b54a-b18df9d84754" cx="295.84" cy="13.85" r="1.39"/><circle class="45698335-7f4f-42d5-b54a-b18df9d84754" cx="308.11" cy="13.85" r="1.39"/><circle class="45698335-7f4f-42d5-b54a-b18df9d84754" cx="1.39" cy="26.3" r="1.39"/><circle class="45698335-7f4f-42d5-b54a-b18df9d84754" cx="13.66" cy="26.3" r="1.39"/><circle class="45698335-7f4f-42d5-b54a-b18df9d84754" cx="25.93" cy="26.3" r="1.39"/><circle class="45698335-7f4f-42d5-b54a-b18df9d84754" cx="38.2" cy="26.3" r="1.39"/><circle class="45698335-7f4f-42d5-b54a-b18df9d84754" cx="50.47" cy="26.3" r="1.39"/><circle class="45698335-7f4f-42d5-b54a-b18df9d84754" cx="62.74" cy="26.3" r="1.39"/><circle class="45698335-7f4f-42d5-b54a-b18df9d84754" cx="75" cy="26.3" r="1.39"/><circle class="45698335-7f4f-42d5-b54a-b18df9d84754" cx="87.27" cy="26.3" r="1.39"/><circle class="45698335-7f4f-42d5-b54a-b18df9d84754" cx="99.54" cy="26.3" r="1.39"/><circle class="45698335-7f4f-42d5-b54a-b18df9d84754" cx="111.81" cy="26.3" r="1.39"/><circle class="45698335-7f4f-42d5-b54a-b18df9d84754" cx="124.08" cy="26.3" r="1.39"/><circle class="45698335-7f4f-42d5-b54a-b18df9d84754" cx="136.35" cy="26.3" r="1.39"/><circle class="45698335-7f4f-42d5-b54a-b18df9d84754" cx="148.62" cy="26.3" r="1.39"/><circle class="45698335-7f4f-42d5-b54a-b18df9d84754" cx="160.88" cy="26.3" r="1.39"/><circle class="45698335-7f4f-42d5-b54a-b18df9d84754" cx="173.15" cy="26.3" r="1.39"/><circle class="45698335-7f4f-42d5-b54a-b18df9d84754" cx="185.42" cy="26.3" r="1.39"/><circle class="45698335-7f4f-42d5-b54a-b18df9d84754" cx="197.69" cy="26.3" r="1.39"/><circle class="45698335-7f4f-42d5-b54a-b18df9d84754" cx="209.96" cy="26.3" r="1.39"/><circle class="45698335-7f4f-42d5-b54a-b18df9d84754" cx="222.23" cy="26.3" r="1.39"/><circle class="45698335-7f4f-42d5-b54a-b18df9d84754" cx="234.5" cy="26.3" r="1.39"/><circle class="45698335-7f4f-42d5-b54a-b18df9d84754" cx="246.76" cy="26.3" r="1.39"/><circle class="45698335-7f4f-42d5-b54a-b18df9d84754" cx="259.03" cy="26.3" r="1.39"/><circle class="45698335-7f4f-42d5-b54a-b18df9d84754" cx="271.3" cy="26.3" r="1.39"/><circle class="45698335-7f4f-42d5-b54a-b18df9d84754" cx="283.57" cy="26.3" r="1.39"/><circle class="45698335-7f4f-42d5-b54a-b18df9d84754" cx="295.84" cy="26.3" r="1.39"/><circle class="45698335-7f4f-42d5-b54a-b18df9d84754" cx="308.11" cy="26.3" r="1.39"/><circle class="45698335-7f4f-42d5-b54a-b18df9d84754" cx="1.39" cy="38.76" r="1.39"/><circle class="45698335-7f4f-42d5-b54a-b18df9d84754" cx="13.66" cy="38.76" r="1.39"/><circle class="45698335-7f4f-42d5-b54a-b18df9d84754" cx="25.93" cy="38.76" r="1.39"/><circle class="45698335-7f4f-42d5-b54a-b18df9d84754" cx="38.2" cy="38.76" r="1.39"/><circle class="45698335-7f4f-42d5-b54a-b18df9d84754" cx="50.47" cy="38.76" r="1.39"/><circle class="45698335-7f4f-42d5-b54a-b18df9d84754" cx="62.74" cy="38.76" r="1.39"/><circle class="45698335-7f4f-42d5-b54a-b18df9d84754" cx="75" cy="38.76" r="1.39"/><circle class="45698335-7f4f-42d5-b54a-b18df9d84754" cx="87.27" cy="38.76" r="1.39"/><circle class="45698335-7f4f-42d5-b54a-b18df9d84754" cx="99.54" cy="38.76" r="1.39"/><circle class="45698335-7f4f-42d5-b54a-b18df9d84754" cx="111.81" cy="38.76" r="1.39"/><circle class="45698335-7f4f-42d5-b54a-b18df9d84754" cx="124.08" cy="38.76" r="1.39"/><circle class="45698335-7f4f-42d5-b54a-b18df9d84754" cx="136.35" cy="38.76" r="1.39"/><circle class="45698335-7f4f-42d5-b54a-b18df9d84754" cx="148.62" cy="38.76" r="1.39"/><circle class="45698335-7f4f-42d5-b54a-b18df9d84754" cx="160.88" cy="38.76" r="1.39"/><circle class="45698335-7f4f-42d5-b54a-b18df9d84754" cx="173.15" cy="38.76" r="1.39"/><circle class="45698335-7f4f-42d5-b54a-b18df9d84754" cx="185.42" cy="38.76" r="1.39"/><circle class="45698335-7f4f-42d5-b54a-b18df9d84754" cx="197.69" cy="38.76" r="1.39"/><circle class="45698335-7f4f-42d5-b54a-b18df9d84754" cx="209.96" cy="38.76" r="1.39"/><circle class="45698335-7f4f-42d5-b54a-b18df9d84754" cx="222.23" cy="38.76" r="1.39"/><circle class="45698335-7f4f-42d5-b54a-b18df9d84754" cx="234.5" cy="38.76" r="1.39"/><circle class="45698335-7f4f-42d5-b54a-b18df9d84754" cx="246.76" cy="38.76" r="1.39"/><circle class="45698335-7f4f-42d5-b54a-b18df9d84754" cx="259.03" cy="38.76" r="1.39"/><circle class="45698335-7f4f-42d5-b54a-b18df9d84754" cx="271.3" cy="38.76" r="1.39"/><circle class="45698335-7f4f-42d5-b54a-b18df9d84754" cx="283.57" cy="38.76" r="1.39"/><circle class="45698335-7f4f-42d5-b54a-b18df9d84754" cx="295.84" cy="38.76" r="1.39"/><circle class="45698335-7f4f-42d5-b54a-b18df9d84754" cx="308.11" cy="38.76" r="1.39"/><circle class="45698335-7f4f-42d5-b54a-b18df9d84754" cx="1.39" cy="51.21" r="1.39"/><circle class="45698335-7f4f-42d5-b54a-b18df9d84754" cx="13.66" cy="51.21" r="1.39"/><circle class="45698335-7f4f-42d5-b54a-b18df9d84754" cx="25.93" cy="51.21" r="1.39"/><circle class="45698335-7f4f-42d5-b54a-b18df9d84754" cx="38.2" cy="51.21" r="1.39"/><circle class="45698335-7f4f-42d5-b54a-b18df9d84754" cx="50.47" cy="51.21" r="1.39"/><circle class="45698335-7f4f-42d5-b54a-b18df9d84754" cx="62.74" cy="51.21" r="1.39"/><circle class="45698335-7f4f-42d5-b54a-b18df9d84754" cx="75" cy="51.21" r="1.39"/><circle class="45698335-7f4f-42d5-b54a-b18df9d84754" cx="87.27" cy="51.21" r="1.39"/><circle class="45698335-7f4f-42d5-b54a-b18df9d84754" cx="99.54" cy="51.21" r="1.39"/><circle class="45698335-7f4f-42d5-b54a-b18df9d84754" cx="111.81" cy="51.21" r="1.39"/><circle class="45698335-7f4f-42d5-b54a-b18df9d84754" cx="124.08" cy="51.21" r="1.39"/><circle class="45698335-7f4f-42d5-b54a-b18df9d84754" cx="136.35" cy="51.21" r="1.39"/><circle class="45698335-7f4f-42d5-b54a-b18df9d84754" cx="148.62" cy="51.21" r="1.39"/><circle class="45698335-7f4f-42d5-b54a-b18df9d84754" cx="160.88" cy="51.21" r="1.39"/><circle class="45698335-7f4f-42d5-b54a-b18df9d84754" cx="173.15" cy="51.21" r="1.39"/><circle class="45698335-7f4f-42d5-b54a-b18df9d84754" cx="185.42" cy="51.21" r="1.39"/><circle class="45698335-7f4f-42d5-b54a-b18df9d84754" cx="197.69" cy="51.21" r="1.39"/><circle class="45698335-7f4f-42d5-b54a-b18df9d84754" cx="209.96" cy="51.21" r="1.39"/><circle class="45698335-7f4f-42d5-b54a-b18df9d84754" cx="222.23" cy="51.21" r="1.39"/><circle class="45698335-7f4f-42d5-b54a-b18df9d84754" cx="234.5" cy="51.21" r="1.39"/><circle class="45698335-7f4f-42d5-b54a-b18df9d84754" cx="246.76" cy="51.21" r="1.39"/><circle class="45698335-7f4f-42d5-b54a-b18df9d84754" cx="259.03" cy="51.21" r="1.39"/><circle class="45698335-7f4f-42d5-b54a-b18df9d84754" cx="271.3" cy="51.21" r="1.39"/><circle class="45698335-7f4f-42d5-b54a-b18df9d84754" cx="283.57" cy="51.21" r="1.39"/><circle class="45698335-7f4f-42d5-b54a-b18df9d84754" cx="295.84" cy="51.21" r="1.39"/><circle class="45698335-7f4f-42d5-b54a-b18df9d84754" cx="308.11" cy="51.21" r="1.39"/><circle class="45698335-7f4f-42d5-b54a-b18df9d84754" cx="1.39" cy="63.67" r="1.39"/><circle class="45698335-7f4f-42d5-b54a-b18df9d84754" cx="13.66" cy="63.67" r="1.39"/><circle class="45698335-7f4f-42d5-b54a-b18df9d84754" cx="25.93" cy="63.67" r="1.39"/><circle class="45698335-7f4f-42d5-b54a-b18df9d84754" cx="38.2" cy="63.67" r="1.39"/><circle class="45698335-7f4f-42d5-b54a-b18df9d84754" cx="50.47" cy="63.67" r="1.39"/><circle class="45698335-7f4f-42d5-b54a-b18df9d84754" cx="62.74" cy="63.67" r="1.39"/><circle class="45698335-7f4f-42d5-b54a-b18df9d84754" cx="75" cy="63.67" r="1.39"/><circle class="45698335-7f4f-42d5-b54a-b18df9d84754" cx="87.27" cy="63.67" r="1.39"/><circle class="45698335-7f4f-42d5-b54a-b18df9d84754" cx="99.54" cy="63.67" r="1.39"/><circle class="45698335-7f4f-42d5-b54a-b18df9d84754" cx="111.81" cy="63.67" r="1.39"/><circle class="45698335-7f4f-42d5-b54a-b18df9d84754" cx="124.08" cy="63.67" r="1.39"/><circle class="45698335-7f4f-42d5-b54a-b18df9d84754" cx="136.35" cy="63.67" r="1.39"/><circle class="45698335-7f4f-42d5-b54a-b18df9d84754" cx="148.62" cy="63.67" r="1.39"/><circle class="45698335-7f4f-42d5-b54a-b18df9d84754" cx="160.88" cy="63.67" r="1.39"/><circle class="45698335-7f4f-42d5-b54a-b18df9d84754" cx="173.15" cy="63.67" r="1.39"/><circle class="45698335-7f4f-42d5-b54a-b18df9d84754" cx="185.42" cy="63.67" r="1.39"/><circle class="45698335-7f4f-42d5-b54a-b18df9d84754" cx="197.69" cy="63.67" r="1.39"/><circle class="45698335-7f4f-42d5-b54a-b18df9d84754" cx="209.96" cy="63.67" r="1.39"/><circle class="45698335-7f4f-42d5-b54a-b18df9d84754" cx="222.23" cy="63.67" r="1.39"/><circle class="45698335-7f4f-42d5-b54a-b18df9d84754" cx="234.5" cy="63.67" r="1.39"/><circle class="45698335-7f4f-42d5-b54a-b18df9d84754" cx="246.76" cy="63.67" r="1.39"/><circle class="45698335-7f4f-42d5-b54a-b18df9d84754" cx="259.03" cy="63.67" r="1.39"/><circle class="45698335-7f4f-42d5-b54a-b18df9d84754" cx="271.3" cy="63.67" r="1.39"/><circle class="45698335-7f4f-42d5-b54a-b18df9d84754" cx="283.57" cy="63.67" r="1.39"/><circle class="45698335-7f4f-42d5-b54a-b18df9d84754" cx="295.84" cy="63.67" r="1.39"/><circle class="45698335-7f4f-42d5-b54a-b18df9d84754" cx="308.11" cy="63.67" r="1.39"/><circle class="45698335-7f4f-42d5-b54a-b18df9d84754" cx="1.39" cy="76.12" r="1.39"/><circle class="45698335-7f4f-42d5-b54a-b18df9d84754" cx="13.66" cy="76.12" r="1.39"/><circle class="45698335-7f4f-42d5-b54a-b18df9d84754" cx="25.93" cy="76.12" r="1.39"/><circle class="45698335-7f4f-42d5-b54a-b18df9d84754" cx="38.2" cy="76.12" r="1.39"/><circle class="45698335-7f4f-42d5-b54a-b18df9d84754" cx="50.47" cy="76.12" r="1.39"/><circle class="45698335-7f4f-42d5-b54a-b18df9d84754" cx="62.74" cy="76.12" r="1.39"/><circle class="45698335-7f4f-42d5-b54a-b18df9d84754" cx="75" cy="76.12" r="1.39"/><circle class="45698335-7f4f-42d5-b54a-b18df9d84754" cx="87.27" cy="76.12" r="1.39"/><circle class="45698335-7f4f-42d5-b54a-b18df9d84754" cx="99.54" cy="76.12" r="1.39"/><circle class="45698335-7f4f-42d5-b54a-b18df9d84754" cx="111.81" cy="76.12" r="1.39"/><circle class="45698335-7f4f-42d5-b54a-b18df9d84754" cx="124.08" cy="76.12" r="1.39"/><circle class="45698335-7f4f-42d5-b54a-b18df9d84754" cx="136.35" cy="76.12" r="1.39"/><circle class="45698335-7f4f-42d5-b54a-b18df9d84754" cx="148.62" cy="76.12" r="1.39"/><circle class="45698335-7f4f-42d5-b54a-b18df9d84754" cx="160.88" cy="76.12" r="1.39"/><circle class="45698335-7f4f-42d5-b54a-b18df9d84754" cx="173.15" cy="76.12" r="1.39"/><circle class="45698335-7f4f-42d5-b54a-b18df9d84754" cx="185.42" cy="76.12" r="1.39"/><circle class="45698335-7f4f-42d5-b54a-b18df9d84754" cx="197.69" cy="76.12" r="1.39"/><circle class="45698335-7f4f-42d5-b54a-b18df9d84754" cx="209.96" cy="76.12" r="1.39"/><circle class="45698335-7f4f-42d5-b54a-b18df9d84754" cx="222.23" cy="76.12" r="1.39"/><circle class="45698335-7f4f-42d5-b54a-b18df9d84754" cx="234.5" cy="76.12" r="1.39"/><circle class="45698335-7f4f-42d5-b54a-b18df9d84754" cx="246.76" cy="76.12" r="1.39"/><circle class="45698335-7f4f-42d5-b54a-b18df9d84754" cx="259.03" cy="76.12" r="1.39"/><circle class="45698335-7f4f-42d5-b54a-b18df9d84754" cx="271.3" cy="76.12" r="1.39"/><circle class="45698335-7f4f-42d5-b54a-b18df9d84754" cx="283.57" cy="76.12" r="1.39"/><circle class="45698335-7f4f-42d5-b54a-b18df9d84754" cx="295.84" cy="76.12" r="1.39"/><circle class="45698335-7f4f-42d5-b54a-b18df9d84754" cx="308.11" cy="76.12" r="1.39"/><circle class="45698335-7f4f-42d5-b54a-b18df9d84754" cx="1.39" cy="88.57" r="1.39"/><circle class="45698335-7f4f-42d5-b54a-b18df9d84754" cx="13.66" cy="88.57" r="1.39"/><circle class="45698335-7f4f-42d5-b54a-b18df9d84754" cx="25.93" cy="88.57" r="1.39"/><circle class="45698335-7f4f-42d5-b54a-b18df9d84754" cx="38.2" cy="88.57" r="1.39"/><circle class="45698335-7f4f-42d5-b54a-b18df9d84754" cx="50.47" cy="88.57" r="1.39"/><circle class="45698335-7f4f-42d5-b54a-b18df9d84754" cx="62.74" cy="88.57" r="1.39"/><circle class="45698335-7f4f-42d5-b54a-b18df9d84754" cx="75" cy="88.57" r="1.39"/><circle class="45698335-7f4f-42d5-b54a-b18df9d84754" cx="87.27" cy="88.57" r="1.39"/><circle class="45698335-7f4f-42d5-b54a-b18df9d84754" cx="99.54" cy="88.57" r="1.39"/><circle class="45698335-7f4f-42d5-b54a-b18df9d84754" cx="111.81" cy="88.57" r="1.39"/><circle class="45698335-7f4f-42d5-b54a-b18df9d84754" cx="124.08" cy="88.57" r="1.39"/><circle class="45698335-7f4f-42d5-b54a-b18df9d84754" cx="136.35" cy="88.57" r="1.39"/><circle class="45698335-7f4f-42d5-b54a-b18df9d84754" cx="148.62" cy="88.57" r="1.39"/><circle class="45698335-7f4f-42d5-b54a-b18df9d84754" cx="160.88" cy="88.57" r="1.39"/><circle class="45698335-7f4f-42d5-b54a-b18df9d84754" cx="173.15" cy="88.57" r="1.39"/><circle class="45698335-7f4f-42d5-b54a-b18df9d84754" cx="185.42" cy="88.57" r="1.39"/><circle class="45698335-7f4f-42d5-b54a-b18df9d84754" cx="197.69" cy="88.57" r="1.39"/><circle class="45698335-7f4f-42d5-b54a-b18df9d84754" cx="209.96" cy="88.57" r="1.39"/><circle class="45698335-7f4f-42d5-b54a-b18df9d84754" cx="222.23" cy="88.57" r="1.39"/><circle class="45698335-7f4f-42d5-b54a-b18df9d84754" cx="234.5" cy="88.57" r="1.39"/><circle class="45698335-7f4f-42d5-b54a-b18df9d84754" cx="246.76" cy="88.57" r="1.39"/><circle class="45698335-7f4f-42d5-b54a-b18df9d84754" cx="259.03" cy="88.57" r="1.39"/><circle class="45698335-7f4f-42d5-b54a-b18df9d84754" cx="271.3" cy="88.57" r="1.39"/><circle class="45698335-7f4f-42d5-b54a-b18df9d84754" cx="283.57" cy="88.57" r="1.39"/><circle class="45698335-7f4f-42d5-b54a-b18df9d84754" cx="295.84" cy="88.57" r="1.39"/><circle class="45698335-7f4f-42d5-b54a-b18df9d84754" cx="308.11" cy="88.57" r="1.39"/><circle class="45698335-7f4f-42d5-b54a-b18df9d84754" cx="1.39" cy="101.03" r="1.39"/><circle class="45698335-7f4f-42d5-b54a-b18df9d84754" cx="13.66" cy="101.03" r="1.39"/><circle class="45698335-7f4f-42d5-b54a-b18df9d84754" cx="25.93" cy="101.03" r="1.39"/><circle class="45698335-7f4f-42d5-b54a-b18df9d84754" cx="38.2" cy="101.03" r="1.39"/><circle class="45698335-7f4f-42d5-b54a-b18df9d84754" cx="50.47" cy="101.03" r="1.39"/><circle class="45698335-7f4f-42d5-b54a-b18df9d84754" cx="62.74" cy="101.03" r="1.39"/><circle class="45698335-7f4f-42d5-b54a-b18df9d84754" cx="75" cy="101.03" r="1.39"/><circle class="45698335-7f4f-42d5-b54a-b18df9d84754" cx="87.27" cy="101.03" r="1.39"/><circle class="45698335-7f4f-42d5-b54a-b18df9d84754" cx="99.54" cy="101.03" r="1.39"/><circle class="45698335-7f4f-42d5-b54a-b18df9d84754" cx="111.81" cy="101.03" r="1.39"/><circle class="45698335-7f4f-42d5-b54a-b18df9d84754" cx="124.08" cy="101.03" r="1.39"/><circle class="45698335-7f4f-42d5-b54a-b18df9d84754" cx="136.35" cy="101.03" r="1.39"/><circle class="45698335-7f4f-42d5-b54a-b18df9d84754" cx="148.62" cy="101.03" r="1.39"/><circle class="45698335-7f4f-42d5-b54a-b18df9d84754" cx="160.88" cy="101.03" r="1.39"/><circle class="45698335-7f4f-42d5-b54a-b18df9d84754" cx="173.15" cy="101.03" r="1.39"/><circle class="45698335-7f4f-42d5-b54a-b18df9d84754" cx="185.42" cy="101.03" r="1.39"/><circle class="45698335-7f4f-42d5-b54a-b18df9d84754" cx="197.69" cy="101.03" r="1.39"/><circle class="45698335-7f4f-42d5-b54a-b18df9d84754" cx="209.96" cy="101.03" r="1.39"/><circle class="45698335-7f4f-42d5-b54a-b18df9d84754" cx="222.23" cy="101.03" r="1.39"/><circle class="45698335-7f4f-42d5-b54a-b18df9d84754" cx="234.5" cy="101.03" r="1.39"/><circle class="45698335-7f4f-42d5-b54a-b18df9d84754" cx="246.76" cy="101.03" r="1.39"/><circle class="45698335-7f4f-42d5-b54a-b18df9d84754" cx="259.03" cy="101.03" r="1.39"/><circle class="45698335-7f4f-42d5-b54a-b18df9d84754" cx="271.3" cy="101.03" r="1.39"/><circle class="45698335-7f4f-42d5-b54a-b18df9d84754" cx="283.57" cy="101.03" r="1.39"/><circle class="45698335-7f4f-42d5-b54a-b18df9d84754" cx="295.84" cy="101.03" r="1.39"/><circle class="45698335-7f4f-42d5-b54a-b18df9d84754" cx="308.11" cy="101.03" r="1.39"/><circle class="45698335-7f4f-42d5-b54a-b18df9d84754" cx="1.39" cy="113.48" r="1.39"/><circle class="45698335-7f4f-42d5-b54a-b18df9d84754" cx="13.66" cy="113.48" r="1.39"/><circle class="45698335-7f4f-42d5-b54a-b18df9d84754" cx="25.93" cy="113.48" r="1.39"/><circle class="45698335-7f4f-42d5-b54a-b18df9d84754" cx="38.2" cy="113.48" r="1.39"/><circle class="45698335-7f4f-42d5-b54a-b18df9d84754" cx="50.47" cy="113.48" r="1.39"/><circle class="45698335-7f4f-42d5-b54a-b18df9d84754" cx="62.74" cy="113.48" r="1.39"/><circle class="45698335-7f4f-42d5-b54a-b18df9d84754" cx="75" cy="113.48" r="1.39"/><circle class="45698335-7f4f-42d5-b54a-b18df9d84754" cx="87.27" cy="113.48" r="1.39"/><circle class="45698335-7f4f-42d5-b54a-b18df9d84754" cx="99.54" cy="113.48" r="1.39"/><circle class="45698335-7f4f-42d5-b54a-b18df9d84754" cx="111.81" cy="113.48" r="1.39"/><circle class="45698335-7f4f-42d5-b54a-b18df9d84754" cx="124.08" cy="113.48" r="1.39"/><circle class="45698335-7f4f-42d5-b54a-b18df9d84754" cx="136.35" cy="113.48" r="1.39"/><circle class="45698335-7f4f-42d5-b54a-b18df9d84754" cx="148.62" cy="113.48" r="1.39"/><circle class="45698335-7f4f-42d5-b54a-b18df9d84754" cx="160.88" cy="113.48" r="1.39"/><circle class="45698335-7f4f-42d5-b54a-b18df9d84754" cx="173.15" cy="113.48" r="1.39"/><circle class="45698335-7f4f-42d5-b54a-b18df9d84754" cx="185.42" cy="113.48" r="1.39"/><circle class="45698335-7f4f-42d5-b54a-b18df9d84754" cx="197.69" cy="113.48" r="1.39"/><circle class="45698335-7f4f-42d5-b54a-b18df9d84754" cx="209.96" cy="113.48" r="1.39"/><circle class="45698335-7f4f-42d5-b54a-b18df9d84754" cx="222.23" cy="113.48" r="1.39"/><circle class="45698335-7f4f-42d5-b54a-b18df9d84754" cx="234.5" cy="113.48" r="1.39"/><circle class="45698335-7f4f-42d5-b54a-b18df9d84754" cx="246.76" cy="113.48" r="1.39"/><circle class="45698335-7f4f-42d5-b54a-b18df9d84754" cx="259.03" cy="113.48" r="1.39"/><circle class="45698335-7f4f-42d5-b54a-b18df9d84754" cx="271.3" cy="113.48" r="1.39"/><circle class="45698335-7f4f-42d5-b54a-b18df9d84754" cx="283.57" cy="113.48" r="1.39"/><circle class="45698335-7f4f-42d5-b54a-b18df9d84754" cx="295.84" cy="113.48" r="1.39"/><circle class="45698335-7f4f-42d5-b54a-b18df9d84754" cx="308.11" cy="113.48" r="1.39"/><circle class="45698335-7f4f-42d5-b54a-b18df9d84754" cx="1.39" cy="125.94" r="1.39"/><circle class="45698335-7f4f-42d5-b54a-b18df9d84754" cx="13.66" cy="125.94" r="1.39"/><circle class="45698335-7f4f-42d5-b54a-b18df9d84754" cx="25.93" cy="125.94" r="1.39"/><circle class="45698335-7f4f-42d5-b54a-b18df9d84754" cx="38.2" cy="125.94" r="1.39"/><circle class="45698335-7f4f-42d5-b54a-b18df9d84754" cx="50.47" cy="125.94" r="1.39"/><circle class="45698335-7f4f-42d5-b54a-b18df9d84754" cx="62.74" cy="125.94" r="1.39"/><circle class="45698335-7f4f-42d5-b54a-b18df9d84754" cx="75" cy="125.94" r="1.39"/><circle class="45698335-7f4f-42d5-b54a-b18df9d84754" cx="87.27" cy="125.94" r="1.39"/><circle class="45698335-7f4f-42d5-b54a-b18df9d84754" cx="99.54" cy="125.94" r="1.39"/><circle class="45698335-7f4f-42d5-b54a-b18df9d84754" cx="111.81" cy="125.94" r="1.39"/><circle class="45698335-7f4f-42d5-b54a-b18df9d84754" cx="124.08" cy="125.94" r="1.39"/><circle class="45698335-7f4f-42d5-b54a-b18df9d84754" cx="136.35" cy="125.94" r="1.39"/><circle class="45698335-7f4f-42d5-b54a-b18df9d84754" cx="148.62" cy="125.94" r="1.39"/><circle class="45698335-7f4f-42d5-b54a-b18df9d84754" cx="160.88" cy="125.94" r="1.39"/><circle class="45698335-7f4f-42d5-b54a-b18df9d84754" cx="173.15" cy="125.94" r="1.39"/><circle class="45698335-7f4f-42d5-b54a-b18df9d84754" cx="185.42" cy="125.94" r="1.39"/><circle class="45698335-7f4f-42d5-b54a-b18df9d84754" cx="197.69" cy="125.94" r="1.39"/><circle class="45698335-7f4f-42d5-b54a-b18df9d84754" cx="209.96" cy="125.94" r="1.39"/><circle class="45698335-7f4f-42d5-b54a-b18df9d84754" cx="222.23" cy="125.94" r="1.39"/><circle class="45698335-7f4f-42d5-b54a-b18df9d84754" cx="234.5" cy="125.94" r="1.39"/><circle class="45698335-7f4f-42d5-b54a-b18df9d84754" cx="246.76" cy="125.94" r="1.39"/><circle class="45698335-7f4f-42d5-b54a-b18df9d84754" cx="259.03" cy="125.94" r="1.39"/><circle class="45698335-7f4f-42d5-b54a-b18df9d84754" cx="271.3" cy="125.94" r="1.39"/><circle class="45698335-7f4f-42d5-b54a-b18df9d84754" cx="283.57" cy="125.94" r="1.39"/><circle class="45698335-7f4f-42d5-b54a-b18df9d84754" cx="295.84" cy="125.94" r="1.39"/><circle class="45698335-7f4f-42d5-b54a-b18df9d84754" cx="308.11" cy="125.94" r="1.39"/><circle class="45698335-7f4f-42d5-b54a-b18df9d84754" cx="1.39" cy="138.39" r="1.39"/><circle class="45698335-7f4f-42d5-b54a-b18df9d84754" cx="13.66" cy="138.39" r="1.39"/><circle class="45698335-7f4f-42d5-b54a-b18df9d84754" cx="25.93" cy="138.39" r="1.39"/><circle class="45698335-7f4f-42d5-b54a-b18df9d84754" cx="38.2" cy="138.39" r="1.39"/><circle class="45698335-7f4f-42d5-b54a-b18df9d84754" cx="50.47" cy="138.39" r="1.39"/><circle class="45698335-7f4f-42d5-b54a-b18df9d84754" cx="62.74" cy="138.39" r="1.39"/><circle class="45698335-7f4f-42d5-b54a-b18df9d84754" cx="75" cy="138.39" r="1.39"/><circle class="45698335-7f4f-42d5-b54a-b18df9d84754" cx="87.27" cy="138.39" r="1.39"/><circle class="45698335-7f4f-42d5-b54a-b18df9d84754" cx="99.54" cy="138.39" r="1.39"/><circle class="45698335-7f4f-42d5-b54a-b18df9d84754" cx="111.81" cy="138.39" r="1.39"/><circle class="45698335-7f4f-42d5-b54a-b18df9d84754" cx="124.08" cy="138.39" r="1.39"/><circle class="45698335-7f4f-42d5-b54a-b18df9d84754" cx="136.35" cy="138.39" r="1.39"/><circle class="45698335-7f4f-42d5-b54a-b18df9d84754" cx="148.62" cy="138.39" r="1.39"/><circle class="45698335-7f4f-42d5-b54a-b18df9d84754" cx="160.88" cy="138.39" r="1.39"/><circle class="45698335-7f4f-42d5-b54a-b18df9d84754" cx="173.15" cy="138.39" r="1.39"/><circle class="45698335-7f4f-42d5-b54a-b18df9d84754" cx="185.42" cy="138.39" r="1.39"/><circle class="45698335-7f4f-42d5-b54a-b18df9d84754" cx="197.69" cy="138.39" r="1.39"/><circle class="45698335-7f4f-42d5-b54a-b18df9d84754" cx="209.96" cy="138.39" r="1.39"/><circle class="45698335-7f4f-42d5-b54a-b18df9d84754" cx="222.23" cy="138.39" r="1.39"/><circle class="45698335-7f4f-42d5-b54a-b18df9d84754" cx="234.5" cy="138.39" r="1.39"/><circle class="45698335-7f4f-42d5-b54a-b18df9d84754" cx="246.76" cy="138.39" r="1.39"/><circle class="45698335-7f4f-42d5-b54a-b18df9d84754" cx="259.03" cy="138.39" r="1.39"/><circle class="45698335-7f4f-42d5-b54a-b18df9d84754" cx="271.3" cy="138.39" r="1.39"/><circle class="45698335-7f4f-42d5-b54a-b18df9d84754" cx="283.57" cy="138.39" r="1.39"/><circle class="45698335-7f4f-42d5-b54a-b18df9d84754" cx="295.84" cy="138.39" r="1.39"/><circle class="45698335-7f4f-42d5-b54a-b18df9d84754" cx="308.11" cy="138.39" r="1.39"/><circle class="45698335-7f4f-42d5-b54a-b18df9d84754" cx="1.39" cy="150.85" r="1.39"/><circle class="45698335-7f4f-42d5-b54a-b18df9d84754" cx="13.66" cy="150.85" r="1.39"/><circle class="45698335-7f4f-42d5-b54a-b18df9d84754" cx="25.93" cy="150.85" r="1.39"/><circle class="45698335-7f4f-42d5-b54a-b18df9d84754" cx="38.2" cy="150.85" r="1.39"/><circle class="45698335-7f4f-42d5-b54a-b18df9d84754" cx="50.47" cy="150.85" r="1.39"/><circle class="45698335-7f4f-42d5-b54a-b18df9d84754" cx="62.74" cy="150.85" r="1.39"/><circle class="45698335-7f4f-42d5-b54a-b18df9d84754" cx="75" cy="150.85" r="1.39"/><circle class="45698335-7f4f-42d5-b54a-b18df9d84754" cx="87.27" cy="150.85" r="1.39"/><circle class="45698335-7f4f-42d5-b54a-b18df9d84754" cx="99.54" cy="150.85" r="1.39"/><circle class="45698335-7f4f-42d5-b54a-b18df9d84754" cx="111.81" cy="150.85" r="1.39"/><circle class="45698335-7f4f-42d5-b54a-b18df9d84754" cx="124.08" cy="150.85" r="1.39"/><circle class="45698335-7f4f-42d5-b54a-b18df9d84754" cx="136.35" cy="150.85" r="1.39"/><circle class="45698335-7f4f-42d5-b54a-b18df9d84754" cx="148.62" cy="150.85" r="1.39"/><circle class="45698335-7f4f-42d5-b54a-b18df9d84754" cx="160.88" cy="150.85" r="1.39"/><circle class="45698335-7f4f-42d5-b54a-b18df9d84754" cx="173.15" cy="150.85" r="1.39"/><circle class="45698335-7f4f-42d5-b54a-b18df9d84754" cx="185.42" cy="150.85" r="1.39"/><circle class="45698335-7f4f-42d5-b54a-b18df9d84754" cx="197.69" cy="150.85" r="1.39"/><circle class="45698335-7f4f-42d5-b54a-b18df9d84754" cx="209.96" cy="150.85" r="1.39"/><circle class="45698335-7f4f-42d5-b54a-b18df9d84754" cx="222.23" cy="150.85" r="1.39"/><circle class="45698335-7f4f-42d5-b54a-b18df9d84754" cx="234.5" cy="150.85" r="1.39"/><circle class="45698335-7f4f-42d5-b54a-b18df9d84754" cx="246.76" cy="150.85" r="1.39"/><circle class="45698335-7f4f-42d5-b54a-b18df9d84754" cx="259.03" cy="150.85" r="1.39"/><circle class="45698335-7f4f-42d5-b54a-b18df9d84754" cx="271.3" cy="150.85" r="1.39"/><circle class="45698335-7f4f-42d5-b54a-b18df9d84754" cx="283.57" cy="150.85" r="1.39"/><circle class="45698335-7f4f-42d5-b54a-b18df9d84754" cx="295.84" cy="150.85" r="1.39"/><circle class="45698335-7f4f-42d5-b54a-b18df9d84754" cx="308.11" cy="150.85" r="1.39"/><circle class="45698335-7f4f-42d5-b54a-b18df9d84754" cx="1.39" cy="163.3" r="1.39"/><circle class="45698335-7f4f-42d5-b54a-b18df9d84754" cx="13.66" cy="163.3" r="1.39"/><circle class="45698335-7f4f-42d5-b54a-b18df9d84754" cx="25.93" cy="163.3" r="1.39"/><circle class="45698335-7f4f-42d5-b54a-b18df9d84754" cx="38.2" cy="163.3" r="1.39"/><circle class="45698335-7f4f-42d5-b54a-b18df9d84754" cx="50.47" cy="163.3" r="1.39"/><circle class="45698335-7f4f-42d5-b54a-b18df9d84754" cx="62.74" cy="163.3" r="1.39"/><circle class="45698335-7f4f-42d5-b54a-b18df9d84754" cx="75" cy="163.3" r="1.39"/><circle class="45698335-7f4f-42d5-b54a-b18df9d84754" cx="87.27" cy="163.3" r="1.39"/><circle class="45698335-7f4f-42d5-b54a-b18df9d84754" cx="99.54" cy="163.3" r="1.39"/><circle class="45698335-7f4f-42d5-b54a-b18df9d84754" cx="111.81" cy="163.3" r="1.39"/><circle class="45698335-7f4f-42d5-b54a-b18df9d84754" cx="124.08" cy="163.3" r="1.39"/><circle class="45698335-7f4f-42d5-b54a-b18df9d84754" cx="136.35" cy="163.3" r="1.39"/><circle class="45698335-7f4f-42d5-b54a-b18df9d84754" cx="148.62" cy="163.3" r="1.39"/><circle class="45698335-7f4f-42d5-b54a-b18df9d84754" cx="160.88" cy="163.3" r="1.39"/><circle class="45698335-7f4f-42d5-b54a-b18df9d84754" cx="173.15" cy="163.3" r="1.39"/><circle class="45698335-7f4f-42d5-b54a-b18df9d84754" cx="185.42" cy="163.3" r="1.39"/><circle class="45698335-7f4f-42d5-b54a-b18df9d84754" cx="197.69" cy="163.3" r="1.39"/><circle class="45698335-7f4f-42d5-b54a-b18df9d84754" cx="209.96" cy="163.3" r="1.39"/><circle class="45698335-7f4f-42d5-b54a-b18df9d84754" cx="222.23" cy="163.3" r="1.39"/><circle class="45698335-7f4f-42d5-b54a-b18df9d84754" cx="234.5" cy="163.3" r="1.39"/><circle class="45698335-7f4f-42d5-b54a-b18df9d84754" cx="246.76" cy="163.3" r="1.39"/><circle class="45698335-7f4f-42d5-b54a-b18df9d84754" cx="259.03" cy="163.3" r="1.39"/><circle class="45698335-7f4f-42d5-b54a-b18df9d84754" cx="271.3" cy="163.3" r="1.39"/><circle class="45698335-7f4f-42d5-b54a-b18df9d84754" cx="283.57" cy="163.3" r="1.39"/><circle class="45698335-7f4f-42d5-b54a-b18df9d84754" cx="295.84" cy="163.3" r="1.39"/><circle class="45698335-7f4f-42d5-b54a-b18df9d84754" cx="308.11" cy="163.3" r="1.39"/><circle class="45698335-7f4f-42d5-b54a-b18df9d84754" cx="1.39" cy="175.76" r="1.39"/><circle class="45698335-7f4f-42d5-b54a-b18df9d84754" cx="13.66" cy="175.76" r="1.39"/><circle class="45698335-7f4f-42d5-b54a-b18df9d84754" cx="25.93" cy="175.76" r="1.39"/><circle class="45698335-7f4f-42d5-b54a-b18df9d84754" cx="38.2" cy="175.76" r="1.39"/><circle class="45698335-7f4f-42d5-b54a-b18df9d84754" cx="50.47" cy="175.76" r="1.39"/><circle class="45698335-7f4f-42d5-b54a-b18df9d84754" cx="62.74" cy="175.76" r="1.39"/><circle class="45698335-7f4f-42d5-b54a-b18df9d84754" cx="75" cy="175.76" r="1.39"/><circle class="45698335-7f4f-42d5-b54a-b18df9d84754" cx="87.27" cy="175.76" r="1.39"/><circle class="45698335-7f4f-42d5-b54a-b18df9d84754" cx="99.54" cy="175.76" r="1.39"/><circle class="45698335-7f4f-42d5-b54a-b18df9d84754" cx="111.81" cy="175.76" r="1.39"/><circle class="45698335-7f4f-42d5-b54a-b18df9d84754" cx="124.08" cy="175.76" r="1.39"/><circle class="45698335-7f4f-42d5-b54a-b18df9d84754" cx="136.35" cy="175.76" r="1.39"/><circle class="45698335-7f4f-42d5-b54a-b18df9d84754" cx="148.62" cy="175.76" r="1.39"/><circle class="45698335-7f4f-42d5-b54a-b18df9d84754" cx="160.88" cy="175.76" r="1.39"/><circle class="45698335-7f4f-42d5-b54a-b18df9d84754" cx="173.15" cy="175.76" r="1.39"/><circle class="45698335-7f4f-42d5-b54a-b18df9d84754" cx="185.42" cy="175.76" r="1.39"/><circle class="45698335-7f4f-42d5-b54a-b18df9d84754" cx="197.69" cy="175.76" r="1.39"/><circle class="45698335-7f4f-42d5-b54a-b18df9d84754" cx="209.96" cy="175.76" r="1.39"/><circle class="45698335-7f4f-42d5-b54a-b18df9d84754" cx="222.23" cy="175.76" r="1.39"/><circle class="45698335-7f4f-42d5-b54a-b18df9d84754" cx="234.5" cy="175.76" r="1.39"/><circle class="45698335-7f4f-42d5-b54a-b18df9d84754" cx="246.76" cy="175.76" r="1.39"/><circle class="45698335-7f4f-42d5-b54a-b18df9d84754" cx="259.03" cy="175.76" r="1.39"/><circle class="45698335-7f4f-42d5-b54a-b18df9d84754" cx="271.3" cy="175.76" r="1.39"/><circle class="45698335-7f4f-42d5-b54a-b18df9d84754" cx="283.57" cy="175.76" r="1.39"/><circle class="45698335-7f4f-42d5-b54a-b18df9d84754" cx="295.84" cy="175.76" r="1.39"/><circle class="45698335-7f4f-42d5-b54a-b18df9d84754" cx="308.11" cy="175.76" r="1.39"/><circle class="45698335-7f4f-42d5-b54a-b18df9d84754" cx="1.39" cy="188.21" r="1.39"/><circle class="45698335-7f4f-42d5-b54a-b18df9d84754" cx="13.66" cy="188.21" r="1.39"/><circle class="45698335-7f4f-42d5-b54a-b18df9d84754" cx="25.93" cy="188.21" r="1.39"/><circle class="45698335-7f4f-42d5-b54a-b18df9d84754" cx="38.2" cy="188.21" r="1.39"/><circle class="45698335-7f4f-42d5-b54a-b18df9d84754" cx="50.47" cy="188.21" r="1.39"/><circle class="45698335-7f4f-42d5-b54a-b18df9d84754" cx="62.74" cy="188.21" r="1.39"/><circle class="45698335-7f4f-42d5-b54a-b18df9d84754" cx="75" cy="188.21" r="1.39"/><circle class="45698335-7f4f-42d5-b54a-b18df9d84754" cx="87.27" cy="188.21" r="1.39"/><circle class="45698335-7f4f-42d5-b54a-b18df9d84754" cx="99.54" cy="188.21" r="1.39"/><circle class="45698335-7f4f-42d5-b54a-b18df9d84754" cx="111.81" cy="188.21" r="1.39"/><circle class="45698335-7f4f-42d5-b54a-b18df9d84754" cx="124.08" cy="188.21" r="1.39"/><circle class="45698335-7f4f-42d5-b54a-b18df9d84754" cx="136.35" cy="188.21" r="1.39"/><circle class="45698335-7f4f-42d5-b54a-b18df9d84754" cx="148.62" cy="188.21" r="1.39"/><circle class="45698335-7f4f-42d5-b54a-b18df9d84754" cx="160.88" cy="188.21" r="1.39"/><circle class="45698335-7f4f-42d5-b54a-b18df9d84754" cx="173.15" cy="188.21" r="1.39"/><circle class="45698335-7f4f-42d5-b54a-b18df9d84754" cx="185.42" cy="188.21" r="1.39"/><circle class="45698335-7f4f-42d5-b54a-b18df9d84754" cx="197.69" cy="188.21" r="1.39"/><circle class="45698335-7f4f-42d5-b54a-b18df9d84754" cx="209.96" cy="188.21" r="1.39"/><circle class="45698335-7f4f-42d5-b54a-b18df9d84754" cx="222.23" cy="188.21" r="1.39"/><circle class="45698335-7f4f-42d5-b54a-b18df9d84754" cx="234.5" cy="188.21" r="1.39"/><circle class="45698335-7f4f-42d5-b54a-b18df9d84754" cx="246.76" cy="188.21" r="1.39"/><circle class="45698335-7f4f-42d5-b54a-b18df9d84754" cx="259.03" cy="188.21" r="1.39"/><circle class="45698335-7f4f-42d5-b54a-b18df9d84754" cx="271.3" cy="188.21" r="1.39"/><circle class="45698335-7f4f-42d5-b54a-b18df9d84754" cx="283.57" cy="188.21" r="1.39"/><circle class="45698335-7f4f-42d5-b54a-b18df9d84754" cx="295.84" cy="188.21" r="1.39"/><circle class="45698335-7f4f-42d5-b54a-b18df9d84754" cx="308.11" cy="188.21" r="1.39"/><circle class="45698335-7f4f-42d5-b54a-b18df9d84754" cx="1.39" cy="200.66" r="1.39"/><circle class="45698335-7f4f-42d5-b54a-b18df9d84754" cx="13.66" cy="200.66" r="1.39"/><circle class="45698335-7f4f-42d5-b54a-b18df9d84754" cx="25.93" cy="200.66" r="1.39"/><circle class="45698335-7f4f-42d5-b54a-b18df9d84754" cx="38.2" cy="200.66" r="1.39"/><circle class="45698335-7f4f-42d5-b54a-b18df9d84754" cx="50.47" cy="200.66" r="1.39"/><circle class="45698335-7f4f-42d5-b54a-b18df9d84754" cx="62.74" cy="200.66" r="1.39"/><circle class="45698335-7f4f-42d5-b54a-b18df9d84754" cx="75" cy="200.66" r="1.39"/><circle class="45698335-7f4f-42d5-b54a-b18df9d84754" cx="87.27" cy="200.66" r="1.39"/><circle class="45698335-7f4f-42d5-b54a-b18df9d84754" cx="99.54" cy="200.66" r="1.39"/><circle class="45698335-7f4f-42d5-b54a-b18df9d84754" cx="111.81" cy="200.66" r="1.39"/><circle class="45698335-7f4f-42d5-b54a-b18df9d84754" cx="124.08" cy="200.66" r="1.39"/><circle class="45698335-7f4f-42d5-b54a-b18df9d84754" cx="136.35" cy="200.66" r="1.39"/><circle class="45698335-7f4f-42d5-b54a-b18df9d84754" cx="148.62" cy="200.66" r="1.39"/><circle class="45698335-7f4f-42d5-b54a-b18df9d84754" cx="160.88" cy="200.66" r="1.39"/><circle class="45698335-7f4f-42d5-b54a-b18df9d84754" cx="173.15" cy="200.66" r="1.39"/><circle class="45698335-7f4f-42d5-b54a-b18df9d84754" cx="185.42" cy="200.66" r="1.39"/><circle class="45698335-7f4f-42d5-b54a-b18df9d84754" cx="197.69" cy="200.66" r="1.39"/><circle class="45698335-7f4f-42d5-b54a-b18df9d84754" cx="209.96" cy="200.66" r="1.39"/><circle class="45698335-7f4f-42d5-b54a-b18df9d84754" cx="222.23" cy="200.66" r="1.39"/><circle class="45698335-7f4f-42d5-b54a-b18df9d84754" cx="234.5" cy="200.66" r="1.39"/><circle class="45698335-7f4f-42d5-b54a-b18df9d84754" cx="246.76" cy="200.66" r="1.39"/><circle class="45698335-7f4f-42d5-b54a-b18df9d84754" cx="259.03" cy="200.66" r="1.39"/><circle class="45698335-7f4f-42d5-b54a-b18df9d84754" cx="271.3" cy="200.66" r="1.39"/><circle class="45698335-7f4f-42d5-b54a-b18df9d84754" cx="283.57" cy="200.66" r="1.39"/><circle class="45698335-7f4f-42d5-b54a-b18df9d84754" cx="295.84" cy="200.66" r="1.39"/><circle class="45698335-7f4f-42d5-b54a-b18df9d84754" cx="308.11" cy="200.66" r="1.39"/></svg>