<svg xmlns="http://www.w3.org/2000/svg" xmlns:xlink="http://www.w3.org/1999/xlink" viewBox="0 0 184.05 169"><defs><style>.cls-1{fill:url(#未命名漸層_5);}.cls-2{fill:#ff6c4d;}.cls-3{fill:#f4432d;}.cls-4{fill:#14114b;}.cls-5{fill:none;stroke:#fff;}.cls-5,.cls-7,.cls-8{stroke-miterlimit:10;}.cls-5,.cls-7{stroke-width:2px;}.cls-6{fill:#3d3d78;}.cls-7,.cls-8{fill:#fff;stroke:#14114b;}.cls-8{stroke-width:4px;}</style><linearGradient id="未命名漸層_5" x1="131.96" y1="101.34" x2="158.18" y2="101.34" gradientUnits="userSpaceOnUse"><stop offset="0" stop-color="#ff6c4d"/><stop offset="1" stop-color="#ff8b6b"/></linearGradient></defs><title>maker</title><g id="圖層_6" data-name="圖層 6"><path class="cls-1" d="M133,108.86s17.19-14,18.73-22.12c2.54-13.35,6.35,2.31,6.35,2.31s1.9,19.48-14.6,29.45S133,108.86,133,108.86Z"/><path class="cls-2" d="M48.78,137s-13.33-11.07,2-33.52,17.32-54.57,50.61-53.92,38.62,53.94,38,72.31-6,29.59-42.62,31.1S58.1,141.54,48.78,137Z"/><path class="cls-3" d="M108.24,147.78c-36.62,1.51-38.62-11.44-47.94-16,0,0-13.33-11.07,2-33.51C73.34,82.08,77.47,60.85,91.42,50.53c-23.92,5.42-27,33-40.65,53-15.32,22.45-2,33.52-2,33.52,9.32,4.53,11.32,17.48,47.94,16,16.93-.7,27.16-3.47,33.35-8.07A101.49,101.49,0,0,1,108.24,147.78Z"/><polygon class="cls-4" points="77.1 81.35 77.1 85.48 86.38 86.62 86.38 84.69 77.1 81.35"/><polygon class="cls-4" points="119.22 81.45 119.22 85.58 109.93 86.72 109.93 84.79 119.22 81.45"/><ellipse class="cls-5" cx="81.74" cy="83.37" rx="11.99" ry="12.14"/><ellipse class="cls-5" cx="116" cy="83.98" rx="11.99" ry="12.14"/><path class="cls-5" d="M92.76,88.16S95.42,84,99.05,84s5.7,4.18,5.7,4.18"/><polygon class="cls-4" points="88.01 92.32 84.55 111.82 93.77 102.07 102.92 108.43 102.17 90.29 88.01 92.32"/><rect class="cls-4" x="19.61" y="118.19" width="144.53" height="40.93"/><rect class="cls-6" x="19.61" y="118.19" width="144.53" height="10.23"/><path class="cls-7" d="M65.1,63l5.82,8.56h-8.6S30.77,87.74,18.47,63s23-27.64,28.8-25.08S69.21,49,65.1,63Z"/><polyline class="cls-8" points="33.9 57.19 39.04 65.08 49.33 48.9"/></g></svg>