<?xml version="1.0" encoding="UTF-8"?>
<svg width="1358px" height="900px" viewBox="0 0 1358 900" version="1.1" xmlns="http://www.w3.org/2000/svg" xmlns:xlink="http://www.w3.org/1999/xlink">
    <!-- Generator: Sketch 48.2 (47327) - http://www.bohemiancoding.com/sketch -->
    <title>question_cover</title>
    <desc>Created with Sketch.</desc>
    <defs>
        <rect id="path-1" x="0" y="0" width="13" height="147"></rect>
        <filter x="-230.8%" y="-20.4%" width="561.5%" height="140.8%" filterUnits="objectBoundingBox" id="filter-2">
            <feOffset dx="0" dy="0" in="SourceAlpha" result="shadowOffsetOuter1"></feOffset>
            <feGaussianBlur stdDeviation="10" in="shadowOffsetOuter1" result="shadowBlurOuter1"></feGaussianBlur>
            <feColorMatrix values="0 0 0 0 0   0 0 0 0 0   0 0 0 0 0  0 0 0 0.192793252 0" type="matrix" in="shadowBlurOuter1"></feColorMatrix>
        </filter>
    </defs>
    <g id="Page-1" stroke="none" stroke-width="1" fill="none" fill-rule="evenodd">
        <g id="question_cover">
            <rect id="Rectangle-4" fill="#FF5559" transform="translate(344.000000, 485.000000) rotate(-270.000000) translate(-344.000000, -485.000000) " x="28" y="305" width="632" height="360"></rect>
            <rect id="Rectangle-4" fill="#FF5559" transform="translate(344.000000, 485.000000) rotate(-270.000000) translate(-344.000000, -485.000000) " x="28" y="305" width="632" height="360"></rect>
            <rect id="Rectangle-4" fill="#FF5559" opacity="0.900000036" transform="translate(736.000000, 364.000000) rotate(-270.000000) translate(-736.000000, -364.000000) " x="541" y="184" width="390" height="360"></rect>
            <polygon id="Rectangle-4-Copy-5" fill="#14114B" transform="translate(152.500000, 465.500000) rotate(-270.000000) translate(-152.500000, -465.500000) " points="-257 354 562 480.226415 562 577 -257 450.773585"></polygon>
            <polygon id="Rectangle-4-Copy-6" fill="#14114B" transform="translate(818.500000, 466.000000) rotate(-270.000000) translate(-818.500000, -466.000000) " points="453.5 366.5 1183.5 479.141509 1183.5 565.5 453.5 452.858491"></polygon>
            <g id="Group" transform="translate(164.000000, 755.000000)" fill="#FFFFFF">
                <rect id="Rectangle-4" x="0" y="41" width="126" height="10"></rect>
                <rect id="Rectangle-4-Copy-3" x="144" y="41" width="126" height="10"></rect>
                <text id="Questions" font-family="NotoSansCJKtc-Bold, Noto Sans CJK TC" font-size="24" font-weight="bold">
                    <tspan x="4.648" y="28">Questions</tspan>
                </text>
                <text id="Curious" font-family="NotoSansCJKtc-Bold, Noto Sans CJK TC" font-size="24" font-weight="bold">
                    <tspan x="162.64" y="28">Curious</tspan>
                </text>
            </g>
            <polygon id="Path-72" fill="#FFFFFF" points="348.905142 656.241361 367.899596 721 288.4228 656.241361 24 656.241361 24 465 381.520295 465 384 656.241361"></polygon>
            <path d="M509.142684,365.640995 L514.158835,363.003307 C513.113643,362.279266 512.079997,361.539761 511.058242,360.785131 C510.460037,362.423697 509.82111,364.042725 509.142684,365.640995 Z M482.601912,402.435811 C464.498796,418.430102 440.693078,428.139333 414.615378,428.139333 C357.94247,428.139333 312,382.283221 312,325.71684 C312,291.20933 329.097192,260.687577 355.297712,242.13042 C351.199376,228.260626 349,213.578262 349,198.383172 C349,113.1197 418.249869,44 503.673911,44 C573.550323,44 632.604349,90.2490498 651.78592,153.751687 C687.337669,175.848265 711,215.211875 711,260.091731 C711,329.227265 654.849029,385.272689 585.583297,385.272689 C574.646859,385.272689 564.037367,383.875501 553.924218,381.250202 L482.601912,508 L482.601912,402.435811 Z" id="Combined-Shape" stroke="#FEFEFE" stroke-width="15" fill="#FFFFFF"></path>
            <text id="?" font-family="NotoSansCJKtc-Bold, Noto Sans CJK TC" font-size="138" font-weight="bold" fill="#14114B">
                <tspan x="462" y="272">?</tspan>
            </text>
            <g id="Group-6" transform="translate(616.000000, 451.000000)">
                <path d="M80.3771867,232.663262 L22,285 C30.3877959,250.907973 36.6592947,225.162729 40.8144965,207.764268 C15.4565435,185.7019 0,156.388051 0,124.217926 C0,55.6142599 70.2912943,0 157,0 C243.708706,0 314,55.6142599 314,124.217926 C314,192.821592 243.708706,248.435852 157,248.435852 C129.174989,248.435852 103.040614,242.708796 80.3771867,232.663262 Z" id="Combined-Shape" fill="#FFFFFF"></path>
                <text id="!!" font-family="NotoSansCJKtc-Bold, Noto Sans CJK TC" font-size="90" font-weight="bold" fill="#14114B">
                    <tspan x="128" y="151">!!</tspan>
                </text>
            </g>
            <text id="…" font-family="NotoSansCJKtc-Bold, Noto Sans CJK TC" font-size="90" font-weight="bold" fill="#14114B">
                <tspan x="153" y="569">…</tspan>
            </text>
            <path d="" id="Path-74" stroke="#979797"></path>
            <path d="" id="Path-77" stroke="#979797"></path>
            <g id="Group-2" transform="translate(1000.000000, 261.000000)">
                <g id="Group" transform="translate(0.000000, 222.000000)">
                    <g id="Rectangle-4">
                        <use fill="black" fill-opacity="1" filter="url(#filter-2)" xlink:href="#path-1"></use>
                        <use fill="#FF5559" fill-rule="evenodd" xlink:href="#path-1"></use>
                    </g>
                </g>
                <path d="M27.92,29.92 L27.92,34.88 L51.68,34.88 L51.68,29.92 L27.92,29.92 Z M69.92,46.4 L69.92,62.8 C69.92,67.2 69.04,69.52 65.84,70.96 C62.72,72.32 58.32,72.32 52.64,72.32 C52.16,69.68 50.88,66.08 49.6,63.68 C53.2,63.84 57.44,63.84 58.56,63.84 C59.76,63.84 60.16,63.52 60.16,62.64 L60.16,54.88 L45.76,54.88 L45.76,75.04 L35.92,75.04 L35.92,54.88 L20.88,54.88 L20.88,71.44 L11.2,71.44 L11.2,46.4 L35.92,46.4 L35.92,41.6 L18.8,41.6 L18.8,23.2 L61.36,23.2 L61.36,41.6 L45.76,41.6 L45.76,46.4 L69.92,46.4 Z M62.4,11.12 L74.56,11.12 L74.56,30.4 L65.04,30.4 L65.04,19.36 L14.96,19.36 L14.96,30.4 L5.84,30.4 L5.84,11.12 L16.64,11.12 C15.44,8.8 13.76,6.16 12.16,4.16 L20.8,0.64 C23.12,3.28 25.6,6.8 26.64,9.2 L22.32,11.12 L35.04,11.12 L35.04,0.16 L44.88,0.16 L44.88,11.12 L57.44,11.12 L52.96,9.52 C54.96,7.12 57.36,3.44 58.72,0.8 L68.96,3.84 C66.64,6.64 64.4,9.12 62.4,11.12 Z M103.28,36.4 L103.28,41.36 L136.72,41.36 L136.72,36.4 L103.28,36.4 Z M103.28,23.68 L103.28,28.64 L136.72,28.64 L136.72,23.68 L103.28,23.68 Z M103.28,11.04 L103.28,16 L136.72,16 L136.72,11.04 L103.28,11.04 Z M136.88,65.28 L145.2,65.28 C147.92,65.28 148.4,63.92 148.8,54.64 C150.8,56.16 155.04,57.76 157.52,58.4 C156.48,71.04 154,74.32 146.08,74.32 L135.52,74.32 C126,74.32 123.76,71.44 123.76,62.48 L123.76,49.68 L114.08,49.68 C112.4,62.4 107.68,70.8 87.92,75.28 C87.04,72.72 84.48,68.8 82.64,66.8 C99.04,63.76 102.48,58.4 103.84,49.68 L94.08,49.68 L94.08,2.72 L146.4,2.72 L146.4,49.68 L133.36,49.68 L133.36,62.4 C133.36,64.96 133.84,65.28 136.88,65.28 Z M188.24,10.56 L176,10.56 L176,14.88 L188.24,14.88 L188.24,10.56 Z M176,25.84 L188.24,25.84 L188.24,21.28 L176,21.28 L176,25.84 Z M197.12,33.04 L176,33.04 L176,74.96 L166.56,74.96 L166.56,3.28 L197.12,3.28 L197.12,33.04 Z M206.32,46.4 L193.12,46.4 L193.12,55.84 L206.32,55.84 L206.32,46.4 Z M215.2,63.68 L193.12,63.68 L193.12,68.16 L184.24,68.16 L184.24,38.56 L215.2,38.56 L215.2,63.68 Z M211.68,25.92 L224.32,25.92 L224.32,21.28 L211.68,21.28 L211.68,25.92 Z M224.32,10.48 L211.68,10.48 L211.68,14.88 L224.32,14.88 L224.32,10.48 Z M234,3.28 L234,63.6 C234,68.88 232.88,71.6 229.52,73.12 C226.24,74.72 221.2,74.96 213.84,74.96 C213.52,72.24 212,67.76 210.64,65.2 C215.28,65.52 220.72,65.44 222.24,65.36 C223.76,65.36 224.32,64.88 224.32,63.44 L224.32,33.12 L202.64,33.12 L202.64,3.28 L234,3.28 Z M304.72,24.64 L304.72,20.96 L290.16,20.96 L290.16,24.64 L304.72,24.64 Z M304.72,34.48 L304.72,30.8 L290.16,30.8 L290.16,34.48 L304.72,34.48 Z M304.72,44.4 L304.72,40.56 L290.16,40.56 L290.16,44.4 L304.72,44.4 Z M281.68,14.56 L291.92,14.56 C292.4,13.2 292.8,11.68 293.28,10.24 L279.2,10.24 L279.2,3.6 L315.84,3.6 L315.84,10.24 L301.84,10.24 L299.92,14.56 L313.52,14.56 L313.52,50.88 L281.68,50.88 L281.68,14.56 Z M299.36,54.4 L305.92,50.96 C310.16,53.76 315.12,58 317.6,61.04 L310.8,65.04 C308.32,61.92 303.36,57.2 299.36,54.4 Z M288.16,51.44 L295.92,53.92 C292.48,58.4 286.88,62.96 281.92,65.6 C280.56,64.08 277.52,61.36 275.84,60.08 C280.56,57.92 285.36,54.8 288.16,51.44 Z M267.2,13.44 L267.2,9.68 L255.76,9.68 L255.76,13.44 L267.2,13.44 Z M267.2,23.36 L267.2,19.44 L255.76,19.44 L255.76,23.36 L267.2,23.36 Z M276,3.36 L276,29.76 L247.28,29.76 L247.28,3.36 L276,3.36 Z M266.48,54.64 L266.48,64.08 C271.28,65.52 277.12,65.84 284.24,65.84 C289.68,65.84 311.52,65.84 318.08,65.52 C316.8,67.36 315.52,71.04 315.04,73.36 L284.24,73.36 C269.2,73.36 259.28,71.84 252.88,63.12 C251.76,67.92 250,72.16 247.28,75.44 C246.08,73.44 243.68,70.4 241.76,68.96 C246.24,63.44 247.04,54 247.28,44.4 L254.88,44.4 C254.8,47.36 254.64,50.24 254.4,53.12 C255.52,55.68 256.88,57.76 258.48,59.44 L258.48,41.2 L243.68,41.2 L243.68,34.32 L279.52,34.32 L279.52,41.2 L266.48,41.2 L266.48,47.76 L278,47.76 L278,54.64 L266.48,54.64 Z" id="常見問題" fill="#FFFFFF"></path>
                <path d="M2.73,136 L2.73,113.8 L8.82,113.8 C15.6,113.8 19.8,117.31 19.8,124.81 C19.8,132.28 15.6,136 9.06,136 L2.73,136 Z M7.17,132.43 L8.55,132.43 C12.69,132.43 15.27,130.21 15.27,124.81 C15.27,119.38 12.69,117.34 8.55,117.34 L7.17,117.34 L7.17,132.43 Z M22.89,128.98 L22.89,125.83 L31.08,125.83 L31.08,128.98 L22.89,128.98 Z M41.04,136.42 C38.07,136.42 35.1,135.25 32.94,133.18 L35.49,130.12 C37.08,131.59 39.18,132.58 41.13,132.58 C43.44,132.58 44.67,131.59 44.67,130.03 C44.67,128.38 43.32,127.87 41.34,127.03 L38.37,125.77 C36.12,124.84 33.87,123.04 33.87,119.8 C33.87,116.17 37.05,113.38 41.55,113.38 C44.13,113.38 46.71,114.4 48.51,116.23 L46.26,119.02 C44.85,117.85 43.38,117.19 41.55,117.19 C39.6,117.19 38.34,118.06 38.34,119.53 C38.34,121.12 39.93,121.69 41.82,122.44 L44.73,123.67 C47.43,124.78 49.2,126.49 49.2,129.7 C49.2,133.33 46.17,136.42 41.04,136.42 Z M62.19,136.42 C56.58,136.42 52.02,132.4 52.02,124.99 C52.02,117.67 56.73,113.38 62.34,113.38 C65.16,113.38 67.41,114.73 68.85,116.23 L66.51,119.05 C65.4,117.97 64.11,117.19 62.43,117.19 C59.07,117.19 56.55,120.07 56.55,124.84 C56.55,129.67 58.83,132.58 62.34,132.58 C64.23,132.58 65.73,131.68 66.93,130.39 L69.27,133.15 C67.44,135.28 65.07,136.42 62.19,136.42 Z M72.84,136 L72.84,113.8 L77.28,113.8 L77.28,122.53 L85.68,122.53 L85.68,113.8 L90.09,113.8 L90.09,136 L85.68,136 L85.68,126.4 L77.28,126.4 L77.28,136 L72.84,136 Z M104.37,136.42 C98.49,136.42 94.44,132.01 94.44,124.81 C94.44,117.58 98.49,113.38 104.37,113.38 C110.25,113.38 114.3,117.61 114.3,124.81 C114.3,132.01 110.25,136.42 104.37,136.42 Z M104.37,132.58 C107.67,132.58 109.77,129.55 109.77,124.81 C109.77,120.04 107.67,117.19 104.37,117.19 C101.07,117.19 98.97,120.04 98.97,124.81 C98.97,129.55 101.07,132.58 104.37,132.58 Z M127.47,136.42 C121.59,136.42 117.54,132.01 117.54,124.81 C117.54,117.58 121.59,113.38 127.47,113.38 C133.35,113.38 137.4,117.61 137.4,124.81 C137.4,132.01 133.35,136.42 127.47,136.42 Z M127.47,132.58 C130.77,132.58 132.87,129.55 132.87,124.81 C132.87,120.04 130.77,117.19 127.47,117.19 C124.17,117.19 122.07,120.04 122.07,124.81 C122.07,129.55 124.17,132.58 127.47,132.58 Z M141.75,136 L141.75,113.8 L146.19,113.8 L146.19,132.28 L155.19,132.28 L155.19,136 L141.75,136 Z M14.34,186.7 C7.56,186.7 1.68,182.53 1.68,174.04 C1.68,164.65 8.58,158.44 16.71,158.44 C23.94,158.44 28.53,163.33 28.53,170.32 C28.53,176.47 24.48,179.59 21.03,179.59 C19.11,179.59 17.55,178.69 17.22,177.01 L17.16,177.01 C16.17,178.36 14.46,179.29 13.05,179.29 C10.47,179.29 8.67,177.37 8.67,174.25 C8.67,170.26 11.55,166.03 15.45,166.03 C16.59,166.03 17.49,166.54 18.06,167.71 L18.12,167.71 L18.6,166.3 L21.33,166.3 L19.86,173.62 C19.32,175.81 19.86,176.83 21.48,176.83 C23.55,176.83 25.68,174.37 25.68,170.47 C25.68,165.4 22.89,161.17 16.35,161.17 C10.47,161.17 4.68,166.18 4.68,173.92 C4.68,180.61 9.24,183.97 14.7,183.97 C16.53,183.97 18.51,183.4 19.95,182.59 L20.94,185.05 C18.9,186.19 16.74,186.7 14.34,186.7 Z M13.98,176.5 C14.76,176.5 15.51,176.02 16.47,174.82 L17.34,170.02 C16.89,169.27 16.32,168.91 15.57,168.91 C13.38,168.91 12,171.82 12,174.01 C12,175.69 12.81,176.5 13.98,176.5 Z M32.94,181 L32.94,158.8 L37.47,158.8 L43.92,170.62 L46.14,175.42 L46.29,175.42 C46.05,173.11 45.72,170.17 45.72,167.65 L45.72,158.8 L49.92,158.8 L49.92,181 L45.42,181 L39,169.12 L36.75,164.35 L36.6,164.35 C36.81,166.75 37.14,169.54 37.14,172.09 L37.14,181 L32.94,181 Z M59.82,181 L59.82,162.49 L53.58,162.49 L53.58,158.8 L70.56,158.8 L70.56,162.49 L64.26,162.49 L64.26,181 L59.82,181 Z M82.68,181.42 C77.28,181.42 74.04,178.39 74.04,171.01 L74.04,158.8 L78.48,158.8 L78.48,171.4 C78.48,176.02 80.07,177.58 82.68,177.58 C85.32,177.58 87,176.02 87,171.4 L87,158.8 L91.26,158.8 L91.26,171.01 C91.26,178.39 88.11,181.42 82.68,181.42 Z" id="D-SCHOOL-@NTU" fill="#FF5559"></path>
                <path d="M18.51,412.31 L16.8,413.81 C16.41,413.42 15.84,413 15.24,412.55 C14.43,413.15 13.62,413.66 12.81,414.05 C12.39,413.63 11.52,412.85 10.95,412.46 C11.73,412.16 12.51,411.74 13.23,411.29 C12.66,410.96 12.15,410.66 11.61,410.39 L13.2,409.01 C13.77,409.28 14.4,409.61 15.03,409.97 C15.42,409.58 15.81,409.19 16.11,408.77 L18.45,409.46 C18.03,410.03 17.52,410.6 16.95,411.11 C17.55,411.53 18.09,411.95 18.51,412.31 Z M7.44,418.28 L7.5,419.33 L12.36,419.33 C12.03,418.94 11.46,418.37 11.01,417.95 L11.01,418.28 L7.44,418.28 Z M5.34,421.91 L5.34,425.48 L1.95,425.48 L1.95,419.33 L4.2,419.33 L3.66,410.42 C5.46,410.12 8.13,409.31 9.72,408.74 L11.16,410.81 C9.99,411.26 8.49,411.65 7.08,411.95 L7.14,412.82 L10.95,412.82 L10.95,415.04 L7.26,415.04 L7.32,416.06 L11.01,416.06 L11.01,417.59 C11.73,417.23 12.45,416.87 13.11,416.45 C12.54,416.09 11.97,415.76 11.43,415.46 L13.08,414.05 C13.68,414.35 14.31,414.71 14.94,415.07 C15.39,414.65 15.81,414.23 16.14,413.81 L18.48,414.5 C18.03,415.13 17.49,415.73 16.89,416.3 C17.61,416.78 18.24,417.23 18.69,417.68 L16.92,419.24 C16.47,418.79 15.87,418.31 15.18,417.77 C14.37,418.37 13.56,418.88 12.75,419.33 L22.47,419.33 L22.59,418.28 L19.05,418.28 L19.05,416.06 L22.8,416.06 L22.86,415.04 L19.2,415.04 L19.2,412.82 L23.01,412.82 L23.07,411.83 L19.02,411.83 L19.02,409.58 L26.55,409.58 C26.4,412.73 26.19,416.54 25.92,419.33 L28.14,419.33 L28.14,425.48 L24.6,425.48 L24.6,421.91 L5.34,421.91 Z M28.53,428.3 L28.53,431.12 L17.07,431.12 L17.07,433.28 C17.07,434.87 16.71,435.65 15.48,436.13 C14.25,436.55 12.6,436.58 10.35,436.58 C10.2,435.62 9.69,434.42 9.27,433.58 C10.68,433.64 12.48,433.64 12.93,433.61 C13.41,433.61 13.56,433.52 13.56,433.16 L13.56,431.12 L1.41,431.12 L1.41,428.3 L13.56,428.3 L13.56,427.43 C14.64,427.01 15.78,426.35 16.86,425.69 L7.23,425.69 L7.23,423.2 L20.28,423.2 L21.03,423.02 L23.04,424.85 C21.39,426.05 19.35,427.28 17.31,428.3 L28.53,428.3 Z M55.23,415.16 L44.91,415.16 L44.91,417.59 L55.23,417.59 L55.23,415.16 Z M43.95,420.68 L43.95,418.01 L41.61,418.01 L41.61,412.1 L48.57,412.1 C48.24,411.14 47.79,410.12 47.34,409.25 L50.73,408.29 C51.42,409.46 52.11,410.99 52.44,412.1 L58.65,412.1 L58.65,418.01 L56.28,418.01 L56.28,420.68 L43.95,420.68 Z M39.24,409.61 L41.58,410.96 C40.8,413.48 39.81,416.48 38.97,418.82 C40.77,421.16 41.16,423.29 41.16,425.03 C41.16,426.98 40.77,428.27 39.81,428.99 C39.36,429.35 38.79,429.53 38.1,429.65 C37.56,429.74 36.87,429.74 36.18,429.71 C36.18,428.84 35.88,427.52 35.4,426.65 C35.91,426.68 36.36,426.71 36.69,426.68 C36.99,426.68 37.26,426.62 37.5,426.44 C37.86,426.17 38.01,425.51 38.01,424.64 C38.01,423.2 37.65,421.28 35.94,419.15 C36.54,417.35 37.14,414.92 37.62,412.94 L35.22,412.94 L35.22,436.52 L32.1,436.52 L32.1,409.76 L38.73,409.76 L39.24,409.61 Z M54.57,433.19 L55.65,433.19 C56.1,433.19 56.25,432.68 56.31,429.62 C56.97,430.19 58.35,430.7 59.22,430.94 C58.95,435.05 58.11,436.19 56.01,436.19 L53.94,436.19 C51.3,436.19 50.7,435.17 50.7,432.2 L50.7,426.08 L48.72,426.08 C48.27,431.12 46.89,434.6 41.07,436.61 C40.74,435.71 39.81,434.42 39.09,433.73 C43.86,432.26 44.94,429.83 45.3,426.08 L41.7,426.08 L41.7,422.9 L58.8,422.9 L58.8,426.08 L54.09,426.08 L54.09,432.23 C54.09,433.07 54.15,433.19 54.57,433.19 Z M72.48,413.54 L72.48,416.36 L60.99,416.36 L60.99,413.54 L66.15,413.54 C65.7,412.4 64.92,410.9 64.23,409.76 L66.99,408.44 C67.83,409.7 68.73,411.32 69.21,412.46 L67.2,413.54 L72.48,413.54 Z M71.49,417.71 L71.49,420.41 L62.31,420.41 L62.31,417.71 L71.49,417.71 Z M62.31,424.46 L62.31,421.76 L71.49,421.76 L71.49,424.46 L62.31,424.46 Z M68.61,432.08 L68.61,428.72 L65.25,428.72 L65.25,432.08 L68.61,432.08 Z M76.26,417.2 L76.26,419.12 L78.78,419.12 L78.78,417.2 L76.26,417.2 Z M76.26,412.52 L76.26,414.47 L78.78,414.47 L78.78,412.52 L76.26,412.52 Z M84.51,414.47 L84.51,412.52 L81.87,412.52 L81.87,414.47 L84.51,414.47 Z M84.51,419.12 L84.51,417.2 L81.87,417.2 L81.87,419.12 L84.51,419.12 Z M88.5,426.86 L83.52,426.86 C85.05,429.14 87.3,431.36 89.43,432.68 C88.65,433.28 87.54,434.51 87,435.35 C85.29,434 83.52,431.96 82.08,429.77 L82.08,436.58 L78.6,436.58 L78.6,430.07 C77.1,432.26 75.27,434.21 73.35,435.5 C72.96,434.9 72.33,434.09 71.7,433.46 L71.7,434.96 L65.25,434.96 L65.25,436.22 L62.25,436.22 L62.25,425.87 L71.7,425.87 L71.7,432.32 C73.77,431 75.78,428.99 77.13,426.86 L72.21,426.86 L72.21,423.71 L78.6,423.71 L78.6,421.94 L73.08,421.94 L73.08,409.73 L87.81,409.73 L87.81,421.94 L82.08,421.94 L82.08,423.71 L88.5,423.71 L88.5,426.86 Z M113.88,417.2 L113.88,412.88 L106.41,412.88 L106.41,417.2 L113.88,417.2 Z M117.33,409.88 L117.33,420.2 L103.11,420.2 L103.11,409.88 L117.33,409.88 Z M102.3,425.6 L100.41,428.51 C100.02,427.52 99.27,426.05 98.55,424.7 L98.55,436.64 L95.16,436.64 L95.16,425.48 C94.29,427.97 93.3,430.31 92.19,431.96 C91.89,430.88 91.14,429.32 90.66,428.42 C92.07,426.44 93.48,423.26 94.35,420.38 L91.05,420.38 L91.05,417.05 L95.16,417.05 L95.16,413.45 C94.2,413.63 93.24,413.81 92.34,413.93 C92.19,413.12 91.77,411.92 91.38,411.17 C94.44,410.63 97.83,409.73 100.05,408.68 L101.94,411.62 C100.89,412.04 99.75,412.4 98.55,412.7 L98.55,417.05 L101.91,417.05 L101.91,420.38 L98.55,420.38 L98.55,420.86 C99.33,421.73 101.76,424.85 102.3,425.6 Z M112.2,432.86 L118.77,432.86 L118.77,436.04 L101.43,436.04 L101.43,432.86 L108.66,432.86 L108.66,430.13 L102.96,430.13 L102.96,427.07 L108.66,427.07 L108.66,424.64 C107.07,424.76 105.45,424.85 103.95,424.91 C103.83,424.13 103.44,422.93 103.08,422.21 C107.4,421.94 112.29,421.37 115.32,420.59 L117.51,423.29 C115.92,423.68 114.09,423.98 112.2,424.25 L112.2,427.07 L117.57,427.07 L117.57,430.13 L112.2,430.13 L112.2,432.86 Z" id="學院課程" fill="#FF5559"></path>
            </g>
            <text id="Ｑ＆Ａ" font-family="NotoSansCJKtc-Bold, Noto Sans CJK TC" font-size="120" font-weight="bold" fill="#FFFFFF">
                <tspan x="150" y="114">Ｑ</tspan>
                <tspan x="150" y="291">＆</tspan>
                <tspan x="150" y="468">Ａ</tspan>
            </text>
        </g>
    </g>
</svg>